<?xml version="1.0" encoding="utf-8"?>
<!-- Generator: Adobe Illustrator 23.0.0, SVG Export Plug-In . SVG Version: 6.00 Build 0)  -->
<svg version="1.1" id="Layer_1" xmlns="http://www.w3.org/2000/svg" xmlns:xlink="http://www.w3.org/1999/xlink" x="0px" y="0px"
	 viewBox="0 0 1242 2208" style="enable-background:new 0 0 1242 2208;" xml:space="preserve">
<style type="text/css">
	.st0{fill:#FFFFFF;}
	.st1{fill:#AA0018;}
	.st2{fill:#F7996B;}
	.st3{fill:#FFC197;}
	.st4{fill:#13252D;}
	.st5{fill:#2A3E44;}
	.st6{fill:#D6E4EA;}
	.st7{fill:#9C002A;}
	.st8{fill:#C70239;}
	.st9{fill:#EAEDEF;}
	.st10{fill:#D81B60;}
	.st11{fill:#EC407A;}
	.st12{opacity:0.2;fill:#BBDEFB;enable-background:new    ;}
	.st13{fill:#0A0C0B;}
</style>
<circle class="st0" cx="615.4" cy="605.5" r="598.5"/>
<g id="Group_51" transform="translate(-476.917 -196.9)">
	<g id="Group_43" transform="translate(-86.076 -165.345)">
		<path id="Path_159" d="M1521,741.1c-25.5-71.9-63.1-137.7-127-187.4c-10.1-8.1-21.5-15.4-33.6-20.8c-5.4-2-30.2-8.1-32.9-12.1
			c-35.6-68.5-124.3-107.5-197.5-100.1c-139.7,14.1-251.9,143.7-259.3,282.1c-2,43,6.7,100.1,25.5,139c17.5,36.3,49,75.2,50.4,116.9
			c0.7,32.2-10.7,64.5-32.9,88c-18.8,21.5-47.7,34.9-71.9,15.4c-10.1-8.1-8.7-21.5-2.7-34.3c-90,96.1,28.2,270,69.2,292.9
			c86,49,523.9,193.5,641.5-90.7c47.7-115.5,31.6-252.6,4-370.8C1545.9,819.7,1534.5,780,1521,741.1z"/>
		<path id="Path_160" class="st1" d="M1263.7,1125.3l26.9,51.1l-35.6,4.7V1126h8.7V1125.3z"/>
		<path id="Path_161" class="st1" d="M1093.8,1125.3l-26.9,51.1l35.6,4.7V1126h-8.7V1125.3z"/>
		<path id="Path_162" class="st2" d="M1380,784.7c53.7-53.1,61.1,27.5,47,66.5c-23.5,64.5-75.2,76.6-137,66.5L1380,784.7z"/>
		<path id="Path_163" class="st2" d="M977.6,784.7c-53.7-53.1-61.1,27.5-46.3,66.5c23.5,64.5,75.2,76.6,137,66.5L977.6,784.7z"/>
		<path id="Path_164" class="st3" d="M1504.9,1314.7c0,81.3-145.8,146.4-326.5,146.4c-180,0-326.5-65.8-326.5-146.4
			c0-40.3,35.6-76.6,94-102.8c38.3-17.5,147.1-43,147.1-59.1c0-4,0-14.1,0-27.5c0.7-36.9,1.3-94.7,1.3-94.7H1259
			c0,0,1.3,20.2,2,44.3c1.3,31.6,3.4,69.9,3.4,79.9c0,18.1,107.5,39.6,145.8,57.1C1468.6,1238.1,1504.9,1274.4,1504.9,1314.7z"/>
		<path id="Path_165" class="st2" d="M1261.1,1074.9c-37.6,69.2-98.1,106.1-138.4,86c-12.8-7.4-23.5-19.5-29.6-32.9v-2
			c0.7-36.9,1.3-94.7,1.3-94.7H1259C1259,1030.6,1260.4,1050.7,1261.1,1074.9z"/>
		<path id="Path_166" class="st3" d="M1385.3,827.1c0,149.8-137.7,271.4-206.2,271.4c-68.5,0-206.2-121.6-206.2-271.4
			s14.8-296.2,206.2-296.2S1385.3,677.3,1385.3,827.1z"/>
		<path id="Path_167" class="st4" d="M1309.4,588.6c-11.4-89.3-81.9-141.1-157.2-124.9c-106.1,22.8-334.5,160.5-180,340.6
			c5.4-194.8,332.5-139.7,329.8-205.5L1309.4,588.6z"/>
		<path id="Path_168" class="st4" d="M1298,559.7c72.5-18.8,165.9,69.2,154.5,141.7c-6,40.3-36.3,69.2-67.8,102.8
			c-6-34.9-7.4-101.4-64.5-157.9c-22.8-22.8-16.8-45.7-22.2-76.6L1298,559.7z"/>
		<path id="Path_169" class="st2" d="M1207.3,915c0,8.1-12.8,14.8-28.2,14.8c-15.4,0-28.2-6.7-28.2-14.8c0-8.1,12.8-6,28.2-6
			C1194.6,909,1207.3,907,1207.3,915z"/>
		<path id="Path_170" class="st5" d="M1216.7,481.8c-29.6,43.7-16.8,75.9,7.4,112.8c-71.9,14.1-188.8,52.4-225,99.4
			C982.3,626.2,1051.5,481.8,1216.7,481.8z"/>
		<path id="Path_171" class="st5" d="M1380.6,587.9c-2,28.9-18.1,38.3-40.3,46.3c26.2,29.6,63.8,85.3,63.8,117.6
			C1433.7,728.3,1451.8,643,1380.6,587.9z"/>
		<path id="Path_172" class="st6" d="M1265.1,1525.6L1265.1,1525.6c-57.1,10.1-115.5,10.1-172.6,0h-0.7
			c-18.8-3.4-55.8-111.5-17.5-106.1c2,0,4,0.7,6,0.7c64.5,9.4,130.3,9.4,194.8,1.3c2,0,4-0.7,6-0.7
			C1320.2,1415.5,1283.9,1522.3,1265.1,1525.6z"/>
		<path id="Path_173" class="st1" d="M886.9,1440.3c-1.3-0.7-2.7-1.3-3.4-2.7c-8.1-5.4-16.1-11.4-24.2-17.5c-0.7-0.7-1.3-0.7-2-1.3
			c-22.8-18.1-44.3-37.6-64.5-59.1c-2.7-2.7-5.4-6-8.1-8.7c-2-2-4-4-5.4-6c10.7-40.3,26.9-92.7,43-104.8c7.4-5.4,13.4-6.7,18.8-5.4
			c1.3,0,2,0.7,2.7,1.3c1.3,0.7,2.7,2,4,2.7c0.7,0.7,0.7,0.7,1.3,1.3c0.7,0.7,0.7,0.7,1.3,1.3c0.7,0.7,0.7,1.3,1.3,2
			c0.7,1.3,2,2.7,2.7,4c1.3,2.7,2.7,4.7,4,7.4c0.7,1.3,1.3,3.4,2,5.4v0.7c0.7,2,1.3,3.4,2,5.4c0,0,0,0.7,0,1.3c0.7,2,1.3,4.7,2,7.4
			c0,0,0,0,0,0.7l0,0l0,0c0.7,2,1.3,4.7,1.3,6.7c0.7,2.7,1.3,5.4,2,8.7c0.7,2.7,0.7,5.4,1.3,8.1v0.7c0.7,3.4,1.3,7.4,2,11.4
			c0.7,4.7,1.3,9.4,2,14.8c0,2.7,0.7,5.4,0.7,8.1c0.7,4.7,1.3,10.1,1.3,14.8c0,2.7,0.7,4.7,0.7,7.4c0.7,6,0.7,11.4,1.3,16.8
			c0,1.3,0,2.7,0,4c0,0.7,0,1.3,0,1.3c0,0.7,0,0.7,0,1.3c0.7,12.8,1.3,22.8,2.7,28.9c0,0.7,0,0.7,0,1.3c0,0.7,0,1.3,0.7,2
			c1.3,8.1,2.7,16.8,4.7,25.5C886.2,1437.6,886.2,1439,886.9,1440.3z"/>
		<path id="Path_174" class="st7" d="M1092.5,1525.6c-18.1-3.4-36.9-7.4-54.4-12.8c-8.7-2.7-17.5-5.4-25.5-8.1
			c-28.9-10.1-57.1-22.8-84-38.3c-2.7-1.3-5.4-3.4-8.7-4.7c-7.4-4.7-15.4-9.4-22.8-14.1c-3.4-2-6.7-4.7-10.1-6.7
			c-1.3-0.7-2.7-1.3-3.4-2.7c-8.1-5.4-16.1-11.4-24.2-17.5c-0.7-0.7-1.3-0.7-2-1.3c-6.7-61.8-10.7-112.2-12.1-145.1
			c-0.7-6-0.7-11.4-0.7-16.1c0-8.1-0.7-13.4-0.7-17.5c0-2,0-4,0-4.7v-0.7c0,0,41.6-22.2,151.1-52.4c0,0,0.7,0,0.7-0.7
			c7.4-2,15.4-4,24.2-6.7c12.8-3.4,1.3,2,3.4,9.4c6.7,18.1,21.5,69.2,44.3,192.8l0,0c2.7,12.8,4.7,26.9,7.4,41.6
			c2,10.1,3.4,21.5,5.4,32.2c0,0.7,0,2,0.7,2.7C1084.4,1476.6,1088.4,1500.1,1092.5,1525.6z"/>
		<path id="Path_175" class="st8" d="M1081.7,1177.7c-5.4,39.6-10.1,104.1-4,202.9c0.7,12.8,2,26.2,2.7,40.3
			c0.7,10.1,2,20.8,2.7,31.6c0,1.3,0,2,0,2.7c2,22.2,4.7,45.7,8.1,70.5h-0.7c-18.1-3.4-36.9-7.4-54.4-12.8
			c-8.7-2.7-17.5-5.4-25.5-8.1c-6-18.8-12.1-36.3-18.1-52.4c-2.7-6.7-4.7-12.8-6.7-18.8c-2-4.7-3.4-8.7-4.7-12.8l0,0
			c-4-10.1-7.4-18.8-10.1-26.9c-11.4-28.9-18.8-46.3-18.8-46.3s1.3-1.3,4.7-3.4c11.4-8.7,41.6-31.6,61.8-36.3
			c-22.2-7.4-38.3-19.5-57.1-30.2c5.4-27.5,14.8-54.4,26.9-79.9c2-4.7,4.7-9.4,7.4-14.1c0,0,0.7,0,0.7-0.7
			c12.1-4.7,89.3-55.1,98.1-57.1c0,0,0,0,0,0.7c-4,11.4-7.4,23.5-8.7,36.3C1083.7,1166.9,1083.1,1172.3,1081.7,1177.7z"/>
		<path id="Path_176" class="st1" d="M1578.8,1344.9c-2,2-3.4,4-5.4,6l0,0c-2.7,2.7-5.4,6-8.1,8.7c-20.2,21.5-41.6,41-64.5,59.1
			c-0.7,0.7-1.3,1.3-2,2c-7.4,5.4-14.8,10.7-22.2,16.1c-2,1.3-4,2.7-5.4,4c2-10.7,4-21.5,5.4-32.2c0-0.7,0-2,0.7-2.7
			c0.7-7.4,2-19.5,2.7-33.6c0-5.4,0.7-10.7,1.3-16.1c0.7-9.4,2-19.5,2.7-29.6c2-17.5,4.7-34.3,8.7-51.1c1.3-4.7,2.7-9.4,4.7-14.1
			c0-0.7,0-0.7,0-0.7c4-12.1,10.1-20.2,16.8-24.2c6-2.7,13.4-2,21.5,4.7c2.7,2,4.7,4.7,6.7,7.4
			C1555.9,1267,1568.7,1310,1578.8,1344.9z"/>
		<path id="Path_177" class="st7" d="M1513.6,1235.5L1513.6,1235.5c0,2,0,10.1-0.7,22.2c0,4.7-0.7,10.1-0.7,16.1
			c0,6.7-0.7,14.8-1.3,22.8l0,0c-2,31.6-5.4,73.2-10.7,121.6c-0.7,0.7-1.3,1.3-2,2c-7.4,5.4-14.8,10.7-22.2,16.1c-2,1.3-4,2.7-5.4,4
			c-2.7,2-6,4-8.7,6c-8.1,5.4-16.1,10.1-24.2,14.8c-2.7,2-5.4,3.4-8.7,4.7c-26.9,15.4-55.1,28.2-84,38.3c-8.7,3.4-16.8,6-25.5,8.7
			c-18.1,5.4-36.3,9.4-54.4,12.8c4-25.5,7.4-49,11.4-71.2c0-0.7,0.7-2,0.7-2.7c2-10.7,3.4-21.5,5.4-31.6c1.3-7.4,2.7-14.1,3.4-20.8
			c24.2-137,41-193.5,47.7-213.6c1.3-3.4,2.7-6.7,4-10.1c8.1,2,16.1,4.7,24.2,6.7c0,0,0.7,0,0.7,0.7
			C1472,1214,1513.6,1235.5,1513.6,1235.5z"/>
		<path id="Path_178" class="st8" d="M1404.8,1347c0,0-5.4,12.1-13.4,32.9c-2,5.4-4,10.7-6.7,16.8c-2.7,7.4-6,15.4-9.4,24.2l0,0
			c-1.3,4-3.4,8.7-4.7,12.8c-2,6-4.7,12.1-7.4,18.8c-6,16.1-12.1,33.6-18.1,52.4c-8.7,3.4-16.8,6-25.5,8.7
			c-18.1,5.4-36.3,9.4-54.4,12.8h-0.7c3.4-24.9,6-48.4,8.1-70.5c0-1.3,0-2,0-2.7c1.3-10.7,2-20.8,2.7-30.2c0.7-7.4,1.3-14.1,2-20.8
			c8.1-109.5,3.4-180-2.7-223c-0.7-5.4-1.3-10.1-2-14.1c-2-12.8-5.4-25.5-9.4-38.3c0,0,0,0,0-0.7c8.7,2.7,86,52.4,98.1,57.1
			c0,0,0.7,0,0.7,0.7c2.7,4.7,4.7,9.4,7.4,14.1c12.1,25.5,20.8,51.7,26.2,79.3c-18.8,10.1-35.6,22.8-57.1,30.2
			C1363.8,1313.4,1404.8,1347,1404.8,1347z"/>
	</g>
	<g id="Group_47" transform="translate(-86.076 -165.345)">
		<path id="Path_179" class="st3" d="M1343.7,805.6c0,34.9-20.2,66.5-53.1,88.7c-30.2,20.8-71.2-22.2-116.2-22.2
			s-86.7,43-116.9,22.2c-32.2-22.2-52.4-53.1-52.4-88c0-67.2,75.9-121.6,169.3-121.6C1268.5,684,1343.7,738.4,1343.7,805.6z"/>
		<path id="Path_180" d="M1218.7,854.6c10.7-34.9,55.8-67.8,96.1-49.7c25.5,11.4,19.5,36.9,3.4,47.7c-25.5,16.8-60.5,14.8-90,6
			L1218.7,854.6z"/>
		<path id="Path_181" d="M1227.5,855.3c22.2,28.9,82.6,22.2,89.3-1.3c2-7.4-1.3-16.8-4.7-18.8L1227.5,855.3z"/>
		<path id="Path_182" class="st9" d="M1260.4,870.7c-0.7,0-1.3,0-2,0c-14.8-2-35.6-14.1-35.6-14.1c3.4-10.7,10.7-20.8,20.8-26.9
			c-1.3,3.4-2,7.4-2,11.4C1242.3,853.9,1249,865.3,1260.4,870.7z"/>
		<path id="Path_183" class="st9" d="M1320.8,843.2c-2.7,12.8-12.8,20.2-25.5,24.2c14.8-10.7,17.5-32.2,6.7-46.3
			c-0.7-1.3-2-2.7-3.4-4C1314.1,821,1322.9,831.8,1320.8,843.2z"/>
		<path id="Path_184" d="M1308.8,841.2c0,10.7-4.7,20.2-13.4,26.9l0,0c-11.4,3.4-22.8,4-34.3,2.7c-11.4-5.4-18.8-16.8-18.8-29.6
			c0-4,0.7-8.1,2-11.4c6.7-4.7,14.8-8.7,22.8-11.4c10.1-3.4,21.5-3.4,31.6-1.3C1304.7,823.7,1308.8,832.4,1308.8,841.2z"/>
		<path id="Path_185" class="st0" d="M1316.1,841.8c0,4.7-4,8.7-8.7,8.7c-4.7,0-8.7-4-8.7-8.7s4-8.7,8.7-8.7l0,0
			C1312.1,833.8,1316.1,837.1,1316.1,841.8L1316.1,841.8z"/>
		<g id="Group_44">
			<path id="Path_186" d="M1133.4,854.6c-10.7-34.9-55.8-67.8-96.1-49.7c-25.5,11.4-19.5,36.9-3.4,47.7c25.5,16.8,60.5,14.8,90,6
				L1133.4,854.6z"/>
			<path id="Path_187" d="M1124.7,855.3c-22.2,28.9-82.6,22.2-89.3-1.3c-2-7.4,1.3-16.8,4.7-18.8L1124.7,855.3z"/>
			<path id="Path_188" class="st9" d="M1056.9,868c-12.8-4-23.5-12.1-25.5-24.2c-2-11.4,6.7-22.2,22.2-26.2
				c-13.4,12.8-13.4,34.3-0.7,47C1054.2,865.3,1055.5,866.7,1056.9,868z"/>
			<path id="Path_189" class="st9" d="M1128.7,856.6c0,0-20.8,12.1-35.6,14.1c-0.7,0-1.3,0-2,0c11.4-5.4,18.8-16.8,18.8-29.6
				c0-4-0.7-8.1-2-11.4C1118,837.1,1126,847.2,1128.7,856.6z"/>
			<path id="Path_190" d="M1109.9,841.2c0,12.8-7.4,24.2-18.8,29.6c-11.4,1.3-23.5,0-34.3-2.7l0,0c-14.8-10.7-17.5-32.2-6.7-46.3
				c0.7-1.3,2-2.7,3.4-4c10.7-2,21.5-2,31.6,1.3c8.1,2,16.1,6,22.8,11.4C1109.3,833.1,1109.9,837.1,1109.9,841.2z"/>
			<path id="Path_191" class="st0" d="M1117.3,841.8c0,4.7-4,8.7-8.7,8.7c-4.7,0-8.7-4-8.7-8.7c0-4.7,4-8.7,8.7-8.7l0,0
				C1114,833.8,1117.3,837.1,1117.3,841.8L1117.3,841.8z"/>
		</g>
		<g id="Group_45">
			<path id="Path_192" d="M1013.2,775.3c15.4-13.4,32.9-22.2,53.1-22.2c20.2,0,36.3,12.8,55.1,16.8c12.8,2.7,7.4,22.8-4.7,20.2
				c-16.8-3.4-30.9-13.4-47.7-16.8c-18.1-3.4-36.9-1.3-54.4,5.4C1011.9,779.4,1012.5,776,1013.2,775.3z"/>
		</g>
		<g id="Group_46">
			<path id="Path_193" d="M1332.3,765.9c-16.8-11.4-35.6-18.1-55.1-16.1c-19.5,2-34.3,16.8-53.1,22.8c-12.1,4-4.7,23.5,7.4,19.5
				c16.1-5.4,29.6-16.8,45.7-22.2c18.1-5.4,36.9-5.4,55.1-0.7C1333.6,770,1332.9,766.6,1332.3,765.9L1332.3,765.9z"/>
		</g>
	</g>
	<g id="Group_48" transform="translate(-86.076 -165.345)">
		<path id="Path_194" class="st3" d="M1178.4,968.8c-75.9,0-124.9-64.5-124.9-8.1c0,56.4,73.2,124.9,124.9,124.9
			c52.4,0,124.9-69.2,124.9-124.9C1304.1,904.3,1254.3,968.8,1178.4,968.8z"/>
		<path id="Path_195" class="st10" d="M1180.5,982.9c-25.5,0.7-57.1,8.7-73.9-2c16.8,24.2,40.3,41.6,68.5,50.4c2,0,4,0,6-0.7
			c2,0,4,0.7,6,0.7c27.5-8.7,51.7-26.9,68.5-50.4C1237.6,992.3,1206,983.6,1180.5,982.9z"/>
		<path id="Path_196" class="st11" d="M1182.5,1008.4c-28.9,0-71.9-20.8-71.9-20.8c17.5,22.8,41.6,49,69.2,48.4h2
			c27.5,0.7,57.8-32.9,67.8-48.4C1249.6,987.6,1211.4,1008.4,1182.5,1008.4z"/>
	</g>
	<g id="Group_50" transform="translate(-86.076 -165.345)">
		<g id="Group_49">
			<path id="Path_197" class="st12" d="M1116.6,794.1c42.3,5.4,31.6,41,28.9,53.7c-12.1,59.1-49,61.1-92.7,61.1
				c-44.3,0-56.4-49-61.1-87.3c-2-14.1,4-27.5,13.4-28.2C1013.9,792.1,1074.3,788.8,1116.6,794.1z"/>
			<path id="Path_198" class="st12" d="M1359.8,792.8c9.4,0.7,15.4,14.1,13.4,28.2c-5.4,38.3-17.5,87.3-61.1,87.3
				s-81.3-1.3-92.7-61.1c-2.7-12.8-13.4-48.4,28.9-53.7C1289.9,788.8,1350.4,792.1,1359.8,792.8z"/>
			<path id="Path_199" class="st12" d="M1025.3,900.9c2.7-4.7,5.4-9.4,8.1-14.1c18.8-32.2,39.6-63.8,61.1-94
				c-30.2-1.3-59.8-1.3-90,0.7c-9.4,0.7-15.4,14.1-13.4,28.2C995.1,849.9,1003.1,884.8,1025.3,900.9z"/>
			<path id="Path_200" class="st12" d="M1147.5,816.3c-0.7-4-2.7-7.4-5.4-10.1c-24.2,32.9-47,67.2-67.8,102.1c5.4,0,11.4-0.7,16.8-2
				C1109.9,876.8,1128.1,846.5,1147.5,816.3z"/>
			<path id="Path_201" class="st12" d="M1309.4,909h2.7c41.6,0,54.4-43,60.5-80.6C1350.4,854.6,1329.6,882.1,1309.4,909z"/>
			<path id="Path_202" class="st12" d="M1299.3,791.5c-24.2,28.2-47,57.8-69.9,86.7c6,10.7,15.4,18.8,26.2,23.5
				c28.2-36.9,56.4-73.9,86-109.5C1330.9,791.5,1315.5,791.5,1299.3,791.5z"/>
			<path id="Path_203" class="st13" d="M1375.9,777.3c11.4,0.7,18.8,17.5,16.8,34.3c-6,47-20.8,106.8-74.6,106.8
				c-53.7,0-98.7-2-113.5-74.6c0-0.7-0.7-6.7-0.7-8.1c-10.7-6.7-30.9-8.1-43,0c0,1.3-0.7,7.4-0.7,8.1
				c-14.1,72.5-59.1,74.6-113.5,74.6c-54.4,0-68.5-59.8-74.6-106.8c-2-16.8,5.4-33.6,16.8-34.3c11.4-0.7,84.6-5.4,136.4,1.3
				c8.7,0.7,17.5,4,24.9,8.7c4,3.4,7.4,7.4,9.4,11.4c15.4,1.3,30.9,1.3,46.3-0.7c5.4-9.4,15.4-17.5,34.9-20.2
				C1291.3,772.6,1364.5,776.7,1375.9,777.3z M1373.2,821c2-14.1-4-27.5-13.4-28.2s-69.2-4-111.5,1.3c-42.3,5.4-31.6,41-28.9,53.7
				c12.1,59.1,49,61.1,92.7,61.1S1367.9,860,1373.2,821z M1145.5,847.9c2.7-12.8,13.4-48.4-28.9-53.7s-102.1-2-111.5-1.3
				c-9.4,0.7-15.4,14.1-13.4,28.2c5.4,38.3,17.5,87.3,61.1,87.3C1096.5,909,1133.4,907,1145.5,847.9L1145.5,847.9z"/>
		</g>
	</g>
</g>
</svg>
