<svg id="Layer_1" data-name="Layer 1" xmlns="http://www.w3.org/2000/svg" viewBox="0 0 437.09 74.29"><defs><style>.cls-1{fill:#fff;}</style></defs><title>nameavtar</title><path class="cls-1" d="M1046.64,873.93c.5-1,1.07-2,1.5-3.06q6.46-16.12,12.87-32.26c2.24-5.68,4.36-11.41,6.54-17.11.24-.64.52-1.26.81-1.87a1.65,1.65,0,0,1,1.73-1c3.31.15,6.63.26,9.94.38,1.11,0,1.41.64,1.38,1.65-.15,6-.21,12.07-.43,18.1q-.63,18.11.18,36.2c.21,4.67.23,9.35.31,14,0,1.46-.2,1.65-1.67,1.65h-10.42c-1.32,0-1.67-.3-1.65-1.6.13-7.24.3-14.47.44-21.7q.16-8.64.3-17.27a5.62,5.62,0,0,0-.14-1l-.39-.13a12.79,12.79,0,0,0-.9,1.51c-3,7.1-6,14.2-8.86,21.34-2.45,6-4.82,12.08-7.16,18.15a2.08,2.08,0,0,1-2.1,1.58c-2,0-4.07-.09-6.1-.18a2,2,0,0,1-1.75-1.4q-8.6-20.09-17.26-40.16c-.22-.49-.51-1-.77-1.43h-.39a11.18,11.18,0,0,0-.24,1.61q.11,9.88.24,19.78.12,9.54.22,19.07c0,1.65-.33,1.9-2,1.88q-4.78-.06-9.57,0c-1.61,0-1.92-.18-1.86-1.81.26-7.51.67-15,.79-22.53.13-7.94.06-15.9-.08-23.85-.13-7.19-.45-14.38-.74-21.56,0-1.24.34-1.88,1.62-2,3-.25,5.89-.5,8.83-.85a2.21,2.21,0,0,1,2.53,1.61c2,4.45,4,8.86,6,13.33q8.05,18.49,16,37c.56,1.27,1.17,2.52,1.75,3.78Z" transform="translate(-820.4 -817.56)"/><path class="cls-1" d="M886.61,890.64c-3.24,0-6.47,0-9.7,0a2.05,2.05,0,0,1-2.25-1.35c-.79-2-1.51-4-2.28-6s-1.54-4.19-2.42-6.24a3.32,3.32,0,0,0-3.45-2q-12.46.11-25,0a2.53,2.53,0,0,0-2.66,1.6c-.89,2.17-1.69,4.38-2.5,6.59-.75,2.06-1.45,4.14-2.21,6.19a1.84,1.84,0,0,1-2,1.28c-3.4-.08-6.8,0-10.2,0-1.62,0-1.85-.29-1.28-1.86,1.74-4.8,3.58-9.57,5.27-14.39,6.23-17.7,13.34-35.06,20.39-52.45.42-1,.78-2.09,1.17-3.14a1.53,1.53,0,0,1,1.83-1.15,29,29,0,0,0,10-.06c.82-.16,1.18.37,1.43,1,1,2.42,2.06,4.85,3,7.3q12.29,31.38,24.56,62.78c.07.19.13.38.2.56.42,1.2.28,1.4-1,1.43ZM854,833.57c-1.28,3.33-2.44,6.29-3.54,9.27q-3.25,8.8-6.45,17.64c-.62,1.73-.23,2.37,1.55,2.87a3.75,3.75,0,0,0,.93.19c3.75.07,7.51.21,11.26.17a26.84,26.84,0,0,0,5.44-.62c1.64-.35,1.83-1,1.23-2.52l-4.57-11.83C857.9,843.79,856,838.85,854,833.57Z" transform="translate(-820.4 -817.56)"/><path class="cls-1" d="M938.08,849.69c1.24-1,2.25-1.83,3.28-2.64,4.35-3.43,9-6.31,14.65-6.9,6.31-.66,12.15.53,16.61,5.51,3,3.28,3.57,7.3,3.31,11.54-.47,7.64-4.33,12.83-11.38,15.7-.26.11-.5.24-.75.36,0,0,0,.07-.22.33,2.5,5.79,6.65,10.68,10.43,16.14a12.78,12.78,0,0,1-2.3.59c-3.15.15-6.31.28-9.46.3a4,4,0,0,1-3.69-2.22c-2.13-3.56-4.39-7-6.67-10.52a2.61,2.61,0,0,0-1.69-1.08c-3.86-.23-7.73-.32-11.76-.47v2.36c0,3.43,0,6.87,0,10.31,0,1.54-.22,1.77-1.73,1.76-2.87,0-5.75-.08-8.63-.07a1.36,1.36,0,0,1-1.56-1.4c0-.51-.08-1-.08-1.55,0-13.07,0-26.15-.11-39.22-.09-7.71-.5-15.41-.75-23.12-.06-1.87-.07-3.75-.1-5.63,0-.77.2-1.34,1.1-1.4,3.3-.22,6.61-.48,9.92-.68,1.68-.1,1.81,0,1.77,1.81-.1,4.48-.3,9-.36,13.42-.07,5.2,0,10.4,0,15.6A8.19,8.19,0,0,0,938.08,849.69Zm8.69,18.77c2-.23,4.79-.35,7.47-.9,3.22-.66,6.15-2.08,8-5,2.92-4.49,1.19-10-3.61-11.41a13.68,13.68,0,0,0-9.37.46c-4.18,1.75-7.48,4.69-10.59,7.87a1.78,1.78,0,0,0-.4,1.07c0,2,0,4.07,0,6.11,0,.65.2.93.86,1C941.44,867.88,943.73,868.14,946.77,868.46Z" transform="translate(-820.4 -817.56)"/><path class="cls-1" d="M1130.39,848.57c.3-1.43.52-2.56.77-3.67.79-3.55.88-3.24,3.8-2.73,2,.35,4,.89,6,1.36.92.21,1.14.79,1,1.7a113.84,113.84,0,0,0-2,19c0,3.43.28,6.87.47,10.3.27,4.74.57,9.49.84,14.23.09,1.51-.17,1.77-1.72,1.9-2.51.22-5,.43-7.52.67a1.29,1.29,0,0,1-1.56-1.11c-.31-1.48-.59-3-.9-4.46-.12-.53-.31-1-.52-1.77-1,.79-1.94,1.44-2.8,2.13-3.23,2.56-6.66,4.79-10.81,5.42-7.52,1.13-13.87-1.3-19-6.84-5.61-6-7.74-13.27-7.07-21.41a26.54,26.54,0,0,1,6.6-16.1,22.54,22.54,0,0,1,16.44-7.48,19.49,19.49,0,0,1,14.54,5C1128,845.86,1129,847.1,1130.39,848.57Zm-1.55,16.55a15.38,15.38,0,0,0-1.59-6.92c-5.07-10.26-15.88-9.59-21.12-4.65a16.4,16.4,0,0,0-1,23.07,12.93,12.93,0,0,0,19.06.46A15.89,15.89,0,0,0,1128.84,865.12Z" transform="translate(-820.4 -817.56)"/><path class="cls-1" d="M1175.32,868.09V854.66c0-1.9-.6-2.49-2.51-2.54-.88,0-1.76-.1-2.64-.06a1.2,1.2,0,0,1-1.43-1.23c-.07-2.11-.12-4.22,0-6.32,0-1,.86-1.37,1.79-1.42s1.76,0,2.63-.11c1.51-.19,2-.76,2-2.3,0-2.95-.15-5.91-.18-8.87,0-1.79,0-3.59.09-5.38.13-1.62.73-2,2.33-1.68,2.79.5,5.57,1,8.37,1.48a1.51,1.51,0,0,1,1.49,1.86c-.24,3.59-.48,7.18-.66,10.77s-.15,3.54,3.36,3.54c3.28,0,6.56,0,9.84,0,1,0,1.34.26,1.28,1.3-.13,2.46-.17,4.94-.22,7.41,0,1.37-.23,1.66-1.59,1.62-3.71-.12-7.43-.24-11.13-.45-1.19-.07-1.56.41-1.6,1.48-.12,3.55-.35,7.1-.39,10.65,0,3.92,0,7.84.18,11.75.22,4.28,2.64,6.14,6.91,5.49,2-.31,4.08-.77,6.12-1.16.15,0,.31-.07.47-.09,1.93-.27,2.19,0,2,1.91s-.38,3.58-.47,5.37a2,2,0,0,1-1.46,1.94,29.17,29.17,0,0,1-10.46,1.73,32.05,32.05,0,0,1-6.79-.45c-4.79-1-7.46-4.22-7.6-9.12-.13-4.56,0-9.12,0-13.67Z" transform="translate(-820.4 -817.56)"/><path class="cls-1" d="M1220.15,847.09c1.59-1,3-1.9,4.33-2.8a18.4,18.4,0,0,1,12-2.81c2,.17,2.25.44,2.12,2.45-.19,2.83-.47,5.65-.7,8.48-.09,1.11-.59,1.64-1.79,1.52-2.15-.19-4.3-.35-6.45-.43a11.54,11.54,0,0,0-2.74.28c-3.92.82-5.65,2.85-5.76,7.48-.15,6.63,0,13.26,0,19.89,0,2.68.15,5.35.19,8,0,1.33-.26,1.58-1.65,1.58l-8.51-.08c-1.65,0-1.88-.23-1.87-1.88.08-9,.22-18,.22-27a64.59,64.59,0,0,0-2.22-17.65c-.4-1.38-.19-1.65,1.26-1.89,3.08-.49,6.16-.95,9.22-1.5,1-.17,1.15.41,1.27,1,.24,1.25.35,2.53.56,3.78A12,12,0,0,0,1220.15,847.09Z" transform="translate(-820.4 -817.56)"/><path class="cls-1" d="M898.53,891.36h-2.15c-1.35,0-1.76-.41-1.89-1.79q-.32-3.45-.59-6.92c-.1-1.2.25-1.59,1.5-1.6,2,0,4,.15,6,0a11,11,0,0,0,4-1.21,4.67,4.67,0,0,0,1-7.67,16.4,16.4,0,0,0-2.91-2.09c-2-1.17-4-2.25-5.92-3.38-4.5-2.6-6.23-6.65-6-11.68.34-8.62,6.64-13.08,13.44-14.45,1.71-.35,3.49-.34,5.23-.52a1.33,1.33,0,0,1,1.59,1.1q1,3.69,2,7.4c.23.85-.1,1.27-1,1.38-1.78.21-3.58.38-5.33.73A10.84,10.84,0,0,0,904,851.8a3.34,3.34,0,0,0-.71,5.27,16.88,16.88,0,0,0,3.19,2.49c1.8,1.17,3.68,2.24,5.54,3.33,8.25,4.83,8.13,16.83,2.36,22.52C909.93,889.75,904.57,891.43,898.53,891.36Z" transform="translate(-820.4 -817.56)"/><path class="cls-1" d="M1162.56,866.52v22.42c0,1.68,0,1.7-1.66,1.7h-8.52c-1.48,0-1.82-.31-1.81-1.83,0-3.4,0-6.8.13-10.19a209.65,209.65,0,0,0-.46-24.56c-.28-3.38-.33-6.78-.53-10.17-.07-1.16.37-1.64,1.53-1.49a15.46,15.46,0,0,0,2.14.19c2.35,0,4.7-.06,7-.1q.72,0,1.44-.09c1-.12,1.44.32,1.39,1.37-.2,4.15-.34,8.3-.53,12.45-.15,3.43-.34,6.86-.51,10.3Z" transform="translate(-820.4 -817.56)"/><path class="cls-1" d="M1256.4,866.52v22.42c0,1.68,0,1.7-1.66,1.7h-8.52c-1.48,0-1.82-.31-1.81-1.83,0-3.4,0-6.8.13-10.19a209.65,209.65,0,0,0-.46-24.56c-.28-3.38-.33-6.78-.53-10.17-.07-1.16.37-1.64,1.53-1.49a15.46,15.46,0,0,0,2.14.19c2.35,0,4.7-.06,7-.1q.72,0,1.44-.09c1-.12,1.44.32,1.39,1.37-.2,4.15-.34,8.3-.53,12.45-.15,3.43-.34,6.86-.51,10.3Z" transform="translate(-820.4 -817.56)"/><path class="cls-1" d="M1156.58,835.7c-.6,0-1.21,0-1.8-.09-3.7-.56-5.54-2.79-5.38-6.52a6.6,6.6,0,0,1,6.29-6.09,9.83,9.83,0,0,1,3.86.54c4.43,1.75,4.82,6.23,3.25,9.37-1,2-2.89,2.52-4.9,2.74a11.63,11.63,0,0,1-1.32,0Z" transform="translate(-820.4 -817.56)"/><path class="cls-1" d="M1250.38,835.68h-.72c-4-.06-6.34-2.24-6.42-6a6.54,6.54,0,0,1,6.33-6.65,9.83,9.83,0,0,1,3.86.55c4.44,1.78,4.78,6.33,3.18,9.39-1.07,2.07-3.12,2.58-5.27,2.74C1251,835.7,1250.7,835.68,1250.38,835.68Z" transform="translate(-820.4 -817.56)"/></svg>