<svg width="44" height="43" viewBox="0 0 44 43" fill="none" xmlns="http://www.w3.org/2000/svg">
<g clip-path="url(#clip0_3_108)">
<path d="M4.19467 27.7807C3.48581 27.7807 2.83326 27.7807 2.17604 27.7807C1.87026 27.7954 1.56481 27.7461 1.27915 27.6361C0.993491 27.526 0.733896 27.3576 0.516991 27.1416C0.300085 26.9255 0.130628 26.6667 0.0194093 26.3815C-0.0918093 26.0962 -0.142302 25.791 -0.128897 25.4851C-0.0819522 22.9971 -0.128897 20.5137 -0.128897 18.0257C-0.148158 17.7295 -0.104092 17.4326 0.000383969 17.1548C0.104859 16.877 0.267337 16.6246 0.476992 16.4145C0.686647 16.2044 0.938636 16.0414 1.21623 15.9363C1.49382 15.8313 1.79064 15.7866 2.08687 15.8052C2.76287 15.8052 3.44358 15.8052 4.15714 15.8052C4.15714 15.6644 4.15714 15.5517 4.15714 15.4343C4.15714 14.6081 4.15713 13.7819 4.20877 12.9604C4.32471 11.9222 4.78627 10.9533 5.51934 10.2091C6.25241 9.46498 7.21441 8.98891 8.25068 8.85743C8.5625 8.82351 8.87591 8.80628 9.18957 8.80579H18.109C18.9634 8.80579 19.8178 8.80579 20.6769 8.80579C20.8693 8.80579 20.9304 8.75414 20.9304 8.56636C20.9304 8.09692 20.9304 7.67442 20.9304 7.22845C20.9304 7.0172 20.8271 6.95147 20.6534 6.88575C19.9219 6.61702 19.2957 6.12108 18.8665 5.47059C18.4374 4.8201 18.2278 4.04927 18.2686 3.27103C18.3167 2.46832 18.6308 1.70449 19.1612 1.1001C19.6916 0.4957 20.4083 0.0851622 21.1979 -0.0667182C21.963 -0.215667 22.7558 -0.113306 23.458 0.225094C24.1602 0.563494 24.7342 1.1198 25.0944 1.81106C25.4555 2.49393 25.5839 3.27599 25.4603 4.03851C25.3366 4.80103 24.9674 5.50237 24.4089 6.03606C23.9913 6.36748 23.5378 6.65092 23.0569 6.88106C22.9114 6.96087 22.8316 7.0125 22.8363 7.1862C22.8363 7.69789 22.8363 8.20959 22.8363 8.75884C22.9912 8.75884 23.1086 8.75884 23.226 8.75884H34.6241C35.7356 8.74071 36.8176 9.11766 37.6773 9.8226C38.5369 10.5275 39.1185 11.5147 39.3185 12.6083C39.3773 12.9367 39.4056 13.2699 39.403 13.6035C39.403 14.3077 39.403 15.0118 39.403 15.7583H39.7832C40.4264 15.7583 41.0742 15.7583 41.7221 15.7583C42.2462 15.775 42.7439 15.9923 43.1126 16.3652C43.4812 16.7382 43.6926 17.2385 43.7032 17.7628C43.7219 20.4042 43.7219 23.0456 43.7032 25.687C43.686 26.2395 43.4515 26.7628 43.0507 27.1434C42.6499 27.524 42.1151 27.7311 41.5625 27.7197C40.8583 27.7197 40.1541 27.7197 39.403 27.7197V28.1234C39.403 29.2172 39.4312 30.311 39.3467 31.4095C39.2279 32.5167 38.7166 33.5448 37.9055 34.3077C37.0943 35.0706 36.0369 35.518 34.9245 35.5688H34.2344C34.2344 35.7331 34.2344 35.8646 34.2344 35.996C34.2344 37.3668 34.2344 38.7376 34.2344 40.1083C34.2495 40.523 34.1222 40.9302 33.8736 41.2625C33.6251 41.5947 33.2703 41.8318 32.8683 41.9345C32.4691 42.0551 32.0411 42.0393 31.6517 41.8897C31.2624 41.7401 30.934 41.4652 30.7183 41.1083C29.9734 39.9221 29.2333 38.7313 28.4978 37.5358C28.1504 36.9771 27.7889 36.4232 27.465 35.8552C27.4171 35.7571 27.3398 35.6764 27.2439 35.6242C27.148 35.5721 27.0382 35.5511 26.9298 35.5641C20.9366 35.5641 14.9403 35.5641 8.94075 35.5641C7.83319 35.5834 6.75447 35.2104 5.89538 34.5111C5.03628 33.8118 4.45217 32.8313 4.2463 31.7428C4.17894 31.3144 4.14912 30.8808 4.15714 30.4472C4.1853 29.6116 4.19467 28.7196 4.19467 27.7807ZM32.2581 39.8689L32.3379 39.8361C32.3379 38.4277 32.3379 37.0523 32.3379 35.658C32.3412 35.315 32.4197 34.9769 32.5679 34.6675C32.981 33.8694 33.7039 33.6582 34.563 33.6676C34.9543 33.6982 35.3476 33.6441 35.7161 33.509C36.0846 33.374 36.4198 33.1611 36.6986 32.8849C36.9775 32.6087 37.1935 32.2757 37.3321 31.9085C37.4707 31.5413 37.5286 31.1486 37.5017 30.757C37.5017 27.0484 37.5017 23.3398 37.5017 19.6265C37.5017 17.6548 37.5017 15.6831 37.5017 13.7115C37.5252 13.162 37.3934 12.617 37.1215 12.1388C36.8574 11.6889 36.4735 11.3212 36.0126 11.0767C35.5518 10.8322 35.032 10.7204 34.5114 10.754H8.93605C8.58029 10.7415 8.22558 10.7998 7.89258 10.9256C7.55958 11.0514 7.25493 11.2422 6.99632 11.4868C6.73772 11.7314 6.53035 12.025 6.38625 12.3505C6.24215 12.6761 6.16417 13.027 6.15692 13.3829C6.0865 15.6221 6.11467 17.8614 6.10529 20.1006C6.10529 21.0771 6.13348 22.0535 6.13348 23.0346C6.13348 25.6401 6.13348 28.2502 6.13348 30.8556C6.12106 31.2288 6.18543 31.6007 6.32259 31.948C6.45974 32.2954 6.66676 32.6108 6.93082 32.8749C7.19489 33.139 7.51039 33.346 7.85774 33.4832C8.20509 33.6203 8.5769 33.6847 8.95015 33.6723C13.1063 33.6723 17.2608 33.6723 21.4139 33.6723C23.4841 33.6723 25.5544 33.6723 27.62 33.6441C27.8087 33.6369 27.9962 33.6759 28.1664 33.7578C28.3365 33.8396 28.4842 33.9617 28.5964 34.1135C28.6854 34.2127 28.7655 34.3195 28.8358 34.4328C29.5212 35.5406 30.2082 36.6485 30.8967 37.7564C31.3661 38.4606 31.8199 39.1616 32.2581 39.8595V39.8689ZM4.19467 21.8C4.19467 20.5748 4.19467 19.3495 4.19467 18.1243C4.19467 17.8614 4.12894 17.7393 3.83789 17.7487C3.28394 17.7487 2.72528 17.7487 2.17134 17.7487C1.89906 17.7487 1.82865 17.852 1.82865 18.1055C1.82865 20.5654 1.82865 23.0253 1.82865 25.4851C1.82865 25.7574 1.93662 25.8372 2.18073 25.8325C2.7159 25.8325 3.25109 25.8325 3.78626 25.8325C4.11487 25.8325 4.20406 25.7152 4.19937 25.4006C4.18529 24.2036 4.19467 23.0018 4.19467 21.8V21.8ZM41.8347 21.8C41.8347 20.5654 41.8347 19.3307 41.8347 18.0961C41.8347 17.8567 41.769 17.7487 41.5155 17.7581C40.9381 17.7581 40.356 17.7581 39.7785 17.7581C39.5391 17.7581 39.4688 17.8567 39.4688 18.0773C39.4688 20.5529 39.4688 23.0253 39.4688 25.4945C39.4688 25.7574 39.5767 25.8419 39.8255 25.8372C40.3513 25.8372 40.8724 25.8372 41.3982 25.8372C41.8207 25.8372 41.8347 25.8372 41.8347 25.41V21.8ZM21.9256 1.83453C21.7054 1.83451 21.4874 1.87826 21.2842 1.96324C21.081 2.04822 20.8968 2.17273 20.7421 2.32954C20.5875 2.48635 20.4656 2.67233 20.3835 2.87667C20.3013 3.08101 20.2606 3.29963 20.2638 3.51984C20.2721 3.95263 20.4471 4.36552 20.7523 4.67247C21.0575 4.97943 21.4694 5.15679 21.9021 5.16759C22.1225 5.1707 22.3414 5.13004 22.546 5.04797C22.7506 4.96591 22.9369 4.84406 23.0941 4.6895C23.2512 4.53494 23.3762 4.35072 23.4617 4.14753C23.5472 3.94434 23.5915 3.7262 23.5921 3.50575C23.5946 3.28599 23.5532 3.06793 23.4704 2.86434C23.3876 2.66076 23.2651 2.47574 23.1099 2.32011C22.9547 2.16448 22.77 2.04137 22.5667 1.958C22.3633 1.87462 22.1454 1.83265 21.9256 1.83453V1.83453Z" fill="white"/>
<path d="M22.0499 30.1853C20.4545 30.1741 18.874 29.8768 17.3836 29.3074C17.1266 29.2223 16.9131 29.0402 16.7886 28.7999C16.664 28.5596 16.6384 28.2801 16.717 28.0212C16.741 27.8977 16.7924 27.7812 16.8674 27.6803C16.9424 27.5794 17.0392 27.4966 17.1505 27.438C17.2617 27.3795 17.3847 27.3466 17.5104 27.3419C17.636 27.3372 17.7612 27.3608 17.8765 27.4109C18.636 27.6637 19.4085 27.8752 20.1908 28.0446C22.1766 28.3977 24.2213 28.1979 26.1012 27.4672C26.7396 27.2325 27.1668 27.3827 27.364 27.9085C27.4227 28.0403 27.4533 28.1829 27.4541 28.3271C27.4548 28.4714 27.4255 28.6143 27.3682 28.7467C27.3108 28.8791 27.2265 28.9981 27.1208 29.0962C27.015 29.1944 26.89 29.2695 26.7537 29.3168C25.2503 29.8852 23.6571 30.1794 22.0499 30.1853V30.1853Z" fill="white"/>
<path d="M27.4251 17.4821C29.0071 17.5807 30.0963 18.1722 30.6831 19.5102C30.7972 19.7976 30.8714 20.0992 30.9037 20.4068C30.9016 20.6489 30.8104 20.8817 30.6476 21.0609C30.4849 21.2401 30.2619 21.3532 30.0211 21.3785C29.8117 21.4231 29.5932 21.3856 29.4107 21.2738C29.2281 21.162 29.0954 20.9844 29.04 20.7776C28.9647 20.5233 28.8624 20.2778 28.7349 20.0453C28.6039 19.8219 28.4079 19.6438 28.173 19.5347C27.9381 19.4257 27.6755 19.3909 27.4204 19.435C27.1576 19.4578 26.9065 19.554 26.6957 19.7125C26.4849 19.871 26.3229 20.0856 26.228 20.3317C26.1866 20.4357 26.152 20.5423 26.1247 20.6509C26.1085 20.7729 26.0662 20.89 26.0008 20.9943C25.9353 21.0985 25.8482 21.1875 25.7454 21.2552C25.6426 21.3228 25.5264 21.3676 25.4047 21.3865C25.2831 21.4053 25.1588 21.3978 25.0403 21.3645C24.9114 21.3495 24.7869 21.3079 24.6749 21.2424C24.5628 21.1769 24.4656 21.0889 24.3893 20.9839C24.313 20.8789 24.2592 20.7592 24.2315 20.6324C24.2038 20.5056 24.2027 20.3744 24.2282 20.2472C24.3058 19.6799 24.5402 19.1455 24.9052 18.7042C25.2701 18.263 25.751 17.9324 26.2937 17.7497C26.6633 17.6312 27.0416 17.5417 27.4251 17.4821V17.4821Z" fill="white"/>
<path d="M16.4635 17.5009C17.2281 17.4697 17.9802 17.7022 18.5938 18.1595C19.2075 18.6167 19.6454 19.2709 19.8342 20.0125C19.928 20.249 19.9272 20.5126 19.8319 20.7486C19.7367 20.9846 19.5542 21.1749 19.3224 21.28C19.1989 21.3522 19.0599 21.394 18.9169 21.4019C18.774 21.4098 18.6312 21.3835 18.5004 21.3253C18.3697 21.267 18.2547 21.1784 18.165 21.0668C18.0753 20.9553 18.0134 20.824 17.9845 20.6838C17.8945 20.3886 17.7496 20.113 17.5573 19.8716C17.3892 19.6723 17.1646 19.5287 16.9131 19.46C16.6616 19.3912 16.3951 19.4005 16.149 19.4867C15.8821 19.5534 15.6402 19.6956 15.4521 19.8963C15.2639 20.0969 15.1375 20.3475 15.088 20.618C15.0711 20.7449 15.0268 20.8665 14.9582 20.9745C14.8895 21.0825 14.7983 21.1743 14.6907 21.2435C14.583 21.3127 14.4617 21.3577 14.3349 21.3754C14.2082 21.393 14.0791 21.3829 13.9567 21.3457C13.7197 21.2999 13.5095 21.1646 13.3697 20.9679C13.2298 20.7713 13.171 20.5283 13.2056 20.2894C13.304 19.5945 13.627 18.9509 14.1254 18.4567C14.6238 17.9626 15.2702 17.645 15.9659 17.5526L16.4635 17.5009Z" fill="white"/>
</g>
<defs>
<clipPath id="clip0_3_108">
<rect width="43.9166" height="42.189" fill="white"/>
</clipPath>
</defs>
</svg>
