<svg width="24" height="28" viewBox="0 0 24 28" fill="none" xmlns="http://www.w3.org/2000/svg">
<g clip-path="url(#clip0_3_101)">
<path d="M12.0001 1.16666C12.6567 1.16666 13.3068 1.31754 13.9135 1.61069C14.5201 1.90384 15.0713 2.33353 15.5356 2.8752C15.9999 3.41688 16.3682 4.05994 16.6195 4.76767C16.8707 5.4754 17.0001 6.23395 17.0001 6.99999V11.6667C17.0001 13.2138 16.4733 14.6975 15.5356 15.7914C14.5979 16.8854 13.3261 17.5 12.0001 17.5C10.674 17.5 9.4022 16.8854 8.46452 15.7914C7.52684 14.6975 7.00005 13.2138 7.00005 11.6667V6.99999C7.00005 5.45289 7.52684 3.96916 8.46452 2.8752C9.4022 1.78124 10.674 1.16666 12.0001 1.16666V1.16666ZM3.05505 12.8333H5.07005C5.31235 14.7756 6.14592 16.5511 7.41829 17.8351C8.69065 19.1192 10.3167 19.8258 11.9991 19.8258C13.6814 19.8258 15.3075 19.1192 16.5798 17.8351C17.8522 16.5511 18.6858 14.7756 18.9281 12.8333H20.9441C20.7167 15.2002 19.8067 17.4066 18.3633 19.0908C16.9199 20.775 15.0287 21.8369 13.0001 22.1025V26.8333H11.0001V22.1025C8.97119 21.8372 7.07984 20.7753 5.63623 19.0911C4.19262 17.4069 3.28247 15.2003 3.05505 12.8333V12.8333Z" fill="url(#paint0_linear_3_101)"/>
<path d="M12.0001 1.16666C12.6567 1.16666 13.3068 1.31754 13.9135 1.61069C14.5201 1.90384 15.0713 2.33353 15.5356 2.8752C15.9999 3.41688 16.3682 4.05994 16.6195 4.76767C16.8707 5.4754 17.0001 6.23395 17.0001 6.99999V11.6667C17.0001 13.2138 16.4733 14.6975 15.5356 15.7914C14.5979 16.8854 13.3261 17.5 12.0001 17.5C10.674 17.5 9.4022 16.8854 8.46452 15.7914C7.52684 14.6975 7.00005 13.2138 7.00005 11.6667V6.99999C7.00005 5.45289 7.52684 3.96916 8.46452 2.8752C9.4022 1.78124 10.674 1.16666 12.0001 1.16666V1.16666ZM3.05505 12.8333H5.07005C5.31235 14.7756 6.14592 16.5511 7.41829 17.8351C8.69065 19.1192 10.3167 19.8258 11.9991 19.8258C13.6814 19.8258 15.3075 19.1192 16.5798 17.8351C17.8522 16.5511 18.6858 14.7756 18.9281 12.8333H20.9441C20.7167 15.2002 19.8067 17.4066 18.3633 19.0908C16.9199 20.775 15.0287 21.8369 13.0001 22.1025V26.8333H11.0001V22.1025C8.97119 21.8372 7.07984 20.7753 5.63623 19.0911C4.19262 17.4069 3.28247 15.2003 3.05505 12.8333V12.8333Z" fill="url(#paint1_linear_3_101)"/>
</g>
<defs>
<linearGradient id="paint0_linear_3_101" x1="13.7885" y1="28.63" x2="13.7885" y2="1.16666" gradientUnits="userSpaceOnUse">
<stop offset="0.0948778" stop-color="#1C1777"/>
<stop offset="1" stop-color="#0740DF"/>
</linearGradient>
<linearGradient id="paint1_linear_3_101" x1="13.7885" y1="-2.68334" x2="13.7885" y2="40.4687" gradientUnits="userSpaceOnUse">
<stop offset="0.0948778" stop-color="#FF8839"/>
<stop offset="0.885514" stop-color="#B70037"/>
</linearGradient>
<clipPath id="clip0_3_101">
<rect width="24" height="28" fill="white"/>
</clipPath>
</defs>
</svg>
