<svg id="Layer_1" data-name="Layer 1" xmlns="http://www.w3.org/2000/svg" xmlns:xlink="http://www.w3.org/1999/xlink" viewBox="0 0 126.8 152.26"><defs><style>.cls-1{fill:#808285;}.cls-2{fill:url(#linear-gradient);}.cls-3{fill:url(#linear-gradient-2);}.cls-22,.cls-4{fill:#fff;}.cls-4{fill-opacity:0;}.cls-5{fill:#f7f7f7;opacity:0.06;}.cls-10,.cls-11,.cls-12,.cls-13,.cls-14,.cls-15,.cls-16,.cls-17,.cls-18,.cls-19,.cls-5,.cls-6,.cls-7,.cls-8,.cls-9{isolation:isolate;}.cls-6{fill:#efeff0;opacity:0.13;}.cls-7{fill:#e7e8e8;opacity:0.19;}.cls-8{fill:#dfe0e1;opacity:0.25;}.cls-9{fill:#d7d8d9;opacity:0.31;}.cls-10{fill:#cfd0d1;opacity:0.38;}.cls-11{fill:#c7c8ca;opacity:0.44;}.cls-12{fill:#c0c1c2;opacity:0.5;}.cls-13{fill:#b8b9ba;opacity:0.56;}.cls-14{fill:#b0b1b3;opacity:0.63;}.cls-15{fill:#a8a9ab;opacity:0.69;}.cls-16{fill:#a0a1a4;opacity:0.75;}.cls-17{fill:#98999c;opacity:0.81;}.cls-18{fill:#909294;opacity:0.88;}.cls-19{fill:#888a8d;opacity:0.94;}.cls-20{fill:url(#linear-gradient-3);}.cls-21{fill:url(#linear-gradient-4);}</style><linearGradient id="linear-gradient" x1="1073.18" y1="-1409.33" x2="1199.98" y2="-1409.33" gradientTransform="matrix(1, 0, 0, -1, -1073.28, -1345.28)" gradientUnits="userSpaceOnUse"><stop offset="0" stop-color="#fff"/><stop offset="1" stop-color="#d1d3d4"/></linearGradient><linearGradient id="linear-gradient-2" x1="1076.38" y1="-1409.33" x2="1196.78" y2="-1409.33" gradientTransform="matrix(1, 0, 0, -1, -1073.28, -1345.28)" gradientUnits="userSpaceOnUse"><stop offset="0" stop-color="#d1d3d4"/><stop offset="1" stop-color="#fff"/></linearGradient><linearGradient id="linear-gradient-3" x1="15.8" y1="-336.1" x2="110.8" y2="-336.1" gradientTransform="matrix(1, 0, 0, -1, 0.1, -272.7)" gradientUnits="userSpaceOnUse"><stop offset="0" stop-color="#f35cb5"/><stop offset="1" stop-color="#ec008c"/></linearGradient><linearGradient id="linear-gradient-4" x1="1096.98" y1="-1409.38" x2="1176.18" y2="-1409.38" gradientTransform="matrix(1, 0, 0, -1, -1073.28, -1345.28)" gradientUnits="userSpaceOnUse"><stop offset="0" stop-color="#ec008c"/><stop offset="1" stop-color="#f35cb5"/></linearGradient></defs><title>pnr</title><g id="symbol_buttons" data-name="symbol buttons"><path class="cls-1" d="M63.3,126.6A62.6,62.6,0,1,1,125.9,64h0A62.69,62.69,0,0,1,63.3,126.6Z" transform="translate(0.1 -0.7)"/><path class="cls-2" d="M63.3,127.4a63.35,63.35,0,1,1,63.4-63.3h0A63.46,63.46,0,0,1,63.3,127.4Z" transform="translate(0.1 -0.7)"/><path class="cls-3" d="M63.3,124.2a60.15,60.15,0,1,1,60.2-60.1h0A60.24,60.24,0,0,1,63.3,124.2Z" transform="translate(0.1 -0.7)"/><circle class="cls-4" cx="76.4" cy="76.4" r="47.5"/><circle class="cls-5" cx="75.6" cy="75.6" r="47.5"/><circle class="cls-6" cx="74.7" cy="74.7" r="47.4"/><circle class="cls-7" cx="73.9" cy="73.9" r="47.4"/><circle class="cls-8" cx="73.1" cy="73.1" r="47.3"/><circle class="cls-9" cx="72.4" cy="72.3" r="47.3"/><circle class="cls-10" cx="71.5" cy="71.5" r="47.2"/><circle class="cls-11" cx="70.7" cy="70.7" r="47.2"/><circle class="cls-12" cx="69.9" cy="69.9" r="47.1"/><circle class="cls-13" cx="69.1" cy="69.1" r="47.1"/><circle class="cls-14" cx="68.2" cy="68.2" r="47"/><circle class="cls-15" cx="67.4" cy="67.4" r="47"/><circle class="cls-16" cx="66.6" cy="66.6" r="46.9"/><circle class="cls-17" cx="65.9" cy="65.8" r="46.9"/><circle class="cls-18" cx="65" cy="65" r="46.8"/><circle class="cls-19" cx="64.2" cy="64.2" r="46.8"/><circle class="cls-1" cx="63.4" cy="63.4" r="46.7"/><circle class="cls-20" cx="63.4" cy="63.4" r="47.5"/><path class="cls-21" d="M63.3,103.7a39.6,39.6,0,1,1,39.6-39.6h0A39.82,39.82,0,0,1,63.3,103.7Z" transform="translate(0.1 -0.7)"/></g><path class="cls-22" d="M36.5,75.3A1.78,1.78,0,0,1,36,74V57.78a1.68,1.68,0,0,1,.45-1.25,1.77,1.77,0,0,1,1.26-.44h6.82a7.08,7.08,0,0,1,4.88,1.56A5.61,5.61,0,0,1,51.17,62a5.64,5.64,0,0,1-1.74,4.41A7,7,0,0,1,44.55,68h-5v6a1.67,1.67,0,0,1-1.8,1.8A1.71,1.71,0,0,1,36.5,75.3Zm7.61-10q3.68,0,3.68-3.22t-3.68-3.21H39.59v6.43Z" transform="translate(0.1 -0.7)"/><path class="cls-22" d="M70.33,56.43a1.8,1.8,0,0,1,.46,1.29V74a1.84,1.84,0,0,1-.47,1.3,1.62,1.62,0,0,1-1.22.5,1.59,1.59,0,0,1-1.36-.64L57.63,62V74a1.87,1.87,0,0,1-.45,1.3,1.73,1.73,0,0,1-2.43,0A1.87,1.87,0,0,1,54.3,74V57.72a1.81,1.81,0,0,1,.47-1.29A1.68,1.68,0,0,1,56,56a1.54,1.54,0,0,1,1.33.64l10.09,13.1v-12a1.84,1.84,0,0,1,.45-1.29,1.79,1.79,0,0,1,2.44,0Z" transform="translate(0.1 -0.7)"/><path class="cls-22" d="M91,74.35a1.31,1.31,0,0,1-.51,1.05,1.84,1.84,0,0,1-1.21.42,1.8,1.8,0,0,1-.84-.21,1.78,1.78,0,0,1-.68-.63L84,69.39a3.66,3.66,0,0,0-1.17-1.25,3.24,3.24,0,0,0-1.62-.36H78.52V74a1.81,1.81,0,0,1-.47,1.31,1.67,1.67,0,0,1-1.28.49,1.7,1.7,0,0,1-1.28-.49A1.74,1.74,0,0,1,75,74V57.78a1.65,1.65,0,0,1,.46-1.25,1.74,1.74,0,0,1,1.26-.44h6.93a7.55,7.55,0,0,1,5,1.48,5.3,5.3,0,0,1,1.73,4.28,5.4,5.4,0,0,1-1.28,3.73,6.13,6.13,0,0,1-3.65,1.87,3.55,3.55,0,0,1,1.42.69,6.09,6.09,0,0,1,1.19,1.39l2.52,3.85A1.74,1.74,0,0,1,91,74.35ZM86.11,64.27a3.38,3.38,0,0,0,0-4.68,4.81,4.81,0,0,0-3-.73H78.49V65h4.66A4.66,4.66,0,0,0,86.11,64.27Z" transform="translate(0.1 -0.7)"/><path d="M16.84,152.48a1.76,1.76,0,0,1-.33-1.12V137.59a1.58,1.58,0,0,1,.31-1.05,1,1,0,0,1,.84-.38h4.55a4.09,4.09,0,0,1,3.25,1.33,5.45,5.45,0,0,1,1.16,3.73A5.51,5.51,0,0,1,25.46,145a4.09,4.09,0,0,1-3.25,1.34H18.9v5.06a1.76,1.76,0,0,1-.33,1.12,1.12,1.12,0,0,1-1.73,0ZM21.91,144q2.46,0,2.46-2.73t-2.46-2.73h-3V144Z" transform="translate(0.1 -0.7)"/><path d="M39.41,136.45a1.84,1.84,0,0,1,.3,1.1v13.81a1.79,1.79,0,0,1-.31,1.1,1,1,0,0,1-.81.43,1,1,0,0,1-.91-.54l-6.75-11.18v10.19a1.93,1.93,0,0,1-.29,1.1,1,1,0,0,1-1.63,0,1.86,1.86,0,0,1-.3-1.1V137.55a1.77,1.77,0,0,1,.32-1.1,1,1,0,0,1,.83-.41,1,1,0,0,1,.89.54l6.73,11.13V137.55a1.84,1.84,0,0,1,.3-1.1,1,1,0,0,1,.81-.41A1,1,0,0,1,39.41,136.45Z" transform="translate(0.1 -0.7)"/><path d="M53.17,151.67a1.22,1.22,0,0,1-.34.89,1.11,1.11,0,0,1-.8.35,1.08,1.08,0,0,1-.57-.17,1.4,1.4,0,0,1-.45-.53l-2.46-4.76a3,3,0,0,0-.79-1.06,1.77,1.77,0,0,0-1.08-.3H44.87v5.27a1.81,1.81,0,0,1-.31,1.12,1.1,1.1,0,0,1-1.71,0,1.76,1.76,0,0,1-.33-1.12V137.59a1.64,1.64,0,0,1,.31-1.05,1,1,0,0,1,.84-.38h4.62a4.38,4.38,0,0,1,3.38,1.26,5.19,5.19,0,0,1,1.15,3.63,5.47,5.47,0,0,1-.86,3.17,3.9,3.9,0,0,1-2.43,1.59,2.15,2.15,0,0,1,.94.58,5.35,5.35,0,0,1,.8,1.18L53,150.84A1.75,1.75,0,0,1,53.17,151.67Zm-3.23-8.56a2.79,2.79,0,0,0,.62-2,2.24,2.24,0,0,0-2.6-2.61H44.85v5.25H48A2.67,2.67,0,0,0,49.94,143.11Z" transform="translate(0.1 -0.7)"/><path d="M62.2,152.48a5.57,5.57,0,0,1-2.06-1.31,1.49,1.49,0,0,1-.42-1.13,1.54,1.54,0,0,1,.23-.86.64.64,0,0,1,.54-.36,1.3,1.3,0,0,1,.76.33,5.29,5.29,0,0,0,1.66,1.06,5.39,5.39,0,0,0,1.93.33,3.21,3.21,0,0,0,2.07-.6,2.16,2.16,0,0,0,.72-1.76,1.59,1.59,0,0,0-.68-1.37,7.3,7.3,0,0,0-2.24-.93,11.51,11.51,0,0,1-2.65-1,4,4,0,0,1-1.53-1.51A4.61,4.61,0,0,1,60,141a5.27,5.27,0,0,1,.65-2.62,4.72,4.72,0,0,1,1.8-1.8,5.25,5.25,0,0,1,2.6-.64,5.6,5.6,0,0,1,4.31,1.79,1.77,1.77,0,0,1,.34.5,1.82,1.82,0,0,1-.13,1.48.66.66,0,0,1-.55.37,1,1,0,0,1-.34-.07,3.56,3.56,0,0,1-.41-.26,6.32,6.32,0,0,0-1.47-1,4,4,0,0,0-1.75-.34,2.91,2.91,0,0,0-2,.65,2.27,2.27,0,0,0-.73,1.8A1.79,1.79,0,0,0,63,142.3a6.3,6.3,0,0,0,2.2,1,13.49,13.49,0,0,1,2.67,1.05A3.91,3.91,0,0,1,70,148a5.13,5.13,0,0,1-.64,2.57,4.38,4.38,0,0,1-1.8,1.74,5.44,5.44,0,0,1-2.65.63A7.54,7.54,0,0,1,62.2,152.48Z" transform="translate(0.1 -0.7)"/><path d="M77.46,151.76a1,1,0,0,1-.36.86,1.39,1.39,0,0,1-1,.24l-.5,0q-3.1-.28-3.11-4.24v-5.13h-.92a1,1,0,0,1-.77-.28,1.14,1.14,0,0,1-.27-.82,1.17,1.17,0,0,1,.27-.83,1,1,0,0,1,.77-.28h.92v-2.16a1.56,1.56,0,0,1,.32-1,1,1,0,0,1,.85-.37,1,1,0,0,1,.83.37,1.55,1.55,0,0,1,.31,1v2.16h1.57a1,1,0,0,1,.77.28,1.17,1.17,0,0,1,.27.83,1.14,1.14,0,0,1-.27.82,1,1,0,0,1-.77.28H74.78v5.34c0,1.17.42,1.78,1.26,1.86l.5,0A.92.92,0,0,1,77.46,151.76Z" transform="translate(0.1 -0.7)"/><path d="M85.38,142.15a5.86,5.86,0,0,1,.92,3.61v5.74a1.53,1.53,0,0,1-.3,1,1.06,1.06,0,0,1-1.6,0,1.54,1.54,0,0,1-.3-1V151a3,3,0,0,1-1,1.44,2.53,2.53,0,0,1-1.56.52,3,3,0,0,1-1.65-.48,3.23,3.23,0,0,1-1.16-1.29,3.87,3.87,0,0,1-.43-1.84,3.46,3.46,0,0,1,.51-2,2.92,2.92,0,0,1,1.66-1.05,11.85,11.85,0,0,1,3.16-.33h.46v-.54a2.91,2.91,0,0,0-.39-1.69,1.47,1.47,0,0,0-1.26-.53,3.32,3.32,0,0,0-1.09.2c-.37.14-.8.33-1.31.58a1.65,1.65,0,0,1-.7.31.66.66,0,0,1-.55-.31,1.38,1.38,0,0,1-.21-.8,1.35,1.35,0,0,1,.16-.69,1.69,1.69,0,0,1,.52-.56,5.53,5.53,0,0,1,1.55-.7,6.05,6.05,0,0,1,1.76-.26A3.31,3.31,0,0,1,85.38,142.15ZM83.52,150a3.4,3.4,0,0,0,.58-2v-.49h-.33a10.52,10.52,0,0,0-1.93.14,1.72,1.72,0,0,0-1,.5,1.47,1.47,0,0,0-.29,1,1.84,1.84,0,0,0,.41,1.23,1.29,1.29,0,0,0,1,.49A1.81,1.81,0,0,0,83.52,150Z" transform="translate(0.1 -0.7)"/><path d="M94.27,151.76a1,1,0,0,1-.36.86,1.42,1.42,0,0,1-1,.24l-.5,0q-3.1-.28-3.1-4.24v-5.13h-.93a1,1,0,0,1-.77-.28,1.19,1.19,0,0,1-.26-.82,1.21,1.21,0,0,1,.26-.83,1,1,0,0,1,.77-.28h.93v-2.16a1.55,1.55,0,0,1,.31-1,1,1,0,0,1,.85-.37,1,1,0,0,1,.83.37,1.56,1.56,0,0,1,.32,1v2.16h1.57a1,1,0,0,1,.76.28,1.17,1.17,0,0,1,.27.83,1.14,1.14,0,0,1-.27.82,1,1,0,0,1-.76.28H91.59v5.34c0,1.17.41,1.78,1.25,1.86l.5,0A.93.93,0,0,1,94.27,151.76Z" transform="translate(0.1 -0.7)"/><path d="M103.45,141.38a1.53,1.53,0,0,1,.32,1v9.13a1.49,1.49,0,0,1-.32,1,1.08,1.08,0,0,1-.85.38,1,1,0,0,1-.79-.35,1.46,1.46,0,0,1-.3-1V151a3.43,3.43,0,0,1-1.14,1.45,2.77,2.77,0,0,1-1.63.51q-3.33,0-3.33-4.76v-5.79a1.53,1.53,0,0,1,.32-1,1,1,0,0,1,.83-.37,1,1,0,0,1,.85.37,1.52,1.52,0,0,1,.31,1v5.82a3.33,3.33,0,0,0,.39,1.81,1.37,1.37,0,0,0,1.22.59,1.84,1.84,0,0,0,1.55-.82,3.65,3.65,0,0,0,.58-2.15v-5.25a1.52,1.52,0,0,1,.31-1,1.14,1.14,0,0,1,1.68,0Z" transform="translate(0.1 -0.7)"/><path d="M106.19,151.92a1.5,1.5,0,0,1-.59-1.27,1.34,1.34,0,0,1,.2-.76.6.6,0,0,1,.5-.3,1.78,1.78,0,0,1,.87.38,6.37,6.37,0,0,0,1.08.54,3.42,3.42,0,0,0,1.25.19,2,2,0,0,0,1.21-.33,1.1,1.1,0,0,0,.44-.92,1,1,0,0,0-.18-.63,1.64,1.64,0,0,0-.63-.44,12.78,12.78,0,0,0-1.38-.46,4.7,4.7,0,0,1-2.35-1.2,3,3,0,0,1-.71-2.14,3.6,3.6,0,0,1,.48-1.87,3.34,3.34,0,0,1,1.32-1.29,3.88,3.88,0,0,1,1.91-.46,4.46,4.46,0,0,1,1.5.25,4.06,4.06,0,0,1,1.29.71,1.51,1.51,0,0,1,.59,1.25,1.41,1.41,0,0,1-.2.79.59.59,0,0,1-.5.32.86.86,0,0,1-.4-.11,5.53,5.53,0,0,1-.49-.32,7.4,7.4,0,0,0-.92-.53,2.46,2.46,0,0,0-1-.17,1.53,1.53,0,0,0-1.08.35,1.22,1.22,0,0,0-.4,1,1,1,0,0,0,.41.9A4.93,4.93,0,0,0,110,146a7.86,7.86,0,0,1,1.94.75,2.62,2.62,0,0,1,1,1.06,3.86,3.86,0,0,1,.3,1.63,3.34,3.34,0,0,1-1,2.56,4,4,0,0,1-2.79,1A5,5,0,0,1,106.19,151.92Z" transform="translate(0.1 -0.7)"/></svg>