<svg xmlns="http://www.w3.org/2000/svg" width="329" height="110.647" viewBox="0 0 329 110.647">
  <g id="Group_16" data-name="Group 16" transform="translate(-74 -521.676)">
    <text id="Sevak" transform="translate(171 608)" fill="#0c3772" font-size="77" font-family="Monaco"><tspan x="0" y="0">Sevak</tspan></text>
    <text id="Sevak-2" data-name="Sevak" transform="translate(170 606)" fill="#3371a4" font-size="77" font-family="Monaco"><tspan x="0" y="0">Sevak</tspan></text>
    <g id="Union_1" data-name="Union 1" transform="translate(55.047 530.676)">
      <path id="Path_5" data-name="Path 5" d="M26.225,94.482l-2.5-45.248-.007-.125-.014-.125a40.651,40.651,0,0,1-.248-4.485A40.02,40.02,0,1,1,43.044,78.91l-3.456-2.055-2.429,3.2Z" fill="#4685b9"/>
      <path id="Path_6" data-name="Path 6" d="M30.041,82l8.39-11.067,6.913,4.11A35.505,35.505,0,1,0,27.953,44.5a41.772,41.772,0,0,0,.262,4.486L30.041,82m-5.062,19.648a2.988,2.988,0,0,1-3.022-2.839L19.229,49.482a44.982,44.982,0,0,1-.276-4.983A44.481,44.481,0,1,1,40.745,82.778l-13.4,17.677A2.928,2.928,0,0,1,24.979,101.647Z" fill="#155c96"/>
    </g>
    <g id="Group_3" data-name="Group 3" transform="translate(-25 76.676)">
      <g id="Group_2" data-name="Group 2">
        <g id="Group_1" data-name="Group 1">
          <text id="e" transform="translate(122 519)" fill="#0c3772" font-size="72" font-family="Monaco"><tspan x="0" y="0">e</tspan></text>
          <text id="e-2" data-name="e" transform="translate(122 517)" fill="#fff" font-size="72" font-family="Monaco"><tspan x="0" y="0">e</tspan></text>
        </g>
      </g>
    </g>
  </g>
</svg>
