<?xml version="1.0" encoding="utf-8"?>
<svg width="1555.595" height="738.197" viewBox="0 0 1555.595 738.197" xmlns="http://www.w3.org/2000/svg">
  <g id="Group_510" data-name="Group 510" transform="translate(315.182 -906.303)">
    <g id="Group_494" data-name="Group 494">
      <g id="Group_472" data-name="Group 472" transform="translate(1762 -96.697)">
        <g id="Group_131" data-name="Group 131">
          <g id="Group_130" data-name="Group 130" transform="translate(-2298 -5)">
            <path id="Path_23" data-name="Path 23" d="M369,0C472.527,0,705.74,20.693,772.749,89.358c64.9,66.509,0,186.174,0,286.44,0,162.219-98.3,272.532-243.858,322.014C491.667,710.466,410.574,738,369,738c-82.332,0-190.919,5.391-252.306-40.188C26.132,630.57-59.659,450.347-59.659,328.886-59.659,125.093,165.207,0,369,0Z" transform="translate(335 1008)" fill="#eef3f6"/>
            <g id="g10" transform="translate(502 1723.665)">
              <g id="g12">
                <path id="path16" d="M228.649-563.805H131.194a5.035,5.035,0,0,1-5.035-5.035h0a5.036,5.036,0,0,1,5.035-5.036h97.454a5.036,5.036,0,0,1,5.036,5.036h0a5.035,5.035,0,0,1-5.036,5.035" fill="#edc564"/>
                <path id="path18" d="M1259.789-336.247H882.483c-16.048,0-29.057-22.1-29.057-49.348h0c0-27.262,13.009-49.361,29.057-49.361h377.306c16.048,0,29.049,22.1,29.049,49.361h0c0,27.249-13,49.348-29.049,49.348" transform="translate(-14.926 -104.512)" fill="#a0fac6" stroke="#00ac3c" stroke-width="1"/>
                <path id="path20" d="M532.271-597.424h-7.984a3.8,3.8,0,0,1-3.8-3.8v-7.495a3.8,3.8,0,0,1,3.8-3.8h7.984a3.8,3.8,0,0,1,3.8,3.8v7.495a3.8,3.8,0,0,1-3.8,3.8" fill="#3ebb73"/>
                <path id="path22" d="M874.643-141.7h-7.985a3.8,3.8,0,0,1-3.8-3.8v-7.495a3.8,3.8,0,0,1,3.8-3.8h7.985a3.8,3.8,0,0,1,3.8,3.8v7.495a3.8,3.8,0,0,1-3.8,3.8" fill="#edc564"/>
                <path id="path24" d="M186.892-188.637h-7.984a3.8,3.8,0,0,1-3.8-3.8v-7.495a3.8,3.8,0,0,1,3.8-3.8h7.984a3.8,3.8,0,0,1,3.8,3.8v7.495a3.8,3.8,0,0,1-3.8,3.8" fill="#406ebf"/>
                <path id="path26" d="M261.523-509.375H824.435" fill="#4b4b4b" stroke="#6f7070" stroke-miterlimit="10" stroke-width="2.197"/>
                <path id="path28" d="M816.343-166.586H269.615a8.093,8.093,0,0,1-8.092-8.093V-541.905A8.092,8.092,0,0,1,269.615-550H816.343a8.092,8.092,0,0,1,8.092,8.092V-174.68a8.093,8.093,0,0,1-8.092,8.093Z" fill="none" stroke="#fff" stroke-miterlimit="10" stroke-width="2.197"/>
                <path id="path30" d="M816.343-166.586H269.615a8.093,8.093,0,0,1-8.092-8.093V-541.905A8.092,8.092,0,0,1,269.615-550H816.343a8.092,8.092,0,0,1,8.092,8.092V-174.68a8.093,8.093,0,0,1-8.092,8.093Z" fill="none" stroke="#6f7070" stroke-miterlimit="10" stroke-width="2.197"/>
                <path id="path32" d="M301.183-529.272a5.668,5.668,0,0,1-5.668,5.668,5.668,5.668,0,0,1-5.669-5.668,5.668,5.668,0,0,1,5.669-5.668,5.668,5.668,0,0,1,5.668,5.668" fill="#f46c75"/>
                <path id="path34" d="M323.214-529.272a5.669,5.669,0,0,1-5.669,5.668,5.668,5.668,0,0,1-5.668-5.668,5.668,5.668,0,0,1,5.668-5.668,5.669,5.669,0,0,1,5.669,5.668" fill="#edc564"/>
                <path id="path36" d="M345.243-529.272a5.668,5.668,0,0,1-5.668,5.668,5.668,5.668,0,0,1-5.669-5.668,5.668,5.668,0,0,1,5.669-5.668,5.668,5.668,0,0,1,5.668,5.668" fill="#3ebb73"/>
                <path id="path38" d="M903.6-225.981H670.578a7.65,7.65,0,0,1-7.649-7.651V-335.663a7.648,7.648,0,0,1,7.649-7.649H903.6a7.65,7.65,0,0,1,7.651,7.649v102.032a7.651,7.651,0,0,1-7.651,7.651" fill="#ffc898"/>
                <path id="path40" d="M903.6-225.981H670.578a7.65,7.65,0,0,1-7.649-7.651V-335.663a7.648,7.648,0,0,1,7.649-7.649H903.6a7.65,7.65,0,0,1,7.651,7.649v102.032a7.651,7.651,0,0,1-7.651,7.651Z" fill="none" stroke="#ff6342" stroke-miterlimit="10" stroke-width="2.197"/>
                <path id="path42" d="M696.985-249.179h71.863a10.859,10.859,0,0,0,10.86-10.859v-51.835a10.861,10.861,0,0,0-10.86-10.86H696.985a10.861,10.861,0,0,0-10.86,10.86v51.835a10.859,10.859,0,0,0,10.86,10.859" fill="#ff6342"/>
                <path id="path44" d="M723.8-291.2a11.432,11.432,0,0,0,11.419,11.419A11.432,11.432,0,0,0,746.64-291.2a11.432,11.432,0,0,0-11.42-11.42A11.432,11.432,0,0,0,723.8-291.2Zm-3.345,0a14.782,14.782,0,0,1,14.764-14.765A14.782,14.782,0,0,1,749.985-291.2,14.782,14.782,0,0,1,735.22-276.43,14.782,14.782,0,0,1,720.456-291.2" fill="#fbfaeb"/>
                <path id="path46" d="M722.8-276.381l4.357-4.36L724.8-283.1l-4.36,4.357,2.367,2.367" fill="#fbfaeb"/>
                <path id="path48" d="M718.2-279.37l-8.627,8.625a2.343,2.343,0,0,0,0,3.313l1.92,1.919a2.339,2.339,0,0,0,3.312,0l8.627-8.625a2.343,2.343,0,0,0,0-3.313l-1.92-1.919a2.339,2.339,0,0,0-3.312,0" fill="#fbfaeb"/>
                <path id="path50" d="M796.983-300.85h85.709" fill="none" stroke="#226371" stroke-miterlimit="10" stroke-width="2.197"/>
                <path id="path52" d="M796.983-285.893H838.77" fill="none" stroke="#226371" stroke-miterlimit="10" stroke-width="2.197"/>
                <path id="path54" d="M796.983-270.934h85.709" fill="none" stroke="#226371" stroke-miterlimit="10" stroke-width="2.197"/>
                <path id="path56" d="M274-268.821H92.785a9.829,9.829,0,0,1-9.829-9.828V-414.662a9.829,9.829,0,0,1,9.829-9.828H274a9.828,9.828,0,0,1,9.829,9.828v136.013A9.828,9.828,0,0,1,274-268.821" fill="#ffc898" stroke="#ff6342" stroke-width="0.133"/>
                <path id="path58" d="M274-268.821H92.785a9.829,9.829,0,0,1-9.829-9.828V-414.662a9.829,9.829,0,0,1,9.829-9.828H274a9.828,9.828,0,0,1,9.829,9.828v136.013A9.828,9.828,0,0,1,274-268.821Z" fill="none" stroke="#ff7c12" stroke-miterlimit="10" stroke-width="2.197"/>
                <path id="path60" d="M113.937-359.512h99.112" transform="translate(-9 42.633)" fill="none" stroke="#3e3e3e" stroke-miterlimit="10" stroke-width="2.197"/>
                <path id="path62" d="M113.937-329.6h99.112" transform="translate(-9 42.633)" fill="none" stroke="#3e3e3e" stroke-miterlimit="10" stroke-width="2.197"/>
                <path id="path64" d="M113.937-344.555h41.787" transform="translate(-9 42.633)" fill="none" stroke="#3e3e3e" stroke-miterlimit="10" stroke-width="2.197"/>
                <path id="path66" d="M 387.408 -396.552 L 149.359 -396.552 C 146.06 -396.553 143.384 -399.115 143.384 -402.276 L 143.384 -467.519 C 143.384 -470.68 146.06 -473.242 149.359 -473.243 L 387.408 -473.243 C 390.708 -473.243 393.384 -470.68 393.384 -467.519 L 393.384 -402.276 C 393.384 -399.115 390.708 -396.552 387.408 -396.552" fill="#a0fac6" stroke="#00ac3c" stroke-width="1"/>
                <path id="path68" d="M239.23-442.947H355.875" transform="translate(-1.316 22.238)" fill="none" stroke="#3e3e3e" stroke-miterlimit="10" stroke-width="2.197"/>
                <path id="path70" d="M239.23-427.99h36.959" transform="translate(-1.316 16.765)" fill="none" stroke="#3e3e3e" stroke-miterlimit="10" stroke-width="2.197"/>
                <path id="path74" d="M706.05-179.389l53.509,22.3-14.988,8.231L764.3-128.6l-13.241,12.629-19.236-21.9L721.061-124.43,706.05-179.389" fill="#f9e3df"/>
                <path id="path76" d="M706.262-179.58l53.361,22.649L744.579-148.8l19.6,20.388-13.324,12.543L731.762-137.9,720.91-124.524Z" fill="none" stroke="#463234" stroke-miterlimit="10" stroke-width="1.52"/>
                <path id="path78" d="M413.384-180.765S379.66-135.6,363.672-91.637H510.139s11.784-36.361,8.6-89.128H413.384" fill="#406ebf"/>
                <path id="path80" d="M477.668-124.1l-18.593,11.084L444.236-91.637" fill="none" stroke="#463234" stroke-miterlimit="10" stroke-width="1.449"/>
                <path id="path82" d="M676.953-91.637h-483.1" fill="none" stroke="#463234" stroke-miterlimit="10" stroke-width="1.562"/>
                <path id="path84" d="M678.625-455.815l24.611-38.343,27.1,21.8s-4.471,20.924-28.808,30.92L685.4-413.574l-6.779-42.241" fill="#f9e3df"/>
                <path id="path86" d="M734.68-433.328l-68.446-68.446a8.849,8.849,0,0,1,0-12.517l52.256-52.256a8.852,8.852,0,0,1,12.517,0L799.453-498.1a8.851,8.851,0,0,1,0,12.519L747.2-433.328a8.851,8.851,0,0,1-12.519,0" fill="#bed5ff" stroke="#406ebf" stroke-width="1"/>
                <path id="path92" d="M698.27-439.084c8.565-13.277,4.965-24.448,4.965-24.448l4.907-7.505a3.883,3.883,0,0,0-.7-5.052h0a3.883,3.883,0,0,0-4.9-.172l-10.357,7.836,6.081,29.341" fill="#f9e3df"/>
                <path id="path94" d="M703.236-463.532s3.852,7.5-1.331,17.273" fill="none" stroke="#463234" stroke-linecap="round" stroke-linejoin="round" stroke-miterlimit="10" stroke-width="1.695"/>
                <path id="path96" d="M626.145-384.82l54.132-73.26,22.959,40.1s-33.549,62.9-63.232,82.608L626.145-384.82" fill="#cbe5f5"/>
                <path id="path98" d="M521.219-354.631s80.068-11.48,104.926-30.189L640-335.376s-54.919,45.707-106.834,38.988l-11.951-58.243" fill="#cbe5f5"/>
                <path id="path100" d="M532.092-316.119s30.5,18.871,88.833-5.8c0,0-40.673,28.819-81.505,26.2l-7.328-20.405" fill="#cbe5f5"/>
                <path id="path102" d="M534.98-355.334l-92.908,4.748a18.228,18.228,0,0,0-16.511,12.931c-3.687,12.135-6.463,34.863.263,75.217,7.572,45.433-12.44,81.673-12.44,81.673s47.624,29.555,108.113,4.132c0,0,12.209-84.7,14.3-159.388.137-4.892,4.071-19.564-.817-19.313" fill="#cbe5f5"/>
                <path id="path104" d="M524.845-343.87s45.78,66.391,1.649,83.9l-10.509-76.712,8.86-7.187" fill="#cbe5f5"/>
                <path id="path106" d="M425.824-266.3l15.273-9s-6.3,23.933-15.085,53.916c0,0,3.235-16.525-.188-44.915" fill="#cbe5f5"/>
                <path id="path108" d="M434.164-348.318,323.978-281.971l24.633,52.444s77.213-32.911,100.005-51.1l-4.271-42.917-10.181-24.769" fill="#cbe5f5"/>
                <path id="path110" d="M276.722-322.611l-21.049-34.944a4.956,4.956,0,0,0-6.632-1.787h0a4.956,4.956,0,0,0-2.2,6.22l4.384,10.721s-8.257,18.168,9.635,36.061l15.864-16.272" fill="#f9e3df"/>
                <path id="path112" d="M247.375-351.812l-7.115-10.371a4.649,4.649,0,0,0-7.709.064l-4.931,7.453a16.444,16.444,0,0,0-1.784,14.587A104.813,104.813,0,0,0,259.482-293.4l9.635-27.8-21.741-30.609" fill="#f9e3df"/>
                <path id="path114" d="M247.375-351.812l3.848,9.412s-8.539,8.283.548,22.172" fill="none" stroke="#463234" stroke-linecap="round" stroke-linejoin="round" stroke-miterlimit="10" stroke-width="1.695"/>
                <path id="path116" d="M323.978-281.971l-47.3-52.381-32.816,35.08,60.495,70.252a21.961,21.961,0,0,0,23.691,6.468l20.565-6.975-24.633-52.444" fill="#cbe5f5"/>
                <path id="path120" d="M471.175-397.191l1.541,29.488c.107,2.042,2.655,3.661,5.761,3.661h17.167c3.217,0,5.812-1.732,5.764-3.848l-.588-25.778-29.645-3.523" transform="translate(0 17.253)" fill="#e6b2a8"/>
                <path id="path128" d="M473.96-348.98s8.325,13.379,23.157,8.481a7.855,7.855,0,0,0,4.539-11.22,22.3,22.3,0,0,0-4.684-5.493L473.96-348.98" fill="#e6b2a8"/>
                <g id="Group_487" data-name="Group 487" transform="translate(-6 18)">
                  <path id="path118" d="M458.111-404.387a24.448,24.448,0,0,1-24.448,24.448,24.447,24.447,0,0,1-24.448-24.448,24.447,24.447,0,0,1,24.448-24.447,24.448,24.448,0,0,1,24.448,24.447" fill="#3c2a2d"/>
                  <path id="path124" d="M507.736-466.87s31.391-4.44,22.9,31.2-2.939,57.472-26.221,55.621c-23.187-1.844-35.084-8.4-40.992-36.719s4.063-48.627,44.316-50.1" fill="#e6b2a8"/>
                  <path id="path126" d="M473.38-407.838s6.747-11.232-6.64-28.679c0,0,29.045-33.785,64.385-17.605,0,0-4.765-24.331-44.011-19.852-38.165,4.355-53.644,37.268-37.941,57.208S468.8-400.1,468.8-400.1l4.58-7.741" fill="#463234"/>
                  <path id="path130" d="M513.661-416.618l4.06,7.069-3.887,2.908" fill="none" stroke="#463234" stroke-linecap="round" stroke-linejoin="round" stroke-miterlimit="10" stroke-width="1.695"/>
                  <path id="path132" d="M495.1-441s10.577-.868,10.684,3.437c0,0-.009,2.916-9.237,3.493s-15.139-.1-15.983-2.836,9.575-4.068,14.536-4.095" fill="#463234"/>
                  <path id="path134" d="M523.743-440.7s-6.963-.756-7.948,2.763c0,0-.612,2.383,5.5,2.9s8.088-.237,8.389-2.259c.359-2.408-2.6-3.357-5.941-3.4" fill="#463234"/>
                  <path id="path136" d="M492.629-421.728a3.158,3.158,0,0,0,3.053,3.259,3.158,3.158,0,0,0,3.259-3.053,3.157,3.157,0,0,0-3.053-3.259,3.157,3.157,0,0,0-3.259,3.053" fill="#463234"/>
                  <path id="path138" d="M516.8-422.083a2.8,2.8,0,0,0,2.709,2.892A2.8,2.8,0,0,0,522.4-421.9a2.8,2.8,0,0,0-2.711-2.893,2.8,2.8,0,0,0-2.893,2.711" fill="#463234"/>
                  <path id="path140" d="M502.815-403.814s1.524,3.989,7.324,3.107" fill="none" stroke="#463234" stroke-linecap="round" stroke-linejoin="round" stroke-miterlimit="10" stroke-width="1.695"/>
                  <path id="path142" d="M476.932-403.9a12.067,12.067,0,0,1-12.067,12.067A12.067,12.067,0,0,1,452.8-403.9a12.067,12.067,0,0,1,12.067-12.067A12.067,12.067,0,0,1,476.932-403.9" fill="#e6b2a8"/>
                  <path id="path144" d="M459.25-406.98s5.963-5.637,11.925,1.564" fill="none" stroke="#463234" stroke-linecap="round" stroke-linejoin="round" stroke-miterlimit="10" stroke-width="1.695"/>
                </g>
              </g>
            </g>
            <g id="bank" transform="translate(1236.986 1171.759) rotate(45)">
              <path id="Path_1" data-name="Path 1" d="M18,33.82V47.18A3,3,0,0,1,20,50v2a1,1,0,0,1-1,1H9a1,1,0,0,1-1-1V50a3,3,0,0,1,2-2.82V33.82A3,3,0,0,1,8,31V29a1,1,0,0,1,1-1H19a1,1,0,0,1,1,1v2a3,3,0,0,1-2,2.82Z" fill="#96a1c3"/>
              <path id="Path_2" data-name="Path 2" d="M18,33.82V47.18A3,3,0,0,1,20,50v2a1,1,0,0,1-1,1H12a.22.22,0,0,1,0-.08V50.76a3.26,3.26,0,0,1,2-3V33.29a3.26,3.26,0,0,1-2-3.05V28.08A.22.22,0,0,1,12,28h7a1,1,0,0,1,1,1v2a3,3,0,0,1-2,2.82Z" fill="#ccd3eb"/>
              <path id="Path_3" data-name="Path 3" d="M36,33.82V47.18A3,3,0,0,1,38,50v2a1,1,0,0,1-1,1H27a1,1,0,0,1-1-1V50a3,3,0,0,1,2-2.82V33.82A3,3,0,0,1,26,31V29a1,1,0,0,1,1-1H37a1,1,0,0,1,1,1v2A3,3,0,0,1,36,33.82Z" fill="#96a1c3"/>
              <path id="Path_4" data-name="Path 4" d="M36,33.82V47.18A3,3,0,0,1,38,50v2a1,1,0,0,1-1,1H30a.22.22,0,0,1,0-.08V50.76a3.26,3.26,0,0,1,2-3V33.29a3.26,3.26,0,0,1-2-3.05V28.08A.22.22,0,0,1,30,28h7a1,1,0,0,1,1,1v2A3,3,0,0,1,36,33.82Z" fill="#ccd3eb"/>
              <path id="Path_5" data-name="Path 5" d="M54,33.82V47.18A3,3,0,0,1,56,50v2a1,1,0,0,1-1,1H45a1,1,0,0,1-1-1V50a3,3,0,0,1,2-2.82V33.82A3,3,0,0,1,44,31V29a1,1,0,0,1,1-1H55a1,1,0,0,1,1,1v2A3,3,0,0,1,54,33.82Z" fill="#96a1c3"/>
              <path id="Path_6" data-name="Path 6" d="M54,33.82V47.18A3,3,0,0,1,56,50v2a1,1,0,0,1-1,1H48a.22.22,0,0,1,0-.08V50.76a3.26,3.26,0,0,1,2-3V33.29a3.26,3.26,0,0,1-2-3.05V28.08A.22.22,0,0,1,48,28h7a1,1,0,0,1,1,1v2A3,3,0,0,1,54,33.82ZM57,22a1,1,0,0,1-1,1H8a1,1,0,0,1-.63-1.77L7.64,21l9.55-7.81,10.63-8.7a6.29,6.29,0,0,1,1.44-.89,5.57,5.57,0,0,1,1.06-.38,6.52,6.52,0,0,1,3.36,0,4.46,4.46,0,0,1,.73.24l.33.14a6.5,6.5,0,0,1,1.14.66l.3.23,9,7.37,3.08,2.52L49,15l3.09,2.53,3,2.45,1.23,1,.27.23A1,1,0,0,1,57,22Z" fill="#ccd3eb"/>
              <path id="Path_7" data-name="Path 7" d="M55.13,20H17a1,1,0,0,1-.63-1.77l.27-.23,9.55-7.81,8.22-6.73.33.14a6.5,6.5,0,0,1,1.14.66l.3.23,9,7.37,3.08,2.52L49,15l3.09,2.53Z" fill="#f5f7ff"/>
              <rect id="Rectangle_7" data-name="Rectangle 7" width="56" height="9" rx="3" transform="translate(4 21)" fill="#ccd3eb"/>
              <path id="Path_8" data-name="Path 8" d="M32.38,12h-1a.5.5,0,0,1,0-1H34a1,1,0,0,0,0-2H33V8a1,1,0,0,0-2,0V9a2.507,2.507,0,0,0,.38,5h1a.5.5,0,0,1,0,1H30a1,1,0,0,0,0,2h1v1a1,1,0,0,0,2,0V16.91A2.49,2.49,0,0,0,32.38,12Z" fill="#f5f7ff"/>
              <path id="Path_9" data-name="Path 9" d="M56,51H8a5,5,0,0,0-5,5v4a1,1,0,0,0,1,1H60a1,1,0,0,0,1-1V56A5,5,0,0,0,56,51Z" fill="#96a1c3"/>
              <path id="Path_10" data-name="Path 10" d="M49.18,16.42a1,1,0,0,1-.77.37.94.94,0,0,1-.63-.23L47,15.92a1,1,0,0,1,1.26-1.54L49,15a1,1,0,0,1,.18,1.42Z" fill="#033c59"/>
              <path id="Path_11" data-name="Path 11" d="M31.38,11H34a1,1,0,0,0,0-2H33V8a1,1,0,0,0-2,0V9a2.507,2.507,0,0,0,.38,5h1a.5.5,0,0,1,0,1H30a1,1,0,0,0,0,2h1v1a1,1,0,0,0,2,0V16.91A2.49,2.49,0,0,0,32.38,12h-1a.5.5,0,0,1,0-1Z" fill="#0074ff"/>
              <path id="Path_12" data-name="Path 12" d="M56,51V50a3,3,0,0,0-2-2.82V33.82A3,3,0,0,0,56,31V30h1a3,3,0,0,0,3-3V24a3,3,0,0,0-3-3h-.64l-4.23-3.45a1,1,0,1,0-1.26,1.54L53.2,21H10.8L29.08,6a4.77,4.77,0,0,1,5.17-.45,4.9,4.9,0,0,1,.67.45l9,7.36a1,1,0,0,0,1.26-1.54l-9-7.36a3.55,3.55,0,0,0-.31-.23,5.61,5.61,0,0,0-1.13-.67,6.58,6.58,0,0,0-6.92.9L17.19,13.19,7.64,21H7a3,3,0,0,0-3,3v3a3,3,0,0,0,3,3H8v1a3,3,0,0,0,2,2.82V47.18A3,3,0,0,0,8,50v1a5,5,0,0,0-5,5v4a1,1,0,0,0,1,1H60a1,1,0,0,0,1-1V56A5,5,0,0,0,56,51ZM54,31a1,1,0,0,1-1,1H47a1,1,0,0,1-1-1V30h8ZM36,47.18V33.82A3,3,0,0,0,38,31V30h6v1a3,3,0,0,0,2,2.82V47.18A3,3,0,0,0,44,50v1H38V50a3,3,0,0,0-2-2.82Zm-18,0V33.82A3,3,0,0,0,20,31V30h6v1a3,3,0,0,0,2,2.82V47.18A3,3,0,0,0,26,50v1H20V50A3,3,0,0,0,18,47.18ZM11,32a1,1,0,0,1-1-1V30h8v1a1,1,0,0,1-1,1Zm5,2V47H12V34ZM28,50a1,1,0,0,1,1-1h6a1,1,0,0,1,1,1v1H28Zm2-3V34h4V47Zm5-15H29a1,1,0,0,1-1-1V30h8v1A1,1,0,0,1,35,32ZM46,50a1,1,0,0,1,1-1h6a1,1,0,0,1,1,1v1H46Zm2-3V34h4V47ZM7,28a1,1,0,0,1-1-1V24a1,1,0,0,1,1-1H57a1,1,0,0,1,1,1v3a1,1,0,0,1-1,1Zm3,22a1,1,0,0,1,1-1h6a1,1,0,0,1,1,1v1H10Zm49,9H5V56a3,3,0,0,1,3-3H56a3,3,0,0,1,3,3Z" fill="#033c59"/>
            </g>
            <text id="डिजिटल_पेमेंट_प्रोडक्ट्स_और_सेवाओं_के_बारे_में_जानकारी_" data-name="डिजिटल पेमेंट प्रोडक्ट्स और सेवाओं के &#10;बारे में जानकारी&#10;&#10;" transform="translate(653 1274)" fill="#3e3e3e" font-size="16" font-family="KohinoorDevanagari-Medium, Kohinoor Devanagari" font-weight="500" style="white-space: pre;"><tspan x="0" y="0">डिजिटल</tspan><tspan y="0" font-family="HelveticaNeue-Medium, Helvetica Neue"> </tspan><tspan y="0">पेमेंट</tspan><tspan y="0" font-family="HelveticaNeue-Medium, Helvetica Neue"> </tspan><tspan y="0">प्रोडक्ट्स</tspan><tspan y="0" font-family="HelveticaNeue-Medium, Helvetica Neue"> </tspan><tspan y="0">और</tspan><tspan y="0" font-family="HelveticaNeue-Medium, Helvetica Neue"> </tspan><tspan y="0">सेवाओं</tspan><tspan y="0" font-family="HelveticaNeue-Medium, Helvetica Neue"> </tspan><tspan y="0">के</tspan><tspan y="0" font-family="HelveticaNeue-Medium, Helvetica Neue"> </tspan><tspan x="0" y="25">बारे</tspan><tspan y="25" font-family="HelveticaNeue-Medium, Helvetica Neue"> </tspan><tspan y="25">में</tspan><tspan y="25" font-family="HelveticaNeue-Medium, Helvetica Neue"> </tspan><tspan y="25">जानकारी</tspan><tspan y="25" font-family="HelveticaNeue-Medium, Helvetica Neue"/><tspan font-family="HelveticaNeue-Medium, Helvetica Neue"><tspan x="0" y="49"/><tspan x="0" y="68"/></tspan></text>
            <text id="_24_7_प्रतिक्रिया" data-name="24*7  &#10;प्रतिक्रिया" transform="translate(598 1368)" fill="#3e3e3e" font-size="18" font-family="HelveticaNeue, Helvetica Neue" style="white-space: pre;"><tspan x="0" y="0">24*7  </tspan><tspan font-family="KohinoorDevanagari-Bold, Kohinoor Devanagari" font-weight="700"><tspan x="0" y="24">प्रतिक्रिया</tspan></tspan></text>
            <text id="बैंक_संस्थान_संपर्क_विवरण_प्राप्त_करे" data-name="बैंक/संस्थान संपर्क विवरण प्राप्त करे" transform="translate(1405 1241.697)" fill="#3e3e3e" font-size="24" font-family="KohinoorDevanagari-Regular, Kohinoor Devanagari" style="white-space: pre;"><tspan x="0" y="0">बैंक</tspan><tspan y="0" font-family="HelveticaNeue, Helvetica Neue">/</tspan><tspan y="0">संस्थान</tspan><tspan y="0" font-family="HelveticaNeue, Helvetica Neue"> </tspan><tspan y="0" font-family="KohinoorDevanagari-Bold, Kohinoor Devanagari" font-weight="700">संपर्क</tspan><tspan y="0" font-family="HelveticaNeue-Bold, Helvetica Neue" font-weight="700"> </tspan><tspan y="0" font-family="KohinoorDevanagari-Bold, Kohinoor Devanagari" font-weight="700">विवरण</tspan><tspan y="0" font-family="HelveticaNeue, Helvetica Neue"> </tspan><tspan y="0">प्राप्त</tspan><tspan y="0" font-family="HelveticaNeue, Helvetica Neue"> </tspan><tspan y="0">करे</tspan></text>
          </g>
        </g>
      </g>
      <g id="Group_504" data-name="Group 504" transform="translate(-515.182 -35.203)">
        <g id="Group_489" data-name="Group 489" transform="translate(201 1028.149)">
          <text id="हिन्दी" transform="translate(3.82 235.096)" fill="#226371" font-size="72" font-family="KohinoorDevanagari-Medium, Kohinoor Devanagari" font-weight="500" opacity="0.586" style="white-space: pre;"><tspan x="0" y="0">हिन्दी</tspan></text>
          <text id="ಕನ್ನಡ" transform="translate(52.774 427.371)" fill="#226371" font-size="73" font-family="NotoSansKannada-Medium, Noto Sans Kannada" font-weight="500" opacity="0.586" style="white-space: pre;"><tspan x="0" y="0">ಕನ್ನಡ</tspan></text>
          <text id="मराठी" transform="translate(111.187 144.242)" fill="#b5bcbe" font-size="72" font-family="KohinoorDevanagari-Medium, Kohinoor Devanagari" font-weight="500" opacity="0.586" style="white-space: pre;"><tspan x="0" y="0">मराठी</tspan></text>
          <text id="English_" data-name="English " transform="translate(75.521 333.364)" fill="#b6b8b9" font-size="73" font-family="Roboto-Medium, Roboto" font-weight="500" opacity="0.586" style="white-space: pre;"><tspan x="0" y="0">English </tspan></text>
          <text id="தமிழ்" transform="translate(14.558 55)" fill="#226371" font-size="72" font-family="TamilSangamMN, Tamil Sangam MN" opacity="0.586" style="white-space: pre;"><tspan x="0" y="0">தமிழ்</tspan></text>
          <text id="বাংলা" transform="translate(1 539.91)" fill="#b6b8b9" font-size="72" font-family="KohinoorBangla-Medium, Kohinoor Bangla" font-weight="500" opacity="0.586" style="white-space: pre;"><tspan x="0" y="0">বাংলা</tspan></text>
          <text id="ગુજરાતી" transform="translate(1 639.91)" fill="#226371" font-size="70" font-family="KohinoorBangla-Medium, Kohinoor Bangla" font-weight="500" opacity="0.586"><tspan x="0" y="0">ગુજરાતી</tspan></text>
          <text id="తెలుగు" transform="translate(190 504.7)" fill="#b6b8b9" font-size="70" font-family="KohinoorBangla-Medium, Kohinoor Bangla" font-weight="500" opacity="0.586"><tspan x="0" y="0">తెలుగు</tspan></text>
          <text id="മലയാളം" transform="translate(225.558 15)" fill="#226371" font-size="70" font-family="KohinoorBangla-Medium, Kohinoor Bangla" font-weight="500" opacity="0.586"><tspan x="0" y="0">മലയാളം</tspan></text>
          <text id="ਪੰਜਾਬੀ" transform="translate(225 660.7)" fill="#b6b8b9" font-size="70" font-family="KohinoorBangla-Medium, Kohinoor Bangla" font-weight="500" opacity="0.586"><tspan x="0" y="0">ਪੰਜਾਬੀ</tspan></text>
        </g>
      </g>
    </g>
  </g>
</svg>