<svg xmlns="http://www.w3.org/2000/svg" xmlns:xlink="http://www.w3.org/1999/xlink" width="1397.593" height="574.798" viewBox="0 0 1397.593 574.798">
  <defs>
    <clipPath id="clip-path">
      <rect id="Rectangle_317" data-name="Rectangle 317" width="1397.593" height="574.798" fill="#fe6e12"/>
    </clipPath>
  </defs>
  <g id="Group_1" data-name="Group 1" transform="translate(-223.204 -115)">
    <g id="Group_559" data-name="Group 559" transform="translate(3044.204 -11985.999)">
      <g id="Group_558" data-name="Group 558" transform="translate(-2821 12100.999)">
        <g id="Group_557" data-name="Group 557" clip-path="url(#clip-path)">
          <path id="Path_1044" data-name="Path 1044" d="M39.575,38.678a6.541,6.541,0,0,0-2.956.568,8.771,8.771,0,0,1,6.139.227,7.743,7.743,0,0,0-3.183-.8" transform="translate(379.689 401.043)" fill="#fe6e12"/>
          <path id="Path_1045" data-name="Path 1045" d="M14.389,39.035a8.844,8.844,0,0,1,3.638-2.387,7.853,7.853,0,0,0-3.638,2.387" transform="translate(149.194 379.995)" fill="#fe6e12"/>
          <path id="Path_1046" data-name="Path 1046" d="M150.445,103.2a67.758,67.758,0,0,1-10.673,19.721,14.031,14.031,0,0,0-1.856,1.856,17.312,17.312,0,0,0,2.32,24.361c18.677,14.269,35.614,15.2,47.214-7.192A251.448,251.448,0,0,0,211,69.672a27.867,27.867,0,0,0-3.712-18.213A44.4,44.4,0,0,0,181.766,33.13a9.967,9.967,0,0,0-6.612-.464c-4.988,2.552-8.236.116-11.949-2.9A33.956,33.956,0,0,0,130.028,21.3a85.27,85.27,0,0,0-35.15,23.9A342.034,342.034,0,0,0,25.623,150.76,287.728,287.728,0,0,0,.218,259.689L.1,259.8a43.217,43.217,0,0,0,14.733,35.5,261.557,261.557,0,0,0,44.082,28.769,48.84,48.84,0,0,0,37.7-.58A255.092,255.092,0,0,0,187.218,267a23.538,23.538,0,0,0,8.352-21.229,186.144,186.144,0,0,0-9.512-32.482,12.942,12.942,0,0,0-13.921-7.772,12.127,12.127,0,0,0-12.3,9.164,42.053,42.053,0,0,1-17.517,25.405,199.136,199.136,0,0,1-65.079,41.53c-16.241,5.568-27.261-2.436-27.609-20.3a126.617,126.617,0,0,1,1.856-25.637A341.249,341.249,0,0,1,97.662,120.6,146.515,146.515,0,0,1,134.32,76.4a34.813,34.813,0,0,1,15.893-6.148c4.872-.58,8.584,2.32,6.728,8.816-2.2,8-3.48,16.357-6.5,24.129M170.63,212.706a9.024,9.024,0,0,0-3.712,2.436,8.015,8.015,0,0,1,3.712-2.436" transform="translate(-2.109 201.64)" fill="#fe6e12"/>
          <path id="Path_1047" data-name="Path 1047" d="M45.686,34.324l-.114-.114h-.114l-.909-.682.8.8a.111.111,0,0,1,.114.114c.114,0,.227.114.455.227-.114-.114-.227-.227-.227-.341" transform="translate(461.913 347.644)" fill="#fe6e12"/>
          <path id="Path_1048" data-name="Path 1048" d="M39.575,38.678a6.541,6.541,0,0,0-2.956.568,8.771,8.771,0,0,1,6.139.227,7.743,7.743,0,0,0-3.183-.8" transform="translate(379.689 401.043)" fill="#fe6e12"/>
          <path id="Path_1049" data-name="Path 1049" d="M346.859,319.894c8.412,1.705,16.826,3.183,25.238,5a39.6,39.6,0,0,0,37.63-9.891A144.9,144.9,0,0,0,431.9,287.266a225.6,225.6,0,0,0,28.99-85.72,73.364,73.364,0,0,0-.341-32.969c-8.413-25.466-24.556-40.245-50.59-25.807-4.206,2.274-6.366-.114-9.209-2.274-15.461-11.824-26.6-10.687-38.994,4.548a126.155,126.155,0,0,0-12.961,18.872,315.554,315.554,0,0,0-32.969,93.223,57.716,57.716,0,0,0,2.274,34.22c2.728,5.457,5.684,10.8,8.867,15.916Zm-19.9-12.619c-3.183,1.819-6.366,3.752-9.436,5.912a10.563,10.563,0,0,1-14.438.682,103.817,103.817,0,0,1-14.438-10.8c-18.3-18.758-36.721-37.517-54.115-57.071-13.529-15.234-25.693-31.6-38.54-47.521h.114L197.248,197a40.671,40.671,0,0,0,37.289-6.253,157.575,157.575,0,0,0,56.389-75.6,48.253,48.253,0,0,0-16.371-57.753,23.725,23.725,0,0,1-5.23-6.821,38.731,38.731,0,0,0-44.451-23.988c-11.255,1.592-22.51,4.547-33.765,6.48a8.375,8.375,0,0,1-6.48-2.16c-4.889-6.48-9.549-13.074-18.872-11.028-9.209,2.16-10.8,10.345-12.392,18.3,0,.227-.114.455-.114.682.114,5.23-2.842,7.049-7.39,8.526a265.832,265.832,0,0,0-83.1,44.11,145.9,145.9,0,0,0-25.125,25.807,29.136,29.136,0,0,0-5.571,20.236,141.687,141.687,0,0,0,25.466,57.866,16.751,16.751,0,0,0,21.6,4.32,15.852,15.852,0,0,0,6.025-19.668,216.289,216.289,0,0,1-5.912-22.4,20.918,20.918,0,0,1,2.274-13.529,124.226,124.226,0,0,1,58.776-41.5c-1.933,7.5-3.638,13.529-5.343,19.554a58,58,0,0,1-3.411,10.345,7.416,7.416,0,0,1-4.434,3.183c-17.849,5-21.259,13.3-12.392,29.9l1.364,2.387a9.655,9.655,0,0,1,1.137,10.687c-4.889,12.619-9.436,25.466-14.211,38.2-2.046,5.571-4.434,11.141-6.707,16.6a15.573,15.573,0,0,0-8.754-1.705,15.813,15.813,0,0,0-14.325,17.167,77.183,77.183,0,0,1-3.069,15.916c-2.387,7.731-5.457,15.348-8.185,23.078a23.591,23.591,0,0,0,5.116,25.125,91.482,91.482,0,0,0,8.3,7.958c12.961,10.459,24.1,8.185,31.946-6.935,4.093-8.072,7.617-16.485,10.914-24.9,9.777-24.784,19.213-49.681,28.99-75.033,1.364,1.819,2.728,3.411,3.979,5.23A940.352,940.352,0,0,0,254.66,340.7a276.621,276.621,0,0,0,28.194,24.784l.909.909a27.44,27.44,0,0,0,38.653-3.752,74.55,74.55,0,0,0,24.442-42.746M85.267,238.154a6.541,6.541,0,0,1,2.956-.568,7.744,7.744,0,0,1,3.183.8,8.771,8.771,0,0,0-6.139-.227m91.063-58.207a.111.111,0,0,0-.114-.114l-.8-.8.91.682h.114l.114.114c0,.114.114.227.227.341-.227-.114-.341-.227-.455-.227m9.549-20.691c-9.549-2.956-14.438.227-16.826,10.8-3.524-5.23-6.594-9.322-9.095-13.87a9.85,9.85,0,0,1-.341-6.253q8.7-32.571,17.962-64.8a9.641,9.641,0,0,1,4.434-5.684,128.492,128.492,0,0,1,50.931-10.118c20.577.568,27.739,11.028,20.122,30.809a131.323,131.323,0,0,1-39.79,54.342,27.57,27.57,0,0,1-27.4,4.775m227.486,57.071a170.6,170.6,0,0,1-26.489,60.481,49.667,49.667,0,0,1-13.756,12.505c-6.935,4.434-11.369,2.387-11.71-5.912a101.773,101.773,0,0,1,1.819-31.036c5.23-19.213,12.505-37.744,19.44-56.388a14.047,14.047,0,0,1,7.617-6.366c9.209-4.093,18.645-7.617,30.013-12.051-2.387,13.983-3.865,26.6-6.935,38.767" transform="translate(331.042 202.136)" fill="#fe6e12"/>
          <path id="Path_1050" data-name="Path 1050" d="M14.029,24.3c3.069,3.183,1.251,6.707.227,9.777,1.023-3.07,2.728-6.594-.227-9.777" transform="translate(145.462 251.94)" fill="#fe6e12"/>
          <path id="Path_1051" data-name="Path 1051" d="M18.027,36.648a8.844,8.844,0,0,0-3.638,2.387,7.854,7.854,0,0,1,3.638-2.387" transform="translate(149.194 379.994)" fill="#fe6e12"/>
          <path id="Path_1052" data-name="Path 1052" d="M219.237,86.4a8.488,8.488,0,0,0,1.234,9.5,14.881,14.881,0,0,1,.224,21.327,15.341,15.341,0,0,1-10.772,4.531,8.1,8.1,0,0,0-7.069,5.415c-12.792,24.642-25.471,49.284-38.824,73.6a61.492,61.492,0,0,1-13.577,15.8,23.237,23.237,0,0,1-24.012,3.978,14.773,14.773,0,0,0-6.171-.663,19.4,19.4,0,0,1-24.125-12.376,3.228,3.228,0,0,1-.224-1.105,158.77,158.77,0,0,1-6.732-32.267,253.551,253.551,0,0,1-1.122-29.173c-.224-9.5,0-19.007,0-29.5h-1.8a14.579,14.579,0,0,1-15.26-13.813,14.214,14.214,0,0,1,3.142-9.614C84.812,76.127,96.033,60.546,107.478,45.3a19,19,0,0,1,24.012-6.52,75.5,75.5,0,0,1,17.617,11.271,16.8,16.8,0,0,1,.785,24.09,5.279,5.279,0,0,1-1.122,1.105,29.575,29.575,0,0,0-6.4,9.614,172.938,172.938,0,0,0-7.63,93.043,22.25,22.25,0,0,1,1.235-2.873,379.713,379.713,0,0,0,35.458-72.269,17.612,17.612,0,0,0,1.234-8.288,89.816,89.816,0,0,1,10.323-53.815,18.2,18.2,0,0,1,23.114-10.719,18.379,18.379,0,0,1,2.581,1.216,70.264,70.264,0,0,1,12.118,6.409,17.564,17.564,0,0,1,8.3,19.449A251.5,251.5,0,0,1,219.237,86.4" transform="translate(733.414 304.312)" fill="#fe6e12"/>
          <path id="Path_1053" data-name="Path 1053" d="M77.894,30.928a2.847,2.847,0,0,1,.8.455,9.96,9.96,0,0,0-2.5-1.137,10.658,10.658,0,0,1,1.705.682" transform="translate(789.976 313.637)" fill="#fe6e12"/>
          <path id="Path_1054" data-name="Path 1054" d="M83.629,39.2a12.726,12.726,0,0,0,3.752-2.728A12.19,12.19,0,0,1,83.629,39.2" transform="translate(867.119 378.128)" fill="#fe6e12"/>
          <path id="Path_1055" data-name="Path 1055" d="M208.162,135.271a16.366,16.366,0,0,0-22.283,1.124c-2.16,1.911-3.979,4.159-6.139,6.069-12.164,10.678-24.329,21.468-36.834,31.92a93.225,93.225,0,0,1-11.482,7.193l-2.274-1.124,7.731-45.3h.114c4.775.9,7.731,1.461,10.8,1.911l1.705.337c26.716,4.833,52.409-12.588,57.3-39a137.136,137.136,0,0,0,1.478-18.1c.341-11.689.341-23.378.568-35.067A13.059,13.059,0,0,0,198.5,30.855a37.418,37.418,0,0,0-25.92,1.236,5.112,5.112,0,0,1-3.638.45,25.6,25.6,0,0,0-30.581,11.8c-10.232,14.724-18.645,30.8-28.081,46.194a12.243,12.243,0,0,1-6.025,5.17,12.763,12.763,0,0,0-4.775,2.023,14.533,14.533,0,0,0-4.206,20.231A13.805,13.805,0,0,1,96.3,126.5c-3.183,16.073-7.049,32.033-10.232,48.105a28.025,28.025,0,0,0,10.8,28.661c6.139,4.946,12.506,9.329,18.872,13.6a30.12,30.12,0,0,0,36.039.225A93.192,93.192,0,0,0,169.4,202.933C182.924,188.1,196,172.811,208.731,157.3a15.8,15.8,0,0,0-.569-22.03M172.237,65.136c-.682,11.352-.568,22.816-2.046,34.056-.91,6.744-7.39,9.329-13.529,10a121.821,121.821,0,0,1-14.325.112,99.2,99.2,0,0,1,29.9-44.171" transform="translate(885.49 304.093)" fill="#fe6e12"/>
          <path id="Path_1056" data-name="Path 1056" d="M231.013,37.031c-6.025-2.728-12.278-4.775-18.531-6.935a16.634,16.634,0,0,0-18.417,5.912c-4.434,4.775-8.072,10.232-11.141,14.1l-.364,6.275c-5.912-4.093-11.687-13.892-17.94-17.3a14.409,14.409,0,0,0-2.615-1.364,19.928,19.928,0,0,0-26.261,10.345C128.127,59.428,120.4,70.91,112.325,81.938c-9.891,13.415-8.185,22.51,6.139,29.331-6.253,25.125-12.505,50.136-18.645,75.26-.227.455-.341,1.023-.568,1.592a22.432,22.432,0,0,0,14.1,28.308c3.183,1.592,6.367,3.183,9.663,4.547.341.227.8.341,1.137.568a14.105,14.105,0,0,0,18.531-7.39,105.687,105.687,0,0,0,8.185-20.009,393.232,393.232,0,0,1,36.607-84.583c1.137-2.046,2.5-3.979,2.728-4.32a171.024,171.024,0,0,0,17.394,16.485,15.8,15.8,0,0,0,26.148-9.209A172.378,172.378,0,0,0,241.7,56.7a19.592,19.592,0,0,0-10.687-19.668M164.279,90.351l-.114.227v-.341a.111.111,0,0,1,.114-.114c0-.114.114-.227.227-.341-.114.227-.114.341-.227.569" transform="translate(1017.252 303.896)" fill="#fe6e12"/>
          <path id="Path_1057" data-name="Path 1057" d="M104.261,34.627c-.114.227-.114.341-.227.568l-.114.227v-.341a.111.111,0,0,1,.114-.114c0-.114.114-.227.227-.341" transform="translate(1077.498 359.051)" fill="#fe6e12"/>
          <path id="Path_1058" data-name="Path 1058" d="M113.823,41.939a39.708,39.708,0,0,1-6.594-5.571,45.087,45.087,0,0,0,6.594,5.571" transform="translate(1111.819 377.091)" fill="#fe6e12"/>
          <path id="Path_1061" data-name="Path 1061" d="M172.413,46.7a2.272,2.272,0,0,0,.307-.239c2.012-2.251,4.968-2.217,7.333-.989A25.841,25.841,0,0,1,188,51.718a7.688,7.688,0,0,1,1.58,5.423,12.237,12.237,0,0,1-1.307,4.343c-1.125,2.694-2.115,5.457-3.024,8.231-1.5,4.559-2.9,9.152-4.331,13.745a4.689,4.689,0,0,0-.125.591,23.647,23.647,0,0,1,3.877,1.137c3.865,1.842,3.809,6.514,2.183,8.856a92.015,92.015,0,0,0-13.063,27.6c-.694,2.49-2.717,3.695-5.173,4.206a6.8,6.8,0,0,1-4.15-.568,30.817,30.817,0,0,1-6.969-4.331,11.7,11.7,0,0,1-2.808-3.592c-1.4-2.478-.932-5-.409-7.537.739-3.547,1.523-7.094,2.285-10.63a4.1,4.1,0,0,0,.023-.534l-.227-.182a2.231,2.231,0,0,1-.262.489c-5.059,5.3-10.061,10.641-15.2,15.848a40.761,40.761,0,0,1-10.22,7.81,13.6,13.6,0,0,1-6.31,1.728,9.362,9.362,0,0,1-6.321-2.421c-1.023-.875-2.137-1.648-3.115-2.558a13.277,13.277,0,0,1-4.059-8.97c-.512-5.843.989-11.357,2.956-16.757a110.823,110.823,0,0,1,11.892-22.817,141.2,141.2,0,0,1,17.53-21.885,59.817,59.817,0,0,1,10.323-8.5c3.445-2.183,6.855-2.092,10.38-.261a34.891,34.891,0,0,1,7.469,5.582c.33.307.659.625.989.944M156.452,62.472a108.467,108.467,0,0,0-25.636,39.063c-.284.716-.523,1.444-.853,2.376.364-.261.534-.364.694-.5a142.365,142.365,0,0,0,16.735-16.894c2.694-3.251,5.161-6.685,7.844-9.948a94.749,94.749,0,0,0,8.242-11.551c1.194-2.024,2.3-4.115,3.479-6.23" transform="translate(1148.612 401.147)" fill="#fe6e12"/>
          <path id="Path_1062" data-name="Path 1062" d="M136.439,62.27c-.8.5-1.4.932-2.058,1.285a5.8,5.8,0,0,1-8.856-5.207,7.934,7.934,0,0,1,1.853-5.355c3.1-3.718,6.128-7.5,9.288-11.164,2.205-2.558,5.093-3.24,8.333-2.558a16.365,16.365,0,0,1,5.673,2.41,9.756,9.756,0,0,0,2.865,1.012c3.3.841,4.65,3.3,5.343,6.321a22.821,22.821,0,0,1-.693,11.755c-2.058,7-4,14.029-5.991,21.055-.068.227-.114.455-.171.693a16.264,16.264,0,0,1,1.546.739c2.592,1.6,3.422,4.536,2.1,7.56a16.147,16.147,0,0,1-1.251,2.251c-3.751,5.922-7.605,11.788-11.232,17.791a85.559,85.559,0,0,0-4.377,8.788c-1.819,3.968-5.218,5.775-9.493,4.934a20.734,20.734,0,0,1-8.936-4.422c-2.683-2.126-3.092-4.718-1.478-8.174,1.683-3.57,3.513-7.071,5.15-10.664A158.721,158.721,0,0,0,130.7,83.37c1.876-5.9,3.74-11.812,5.07-17.871.216-1.012.421-2.035.671-3.229" transform="translate(1223.069 403.362)" fill="#fe6e12"/>
          <path id="Path_1063" data-name="Path 1063" d="M106.5,56.124c.864.284.955-.307,1.137-.773a19.4,19.4,0,0,1,9.095-10.289,19.742,19.742,0,0,1,22.214,2.513,19.669,19.669,0,0,1,1.682,28.012,18.535,18.535,0,0,1-11.266,6.253,19.742,19.742,0,0,1-23.01-20.35c.068-1.739.091-3.49.148-5.366" transform="translate(1102.574 443.282)" fill="#fe6e12"/>
          <path id="Path_1064" data-name="Path 1064" d="M141.319,67.246a15.575,15.575,0,0,1-7.174-2.035,30.842,30.842,0,0,1-13.051-13.222,12.41,12.41,0,0,1-1.433-5.241,7.879,7.879,0,0,1,3.809-7.037,21.593,21.593,0,0,1,8.811-3.138,39.322,39.322,0,0,1,10.834-.512,15.648,15.648,0,0,1,.807,30.957,22.251,22.251,0,0,1-2.6.227" transform="translate(1240.698 370.794)" fill="#fe6e12"/>
          <path id="Path_1065" data-name="Path 1065" d="M42.323.921A.115.115,0,0,0,42.21.8l-.8-.8.909.694h.114l.114.1c0,.125.114.227.227.352-.227-.125-.341-.227-.455-.227M50.85,499.413c8.412,1.705,16.826,3.183,25.238,5a39.6,39.6,0,0,0,37.63-9.891,144.893,144.893,0,0,0,22.169-27.74,225.6,225.6,0,0,0,28.99-85.72,73.417,73.417,0,0,0-.341-32.98c-8.412-25.466-24.556-40.233-50.59-25.8-4.206,2.274-6.366-.114-9.209-2.274-15.461-11.824-26.6-10.7-38.994,4.547a126.086,126.086,0,0,0-12.961,18.86,315.732,315.732,0,0,0-32.969,93.235,57.721,57.721,0,0,0,2.274,34.22c2.728,5.457,5.684,10.8,8.868,15.916Zm66.507-103.568a170.6,170.6,0,0,1-26.489,60.481,49.841,49.841,0,0,1-13.756,12.505c-6.935,4.422-11.369,2.387-11.71-5.912a101.772,101.772,0,0,1,1.819-31.036c5.23-19.213,12.505-37.744,19.44-56.4a14.075,14.075,0,0,1,7.617-6.355c9.209-4.093,18.645-7.617,30.013-12.051-2.387,13.983-3.865,26.6-6.935,38.767" transform="translate(183.031 23.382)" fill="#fe6e12"/>
        </g>
      </g>
    </g>
  </g>
</svg>
