<svg id="Layer_1" data-name="Layer 1" xmlns="http://www.w3.org/2000/svg" viewBox="0 0 351.33 512"><defs><style>.cls-1{fill:#ee7b3c;}</style></defs><path id="Path_9" data-name="Path 9" class="cls-1" d="M351.33,239.93a15,15,0,0,0-30,0c0,80.32-65.34,145.67-145.66,145.67S30,320.25,30,239.93a15,15,0,0,0-30,0c0,91.81,70.8,167.39,160.67,175V497a15,15,0,0,0,30,0V415C280.53,407.32,351.33,331.74,351.33,239.93Z"/><path id="Path_10" data-name="Path 10" class="cls-1" d="M336.33,224.93a15,15,0,0,0-15,15c0,80.32-65.34,145.67-145.66,145.67h0V512h0a15,15,0,0,0,15-15V415c89.86-7.63,160.66-83.21,160.66-175A15,15,0,0,0,336.33,224.93Z"/><g id="Group_3" data-name="Group 3"><path id="Path_11" data-name="Path 11" class="cls-1" d="M175.67,0A79.36,79.36,0,0,0,96.4,79.27V239.93a79.27,79.27,0,1,0,158.53,0V79.27A79.36,79.36,0,0,0,175.67,0Z"/><path id="Path_12" data-name="Path 12" class="cls-1" d="M223.87,512h-96.4a15,15,0,0,1,0-30h96.4a15,15,0,0,1,0,30Z"/></g><g id="Group_4" data-name="Group 4"><path id="Path_13" data-name="Path 13" class="cls-1" d="M254.93,239.93V79.27A79.36,79.36,0,0,0,175.67,0h0V319.2h0A79.36,79.36,0,0,0,254.93,239.93Z"/><path id="Path_14" data-name="Path 14" class="cls-1" d="M223.87,512a15,15,0,0,0,0-30h-48.2v30Z"/></g></svg>