<?xml version="1.0" encoding="utf-8"?>
<!-- Generator: Adobe Illustrator 19.2.1, SVG Export Plug-In . SVG Version: 6.00 Build 0)  -->
<svg version="1.1" id="Layer_1" xmlns="http://www.w3.org/2000/svg" xmlns:xlink="http://www.w3.org/1999/xlink" x="0px" y="0px"
	 viewBox="0 0 960 560" style="enable-background:new 0 0 960 560;" xml:space="preserve">
<style type="text/css">

	.st3{fill: black;}
	.st5{fill:#e1edf9;}
	.st6{fill:#66AAD7;}

	#microphone {
		transform: scale(0.7);
	}
	
	#microphone{transform-origin: 50% 50%;}

	#button {
		cursor: pointer;
	}

</style>
<g id="button">
	<g id="Mic">
		<path id="base" class="st3" d="M608.9,280c0,56.8-36.8,105.1-87.9,122.3c-12.9,4.3-26.7,6.7-41.1,6.7
			c-71.2,0-128.9-57.7-128.9-128.9S408.8,151.1,480,151.1c47.7,0,89.3,25.9,111.6,64.4C602.6,234.4,608.9,256.5,608.9,280z"/>
		<g id="microphone">
			<path id="stand" class="st5" d="M480,387.3c-40.3,0-73-32.8-73-73c0-1.9,1.6-3.5,3.5-3.5s3.5,1.6,3.5,3.5c0,36.4,29.6,66,66,66
			s66-29.6,66-66c0-1.9,1.6-3.5,3.5-3.5s3.5,1.6,3.5,3.5C553,354.5,520.3,387.3,480,387.3z"/>
		<g id="head">
			<path class="st5" d="M522.7,214.2c-1.2-9.8-5.4-18.5-12-25.2c-3.4-3.4-7.3-6.3-11.7-8.4c-2.4-1.2-4.9-2.1-7.6-2.8
				c-3.3-0.9-6.7-1.5-10.2-1.6c-0.3,0-0.6-0.1-0.9-0.1H480c-23.9,0-43,19.8-43,43.7v90.8c0,24,19,43.5,43,43.5s43-19.5,43-43.5v-90.8
				C523,217.8,522.9,216,522.7,214.2z M516,310.5c0,20.1-15.9,36.5-36,36.5s-36-16.4-36-36.5v-90.8c0-20,16-36.7,36-36.7h0.2
				c9.7,0,18.6,3.9,25.4,10.8c6.9,6.9,10.3,16.2,10.3,25.9V310.5z"/>
		</g>
		</g>
	</g>
</g>
</svg>
