<?xml version="1.0" standalone="no"?>
<!DOCTYPE svg PUBLIC "-//W3C//DTD SVG 20010904//EN"
 "http://www.w3.org/TR/2001/REC-SVG-20010904/DTD/svg10.dtd">
<svg version="1.0" xmlns="http://www.w3.org/2000/svg"
 width="461.000000pt" height="461.000000pt" viewBox="0 0 461.000000 461.000000"
 preserveAspectRatio="xMidYMid meet">
<metadata>
Created by potrace 1.14, written by Peter Selinger 2001-2017
</metadata>
<g transform="translate(0.000000,461.000000) scale(0.100000,-0.100000)"
fill="#000000" stroke="none">
<path d="M0 2305 l0 -2305 2305 0 2305 0 0 2305 0 2305 -2305 0 -2305 0 0
-2305z m944 1561 c23 -19 26 -27 18 -43 -6 -11 -18 -25 -26 -32 -13 -11 -11
-16 15 -38 l30 -26 28 27 c15 14 30 26 33 26 11 0 213 -172 216 -184 1 -6 -16
-33 -38 -60 -22 -26 -40 -50 -40 -51 0 -2 39 -36 86 -74 74 -62 89 -70 112
-64 39 10 77 6 113 -12 38 -20 73 -93 64 -133 -5 -23 1 -33 39 -65 50 -42 58
-44 77 -21 11 14 8 21 -24 51 -39 35 -39 41 -4 80 l20 22 73 -61 c41 -33 74
-63 74 -66 0 -3 -20 -28 -45 -57 l-44 -52 64 -53 c36 -28 68 -56 71 -61 3 -5
-15 -33 -40 -62 l-45 -52 87 -73 c120 -99 142 -120 142 -130 0 -5 -11 -19 -25
-32 -22 -21 -26 -22 -47 -8 -37 25 -273 220 -276 229 -2 5 16 31 39 59 37 44
41 53 28 64 -8 8 -61 53 -119 100 -94 77 -108 86 -135 80 -34 -7 -30 -7 -69
-5 -19 1 -41 14 -67 40 -35 35 -39 44 -40 92 l0 54 -119 95 c-66 52 -120 97
-120 100 0 3 20 30 45 60 l46 55 -43 38 -43 37 -27 -30 c-15 -16 -30 -30 -33
-30 -8 0 -189 151 -193 161 -4 11 90 129 103 129 6 -1 23 -11 39 -24z m152
-582 c57 -47 104 -90 104 -96 0 -5 -11 -23 -25 -40 -14 -16 -25 -33 -25 -36 1
-7 256 -220 302 -251 18 -13 22 -13 38 9 18 24 18 24 -21 54 -21 17 -39 35
-39 41 1 20 50 66 63 59 6 -4 42 -32 79 -62 l68 -54 -33 -40 c-74 -92 -86 -66
96 -218 261 -218 367 -310 367 -318 -1 -4 -11 -20 -24 -35 l-23 -29 -99 80
c-54 43 -265 217 -469 386 l-370 306 -31 -37 c-22 -26 -35 -34 -45 -28 -30 18
-209 170 -209 177 0 12 173 218 183 218 5 0 55 -39 113 -86z m42 -474 l91 -75
-26 -34 -27 -34 40 -34 39 -33 45 50 c25 28 49 50 53 50 4 0 143 -113 308
-251 l299 -250 -22 -29 c-13 -16 -27 -29 -32 -29 -13 -1 -48 27 -312 245
l-232 192 -42 -49 c-23 -27 -44 -49 -48 -49 -9 0 -216 169 -220 179 -1 4 7 16
18 26 26 24 25 37 -5 65 l-25 24 -28 -33 -27 -32 -35 29 -34 29 53 67 c35 44
57 64 66 59 7 -5 53 -42 103 -83z m242 -1600 l0 -40 -45 0 -45 0 0 40 0 40 45
0 45 0 0 -40z m590 0 l0 -40 -45 0 -45 0 0 40 0 40 45 0 45 0 0 -40z m332 29
c21 -5 50 -20 64 -32 l25 -22 -29 -28 c-28 -27 -29 -27 -65 -12 -77 32 -147 8
-147 -50 0 -32 30 -51 104 -64 111 -20 146 -56 146 -153 0 -46 -5 -62 -26 -88
-40 -47 -80 -64 -154 -64 -70 0 -121 13 -160 44 l-25 19 31 32 31 31 34 -18
c47 -25 131 -25 158 0 50 45 14 99 -73 110 -94 11 -141 44 -156 113 -30 130
95 223 242 182z m1686 -31 l3 -38 -50 0 -51 0 0 33 c0 44 6 49 55 45 38 -3 40
-4 43 -40z m-2862 5 c57 -40 69 -82 69 -228 0 -119 -2 -133 -24 -172 -38 -67
-82 -83 -224 -83 l-117 0 0 256 0 256 133 -4 c118 -3 135 -5 163 -25z m2464
-53 l0 -81 32 17 c42 22 103 13 135 -19 33 -33 42 -81 43 -224 l0 -123 -50 0
-50 0 0 133 c0 146 -4 157 -55 157 -51 0 -55 -11 -55 -157 l0 -133 -50 0 -50
0 0 255 0 255 50 0 50 0 0 -80z m-242 -12 c3 -57 4 -58 32 -58 28 0 30 -3 30
-35 0 -32 -2 -35 -30 -35 l-31 0 3 -102 3 -103 28 -3 c24 -3 27 -7 27 -43 l0
-39 -45 0 c-35 0 -52 6 -77 29 l-33 29 -3 115 c-4 103 -6 116 -23 120 -28 7
-27 67 1 67 18 0 20 7 20 53 0 30 3 57 7 61 4 4 25 6 48 4 l40 -3 3 -57z
m-1968 -228 l0 -190 -45 0 -45 0 0 190 0 190 45 0 45 0 0 -190z m270 175 c32
-19 40 -18 40 1 0 12 9 14 43 12 l42 -3 0 -205 c0 -223 -6 -251 -61 -286 -54
-36 -155 -36 -210 1 l-27 17 31 31 c26 25 33 28 46 18 9 -7 31 -13 50 -14 46
-1 76 26 76 68 l0 32 -45 -15 c-39 -12 -51 -13 -82 -1 -64 25 -78 55 -78 174
0 89 3 107 21 132 38 52 102 67 154 38z m320 -175 l0 -190 -45 0 -45 0 0 190
0 190 45 0 45 0 0 -190z m746 165 c44 -28 54 -71 54 -220 l0 -135 -45 0 c-34
0 -45 4 -45 15 0 13 -3 13 -26 -1 -36 -24 -108 -22 -142 3 -61 45 -60 146 1
183 23 15 50 20 101 20 l68 0 -6 28 c-13 51 -60 66 -115 37 -27 -13 -30 -13
-55 14 -25 26 -26 28 -9 44 10 9 30 21 43 26 36 15 145 7 176 -14z m353 12
c66 -23 75 -50 80 -218 l3 -149 -45 0 c-25 0 -47 4 -49 10 -2 6 -20 3 -46 -5
-100 -35 -189 36 -167 134 12 53 47 75 131 79 70 4 74 6 74 27 0 50 -69 73
-116 40 -19 -13 -23 -12 -50 16 l-29 30 25 19 c40 31 128 38 189 17z m919
-179 l2 -188 -50 0 -50 0 0 183 c0 101 3 187 7 191 4 4 25 6 48 4 l40 -3 3
-187z"/>
<path d="M1392 3248 c-29 -29 -3 -72 40 -66 19 2 23 9 23 38 0 30 -4 35 -25
38 -14 2 -31 -3 -38 -10z"/>
<path d="M961 3210 c-17 -21 -31 -42 -31 -47 0 -10 66 -63 78 -63 5 0 23 18
40 39 l31 39 -43 36 -43 35 -32 -39z"/>
<path d="M930 985 l0 -165 58 0 c50 0 62 4 83 26 21 22 24 37 28 110 6 161
-12 194 -109 194 l-60 0 0 -165z"/>
<path d="M1583 1008 c-30 -38 -21 -159 13 -172 55 -21 84 10 84 88 0 75 -12
96 -54 96 -19 0 -38 -6 -43 -12z"/>
<path d="M2566 875 c-9 -9 -16 -23 -16 -30 0 -22 30 -45 59 -45 38 0 61 20 64
55 2 29 0 30 -44 33 -33 2 -51 -2 -63 -13z"/>
<path d="M2948 879 c-25 -14 -23 -56 3 -70 27 -14 85 -3 93 17 3 9 6 27 6 40
0 22 -4 24 -42 24 -24 0 -51 -5 -60 -11z"/>
</g>
</svg>
