<svg id="g10" xmlns="http://www.w3.org/2000/svg" width="476.352" height="194.662" viewBox="0 0 476.352 194.662">
  <g id="g12">
    <path id="path14" d="M1133.331,0" transform="translate(-656.978 194.662)" fill="#fff"/>
    <path id="path16" d="M140.954-210.613c-.614.22-1.23.412-2.826-.613a2.788,2.788,0,0,1-.309-4.211,2.5,2.5,0,0,1,2.276-.94,3.819,3.819,0,0,1,1.993.773,2.876,2.876,0,0,1,.872,2.8A3.186,3.186,0,0,1,140.954-210.613Zm7.934-1.221c-.831-.643-1.455-.674-2.142-1.171-.061-.816-.269-2.214-.362-3.034.778-.7,1.184-.866,1.86-1.453a.635.635,0,0,0-.138-.328c-.167-.26-.334-.52-.509-.775a15.39,15.39,0,0,0-2.22-2.572c-.767.7-1.4,1.393-2.036,2.081a10.843,10.843,0,0,0-2.929-.684,22.1,22.1,0,0,0-.506-2.786,12.656,12.656,0,0,0-3.892,1.187,14.028,14.028,0,0,0,.734,2.2,21.769,21.769,0,0,0-2.178,2.167c-.906-.5-1.655-.742-2.5-1.223a8.091,8.091,0,0,0-1.539,4.428c.968.124,1.535.084,2.422.148a11.175,11.175,0,0,0,.853,3c-.72.674-1.122,1.272-1.751,1.787a7.332,7.332,0,0,0,2.359,2.985c.631-.669,1.033-1.084,1.608-1.666a12.878,12.878,0,0,0,2.827.891,9.717,9.717,0,0,1,.416,2.213,10.792,10.792,0,0,0,4.2-.2A18.092,18.092,0,0,0,143.23-207a9.747,9.747,0,0,0,2.134-2.092,12.935,12.935,0,0,1,2.075.6,8.648,8.648,0,0,0,1.449-3.341" transform="translate(-116.901 314.523)" fill="#ffd42e"/>
    <path id="path18" d="M139.408-216.455a2.242,2.242,0,0,0-1.709.847,2.807,2.807,0,0,0-.706,2.225,2.421,2.421,0,0,0,.939,1.531c1.5.96,2.009.776,2.554.581h0a2.887,2.887,0,0,0,1.807-1.967,2.561,2.561,0,0,0-.772-2.5,3.5,3.5,0,0,0-1.837-.7A1.716,1.716,0,0,0,139.408-216.455Zm1.182,5.477h0Zm-.829.485a4.114,4.114,0,0,1-2.166-.835,3.006,3.006,0,0,1-1.218-1.952,3.4,3.4,0,0,1,.832-2.714,2.8,2.8,0,0,1,2.569-1.055,4.053,4.053,0,0,1,2.148.844,3.2,3.2,0,0,1,.971,3.115,3.477,3.477,0,0,1-2.2,2.406h0A2.692,2.692,0,0,1,139.762-210.492Zm-.579,5.41a10.408,10.408,0,0,0,3.58-.165c-.026-.282-.037-.532-.046-.758a5.822,5.822,0,0,0-.153-1.28.311.311,0,0,1,.122-.33,9.5,9.5,0,0,0,2.062-2.02.309.309,0,0,1,.305-.124,8.679,8.679,0,0,1,1.533.412c.115.04.235.081.366.125a8.272,8.272,0,0,0,1.224-2.844,5.177,5.177,0,0,0-.991-.524,4.824,4.824,0,0,1-.987-.525.311.311,0,0,1-.128-.229c-.039-.518-.14-1.294-.229-1.977-.05-.387-.1-.752-.132-1.045a.312.312,0,0,1,.1-.268,11.008,11.008,0,0,1,1.058-.833c.212-.152.415-.3.648-.488l-.037-.058c-.173-.268-.335-.52-.5-.767a15.089,15.089,0,0,0-1.964-2.322c-.668.631-1.245,1.257-1.806,1.865a.312.312,0,0,1-.341.079,10.488,10.488,0,0,0-2.844-.664.312.312,0,0,1-.282-.274,21.917,21.917,0,0,0-.431-2.47,12.294,12.294,0,0,0-3.3,1,13.77,13.77,0,0,0,.621,1.808l.041.1a.312.312,0,0,1-.079.344l-.3.278a18.148,18.148,0,0,0-1.845,1.857.312.312,0,0,1-.393.076c-.436-.242-.843-.425-1.235-.6-.328-.147-.664-.3-1.014-.483a7.732,7.732,0,0,0-1.322,3.74c.45.047.815.058,1.2.071.286.009.582.019.926.043a.312.312,0,0,1,.287.273,10.778,10.778,0,0,0,.831,2.913.312.312,0,0,1-.073.351c-.317.3-.57.578-.816.85a10.183,10.183,0,0,1-.769.794,7.006,7.006,0,0,0,1.948,2.48c.557-.589.941-.981,1.418-1.465a.311.311,0,0,1,.335-.071l.27.105a11.243,11.243,0,0,0,2.481.766.312.312,0,0,1,.26.215,9.225,9.225,0,0,1,.4,2.034Zm1.285.708a10.194,10.194,0,0,1-1.618-.127.311.311,0,0,1-.26-.274l-.014-.122a9.12,9.12,0,0,0-.333-1.845,12.937,12.937,0,0,1-2.431-.775l-.078-.03c-.463.469-.857.877-1.458,1.514a.312.312,0,0,1-.413.036,7.636,7.636,0,0,1-2.46-3.113.312.312,0,0,1,.089-.363,8.217,8.217,0,0,0,.883-.885c.213-.236.432-.479.7-.738a11.467,11.467,0,0,1-.757-2.626c-.231-.013-.443-.02-.65-.026a14.578,14.578,0,0,1-1.538-.108.312.312,0,0,1-.272-.311,8.321,8.321,0,0,1,1.592-4.6.312.312,0,0,1,.412-.1c.417.236.806.411,1.218.6.337.152.684.308,1.055.5a20.708,20.708,0,0,1,1.742-1.725l.144-.132a13.244,13.244,0,0,1-.669-2.04.31.31,0,0,1,.161-.348,12.94,12.94,0,0,1,3.988-1.219.311.311,0,0,1,.348.233,22.623,22.623,0,0,1,.483,2.577,11.151,11.151,0,0,1,2.563.6c.584-.632,1.193-1.284,1.913-1.945a.312.312,0,0,1,.423,0,15.716,15.716,0,0,1,2.264,2.625c.173.252.338.509.5.766a.928.928,0,0,1,.2.518.309.309,0,0,1-.107.229,10.569,10.569,0,0,1-.852.659,10.739,10.739,0,0,0-.884.684c.031.258.07.559.111.874.082.63.175,1.337.221,1.862a4.788,4.788,0,0,0,.752.378,5.409,5.409,0,0,1,1.282.719.31.31,0,0,1,.114.31,8.908,8.908,0,0,1-1.5,3.46.31.31,0,0,1-.346.114c-.226-.071-.418-.137-.6-.2a8.242,8.242,0,0,0-1.249-.353,10.149,10.149,0,0,1-1.918,1.882,6.973,6.973,0,0,1,.122,1.2c.013.3.026.611.073.988a.312.312,0,0,1-.237.342,11.72,11.72,0,0,1-2.707.327" transform="translate(-116.537 314.888)"/>
    <path id="path20" d="M835.217-421.191a1.938,1.938,0,0,0-1.829,1.544,2.356,2.356,0,0,0,.925,2.361,2.136,2.136,0,0,0,2.4-.013,2.3,2.3,0,0,0,.961-1.878,2.046,2.046,0,0,0-1.092-1.8,3.329,3.329,0,0,0-1.365-.216" transform="translate(-495.413 421.503)" fill="#fff"/>
    <path id="path22" d="M834.827-421.243a1.633,1.633,0,0,0-1.5,1.3,2.058,2.058,0,0,0,.8,2.038,1.829,1.829,0,0,0,2.044-.012,1.987,1.987,0,0,0,.827-1.618,1.727,1.727,0,0,0-.912-1.521,3.086,3.086,0,0,0-1.239-.187h-.021Zm.31,4.265a2.406,2.406,0,0,1-1.363-.414,2.676,2.676,0,0,1-1.053-2.684,2.242,2.242,0,0,1,2.106-1.789h.033a3.648,3.648,0,0,1,1.49.245,2.338,2.338,0,0,1,1.272,2.077,2.59,2.59,0,0,1-1.094,2.138,2.438,2.438,0,0,1-1.391.428" transform="translate(-495.05 421.866)"/>
    <path id="path24" d="M960.562-230.006h-.019a.312.312,0,0,1-.284-.24c-.367-1.576-2.392-3.825-5.856-6.5-1.523-1.178-3.159-2.3-4.6-3.294-.761-.523-1.48-1.017-2.076-1.447a.312.312,0,0,1-.071-.435.312.312,0,0,1,.435-.071c.591.426,1.307.919,2.064,1.439,1.451,1,3.094,2.126,4.632,3.314,3.092,2.391,5.035,4.419,5.794,6.044,1.013-2.355,2.171-3.145,4.124-4.478.646-.441,1.378-.94,2.234-1.581.258-.193.534-.391.826-.6,4.133-2.952,11.042-7.887,11.877-32.7-5.549-1.4-13.218-3.974-18.9-8.369-6.178,4.4-15.091,7.172-18.919,8.225.019.266.042.6.066.978.086,1.3.2,3.078.295,3.519a.312.312,0,0,1-.242.368.313.313,0,0,1-.368-.243c-.1-.482-.214-2.212-.306-3.6-.034-.5-.063-.946-.085-1.227a.311.311,0,0,1,.229-.325c3.681-1,12.918-3.811,19.154-8.332a.312.312,0,0,1,.376.007c5.7,4.48,13.529,7.073,19.1,8.46a.311.311,0,0,1,.236.312c-.354,11.114-1.924,19.315-4.8,25.075a20.733,20.733,0,0,1-7.343,8.367c-.288.205-.561.4-.815.591-.867.648-1.6,1.152-2.255,1.6-2.18,1.488-3.175,2.168-4.2,4.954a.312.312,0,0,1-.293.2" transform="translate(-553.49 345.262)"/>
    <path id="path26" d="M964.751-230.92h0a.1.1,0,0,1-.084-.05,32.564,32.564,0,0,0-6.627-5.707.1.1,0,0,1-.031-.143.1.1,0,0,1,.143-.031,34.59,34.59,0,0,1,6.609,5.649,34.583,34.583,0,0,1,5.093-4.284c7.969-5.956,9.926-14.522,10.732-28.233-6.94-1.739-12.066-3.973-15.665-6.824-3.671,2.741-10.059,4.618-13.885,5.742-.8.236-1.5.441-2.018.609l.013.113c.054.458.126,1.085.126,1.259a.1.1,0,0,1-.1.1.1.1,0,0,1-.1-.1c0-.163-.075-.808-.125-1.235l-.023-.2a.1.1,0,0,1,.071-.111c.528-.174,1.259-.389,2.105-.637,3.835-1.126,10.252-3.012,13.882-5.757a.1.1,0,0,1,.127,0c3.593,2.868,8.739,5.111,15.733,6.856a.1.1,0,0,1,.078.107c-.806,13.824-2.77,22.457-10.821,28.474a31.143,31.143,0,0,0-5.137,4.357.1.1,0,0,1-.084.044" transform="translate(-557.594 340.495)"/>
    <path id="path28" d="M958.377-229.889a4.185,4.185,0,0,0-5.49,1.958,8.411,8.411,0,0,1-.591,1.32,6.3,6.3,0,0,1-1.726,1.386,6.062,6.062,0,0,0-2.017,2.486,3.552,3.552,0,0,0-.132,2.9,2.991,2.991,0,0,0,3.877,1.175,18.771,18.771,0,0,1,2.3-1.277c1.269-.38,2.588.243,3.791.792s2.625,1.034,3.8.416a2.864,2.864,0,0,0,1.365-2.8,4.528,4.528,0,0,0-1.547-2.82,8.358,8.358,0,0,1-1.055-1,8.323,8.323,0,0,1-.916-2.091,4.56,4.56,0,0,0-1.658-2.451" transform="translate(-557.254 318.684)" fill="#ffd42e"/>
    <path id="path30" d="M956.324-230.332a4,4,0,0,0-1.325.23,3.739,3.739,0,0,0-2.195,1.936c-.063.14-.118.284-.176.437a4.39,4.39,0,0,1-.442.93,4.375,4.375,0,0,1-1.342,1.156c-.156.1-.312.2-.461.309a5.706,5.706,0,0,0-1.912,2.357,3.235,3.235,0,0,0-.137,2.644,2.7,2.7,0,0,0,3.466,1.027,7,7,0,0,0,.915-.543,5.476,5.476,0,0,1,1.427-.75c1.356-.4,2.728.222,3.939.775l.07.032c1.079.493,2.455.987,3.525.424a2.542,2.542,0,0,0,1.2-2.489,4.2,4.2,0,0,0-1.447-2.62c-.1-.09-.2-.177-.3-.264a5.331,5.331,0,0,1-.79-.779,5.356,5.356,0,0,1-.747-1.582c-.067-.194-.136-.4-.211-.585a4.343,4.343,0,0,0-1.51-2.287h0a3.4,3.4,0,0,0-1.546-.358Zm-5.7,11.9a3.122,3.122,0,0,1-2.85-1.635,3.9,3.9,0,0,1,.128-3.164,6.341,6.341,0,0,1,2.121-2.614c.157-.113.322-.218.485-.324a3.864,3.864,0,0,0,1.165-.983,3.893,3.893,0,0,0,.375-.8c.059-.154.12-.314.19-.47a4.362,4.362,0,0,1,2.556-2.268,4.293,4.293,0,0,1,3.36.161,4.773,4.773,0,0,1,1.806,2.612c.081.2.152.411.221.612a4.823,4.823,0,0,0,.652,1.4,4.778,4.778,0,0,0,.7.685c.107.092.214.183.318.277a4.819,4.819,0,0,1,1.647,3.02,3.175,3.175,0,0,1-1.531,3.1c-1.308.69-2.864.144-4.073-.409l-.07-.032c-1.165-.532-2.371-1.082-3.5-.744a4.93,4.93,0,0,0-1.262.672,7.542,7.542,0,0,1-1,.588,3.433,3.433,0,0,1-1.439.311" transform="translate(-556.887 319.047)"/>
    <path id="path32" d="M942.05-236.116a3.954,3.954,0,0,0-.692,3.944,2.372,2.372,0,0,0,2.235,1.662,2.14,2.14,0,0,0,1.74-1.826,4.034,4.034,0,0,0-.6-2.593c-.482-.853-1.776-2.228-2.685-1.187" transform="translate(-553.453 322.028)" fill="#ffd42e"/>
    <path id="path34" d="M941.688-236.479h0Zm.749-.062a.667.667,0,0,0-.515.267h0a3.639,3.639,0,0,0-.636,3.626,2.083,2.083,0,0,0,1.913,1.465,1.827,1.827,0,0,0,1.464-1.567,3.67,3.67,0,0,0-.562-2.388c-.36-.636-1.04-1.342-1.595-1.4a.667.667,0,0,0-.069,0Zm.624,5.988a2.746,2.746,0,0,1-2.356-1.869,4.277,4.277,0,0,1,.748-4.261h0a1.279,1.279,0,0,1,1.117-.474c.928.095,1.762,1.162,2.074,1.712a4.269,4.269,0,0,1,.634,2.8,2.443,2.443,0,0,1-2.017,2.084,1.986,1.986,0,0,1-.2.01" transform="translate(-553.09 322.391)"/>
    <path id="path36" d="M982.006-238.027a3.939,3.939,0,0,0-2.451,3.159,2.4,2.4,0,0,0,1.191,2.53,2.117,2.117,0,0,0,2.385-.789,4.055,4.055,0,0,0,.684-2.576c-.026-.983-.523-2.813-1.809-2.323" transform="translate(-574.149 322.9)" fill="#ffd42e"/>
    <path id="path38" d="M981.754-238.1a3.623,3.623,0,0,0-2.252,2.9,2.1,2.1,0,0,0,1,2.206,1.818,1.818,0,0,0,2.017-.69,3.692,3.692,0,0,0,.621-2.38,2.774,2.774,0,0,0-.755-2A.646.646,0,0,0,981.754-238.1Zm-.73,5.836a1.96,1.96,0,0,1-.76-.151,2.7,2.7,0,0,1-1.381-2.853,4.261,4.261,0,0,1,2.649-3.415h0a1.268,1.268,0,0,1,1.2.107,3.393,3.393,0,0,1,1.031,2.5,4.286,4.286,0,0,1-.747,2.774,2.614,2.614,0,0,1-1.993,1.039" transform="translate(-573.786 323.263)"/>
    <path id="path40" d="M954.795-250.049a3.955,3.955,0,0,0-.692,3.944,2.372,2.372,0,0,0,2.234,1.662,2.141,2.141,0,0,0,1.74-1.826,4.034,4.034,0,0,0-.6-2.593c-.482-.853-1.776-2.228-2.685-1.187" transform="translate(-560.317 329.532)" fill="#ffd42e"/>
    <path id="path42" d="M954.433-250.412h0Zm.75-.062a.666.666,0,0,0-.515.267h0a3.639,3.639,0,0,0-.637,3.626,2.087,2.087,0,0,0,1.914,1.465,1.827,1.827,0,0,0,1.464-1.568,3.668,3.668,0,0,0-.561-2.388c-.359-.636-1.041-1.342-1.595-1.4A.676.676,0,0,0,955.182-250.475Zm.624,5.988a2.746,2.746,0,0,1-2.356-1.87,4.275,4.275,0,0,1,.747-4.261h0a1.276,1.276,0,0,1,1.117-.474c.928.095,1.763,1.162,2.074,1.712a4.261,4.261,0,0,1,.634,2.8,2.442,2.442,0,0,1-2.016,2.085c-.068.007-.134.01-.2.01" transform="translate(-559.955 329.895)"/>
    <path id="path44" d="M972.6-250.194a3.94,3.94,0,0,1,.719,3.933,2.4,2.4,0,0,1-2.223,1.7,2.118,2.118,0,0,1-1.753-1.8,4.058,4.058,0,0,1,.58-2.6c.476-.859,1.761-2.255,2.677-1.228" transform="translate(-568.636 329.604)" fill="#ffd42e"/>
    <path id="path46" d="M971.495-250.608a.631.631,0,0,0-.075,0c-.556.062-1.234.781-1.591,1.426a3.691,3.691,0,0,0-.546,2.4,1.816,1.816,0,0,0,1.472,1.542,2.107,2.107,0,0,0,1.9-1.5,3.621,3.621,0,0,0-.66-3.614h0a.661.661,0,0,0-.506-.258Zm-.623,6c-.055,0-.112,0-.169-.007a2.419,2.419,0,0,1-2.033-2.056,4.289,4.289,0,0,1,.615-2.806c.308-.557,1.138-1.639,2.067-1.743a1.267,1.267,0,0,1,1.115.458h0a4.258,4.258,0,0,1,.777,4.25,2.76,2.76,0,0,1-2.371,1.9" transform="translate(-568.271 329.968)"/>
    <path id="path48" d="M951.781-209.645a.1.1,0,0,1-.073-.031,2.178,2.178,0,0,1-.564-2.012.1.1,0,0,1,.125-.076.1.1,0,0,1,.076.125,1.968,1.968,0,0,0,.509,1.817.1.1,0,0,1,0,.146.105.105,0,0,1-.074.031" transform="translate(-558.828 308.713)"/>
    <path id="path50" d="M742.443-405.89a5.085,5.085,0,0,1,4.969,4.86" transform="translate(-446.459 413.261)" fill="#fff"/>
    <path id="path52" d="M495.6-401.393h0Zm-4.969-4.549-210.9.124a4.153,4.153,0,0,0-3.9,3.869l-.323,96.941c0,1.561,1.361,4.625,4.507,4.625H491.367a3.969,3.969,0,0,0,3.9-3.618l.021-97.391A4.792,4.792,0,0,0,490.634-405.942Zm.733,106.182H280.019a5.352,5.352,0,0,1-5.129-5.25l.322-96.941a4.818,4.818,0,0,1,4.526-4.491l210.9-.124a5.371,5.371,0,0,1,5.28,5.172h0L495.893-304a4.562,4.562,0,0,1-4.526,4.241" transform="translate(-194.649 413.626)"/>
    <path id="path54" d="M276.688-386.392a.311.311,0,0,1-.311-.311.311.311,0,0,1,.311-.312l219.45-.258h0a.312.312,0,0,1,.312.311.312.312,0,0,1-.311.312l-219.45.258h0" transform="translate(-195.45 403.236)"/>
    <path id="path56" d="M735.062-397.035a.818.818,0,0,0-.815.368.735.735,0,0,0-.036.723.775.775,0,0,0,.653.4.761.761,0,0,0,.768-.7.841.841,0,0,0-.57-.79" transform="translate(-441.983 408.499)"/>
    <path id="path58" d="M719.678-397.035a.818.818,0,0,0-.815.368.734.734,0,0,0-.036.723.776.776,0,0,0,.653.4.762.762,0,0,0,.768-.7.842.842,0,0,0-.57-.79" transform="translate(-433.697 408.499)"/>
    <path id="path60" d="M703.3-397.035a.818.818,0,0,0-.815.368.735.735,0,0,0-.036.723.775.775,0,0,0,.653.4.762.762,0,0,0,.768-.7.842.842,0,0,0-.57-.79" transform="translate(-424.878 408.499)"/>
    <path id="path62" d="M521.806-223.276h0l-18.786-.124a.1.1,0,0,1-.1-.1.1.1,0,0,1,.1-.1h0l18.786.124a.1.1,0,0,1,.1.1.1.1,0,0,1-.1.1" transform="translate(-317.457 315.09)"/>
    <path id="path64" d="M522.113-215.174h0L507-215.3a.1.1,0,0,1-.1-.105.1.1,0,0,1,.1-.1h0l15.113.123a.1.1,0,0,1,.1.1.1.1,0,0,1-.1.1" transform="translate(-319.6 310.726)"/>
    <path id="path66" d="M521.806-207.072h0l-18.786-.123a.1.1,0,0,1-.1-.1.1.1,0,0,1,.1-.1h0l18.786.124a.1.1,0,0,1,.1.1.1.1,0,0,1-.1.1" transform="translate(-317.457 306.363)"/>
    <path id="path68" d="M377.543-223.276h0l-18.786-.124a.1.1,0,0,1-.1-.1.1.1,0,0,1,.1-.1h0l18.786.124a.1.1,0,0,1,.1.1.1.1,0,0,1-.1.1" transform="translate(-239.762 315.09)"/>
    <path id="path70" d="M377.851-215.174h0l-15.113-.123a.1.1,0,0,1-.1-.105.111.111,0,0,1,.1-.1l15.113.123a.1.1,0,0,1,.1.1.1.1,0,0,1-.1.1" transform="translate(-241.905 310.726)"/>
    <path id="path72" d="M377.543-207.072h0l-18.786-.123a.1.1,0,0,1-.1-.1.1.1,0,0,1,.1-.1h0l18.786.124a.1.1,0,0,1,.1.1.1.1,0,0,1-.1.1" transform="translate(-239.762 306.363)"/>
    <path id="path74" d="M666.069-223.276h0l-18.786-.124a.1.1,0,0,1-.1-.1.1.1,0,0,1,.1-.1h0l18.786.124a.1.1,0,0,1,.1.1.1.1,0,0,1-.1.1" transform="translate(-395.152 315.09)"/>
    <path id="path76" d="M666.376-215.174h0l-15.113-.123a.1.1,0,0,1-.1-.105.1.1,0,0,1,.1-.1h0l15.113.123a.1.1,0,0,1,.1.1.1.1,0,0,1-.1.1" transform="translate(-397.296 310.726)"/>
    <path id="path78" d="M666.069-207.072h0l-18.786-.123a.1.1,0,0,1-.1-.1.1.1,0,0,1,.1-.1h0l18.786.124a.1.1,0,0,1,.1.1.1.1,0,0,1-.1.1" transform="translate(-395.152 306.363)"/>
    <path id="path80" d="M499.268-304.906h-.019a.312.312,0,0,1-.284-.24c-.367-1.576-2.392-3.826-5.856-6.5-1.521-1.177-3.156-2.3-4.6-3.291-.762-.524-1.482-1.019-2.08-1.45a.311.311,0,0,1-.07-.435.312.312,0,0,1,.435-.07c.592.427,1.309.92,2.068,1.441,1.449,1,3.092,2.124,4.627,3.312,3.092,2.391,5.035,4.419,5.794,6.044,1.013-2.355,2.171-3.145,4.124-4.478.646-.441,1.378-.941,2.234-1.581.258-.193.535-.391.826-.6,4.133-2.953,11.041-7.887,11.877-32.7-5.549-1.4-13.218-3.974-18.9-8.369-6.178,4.4-15.091,7.172-18.919,8.225.02.268.043.609.067.985.086,1.3.2,3.071.294,3.511a.312.312,0,0,1-.242.368.312.312,0,0,1-.368-.243c-.1-.481-.214-2.207-.306-3.595-.033-.508-.063-.951-.085-1.235a.311.311,0,0,1,.229-.325c3.682-1,12.918-3.81,19.155-8.332a.313.313,0,0,1,.375.007c5.7,4.481,13.529,7.073,19.1,8.46a.311.311,0,0,1,.236.313c-.354,11.113-1.924,19.315-4.8,25.075a20.723,20.723,0,0,1-7.342,8.367c-.288.206-.56.4-.815.591-.868.649-1.605,1.152-2.256,1.6-2.18,1.488-3.175,2.167-4.2,4.954a.312.312,0,0,1-.293.2" transform="translate(-305.052 385.601)"/>
    <path id="path82" d="M503.458-305.819h0a.1.1,0,0,1-.084-.05,32.548,32.548,0,0,0-6.627-5.707.1.1,0,0,1-.031-.143.1.1,0,0,1,.143-.031,34.592,34.592,0,0,1,6.609,5.649,34.583,34.583,0,0,1,5.093-4.284c7.969-5.956,9.926-14.521,10.732-28.234-6.94-1.739-12.066-3.972-15.665-6.824-3.671,2.741-10.06,4.618-13.886,5.742-.8.236-1.5.44-2.017.609l.013.112c.054.458.126,1.085.126,1.261a.1.1,0,0,1-.1.1.1.1,0,0,1-.1-.1c0-.163-.075-.809-.125-1.237l-.023-.2a.1.1,0,0,1,.071-.11c.528-.174,1.258-.388,2.1-.637,3.835-1.126,10.254-3.012,13.884-5.757a.1.1,0,0,1,.127,0c3.593,2.868,8.739,5.11,15.733,6.855a.1.1,0,0,1,.078.107c-.806,13.826-2.77,22.458-10.821,28.474a31.2,31.2,0,0,0-5.137,4.357.1.1,0,0,1-.084.044" transform="translate(-309.156 380.834)"/>
    <path id="path84" d="M512.108-321.749c-2.142,0-3.506,1.117-3.773,2.73a3.536,3.536,0,0,0,2.067,3.749c2.454,1.087,5.246-.584,5.246-2.961a3.332,3.332,0,0,0-3.54-3.519" transform="translate(-320.352 367.946)" fill="#fff"/>
    <path id="path86" d="M511.744-321.8c-1.913,0-3.209.924-3.466,2.47a3.224,3.224,0,0,0,1.886,3.413,3.59,3.59,0,0,0,3.423-.265,2.873,2.873,0,0,0,1.386-2.411A3.024,3.024,0,0,0,511.744-321.8Zm-.106,6.821a4.264,4.264,0,0,1-1.726-.367,3.855,3.855,0,0,1-2.249-4.085c.306-1.845,1.87-2.991,4.081-2.991a3.642,3.642,0,0,1,3.851,3.831,3.484,3.484,0,0,1-1.669,2.933,4.186,4.186,0,0,1-2.289.68" transform="translate(-319.988 368.31)"/>
    <path id="path88" d="M503.467-294.068a61.033,61.033,0,0,1,.414-6.629c.509-2.634,1.99-4.971,3.943-5.878a4.526,4.526,0,0,1,5.689,1.809,13.073,13.073,0,0,1,1.627,6.3c.092,1.461.114,2.928.136,4.394H503.467" transform="translate(-317.754 359.987)"/>
    <path id="path90" d="M471.554-318.385c-2.036,0-3.331,1.028-3.586,2.512a3.234,3.234,0,0,0,1.965,3.448c2.331,1,4.985-.536,4.985-2.723a3.121,3.121,0,0,0-3.363-3.237" transform="translate(-298.613 366.134)" fill="#fff"/>
    <path id="path92" d="M471.19-318.437c-1.784,0-3.04.864-3.278,2.254a2.923,2.923,0,0,0,1.779,3.109,3.532,3.532,0,0,0,3.3-.279,2.6,2.6,0,0,0,1.249-2.158,2.816,2.816,0,0,0-3.052-2.926Zm-.1,6.275a4.175,4.175,0,0,1-1.646-.34,3.552,3.552,0,0,1-2.148-3.788c.293-1.709,1.785-2.771,3.893-2.771a3.43,3.43,0,0,1,3.675,3.549,3.207,3.207,0,0,1-1.53,2.677,4.068,4.068,0,0,1-2.244.672" transform="translate(-298.249 366.498)"/>
    <path id="path94" d="M463.344-293.244a51.437,51.437,0,0,1,.393-5.932,7.264,7.264,0,0,1,3.746-5.26,4.445,4.445,0,0,1,5.405,1.619,11.165,11.165,0,0,1,1.546,5.642c.087,1.307.108,2.62.129,3.932h-11.22" transform="translate(-296.145 358.813)" fill="#fff"/>
    <path id="path96" d="M463.316-293.925h10.567c-.019-1.187-.044-2.406-.123-3.6a10.986,10.986,0,0,0-1.49-5.483,4.123,4.123,0,0,0-5.026-1.513,7,7,0,0,0-3.566,5.037,20.336,20.336,0,0,0-.292,3.631C463.373-295.219,463.36-294.569,463.316-293.925Zm10.884.623H462.98a.312.312,0,0,1-.23-.1.313.313,0,0,1-.081-.237c.063-.733.079-1.491.094-2.224a20.726,20.726,0,0,1,.3-3.744,7.524,7.524,0,0,1,3.927-5.482,4.739,4.739,0,0,1,5.784,1.724,11.524,11.524,0,0,1,1.6,5.8c.088,1.315.109,2.653.13,3.947a.313.313,0,0,1-.089.224.312.312,0,0,1-.222.094" transform="translate(-295.781 359.182)"/>
    <path id="path98" d="M493.488-308.115a2.675,2.675,0,0,0-2.933,2.139,2.775,2.775,0,0,0,1.606,2.937,2.838,2.838,0,0,0,4.077-2.319,2.6,2.6,0,0,0-2.751-2.757" transform="translate(-310.782 360.603)" fill="#fff"/>
    <path id="path100" d="M493.124-308.167a2.365,2.365,0,0,0-2.625,1.878,2.46,2.46,0,0,0,1.426,2.6,2.7,2.7,0,0,0,2.581-.2,2.188,2.188,0,0,0,1.058-1.839,2.294,2.294,0,0,0-2.439-2.445Zm-.083,5.342a3.36,3.36,0,0,1-1.37-.293,3.092,3.092,0,0,1-1.787-3.271,2.98,2.98,0,0,1,3.24-2.4,2.906,2.906,0,0,1,3.063,3.068,2.836,2.836,0,0,1-1.341,2.361,3.31,3.31,0,0,1-1.8.535" transform="translate(-310.418 360.967)"/>
    <path id="path102" d="M486.427-288.8a27.475,27.475,0,0,1,.333-3.976,5.11,5.11,0,0,1,3.171-3.526,4.365,4.365,0,0,1,4.575,1.085,6.357,6.357,0,0,1,1.309,3.782c.074.876.092,1.757.11,2.636h-9.5" transform="translate(-308.576 354.369)" fill="#ffd42e"/>
    <path id="path104" d="M486.4-289.478h8.838c-.016-.759-.038-1.535-.1-2.3a6.115,6.115,0,0,0-1.23-3.6,4.029,4.029,0,0,0-4.24-1,4.767,4.767,0,0,0-2.972,3.31,10.567,10.567,0,0,0-.242,2.4C486.444-290.274,486.434-289.875,486.4-289.478Zm9.156.623h-9.5a.312.312,0,0,1-.232-.1.313.313,0,0,1-.078-.242c.053-.485.066-.991.079-1.479a11.209,11.209,0,0,1,.263-2.542,5.4,5.4,0,0,1,3.37-3.742,4.666,4.666,0,0,1,4.909,1.172,6.673,6.673,0,0,1,1.387,3.963c.075.89.093,1.787.11,2.656a.308.308,0,0,1-.089.224.311.311,0,0,1-.222.094" transform="translate(-308.212 354.735)"/>
    <path id="path106" d="M466.942-285.539a.1.1,0,0,1-.1-.1,17.521,17.521,0,0,1,.046-2.953.1.1,0,0,1,.114-.093.1.1,0,0,1,.093.114,17.3,17.3,0,0,0-.046,2.917.1.1,0,0,1-.1.111h-.007" transform="translate(-298.004 350.137)"/>
    <path id="path108" d="M470.213-283.562a.1.1,0,0,1-.1-.1l-.035-1.24a.1.1,0,0,1,.1-.107.106.106,0,0,1,.107.1l.034,1.24a.1.1,0,0,1-.1.107h0" transform="translate(-299.77 348.159)"/>
    <path id="path110" d="M525.368-285.512a.1.1,0,0,1-.1-.1l-.092-2.6a.1.1,0,0,1,.1-.108.1.1,0,0,1,.108.1l.092,2.6a.1.1,0,0,1-.1.108h0" transform="translate(-329.443 349.944)"/>
    <path id="path112" d="M642.628-304.906h-.013a.311.311,0,0,1-.287-.229c-.8-2.883-2.855-4.382-5.036-5.969-.465-.338-.946-.688-1.419-1.055a24.118,24.118,0,0,0-2.641-1.889.312.312,0,0,1-.123-.423.311.311,0,0,1,.423-.123,24.422,24.422,0,0,1,2.723,1.943c.466.361.943.707,1.4,1.043,2.059,1.5,4.015,2.921,5,5.478,1.01-2.331,2.166-3.121,4.111-4.448.645-.441,1.378-.941,2.234-1.581.258-.193.535-.391.826-.6,4.133-2.953,11.041-7.887,11.876-32.7-5.548-1.4-13.217-3.974-18.9-8.369-6.178,4.4-15.091,7.172-18.919,8.225.019.266.042.6.066.978.086,1.3.2,3.078.295,3.519a.312.312,0,0,1-.242.368.313.313,0,0,1-.368-.243c-.1-.482-.214-2.212-.306-3.6-.034-.5-.063-.946-.085-1.227a.311.311,0,0,1,.229-.326c3.681-1,12.918-3.81,19.154-8.332a.313.313,0,0,1,.375.007c5.7,4.481,13.53,7.073,19.1,8.46a.312.312,0,0,1,.236.313c-.354,11.113-1.924,19.315-4.8,25.075a20.724,20.724,0,0,1-7.343,8.367c-.287.206-.56.4-.815.591-.867.649-1.6,1.152-2.255,1.6-2.18,1.488-3.175,2.168-4.2,4.953a.312.312,0,0,1-.293.2" transform="translate(-382.261 385.601)"/>
    <path id="path114" d="M646.817-305.819a.083.083,0,0,1-.086-.045,20.059,20.059,0,0,0-3.656-3.2.1.1,0,0,1-.028-.144.1.1,0,0,1,.145-.028,21.215,21.215,0,0,1,3.626,3.134,34.4,34.4,0,0,1,5.1-4.289c7.969-5.956,9.926-14.522,10.732-28.234-6.94-1.739-12.066-3.972-15.665-6.824-3.671,2.741-10.06,4.618-13.885,5.742-.8.236-1.5.44-2.017.609l.013.115c.054.456.126,1.083.126,1.258a.1.1,0,0,1-.1.1.1.1,0,0,1-.1-.1c0-.162-.075-.807-.125-1.234l-.023-.2a.1.1,0,0,1,.071-.11c.527-.174,1.258-.389,2.1-.637,3.834-1.126,10.253-3.012,13.883-5.757a.1.1,0,0,1,.127,0c3.593,2.868,8.739,5.11,15.733,6.855a.1.1,0,0,1,.078.107c-.806,13.825-2.77,22.458-10.821,28.474a31.167,31.167,0,0,0-5.137,4.357.105.105,0,0,1-.084.044" transform="translate(-386.365 380.834)"/>
    <path id="path116" d="M623.173-314.707a12.073,12.073,0,0,1,12.19-11.951,12.073,12.073,0,0,1,12.19,11.951,12.073,12.073,0,0,1-12.19,11.951,12.073,12.073,0,0,1-12.19-11.951" transform="translate(-382.224 370.59)" fill="#fff"/>
    <path id="path118" d="M635-326.709A11.774,11.774,0,0,0,623.12-315.07,11.775,11.775,0,0,0,635-303.43a11.775,11.775,0,0,0,11.879-11.64A11.774,11.774,0,0,0,635-326.709Zm0,23.9a12.4,12.4,0,0,1-12.5-12.262A12.4,12.4,0,0,1,635-327.333a12.4,12.4,0,0,1,12.5,12.262A12.4,12.4,0,0,1,635-302.808" transform="translate(-381.859 370.953)"/>
    <path id="path120" d="M640.775-309.324l-.254-4.063,3.554-.159.247,4.156,4.049-.055.211,3.244-4.086.122.217,4.127-3.333.215-.338-4.081-4.385.19-.18-3.427,4.3-.269" transform="translate(-389.389 363.528)" fill="#ffd42e"/>
    <path id="path122" d="M640.678-306.494a.311.311,0,0,1,.31.286l.313,3.775,2.72-.175-.2-3.819a.312.312,0,0,1,.082-.227.311.311,0,0,1,.22-.1l3.765-.113-.172-2.626-3.753.051h0a.311.311,0,0,1-.311-.293l-.228-3.849-2.931.131.234,3.746a.31.31,0,0,1-.077.225.314.314,0,0,1-.214.105l-3.99.249.148,2.811,4.077-.177h.014Zm.337,4.7a.312.312,0,0,1-.311-.286l-.312-3.782-4.086.177a.313.313,0,0,1-.325-.295l-.18-3.428a.312.312,0,0,1,.292-.327l3.987-.249-.235-3.752a.313.313,0,0,1,.079-.228.311.311,0,0,1,.218-.1l3.554-.159a.3.3,0,0,1,.325.293l.229,3.858,3.752-.051a.311.311,0,0,1,.315.291l.212,3.244a.311.311,0,0,1-.081.229.311.311,0,0,1-.221.1l-3.768.113.2,3.808a.311.311,0,0,1-.291.327l-3.332.215h-.02" transform="translate(-389.025 363.892)"/>
    <path id="path124" d="M322.742-288.9l-3.544.006a.666.666,0,0,1-.6-.666l.033-9.8a.784.784,0,0,1,.763-.758l3.475.041a.7.7,0,0,1,.642.666l-.013,9.732a.8.8,0,0,1-.751.782" transform="translate(-218.187 356.298)"/>
    <path id="path126" d="M380.342-288.9l-3.544.006a.666.666,0,0,1-.6-.666l.033-9.8a.784.784,0,0,1,.763-.758l3.475.041a.7.7,0,0,1,.642.666l-.013,9.732a.8.8,0,0,1-.751.782" transform="translate(-249.208 356.298)"/>
    <path id="path128" d="M349.418-311.19c.059-3.02.349-5.857.278-8.876a1.711,1.711,0,0,0-.146-.795,16.573,16.573,0,0,0-3.693-2.1,63.7,63.7,0,0,0-3.206-7.405,2.045,2.045,0,0,0-1.568-.986c-4.973-.033-10.053-.02-15.134,0a2.794,2.794,0,0,0-1.613.339,3.638,3.638,0,0,0-1.048,1.482c-1.027,2.121-2.055,4.241-3.14,6.523l-3,1.531a2.5,2.5,0,0,0-.8.556,3.2,3.2,0,0,0-.532,1.886,52.827,52.827,0,0,0,.1,7.692c-.092,1.529,3.457,1.334,5.2,1.338,9.046.023,17.459.047,26.505.07a2.45,2.45,0,0,0,1.243-.217,1.246,1.246,0,0,0,.558-1.042" transform="translate(-216.636 373.127)" fill="#fff"/>
    <path id="path130" d="M320.683-310.675h.066l26.505.07a2.205,2.205,0,0,0,1.089-.177.942.942,0,0,0,.4-.777c.023-1.192.083-2.369.141-3.508.089-1.737.18-3.534.137-5.356a1.5,1.5,0,0,0-.107-.649,18.847,18.847,0,0,0-3.542-1.962.311.311,0,0,1-.174-.187,63.6,63.6,0,0,0-3.167-7.327,1.743,1.743,0,0,0-1.314-.853c-5.024-.033-10.241-.019-15.131,0a2.561,2.561,0,0,0-1.44.285,3.426,3.426,0,0,0-.943,1.36c-1.01,2.085-2.054,4.241-3.139,6.522a.311.311,0,0,1-.14.143l-3,1.531a2.25,2.25,0,0,0-.709.482,2.969,2.969,0,0,0-.456,1.7,52.308,52.308,0,0,0,.1,7.651.312.312,0,0,1,0,.042.491.491,0,0,0,.142.391c.614.647,2.847.63,4.181.619Zm26.65.693h-.08l-26.505-.07-.561,0c-1.619.013-3.838.03-4.638-.813a1.1,1.1,0,0,1-.313-.835,52.813,52.813,0,0,1-.1-7.715,3.452,3.452,0,0,1,.607-2.07,2.758,2.758,0,0,1,.9-.631l2.909-1.483c1.069-2.247,2.1-4.372,3.1-6.429a3.927,3.927,0,0,1,1.153-1.6,3.068,3.068,0,0,1,1.787-.393c4.892-.02,10.112-.034,15.137,0a2.321,2.321,0,0,1,1.822,1.12,62.777,62.777,0,0,1,3.2,7.351,15.012,15.012,0,0,1,3.714,2.176,2,2,0,0,1,.186.94c.044,1.844-.048,3.653-.137,5.4-.058,1.134-.117,2.306-.141,3.488l-.311-.006.311.006a1.551,1.551,0,0,1-.716,1.307,2.608,2.608,0,0,1-1.317.258" transform="translate(-216.272 373.49)"/>
    <path id="path132" d="M332.087-319.869c.909-1.982,2.079-5.452,2.912-5.853.538-.259,7.622-.148,11.492-.164a2.863,2.863,0,0,1,2.294.687c.294.344,2.524,5.182,2.524,5.182l-19.222.148" transform="translate(-225.454 370.18)" fill="#ffd42e"/>
    <path id="path134" d="M340.069-325.947a46.606,46.606,0,0,0-5.306.146c-.489.236-1.335,2.3-1.953,3.806-.21.512-.412,1-.6,1.448l18.255-.141c-.852-1.838-2.078-4.424-2.276-4.673a2.584,2.584,0,0,0-2.055-.577c-.971,0-2.145,0-3.367,0-.846,0-1.775-.006-2.692-.006Zm-8.346,6.027a.313.313,0,0,1-.262-.142.312.312,0,0,1-.022-.3c.248-.54.513-1.186.794-1.87.968-2.358,1.6-3.814,2.267-4.134.4-.194,2.766-.218,8.263-.2,1.221,0,2.393.009,3.363,0a3.143,3.143,0,0,1,2.532.8c.307.358,2.195,4.44,2.57,5.254a.31.31,0,0,1-.02.3.311.311,0,0,1-.26.145l-19.222.148h0" transform="translate(-225.09 370.542)"/>
    <path id="path136" d="M342-295.638q-2.2,0-4.38-.016a.1.1,0,0,1-.1-.1.1.1,0,0,1,.1-.1h0c4.593.034,9.247.015,13.833-.058h0a.1.1,0,0,1,.1.1.1.1,0,0,1-.1.106c-3.135.05-6.3.074-9.458.074" transform="translate(-228.377 354.036)"/>
    <path id="path138" d="M342-301.269q-2.2,0-4.38-.016a.1.1,0,0,1-.1-.1.1.1,0,0,1,.1-.1h0c4.593.034,9.247.014,13.833-.058a.109.109,0,0,1,.106.1.1.1,0,0,1-.1.106c-3.135.049-6.3.074-9.458.074" transform="translate(-228.377 357.068)"/>
    <path id="path140" d="M379.834-316.574a.311.311,0,0,1-.306-.252.312.312,0,0,1,.246-.365,15.316,15.316,0,0,1,3.6-.267.311.311,0,0,1,.3.325.308.308,0,0,1-.325.3,14.727,14.727,0,0,0-3.458.257.332.332,0,0,1-.06.006" transform="translate(-251.001 365.643)"/>
    <path id="path142" d="M321.336-316.521a.314.314,0,0,1-.117-.023,10.857,10.857,0,0,0-3.714-.351.311.311,0,0,1-.345-.274.312.312,0,0,1,.274-.345,11.307,11.307,0,0,1,4.019.393.312.312,0,0,1,.172.406.312.312,0,0,1-.289.194" transform="translate(-217.414 365.685)"/>
    <path id="path144" d="M361.214-304.906H361.2a.312.312,0,0,1-.288-.215,10.86,10.86,0,0,0-4.141-5.487c-2.457-1.434-8.043-5.293-9.875-7.749a.31.31,0,0,1,.063-.436.311.311,0,0,1,.436.063c1.7,2.278,7.135,6.094,9.7,7.59l.021.013a11.6,11.6,0,0,1,4.109,5.052c1.058-2.377,2.265-3.168,4.308-4.507.672-.441,1.435-.94,2.327-1.581.269-.193.557-.391.861-.6,4.305-2.953,11.5-7.89,12.373-32.7-5.778-1.4-13.767-3.971-19.688-8.365-2.03,1.595-9.056,5.659-10.751,6.616a.312.312,0,0,1-.425-.118.312.312,0,0,1,.118-.425c1.744-.984,9.158-5.272,10.849-6.706a.313.313,0,0,1,.389-.011c5.938,4.483,14.1,7.076,19.9,8.463a.312.312,0,0,1,.239.314c-.369,11.114-2.006,19.318-5,25.079a21.058,21.058,0,0,1-7.648,8.365c-.3.205-.584.4-.849.591-.9.648-1.672,1.152-2.35,1.6-2.273,1.49-3.309,2.169-4.376,4.955a.311.311,0,0,1-.29.2" transform="translate(-233.399 385.601)"/>
    <path id="path146" d="M367.292-306.278h-.006a.1.1,0,0,1-.078-.043,30.353,30.353,0,0,0-3.823-2.818,40.065,40.065,0,0,1-5.188-3.879.1.1,0,0,1,.012-.146.1.1,0,0,1,.146.012,40.372,40.372,0,0,0,5.148,3.843,35.763,35.763,0,0,1,3.794,2.772,16.289,16.289,0,0,1,3.825-2.85c.466-.289.995-.617,1.605-1,8.3-5.244,10.283-13.624,11.176-28.228-7.228-1.738-12.566-3.97-16.316-6.819a23.873,23.873,0,0,1-4.045,2.452c-.359.187-.642.335-.8.429a.1.1,0,0,1-.141-.038.1.1,0,0,1,.038-.142c.165-.1.45-.245.811-.434a22.556,22.556,0,0,0,4.061-2.478.1.1,0,0,1,.135-.008c3.744,2.868,9.106,5.111,16.392,6.856a.1.1,0,0,1,.079.108c-.367,6.053-.954,12.358-2.738,17.46a20.177,20.177,0,0,1-8.54,11.018c-.612.386-1.141.714-1.607,1a15.841,15.841,0,0,0-3.862,2.9.1.1,0,0,1-.076.033" transform="translate(-239.503 380.834)"/>
    <path id="path148" d="M320.842-302.3a.312.312,0,0,1-.311-.3.312.312,0,0,1,.3-.325c1.376-.06,2.768-.1,4.138-.114a.318.318,0,0,1,.315.308.311.311,0,0,1-.308.315c-1.363.015-2.748.053-4.117.113h-.014" transform="translate(-219.23 357.869)"/>
    <path id="path150" d="M375.362-302.425a.311.311,0,0,1-.311-.3.312.312,0,0,1,.3-.325c1.368-.06,2.76-.1,4.138-.114h0a.312.312,0,0,1,.312.308.312.312,0,0,1-.308.315c-1.371.015-2.756.054-4.117.113h-.014" transform="translate(-248.593 357.936)"/>
    <path id="path152" d="M802.789-304.376c-.13,5.672,3.341,11.464,8.7,13.331,2.917,1.017,6.115.873,9.1,1.653s6.035,3.031,6.055,6.12c.013,2.052-1.151,6.706,4.993,9.433,5.068,2.25,3.858,14.419-11.839,19.535-4.809,1.568-1.709-2.376-6.709-3.145a22.639,22.639,0,0,1-12.82-7.205,41.169,41.169,0,0,1-7.693-12.759c-2.162-5.33-3.675-11.217-2.338-16.811s6.268-10.647,12.548-10.151" transform="translate(-471.93 358.608)"/>
    <path id="path154" d="M746.257-332.415c1.653,8.06,3.251,16.734-.05,24.271-1.073,2.449-2.633,4.679-3.514,7.2a22.468,22.468,0,0,0-.794,9.429c.542,5.984,2.339,12.123,6.547,16.413s11.248,6.159,16.44,3.133c4.555-2.655,6.635-8.359,6.348-13.624s-2.533-10.206-4.9-14.915a185.444,185.444,0,0,0-20.074-31.91" transform="translate(-446.083 373.69)"/>
    <path id="path156" d="M766.559-261.677c.148-4.3-.382-6.7-.556-9.915a19.218,19.218,0,0,1,5.521-1.782,3.228,3.228,0,0,1,2.492.327c.415.325,2.38-1.408,2.584-.931,1.4,3.28,1.518,7.955,2.917,11.236.108.252,5.009-.2,5.117.052.455,1.068.073,9.96-.266,10.186-17.933,11.923-26.57-5.129-26.57-5.129a55.039,55.039,0,0,1,8.76-4.043" transform="translate(-454.728 342.263)" fill="#fff"/>
    <path id="path158" d="M766.195-262.04h0Zm-8.342,4.158c.72,1.264,4.2,6.829,10.441,8.47,4.713,1.24,9.92,0,15.474-3.674a48.932,48.932,0,0,0,.254-9.722c-.374-.039-1.476.006-2.3.039-2.564.1-2.73.073-2.853-.214a28.691,28.691,0,0,1-1.478-5.682,29.25,29.25,0,0,0-1.387-5.43,6.355,6.355,0,0,0-.841.443c-.743.435-1.328.778-1.7.487a2.989,2.989,0,0,0-2.251-.265,18.805,18.805,0,0,0-5.248,1.662c.058.99.148,1.892.243,2.845a47.17,47.17,0,0,1,.3,6.893.312.312,0,0,1-.2.281,58.187,58.187,0,0,0-8.45,3.866Zm14.08,9.56a14.873,14.873,0,0,1-3.8-.489c-7.292-1.921-10.938-8.975-10.974-9.045a.313.313,0,0,1,.115-.407,55.744,55.744,0,0,1,8.618-4,46.915,46.915,0,0,0-.3-6.6c-.1-.979-.2-1.993-.257-3.078a.312.312,0,0,1,.172-.3,19.417,19.417,0,0,1,5.61-1.81,3.553,3.553,0,0,1,2.7.364,4.44,4.44,0,0,0,1.034-.508c.687-.4,1.093-.626,1.408-.522a.439.439,0,0,1,.269.247A28.721,28.721,0,0,1,778-268.782a29.234,29.234,0,0,0,1.386,5.429c.36.041,1.474,0,2.307-.038,2.572-.1,2.74-.073,2.863.215.325.762.228,4.435.189,5.542-.161,4.754-.447,4.944-.57,5.025-4.291,2.853-8.393,4.287-12.243,4.287" transform="translate(-454.365 342.626)"/>
    <path id="path160" d="M747.468-337.664c.527,3.978,1.331,8.153.3,12.114-.561,2.16-.509,13.143,8.3,16.271a17.1,17.1,0,0,0,14.733-1.593c3.241-1.966,7.176-8.073,6.393-14.136,2.682.744,5.333-1.064,5.365-3.477a3.318,3.318,0,0,0-3.135-3.053,2.976,2.976,0,0,0-2.358.8,36.776,36.776,0,0,1-.994-9.011c-3.048-3.357-7.935-5.073-12.823-5.805a18.114,18.114,0,0,0-4.915-.186c-4.692.586-11.413,3.988-10.871,8.074" transform="translate(-449.148 380.918)" fill="#fff"/>
    <path id="path162" d="M747.411-338.068c.064.483.132.968.2,1.456.5,3.558,1.015,7.238.095,10.778-.386,1.486-.872,12.712,8.107,15.9A16.687,16.687,0,0,0,770.28-311.5c3.044-1.846,7.021-7.833,6.246-13.829a.313.313,0,0,1,.105-.275.309.309,0,0,1,.287-.065,4.184,4.184,0,0,0,3.613-.65,3.233,3.233,0,0,0,1.356-2.531,2.838,2.838,0,0,0-.943-1.934,2.584,2.584,0,0,0-1.865-.8,2.684,2.684,0,0,0-2.183.739.309.309,0,0,1-.295.046.31.31,0,0,1-.2-.223,37.061,37.061,0,0,1-1-8.962c-3.317-3.581-8.65-5.031-12.556-5.617a18.044,18.044,0,0,0-4.831-.186c-3.2.4-7.673,2.216-9.663,4.794a3.911,3.911,0,0,0-.938,2.93Zm14.008,29.734a17.349,17.349,0,0,1-5.815-1.015c-8.806-3.125-9.188-14-8.5-16.642.888-3.42.381-7.037-.109-10.535-.068-.49-.137-.976-.2-1.461h0a4.507,4.507,0,0,1,1.063-3.393c2.094-2.712,6.756-4.616,10.08-5.031a18.617,18.617,0,0,1,5,.188c4.038.6,9.573,2.121,13.008,5.9a.312.312,0,0,1,.081.214,36.075,36.075,0,0,0,.882,8.471,3.158,3.158,0,0,1,2.142-.579,3.21,3.21,0,0,1,2.328.978,3.474,3.474,0,0,1,1.134,2.391,3.851,3.851,0,0,1-1.605,3.021,4.788,4.788,0,0,1-3.713.853c.58,6.18-3.4,12.065-6.59,14a17.63,17.63,0,0,1-9.183,2.635" transform="translate(-448.783 381.281)"/>
    <path id="path164" d="M782.124-319.855a4.619,4.619,0,0,0-.588.038,4.8,4.8,0,0,0-3.34,2.091,5.96,5.96,0,0,0-.972,4.173c.4,3.1,2.986,5.321,5.761,4.964a4.8,4.8,0,0,0,3.34-2.091,5.961,5.961,0,0,0,.972-4.173h0A5.486,5.486,0,0,0,782.124-319.855Zm.274,11.926a6.108,6.108,0,0,1-5.791-5.545,6.584,6.584,0,0,1,1.077-4.608,5.413,5.413,0,0,1,3.773-2.354c3.12-.4,6.015,2.065,6.459,5.5h0a6.583,6.583,0,0,1-1.078,4.608,5.412,5.412,0,0,1-3.773,2.354,5.2,5.2,0,0,1-.668.043" transform="translate(-464.826 367.262)"/>
    <path id="path166" d="M747.6-318.273a4.634,4.634,0,0,0-.588.038c-2.777.359-4.712,3.168-4.312,6.264a5.4,5.4,0,0,0,5.762,4.963A4.8,4.8,0,0,0,751.8-309.1a5.96,5.96,0,0,0,.972-4.173h0A5.486,5.486,0,0,0,747.6-318.273Zm.274,11.926a6.108,6.108,0,0,1-5.791-5.545c-.444-3.436,1.732-6.559,4.849-6.961s6.016,2.065,6.459,5.5h0a6.583,6.583,0,0,1-1.078,4.607,5.415,5.415,0,0,1-3.771,2.355,5.224,5.224,0,0,1-.668.043" transform="translate(-446.235 366.409)"/>
    <path id="path168" d="M796.41-389.207a10.137,10.137,0,0,0-12.646-6.752,10.137,10.137,0,0,0-6.752,12.646,10.137,10.137,0,0,0,12.646,6.752,10.137,10.137,0,0,0,6.752-12.646" transform="translate(-464.839 408.15)"/>
    <path id="path170" d="M772.71-339.773c-2.578-3.994-4.157-6.869-5.007-11.728-9.508,5.618-18.539,4.653-27.647,4.3a8.824,8.824,0,0,1,.773-4.606,15.848,15.848,0,0,1,9.038-9.157c3.853-1.717,9.039-2.857,13.209-2.254a20.105,20.105,0,0,1,10.612,5.53,17.813,17.813,0,0,1,4.951,9.115c.59,2.969-.137,5.158-1.466,8.181a3.435,3.435,0,0,0-2.317-.644,4.256,4.256,0,0,0-2.146,1.262" transform="translate(-445.143 390.368)"/>
    <path id="path172" d="M778.808-283.421a2.773,2.773,0,0,1-1.8-.623.311.311,0,0,1-.04-.439.312.312,0,0,1,.439-.04,2.525,2.525,0,0,0,2.625.218,4.926,4.926,0,0,0,2.538-2.492.311.311,0,0,1,.414-.15.312.312,0,0,1,.15.414,5.551,5.551,0,0,1-2.862,2.8,3.814,3.814,0,0,1-1.464.308" transform="translate(-465.014 349.218)"/>
    <path id="path174" d="M786.122-307.211a.934.934,0,0,0-1.067-.778.934.934,0,0,0-.834,1.024.935.935,0,0,0,1.067.779.934.934,0,0,0,.834-1.024" transform="translate(-468.955 360.54)"/>
    <path id="path176" d="M755.377-305.594a.935.935,0,0,0-1.067-.779.934.934,0,0,0-.834,1.024.934.934,0,0,0,1.066.779.935.935,0,0,0,.834-1.024" transform="translate(-452.397 359.669)"/>
    <path id="path178" d="M766.812-300.027a.317.317,0,0,1-.111-.02l-1.294-.492a.866.866,0,0,1-.552-.453.865.865,0,0,1,.22-.82,5.287,5.287,0,0,0,.872-4.556.313.313,0,0,1,.216-.384.312.312,0,0,1,.384.216,5.914,5.914,0,0,1-.973,5.1.658.658,0,0,0-.136.233,1.645,1.645,0,0,0,.19.085l1.294.492a.311.311,0,0,1,.181.4.312.312,0,0,1-.291.2" transform="translate(-458.507 359.876)"/>
    <path id="path180" d="M765.127-311.39a.312.312,0,0,1-.312-.306c-.015-.874.839-1.484,1.691-1.7a4.58,4.58,0,0,1,4.036.929.312.312,0,0,1,.03.44.311.311,0,0,1-.439.03,3.941,3.941,0,0,0-3.472-.8c-.614.157-1.23.58-1.222,1.087a.311.311,0,0,1-.306.317h0" transform="translate(-458.507 363.52)"/>
    <path id="path182" d="M799.417-312.9a.312.312,0,0,1-.311-.311.311.311,0,0,1,.31-.313l4.694-.014h0a.311.311,0,0,1,.311.311.311.311,0,0,1-.31.313l-4.694.014h0" transform="translate(-476.975 363.523)"/>
    <path id="path184" d="M810.638-309.927h0a.311.311,0,0,1-.308-.315,8.477,8.477,0,0,0-.667-3.371.312.312,0,0,1,.166-.408.311.311,0,0,1,.409.165,9.108,9.108,0,0,1,.715,3.621.311.311,0,0,1-.311.308" transform="translate(-482.646 363.798)"/>
    <path id="path186" d="M775.666-211.883c-4.15-11.344-6.442-22.538-16.233-30.711a29.189,29.189,0,0,0-16.9-7.125c-.4,6.323-7.746,10.49-11.683,10.961-2.143.256-10.1,1.315-10.1-8.069-2.6,1.034-11.239,2.1-14.7,12.743-1.417,4.355-3.955,21.022-12.325,30.681-1.976,2.282-3.8-12.9-6.647-11.889-2.791.992-6,2.652-6.214,5.607-.164,2.3,1.733,4.307,3.854,5.218,4.556,1.958,6.263,11.444,11.173,12.136,5.105.72,13.258,2.6,19.43-16.691,3.154,3.154,5.19,6.542,8.727,8.449,10.2,5.5,44.122,11.668,49.649,12.649a2.045,2.045,0,0,0,1.684-.723,33.64,33.64,0,0,0,.29-23.236" transform="translate(-413.285 329.153)" fill="#8dd7ff"/>
    <path id="path188" d="M714.951-209.7a.312.312,0,0,1,.22.092c1.023,1.023,1.927,2.067,2.8,3.077a21.635,21.635,0,0,0,5.854,5.318c10.063,5.425,43.047,11.462,49.556,12.617a1.834,1.834,0,0,0,1.344-.539,33.611,33.611,0,0,0,.284-23.006c-.728-1.988-1.405-3.994-2.061-5.933-3.12-9.235-6.069-17.959-14.079-24.646a28.8,28.8,0,0,0-16.416-7.032c-.345,3.509-2.678,6.054-4.606,7.587a16.028,16.028,0,0,1-7.325,3.351l-.073.009c-1.463.175-5.348.642-7.935-1.653-1.541-1.367-2.359-3.482-2.437-6.292-.295.1-.634.2-1.007.314-3.551,1.073-10.162,3.07-13.1,12.084-.276.848-.6,2.173-1,3.85-1.614,6.686-4.619,19.131-11.384,26.94a.8.8,0,0,1-.793.326c-.911-.189-1.553-2.113-2.61-5.5-.844-2.7-1.893-6.063-2.961-6.6a.5.5,0,0,0-.414-.033c-3.886,1.381-5.852,3.126-6.008,5.335s1.79,4.1,3.666,4.91c2.212.95,3.762,3.568,5.26,6.1,1.725,2.913,3.354,5.665,5.834,6.015l.521.075c5.051.735,12.683,1.848,18.569-16.554a.31.31,0,0,1,.223-.207A.3.3,0,0,1,714.951-209.7Zm58.508,21.732a1.077,1.077,0,0,1-.186-.015c-6.526-1.158-39.6-7.211-49.744-12.682-2.449-1.32-4.188-3.33-6.029-5.458-.762-.881-1.547-1.788-2.411-2.68-2.628,8.023-5.82,13.044-9.752,15.342-3.435,2.009-6.711,1.531-9.342,1.148l-.517-.075c-2.776-.391-4.559-3.4-6.283-6.314-1.448-2.446-2.946-4.974-4.971-5.844-2.142-.92-4.222-2.986-4.042-5.527.176-2.482,2.276-4.405,6.421-5.878a1.114,1.114,0,0,1,.9.063c1.3.652,2.308,3.862,3.277,6.968.652,2.088,1.546,4.948,2.142,5.073.063.014.14-.061.2-.125,6.666-7.694,9.648-20.043,11.25-26.677.408-1.689.73-3.025,1.014-3.9,3.034-9.323,10.108-11.461,13.508-12.488.552-.167,1.029-.311,1.377-.45a.31.31,0,0,1,.29.032.31.31,0,0,1,.137.258c0,2.844.751,4.953,2.233,6.267,2.377,2.109,6.061,1.667,7.448,1.5l.073-.009c3.775-.451,11.02-4.513,11.409-10.671a.31.31,0,0,1,.105-.214.313.313,0,0,1,.226-.077,29.331,29.331,0,0,1,17.08,7.2c8.146,6.8,11.121,15.6,14.271,24.924.654,1.936,1.331,3.938,2.056,5.919h0a34.091,34.091,0,0,1-.3,23.465,2.294,2.294,0,0,1-1.839.922" transform="translate(-412.921 329.517)"/>
    <path id="path190" d="M723.341-122.7l23.186.5.03-3.938-25.806-.63,2.591,4.071" transform="translate(-434.775 262.935)"/>
    <path id="path192" d="M793.914-151.837c-9.312-.519-18.681-1.161-28.051-1.8-.839-.138-5.007-.735-6.036-.886a9.237,9.237,0,0,1-2.5-.818c-2.786-1.286-8.765-3.811-10.1-3.065a16.476,16.476,0,0,0-8.037,5.932c-1.223,1.577-2.224,4.189-1.718,4.638a.89.89,0,0,0,1.164.108,14.707,14.707,0,0,1,7.149-7.088,20.83,20.83,0,0,0-4.015,2.954,7.848,7.848,0,0,0-2.636,4.216.563.563,0,0,0,.033.385c.167.276.593.114.847-.084.5-.389,6.9-5.593,8.1-5.455-1.592.6-7.267,5.206-7.29,5.7a.977.977,0,0,0,.181.662.928.928,0,0,0,.874.277,2.528,2.528,0,0,0,.875-.381,42.645,42.645,0,0,1,5.488-3.331,3.275,3.275,0,0,1,3.074-.037,14.892,14.892,0,0,0-4.8,2.914,2.843,2.843,0,0,0-.553.705c-.218.389-.463.953-.161,1.275.494.526.911.261,1.336.013a29,29,0,0,1,5.248-2.766,1.959,1.959,0,0,1,1.745-.094c.442.283,2.58,1.61,6.974,1.838a22.707,22.707,0,0,1,4.819.985c24.692,6.8,32.068,9.519,38.048,6.947,1.171-.5,1.566-1.118,1.176-3.129-1.042-5.367-2.061-8.418-11.233-10.607" transform="translate(-443.708 280.05)" fill="#fff"/>
    <path id="path194" d="M753.133-148.708a1.457,1.457,0,0,1,.8.222,14.074,14.074,0,0,0,6.821,1.788,23.2,23.2,0,0,1,4.886,1c3.292.907,6.319,1.753,8.989,2.5,17.781,4.972,23.771,6.646,28.853,4.461.962-.413,1.374-.823.993-2.783-1.034-5.327-1.992-8.208-10.973-10.357-9.442-.527-18.89-1.176-28.027-1.8l-.03,0c-.607-.1-3.024-.449-4.623-.681l-1.406-.2a9.628,9.628,0,0,1-2.588-.843c-4.177-1.928-8.834-3.626-9.817-3.076a.3.3,0,0,1-.065.028,16.22,16.22,0,0,0-7.879,5.824c-1.288,1.662-1.985,3.906-1.753,4.219a.617.617,0,0,0,.7.132,15.1,15.1,0,0,1,7.268-7.166.311.311,0,0,1,.407.142.311.311,0,0,1-.125.413,20.473,20.473,0,0,0-3.954,2.911,7.357,7.357,0,0,0-2.542,4.039.374.374,0,0,0-.008.172.685.685,0,0,0,.389-.168l.217-.173c6.879-5.488,7.807-5.381,8.112-5.346a.311.311,0,0,1,.273.271.311.311,0,0,1-.2.33c-1.5.568-6.678,4.76-7.09,5.463a.645.645,0,0,0,.113.409.643.643,0,0,0,.581.166,2.273,2.273,0,0,0,.765-.341c.6-.366,1.2-.772,1.781-1.165a21.579,21.579,0,0,1,3.749-2.188,3.58,3.58,0,0,1,3.371-.006.312.312,0,0,1,.131.294.313.313,0,0,1-.2.253,14.471,14.471,0,0,0-4.7,2.853,2.487,2.487,0,0,0-.492.627c-.251.449-.326.781-.205.909.3.319.487.229.92-.024l.031-.018a29.069,29.069,0,0,1,5.29-2.787A3.426,3.426,0,0,1,753.133-148.708ZM798.6-137.174c-4.726,0-11.461-1.883-24.133-5.426-2.67-.747-5.7-1.593-8.987-2.5a22.727,22.727,0,0,0-4.753-.974,14.7,14.7,0,0,1-7.125-1.887,1.736,1.736,0,0,0-1.462.121,28.505,28.505,0,0,0-5.191,2.737l-.045.026a1.2,1.2,0,0,1-1.69-.087c-.5-.534-.037-1.367.116-1.64a3.125,3.125,0,0,1,.615-.782,14.859,14.859,0,0,1,4.209-2.7,3.816,3.816,0,0,0-2.151.336,21.158,21.158,0,0,0-3.639,2.128c-.586.4-1.191.807-1.808,1.182a2.813,2.813,0,0,1-.986.422,1.229,1.229,0,0,1-1.168-.389,1.269,1.269,0,0,1-.25-.873.846.846,0,0,1,.215-.4l-.3.239-.222.176a1.215,1.215,0,0,1-.888.286.6.6,0,0,1-.417-.286.689.689,0,0,1-.1-.365,1.2,1.2,0,0,1-1.541-.137c-.812-.72.645-3.729,1.678-5.062a16.635,16.635,0,0,1,8.166-6.032c1.592-.8,7.757,1.876,10.348,3.072a9.056,9.056,0,0,0,2.418.793l1.4.2c1.684.244,3.986.576,4.622.68,9.139.628,18.589,1.277,28.032,1.8a.323.323,0,0,1,.055.009c9.359,2.234,10.412,5.417,11.467,10.851.393,2.019.062,2.864-1.358,3.474a12.54,12.54,0,0,1-5.134.993" transform="translate(-443.347 280.402)"/>
    <path id="path196" d="M583.581-195.874l50.4.276,17.373,35.682-49.93-.125-17.846-35.832" transform="translate(-360.901 300.154)" fill="#fff"/>
    <path id="path198" d="M601.257-160.717l49.239.124-17.07-35.058-49.7-.273Zm49.737.749h0l-49.93-.126a.31.31,0,0,1-.278-.173L582.939-196.1a.312.312,0,0,1,.015-.3.311.311,0,0,1,.264-.147h0l50.4.276a.311.311,0,0,1,.278.175l17.373,35.682a.311.311,0,0,1-.017.3.31.31,0,0,1-.264.147" transform="translate(-360.537 300.517)"/>
    <path id="path200" d="M648.2-164.4c-1.43-.14-2.994.242-3.577,1.557a3.55,3.55,0,0,0,.926,3.93,4.566,4.566,0,0,0,4.034.965,3.128,3.128,0,0,0,1.944-1.18,2.761,2.761,0,0,0,.435-1.533c.012-1.769-.795-3.448-3.762-3.739" transform="translate(-393.636 283.216)" fill="#fff"/>
    <path id="path202" d="M647.3-164.476a2.843,2.843,0,0,0-2.753,1.4,3.226,3.226,0,0,0,.851,3.574,4.244,4.244,0,0,0,3.756.891,2.814,2.814,0,0,0,1.755-1.051,2.47,2.47,0,0,0,.381-1.359c.014-2.075-1.125-3.2-3.481-3.427h0C647.685-164.464,647.508-164.476,647.3-164.476Zm.85,6.6a4.713,4.713,0,0,1-3.172-1.166,3.864,3.864,0,0,1-1-4.287c.565-1.273,2.019-1.923,3.893-1.74,3.362.33,4.054,2.385,4.043,4.052a3.053,3.053,0,0,1-.489,1.7,3.445,3.445,0,0,1-2.134,1.309,5.183,5.183,0,0,1-1.141.127" transform="translate(-393.274 283.581)"/>
    <path id="path204" d="M841.155-181.874a.313.313,0,0,1-.3-.214c-3.506-10.62-5.49-17.336-5.49-31.9a.312.312,0,0,1,.311-.311.312.312,0,0,1,.312.311c0,14.466,1.973,21.144,5.459,31.7a.311.311,0,0,1-.2.394.318.318,0,0,1-.1.015" transform="translate(-496.505 310.076)"/>
    <path id="path206" d="M751.5-188.42a.312.312,0,0,1-.256-.133c-4.518-6.5-3.3-11.263-2.114-15.868a25.144,25.144,0,0,0,1.108-7.3.312.312,0,0,1,.3-.323.307.307,0,0,1,.323.3,25.623,25.623,0,0,1-1.126,7.476c-1.2,4.675-2.334,9.091,2.022,15.357a.311.311,0,0,1-.078.433.307.307,0,0,1-.178.056" transform="translate(-449.471 308.862)"/>
    <path id="path208" d="M771.509-197.961a55.9,55.9,0,0,1-13.6-1.528.1.1,0,0,1-.076-.126.1.1,0,0,1,.126-.076c11.285,2.828,23.457,1.123,34.2-.38a.1.1,0,0,1,.117.089.1.1,0,0,1-.088.117,149.685,149.685,0,0,1-20.673,1.9" transform="translate(-454.743 302.414)"/>
    <path id="path210" d="M773.03-179.459a84.21,84.21,0,0,1-19.96-2.388.1.1,0,0,1-.076-.126.1.1,0,0,1,.126-.076,84.306,84.306,0,0,0,36.676.7.1.1,0,0,1,.123.081.1.1,0,0,1-.081.123,83.98,83.98,0,0,1-16.808,1.69" transform="translate(-452.139 292.71)"/>
    <path id="path212" d="M867.3-145.751a.1.1,0,0,1-.079-.036,19.179,19.179,0,0,0-17.535-6.376.1.1,0,0,1-.12-.085.1.1,0,0,1,.086-.12,19.4,19.4,0,0,1,17.728,6.447.1.1,0,0,1-.012.146.1.1,0,0,1-.067.025" transform="translate(-504.153 276.862)"/>
    <path id="path214" d="M878.568-152.117a.1.1,0,0,1-.039-.008,6.289,6.289,0,0,1-1.777-1.253c-.188-.167-.381-.341-.577-.5A8.57,8.57,0,0,0,872-155.727a.1.1,0,0,1-.088-.118.1.1,0,0,1,.118-.087,8.774,8.774,0,0,1,4.275,1.892c.2.163.4.338.584.507a6.15,6.15,0,0,0,1.716,1.215.1.1,0,0,1,.058.135.1.1,0,0,1-.1.065" transform="translate(-516.187 278.643)"/>
    <path id="path216" d="M896.184-394.227a6.413,6.413,0,0,1,.34-2.241,3.075,3.075,0,0,1,.723-1.248,1.466,1.466,0,0,1,1.31-.423,1.6,1.6,0,0,1,1.013.925,4.879,4.879,0,0,1,.335,1.392l.227,1.634-3.949-.039" transform="translate(-529.257 409.104)" fill="#fff"/>
    <path id="path218" d="M896.131-394.9l3.281.033-.177-1.277a4.658,4.658,0,0,0-.309-1.3,1.283,1.283,0,0,0-.8-.753,1.155,1.155,0,0,0-1.024.345,2.727,2.727,0,0,0-.644,1.124A6.1,6.1,0,0,0,896.131-394.9Zm3.639.659h0l-3.949-.039a.311.311,0,0,1-.308-.3,6.681,6.681,0,0,1,.357-2.35,3.3,3.3,0,0,1,.8-1.373,1.778,1.778,0,0,1,1.6-.5,1.881,1.881,0,0,1,1.225,1.1,5.18,5.18,0,0,1,.36,1.48l.227,1.634a.308.308,0,0,1-.074.249.31.31,0,0,1-.234.106" transform="translate(-528.894 409.466)"/>
    <path id="path220" d="M895.219-370.632a26.05,26.05,0,0,0-10.426-18.45A21.219,21.219,0,0,0,864-390.92c-5.071,2.267-11.584,8.053-14.107,20.356,2.356-3.105,6.255-4.285,8.991.213,2.964-5.1,7.17-3.712,9.687-.394a6.107,6.107,0,0,1,5.087-3.105,5.21,5.21,0,0,1,4.585,2.987,4.494,4.494,0,0,1,4.13-2.949,4.5,4.5,0,0,1,4.1,2.991,4.582,4.582,0,0,1,4.337-2.927,4.827,4.827,0,0,1,4.411,3.117" transform="translate(-504.327 406.215)" fill="#fff"/>
    <path id="path222" d="M854.184-374c.074,0,.147,0,.221.006a5.305,5.305,0,0,1,4.107,2.689c1.54-2.4,3.249-3.008,4.441-3.081a6.5,6.5,0,0,1,5.205,2.714,6.512,6.512,0,0,1,5.114-2.856h.021a5.5,5.5,0,0,1,4.555,2.592,4.829,4.829,0,0,1,4.139-2.554h.02a4.828,4.828,0,0,1,4.109,2.548,4.9,4.9,0,0,1,4.339-2.485,4.927,4.927,0,0,1,3.871,1.945,25.37,25.37,0,0,0-10.08-16.713A21.032,21.032,0,0,0,863.764-391c-3.149,1.408-10.639,6.032-13.668,18.941A5.883,5.883,0,0,1,854.184-374Zm4.335,3.593a.311.311,0,0,1-.266-.15c-1.074-1.766-2.416-2.74-3.88-2.815a5.706,5.706,0,0,0-4.6,2.628.311.311,0,0,1-.377.1.311.311,0,0,1-.177-.346,33.225,33.225,0,0,1,6.159-14.071,21.766,21.766,0,0,1,8.126-6.507,22.108,22.108,0,0,1,10.814-1.838A20.579,20.579,0,0,1,884.61-389.7a26.26,26.26,0,0,1,10.554,18.667.311.311,0,0,1-.225.336.312.312,0,0,1-.368-.169,4.5,4.5,0,0,0-4.14-2.936,4.253,4.253,0,0,0-4.033,2.726.312.312,0,0,1-.292.2h0a.313.313,0,0,1-.291-.21,4.184,4.184,0,0,0-3.808-2.78h-.018a4.184,4.184,0,0,0-3.816,2.742.312.312,0,0,1-.279.207.312.312,0,0,1-.3-.18,4.871,4.871,0,0,0-4.3-2.806h-.018a5.807,5.807,0,0,0-4.785,2.927.313.313,0,0,1-.25.177.31.31,0,0,1-.28-.122c-1.449-1.91-3.261-2.944-4.967-2.841-1.589.1-3.042,1.205-4.2,3.2a.313.313,0,0,1-.266.155h0" transform="translate(-503.964 406.579)"/>
    <path id="path224" d="M902.613-323.136a3.123,3.123,0,0,1-.384-.023,4.469,4.469,0,0,1-3.437-3.162,13.2,13.2,0,0,1-.434-4.7l.621-20.793a.313.313,0,0,1,.32-.3.312.312,0,0,1,.3.321L898.981-331a12.537,12.537,0,0,0,.4,4.477,3.853,3.853,0,0,0,2.922,2.748c1.872.226,3.507-1.7,3.8-3.563a.312.312,0,0,1,.357-.259.312.312,0,0,1,.259.357c-.328,2.065-2.025,4.107-4.109,4.107" transform="translate(-530.416 384.3)"/>
    <path id="path226" d="M869.037-370.779h-.008a.1.1,0,0,1-.1-.111c1.04-13.7,9.5-19.742,14.453-22.125a.1.1,0,0,1,.08,0c11.108,4,12.5,14.139,13.511,21.541a.1.1,0,0,1-.089.117.1.1,0,0,1-.118-.089c-1.006-7.34-2.382-17.389-13.335-21.359-4.916,2.377-13.267,8.376-14.3,21.934a.1.1,0,0,1-.1.1" transform="translate(-514.582 406.333)"/>
    <path id="path228" d="M889.832-370.768h-.009a.1.1,0,0,1-.1-.112c.571-7.184,1.218-15.327,4.749-22.167a.1.1,0,0,1,.091-.056.091.091,0,0,1,.092.054c3.746,6.773,4.474,14.824,5.116,21.926a.1.1,0,0,1-.094.113.1.1,0,0,1-.113-.094c-.635-7.022-1.354-14.974-5-21.673-3.434,6.766-4.073,14.81-4.637,21.914a.1.1,0,0,1-.1.1" transform="translate(-525.781 406.375)"/>
    <path id="path230" d="M857.4-358.712h-.015a.1.1,0,0,1-.087-.118,11.7,11.7,0,0,1,1.41-4.072.1.1,0,0,1,.141-.039.1.1,0,0,1,.039.142,11.493,11.493,0,0,0-1.385,4,.1.1,0,0,1-.1.089" transform="translate(-508.316 390.139)"/>
    <path id="path232" d="M862.166-367.538a.106.106,0,0,1-.05-.013.1.1,0,0,1-.041-.141l.523-.952a.1.1,0,0,1,.141-.041.1.1,0,0,1,.041.141l-.523.953a.1.1,0,0,1-.091.054" transform="translate(-510.882 393.231)"/>
    <path id="path234" d="M933.61-137.516a.311.311,0,0,1-.311-.3.312.312,0,0,1,.3-.319l7.27-.185a.307.307,0,0,1,.319.3.311.311,0,0,1-.3.319l-7.27.186h-.008" transform="translate(-549.247 269.16)"/>
    <path id="path236" d="M941.471-138.113a.312.312,0,0,1-.311-.3l-.184-7.327a.312.312,0,0,1,.3-.319.309.309,0,0,1,.319.3l.184,7.327a.312.312,0,0,1-.3.319h-.008" transform="translate(-553.382 273.328)"/>
    <path id="path238" d="M365.945-152.956a.312.312,0,0,1-.306-.256.313.313,0,0,1,.252-.362,7.917,7.917,0,0,1,1.4-.124h0a7.962,7.962,0,0,1,1.181.088.312.312,0,0,1,.261.355.312.312,0,0,1-.354.261,6.935,6.935,0,0,0-1.091-.081,7.246,7.246,0,0,0-1.287.114A.292.292,0,0,1,365.945-152.956Zm6.8,2.25a.309.309,0,0,1-.229-.1,6.991,6.991,0,0,0-1.883-1.447.311.311,0,0,1-.13-.421.311.311,0,0,1,.421-.13,7.6,7.6,0,0,1,2.051,1.576.313.313,0,0,1-.018.441A.314.314,0,0,1,372.749-150.706Zm-11.058.159a.313.313,0,0,1-.2-.076.312.312,0,0,1-.031-.439,7.6,7.6,0,0,1,2-1.635.311.311,0,0,1,.424.118.311.311,0,0,1-.117.425,6.964,6.964,0,0,0-1.839,1.5.311.311,0,0,1-.236.107Zm12.913,4.352a.312.312,0,0,1-.311-.3,6.553,6.553,0,0,0-.5-2.313.312.312,0,0,1,.169-.407.311.311,0,0,1,.407.169,7.2,7.2,0,0,1,.543,2.532.312.312,0,0,1-.3.321Zm-14.616.641a.312.312,0,0,1-.311-.293c-.009-.148-.014-.3-.014-.446a7.191,7.191,0,0,1,.464-2.548.312.312,0,0,1,.4-.181.313.313,0,0,1,.181.4,6.565,6.565,0,0,0-.424,2.328q0,.206.012.409a.312.312,0,0,1-.292.33Zm13.041,3.974a.309.309,0,0,1-.2-.07.312.312,0,0,1-.044-.439,6.675,6.675,0,0,0,1.154-2.068.312.312,0,0,1,.4-.194.311.311,0,0,1,.194.4,7.3,7.3,0,0,1-1.261,2.261A.31.31,0,0,1,373.029-141.579Zm-11.048.478a.312.312,0,0,1-.223-.094,7.387,7.387,0,0,1-1.46-2.137.311.311,0,0,1,.156-.412.311.311,0,0,1,.412.156,6.749,6.749,0,0,0,1.337,1.956.311.311,0,0,1,0,.441.31.31,0,0,1-.218.089Zm6.866,2.054a.312.312,0,0,1-.3-.247.312.312,0,0,1,.241-.369,7.047,7.047,0,0,0,2.211-.87.312.312,0,0,1,.428.106.311.311,0,0,1-.105.428,7.684,7.684,0,0,1-2.4.946.281.281,0,0,1-.065.007Zm-2.478.105-.038,0a7.724,7.724,0,0,1-2.478-.735.312.312,0,0,1-.143-.417.312.312,0,0,1,.417-.142,7.12,7.12,0,0,0,2.279.676.311.311,0,0,1,.271.347.311.311,0,0,1-.309.274" transform="translate(-240.305 277.439)"/>
    <path id="path240" d="M980.367-347.45a.3.3,0,0,1-.092-.014,9.336,9.336,0,0,0-2.369-.411.311.311,0,0,1-.3-.324.31.31,0,0,1,.324-.3,9.933,9.933,0,0,1,2.527.439.312.312,0,0,1,.206.39.312.312,0,0,1-.3.219Zm-7.263.621a.312.312,0,0,1-.278-.169.311.311,0,0,1,.135-.419,9.84,9.84,0,0,1,2.416-.865.311.311,0,0,1,.37.239.311.311,0,0,1-.239.37,9.223,9.223,0,0,0-2.263.81A.31.31,0,0,1,973.1-346.829Zm11.424,2.017a.312.312,0,0,1-.23-.1,9.032,9.032,0,0,0-1.841-1.543.31.31,0,0,1-.1-.429.312.312,0,0,1,.43-.1,9.664,9.664,0,0,1,1.968,1.649.311.311,0,0,1-.02.44A.308.308,0,0,1,984.527-344.812Zm-15.059,1.306a.315.315,0,0,1-.166-.048.312.312,0,0,1-.1-.429,9.493,9.493,0,0,1,1.648-1.97.313.313,0,0,1,.44.02.312.312,0,0,1-.021.441,8.9,8.9,0,0,0-1.539,1.841A.312.312,0,0,1,969.469-343.506Zm17.264,3.092a.311.311,0,0,1-.306-.255,8.532,8.532,0,0,0-.767-2.27.312.312,0,0,1,.138-.418.312.312,0,0,1,.418.138,9.162,9.162,0,0,1,.823,2.436.311.311,0,0,1-.249.364A.3.3,0,0,1,986.732-340.414Zm-18.625,1.633a.312.312,0,0,1-.312-.311,9.161,9.161,0,0,1,.359-2.545.312.312,0,0,1,.386-.214.312.312,0,0,1,.214.386,8.543,8.543,0,0,0-.335,2.373A.312.312,0,0,1,968.107-338.781Zm.6,3.211a.311.311,0,0,1-.29-.2,9.142,9.142,0,0,1-.586-2.5.312.312,0,0,1,.283-.338.314.314,0,0,1,.338.282,8.5,8.5,0,0,0,.546,2.332.312.312,0,0,1-.177.4A.307.307,0,0,1,968.707-335.57Zm17.555.052a.312.312,0,0,1-.114-.022.311.311,0,0,1-.175-.4,8.544,8.544,0,0,0,.56-2.331.31.31,0,0,1,.34-.281.311.311,0,0,1,.281.34,9.137,9.137,0,0,1-.6,2.5.312.312,0,0,1-.29.2Zm-14.591,3.878a.312.312,0,0,1-.19-.065,9.607,9.607,0,0,1-1.81-1.821.312.312,0,0,1,.06-.437.311.311,0,0,1,.436.06,9,9,0,0,0,1.693,1.7.311.311,0,0,1,.057.437A.312.312,0,0,1,971.671-331.64Zm11.6.033a.311.311,0,0,1-.248-.123.312.312,0,0,1,.06-.437,8.984,8.984,0,0,0,1.7-1.693.312.312,0,0,1,.437-.058.312.312,0,0,1,.058.437,9.614,9.614,0,0,1-1.821,1.81.312.312,0,0,1-.188.063Zm-7.048,1.846-.041,0a9.882,9.882,0,0,1-2.479-.66.311.311,0,0,1-.169-.407.312.312,0,0,1,.407-.169,9.257,9.257,0,0,0,2.323.618.311.311,0,0,1,.268.349.311.311,0,0,1-.308.271Zm2.484.007a.312.312,0,0,1-.308-.273.311.311,0,0,1,.27-.348,9.244,9.244,0,0,0,2.326-.605.311.311,0,0,1,.406.172.311.311,0,0,1-.172.405,9.869,9.869,0,0,1-2.483.647l-.039,0" transform="translate(-567.826 382.352)"/>
    <path id="path242" d="M114.771-300.673h-.013l-13.464-.577a.311.311,0,0,1-.3-.324.312.312,0,0,1,.324-.3l13.464.577a.311.311,0,0,1,.3.325.311.311,0,0,1-.311.3" transform="translate(-100.995 357.242)"/>
    <path id="path244" d="M110.2-287.633a.311.311,0,0,1-.261-.14.311.311,0,0,1,.089-.431,23.338,23.338,0,0,1,6.821-3.055.312.312,0,0,1,.381.22.312.312,0,0,1-.221.381,22.736,22.736,0,0,0-6.64,2.974.311.311,0,0,1-.171.051" transform="translate(-105.782 351.531)"/>
    <path id="path246" d="M119.662-312.008a.313.313,0,0,1-.131-.03,34.307,34.307,0,0,1-4.769-2.708.311.311,0,0,1-.082-.433.311.311,0,0,1,.433-.082,33.69,33.69,0,0,0,4.682,2.658.312.312,0,0,1,.151.414.312.312,0,0,1-.283.18" transform="translate(-108.336 364.481)"/>
    <path id="path248" d="M198.607-331.167l-7.1-29.364-6.194-.349-1.876,56.514,5.543.269,9.627-27.069" transform="translate(-145.396 389.021)" fill="#fff"/>
    <path id="path250" d="M183.4-305.026l5.006.243,9.518-26.764-7.024-29.05-5.645-.318Zm5.222.877H188.6l-5.544-.269a.312.312,0,0,1-.3-.322l1.876-56.514a.312.312,0,0,1,.1-.22.315.315,0,0,1,.228-.081l6.194.349a.312.312,0,0,1,.285.238l7.1,29.365a.311.311,0,0,1-.009.177l-9.627,27.069a.311.311,0,0,1-.293.207" transform="translate(-145.032 389.384)"/>
    <path id="path252" d="M151.3-312.913l-6.555-11.708-4.94,3.275,3.235,8.135-3.8,7.71,4.668,3.287,7.4-10.7" transform="translate(-121.593 369.492)" fill="#fff"/>
    <path id="path254" d="M139.274-305.965l4.193,2.952,7.107-10.28-6.3-11.245-4.449,2.949,3.141,7.9a.311.311,0,0,1-.01.253Zm4.271,3.7a.31.31,0,0,1-.18-.057L138.7-305.61a.312.312,0,0,1-.1-.393l3.743-7.586-3.183-8.006a.312.312,0,0,1,.117-.375l4.94-3.275a.309.309,0,0,1,.245-.043.312.312,0,0,1,.2.151l6.555,11.708a.31.31,0,0,1-.015.329l-7.4,10.7a.313.313,0,0,1-.2.13.321.321,0,0,1-.054,0" transform="translate(-121.229 369.856)"/>
    <path id="path256" d="M140.983-306.178a4.809,4.809,0,0,1,3.664-2.634c1.855-.351,1.309-.429,21.584-.936,6.5-.162,17.808-1.488,24.2,5.272a1.558,1.558,0,0,1,.557,1.108,1.558,1.558,0,0,1-.573.927c-5.426,5.192-13.906,3.683-21.639,3.1-8.967-.676-17.024-1.837-23.534-2.622-4.371-.527-4.621-3.31-4.257-4.215" transform="translate(-122.468 361.597)" fill="#fff"/>
    <path id="path258" d="M140.618-306.54h0Zm32.261-3.467c-1.681,0-3.281.066-4.717.125-.812.033-1.578.065-2.289.083-19.217.481-19.692.573-21.265.879l-.269.052a4.552,4.552,0,0,0-3.433,2.444h0a2.281,2.281,0,0,0,.27,1.875c.425.719,1.419,1.636,3.734,1.915,1.507.182,3.087.382,4.761.594,5.566.706,11.875,1.507,18.759,2.026.914.069,1.854.152,2.764.233,6.859.607,13.952,1.235,18.637-3.247a1.309,1.309,0,0,0,.478-.727,1.313,1.313,0,0,0-.473-.869c-4.341-4.592-11.138-5.382-16.958-5.382Zm5.474,11.276c-2.362,0-4.8-.216-7.212-.429-.908-.081-1.846-.164-2.756-.232-6.9-.52-13.218-1.322-18.791-2.029-1.672-.212-3.252-.412-4.756-.594-2.568-.309-3.7-1.376-4.2-2.217a2.908,2.908,0,0,1-.312-2.424h0a5.112,5.112,0,0,1,3.9-2.824l.266-.052c1.612-.313,2.1-.408,21.367-.89.706-.018,1.47-.049,2.279-.082,6.516-.269,16.363-.674,22.154,5.452a1.823,1.823,0,0,1,.642,1.347,1.819,1.819,0,0,1-.669,1.128c-3.2,3.066-7.417,3.847-11.91,3.847" transform="translate(-122.104 361.958)"/>
    <path id="path260" d="M226.338-304.789a3.371,3.371,0,0,1,3.1,3.684,3.454,3.454,0,0,1-2.542,3.036,2.133,2.133,0,0,1-1.32.08.967.967,0,0,1-.7-1c.073-.428.5-.7.778-1.033a2.6,2.6,0,0,0,.383-2.108c-.172-.459-.909-1.037-.859-1.631a1.038,1.038,0,0,1,1.163-1.032" transform="translate(-167.707 358.813)"/>
    <path id="path262" d="M191.434-351.453h0a.1.1,0,0,1-.1-.107l.162-4.571a.1.1,0,0,1,.108-.1.1.1,0,0,1,.1.107l-.162,4.571a.1.1,0,0,1-.1.1" transform="translate(-149.647 386.517)"/>
    <path id="path264" d="M195.878-354.017h0a.1.1,0,0,1-.1-.1l0-1.965a.1.1,0,0,1,.1-.1h0a.1.1,0,0,1,.1.1l0,1.965a.1.1,0,0,1-.1.1" transform="translate(-152.04 386.495)"/>
    <path id="path266" d="M187.228-246.627h-.015a.1.1,0,0,1-.088-.118c.183-1.26.308-2.543.37-3.814a.1.1,0,0,1,.109-.1.1.1,0,0,1,.1.109c-.063,1.277-.188,2.567-.373,3.834a.1.1,0,0,1-.1.089" transform="translate(-147.381 329.659)"/>
    <path id="path268" d="M1037.221-305.133a1.94,1.94,0,0,1,1.949-1.93,1.94,1.94,0,0,1,1.949,1.93,1.94,1.94,0,0,1-1.949,1.93,1.94,1.94,0,0,1-1.949-1.93" transform="translate(-605.217 360.037)"/>
    <path id="path270" d="M223.583-402.575a2.856,2.856,0,0,1,2.853-2.858,2.856,2.856,0,0,1,2.853,2.858,2.856,2.856,0,0,1-2.853,2.858,2.856,2.856,0,0,1-2.853-2.858" transform="translate(-167.017 413.016)"/>
    <path id="path272" d="M262.709-168.378s-10.468,2.442-12.483,2.018c-2.89-.608-5.177-1.226-8.052-.282a26.094,26.094,0,0,0-4.7,2.483,13.487,13.487,0,0,1-4.281,2,29.056,29.056,0,0,1-6.817-2.593c-2.632-1.553-5.274-3.382-6.052-3.842-2.06-1.216-2.618-.078-3.479.624-1.087-.725-3.773-.745-3.535,1.4.073.648-.826.357-.906,1.682-.134,2.216,4.843,7.4,8.9,10.6,3.838,1.925,10.224,5.367,15.706,6.584,2.533.562,12.786-4.021,19.231-6.3,3.778-1.334,2.8-.367,5.632-.887,1.324-1.3.837-13.481.837-13.481" transform="translate(-160.996 285.752)" fill="#fff"/>
    <path id="path274" d="M221.108-154.92c.42.211.87.44,1.346.682,3.754,1.907,9.426,4.79,14.259,5.862,1.735.387,7.739-1.949,13.036-4.008,2.174-.845,4.227-1.643,6.024-2.278,2.332-.823,2.91-.791,3.642-.751a7.254,7.254,0,0,0,1.931-.129c.816-1.111.868-8.226.7-12.806-1.908.436-10.386,2.327-12.249,1.934l-.65-.138c-2.606-.558-4.665-1-7.241-.153a24.37,24.37,0,0,0-4.4,2.307l-.239.146a12.483,12.483,0,0,1-3.42,1.716c-.253.081-.54.173-.92.308a.318.318,0,0,1-.187.006,29.231,29.231,0,0,1-6.891-2.625c-1.711-1.01-3.4-2.117-4.63-2.925-.645-.423-1.155-.758-1.423-.916-1.527-.9-2.047-.405-2.707.221-.132.126-.269.256-.416.376a.312.312,0,0,1-.37.018,2.708,2.708,0,0,0-2.535-.135,1.172,1.172,0,0,0-.516,1.238.8.8,0,0,1-.426.8,1.01,1.01,0,0,0-.479.934c-.117,1.938,4.428,6.892,8.755,10.314Zm16.024,7.2a2.63,2.63,0,0,1-.553-.052c-4.91-1.09-10.625-3.994-14.407-5.915q-.729-.371-1.372-.695a.323.323,0,0,1-.053-.034c-3.833-3.027-9.164-8.4-9.016-10.86a1.609,1.609,0,0,1,.736-1.4c.183-.132.181-.141.172-.228a1.757,1.757,0,0,1,.812-1.84,3.315,3.315,0,0,1,3,.026c.072-.065.144-.134.218-.2.677-.645,1.521-1.446,3.453-.306.281.165.8.5,1.448.931,1.227.805,2.906,1.908,4.605,2.91a28.4,28.4,0,0,0,6.647,2.535c.343-.12.608-.205.845-.281a11.911,11.911,0,0,0,3.285-1.653l.238-.146a24.784,24.784,0,0,1,4.528-2.368c2.737-.9,4.974-.42,7.566.135l.647.138c1.541.323,8.751-1.177,12.348-2.016a.312.312,0,0,1,.259.055.311.311,0,0,1,.123.236c.05,1.261.453,12.353-.93,13.715a.315.315,0,0,1-.162.085,7.965,7.965,0,0,1-2.184.158c-.663-.038-1.186-.066-3.4.716-1.789.632-3.837,1.428-6.006,2.271-5.176,2.013-10.514,4.088-12.843,4.088" transform="translate(-160.632 286.111)"/>
    <path id="path276" d="M248.221-148.812a3.822,3.822,0,0,1-3.314-1.444c-.893-1.16-.272-2.195.453-3.054.539-.638,2.36-1.2,4.685-1.859.809-.231,1.508-.43,1.836-.57a.312.312,0,0,1,.409.164.311.311,0,0,1-.164.409c-.364.156-1.08.361-1.91.6-1.561.445-3.921,1.118-4.38,1.661-.844,1-.958,1.594-.436,2.272,1.29,1.677,3.417,1.287,6.637.7a39.466,39.466,0,0,1,7.331-.82.312.312,0,0,1,.311.311.312.312,0,0,1-.311.312,38.408,38.408,0,0,0-7.219.81,23.311,23.311,0,0,1-3.93.512" transform="translate(-178.264 278.552)"/>
    <path id="path278" d="M229.181-153.736a.319.319,0,0,1-.137-.031,47.433,47.433,0,0,1-9.931-6.4c-.151-.129-.33-.293-.532-.479-1.13-1.037-3.232-2.967-4.707-2.383a.311.311,0,0,1-.4-.175.311.311,0,0,1,.175-.4c1.838-.728,4.042,1.3,5.358,2.5.2.18.37.34.516.465a46.808,46.808,0,0,0,9.8,6.311.312.312,0,0,1,.143.417.312.312,0,0,1-.281.175" transform="translate(-161.558 282.859)"/>
    <path id="path280" d="M233.367-159.374a.334.334,0,0,1-.073-.009c-3-.724-6.138-3.157-8.659-5.113a28.137,28.137,0,0,0-3.253-2.321.311.311,0,0,1-.126-.422.311.311,0,0,1,.422-.126,28.46,28.46,0,0,1,3.338,2.376c2.474,1.92,5.554,4.309,8.423,5a.312.312,0,0,1,.23.376.312.312,0,0,1-.3.239" transform="translate(-165.743 284.82)"/>
    <path id="path282" d="M315.522-150.2l-.02,0a.1.1,0,0,1-.082-.122,24.051,24.051,0,0,0,.416-6.105.1.1,0,0,1,.1-.11.1.1,0,0,1,.11.1,24.24,24.24,0,0,1-.42,6.158.1.1,0,0,1-.1.084" transform="translate(-216.476 278.972)"/>
    <path id="path284" d="M310.871-145.318a.108.108,0,0,1-.034-.006.1.1,0,0,1-.065-.132,6.651,6.651,0,0,0,.365-2.174.1.1,0,0,1,.1-.1h0a.1.1,0,0,1,.1.1,6.874,6.874,0,0,1-.377,2.241.1.1,0,0,1-.1.07" transform="translate(-213.972 274.226)"/>
    <path id="path286" d="M239.641-217.275l18.737-.147v-13.822h5.979l-15.542-15.392-16.168,15.257h6.92l.074,14.1" transform="translate(-171.899 327.492)" fill="#fff"/>
    <path id="path288" d="M233.067-232.054H239.2a.312.312,0,0,1,.312.31l.072,13.791,18.116-.142v-13.513a.312.312,0,0,1,.312-.312h5.222l-14.79-14.647Zm6.21,14.726a.311.311,0,0,1-.219-.09.311.311,0,0,1-.093-.22l-.073-13.794h-6.61a.312.312,0,0,1-.29-.2.311.311,0,0,1,.076-.341l16.169-15.257a.311.311,0,0,1,.433.006l15.542,15.391a.311.311,0,0,1,.069.34.312.312,0,0,1-.289.193h-5.668v13.51a.312.312,0,0,1-.309.312l-18.737.146h0" transform="translate(-171.535 327.856)"/>
    <path id="path290" d="M262.093-203.671v-5.652h5.285v5.652h-5.285" transform="translate(-187.757 307.397)" fill="#ffd42e"/>
    <path id="path292" d="M262.041-204.347H266.7v-5.029h-4.662Zm4.974.623h-5.285a.311.311,0,0,1-.311-.311v-5.652a.311.311,0,0,1,.311-.311h5.285a.311.311,0,0,1,.312.311v5.652a.312.312,0,0,1-.312.311" transform="translate(-187.394 307.761)"/>
  </g>
</svg>
