<?xml version="1.0" standalone="no"?>
<!DOCTYPE svg PUBLIC "-//W3C//DTD SVG 20010904//EN"
 "http://www.w3.org/TR/2001/REC-SVG-20010904/DTD/svg10.dtd">
<svg version="1.0" xmlns="http://www.w3.org/2000/svg"
 width="512.000000pt" height="512.000000pt" viewBox="0 0 512.000000 512.000000"
 preserveAspectRatio="xMidYMid meet">

<g transform="translate(0.000000,512.000000) scale(0.100000,-0.100000)"
fill="#000000" stroke="none">
<path d="M4075 5110 c-340 -53 -630 -298 -733 -620 -63 -196 -56 -383 30 -839
27 -144 34 -168 60 -197 70 -79 196 -65 243 26 21 41 19 95 -10 245 -39 204
-65 393 -65 480 1 276 177 511 445 591 81 24 239 24 320 0 197 -59 347 -208
410 -409 36 -114 46 -222 34 -392 -24 -361 -133 -756 -285 -1034 -23 -42 -35
-77 -36 -105 -2 -131 143 -202 243 -119 58 49 189 341 264 588 90 296 140 700
115 923 -15 137 -43 238 -96 351 -120 254 -327 428 -587 492 -95 23 -265 32
-352 19z"/>
<path d="M2460 4300 c-63 -3 -124 -12 -135 -18 -11 -6 -525 -516 -1142 -1134
-735 -736 -1128 -1137 -1141 -1163 -51 -102 -49 -227 3 -324 18 -33 268 -288
808 -828 849 -846 812 -814 939 -829 65 -8 161 14 215 50 58 37 2280 2266
2294 2301 21 51 23 467 5 741 -27 392 -83 912 -107 998 -24 87 -80 110 -331
139 l-118 14 0 -61 c0 -34 7 -113 16 -176 l17 -115 59 -62 c32 -34 71 -88 86
-120 24 -52 27 -69 27 -168 0 -103 -2 -114 -32 -177 -41 -88 -113 -160 -201
-201 -63 -30 -74 -32 -177 -32 -105 0 -114 2 -178 33 -86 42 -156 113 -198
198 -55 112 -51 275 11 381 18 30 18 38 6 110 -23 128 -38 294 -34 365 l3 67
-90 5 c-167 10 -489 14 -605 6z m458 -1453 l92 -92 -84 -84 -84 -84 58 -69
c57 -67 150 -230 150 -261 0 -13 -258 -173 -265 -165 -1 2 -22 46 -47 98 -124
262 -313 395 -422 299 -69 -60 -59 -130 53 -391 85 -198 104 -273 99 -388 -6
-113 -45 -197 -132 -284 -159 -158 -368 -189 -581 -86 -33 16 -72 37 -87 47
l-28 18 -98 -98 -97 -97 -95 95 -95 95 88 88 c48 48 87 91 87 95 0 4 -22 35
-50 67 -75 91 -179 278 -180 326 0 6 46 38 103 71 56 33 118 70 138 82 l36 21
27 -73 c74 -204 244 -398 374 -428 110 -25 195 71 171 193 -11 58 -28 103 -86
233 -87 190 -98 233 -98 370 0 112 2 124 29 180 38 76 125 164 202 203 150 75
311 65 485 -30 l59 -33 88 88 c48 48 89 87 92 87 3 0 47 -42 98 -93z"/>
</g>
</svg>
