<svg version="1.1" id="Layer_1" xmlns="http://www.w3.org/2000/svg" xmlns:xlink="http://www.w3.org/1999/xlink" x="0px" y="0px"
	 width="100%" viewBox="0 0 4675 4676" enable-background="new 0 0 4675 4676" xml:space="preserve">
<path fill="#FFFFFF" opacity="1.000000" stroke="none" 
	d="
M2072.000000,4680.000000 
	C1381.333374,4680.000000 692.666687,4680.000000 4.000000,4680.000000 
	C4.000000,3121.333252 4.000000,1562.666626 4.000000,4.000000 
	C1562.666626,4.000000 3121.333252,4.000000 4680.000000,4.000000 
	C4680.000000,1562.666626 4680.000000,3121.333252 4680.000000,4680.000000 
	C3811.333252,4680.000000 2942.666748,4680.000000 2072.000000,4680.000000 
M3385.550781,1957.763794 
	C3364.492920,1954.628540 3343.448730,1951.397827 3322.374512,1948.376953 
	C3272.306396,1941.200073 3222.203613,1934.259521 3172.152588,1926.966675 
	C3122.106445,1919.674438 3072.130859,1911.895874 3022.078613,1904.647705 
	C2962.141846,1895.968140 2902.151855,1887.654907 2842.196045,1879.107056 
	C2831.658447,1877.604858 2821.170654,1875.750977 2810.666748,1874.018311 
	C2794.389893,1871.333130 2782.426514,1862.914307 2775.482178,1847.687500 
	C2772.995850,1842.235962 2770.152344,1836.948120 2767.499756,1831.571777 
	C2732.132812,1759.886597 2696.791748,1688.188599 2661.402832,1616.514160 
	C2585.020508,1461.813721 2508.626953,1307.119019 2432.208984,1152.436401 
	C2416.571289,1120.783691 2401.010986,1089.090210 2385.043213,1057.604248 
	C2369.020264,1026.009521 2323.947266,1025.670532 2307.164062,1057.123047 
	C2304.343018,1062.409912 2301.730225,1067.809326 2299.074951,1073.183350 
	C2231.502197,1209.945801 2163.917725,1346.702393 2096.375000,1483.479736 
	C2037.386353,1602.934937 1978.224854,1722.305786 1919.710693,1841.992920 
	C1910.358154,1861.123047 1897.154907,1872.594971 1876.013184,1875.272461 
	C1854.886353,1877.947998 1833.819702,1881.102905 1812.736816,1884.118042 
	C1781.114502,1888.640747 1749.491699,1893.161987 1717.885864,1897.798706 
	C1677.720825,1903.690796 1637.589844,1909.815918 1597.412354,1915.621338 
	C1555.915283,1921.617432 1514.359375,1927.207275 1472.867676,1933.239624 
	C1432.038452,1939.175781 1391.281494,1945.611450 1350.448730,1951.522583 
	C1299.731567,1958.864502 1248.948853,1965.753906 1198.231201,1973.092896 
	C1136.979980,1981.956177 1075.764160,1991.065063 1014.544373,2000.143311 
	C1009.961792,2000.822754 1005.336060,2001.715088 1000.958923,2003.187744 
	C982.718323,2009.324341 971.888306,2024.675049 971.339966,2043.892456 
	C970.953003,2057.457275 976.005371,2068.614258 985.415833,2077.915039 
	C995.365967,2087.749268 1005.679443,2097.215088 1015.702881,2106.976318 
	C1070.604614,2160.443359 1125.462158,2213.956299 1180.343018,2267.444824 
	C1231.406128,2317.212646 1282.525024,2366.923584 1333.538330,2416.742676 
	C1425.555420,2506.605469 1517.512817,2596.529541 1609.489868,2686.433594 
	C1612.348755,2689.228027 1615.224976,2692.011230 1617.960083,2694.924805 
	C1625.630737,2703.096191 1629.359253,2712.851318 1628.949951,2724.032227 
	C1628.730957,2730.015381 1628.388428,2736.044434 1627.416504,2741.939697 
	C1624.385986,2760.322998 1620.971802,2778.642578 1617.809448,2797.004639 
	C1609.225220,2846.847656 1600.682129,2896.698242 1592.145264,2946.549316 
	C1583.384155,2997.710449 1574.671875,3048.879883 1565.897827,3100.038818 
	C1557.348755,3149.886475 1548.734741,3199.722900 1540.174072,3249.568848 
	C1531.275757,3301.381104 1522.271484,3353.175537 1513.575439,3405.021973 
	C1508.292725,3436.518066 1503.506226,3468.097412 1496.961792,3502.188477 
	C1492.979492,3524.466797 1488.725830,3546.700928 1485.112305,3569.038818 
	C1482.778564,3583.467041 1480.097412,3598.027588 1479.881836,3612.562988 
	C1479.594360,3631.958984 1494.102661,3647.921143 1513.046875,3652.329102 
	C1526.144653,3655.376953 1537.766357,3652.153320 1549.444580,3645.989990 
	C1643.732788,3596.229736 1738.176514,3546.764160 1832.555054,3497.174561 
	C1991.818726,3413.492920 2151.054688,3329.759277 2310.336426,3246.111816 
	C2345.416260,3227.689209 2346.492188,3227.699219 2382.437012,3246.561279 
	C2485.100830,3300.435059 2587.696533,3354.438477 2690.342285,3408.347168 
	C2840.773438,3487.352295 2991.224854,3566.318604 3141.666260,3645.304443 
	C3144.615479,3646.853027 3147.399902,3648.860107 3150.509033,3649.937988 
	C3190.156006,3663.684082 3215.240967,3633.267822 3212.460205,3607.463867 
	C3211.818604,3601.510498 3211.305664,3595.527832 3210.306641,3589.630615 
	C3205.637939,3562.066162 3200.764160,3534.536133 3196.067383,3506.976318 
	C3187.456055,3456.445557 3179.024170,3405.884521 3170.321777,3355.369873 
	C3160.489258,3298.296875 3150.290771,3241.286377 3140.522949,3184.202393 
	C3127.835693,3110.056396 3115.550781,3035.841309 3102.840820,2961.699219 
	C3091.593018,2896.087402 3079.943848,2830.544678 3068.610107,2764.947266 
	C3066.457764,2752.490479 3064.558105,2739.962646 3063.258057,2727.393555 
	C3061.877930,2714.049805 3066.239502,2702.457520 3075.980713,2693.019775 
	C3080.768066,2688.381348 3085.430664,2683.614502 3090.206787,2678.964355 
	C3130.324463,2639.905762 3170.468750,2600.874512 3210.578857,2561.808105 
	C3264.061279,2509.717773 3317.524658,2457.608398 3370.988037,2405.498535 
	C3423.973877,2353.854248 3476.949951,2302.199707 3529.930420,2250.549805 
	C3582.432861,2199.366211 3634.941162,2148.188477 3687.430908,2096.991699 
	C3694.588623,2090.010254 3701.881104,2083.146240 3708.693115,2075.838623 
	C3714.655029,2069.442871 3719.074219,2062.122314 3720.319336,2053.084473 
	C3724.072266,2025.843628 3708.601074,2004.712158 3680.811035,2000.421387 
	C3644.626953,1994.834595 3608.367188,1989.737427 3572.137451,1984.446777 
	C3528.005859,1978.001953 3483.894775,1971.408813 3439.726562,1965.224731 
	C3422.612061,1962.828491 3405.365723,1961.375488 3385.550781,1957.763794 
z"/>
<path fill="#F4CD30" opacity="1.000000" stroke="none" 
	d="
M1498.496826,3499.639404 
	C1503.506226,3468.097412 1508.292725,3436.518066 1513.575439,3405.021973 
	C1522.271484,3353.175537 1531.275757,3301.381104 1540.174072,3249.568848 
	C1548.734741,3199.722900 1557.348755,3149.886475 1565.897827,3100.038818 
	C1574.671875,3048.879883 1583.384155,2997.710449 1592.145264,2946.549316 
	C1600.682129,2896.698242 1609.225220,2846.847656 1617.809448,2797.004639 
	C1620.971802,2778.642578 1624.385986,2760.322998 1627.416504,2741.939697 
	C1628.388428,2736.044434 1628.730957,2730.015381 1628.949951,2724.032227 
	C1629.359253,2712.851318 1625.630737,2703.096191 1617.960083,2694.924805 
	C1615.224976,2692.011230 1612.348755,2689.228027 1609.489868,2686.433594 
	C1517.512817,2596.529541 1425.555420,2506.605469 1333.538330,2416.742676 
	C1282.525024,2366.923584 1231.406128,2317.212646 1180.343018,2267.444824 
	C1125.462158,2213.956299 1070.604614,2160.443359 1015.702881,2106.976318 
	C1005.679443,2097.215088 995.365967,2087.749268 985.415833,2077.915039 
	C976.005371,2068.614258 970.953003,2057.457275 971.339966,2043.892456 
	C971.888306,2024.675049 982.718323,2009.324341 1000.958923,2003.187744 
	C1005.336060,2001.715088 1009.961792,2000.822754 1014.544373,2000.143311 
	C1075.764160,1991.065063 1136.979980,1981.956177 1198.231201,1973.092896 
	C1248.948853,1965.753906 1299.731567,1958.864502 1350.448730,1951.522583 
	C1391.281494,1945.611450 1432.038452,1939.175781 1472.867676,1933.239624 
	C1514.359375,1927.207275 1555.915283,1921.617432 1597.412354,1915.621338 
	C1637.589844,1909.815918 1677.720825,1903.690796 1717.885864,1897.798706 
	C1749.491699,1893.161987 1781.114502,1888.640747 1812.736816,1884.118042 
	C1833.819702,1881.102905 1854.886353,1877.947998 1876.013184,1875.272461 
	C1897.154907,1872.594971 1910.358154,1861.123047 1919.710693,1841.992920 
	C1978.224854,1722.305786 2037.386353,1602.934937 2096.375000,1483.479736 
	C2163.917725,1346.702393 2231.502197,1209.945801 2299.074951,1073.183350 
	C2301.730225,1067.809326 2304.343018,1062.409912 2307.164062,1057.123047 
	C2323.947266,1025.670532 2369.020264,1026.009521 2385.043213,1057.604248 
	C2401.010986,1089.090210 2416.571289,1120.783691 2432.208984,1152.436401 
	C2508.626953,1307.119019 2585.020508,1461.813721 2661.402832,1616.514160 
	C2696.791748,1688.188599 2732.132812,1759.886597 2767.499756,1831.571777 
	C2770.152344,1836.948120 2772.995850,1842.235962 2775.482178,1847.687500 
	C2782.426514,1862.914307 2794.389893,1871.333130 2810.666748,1874.018311 
	C2821.170654,1875.750977 2831.658447,1877.604858 2842.196045,1879.107056 
	C2902.151855,1887.654907 2962.141846,1895.968140 3022.078613,1904.647705 
	C3072.130859,1911.895874 3122.106445,1919.674438 3172.152588,1926.966675 
	C3222.203613,1934.259521 3272.306396,1941.200073 3322.374512,1948.376953 
	C3343.448730,1951.397827 3364.492920,1954.628540 3386.685547,1960.079834 
	C3379.013916,1977.970215 3370.376709,1993.643555 3361.359375,2009.094727 
	C3348.981201,2030.305054 3336.572510,2051.505371 3323.712402,2072.424805 
	C3303.551758,2105.220215 3283.415283,2138.044189 3262.480469,2170.345215 
	C3247.327881,2193.724854 3230.804443,2216.212646 3215.058838,2239.212402 
	C3188.086670,2278.610596 3159.551514,2316.868164 3130.890869,2355.035889 
	C3122.535156,2366.162842 3114.357910,2377.440186 3105.607666,2388.250977 
	C3091.016113,2406.279297 3075.994629,2423.958984 3061.218018,2441.838379 
	C3050.673340,2454.597168 3040.444092,2467.622803 3029.690186,2480.201416 
	C3018.484131,2493.309570 3006.660889,2505.888916 2995.392090,2518.945068 
	C2981.109131,2535.493896 2967.647461,2552.781250 2952.863525,2568.860107 
	C2932.632080,2590.863037 2911.518799,2612.045898 2891.105713,2633.900635 
	C2862.575684,2664.445801 2833.558350,2694.728760 2801.124268,2721.604980 
	C2778.174072,2740.622559 2758.822510,2763.777832 2735.584229,2782.816650 
	C2717.125732,2797.939453 2700.262939,2815.010254 2682.686035,2831.209961 
	C2681.706787,2832.111816 2680.698242,2832.985352 2679.665527,2833.825684 
	C2659.121826,2850.546631 2638.582031,2867.272461 2618.019531,2883.969971 
	C2611.334961,2889.397705 2604.575195,2894.732910 2597.873779,2900.139893 
	C2586.023682,2909.701904 2574.345947,2919.484619 2562.317139,2928.815186 
	C2543.990479,2943.030029 2525.571289,2957.134766 2506.929932,2970.932861 
	C2477.094238,2993.016846 2447.262695,3015.118896 2417.006348,3036.617676 
	C2397.526611,3050.458984 2377.380371,3063.373535 2357.370117,3076.454590 
	C2327.917725,3095.708496 2298.473877,3114.983643 2268.729980,3133.780518 
	C2249.098145,3146.187744 2228.956787,3157.790039 2209.023926,3169.719727 
	C2182.828369,3185.398193 2156.910156,3201.569092 2130.331543,3216.569580 
	C2097.985840,3234.824951 2065.508545,3252.943115 2032.320068,3269.589111 
	C1968.074341,3301.812012 1903.329712,3333.042480 1838.698730,3364.493164 
	C1824.964844,3371.176025 1810.921021,3377.247803 1796.864624,3383.236328 
	C1773.663696,3393.120850 1750.294312,3402.609131 1727.074585,3412.450195 
	C1706.285645,3421.260742 1686.014038,3431.475342 1664.790405,3439.040039 
	C1616.015869,3456.424561 1568.850342,3478.149658 1519.079834,3492.821045 
	C1512.158081,3494.861328 1506.356445,3500.348877 1498.496826,3499.639404 
M2333.630615,1271.030151 
	C2333.572998,1269.630249 2333.515137,1268.230225 2333.457520,1266.830322 
	C2333.013428,1267.945679 2332.507812,1269.041748 2332.151123,1270.184448 
	C2331.972900,1270.754150 2332.066162,1271.408691 2330.355469,1272.984985 
	C2329.238770,1274.460571 2327.712158,1275.956909 2330.570312,1277.231323 
	C2331.018555,1276.099609 2331.533203,1274.988037 2331.887451,1273.827515 
	C2332.063232,1273.251099 2331.944824,1272.584961 2333.630615,1271.030151 
M2044.005615,1825.993408 
	C2041.983154,1829.430176 2039.761963,1832.766846 2037.969971,1836.319824 
	C2024.769165,1862.492554 2011.749512,1888.756836 1998.486938,1914.898193 
	C1983.580078,1944.280273 1960.428467,1964.253418 1928.746826,1973.409058 
	C1914.803467,1977.438477 1900.520142,1980.773315 1885.674927,1980.087769 
	C1879.715698,1979.812744 1873.291504,1979.256104 1867.818848,1981.065674 
	C1857.985596,1984.317383 1848.107300,1983.720703 1838.166870,1984.037476 
	C1833.511230,1984.185791 1828.481689,1983.422363 1824.283081,1984.922729 
	C1814.534668,1988.406250 1804.608521,1987.809448 1794.654419,1988.036987 
	C1789.997437,1988.143311 1784.982056,1987.383789 1780.761475,1988.844238 
	C1770.360596,1992.443359 1759.762207,1991.810913 1749.143677,1992.063232 
	C1744.494263,1992.173462 1739.477173,1991.596558 1735.285156,1993.130127 
	C1726.177246,1996.462524 1716.908691,1995.726440 1707.629883,1996.031860 
	C1702.309692,1996.206909 1696.580688,1995.353638 1691.763916,1997.041504 
	C1681.968506,2000.473633 1672.056763,1999.711792 1662.118164,2000.038696 
	C1657.462891,2000.191772 1652.434570,1999.436890 1648.235962,2000.939453 
	C1638.486450,2004.428345 1628.545654,2003.596558 1618.609009,2004.107544 
	C1612.020874,2004.446411 1605.472046,2005.572632 1598.909912,2006.380249 
	C1594.965576,2006.865479 1591.043945,2007.631104 1587.086914,2007.899902 
	C1565.256714,2009.382324 1543.165771,2009.194214 1521.668823,2012.685181 
	C1506.400757,2015.164795 1491.297119,2015.452515 1476.076050,2016.285889 
	C1473.460571,2016.429077 1470.910278,2017.516113 1468.289795,2017.871704 
	C1462.390991,2018.671875 1456.478516,2019.744385 1450.551147,2019.894897 
	C1429.314087,2020.433960 1408.438354,2026.047363 1387.048218,2024.332397 
	C1385.762573,2024.229248 1384.314209,2024.482300 1383.134277,2025.004883 
	C1374.894287,2028.654663 1366.162476,2027.813477 1357.531250,2028.035156 
	C1352.877197,2028.154663 1347.844849,2027.478638 1343.658203,2029.008911 
	C1334.559814,2032.334473 1325.307495,2031.767578 1316.020142,2032.018555 
	C1310.698486,2032.162354 1304.987793,2031.321411 1300.145264,2032.965454 
	C1290.354736,2036.289062 1280.459106,2035.788940 1270.507080,2036.030029 
	C1265.850464,2036.142944 1260.822266,2035.371948 1256.616821,2036.855957 
	C1245.559570,2040.757568 1234.264282,2039.734253 1222.996582,2040.038940 
	C1218.338623,2040.164795 1213.318481,2039.348755 1209.098633,2040.804077 
	C1198.047119,2044.614990 1186.763672,2043.796753 1175.489990,2044.128540 
	C1172.978149,2044.202393 1170.483276,2044.849976 1167.980469,2045.233398 
	C1174.554199,2047.532837 1181.068481,2047.735229 1187.576660,2048.059326 
	C1193.546997,2048.357178 1199.526489,2048.622803 1205.473389,2049.198242 
	C1213.363525,2049.961426 1221.208374,2051.568848 1229.104004,2051.818848 
	C1243.754272,2052.282959 1258.428101,2051.948975 1273.090332,2052.112549 
	C1278.400757,2052.171631 1284.060059,2051.637207 1288.935181,2053.256104 
	C1297.443604,2056.081055 1305.985474,2055.873535 1314.618164,2055.926025 
	C1329.281372,2056.015381 1343.945679,2055.971436 1358.608276,2056.109863 
	C1363.259521,2056.153564 1368.281860,2055.560303 1372.479126,2057.074463 
	C1381.592407,2060.362305 1390.845947,2059.852051 1400.135742,2059.920898 
	C1415.465332,2060.034668 1430.796021,2059.983887 1446.125488,2060.111816 
	C1450.779541,2060.150635 1455.807251,2059.495361 1460.007568,2060.995117 
	C1469.770264,2064.481201 1479.703369,2063.838623 1489.653442,2063.929932 
	C1502.983032,2064.052246 1516.315552,2063.933838 1529.643921,2064.122803 
	C1534.946411,2064.197998 1540.254395,2064.688232 1545.536377,2065.221680 
	C1553.425659,2066.018799 1561.276978,2067.570068 1569.175415,2067.817139 
	C1583.825928,2068.275391 1598.499512,2067.943604 1613.161743,2068.109375 
	C1618.470825,2068.169189 1624.127563,2067.651367 1629.002808,2069.271729 
	C1637.512817,2072.100098 1646.058105,2071.866699 1654.688843,2071.919678 
	C1670.685059,2072.017822 1686.682373,2071.974365 1702.678101,2072.114014 
	C1707.328003,2072.154785 1712.347168,2071.585693 1716.545532,2073.100830 
	C1725.660400,2076.390625 1734.917236,2075.846680 1744.205078,2075.925049 
	C1758.201538,2076.043213 1772.200684,2075.920166 1786.195190,2076.131348 
	C1791.489380,2076.210938 1796.784424,2076.835205 1802.060303,2077.388672 
	C1809.290894,2078.146973 1816.483154,2079.504883 1823.727905,2079.851807 
	C1849.571411,2081.090088 1875.650391,2077.411133 1901.264282,2083.730713 
	C1903.786011,2084.352783 1906.576050,2083.915283 1909.241699,2083.921631 
	C1926.571289,2083.963623 1943.911865,2083.630371 1961.226807,2084.151123 
	C1972.911133,2084.502686 1983.583984,2081.466064 1994.012817,2076.889404 
	C1998.888672,2074.749512 2003.589233,2072.212402 2008.389282,2069.896973 
	C2033.578247,2057.746338 2050.643555,2038.255615 2060.476562,2012.242920 
	C2064.939453,2000.436646 2069.333984,1988.604492 2073.775146,1976.789917 
	C2089.202393,1935.748657 2104.848633,1894.787964 2120.010498,1853.648926 
	C2136.552246,1808.765869 2152.487549,1763.659790 2168.981445,1718.759033 
	C2185.932617,1672.612915 2203.261963,1626.605591 2220.378906,1580.520264 
	C2226.393311,1564.326660 2232.196045,1548.054199 2238.222656,1531.865112 
	C2253.982910,1489.530029 2269.804688,1447.218018 2285.618896,1404.903198 
	C2297.712646,1372.543335 2309.938721,1340.232300 2321.852539,1307.806641 
	C2324.271240,1301.224121 2328.105469,1294.763794 2327.003662,1284.188721 
	C2323.341064,1288.495728 2320.996582,1290.473511 2319.630371,1292.983887 
	C2309.455078,1311.680054 2299.304688,1330.393311 2289.467041,1349.268555 
	C2269.161377,1388.229004 2249.036865,1427.283936 2228.872070,1466.317749 
	C2207.790283,1507.127075 2186.647217,1547.905029 2165.712402,1588.789551 
	C2130.506836,1657.544678 2095.444824,1726.373291 2060.322998,1795.171265 
	C2055.477783,1804.662109 2050.633057,1814.153076 2044.005615,1825.993408 
z"/>
<path fill="#EEBD31" opacity="1.000000" stroke="none" 
	d="
M1497.729248,3500.914062 
	C1506.356445,3500.348877 1512.158081,3494.861328 1519.079834,3492.821045 
	C1568.850342,3478.149658 1616.015869,3456.424561 1664.790405,3439.040039 
	C1686.014038,3431.475342 1706.285645,3421.260742 1727.074585,3412.450195 
	C1750.294312,3402.609131 1773.663696,3393.120850 1796.864624,3383.236328 
	C1810.921021,3377.247803 1824.964844,3371.176025 1838.698730,3364.493164 
	C1903.329712,3333.042480 1968.074341,3301.812012 2032.320068,3269.589111 
	C2065.508545,3252.943115 2097.985840,3234.824951 2130.331543,3216.569580 
	C2156.910156,3201.569092 2182.828369,3185.398193 2209.023926,3169.719727 
	C2228.956787,3157.790039 2249.098145,3146.187744 2268.729980,3133.780518 
	C2298.473877,3114.983643 2327.917725,3095.708496 2357.370117,3076.454590 
	C2377.380371,3063.373535 2397.526611,3050.458984 2417.006348,3036.617676 
	C2447.262695,3015.118896 2477.094238,2993.016846 2506.929932,2970.932861 
	C2525.571289,2957.134766 2543.990479,2943.030029 2562.317139,2928.815186 
	C2574.345947,2919.484619 2586.023682,2909.701904 2597.873779,2900.139893 
	C2604.575195,2894.732910 2611.334961,2889.397705 2618.019531,2883.969971 
	C2638.582031,2867.272461 2659.121826,2850.546631 2679.665527,2833.825684 
	C2680.698242,2832.985352 2681.706787,2832.111816 2682.686035,2831.209961 
	C2700.262939,2815.010254 2717.125732,2797.939453 2735.584229,2782.816650 
	C2758.822510,2763.777832 2778.174072,2740.622559 2801.124268,2721.604980 
	C2833.558350,2694.728760 2862.575684,2664.445801 2891.105713,2633.900635 
	C2911.518799,2612.045898 2932.632080,2590.863037 2952.863525,2568.860107 
	C2967.647461,2552.781250 2981.109131,2535.493896 2995.392090,2518.945068 
	C3006.660889,2505.888916 3018.484131,2493.309570 3029.690186,2480.201416 
	C3040.444092,2467.622803 3050.673340,2454.597168 3061.218018,2441.838379 
	C3075.994629,2423.958984 3091.016113,2406.279297 3105.607666,2388.250977 
	C3114.357910,2377.440186 3122.535156,2366.162842 3130.890869,2355.035889 
	C3159.551514,2316.868164 3188.086670,2278.610596 3215.058838,2239.212402 
	C3230.804443,2216.212646 3247.327881,2193.724854 3262.480469,2170.345215 
	C3283.415283,2138.044189 3303.551758,2105.220215 3323.712402,2072.424805 
	C3336.572510,2051.505371 3348.981201,2030.305054 3361.359375,2009.094727 
	C3370.376709,1993.643555 3379.013916,1977.970215 3388.000000,1960.944336 
	C3405.365723,1961.375488 3422.612061,1962.828491 3439.726562,1965.224731 
	C3483.894775,1971.408813 3528.005859,1978.001953 3572.137451,1984.446777 
	C3608.367188,1989.737427 3644.626953,1994.834595 3680.811035,2000.421387 
	C3708.601074,2004.712158 3724.072266,2025.843628 3720.319336,2053.084473 
	C3719.074219,2062.122314 3714.655029,2069.442871 3708.693115,2075.838623 
	C3701.881104,2083.146240 3694.588623,2090.010254 3687.430908,2096.991699 
	C3634.941162,2148.188477 3582.432861,2199.366211 3529.930420,2250.549805 
	C3476.949951,2302.199707 3423.973877,2353.854248 3370.988037,2405.498535 
	C3317.524658,2457.608398 3264.061279,2509.717773 3210.578857,2561.808105 
	C3170.468750,2600.874512 3130.324463,2639.905762 3090.206787,2678.964355 
	C3085.430664,2683.614502 3080.768066,2688.381348 3075.980713,2693.019775 
	C3066.239502,2702.457520 3061.877930,2714.049805 3063.258057,2727.393555 
	C3064.558105,2739.962646 3066.457764,2752.490479 3068.610107,2764.947266 
	C3079.943848,2830.544678 3091.593018,2896.087402 3102.840820,2961.699219 
	C3115.550781,3035.841309 3127.835693,3110.056396 3140.522949,3184.202393 
	C3150.290771,3241.286377 3160.489258,3298.296875 3170.321777,3355.369873 
	C3179.024170,3405.884521 3187.456055,3456.445557 3196.067383,3506.976318 
	C3200.764160,3534.536133 3205.637939,3562.066162 3210.306641,3589.630615 
	C3211.305664,3595.527832 3211.818604,3601.510498 3212.460205,3607.463867 
	C3215.240967,3633.267822 3190.156006,3663.684082 3150.509033,3649.937988 
	C3147.399902,3648.860107 3144.615479,3646.853027 3141.666260,3645.304443 
	C2991.224854,3566.318604 2840.773438,3487.352295 2690.342285,3408.347168 
	C2587.696533,3354.438477 2485.100830,3300.435059 2382.437012,3246.561279 
	C2346.492188,3227.699219 2345.416260,3227.689209 2310.336426,3246.111816 
	C2151.054688,3329.759277 1991.818726,3413.492920 1832.555054,3497.174561 
	C1738.176514,3546.764160 1643.732788,3596.229736 1549.444580,3645.989990 
	C1537.766357,3652.153320 1526.144653,3655.376953 1513.046875,3652.329102 
	C1494.102661,3647.921143 1479.594360,3631.958984 1479.881836,3612.562988 
	C1480.097412,3598.027588 1482.778564,3583.467041 1485.112305,3569.038818 
	C1488.725830,3546.700928 1492.979492,3524.466797 1497.729248,3500.914062 
z"/>
<path fill="#F9DD5F" opacity="1.000000" stroke="none" 
	d="
M2044.896973,1824.818604 
	C2050.633057,1814.153076 2055.477783,1804.662109 2060.322998,1795.171265 
	C2095.444824,1726.373291 2130.506836,1657.544678 2165.712402,1588.789551 
	C2186.647217,1547.905029 2207.790283,1507.127075 2228.872070,1466.317749 
	C2249.036865,1427.283936 2269.161377,1388.229004 2289.467041,1349.268555 
	C2299.304688,1330.393311 2309.455078,1311.680054 2319.630371,1292.983887 
	C2320.996582,1290.473511 2323.341064,1288.495728 2327.003662,1284.188721 
	C2328.105469,1294.763794 2324.271240,1301.224121 2321.852539,1307.806641 
	C2309.938721,1340.232300 2297.712646,1372.543335 2285.618896,1404.903198 
	C2269.804688,1447.218018 2253.982910,1489.530029 2238.222656,1531.865112 
	C2232.196045,1548.054199 2226.393311,1564.326660 2220.378906,1580.520264 
	C2203.261963,1626.605591 2185.932617,1672.612915 2168.981445,1718.759033 
	C2152.487549,1763.659790 2136.552246,1808.765869 2120.010498,1853.648926 
	C2104.848633,1894.787964 2089.202393,1935.748657 2073.775146,1976.789917 
	C2069.333984,1988.604492 2064.939453,2000.436646 2060.476562,2012.242920 
	C2050.643555,2038.255615 2033.578247,2057.746338 2008.389282,2069.896973 
	C2003.589233,2072.212402 1998.888672,2074.749512 1994.012817,2076.889404 
	C1983.583984,2081.466064 1972.911133,2084.502686 1961.226807,2084.151123 
	C1943.911865,2083.630371 1926.571289,2083.963623 1909.241699,2083.921631 
	C1906.576050,2083.915283 1903.786011,2084.352783 1901.264282,2083.730713 
	C1875.650391,2077.411133 1849.571411,2081.090088 1823.727905,2079.851807 
	C1816.483154,2079.504883 1809.290894,2078.146973 1802.060303,2077.388672 
	C1796.784424,2076.835205 1791.489380,2076.210938 1786.195190,2076.131348 
	C1772.200684,2075.920166 1758.201538,2076.043213 1744.205078,2075.925049 
	C1734.917236,2075.846680 1725.660400,2076.390625 1716.545532,2073.100830 
	C1712.347168,2071.585693 1707.328003,2072.154785 1702.678101,2072.114014 
	C1686.682373,2071.974365 1670.685059,2072.017822 1654.688843,2071.919678 
	C1646.058105,2071.866699 1637.512817,2072.100098 1629.002808,2069.271729 
	C1624.127563,2067.651367 1618.470825,2068.169189 1613.161743,2068.109375 
	C1598.499512,2067.943604 1583.825928,2068.275391 1569.175415,2067.817139 
	C1561.276978,2067.570068 1553.425659,2066.018799 1545.536377,2065.221680 
	C1540.254395,2064.688232 1534.946411,2064.197998 1529.643921,2064.122803 
	C1516.315552,2063.933838 1502.983032,2064.052246 1489.653442,2063.929932 
	C1479.703369,2063.838623 1469.770264,2064.481201 1460.007568,2060.995117 
	C1455.807251,2059.495361 1450.779541,2060.150635 1446.125488,2060.111816 
	C1430.796021,2059.983887 1415.465332,2060.034668 1400.135742,2059.920898 
	C1390.845947,2059.852051 1381.592407,2060.362305 1372.479126,2057.074463 
	C1368.281860,2055.560303 1363.259521,2056.153564 1358.608276,2056.109863 
	C1343.945679,2055.971436 1329.281372,2056.015381 1314.618164,2055.926025 
	C1305.985474,2055.873535 1297.443604,2056.081055 1288.935181,2053.256104 
	C1284.060059,2051.637207 1278.400757,2052.171631 1273.090332,2052.112549 
	C1258.428101,2051.948975 1243.754272,2052.282959 1229.104004,2051.818848 
	C1221.208374,2051.568848 1213.363525,2049.961426 1205.473389,2049.198242 
	C1199.526489,2048.622803 1193.546997,2048.357178 1187.576660,2048.059326 
	C1181.068481,2047.735229 1174.554199,2047.532837 1167.980469,2045.233398 
	C1170.483276,2044.849976 1172.978149,2044.202393 1175.489990,2044.128540 
	C1186.763672,2043.796753 1198.047119,2044.614990 1209.098633,2040.804077 
	C1213.318481,2039.348755 1218.338623,2040.164795 1222.996582,2040.038940 
	C1234.264282,2039.734253 1245.559570,2040.757568 1256.616821,2036.855957 
	C1260.822266,2035.371948 1265.850464,2036.142944 1270.507080,2036.030029 
	C1280.459106,2035.788940 1290.354736,2036.289062 1300.145264,2032.965454 
	C1304.987793,2031.321411 1310.698486,2032.162354 1316.020142,2032.018555 
	C1325.307495,2031.767578 1334.559814,2032.334473 1343.658203,2029.008911 
	C1347.844849,2027.478638 1352.877197,2028.154663 1357.531250,2028.035156 
	C1366.162476,2027.813477 1374.894287,2028.654663 1383.134277,2025.004883 
	C1384.314209,2024.482300 1385.762573,2024.229248 1387.048218,2024.332397 
	C1408.438354,2026.047363 1429.314087,2020.433960 1450.551147,2019.894897 
	C1456.478516,2019.744385 1462.390991,2018.671875 1468.289795,2017.871704 
	C1470.910278,2017.516113 1473.460571,2016.429077 1476.076050,2016.285889 
	C1491.297119,2015.452515 1506.400757,2015.164795 1521.668823,2012.685181 
	C1543.165771,2009.194214 1565.256714,2009.382324 1587.086914,2007.899902 
	C1591.043945,2007.631104 1594.965576,2006.865479 1598.909912,2006.380249 
	C1605.472046,2005.572632 1612.020874,2004.446411 1618.609009,2004.107544 
	C1628.545654,2003.596558 1638.486450,2004.428345 1648.235962,2000.939453 
	C1652.434570,1999.436890 1657.462891,2000.191772 1662.118164,2000.038696 
	C1672.056763,1999.711792 1681.968506,2000.473633 1691.763916,1997.041504 
	C1696.580688,1995.353638 1702.309692,1996.206909 1707.629883,1996.031860 
	C1716.908691,1995.726440 1726.177246,1996.462524 1735.285156,1993.130127 
	C1739.477173,1991.596558 1744.494263,1992.173462 1749.143677,1992.063232 
	C1759.762207,1991.810913 1770.360596,1992.443359 1780.761475,1988.844238 
	C1784.982056,1987.383789 1789.997437,1988.143311 1794.654419,1988.036987 
	C1804.608521,1987.809448 1814.534668,1988.406250 1824.283081,1984.922729 
	C1828.481689,1983.422363 1833.511230,1984.185791 1838.166870,1984.037476 
	C1848.107300,1983.720703 1857.985596,1984.317383 1867.818848,1981.065674 
	C1873.291504,1979.256104 1879.715698,1979.812744 1885.674927,1980.087769 
	C1900.520142,1980.773315 1914.803467,1977.438477 1928.746826,1973.409058 
	C1960.428467,1964.253418 1983.580078,1944.280273 1998.486938,1914.898193 
	C2011.749512,1888.756836 2024.769165,1862.492554 2037.969971,1836.319824 
	C2039.761963,1832.766846 2041.983154,1829.430176 2044.896973,1824.818604 
z"/>
<path fill="#F9DD5F" opacity="1.000000" stroke="none" 
	d="
M2332.036621,1272.024902 
	C2332.066162,1271.408691 2331.972900,1270.754150 2332.151123,1270.184448 
	C2332.507812,1269.041748 2333.013428,1267.945679 2333.457520,1266.830322 
	C2333.515137,1268.230225 2333.572998,1269.630249 2332.814209,1271.514160 
	C2331.997803,1271.998169 2332.036621,1272.024902 2332.036621,1272.024902 
z"/>
<path fill="#F9DD5F" opacity="1.000000" stroke="none" 
	d="
M2331.978760,1271.978760 
	C2331.944824,1272.584961 2332.063232,1273.251099 2331.887451,1273.827515 
	C2331.533203,1274.988037 2331.018555,1276.099609 2330.570312,1277.231323 
	C2327.712158,1275.956909 2329.238770,1274.460571 2331.196045,1272.504883 
	C2332.036621,1272.024902 2331.997803,1271.998169 2331.978760,1271.978760 
z"/>
</svg>