<svg id="Layer_1" data-name="Layer 1" xmlns="http://www.w3.org/2000/svg" xmlns:xlink="http://www.w3.org/1999/xlink" viewBox="0 0 546.7 546.7">
  <defs>
    <style>
      .cls-1 {
        fill: #fff;
      }

      .cls-2 {
        fill: #d4eeff;
      }

      .cls-3 {
        fill: gray;
      }

      .cls-4 {
        fill: #333;
      }

      .cls-5 {
        fill: url(#linear-gradient);
      }

      .cls-6 {
        fill: #f2f2f2;
      }

      .cls-7 {
        fill: #a3d8e7;
        opacity: 0.4;
      }

      .cls-8 {
        fill: #22272e;
      }

      .cls-9 {
        fill: #ff931e;
      }

      .cls-10 {
        fill: #999;
      }

      .cls-11 {
        fill: #754c24;
      }

      .cls-12 {
        fill: red;
      }
    </style>
    <linearGradient id="linear-gradient" x1="271.39" y1="200.33" x2="271.39" y2="161.87" gradientUnits="userSpaceOnUse">
      <stop offset="0" stop-color="#f2f2f2"/>
      <stop offset="1" stop-color="#666"/>
    </linearGradient>
  </defs>
  <title>AskIshaIcon</title>
  <circle class="cls-1" cx="273.35" cy="273.35" r="273.35"/>
  <g>
    <path class="cls-2" d="M5719.4,471.72a214.94,214.94,0,0,1-157.81,206.82c0.36-4.26.7-9.54,1-13.54h0c0.82,0-.08-15-0.13-16.78a44.9,44.9,0,0,0-4.17-18.67c-3.61-7.36-9.86-13.56-17.57-16.32-7.28-2.6-15.27-2.06-23-1.33-12.73,1.21-25.64,2.89-37.28,8.18-15.76,7.17-36.85,27.27-35.93,46.36a2.11,2.11,0,0,0,0,.23q0.18,5.32.46,10.77c-1.61-.46-3.77-1-5.36-1.46a15.7,15.7,0,0,0-3.66-1.14V675s0.31-.08.18-0.13a214.1,214.1,0,0,1-145.6-203.12c0-118.33,96.08-214.27,214.41-214.27A214.34,214.34,0,0,1,5719.4,471.72Z" transform="translate(-5231.65 -198.42)"/>
    <g>
      <path class="cls-3" d="M5433.35,681.1c0.18,4.22.54,8.45,0.77,12.85l-0.22-.06Q5433.57,687.43,5433.35,681.1Z" transform="translate(-5231.65 -198.42)"/>
      <path class="cls-3" d="M5433.34,680.82c0-.62,0-1.25-0.07-1.87h0C5433.3,679.57,5433.32,680.19,5433.34,680.82Z" transform="translate(-5231.65 -198.42)"/>
      <path class="cls-3" d="M5541.16,389.39c1.14,0.12,2.27.28,3.4,0.43C5543.44,389.67,5542.31,389.51,5541.16,389.39Z" transform="translate(-5231.65 -198.42)"/>
      <path class="cls-3" d="M5545.53,390l-1-.14,1,0.13,0.1,0h-0.11Z" transform="translate(-5231.65 -198.42)"/>
      <path class="cls-3" d="M5558,392.18c-4-.89-8.18-1.62-12.37-2.21Q5551.93,390.84,5558,392.18Z" transform="translate(-5231.65 -198.42)"/>
      <path class="cls-3" d="M5558.31,392.24l-0.29-.07Z" transform="translate(-5231.65 -198.42)"/>
      <polygon class="cls-3" points="330.81 358.02 309.35 309.6 309.35 309.59 330.65 358.01 330.81 358.02"/>
      <path class="cls-3" d="M5574,629.86c0.15,3.32.26,6.63,0.32,9.91-0.07-3.21-.18-6.44-0.32-9.67-0.43-9.62-1.33-19.41-2.64-29q-0.21-1.54-.43-3.07-0.2-1.37-.41-2.72l0-.18a251.9,251.9,0,0,0-8.67-37.92V557h0c1.63,5,3.14,10.65,4.49,16.4A313.28,313.28,0,0,1,5574,629.86Z" transform="translate(-5231.65 -198.42)"/>
      <path class="cls-3" d="M5562,393.11q-1.82-.45-3.66-0.86l2.08,0.47q0.9,0.21,1.8.45l0.3,0.08,2.35,0.62,0.13,0c3.21,0.89,6.35,1.89,9.39,3h0v0c-2.23-.83-4.52-1.59-6.85-2.29-1.66-.5-3.35-1-5.05-1.4Z" transform="translate(-5231.65 -198.42)"/>
      <path class="cls-3" d="M5574.15,397.74l0.54-.53c-0.19.18-.37,0.38-0.55,0.56v0h0Z" transform="translate(-5231.65 -198.42)"/>
      <path class="cls-3" d="M5635,430.86l0.78,0.39-0.08.08c-0.25-.14-0.49-0.31-0.73-0.43Z" transform="translate(-5231.65 -198.42)"/>
      <path class="cls-3" d="M5656.29,441.19a3.35,3.35,0,0,1-.69-0.09l-0.12-.06,0.12-.18Z" transform="translate(-5231.65 -198.42)"/>
      <g>
        <g id="_Group_" data-name="&lt;Group&gt;">
          <path class="cls-4" d="M5569.48,369l-10-106.71c-0.75-27.82-25.51-50.32-55.89-50.32-14.66,0-35.06,2.23-37.59,20a10.75,10.75,0,0,1-2.52.43c-7.91,1.65-11.43,10-13.45,16.9-2.54,8.68-12.31,119.74-12.38,119.74h0a0.15,0.15,0,0,0,0,.12c0,3.8,29.52,6.87,65.94,6.87s65.94-3.06,65.94-6.86a0.17,0.17,0,0,0,0-.12h0Zm-115.3-73.16c5.48-4.3,9.48-9.89,13-15.42,5-7.86,10.63-15.73,18.12-21.76a5.17,5.17,0,0,1,2.41-1.17,5,5,0,0,1,2.51.56c17.49,7.71,27.21,24.17,40.82,36.07a71.6,71.6,0,0,0,13.28,9.13,77.56,77.56,0,0,0,7.51,3.48c-2.49,11.82-4.25,24.24-10.58,34.85a78.22,78.22,0,0,1-11.43,14.81q-0.18.2-.36,0.36a55.38,55.38,0,0,1-6.71,5.75c-6.07-.2-12.51-0.3-19.18-0.3s-13.16.1-19.24,0.3a57.93,57.93,0,0,1-7.1-6.12,71.07,71.07,0,0,1-11.42-14.47c-7-11.74-8.39-25.4-11.36-38.4a2.48,2.48,0,0,1,0-.29" transform="translate(-5231.65 -198.42)"/>
          <path id="_Compound_Path_" data-name="&lt;Compound Path&gt;" class="cls-4" d="M5505.32,369h2.24a9.89,9.89,0,0,0,2.36-.47A22.64,22.64,0,0,1,5505.32,369Zm-5.88,0h2.24a22.64,22.64,0,0,1-4.59-.47A9.89,9.89,0,0,0,5499.44,369Zm-45-65.71a0.12,0.12,0,0,0,0-.07,2.09,2.09,0,0,0,0,.29c3,13,4.41,26.65,11.37,38.4a71.38,71.38,0,0,0,11.43,14.47,78.33,78.33,0,0,1-11.43-14.81C5458.81,329.9,5457.36,316.21,5454.4,303.29Z" transform="translate(-5231.65 -198.42)"/>
          <path id="_Path_" data-name="&lt;Path&gt;" class="cls-4" d="M5470.63,221.78h0Z" transform="translate(-5231.65 -198.42)"/>
        </g>
        <rect class="cls-5" x="254.63" y="161.87" width="33.51" height="38.46"/>
        <path class="cls-6" d="M5551.8,306.73c-2.49,11.82-4.26,24.24-10.58,34.85a78.33,78.33,0,0,1-11.43,14.81l-0.36.36c-5.63,5.4-12.35,9.9-19.52,11.68a23.55,23.55,0,0,1-2.36.47c-0.74.13-1.48,0.22-2.24,0.28s-1.22.08-1.83,0.08-1.21,0-1.82-.08-1.49-.15-2.24-0.28a23.55,23.55,0,0,1-2.36-.47c-7.33-1.82-14.18-6.48-19.89-12a71.38,71.38,0,0,1-11.43-14.47c-7-11.74-8.4-25.41-11.37-38.4a2.09,2.09,0,0,1,0-.29,2.28,2.28,0,0,1,0-.3,9.12,9.12,0,0,1,0-2.61v-4.47c5.48-4.3,9.47-9.89,13-15.42,5-7.87,10.57-15.73,18.06-21.76a3.93,3.93,0,0,1,4.88-.61c17.49,7.72,27.2,24.17,40.81,36.07a71.47,71.47,0,0,0,13.28,9.13A75.71,75.71,0,0,0,5551.8,306.73Z" transform="translate(-5231.65 -198.42)"/>
        <g>
          <path class="cls-7" d="M5550,304.68c0,11-9.26,19.89-20.66,19.89-11,0-20-8.29-20.65-18.75a4.38,4.38,0,0,0-1.93-1.07,7,7,0,0,0-1.54-.36c-0.55-.08-1.12-0.1-1.69-0.14s-1.14.05-1.69,0.14a7.69,7.69,0,0,0-1.54.36,5.37,5.37,0,0,0-1.24.53,3.2,3.2,0,0,0-.69.54c-0.61,10.46-9.62,18.75-20.63,18.75-11.41,0-20.67-8.9-20.67-19.89s9.26-19.86,20.67-19.86c10.82,0,19.71,8,20.59,18.19a10.47,10.47,0,0,1,1.16-.28c0.65-.14,1.32-0.22,2-0.29a19.08,19.08,0,0,1,2-.08,14.71,14.71,0,0,1,2,.1,17.58,17.58,0,0,1,2,.28c0.4,0.07.79,0.18,1.17,0.28,0.88-10.19,9.76-18.2,20.6-18.2C5540.74,284.82,5550,293.7,5550,304.68Z" transform="translate(-5231.65 -198.42)"/>
          <path class="cls-4" d="M5529.35,284.82c-10.84,0-19.72,8-20.6,18.2-0.39-.1-0.78-0.21-1.17-0.28a17.58,17.58,0,0,0-2-.28,14.71,14.71,0,0,0-2-.1,19.08,19.08,0,0,0-2,.08c-0.67.07-1.35,0.16-2,.29a10.47,10.47,0,0,0-1.16.28c-0.88-10.19-9.77-18.19-20.59-18.19-11.41,0-20.67,8.89-20.67,19.86s9.26,19.89,20.67,19.89c11,0,20-8.29,20.63-18.75a3.2,3.2,0,0,1,.69-0.54,5.37,5.37,0,0,1,1.24-.53,7.69,7.69,0,0,1,1.54-.36c0.55-.08,1.12-0.1,1.69-0.14s1.14,0.05,1.69.14a7,7,0,0,1,1.54.36,4.38,4.38,0,0,1,1.93,1.07c0.61,10.46,9.62,18.75,20.65,18.75,11.4,0,20.66-8.9,20.66-19.89S5540.74,284.82,5529.35,284.82Zm-33.19,22.41a18.37,18.37,0,0,1-18.41,15.36c-10.27,0-18.59-8-18.59-17.91s8.32-17.89,18.59-17.89c10,0,18.11,7.54,18.58,17,0,0.29,0,.58,0,0.88A16.54,16.54,0,0,1,5496.16,307.23Zm33.19,15.36a18.37,18.37,0,0,1-18.41-15.38,16.5,16.5,0,0,1-.19-2.53c0-.29,0-0.58,0-0.85,0.47-9.49,8.6-17,18.58-17,10.27,0,18.59,8,18.59,17.89S5539.61,322.59,5529.35,322.59Z" transform="translate(-5231.65 -198.42)"/>
        </g>
      </g>
      <path class="cls-4" d="M5574.44,650.77c0,0.74,0,1.49,0,2.22,0,1.24,0,2.46,0,3.68,0,1.93-.07,3.84-0.12,5.74l-0.06,2.13c-0.15,4.77-.37,9.43-0.62,13.91l0,0.5c-0.33,5.69-.73,11.11-1.16,16.17q-3.61,1-7.28,1.86a256.37,256.37,0,0,1-126.57-1.78c-1.48-.4-3-0.82-4.42-1.25-0.23-4.4-.59-8.63-0.77-12.85a2.53,2.53,0,0,1,0-.28c0-.63,0-1.25,0-1.87,0-.17,0-0.33,0-0.5-0.74-24.6,0-47.09,1.91-64.65,2.63-23.76,7-41.06,10.81-52.71l8,0.64L5507.57,576l3.54-11.68a5.48,5.48,0,0,0,1.65-.27,5.38,5.38,0,0,0,.88-0.4h0l0.82,1.79s35.38,0.09,47-7.88a119,119,0,0,1,4.64,16c0.51,2.15,1.06,4.35,1.53,6.58,0.25,1.14.51,2.31,0.74,3.47,0.2,1,.4,2,0.59,3,0.15,0.83.32,1.66,0.46,2.49a315.92,315.92,0,0,1,4.55,40.79c0.16,3.32.3,6.63,0.36,9.91C5574.38,643.47,5574.44,647.14,5574.44,650.77Z" transform="translate(-5231.65 -198.42)"/>
      <path class="cls-3" d="M5433.34,680.82c0-.62,0-1.25-0.07-1.87h0C5433.3,679.57,5433.32,680.19,5433.34,680.82Z" transform="translate(-5231.65 -198.42)"/>
      <g>
        <path class="cls-8" d="M5434.13,694l-0.22-.06q-0.33-6.46-.55-12.79C5433.54,685.32,5433.9,689.55,5434.13,694Z" transform="translate(-5231.65 -198.42)"/>
        <path class="cls-8" d="M5561,557.29h0s0.3,0.08.32,0.12,0.06,0.11.08,0.16c-11.58,8-46.95,7.88-46.95,7.88l-0.81-1.79h0a5.37,5.37,0,0,1-.88.4,5.48,5.48,0,0,1-1.65.27L5507.57,576,5454,561.73l-8-.64c0.15-.47.31-0.93,0.46-1.38a116.77,116.77,0,0,1,6.38-15.53c0.72-1.39,1.14-2.06,1.14-2.06l20.25-2.81,1.66-.31h0l7.43-.89,2.54-.11h1l12-1.88,0-.12h0l10.59-1h0l8.11-1h2.42l0.31-.29,0.1-.09,0-.19,0-.15,0.62-.29h0l26.69-3.57c5.19,5.59,9.92,15.43,13.9,27.72a1,1,0,0,0-.14.07,3.51,3.51,0,0,0-.4,0Z" transform="translate(-5231.65 -198.42)"/>
        <path class="cls-4" d="M5574.36,396.94l-0.26.86-12.05,39-12.73,41.13-11.94.07h-18.63l-11.87-.38-7.11-.2-14.24-.24-26-.36c-2-7.29-4.26-15-6.54-22.67-1.62-5.47-3.27-10.92-4.87-16.14-6.3-20.55-11.88-37.77-12.82-40.62l0-.13-0.09-.29h0l0.08,0c1-.24,10-2.31,23.44-4.39l0.4-.06,3.09-.47c3.53-.54,7.08-1,10.63-1.42a39.26,39.26,0,0,1,5.75-.69c1.68,0.06,3.22,1.1,4.64,1.9a93.46,93.46,0,0,0,8.76,4.15,25.6,25.6,0,0,0,14,2.83,7.21,7.21,0,0,0,2.72-.39c0.69-.29,1.27-0.79,2-1.06a7.65,7.65,0,0,1,2.28-.35c5.94-.41,11.49-3,16.71-5.93,1.63-.9,3.64-2.26,5.56-2.34a41.44,41.44,0,0,1,5.93.72c1.14,0.12,2.27.28,3.4,0.43l1,0.13,0.1,0q6.29,0.87,12.37,2.21l0.29,0.07,2.08,0.47q0.9,0.21,1.8.45l0.3,0.08,2.35,0.62,0.13,0C5568.17,394.78,5571.31,395.78,5574.36,396.94Z" transform="translate(-5231.65 -198.42)"/>
        <path class="cls-9" d="M5574.39,397l-0.31.76H5574v0l0,0.06-0.19.76-10,34.27c4.17,6.32,5.19,11.68,4.19,16.13v0c0,4.51-3,8.08-5.7,10.73a31.16,31.16,0,0,1-5.3,4.18c-0.52.32-.92,0.59-1.33,0.81s-0.59.27-.79,0.38c-0.53.26-.89,0.39-0.89,0.39h0L5541.69,508,5563,556.43h0a1.51,1.51,0,0,0-1.06.8,0.15,0.15,0,0,0-.07,0c-0.15.11-.3,0.23-0.46,0.33-11.58,8-47,7.88-47,7.88l-0.82-1.79h0l-1.39-3h0L5505,544.79l-8.3,16.45-1.9,3.76L5454,561.73l-8-.64-1.09-.09,0.63-1.54,6.36-15.52,9.6-23.45,5-12.24L5454,466.17a51.86,51.86,0,0,1-7-4.55,27.37,27.37,0,0,1-6.57-7c-7.68-12.35,5.23-22.72,5.23-22.72l-10.3-34.59,0-.13-0.09-.29h0l0.08,0,23.44-4.39,0.39-.07h0l37,69.55,3.13,5.89,1.23,2.31,0.81,1.52,1.15-2.12,1-1.79,2.21-4.08,0.09-.13L5545.54,390h0.11l2.47,0.35,1.29,0.2,0.57,0.09,1.75,0.3c1.77,0.31,3.52.66,5.25,1a134.53,134.53,0,0,1,15.68,4.36l0.17,0.06,1.53,0.54V397h0Z" transform="translate(-5231.65 -198.42)"/>
        <path class="cls-10" d="M5502,398.56l-20.46,20.85A311.86,311.86,0,0,1,5462.22,392c-2.27-3.59,23.62-17.69,23.62-17.69a50.77,50.77,0,0,0,5.85,14.47C5494.15,392.75,5497.52,396.54,5502,398.56Z" transform="translate(-5231.65 -198.42)"/>
        <path class="cls-10" d="M5542.06,392a311.86,311.86,0,0,1-19.35,27.44l-20.46-20.85c4.83-2.16,8.56-6.34,11.3-10.63a56,56,0,0,0,6.19-13.52s17,9.66,21.42,15C5542.06,390.47,5542.44,391.37,5542.06,392Z" transform="translate(-5231.65 -198.42)"/>
        <g>
          <path class="cls-8" d="M5508.87,473.95c0,2.44-2.46,4.43-5.48,4.43s-5.48-2-5.48-4.43,2.45-4.42,5.48-4.42S5508.87,471.5,5508.87,473.95Z" transform="translate(-5231.65 -198.42)"/>
          <path class="cls-8" d="M5509.56,504.3c0,2.44-2.46,4.43-5.48,4.43s-5.48-2-5.48-4.43,2.45-4.42,5.48-4.42S5509.56,501.86,5509.56,504.3Z" transform="translate(-5231.65 -198.42)"/>
          <path class="cls-8" d="M5509.56,534.66c0,2.44-2.46,4.42-5.48,4.42s-5.48-2-5.48-4.42,2.45-4.43,5.48-4.43S5509.56,532.22,5509.56,534.66Z" transform="translate(-5231.65 -198.42)"/>
        </g>
        <polygon class="cls-11" points="308.09 271.92 305.7 279.76 305.66 279.9 288.55 336.25 288.54 336.27 288.48 336.3 288.35 336.54 288.35 336.55 287.35 342.15 287.35 342.17 286.16 345.43 280.35 363.88 280.35 363.89 279.1 367.66 275.46 379.52 221.07 365.02 213.35 362.97 212.41 362.71 190.62 356.9 194.87 339.77 202.41 309.4 213.84 263.33 215.93 254.94 219.99 255.69 263.8 263.71 273.44 265.28 273.53 265.23 287.86 267.58 287.87 267.58 305.67 271.58 305.68 271.58 308.09 271.92"/>
        <g>
          <path class="cls-9" d="M5487.38,534.06l-1.52,3.89-3.7,9.46,0,0.05-0.74,1.88-0.29.74-2-.36h-0.19l-0.59-.11c-2.16-.39-4.29-0.79-6.37-1.2l-1.83-.35q-9.2-1.83-17.25-3.86l-0.94-.24c-8.82-2.24-16.66-4.63-23.62-7.07-38.83-13.61-50.16-28.84-50.16-28.84,8.34-57.55,57.07-111.11,57.07-111.11,9.75,5,15.3,33,15.3,33a61.88,61.88,0,0,1-2.35,8,123,123,0,0,1-7.75,16.69C5429,475.37,5412.9,495,5412.9,495L5435.69,507l25.8,13.52,17.41,9.13,1,0.53,7.23,3.79Z" transform="translate(-5231.65 -198.42)"/>
          <path class="cls-9" d="M5487.38,534.06l-6.27,16c-3.8-.65-7.47-1.34-11-2l8.82-18.42Z" transform="translate(-5231.65 -198.42)"/>
        </g>
        <path class="cls-4" d="M5681.29,425.67c-5.92,5.13-15,5.93-22.07,9.54-0.41.2-.8,0.42-1.19,0.64-0.15.09-.3,0.17-0.45,0.27a42,42,0,0,0-4.88,3.35h0l-0.33.27c-4.9,3.92-8.85,8.54-13.3,13a0.52,0.52,0,0,1-.13.41,14.07,14.07,0,0,1-1.71,1.45c-0.09.1-.19,0.19-0.3,0.3a0.34,0.34,0,0,1-.28.11c-3.74,2.42-8.61,3.06-10.93-1.36-2.07-4,1.3-9.29,4.79-13.61a7,7,0,0,0,2.5-1.85c1.44-1.65,3.23-3.54,5.21-5.54l0.16-.16c1.73-1.74,3.58-3.55,5.46-5.35l0.84-.8h0l1-.91a14,14,0,0,1,4.45-13.47c4.71-4,3.49-12.4,4.82-14.06,6.47,0.75,5.23,6.25,3.29,11.77-0.62,1.76-1.07,4.5,2,3.15a18,18,0,0,0,6.55-5.13,32.47,32.47,0,0,0,4.57-8,6.64,6.64,0,0,1,2.81-3.68,8.22,8.22,0,0,1,3.52-.66,31.82,31.82,0,0,1,9,1.09,7.71,7.71,0,0,1,3.88,2,5.35,5.35,0,0,1,1,2.93C5692.57,410.2,5688.73,419.24,5681.29,425.67Z" transform="translate(-5231.65 -198.42)"/>
        <g>
          <path class="cls-1" d="M5499.64,419.71a3.13,3.13,0,1,0,3.14-3.1A3.11,3.11,0,0,0,5499.64,419.71Z" transform="translate(-5231.65 -198.42)"/>
          <path class="cls-1" d="M5499.64,444.44a3.13,3.13,0,1,0,3.14-3.09A3.11,3.11,0,0,0,5499.64,444.44Z" transform="translate(-5231.65 -198.42)"/>
        </g>
        <path class="cls-9" d="M5621.72,481.88c-0.87.86-1.75,1.69-2.67,2.49Q5620.4,483.15,5621.72,481.88Z" transform="translate(-5231.65 -198.42)"/>
        <path class="cls-4" d="M5522.85,546.81a14.82,14.82,0,0,1-1.75,8.21,28.06,28.06,0,0,1-5.15,6.74,11,11,0,0,1-2.31,1.9,5.38,5.38,0,0,1-.88.4,5.48,5.48,0,0,1-1.65.27,14.75,14.75,0,0,1-2.65-.23,46.69,46.69,0,0,1-11.73-2.86q-0.72-.32-1.41-0.66c-3.54-1.8-6.52-4.49-9.45-7.16l-4.46-4.08-0.12-.12,0,0a3,3,0,0,1-1-1.29,2.81,2.81,0,0,1,0-1.32,30.93,30.93,0,0,1,3-8.41c0.06-.13.13-0.25,0.2-0.37a10.41,10.41,0,0,1,2.06-3.07,5.7,5.7,0,0,1,1.56-.79s0,0,0,0a18.79,18.79,0,0,1,1.85-.55c0.68-.16,1.33-0.32,1.88-0.5a30.45,30.45,0,0,1,6.56-1.64,8.73,8.73,0,0,1,2.84.22c1,0.22,1.92.54,3,.75q2.94,0.59,5.91.91a65.39,65.39,0,0,0,11.28.3,0,0,0,0,0,0,0l0.69,0a2.46,2.46,0,0,1,.94.06c1,0.35,1,1.82.55,2.76a6.68,6.68,0,0,1-4,3l-0.67.19c-1.89.48-3.85,0.54-5.75,0.94q2.74,1,5.45,2.09c0.79,0.32,1.58.65,2.36,1a4.81,4.81,0,0,1,2.09,1.4A4.14,4.14,0,0,1,5522.85,546.81Z" transform="translate(-5231.65 -198.42)"/>
        <path class="cls-10" d="M5471.76,548.75l9.15,1.22,8.43-17.27c-3.1-1-6.19-2-9.23-3C5477.57,535.22,5474,543.4,5471.76,548.75Z" transform="translate(-5231.65 -198.42)"/>
        <path class="cls-9" d="M5658.42,436.66s-1,1.58-2.81,4.2l-0.12.18-0.63.93a267.05,267.05,0,0,1-19.88,25.6l-0.24.28q-5,5.67-10.2,11.14c-0.91,1-1.82,1.9-2.75,2.82l-0.07.07q-1.32,1.27-2.67,2.49A141,141,0,0,1,5601.6,498a123.83,123.83,0,0,1-14-14.32l-0.31-.38c-0.62-.78-1.23-1.56-1.83-2.36a90.81,90.81,0,0,1-6.68-11.25q-0.9-1.71-1.77-3.42c-2.92-5.71-5.66-11.48-8.53-17.2-1-2.08-2.09-4.16-3.18-6.22s-2.14-4-3.27-6c0,0,0,0,0,0-0.71-1.24-3.45-4.33-3.29-5.6,1.59-12.5,5.34-23.21,15.34-33.36l0,0h0l0.54-.53c1.15,1.6,2.27,3.21,3.35,4.81s2.15,3.2,3.18,4.79c0.52,0.8,1,1.6,1.53,2.39q1.52,2.38,2.92,4.72A298.46,298.46,0,0,1,5608,459.07l-0.3.85,27.16-27.73,0.89-.86,0.08-.08,5.72-5.58,2.33,1.51,13.75,8.94Z" transform="translate(-5231.65 -198.42)"/>
        <path class="cls-9" d="M5578.82,469.64a90.81,90.81,0,0,0,6.68,11.25,67.48,67.48,0,0,1-8.45-14.67Q5577.92,467.93,5578.82,469.64Z" transform="translate(-5231.65 -198.42)"/>
        <path class="cls-9" d="M5634.74,467.85a163.43,163.43,0,0,1-13,14c0.93-.92,1.84-1.87,2.75-2.82Q5629.76,473.53,5634.74,467.85Z" transform="translate(-5231.65 -198.42)"/>
        <path class="cls-10" d="M5659.68,434s-0.16.44-.46,1.08c-0.53,1.12-1.51,3.23-2.84,6.07l-0.09,0a3.31,3.31,0,0,1-.69-0.08s-0.08,0-.12,0a6.68,6.68,0,0,0-2.78-1.06h0a1,1,0,0,1-.33-0.24c-4.42-2.88-9.6-4.8-14-7l-0.16-.09c-0.84-.43-1.66-0.93-2.43-1.32l-0.08,0c-0.25-.14-0.49-0.31-0.73-0.43l0,0c1.77-2.21,3.57-4.66,5.4-6.9l4.27,2h0Z" transform="translate(-5231.65 -198.42)"/>
        <rect class="cls-1" x="293.75" y="223.59" width="34.93" height="34.93" rx="17.47" ry="17.47"/>
      </g>
      <g>
        <circle id="leftEye" class="cls-4" cx="248.46" cy="105.45" r="6.5"/>
        <circle id="leftEyeShine" class="cls-1" cx="246.6" cy="104.24" r="2.03"/>
        <circle id="rightEye" class="cls-4" cx="295.32" cy="105.45" r="6.5"/>
        <circle id="rightEyeShine" class="cls-1" cx="293.29" cy="104.24" r="2.03"/>
        <path id="mouth" class="cls-12" d="M5515.27,342a11.58,11.58,0,1,1-23.17,0h23.17Z" transform="translate(-5231.65 -198.42)"/>
      </g>
    </g>
  </g>
</svg>
