<?xml version="1.0" encoding="utf-8"?>
<!-- Generator: Adobe Illustrator 19.2.1, SVG Export Plug-In . SVG Version: 6.00 Build 0)  -->
<svg version="1.1" id="Layer_1" xmlns="http://www.w3.org/2000/svg" xmlns:xlink="http://www.w3.org/1999/xlink" x="0px" y="0px"
	 viewBox="0 0 960 560" style="enable-background:new 0 0 960 560;" xml:space="preserve">
<style type="text/css">
	.st0{fill:#FFFFFF;}
	.st1{fill:none;}
	.st2{fill:url(#SVGID_1_);}
	.st3{fill:#D24C27;}
	.st4{fill:#B63F21;}
	.st5{fill:#A12918;}
	.st6{fill:#882216;}
	.st7{fill:#E7904D;}
	.st8{fill:#EA8744;}
	.st9{fill:url(#SVGID_2_);}
	.st10{fill:#F9D38C;}
	.st11{fill:#F8C05F;}
	.st12{opacity:0.2;fill:#F6AB58;enable-background:new    ;}
	.st13{opacity:0.8;fill:#F4AE69;enable-background:new    ;}
	.st14{fill:#FAB951;}
	.st15{fill:#FABA50;}
	.st16{fill:#FDF489;}
	.st17{fill:#FEF5BE;}
	.st18{fill:url(#SVGID_3_);}
	.st19{fill:#FDBB53;}
	.st20{fill:url(#SVGID_4_);}
	.st21{fill:#F08D38;}
	.st22{fill:url(#SVGID_5_);}
	.st23{fill:#F69E3A;}
	.st24{fill:#E15625;}
	.st25{fill:url(#SVGID_6_);}
	.st26{fill:#611F12;}
	.st27{fill:#B14626;}
	.st28{opacity:0.5;fill:url(#SVGID_7_);enable-background:new    ;}
	.st29{fill:#9F522D;}
	.st30{fill:#E0A144;}
	.st31{fill:#C36F31;}
	.st32{fill:url(#SVGID_8_);}
	.st33{fill:#8D3F1C;}
	.st34{opacity:0.9;fill:#6E1A0F;enable-background:new    ;}
	.st35{opacity:0.4;fill:url(#SVGID_9_);enable-background:new    ;}
	.st36{fill:#6E1A0F;}
	.st37{fill:#CA7A49;}
	.st38{opacity:0.2;fill:url(#SVGID_10_);enable-background:new    ;}
	.st39{fill:url(#SVGID_11_);}
	.st40{fill:url(#SVGID_12_);}
	.st41{fill:#E87A2F;}
	.st42{fill:#92B9D1;}
	.st43{fill:none;stroke:#92B9D1;stroke-width:12;stroke-miterlimit:10;}
	#spinner_1 {
		transform-origin: 50% 50%;
		animation: slowrotate 1.5s ease-in-out infinite;
		z-index: 1;
	}

	#spinner_2 {
		transform-origin: 50% 50%;
		animation: slowrotate 1.5s ease-in-out reverse infinite;
		z-index: 2;
	}

	#CoRover {
		transform-origin: 50% 50%;
		animation: heartbeat 1.5s reverse infinite;
		z-index: 3;
	}

  @keyframes slowrotate {
    0% {
		transform: rotate(0deg);
	}
	100% {
		transform: rotate(360deg);
	}
  }

  @keyframes heartbeat {
     0% {
    transform: scale(1);
	}
	25% {
		transform: scale(1.1);
	}
	40% {
		transform: scale(1);
	}
	60% {
		transform: scale(1.1);
	}
	100% {
		transform: scale(1);
	}
  }
</style>
<g id="CoRover">
	<g>
		<polygon class="st0" points="585.8,314 562.6,345.5 575.5,382.6 538.3,370.3 507.1,394 507.3,354.8 475.1,332.4 512.4,320.5 
			523.7,283 546.6,314.8 		"/>
		<circle class="st0" cx="480" cy="279.5" r="113.6"/>
	</g>
	<g>
		<g>
			<g>
				<path class="st1" d="M559,328.5"/>
				<path class="st1" d="M530,358.1"/>
				
					<linearGradient id="SVGID_1_" gradientUnits="userSpaceOnUse" x1="531.9281" y1="279.5574" x2="495.0528" y2="274.1774" gradientTransform="matrix(1 0 0 -1 0 560)">
					<stop  offset="1.075270e-002" style="stop-color:#F69453"/>
					<stop  offset="1" style="stop-color:#FFFFAE"/>
				</linearGradient>
				<path class="st2" d="M598,382.1l-0.1-0.5l-3.9-14.7l-0.2-0.9l-7.9-29.7l-0.1-0.5l-0.7-2.5c1.1-2,2.1-4.1,3.1-6.3
					c0.3-0.6,0.5-1.2,0.7-1.7c1.8-4.1,3.3-8.4,4.7-12.9c0.2-0.8,0.4-1.6,0.7-2.3c2.8-9.9,4.3-20.3,4.4-31.1c0-0.5,0-1,0-1.6
					c0-0.4,0-0.8,0-1.2c0-1.7-0.1-3.3-0.1-5c0-0.1,0-0.1,0-0.2c-0.1-1.2-0.1-2.5-0.3-3.8c0-0.1,0-0.3,0-0.4
					c-0.2-2.4-0.5-4.8-0.9-7.2c0-0.1,0-0.2-0.1-0.3c-1-6.6-2.5-13.1-4.5-19.3c-0.1-0.1-0.1-0.3-0.1-0.5c-0.6-1.7-1.2-3.4-1.8-5.1
					c0-0.1-0.1-0.1-0.1-0.2c-2.3-5.9-4.9-11.6-8-17c-0.1-0.1-0.1-0.1-0.1-0.2c-6.4-11.1-14.6-21.2-24-29.7c-0.1-0.1-0.2-0.1-0.3-0.2
					c-8.1-7.3-17.2-13.5-27.1-18.3c0,0,0,0-0.1,0c-16.2-8-34.3-12.4-53.6-12.4c-6.3,0-12.4,0.5-18.5,1.4c-0.7,0.1-1.5,0.2-2.3,0.4
					c-5.3,0.9-10.5,2.2-15.5,3.8c-2.2,0.7-4.4,1.5-6.5,2.3c-15.1,5.7-28.7,14.3-40.3,25.2l0,0c-0.1,0.1-0.1,0.1-0.1,0.1l0,0
					c-1.4,1.3-2.8,2.7-4.1,4.1c-0.2,0.2-0.4,0.4-0.6,0.6l-0.1,0.1l0,0c-12.1,12.8-21.5,28.2-27.1,45.3l0,0c-0.4,1.3-0.9,2.6-1.2,4
					c0,0.1,0,0.1-0.1,0.1c-1.5,5.2-2.7,10.6-3.5,16l0,0c-0.2,1.6-0.4,3.2-0.6,4.8v0.1c-0.4,4.2-0.7,8.5-0.7,12.9
					c0,2.7,0.1,5.4,0.3,8.1c0,0.2,0,0.4,0.1,0.7c0.4,5.6,1.2,11.1,2.3,16.4c0,0.2,0.1,0.4,0.1,0.6c4.2,19.6,13.2,37.4,25.8,52.2
					c0.2,0.2,0.4,0.5,0.6,0.7c10.3,12.1,23,22.1,37.3,29.3c0.1,0.1,0.1,0.1,0.2,0.1c6.6,3.3,13.5,6.1,20.8,8.1
					c0.2,0.1,0.5,0.1,0.7,0.2s0.5,0.1,0.7,0.2c0.7,0.2,1.4,0.4,2.1,0.6c9.6,2.5,19.7,3.8,30.1,3.8c20.7,0,40.2-5.2,57.2-14.3h0.1
					h0.1l18,4.9l1.8,0.5l23.1,6.4l0.4,0.1l25.3,7L598,382.1z M573.5,279.2c-0.1,8.1-1.3,16.1-3.3,23.6c-1.1,4.1-2.5,8.1-4.1,12
					c-0.1,0.4-0.4,0.8-0.5,1.2c-1.9,4.3-4.1,8.4-6.5,12.4l1.9,7.3l0,0v0.1l2.3,8.6l0,0l3.9,14.8l2.6,9.9l-6.1-1.7l-0.3-0.1l-3.3-0.9
					l-30-8.3c-1.6,1.1-3.3,2-4.9,3.1l0,0c-7.6,4.4-15.9,7.7-24.7,9.8c-0.4,0.1-0.7,0.1-1.1,0.3c-2.3,0.5-4.5,0.9-6.8,1.3
					c-4.8,0.7-9.7,1.1-14.7,1.1c-5.8,0-11.6-0.5-17.1-1.5c-0.2-0.1-0.5-0.1-0.7-0.1c-8.4-1.6-16.4-4.3-23.9-7.9
					c-7.9-3.8-15.1-8.7-21.6-14.3c-0.6-0.5-1.2-1-1.7-1.6c-13.6-12.5-23.6-29-28.1-47.5c-0.1-0.3-0.1-0.5-0.2-0.8
					c-1.1-4.7-1.9-9.4-2.3-14.3c0-0.3-0.1-0.6-0.1-0.9c-0.1-2.3-0.3-4.7-0.3-7.1c0-4.1,0.3-8.1,0.7-12.1v-0.1
					c0.1-1.5,0.4-2.9,0.7-4.4c0,0,0,0,0-0.1c0.9-5.3,2.3-10.5,4-15.4v-0.1c0.4-1.3,0.9-2.5,1.5-3.9c0.1-0.1,0.1-0.3,0.2-0.4
					c0-0.1,0.1-0.1,0.1-0.2l0,0c6.5-15.7,17-29.2,30.3-39.5c0.1-0.1,0.4-0.3,0.5-0.4c1.6-1.2,3.2-2.3,4.8-3.4l0,0
					c0.1-0.1,0.1-0.1,0.2-0.1c0.2-0.1,0.5-0.3,0.7-0.5c2.3-1.5,4.7-2.9,7.1-4.1c0.5-0.3,1-0.6,1.5-0.8c13.1-6.7,27.9-10.5,43.7-10.5
					c0.1,0,0.3,0,0.4,0c1.1,0,2.1,0,3.2,0.1c14.4,0.5,28,4.2,40.2,10.5c0.1,0.1,0.1,0.1,0.2,0.1c5.8,3,11.3,6.6,16.4,10.7
					c3.6,2.9,7,6.1,10.2,9.5l0.1,0.1c0.1,0.1,0.1,0.1,0.1,0.1c4.5,4.9,8.6,10.4,12,16.2c0.3,0.4,0.5,0.9,0.8,1.4
					c0.4,0.8,0.9,1.6,1.4,2.5c0.1,0.3,0.3,0.6,0.4,0.9c2.2,4.1,4,8.5,5.5,13c0.4,1.2,0.8,2.5,1.2,3.8c0.7,2.3,1.2,4.5,1.7,6.8
					c0,0.1,0,0.1,0,0.1c0.7,3,1.2,6,1.5,9.1c0,0,0,0,0,0.1c0.1,1.5,0.3,2.9,0.4,4.4c0,0,0,0,0,0.1c0.1,1.8,0.2,3.7,0.2,5.5
					c0,0.4,0,0.8,0,1.2C573.5,278.2,573.5,278.7,573.5,279.2z"/>
				<path class="st1" d="M585,333.5"/>
				<path class="st1" d="M534.8,384.4"/>
				<path class="st3" d="M531.1,169l-6.3,16c0,0-54.3-14.6-68-26.6c0.7-0.1,1.5-0.2,2.3-0.4c6-0.9,12.2-1.4,18.5-1.4
					C496.8,156.6,515,161,531.1,169z"/>
				<path class="st4" d="M524.8,184.9l-3.3,7.3c-12.2-6.3-25.9-10-40.4-10.6c-1.1-0.1-2.1-0.1-3.2-0.1l-43.1-17.3
					c2.1-0.8,4.3-1.5,6.5-2.3c5.7-1.8,11.6-3.2,17.8-4.1L524.8,184.9z"/>
				<path class="st5" d="M481.8,181.5l-0.7,0.1c-1.2-0.1-2.4-0.1-3.6-0.1c-15.7,0-30.6,3.8-43.7,10.5c-0.5,0.3-1,0.5-1.5,0.8
					l-2.2-4.2l10.1-22.6L481.8,181.5z"/>
				<path class="st6" d="M433.9,192.2l7.4-30c-17.8,5.5-33.8,15.1-46.9,27.6l30.2,7.9L433.9,192.2z"/>
				<polygon class="st7" points="603.6,403.4 577.9,396.3 597.8,381.6 				"/>
				<polygon class="st8" points="598,382.1 578.3,396.4 577.9,396.3 552.9,389.4 593.7,366.1 597.8,381.6 				"/>
				
					<linearGradient id="SVGID_2_" gradientUnits="userSpaceOnUse" x1="577.1158" y1="199.5444" x2="568.0436" y2="240.5935" gradientTransform="matrix(1 0 0 -1 0 560)">
					<stop  offset="1.075270e-002" style="stop-color:#F69453"/>
					<stop  offset="1" style="stop-color:#FFFFFF"/>
				</linearGradient>
				<polygon class="st9" points="593.9,366.9 570.3,381.3 563.3,367.4 569.7,369.1 567.1,359.2 563.2,344.4 585.7,335.9 
					593.7,366.1 				"/>
				<path class="st10" d="M585.7,335.9l0.1,0.5c-5.2,2-17.5,6.3-22.6,8l-2.3-8.6l27.9-10.3c-1.2,2.7-2.4,5.4-3.8,8L585.7,335.9z"/>
				<path class="st11" d="M598.6,279.2c-0.1,10.8-1.7,21.2-4.4,31.1c-0.2,0.8-0.4,1.6-0.7,2.3c-7.4,1.5-20.9,2-27.4,2.2
					c1.6-3.9,3.1-7.9,4.1-12c2-7.6,3.2-15.5,3.3-23.6L598.6,279.2L598.6,279.2z"/>
				<path class="st12" d="M594.2,310.3c-1.5,5.2-3.3,10.3-5.4,15.2c-0.2,0.6-0.5,1.2-0.7,1.7l-27.1,8.7v-0.1l0,0l-1.9-7.3
					c2.5-3.9,4.7-8.1,6.5-12.4L594.2,310.3z"/>
				<path class="st13" d="M575.4,330.5l-14.5,5.4l-1.9-7.3c4.9-7.9,8.7-16.4,11.2-25.6L575.4,330.5z"/>
				<path class="st14" d="M598.6,276.5h-25.1c0-1.9-0.1-3.7-0.2-5.6l25.2,0.4C598.6,273,598.6,274.7,598.6,276.5z"/>
				<path class="st15" d="M598.7,277.6c0,0.5,0,1,0,1.6h-25.1c0-0.5,0-1,0-1.6c0-0.4,0-0.8,0-1.2h25
					C598.7,276.8,598.7,277.3,598.7,277.6z"/>
				<path class="st16" d="M598.5,271.5l-25.2-0.5c0,0,0,0,0-0.1c-0.1-1.5-0.2-3-0.4-4.4l25.3,0.7c0.1,1.4,0.2,2.8,0.3,4.1
					C598.5,271.3,598.5,271.4,598.5,271.5z"/>
				<path class="st17" d="M598.3,267.5l-25.3-0.9c0,0,0,0,0-0.1c-0.4-3.1-0.9-6.3-1.5-9.2l26,2.3c0.4,2.5,0.7,4.9,0.9,7.5
					C598.3,267.2,598.3,267.4,598.3,267.5z"/>
				
					<linearGradient id="SVGID_3_" gradientUnits="userSpaceOnUse" x1="569.9473" y1="325.9098" x2="580.3707" y2="313.4689" gradientTransform="matrix(1 0 0 -1 0 560)">
					<stop  offset="1.075270e-002" style="stop-color:#FFFFFF"/>
					<stop  offset="1" style="stop-color:#FFFF4F"/>
				</linearGradient>
				<path class="st18" d="M597.4,260l-26-2.7c-0.8-3.6-1.7-7.1-2.9-10.6l3-12.5l21.2,5.7c2.1,6.4,3.6,13,4.7,19.8
					C597.3,259.7,597.4,259.8,597.4,260z"/>
				<path class="st19" d="M573.3,232.8l-3.6,17.7c-0.4-1.3-0.8-2.5-1.2-3.8c-1.6-4.8-3.6-9.5-6-13.9H573.3z"/>
				
					<linearGradient id="SVGID_4_" gradientUnits="userSpaceOnUse" x1="550.4239" y1="364.6163" x2="557.8817" y2="361.2513" gradientTransform="matrix(1 0 0 -1 0 560)">
					<stop  offset="1.075270e-002" style="stop-color:#FFFFFF"/>
					<stop  offset="1" style="stop-color:#F09015"/>
				</linearGradient>
				<path class="st20" d="M582.7,217.5l-9.7-0.4l-22.6-10.3c0,0,4.3-11.7,7.9-19.6c9.6,8.6,17.8,18.7,24.3,29.9
					C582.6,217.4,582.7,217.5,582.7,217.5z"/>
				<path class="st21" d="M590.8,234.5l-20.5-2.7l4.6-16.2l7.9,1.7C585.8,222.8,588.5,228.5,590.8,234.5z"/>
				
					<linearGradient id="SVGID_5_" gradientUnits="userSpaceOnUse" x1="544.4048" y1="347.6133" x2="550.5325" y2="344.8485" gradientTransform="matrix(1 0 0 -1 0 560)">
					<stop  offset="1.075270e-002" style="stop-color:#FFFFFF"/>
					<stop  offset="1" style="stop-color:#FF9B2A"/>
				</linearGradient>
				<path class="st22" d="M574.8,215.6l-4.3,16.1l-9.4-1.2c-0.3-0.4-0.5-0.9-0.8-1.4c-3.5-5.9-7.6-11.4-12.2-16.4l2.2-5.7
					L574.8,215.6z"/>
				<path class="st23" d="M592.8,240.3l-29.9-6.6c-0.1-0.3-0.3-0.6-0.4-0.9c-0.7-1.3-1.4-2.6-2.2-3.9l30.6,5.7
					c0.7,1.7,1.2,3.4,1.8,5.1C592.7,240,592.7,240.2,592.8,240.3z"/>
				<path class="st24" d="M550.4,206.9l-2.3,5.5c-3.1-3.4-6.5-6.6-10.2-9.5L550.4,206.9z"/>
				
					<linearGradient id="SVGID_6_" gradientUnits="userSpaceOnUse" x1="517.1677" y1="383.3345" x2="552.946" y2="361.3566" gradientTransform="matrix(1 0 0 -1 0 560)">
					<stop  offset="1.075270e-002" style="stop-color:#FFFFFF"/>
					<stop  offset="4.848442e-002" style="stop-color:#FEEEE8"/>
					<stop  offset="0.1354" style="stop-color:#FBCCBA"/>
					<stop  offset="0.2279" style="stop-color:#F8AD91"/>
					<stop  offset="0.3247" style="stop-color:#F6936F"/>
					<stop  offset="0.4269" style="stop-color:#F47E53"/>
					<stop  offset="0.5365" style="stop-color:#F36E3D"/>
					<stop  offset="0.6569" style="stop-color:#F2632E"/>
					<stop  offset="0.7965" style="stop-color:#F15C25"/>
					<stop  offset="1" style="stop-color:#F15A22"/>
				</linearGradient>
				<path class="st25" d="M558.6,187.6l-10.3,25.1c-0.1-0.1-0.1-0.1-0.1-0.1l-0.1-0.1c-3.1-3.4-6.5-6.6-10.2-9.5
					c-5.1-4.1-10.6-7.7-16.4-10.7c-0.1-0.1-0.1-0.1-0.2-0.1l9.9-23.1c9.9,4.9,19,11.1,27.1,18.3
					C558.4,187.5,558.5,187.6,558.6,187.6z"/>
				<path class="st26" d="M424.6,197.6c-1.9,1.2-3.7,2.5-5.5,3.9l-29.3-7.2c1.5-1.6,3.1-3.1,4.7-4.7L424.6,197.6z"/>
				<path class="st27" d="M419.6,201.2c-0.1,0.1-0.4,0.2-0.5,0.4c-13.5,10.3-24.1,24.2-30.5,40.2l-26-2
					c5.7-17.2,15.1-32.6,27.1-45.4c0.2-0.2,0.4-0.4,0.6-0.6l5.2,1.7L419.6,201.2z"/>
				
					<linearGradient id="SVGID_7_" gradientUnits="userSpaceOnUse" x1="388.7822" y1="344.7098" x2="424.5986" y2="344.7098" gradientTransform="matrix(1 0 0 -1 0 560)">
					<stop  offset="1.075270e-002" style="stop-color:#E96800"/>
					<stop  offset="0.2115" style="stop-color:#DE6300"/>
					<stop  offset="0.5149" style="stop-color:#D65F00"/>
					<stop  offset="1" style="stop-color:#D35E00"/>
				</linearGradient>
				<path class="st28" d="M424.6,197.6c-1.7,1.1-3.5,2.4-5,3.6c-0.1,0.1-0.4,0.2-0.5,0.4c-13.2,10.2-23.8,23.8-30.3,39.5
					c-0.1-7.6,0.6-37,0.8-46.6l0,0l4.9-4.9l0,0L424.6,197.6z"/>
				<path class="st29" d="M388.7,241.3c-0.1,0.1-0.1,0.3-0.2,0.4c-0.5,1.2-1,2.5-1.5,3.9l-25.8-1.7c0.4-1.4,0.8-2.8,1.3-4.1l0,0
					L388.7,241.3z"/>
				<path class="st30" d="M387.1,245.6c-1.7,4.9-3.1,10.3-4.1,15.6l-25.2-1.3c0.8-5.5,2-10.8,3.5-16c0-0.1,0-0.1,0.1-0.1
					L387.1,245.6z"/>
				<path class="st31" d="M383.1,261.1l-25.2-1.2c-0.2,1.6-0.4,3.3-0.6,4.9l25.2,0.9L383.1,261.1z"/>
				
					<linearGradient id="SVGID_8_" gradientUnits="userSpaceOnUse" x1="369.9661" y1="275.9764" x2="368.7003" y2="303.8277" gradientTransform="matrix(1 0 0 -1 0 560)">
					<stop  offset="1.075270e-002" style="stop-color:#8B3E00"/>
					<stop  offset="0.1795" style="stop-color:#9E4C00"/>
					<stop  offset="0.3788" style="stop-color:#AD5600"/>
					<stop  offset="0.6179" style="stop-color:#B55C00"/>
					<stop  offset="1" style="stop-color:#B85E00"/>
				</linearGradient>
				<path class="st32" d="M382.3,265.6c-0.5,3.9-0.7,8-0.7,12.1c0,2.7,0.1,5.4,0.4,8l-25.1,0.7c-0.2-2.9-0.3-5.8-0.3-8.7
					c0-4.4,0.2-8.7,0.7-12.9L382.3,265.6C382.4,265.6,382.4,265.6,382.3,265.6z"/>
				<path class="st33" d="M384.4,300.7l-25.2,2.7c-1.2-5.5-2-11.2-2.5-17c0-0.2,0-0.4-0.1-0.7l25.1-0.9c0,0.3,0.1,0.6,0.1,0.9
					C382.4,290.8,383.2,295.8,384.4,300.7z"/>
				<path class="st34" d="M414.3,349.7l-28.7,6.6c-12.8-14.9-22-33-26.3-53c-0.1-0.2-0.1-0.4-0.1-0.6l25.1-2.9
					c0.1,0.3,0.1,0.5,0.2,0.8C389.2,320.1,399.8,337,414.3,349.7z"/>
				
					<linearGradient id="SVGID_9_" gradientUnits="userSpaceOnUse" x1="359.1157" y1="231.8609" x2="414.2669" y2="231.8609" gradientTransform="matrix(1 0 0 -1 0 560)">
					<stop  offset="1.075270e-002" style="stop-color:#944A00"/>
					<stop  offset="1.660131e-002" style="stop-color:#934900;stop-opacity:0.9976"/>
					<stop  offset="0.1543" style="stop-color:#7C2E01;stop-opacity:0.942"/>
					<stop  offset="0.3044" style="stop-color:#6A1A01;stop-opacity:0.8813"/>
					<stop  offset="0.4738" style="stop-color:#5E0B02;stop-opacity:0.8128"/>
					<stop  offset="0.6764" style="stop-color:#560302;stop-opacity:0.7309"/>
					<stop  offset="1" style="stop-color:#540002;stop-opacity:0.6"/>
				</linearGradient>
				<path class="st35" d="M414.3,349.7l-28.7,6.6c-12.8-14.9-22-33-26.3-53c-0.1-0.2-0.1-0.4-0.1-0.6l25.1-2.9
					c0.1,0.3,0.1,0.5,0.2,0.8C389.2,320.1,399.8,337,414.3,349.7z"/>
				<path class="st36" d="M460.4,372.2l-37.3,13.7c-14.3-7.3-27.2-17.4-37.5-29.5c-0.2-0.2-0.4-0.4-0.6-0.7l27.5-7.4
					c0.6,0.5,1.2,1,1.7,1.6C426.9,360.9,443.2,369,460.4,372.2z"/>
				<path class="st37" d="M499.2,371.2l-53.8,23.2c-7.8-2.1-15.2-5-22.3-8.6l37.4-13.8c5.5,1,11.3,1.5,17.1,1.5
					C485,373.6,492.2,372.8,499.2,371.2z"/>
				
					<linearGradient id="SVGID_10_" gradientUnits="userSpaceOnUse" x1="435.8035" y1="180.4568" x2="500.1951" y2="180.4568" gradientTransform="matrix(1 0 0 -1 0 560)">
					<stop  offset="1.075270e-002" style="stop-color:#944A00"/>
					<stop  offset="0.1076" style="stop-color:#A54F00"/>
					<stop  offset="0.266" style="stop-color:#B95600"/>
					<stop  offset="0.4447" style="stop-color:#C85A00"/>
					<stop  offset="0.6585" style="stop-color:#D05D00"/>
					<stop  offset="1" style="stop-color:#D35E00"/>
				</linearGradient>
				<path class="st38" d="M447.4,394.9l52.8-24c-0.4,0.1-0.7,0.1-1.1,0.3c-6.9,1.6-14.1,2.5-21.5,2.5c-5.8,0-11.6-0.5-17.1-1.5
					c-0.2-0.1-0.5-0.1-0.7-0.1c-8.4-1.6-16.4-4.3-23.9-7.9l8.8,30.1L447.4,394.9z"/>
				
					<linearGradient id="SVGID_11_" gradientUnits="userSpaceOnUse" x1="514.5562" y1="197.6013" x2="472.7785" y2="153.0751" gradientTransform="matrix(1 0 0 -1 0 560)">
					<stop  offset="0" style="stop-color:#F69453"/>
					<stop  offset="0.5" style="stop-color:#C76039"/>
				</linearGradient>
				<path class="st39" d="M534.9,384.5h-0.1c-17,9.2-36.5,14.3-57.2,14.3c-10.4,0-20.5-1.3-30.1-3.8c-0.7-0.1-1.4-0.4-2.1-0.6
					c-0.2-0.1-0.5-0.1-0.7-0.2c-0.2-0.1-0.5-0.1-0.7-0.2l48.4-21.5c2.3-0.4,4.6-0.8,6.8-1.3c0.4-0.1,0.7-0.1,1.1-0.3
					c8.8-2.1,17.1-5.5,24.7-9.8C526.3,366,529.7,377.3,534.9,384.5z"/>
				
					<linearGradient id="SVGID_12_" gradientUnits="userSpaceOnUse" x1="545.5123" y1="186.4466" x2="508.6371" y2="181.0666" gradientTransform="matrix(1 0 0 -1 0 560)">
					<stop  offset="1.075270e-002" style="stop-color:#F69453"/>
					<stop  offset="1" style="stop-color:#FFFFAE"/>
				</linearGradient>
				<path class="st40" d="M554.8,389.9l15.5-8.7l-6.8-13.8l-0.3-0.1l-3.3-0.9l-30-8.3c-1.6,1.1-3.3,2-4.9,3.1
					c1.1,5,3.7,14.1,10,23.4"/>
				<g>
					<path class="st41" d="M451.8,233L451.8,233L451.8,233L451.8,233z M532.1,258.7c-0.2-1-0.9-1.5-1.9-1.2c-1.2,0.2-2-0.2-2.6-1.2
						c-0.4-0.8-0.7-1.7-1-2.7c-1.7,0.4-0.9,2.5-2.2,3.6c-0.7-0.9-2-1.9-2-2.8c0-2-1.2-2.8-2.5-3.6c-0.7-0.4-1.5-0.5-2.3-0.7
						c-0.1,1.7,0.9,2.3,2,2.8c1,0.5,2.2,0.9,1.5,2.6c-0.4,0.9-0.7,1.5-1.7,1.5c-1.1,0.1-1.8-0.2-2.1-1.5c0.7-0.1,1.4-0.1,2-0.1
						c0.1-0.1,0.1-0.2,0.1-0.3c-1.6-1.2-3.1-2.3-4.5-3.3c-1,0.2-2,0.4-3,0.7c-0.3,0.1-0.6,0.2-0.7,0.4c-0.7,0.9-1.7,1.8-2.1,2.9
						c-0.6,1.6-1.7,1.7-3.1,1.7c-0.5,0-1.1,0.1-1.5,0c-0.9-0.3-2.1-0.6-2.4-1.2c-0.5-1.3-0.9-2.8,0-4.2c0.1-0.1,0.3-0.3,0.5-0.4
						c1.2-0.1,2.3-0.4,3.4-0.4c0.6,0,1.2,0.1,2.1,0.4c-0.3-0.7-0.4-1.2-0.7-1.3c-1.2-0.7-0.4-1.6-0.2-2.4c0.1-0.4,0.8-0.9,1.2-0.8
						c1.4,0,2.3-0.7,2.9-1.7c0.9-1.7,2.5-1.8,4.2-1.7c0.4,0,0.7,0.1,1.2,0.2c-0.1-0.8-0.1-1.5-0.1-2.2c-0.7,0.2-1.1,0.4-1.5,0.5
						c-0.3,0-0.9-0.1-0.9-0.3c-0.4-0.8-0.8-1.5-1.7-1.7c-0.1,0-0.3-0.4-0.4-0.7c-0.4-1.2,0.4-1.8,1.3-2.3c0.6-0.3,1.2-0.5,1.7-0.8
						c1-0.5,1.2-1.1,0.2-1.8c-2.8-2-5.5-4.2-8.5-6c-6.4-3.7-13.3-6-20.7-6.9c-6.4-0.8-12.8-0.6-19.1,0.8c-4.9,1-9.6,2.7-14,5.1
						c-2.1,1.2-4.1,2.4-6.3,3.6c1.9,0.7,3.6,1.2,5.2,1.8c0.3-0.4,0.6-0.8,1-1.4c-1.2-0.1-2.1-0.2-3.1-0.3c-0.1-0.1-0.1-0.2-0.1-0.4
						c1.1-0.8,2.1-1.7,3.3-2.3c1.4-0.7,3.3,0,4.3,1.2c0.3,0.4,0.9,0.7,1.4,0.7c0.8-0.1,1.5-0.5,2.3-0.7c0.5-0.1,1.1-0.1,1.6-0.1
						c-0.1,0.4-0.2,0.8-0.4,1.1c-0.7,0.9-1.6,1.6-3,1.4c-0.2,0-0.7,0.3-0.8,0.6c-0.1,0.2,0.1,0.9,0.3,0.9c0.9,0,2,0.3,2.8-0.1
						c0.7-0.5,1.4-0.8,2.2-0.9c0.3-0.1,0.5-0.3,0.7-0.4c-0.1-0.2-0.2-0.5-0.4-0.7c-0.7-0.6-0.7-1.6,0.2-1.9c1.5-0.5,3.1-0.3,4.7,0.1
						c-0.7,0.7-1.2,1.1-1.6,1.7c-0.2,0.3-0.2,1,0,1.2c0.3,0.3,0.9,0.3,1.4,0.3c0.1,0,0.1-0.7,0.2-0.9c0.1-0.5,0.1-1.2,0.4-1.5
						c1.7-1.3,3.9-1.6,5.9-1.2c1.5,0.4,2.9,1.2,4.4,1.9c0.2,0.1,0.6,0.4,0.6,0.7c-0.1,1.2,0.6,2,1.7,2.3c-0.3,1.3-0.9,2-2.2,1.8
						c-0.4-0.1-0.8,0.5-1.2,0.8c-0.4,0.3-0.7,0.9-0.9,0.9c-1.7-0.3-3.3-0.7-5.1-1.1c0-0.1,0-0.3-0.1-0.4c1.2-0.7,2.5-1.5,3.8-2.2
						c-1.3-1.2-4.2-1.2-5.3-0.1c-0.7,0.7-1.3,1.1-2.3,1c-0.1,0-0.2,0.1-0.3,0.2c0.2,0.4,0.4,0.7,0.6,0.9c-0.7,0.5-1.3,1-2,1.3
						c-1.1,0.4-1.2-0.7-1.7-1.7c-2,1.1-3.9,2.1-5.7,3.2c-1.1,0.7-1.2,1.7-0.2,2.5c0.6,0.4,1.3,0.8,2,0.9c1.8,0.3,1.8,0.2,1.9,2
						c0,0.4,0.3,0.7,0.4,1.1c0.4-0.3,0.8-0.4,0.9-0.8c0.5-0.9,0.9-1.9,2.1-2c1.5-0.1,1.8-1,1.7-2.3c0-0.3,0-0.5,0-0.8
						c0-1.7,1.2-2.6,2.8-2.3c0.7,0.1,1.4,0.4,2.1,0.5c0.9,0.1,1.1,0.5,1,1.4c-0.1,1.3,0.2,1.5,1.5,0.9c0.7-0.3,1.5-0.6,2.1-0.9
						c0.1,0.3,0.1,0.4,0.1,0.4c0.1,1.5,0.1,3.1,1.9,4c0.9,0.4,0.5,2.2-0.5,2.6c-0.4,0.1-0.7,0.4-1.2,0.7c0.9,0.4,1.5,0.7,2,1.1
						c0.3,0.3,0.5,0.9,0.4,1.2c0,0.2-0.7,0.5-1.1,0.5c-0.7-0.1-1.5-0.4-2.3-0.7c-0.9-0.4-1.1-0.9-0.6-1.7c0.2-0.3,0.3-0.7,0.4-1
						c-1.7,1.1-2.7,1.2-4.1,0.1c-0.2-0.2-0.7-0.3-0.9-0.2c-0.3,0.1-0.6,0.4-0.9,0.6c0.2,0.2,0.4,0.5,0.7,0.7
						c0.3,0.2,0.7,0.3,1.2,0.4c-0.4,0.5-0.7,0.9-1,1.2c-1.5-0.6-1.7-0.7-2.6,0.5c-1.2,1.5-3,2.3-4.4,3.4c-1.5,1.2-2.5,2.7-3.8,4.1
						c-0.5,0.6-0.9,1.4-1.5,2s-1.5,0.9-2.1,1.5c-1.3,0.9-2.3,2-1.7,3.9c0.1,0.4,0,0.8-0.1,1.2c-2.1-0.4-2.3-0.6-2.7-2.3
						c-0.1-0.2-0.3-0.7-0.5-0.7c-2,0-4.1-0.2-6,0.2c-2.8,0.7-4.5,2.6-5.1,5.5c-0.4,1.6,0.4,2.9,2,2.9c0.9,0,1.8-0.4,2.6-0.7
						c1-0.5,1.9-1.2,2.8-1.8c1.3,1.5-0.1,2.6-0.4,3.9c0.2,0.1,0.3,0.1,0.4,0.1c2.7,0.4,2.7,0.4,2.8,3c0.1,2.4,0.1,2.3,2.5,2.9
						c1.5,0.4,2.5,0.1,3.3-1.2c0.1-0.1,0.3-0.4,0.4-0.5c1.3-1.6,4.1-1.5,5.5,0.1c0.7,0.8,2.9,1.2,3.4,0.5c0.7-0.9,1.3-0.5,1.8-0.1
						c0.6,0.4,1.2,1,1.5,1.7c0.7,1.5,1.8,2,3.4,1.8c1-0.1,1.7,0.2,2,1.2c0.3,0.8,0.6,1.7,0.7,2.5c0.1,1,0.5,1.6,1.5,2.1
						c2,0.9,4.1,1,6.2,0.9c0.9-0.1,1.5,0.3,2,1.1c0.4,0.9,1,1.5,2,1.7c0.8,0.1,1.2,0.7,0.8,1.5c-0.5,1-1.2,2-1.7,3
						c-0.4,0.7-0.9,1.2-0.9,1.9c-0.3,1.5-0.4,2.9-0.5,4.4c-0.3,2.7-1.7,3.9-4.5,3.6c-1.2-0.1-2.1,0.8-2,2c0,0.4,0.1,0.7,0.2,1
						c0.6,1.6,0.1,2.8-0.9,4.1c-0.9,1-1.7,2.3-2.5,3.4c-0.6,0.9-1.2,1.7-2.2,2c-1.3,0.5-2.6,1-4,1.5c1.5,1.2,1.6,1.5,0.6,2.6
						c-0.2,0.3-0.6,0.8-0.4,0.9c0.2,0.3,0.7,0.6,1,0.6c1.2,0,1.3,0.8,1,1.5c-0.8,1.7-0.2,2.8,1.2,3.8c0.1,0.1,0.4,0.4,0.4,0.4
						c-0.1,0.5-0.4,1.3-0.6,1.4c-1.6,0.1-3.2,0.3-4.7-1.1c-1.5-1.5-2.6-3.1-3.6-4.8c-0.8-1.2-1-2.5-0.8-3.9c0.1-0.9,0.1-2.3-0.4-2.9
						c-1.2-1.5-1.4-2.9-0.9-4.7c0.1-0.5,0.2-1.4-0.1-1.6c-1-0.7-0.8-1.6-0.8-2.5c0-1.6-0.2-3.3,0.1-4.9c0.4-2.4-0.9-3.8-2.8-4.7
						c-0.4-0.2-0.9-0.4-1.4-0.6c-0.4-0.2-0.9-0.4-0.9-0.7c-0.4-2.1-2-3.4-3.2-4.9c-1-1.2-1.8-2.3-1.1-4c0.1-0.4,0.1-0.9,0.1-1.4
						c-0.1-1.3,0.4-2.2,1.5-2.8c0.5-0.3,1.2-0.7,1.5-1.2c0.7-1.7-0.5-3.3-2.3-3.2c-1.6,0.1-2.7-0.4-3.6-1.7c-1-1.4-2.1-2.7-4-2.9
						c-0.5-0.1-1.4-0.1-1.5-0.3c-0.6-1.9-2-1.2-3.2-1.2c-0.9-0.1-1.7-0.5-2.5-0.6c-2.1-0.2-2.5-2-3.3-3.3c-0.1-0.1-0.1-0.6,0.1-0.7
						c0.6-0.8,0.2-1.4-0.2-2.1c-1.2-1.7-2.7-3.5-2.8-5.8c0-0.3-0.3-0.5-0.4-0.8c-0.1,0-0.2,0.1-0.4,0.1c0,0.3-0.1,0.6-0.1,0.9
						c0.1,1.7,0.9,3,1.8,4.3c0.5,0.7,1,1.6,0.1,2.4c-0.5,0.4-1.8-0.2-2.5-1.1c-1.3-1.9-2.2-3.9-1.8-6.3c0.1-0.7,0-1.4-0.9-1.6
						c-1-0.3-1.7-0.9-1.5-2.5c-5.2,11.4-6.8,30.7,2.7,47.3c12.4,21.7,31.5,31.7,56.5,29.3c14.8-1.4,26.9-8.5,36.9-20.1
						c-1.6,0.2-1.7-0.4-1.7-1.5s0.1-2.3-0.5-3.1c-1.3-1.7-1.8-3.4-1.6-5.5c0.1-0.9-0.2-1.6-0.9-2.3c-1-0.9-1.3-2.3-0.5-3.4
						c1.9-2.5,1.5-4.7-0.3-6.8c-0.2-0.3-0.4-0.7-0.6-1c-1.2-1.6-1.5-3.3-1.1-5.4c0.4-1.5,0-1.9-1.7-2c-1,0-1.8-0.3-2.5-1
						c-0.9-0.8-1.9-0.7-3-0.1c-0.8,0.4-1.7,0.7-2.6,0.9c-0.9,0.1-1.8,0.1-2.7,0.3c-1.5,0.1-3,0.1-3.9-1.5c-0.4-0.6-0.9-1.2-1.5-1.6
						c-2-1.9-3.3-4.1-2.7-6.9c0.1-0.5,0.4-1.1,0.7-1.5c0.4-0.6,0.8-1-0.1-1.5c-1.1-0.5-1.2-2-0.2-2.8c1.3-1,2.6-2,4-2.8
						c1.2-0.7,1.7-1.5,1.5-3c-0.1-0.5,0.1-1.3,0.4-1.5c1.2-0.8,2.3-1.7,4-1.6c1.1,0.1,2.2-0.1,3.3-0.4c1.1-0.2,2.1-0.7,3.2-0.8
						c0.9-0.1,1.9-0.1,2.8-0.1c1.7-0.1,1.7-0.1,1.8,1.7c0,0.7,0.1,1.2,1,1.2c2.5,0,4.9,0.1,7.5,0.2c0.8,0.1,1.7,0.3,2.4,0.7
						c1.9,0.9,3.9,1.4,6.2,1C532.6,260.5,532.3,259.7,532.1,258.7z M501.9,244c0.4-1.1,1.2-1.8,2.6-1.7c0-1.4,0.4-2.5,1.9-2.5
						c0.4,0,1,0.4,1.1,0.7c0.4,1.7,0.9,3.3,2.7,4.1c0.1,0.1,0.3,0.6,0.2,0.7c-0.4,0.4-0.9,1.2-1.5,1.2c-1.1,0.2-2.2,0.1-3.5,0.1
						c0.1-1-0.2-1.9,0.9-2.4c0.7-0.2,0.5-0.5-0.1-0.9c-0.9,0.8-1.8,1.7-2.8,2.3c-0.4,0.3-1.2,0.1-1.8,0.1
						C501.8,245.2,501.7,244.5,501.9,244z M471.3,251.3c-0.3,0.1-0.7,0.4-0.9,0.4c-0.2,0-0.7-0.5-0.6-0.7c0.1-0.4,0.4-0.8,0.7-0.9
						c0.4-0.1,0.8,0.3,1.2,0.4C471.6,250.9,471.5,251.1,471.3,251.3z M474.9,250.3c-0.2,0.3-0.4,0.7-0.7,0.9c-0.4,0.2-1,0.4-1.5,0.3
						c-0.3-0.1-0.5-0.7-0.7-1.1c0.1,0,0.3,0,0.4-0.1c0.5-0.3,1-0.7,1.6-0.9c0.4-0.1,0.9,0,1.4,0C475.2,249.7,475.1,250,474.9,250.3z
						"/>
					<path class="st42" d="M537.2,303.3c-9.8,22.4-32.2,38.1-58.4,38.1c-35.1,0-63.7-28.5-63.7-63.7s28.5-63.7,63.7-63.7
						c21.4,0,40.2,10.6,51.8,26.6c0.1,4.6-2.8,6.5-4.2,7.2c-9.9-15.9-27.5-26.3-47.6-26.3c-31,0-56.2,25.1-56.2,56.2
						c0,31,25.1,56.2,56.2,56.2c23.3,0,43.2-14.1,51.7-34.3C532.4,299.6,535,300.2,537.2,303.3z"/>
				</g>
			</g>
			<g>
				<path class="st41" d="M440.5,243.2c0,1.9,0,7,0,7s0,1.5,1.7,2.3l-3.3,2.3v0.5h14.5v-0.4l-3.4-2.4c0,0,1.9-0.8,1.8-2.3v-6.9
					c0,0-0.1-1.9-3.2-2.4h-4.9C443.7,240.8,440.5,241.3,440.5,243.2z"/>
				<circle class="st0" cx="443.2" cy="249.9" r="0.8"/>
				<circle class="st0" cx="449" cy="249.9" r="0.8"/>
				<path class="st0" d="M448.1,242.1c0,0.2-0.1,0.4-0.4,0.4h-3.2c-0.2,0-0.4-0.1-0.4-0.4V242c0-0.2,0.1-0.4,0.4-0.4h3.2
					c0.2,0,0.4,0.1,0.4,0.4V242.1z"/>
				<path class="st0" d="M441.6,244.8v1.5c0,0,0,1.4,1.7,1.4h5.4c0,0,1.8,0.4,2-1.3V245c0,0,0.1-1.5-2-1.4h-4.9
					C443.7,243.6,442,243.4,441.6,244.8L441.6,244.8z"/>
				<polygon class="st0" points="442.9,253.4 443.7,252.8 448.7,252.8 449.5,253.4 				"/>
				<polygon class="st0" points="442.1,253.9 450.3,253.9 451.2,254.6 441.1,254.6 				"/>
			</g>
			
				<image style="overflow:visible;enable-background:new    ;" width="1077" height="1077" xlink:href="55882D26.jpg"  transform="matrix(1.192924e-002 0 0 1.192924e-002 463.7688 288.7075)">
			</image>
			<g>
				<path class="st41" d="M503.7,273.5l4.9,3.2l21.6-0.7c0,0,5.8-1.5,0-3h-9.6l-8.3-7.8c0,0-0.9-0.7-0.9,0.4l1.7,7.5L503.7,273.5z"
					/>
				<path class="st41" d="M504,272.8h3.6l-2.8-3.1c0,0-1.2-1.5-1.2,0L504,272.8z"/>
			</g>
		</g>
	</g>
</g>
<path id="spinner_1" class="st43" d="M479.5,78.1c110,0.5,199,89.4,199,199.4"/>
<path id="spinner_2" class="st43" d="M489.4,28.5c132,0.6,238.5,107.1,238.7,239.1"/>
</svg>
