<svg xmlns="http://www.w3.org/2000/svg" width="62.857" height="27.946" viewBox="0 0 62.857 27.946">
  <g id="JioMart-Partner-logo" transform="translate(-230.034 1513.697)">
    <path id="Path_2" data-name="Path 2" d="M243.248-1513.691a13.974,13.974,0,0,0-9.756,4.752,14.01,14.01,0,0,0-3.129,6.176,13.973,13.973,0,0,0,3.652,12.806,13.962,13.962,0,0,0,12.044,4.058,13.985,13.985,0,0,0,8.765-4.964,13.979,13.979,0,0,0,2.741-12.3,14,14,0,0,0-8.141-9.456,14.02,14.02,0,0,0-4.12-1.031C244.98-1513.682,243.585-1513.711,243.248-1513.691Zm.95,7.119a1.445,1.445,0,0,1,1.383,1.028,2.214,2.214,0,0,1,0,.831,1.372,1.372,0,0,1-1.013.989,1.658,1.658,0,0,1-.589.048,1.831,1.831,0,0,1-.584-.048,1.42,1.42,0,0,1-.685-.387,1.2,1.2,0,0,1-.352-.6,2.127,2.127,0,0,1,0-.831,1.424,1.424,0,0,1,1.324-1.026A1.764,1.764,0,0,1,244.2-1506.572Zm-3.785,1.346a1.177,1.177,0,0,1,.851.88l.048.171.007,2.768a23.808,23.808,0,0,1-.085,3.68,3.372,3.372,0,0,1-2.984,3.089,8.661,8.661,0,0,1-2.089.024c-1.348-.186-2.162-.718-2.389-1.558a2.383,2.383,0,0,1-.009-.915,1.9,1.9,0,0,1,.591-.949,1.061,1.061,0,0,1,.389-.221,1.166,1.166,0,0,1,.254.214,2.207,2.207,0,0,0,1.6.72c.82.031,1.221-.23,1.4-.915l.048-.184.013-2.855.013-2.855.048-.184a1.146,1.146,0,0,1,.6-.812,1.773,1.773,0,0,1,1.02-.144A2.816,2.816,0,0,1,240.412-1505.226Zm11.106,2.341c.127.02.339.061.47.092a3.854,3.854,0,0,1,3.052,3.448,7.3,7.3,0,0,1-.011,1.273,3.823,3.823,0,0,1-1.65,2.77,4.686,4.686,0,0,1-2.693.742,3.993,3.993,0,0,1-4.111-2.658,5.075,5.075,0,0,1-.142-2.505,3.871,3.871,0,0,1,1.046-2,4.093,4.093,0,0,1,1.61-.965,5.422,5.422,0,0,1,1.258-.238A9.314,9.314,0,0,1,251.518-1502.885Zm-6.861.087a1.147,1.147,0,0,1,.845,1.164c.028.284.028,5.448,0,5.706a1.192,1.192,0,0,1-.919,1.186,4.287,4.287,0,0,1-1.251-.011,1.121,1.121,0,0,1-.864-.869,26.818,26.818,0,0,1-.046-3.078,27.748,27.748,0,0,1,.035-3.153,1.158,1.158,0,0,1,.934-.967A5.425,5.425,0,0,1,244.657-1502.8Z" fill="#004e9e"/>
    <path id="Path_3" data-name="Path 3" d="M1097.593-913.365a1.97,1.97,0,0,0-.663.217,2.212,2.212,0,0,0-.322.271,1.221,1.221,0,0,0-.3.4,2.047,2.047,0,0,0-.1,1.56,1.6,1.6,0,0,0,.427.685,1.2,1.2,0,0,0,.385.28,1.444,1.444,0,0,0,.8.177,1.444,1.444,0,0,0,.8-.177,1.238,1.238,0,0,0,.4-.291,1.614,1.614,0,0,0,.435-.691,1.99,1.99,0,0,0-.252-1.774A1.71,1.71,0,0,0,1097.593-913.365Z" transform="translate(-847.114 -587.185)" fill="#004e9e"/>
    <path id="Path_4" data-name="Path 4" d="M1641-1307.64v5.36h2.3l0-3.721.006-3.719,1.157,3.376c.637,1.857,1.212,3.531,1.278,3.719l.12.346h1.89l.208-.608c.114-.333.689-2.022,1.278-3.752l1.07-3.144.007,3.752,0,3.752h2.3V-1313h-3.446l-1.149,3.61c-.632,1.987-1.153,3.61-1.159,3.61s-.553-1.626-1.214-3.61l-1.2-3.61H1641Z" transform="translate(-1380.096 -196.306)"/>
    <path id="Path_5" data-name="Path 5" d="M2870.291-1298.8v1.2H2869v1.488h1.289l.009,2.236c.007,2.446,0,2.341.138,2.814a2.145,2.145,0,0,0,1.836,1.562,3.169,3.169,0,0,0,.777.05,3.063,3.063,0,0,0,.991-.1l.081-.024v-1.711l-.07.015a2.082,2.082,0,0,1-1-.011.752.752,0,0,1-.47-.584,12.091,12.091,0,0,1-.077-2.385v-1.864h1.575v-1.488H2872.5V-1300h-2.21Z" transform="translate(-2581.229 -209.022)"/>
    <path id="Path_6" data-name="Path 6" d="M2213.191-1200.931a8.153,8.153,0,0,0-.9.12,3.136,3.136,0,0,0-1.895,1.081,2.336,2.336,0,0,0-.394,1.074l-.015.16h2.208l.026-.129a.974.974,0,0,1,.759-.757,2.608,2.608,0,0,1,1.149,0c.53.153.752.543.781,1.367l.013.365-.993.011c-.713.009-1.07.022-1.267.046a3.571,3.571,0,0,0-2.486,1.114,2.335,2.335,0,0,0-.4.989,4.288,4.288,0,0,0,.011,1.017,2.313,2.313,0,0,0,2.07,1.956,4.1,4.1,0,0,0,1.8-.109,2.4,2.4,0,0,0,1.262-.95c.1-.164.085-.19.149.361.024.217.05.427.057.464l.011.072h2.013l-.009-2.8c-.009-3-.007-2.936-.123-3.426a2.348,2.348,0,0,0-1.424-1.729A5.673,5.673,0,0,0,2213.191-1200.931Zm1.722,5.032a2.355,2.355,0,0,1-.057.608,1.5,1.5,0,0,1-1.1,1.1,2.716,2.716,0,0,1-.884.046.979.979,0,0,1-.886-1.03.884.884,0,0,1,.549-.893,4.216,4.216,0,0,1,1.9-.263l.488,0Z" transform="translate(-1936.403 -305.91)"/>
    <path id="Path_7" data-name="Path 7" d="M2608.989-1199.612a2.453,2.453,0,0,0-1.816,1.521l-.072.166v-1.5H2605v8.03h2.208l.007-2.041c.009-2.251.007-2.2.153-2.663a1.973,1.973,0,0,1,2.184-1.457,2.991,2.991,0,0,1,.411.044l.135.031v-2.089l-.125-.028A4.23,4.23,0,0,0,2608.989-1199.612Z" transform="translate(-2323.005 -307.192)"/>
    <path id="Path_8" data-name="Path 8" d="M1641-740.805v3.293h1.51v-2.319h.849c.481,0,.932-.011,1.043-.024a1.986,1.986,0,0,0,1.781-1.354,2.7,2.7,0,0,0,0-1.531,1.935,1.935,0,0,0-1.468-1.3,9.511,9.511,0,0,0-1.945-.055L1641-744.1Zm3.1-2.054a.836.836,0,0,1,.663.484,1.64,1.64,0,0,1,.044.689.781.781,0,0,1-.558.58l-.177.061-.781.007-.783.007v-1.862h.711A4.941,4.941,0,0,1,1644.1-742.86Z" transform="translate(-1380.096 -752.76)"/>
    <path id="Path_9" data-name="Path 9" d="M2293.788-735.267v.733H2293v.941h.786l.009,1.4a7.25,7.25,0,0,0,.055,1.593,1.282,1.282,0,0,0,.683.89,1.739,1.739,0,0,0,.7.186,2.791,2.791,0,0,0,.833-.048l.081-.024v-1.05l-.125.018a1.5,1.5,0,0,1-.516-.013.462.462,0,0,1-.25-.208c-.094-.177-.1-.258-.109-1.529l-.011-1.219h.967v-.941h-.963V-736h-1.356Z" transform="translate(-2017.831 -760.682)"/>
    <path id="Path_10" data-name="Path 10" d="M1896.5-674.744a3.11,3.11,0,0,0-.978.263,1.38,1.38,0,0,0-.814,1.107l-.015.127h1.37l.026-.112a.543.543,0,0,1,.392-.418,1,1,0,0,1,.4-.048c.341,0,.462.033.613.182a.794.794,0,0,1,.214.63l.011.269h-.424a4.351,4.351,0,0,0-1.963.315,1.3,1.3,0,0,0-.742.888,2.35,2.35,0,0,0,.011.9,1.573,1.573,0,0,0,1.787,1.085,1.865,1.865,0,0,0,.805-.195,1.605,1.605,0,0,0,.521-.451c.07-.112.07-.114.109.263l.026.258h1.24v-1.7a7.077,7.077,0,0,0-.12-2.3,1.309,1.309,0,0,0-.359-.573,1.7,1.7,0,0,0-.921-.451A8.713,8.713,0,0,0,1896.5-674.744Zm1.214,3.089a.974.974,0,0,1-.265.781,1.008,1.008,0,0,1-.766.3.7.7,0,0,1-.685-.333.519.519,0,0,1-.063-.3c0-.335.155-.518.534-.628a2.637,2.637,0,0,1,.814-.077l.431,0Z" transform="translate(-1628.103 -820.591)"/>
    <path id="Path_11" data-name="Path 11" d="M2138.457-674.512a1.491,1.491,0,0,0-1.059.816l-.083.158,0-.433v-.431H2136v4.945h1.378v-1.254a7.864,7.864,0,0,1,.044-1.459,1.257,1.257,0,0,1,.864-1.02,2.508,2.508,0,0,1,.75-.024l.092.015v-1.286l-.048-.013A2.788,2.788,0,0,0,2138.457-674.512Z" transform="translate(-1864.266 -820.814)"/>
    <path id="Path_12" data-name="Path 12" d="M2469.461-674.588a1.778,1.778,0,0,0-1.044.643l-.1.138v-.68H2467v4.945h1.378v-1.486a15.3,15.3,0,0,1,.033-1.678.847.847,0,0,1,.742-.8.78.78,0,0,1,.877.422c.127.278.127.284.135,1.98l.009,1.56h1.381l-.011-1.746a16.934,16.934,0,0,0-.046-1.93,1.482,1.482,0,0,0-1.206-1.346A2.691,2.691,0,0,0,2469.461-674.588Z" transform="translate(-2188.025 -820.73)"/>
    <path id="Path_13" data-name="Path 13" d="M2707.638-674.871a2.333,2.333,0,0,0-1.833,1.3,3.26,3.26,0,0,0-.247.755,4.7,4.7,0,0,0,.011,1.149,2.421,2.421,0,0,0,.648,1.3,2.434,2.434,0,0,0,1.812.676,2.178,2.178,0,0,0,1.969-.965,2.376,2.376,0,0,0,.234-.54l.015-.07h-1.221l-.026.072a.812.812,0,0,1-.564.42,1.92,1.92,0,0,1-.733,0,1.072,1.072,0,0,1-.805-1.041l-.015-.129h3.442l.013-.149a3.618,3.618,0,0,0-.009-.418,2.558,2.558,0,0,0-1.028-2.017A2.525,2.525,0,0,0,2707.638-674.871Zm.619,1.061c.4.1.606.374.7.9l.013.072h-2.078v-.055a1.489,1.489,0,0,1,.173-.49,1,1,0,0,1,.578-.429A1.559,1.559,0,0,1,2708.257-673.81Z" transform="translate(-2421.333 -820.455)"/>
    <path id="Path_14" data-name="Path 14" d="M2962.468-674.485a1.484,1.484,0,0,0-1.094.851l-.083.166v-.908H2960v4.945h1.352l.011-1.265c.011-1.359.013-1.4.131-1.715a1.164,1.164,0,0,1,.792-.753,2.5,2.5,0,0,1,.75-.024l.092.015v-1.286l-.048-.013A2.841,2.841,0,0,0,2962.468-674.485Z" transform="translate(-2670.239 -820.841)"/>
  </g>
</svg>
