<svg xmlns="http://www.w3.org/2000/svg" width="182" height="45.206" viewBox="0 0 182 45.206">
  <g id="Group_19" data-name="Group 19" transform="translate(-123 -15.794)">
    <text id="Ask" transform="translate(123 42)" fill="#fff" font-size="29" font-family="MarkerFelt-Thin, Marker Felt" font-weight="200"><tspan x="0" y="0">Ask</tspan></text>
    <g id="jiomart_logo_beta" transform="translate(168.619 14.628)">
      <g id="Group_18" data-name="Group 18">
        <path id="Path_22" data-name="Path 22" d="M19.975,21.344q0,4.37-2.2,6.65T11.2,30.274A10.3,10.3,0,0,1,6.5,29.267a7.161,7.161,0,0,1-3.059-2.85A8.478,8.478,0,0,1,2.381,22.1V21.42h5.4a4.545,4.545,0,0,0,.779,2.945,2.969,2.969,0,0,0,2.413.931,3.006,3.006,0,0,0,1.957-.551,2.572,2.572,0,0,0,.874-1.387,8.425,8.425,0,0,0,.209-2.014V3.408h5.966Z" fill="#fff"/>
        <path id="Path_23" data-name="Path 23" d="M29.8,5.764a2.885,2.885,0,0,1-1.121,1.083,3.545,3.545,0,0,1-3.268,0,2.878,2.878,0,0,1-1.121-1.083,3.034,3.034,0,0,1-.4-1.558,3.034,3.034,0,0,1,.4-1.558,2.878,2.878,0,0,1,1.121-1.083,3.545,3.545,0,0,1,3.268,0A2.885,2.885,0,0,1,29.8,2.648a3.036,3.036,0,0,1,.4,1.558A3.034,3.034,0,0,1,29.8,5.764Zm-.057,4.256V29.666h-5.4V10.02Z" fill="#fff"/>
        <path id="Path_24" data-name="Path 24" d="M51.552,25.314a8.883,8.883,0,0,1-3.5,3.61A10.28,10.28,0,0,1,42.888,30.2a10.321,10.321,0,0,1-5.244-1.292,8.765,8.765,0,0,1-3.458-3.629,11.564,11.564,0,0,1-1.216-5.415,11.651,11.651,0,0,1,1.216-5.453,8.765,8.765,0,0,1,3.458-3.629,10.323,10.323,0,0,1,5.244-1.292,10.323,10.323,0,0,1,5.244,1.292,8.747,8.747,0,0,1,3.458,3.648,11.68,11.68,0,0,1,1.216,5.434A11.361,11.361,0,0,1,51.552,25.314Zm-5.3-.855a7.861,7.861,0,0,0,1.159-4.6,8.621,8.621,0,0,0-1.064-4.5,3.762,3.762,0,0,0-3.5-1.767,3.841,3.841,0,0,0-3.306,1.634,7.831,7.831,0,0,0-1.178,4.636,7.836,7.836,0,0,0,1.159,4.617,4.293,4.293,0,0,0,6.726-.019Z" fill="#fff"/>
        <path id="Path_25" data-name="Path 25" d="M64.814,3.408l5.928,17.784h.076L76.48,3.408h8.4V29.666H79.292V11.236h-.076l-6.27,18.43h-4.6l-6.27-18.278H62V29.666H56.416V3.408Z" fill="#fff"/>
        <path id="Path_26" data-name="Path 26" d="M100.952,16.784a4.4,4.4,0,0,0-.741-2.831,3.176,3.176,0,0,0-2.565-.893,4.312,4.312,0,0,0-2.432.57,2.391,2.391,0,0,0-.988,1.786H88.868a5.311,5.311,0,0,1,2.546-4.427,11.914,11.914,0,0,1,6.5-1.539q4.37,0,6.4,1.862t2.033,5.852v12.5h-4.864l-.3-2.546H101.1a5.146,5.146,0,0,1-2.185,2.2,7.731,7.731,0,0,1-3.857.874,8.379,8.379,0,0,1-3.591-.722A5.31,5.31,0,0,1,89.1,27.348a6.493,6.493,0,0,1-.836-3.382A5.3,5.3,0,0,1,90.787,19.1q2.527-1.558,7.239-1.558h2.926Zm-2.2,3.951a8.665,8.665,0,0,0-3.762.646,2.237,2.237,0,0,0-1.292,2.166,2.419,2.419,0,0,0,.817,2,3.422,3.422,0,0,0,2.223.665,4.745,4.745,0,0,0,2.185-.494,3.542,3.542,0,0,0,1.5-1.425,4.5,4.5,0,0,0,.532-2.261V20.735h-2.2Z" fill="#fff"/>
        <path id="Path_27" data-name="Path 27" d="M122.5,14.731a5.194,5.194,0,0,0-.684-.133,7.428,7.428,0,0,0-.988-.057,4.839,4.839,0,0,0-4.047,1.71,7.16,7.16,0,0,0-1.349,4.56v8.854h-5.4V10.02h5.13v3.648h.076a6.463,6.463,0,0,1,2.185-3.04,5.59,5.59,0,0,1,3.477-1.14,6.021,6.021,0,0,1,1.6.19Z" fill="#fff"/>
        <path id="Path_28" data-name="Path 28" d="M131.047,10.02h3.838v3.61h-3.838v8.664a6.5,6.5,0,0,0,.266,2.109,1.749,1.749,0,0,0,.817,1.026,3.1,3.1,0,0,0,1.425.285,5.362,5.362,0,0,0,1.444-.19v4.142a8.6,8.6,0,0,1-2.546.342,7.2,7.2,0,0,1-5.035-1.615q-1.767-1.615-1.767-5.415V13.63H122.5V10.02h3.154V4.13h5.4Z" fill="#fff"/>
      </g>
    </g>
    <text id="Partner" transform="translate(285 58)" fill="#fffdfd" font-size="12" font-family="Roboto-Medium, Roboto" font-weight="500"><tspan x="-19.966" y="0">Partner</tspan></text>
  </g>
</svg>
