<svg xmlns="http://www.w3.org/2000/svg" width="16.635" height="16.635" viewBox="0 0 16.635 16.635">
  <g id="Group_18" data-name="Group 18" transform="translate(-2004.606 -323.605)">
    <g id="Group_17" data-name="Group 17" transform="translate(2004.606 323.605)">
      <g id="Group_43" data-name="Group 43" transform="translate(0 0)">
        <g id="Group_42" data-name="Group 42">
          <g id="Group_41" data-name="Group 41">
            <g id="Group_40" data-name="Group 40" transform="translate(0 0)">
              <g id="Group_39" data-name="Group 39" transform="translate(0 0)">
                <g id="Group_38" data-name="Group 38" transform="translate(0)">
                  <g id="Group_37" data-name="Group 37" transform="translate(0 0)">
                    <g id="button" transform="translate(0 0)">
                      <g id="Circles" transform="translate(0 0)">
                        <path id="big_circle" d="M376.78,168.306a8.317,8.317,0,1,1-1.117-4.168A8.317,8.317,0,0,1,376.78,168.306Z" transform="translate(-360.145 -159.983)" fill="#66aad7" opacity="0.5"/>
                        <path id="mid_circle" d="M398.522,191.413a7.222,7.222,0,1,1-.971-3.62A7.222,7.222,0,0,1,398.522,191.413Z" transform="translate(-382.982 -183.091)" fill="#c2ddef" opacity="0.5"/>
                        <path id="small_circle" d="M417.2,210.52A7.032,7.032,0,1,1,416.26,207,7.032,7.032,0,0,1,417.2,210.52Z" transform="translate(-401.989 -202.204)" fill="#0e4094"/>
                      </g>
                    </g>
                  </g>
                </g>
              </g>
            </g>
          </g>
        </g>
      </g>
    </g>
    <g id="microphone_1_" data-name="microphone (1)" transform="translate(2009.606 327.605)">
      <path id="Path_9" data-name="Path 9" d="M86.914,225.215a.281.281,0,1,0-.562,0,2.728,2.728,0,1,1-5.456,0,.281.281,0,1,0-.562,0,3.294,3.294,0,0,0,3.009,3.278v1.537a.281.281,0,0,0,.562,0v-1.537A3.294,3.294,0,0,0,86.914,225.215Z" transform="translate(-80.334 -220.721)" fill="#f8f7f7"/>
      <path id="Path_10" data-name="Path 10" d="M259.009,224.934a.281.281,0,0,0-.281.281A2.731,2.731,0,0,1,256,227.943h0v2.367h0a.281.281,0,0,0,.281-.281v-1.537a3.294,3.294,0,0,0,3.009-3.278A.281.281,0,0,0,259.009,224.934Z" transform="translate(-252.71 -220.721)" fill="#f8f7f7"/>
      <g id="Group_3" data-name="Group 3" transform="translate(1.805)">
        <path id="Path_11" data-name="Path 11" d="M178.219,0a1.486,1.486,0,0,0-1.485,1.485V4.494a1.485,1.485,0,0,0,2.969,0V1.485A1.486,1.486,0,0,0,178.219,0Z" transform="translate(-176.734)" fill="#f8f7f7"/>
        <path id="Path_12" data-name="Path 12" d="M194.886,482.562h-1.805a.281.281,0,1,1,0-.562h1.805a.281.281,0,1,1,0,.562Z" transform="translate(-192.499 -472.973)" fill="#f8f7f7"/>
      </g>
      <g id="Group_4" data-name="Group 4" transform="translate(3.29)">
        <path id="Path_13" data-name="Path 13" d="M257.485,4.494V1.485A1.486,1.486,0,0,0,256,0h0V5.978h0A1.486,1.486,0,0,0,257.485,4.494Z" transform="translate(-256)" fill="#f8f7f7"/>
        <path id="Path_14" data-name="Path 14" d="M256.9,482.562a.281.281,0,1,0,0-.562H256v.562Z" transform="translate(-256 -472.973)" fill="#f8f7f7"/>
      </g>
    </g>
  </g>
</svg>
