<?xml version="1.0" encoding="utf-8"?>
<!-- Generator: Adobe Illustrator 19.2.1, SVG Export Plug-In . SVG Version: 6.00 Build 0)  -->
<svg version="1.1" id="Layer_1" xmlns="http://www.w3.org/2000/svg" xmlns:xlink="http://www.w3.org/1999/xlink" x="0px" y="0px"
	 viewBox="0 0 1160.4 467.9" style="enable-background:new 0 0 1160.4 467.9;" xml:space="preserve">
<style type="text/css">
	.st0{fill:#FFFFFF;}
	.st1{fill:#008C44;}
	.st2{fill:#F47920;}
</style>
<g>
	<g>
		<path class="st0" d="M845.9,263.4l111.9,0.6l4.5-24.2l-82.4-0.5l2.4-12.9c0.9-4.7,2.8-8.4,5.6-11c2.6-2.4,6.1-4.1,11.1-5.5
			l47.6-12.4c8.8-2.3,15.7-6.4,20.9-12.6c5.3-6.3,9-15,11.1-25.9l2.6-13.7c2.1-11.5,0.1-20.3-6.3-26.8c-6.6-6.8-17.2-10.2-31.5-10.3
			l-23.2-0.1c-14.5-0.1-26.2,3.2-34.8,9.7c-8.4,6.4-13.6,15.5-15.9,28l-1.6,8.5l27.3,0.2l0.6-3c1.5-7.8,4.6-13.7,9.3-17.3
			c4.5-3.5,10.8-5.1,19.1-5.1l7.1,0c8.4,0,14,1.7,17.3,5.1c3.5,3.6,4.5,9.5,3,17.6l-1.2,6.7c-1,5.5-3.2,9.9-6.4,13
			c-3,2.9-7.5,5.2-14,7.1L880.7,193c-7.8,2.2-13.7,6-18.3,11.9c-4.8,6.1-8.3,14.7-10.2,25.3L845.9,263.4z"/>
		<polygon class="st0" points="974.1,264.1 996.9,264.3 1002,237.2 979.1,237.1 		"/>
		<path class="st0" d="M1121.3,122.1c-4.5-8.5-14.8-12.9-30.8-13l-16.3-0.1c-16.1-0.1-28.1,4.1-35.7,12.6
			c-7.9,8.7-14.1,25.1-18.5,48.7l-6.4,34.5c-4.4,23.7-4.3,40.1,0.3,48.9c4.5,8.5,14.9,12.8,31,12.9l16.3,0.1
			c16,0.1,28-4.2,35.6-12.6c7.9-8.7,14.1-25.1,18.5-48.7l6.4-34.5C1126,147.3,1125.9,130.9,1121.3,122.1z M1087.6,206.7
			c-4.1,22.2-8.1,26.6-8.6,27c-0.8,0.8-4.4,3.4-16.1,3.3l-8.9-0.1c-11.4-0.1-14.3-2.7-15-3.8c-0.5-0.8-2.7-5.6,1.3-26.8l7-37.4
			c3.9-21.2,8-26,8.7-26.8c1.1-1.1,5-3.7,16.4-3.6l8.9,0.1c11.6,0.1,14.3,2.7,14.8,3.5c0.3,0.4,2.6,4.9-1.5,27L1087.6,206.7z"/>
	</g>
	<g>
		<path class="st0" d="M655.5,247.4c-1.2,4.3-3.6,7.9-7.4,10.9c-3.8,3-7.8,4.4-12.1,4.5l-153,0.8c-4.3,0-7.5-1.4-9.6-4.3
			c-2.1-2.9-2.6-6.5-1.4-10.8l33.3-123c1.2-4.3,3.6-8,7.3-11c3.7-3,7.7-4.5,12-4.6l152.9-0.8c4.4,0,7.7,1.4,9.8,4.3
			c2.1,2.9,2.6,6.6,1.3,11.1l-3.9,14.6l-152.9,0.8l-25.4,93.7l152.9-0.8L655.5,247.4z"/>
		<polygon class="st0" points="703.5,262.3 672.9,262.5 714.6,108.9 745.1,108.8 		"/>
		<polygon class="st0" points="283.2,111 252.7,111.2 225.4,211.8 102.2,112.3 60.4,266.2 90.9,266.1 118,166.1 241.3,265.6 		"/>
		<path class="st0" d="M482.5,114.4c-2.1-2.9-5.4-4.4-9.8-4.3L304.8,111l-8.1,30.1l152.7-0.9l-8.7,32.1L288,173.3l-24.9,91.5
			l30.6-0.2l16.7-61.5l137.3-0.8c4.3,0,8.3-1.5,12.1-4.5c3.8-2.9,6.2-6.6,7.4-10.9l16.7-61.5C485,121,484.6,117.3,482.5,114.4"/>
		<polygon class="st1" points="842,185 802.9,108.3 794.9,137.9 819.3,185.9 768.7,234.2 761.1,262.3 		"/>
		<polygon class="st2" points="775.8,108.5 734,262.4 814.8,185.1 		"/>
	</g>
	<g>
		<path class="st0" d="M747.6,291.3c-0.6-0.8-1.2-1.6-1.9-2.5c-2-2.3-3.9-3.9-5.7-5.1c-1.4-0.9-2.8-1.6-4.2-2
			c-1.4-0.5-2.9-0.7-4.4-0.7c-2.7,0-5.2,0.6-7.2,1.8c-2,1.2-3.3,2.9-4,5.2c-0.2,0.9-0.3,1.7-0.1,2.6l0,0.1c0,0.2,0.1,0.4,0.1,0.7
			h-5.1l-0.7,2.4h5l-5.9,21.9h3.6l5.9-21.9h23.6l-1.5,5.6h-14.5c-0.5,0-1,0.1-1.6,0.3c-0.6,0.2-1,0.7-1.2,1.4c-0.1,0.4,0,1.1,1.5,3
			l0.2,0.2c1.4,1.7,2.3,2.4,2.9,2.4c1,0,1.4-0.4,1.6-0.8l1.1-4.1h9.2l-3.7,13.9h3.5l5.9-21.9h12.7l-1.9,7l-3.2,0
			c-0.2,0-0.4,0.1-0.6,0.1c-0.8,0.2-1.2,0.5-1.4,1c-0.3,0.9,0.3,2.1,1.7,3.6c1.5,1.5,2.6,2.2,3.6,2.2c0.8,0,1.4-0.4,1.8-1.1
			c0.1-0.2,0.2-0.6,0.3-1l3.2-11.8h8.5l-5.9,21.9h3.6l5.9-21.9h10.6l-2.1,7.7h-2.4c-0.3,0-0.7,0.1-1.1,0.2c-0.6,0.1-1,0.5-1.2,1.2
			c-0.2,0.7,0.3,1.7,1.7,3.3c1.3,1.5,2.4,2.2,3.3,2.2c0.7,0,1.2-0.2,1.5-0.6c0.1-0.1,0.2-0.4,0.2-0.6l0.8-3.1h9.8l-3.1,11.7h3.5
			l5.9-21.9h4.7l0.7-2.4H747.6z M802.6,293.8l-2.1,7.7h-9.8l2.1-7.7H802.6z M726.2,284.8c1.4-0.9,2.8-1.4,4.3-1.4c1.4,0,3,0.3,4.5,1
			c0.8,0.3,1.6,0.8,2.3,1.2c1.8,1.1,3.3,2.5,4.7,4.1l0.4,0.4c0.3,0.4,0.6,0.7,0.9,1.1h-19.6c-0.1-0.2-0.1-0.4-0.2-0.6
			c0-0.1,0-0.1,0-0.2c-0.1-0.8-0.1-1.5,0.1-2.2C723.9,286.9,724.8,285.7,726.2,284.8z"/>
		<path class="st0" d="M586.4,293.8h6.6l-2.3,8.4h-8.6l1.9-7c0.4-1.3,0.1-2.4-0.9-3.2c-0.9-0.8-2.2-1.2-3.8-1.2
			c-1.6,0-3.1,0.4-4.4,1.1c-1.3,0.8-2.2,1.9-2.6,3.3c-0.1,0.4-0.1,0.9,0.1,1.8l0,0.1c0,0.2,0.1,0.4,0.2,0.7l0.1,0.2h3.3l-0.3-0.5
			c-0.1-0.1-0.2-0.2-0.2-0.3c-0.2-0.6-0.2-1.2,0-1.8c0.2-0.7,0.5-1.2,1.1-1.6c0.5-0.4,1.2-0.6,1.9-0.6c1,0,1.6,0.2,1.8,0.5
			c0.3,0.3,0.4,0.8,0.2,1.3l-2,7.3h-3.3c-0.3,0-0.6,0.1-1.1,0.3c-0.5,0.3-0.8,0.6-0.9,1c-0.1,0.4,0,1.2,2.1,3.5
			c2.1,2.3,2.9,2.5,3.3,2.5c0.5,0,1.2-0.1,1.5-0.6c0.1-0.3,0.3-0.7,0.3-0.9l0.9-3.2h8.6l-2.8,10.3c-1.1,0.2-2.2,0.5-3.2,1
			c-0.5,0.3-1.2,0.7-2,1.2l-0.3,0.2l2.3,2.1l0.2-0.2c0.6-0.5,0.9-0.7,1.1-0.9c0.9-0.6,1.8-0.9,2.7-0.9c0.9,0,1.6,0.2,2.1,0.7
			c0.5,0.5,0.6,1.1,0.4,1.8c-0.3,1.1-1.1,2-2.2,2.6c-1.2,0.7-2.6,1-4.1,1c-2.4,0-4.6-0.8-6.4-2.4c-0.6-0.5-1.3-1.3-2.1-2.3l-0.2-0.2
			l-2.9,2.3l0.2,0.2c1.1,1.1,2,1.9,2.9,2.5c2.5,1.6,5.3,2.4,8.4,2.4c2.5,0,4.7-0.5,6.5-1.6c1.9-1.1,3-2.5,3.5-4.3
			c0.4-1.5,0.1-2.8-0.9-3.9c-0.7-0.7-1.5-1.1-2.4-1.3l5.8-21.4h12.8l-1.9,7l-3.2,0l-0.3,0.1c-0.1,0-0.2,0-0.3,0.1
			c-0.5,0.1-1.2,0.3-1.4,1c-0.2,0.9,0.3,2.1,1.7,3.6c1.4,1.5,2.6,2.2,3.6,2.2c0.8,0,1.4-0.4,1.7-1.1c0.1-0.2,0.2-0.6,0.3-1l3.2-11.8
			h8.5l-5.9,21.9h3.6l5.9-21.9H649l-1.3,4.7H636c-1.7,0-3.1,0.4-4.4,1.2c-1.3,0.8-2.1,2-2.5,3.5c-0.7,2.6,0,5.5,2.3,8.4
			c0.8,1,2,2.3,3.5,3.6l0.2,0.1l2.8-1.9l-0.3-0.2c-1.3-1.2-2.4-2.3-3.1-3.2c-1.9-2.5-2.5-4.8-1.9-6.9c0.2-0.8,0.6-1.4,1.3-1.8
			c0.8-0.4,1.8-0.6,3.1-0.6h10.2l-4,14.9h3.5l5.9-21.9h8.5l-5.9,21.9h3.5l5.9-21.9h23.7l-1.5,5.6l-14.5,0c-0.5,0-1,0.1-1.6,0.3
			c-0.6,0.2-1,0.7-1.2,1.4c-0.1,0.4,0,1.1,1.7,3.3c1.4,1.7,2.3,2.4,2.9,2.4c0.8,0,1.3-0.3,1.6-0.8l1.1-4.1h9.2l-3.8,13.9h3.5
			l5.9-21.9h4.7l0.7-2.4H587L586.4,293.8z"/>
		<path class="st0" d="M519.1,286.6c-1.1-2.6-3-4.2-5.6-4.8c-0.8-0.2-1.6-0.3-2.7-0.3c-2.1,0-3.9,0.5-5.4,1.4c-1.5,1-2.5,2.4-3,4.3
			c-0.3,0.9-0.2,2,0.2,3.3c0,0.3,0.1,0.5,0.3,0.9h-66.3l-0.7,2.4h14.4l-1.5,5.5c-0.2,0.8-0.7,1.5-1.5,2c-0.8,0.5-1.8,0.8-2.9,0.8
			c-0.7,0-1.3-0.1-1.9-0.3c-0.7-0.3-0.8-0.5-0.8-0.6l-1.5-3.5l-3.2,1.7l0.1,0.3c0.3,0.8,0.6,1.5,0.9,2c0.7,1.6,1.6,3.4,2.9,5.5
			c0.8,1.3,1.8,2.9,3,4.6c0.9,1.3,2,2.6,3.2,4l0.2,0.2l3.1-2l-0.2-0.2c-0.3-0.4-0.6-0.7-0.9-1c-0.3-0.3-0.5-0.6-0.7-0.8
			c-0.5-0.6-0.9-1.2-1.3-1.7c-0.5-0.7-1-1.2-1.4-1.7l-2.4-4.2c1.4,0.3,3,0,4.7-0.6c1.3-0.5,2.3-1,2.9-1.7c0.7-0.7,1.1-1.5,1.3-2.3
			l1.6-5.8h9.2l-5.9,21.9h3.5l5.9-21.9h8l-2.4,8.7c-0.5,1.8,0,3.3,1.4,4.5c1.4,1.2,3.2,1.7,5.5,1.7c1,0,2-0.2,3.1-0.5
			c0.7-0.2,1.4-0.4,2.2-0.7c0.2,1.1,0.7,2.1,1.5,3.1c0.2,0.3,0.4,0.5,0.6,0.7l0.1,0.1c1.3,1.3,2.9,2.1,4.8,2.5l-11.9,8.2h5.2l8.9-7
			l4.7,7h4.2l-6.1-7.9c1.6-0.2,2.9-0.5,4.1-1c1.8-0.7,3.4-1.8,5.1-3.3l0.3-0.3l-2.7-1.5l-0.2,0.1c-2.3,2.3-5,3.4-8.3,3.4
			c-2.4,0-4.3-0.7-5.7-2.1c-1.2-1.2-1.6-2.5-1.5-4c0.1-0.3,0.1-0.6,0.2-0.8c0.1-0.3,0.1-0.5,0.2-0.6c0.4-0.8,1.1-1.5,2-2.1
			c1.1-0.8,2.4-1.2,3.7-1.2H504l1.9-7.1h10.5l-5.9,21.9h3.5l5.9-21.9h11.7c0.5,0.6,0.8,1,0.9,1.3c0.6,1.2,0.7,2.1,0.5,3
			c-0.4,1.3-1.1,2.3-2.2,2.9c-0.9,0.5-2.2,0.8-3.6,0.8c-0.2,0-0.4,0-0.8-0.1c-0.2,0-0.3-0.1-0.5-0.1c-0.2,0-0.3-0.1-0.5-0.1l-0.2,0
			l-0.1,0.2c-0.6,2.3-0.2,4.3,1.2,6.2c1.4,1.8,3.7,2.8,7,2.8h0.2c1.9,0,3.9-0.4,5.7-1.1c0.4-0.2,0.9-0.4,1.5-0.7l-1.8,6.9h3.6
			l5.9-21.9h4.7l0.7-2.4h-33.6C520,289.2,519.6,287.6,519.1,286.6z M536.4,295c-0.1-0.3-0.2-0.7-0.5-1.2h9.1l-3,11.2
			c-0.9,0.8-1.5,1.3-2.1,1.6c-1.9,1.1-3.7,1.7-5.7,1.7H534c-2.4,0-4-0.7-4.8-2.2c-0.2-0.4-0.4-1-0.5-2c1.4-0.3,2.5-0.6,3.4-0.9
			c2.5-1,4.1-2.7,4.7-4.9C537,297.3,536.9,296.2,536.4,295z M507.3,284.7c0.8-0.6,1.8-0.9,3.1-0.9c0.9,0,1.7,0.1,2.4,0.4
			c1.4,0.6,2.5,1.7,3.3,3.5c0.4,0.8,0.7,2,0.9,3.6h-10.9c-0.1-0.3-0.2-0.6-0.3-0.8l-0.1-0.1c-0.3-1-0.3-2,0-3.1
			C506,286.2,506.6,285.3,507.3,284.7z M484.7,304.2C484.7,304.3,484.7,304.3,484.7,304.2l-0.1,0.2c-0.1,0.2-0.1,0.5-0.2,0.7
			c-0.2,0.1-0.6,0.3-0.9,0.4c-1.3,0.5-2.5,0.8-3.8,0.8h-0.1c-1.4,0-2.5-0.4-3.2-1c-0.7-0.6-0.9-1.5-0.6-2.6l1.8-6.7L484.7,304.2z
			 M502.5,293.8l-1.2,4.5h-7.6c-1.7,0-3.4,0.4-4.8,1.2c-0.4,0.2-0.6,0.4-0.9,0.6c-0.8,0.5-1.4,1.1-1.8,1.7l-7-8H502.5z"/>
		<path class="st0" d="M383.7,286.6c-1.2-2.6-3.1-4.2-5.6-4.8c-0.7-0.2-1.6-0.3-2.7-0.3c-2.1,0-3.9,0.5-5.4,1.4
			c-1.5,1-2.6,2.4-3.1,4.3c-0.2,0.9-0.2,2,0.2,3.3c0.1,0.3,0.2,0.6,0.3,0.9h-66.3l-0.7,2.4h6.6l-2.3,8.4h-8.6l1.9-7
			c0.3-1.3,0-2.4-0.9-3.2c-0.9-0.8-2.2-1.2-3.8-1.2c-1.6,0-3.1,0.4-4.4,1.1c-1.3,0.8-2.1,1.9-2.5,3.3c-0.1,0.5-0.1,1.1,0,1.7
			c0,0.2,0.1,0.5,0.3,0.8l0.1,0.1h3.3l-0.3-0.5c-0.1-0.1-0.1-0.2-0.1-0.3c-0.2-0.6-0.2-1.2,0-1.8c0.2-0.7,0.5-1.2,1.1-1.6
			c0.5-0.4,1.2-0.6,1.9-0.6c1,0,1.6,0.2,1.9,0.5c0.3,0.3,0.3,0.8,0.2,1.3l-2,7.3h-3.3c-0.3,0-0.7,0.1-1.2,0.3
			c-0.5,0.3-0.8,0.6-0.9,1c-0.1,0.2-0.3,1,2.1,3.5c2.1,2.3,2.9,2.5,3.4,2.5c0.5,0,1.2-0.1,1.5-0.6c0.2-0.3,0.3-0.7,0.3-0.9l0.9-3.2
			h8.6l-2.9,10.9h3.5l5.9-21.9h8.5l-5.9,21.9h3.6l5.9-21.9h17.8l-1.5,5.5c-0.2,0.8-0.7,1.5-1.4,2c-0.8,0.5-1.8,0.8-2.9,0.8
			c-0.7,0-1.3-0.1-1.9-0.3c-0.6-0.3-0.8-0.5-0.9-0.6l-1.5-3.5l-3.1,1.6l0.1,0.2c0.3,0.7,0.5,1.4,0.9,2.1c0.7,1.6,1.6,3.4,2.8,5.5
			c0.7,1.2,1.7,2.6,3.1,4.6c1.1,1.5,2.2,2.8,3.2,4l0.2,0.2l3.1-2l-0.3-0.3c-0.7-0.7-1.2-1.3-1.6-1.7l-0.5-0.6
			c-0.9-1.1-1.6-2-2.2-2.8l-2.4-4.2c1.4,0.3,3,0,4.7-0.6c1.3-0.5,2.3-1,2.9-1.7c0.7-0.7,1.1-1.5,1.3-2.3l1.6-5.8h25l-1.3,4.7H356
			c-1.7,0-3.2,0.4-4.4,1.2c-1.3,0.8-2.1,2-2.5,3.5c-0.7,2.6,0.1,5.5,2.3,8.4c0.8,1,2,2.3,3.5,3.6l0.2,0.1l2.8-1.9l-0.3-0.2
			c-1.4-1.2-2.4-2.3-3.1-3.2c-1.8-2.5-2.5-4.8-1.9-6.9c0.2-0.8,0.6-1.4,1.3-1.8c0.8-0.4,1.8-0.6,3.1-0.6h10.3l-4,14.9h3.5l5.9-21.9
			h8.5l-5.9,21.9h3.5l5.9-21.9h11.7c0.5,0.6,0.8,0.9,0.9,1.3c0.6,1.1,0.8,2.1,0.5,3c-0.3,1.3-1.1,2.3-2.2,2.9
			c-1,0.5-2.2,0.8-3.6,0.8c-0.1,0-0.4,0-0.8-0.1c-0.2,0-0.3-0.1-0.5-0.1c-0.2,0-0.3-0.1-0.5-0.1l-0.2,0l-0.1,0.2
			c-0.6,2.2-0.2,4.3,1.2,6.2c1.4,1.8,3.7,2.8,7,2.8h0.2c2,0,3.9-0.4,5.7-1.1c0.4-0.2,0.9-0.4,1.5-0.7l-1.8,6.8h3.5l5.9-21.9h4.7
			l0.7-2.4h-33.6C384.6,289.2,384.2,287.6,383.7,286.6z M401,295c-0.1-0.3-0.3-0.7-0.5-1.2h9l-3,11.2c-0.9,0.8-1.6,1.3-2.1,1.6
			c-1.8,1.1-3.7,1.7-5.7,1.7h-0.2c-2.4,0-4-0.8-4.8-2.2c-0.2-0.5-0.4-1.2-0.5-2c1.4-0.3,2.6-0.6,3.4-0.9c2.5-1,4.1-2.7,4.7-4.9
			C401.6,297.4,401.5,296.2,401,295z M371.9,284.7c0.8-0.6,1.8-0.9,3-0.9c0.9,0,1.7,0.1,2.4,0.4c1.5,0.6,2.6,1.7,3.4,3.5
			c0.3,0.7,0.6,1.9,0.9,3.6h-10.9c-0.1-0.3-0.3-0.6-0.4-0.9c-0.3-1-0.3-2.1,0-3.1C370.6,286.2,371.1,285.3,371.9,284.7z"/>
	</g>
	<g>
		<path class="st0" d="M35.6,358.7l7.2-25.7l11.5,15.1c0.3,0.4,0.6,0.9,0.9,1.4c0.3,0.5,0.6,1,0.9,1.6l4.8-17.2h3.7l-7.1,25.7
			l-11.8-15.4c-0.3-0.4-0.6-0.9-0.9-1.3c-0.3-0.5-0.5-0.9-0.7-1.5l-4.8,17.2H35.6z"/>
		<path class="st0" d="M80.5,358.7l-1-6.4h-9.8l-4.6,6.4h-4.2L79.9,333l4.8,25.7H80.5z M72.1,349H79l-1-5.6c0-0.4-0.1-0.8-0.1-1.2
			c0-0.5,0-1,0-1.6c-0.3,0.5-0.6,1-0.9,1.5c-0.3,0.5-0.6,0.9-0.8,1.3L72.1,349z"/>
		<path class="st0" d="M97,337.4l-5.9,21.3h-4l5.9-21.3h-6.6l0.9-3.4h17.1l-0.9,3.4H97z"/>
		<path class="st0" d="M101.5,358.7l6.9-24.8h4l-6.9,24.8H101.5z"/>
		<path class="st0" d="M138.7,346.4c-0.5,1.8-1.3,3.4-2.4,5c-1.1,1.6-2.4,3-4,4.2c-1.6,1.2-3.3,2.2-5.1,2.8c-1.8,0.7-3.6,1-5.3,1
			c-1.8,0-3.4-0.3-4.8-1c-1.4-0.7-2.6-1.6-3.5-2.8c-0.9-1.2-1.5-2.6-1.7-4.2s-0.1-3.2,0.4-5c0.5-1.8,1.3-3.4,2.4-5
			c1.1-1.6,2.4-3,4-4.2c1.6-1.2,3.3-2.2,5.1-2.8c1.8-0.6,3.6-1,5.4-1c1.8,0,3.4,0.3,4.8,1c1.4,0.6,2.6,1.6,3.5,2.8
			c0.9,1.3,1.5,2.7,1.7,4.2C139.3,343,139.2,344.7,138.7,346.4z M134.5,346.4c0.3-1.3,0.5-2.4,0.3-3.6c-0.1-1.1-0.5-2.1-1.1-3
			c-0.6-0.9-1.4-1.5-2.3-2c-1-0.5-2.1-0.7-3.3-0.7c-1.2,0-2.4,0.2-3.7,0.7c-1.2,0.5-2.4,1.1-3.5,2c-1.1,0.9-2,1.9-2.8,3
			c-0.8,1.1-1.3,2.3-1.7,3.6c-0.3,1.3-0.5,2.4-0.3,3.6c0.1,1.1,0.5,2.1,1.1,3c0.6,0.9,1.4,1.5,2.4,2c1,0.5,2.1,0.7,3.3,0.7
			c1.2,0,2.4-0.2,3.6-0.7c1.2-0.5,2.4-1.1,3.5-2c1.1-0.9,2-1.9,2.8-3C133.6,348.8,134.2,347.7,134.5,346.4z"/>
		<path class="st0" d="M139.2,358.7l7.2-25.7l11.5,15.1c0.3,0.4,0.6,0.9,0.9,1.4c0.3,0.5,0.6,1,0.9,1.6l4.8-17.2h3.7l-7.1,25.7
			l-11.8-15.4c-0.3-0.4-0.6-0.9-0.9-1.3c-0.3-0.5-0.5-0.9-0.7-1.5l-4.8,17.2H139.2z"/>
		<path class="st0" d="M184.1,358.7l-1-6.4h-9.8l-4.6,6.4h-4.2l19.1-25.7l4.8,25.7H184.1z M175.6,349h6.9l-1-5.6
			c0-0.4-0.1-0.8-0.1-1.2c0-0.5,0-1,0-1.6c-0.3,0.5-0.6,1-0.9,1.5c-0.3,0.5-0.6,0.9-0.8,1.3L175.6,349z"/>
		<path class="st0" d="M191.3,358.7l6.9-24.8h4l-5.9,21.2h9l-1,3.6H191.3z"/>
		<path class="st0" d="M225.6,347.6l-3.1,11.1h-3.8l6.9-24.8h6.1c1.8,0,3.1,0.1,3.9,0.3c0.8,0.2,1.4,0.5,2,1c0.6,0.6,1,1.3,1.2,2.3
			c0.2,1,0.1,2-0.2,3.2s-0.8,2.3-1.6,3.2c-0.7,1-1.5,1.8-2.5,2.3c-0.8,0.5-1.6,0.8-2.5,1c-0.9,0.2-2.3,0.3-4.1,0.3h-0.8H225.6z
			 M226.8,344.3h1c2.2,0,3.8-0.2,4.7-0.7c0.9-0.5,1.5-1.3,1.8-2.6c0.4-1.3,0.2-2.2-0.4-2.8c-0.6-0.5-2-0.8-4.2-0.8h-1L226.8,344.3z"
			/>
		<path class="st0" d="M249.6,358.7l-1-6.4h-9.8l-4.6,6.4h-4.2L249,333l4.8,25.7H249.6z M241.2,349h6.9l-1-5.6
			c0-0.4-0.1-0.8-0.1-1.2c0-0.5,0-1,0-1.6c-0.3,0.5-0.6,1-0.9,1.5c-0.3,0.5-0.6,0.9-0.8,1.3L241.2,349z"/>
		<path class="st0" d="M256.1,358.7l3.1-11.3l-4.6-13.4h4.2l2.9,8.4c0.1,0.2,0.1,0.5,0.2,0.8c0.1,0.4,0.2,0.7,0.3,1.1
			c0.3-0.4,0.5-0.8,0.8-1.1c0.3-0.3,0.5-0.7,0.8-1l7.6-8.3h4l-12.3,13.4l-3.1,11.3H256.1z"/>
		<path class="st0" d="M292.9,346.5c0-0.2,0.1-0.7,0.2-1.6c0.1-0.7,0.2-1.3,0.3-1.8c-0.3,0.6-0.6,1.1-0.9,1.7
			c-0.3,0.6-0.7,1.1-1.2,1.7l-10.1,13.2l-2.7-13.5c-0.1-0.6-0.2-1.1-0.3-1.6c-0.1-0.5-0.1-1-0.1-1.5c-0.2,0.5-0.3,1.1-0.6,1.6
			c-0.2,0.6-0.5,1.2-0.8,1.8l-6,12.2h-3.7l13-25.8l3,15.6c0,0.2,0.1,0.7,0.2,1.2c0.1,0.6,0.2,1.3,0.2,2.1c0.4-0.7,1.1-1.6,1.9-2.7
			c0.2-0.3,0.4-0.5,0.5-0.7l11.5-15.6l-1.2,25.8h-3.7L292.9,346.5z"/>
		<path class="st0" d="M299.8,358.7l6.9-24.8h13.8l-0.9,3.4h-9.8l-1.7,6.2h9.8l-1,3.5h-9.8l-2.2,8h9.8l-1,3.6H299.8z"/>
		<path class="st0" d="M319,358.7l7.2-25.7l11.5,15.1c0.3,0.4,0.6,0.9,0.9,1.4c0.3,0.5,0.6,1,0.9,1.6l4.8-17.2h3.7l-7.1,25.7
			l-11.8-15.4c-0.3-0.4-0.6-0.9-0.9-1.3c-0.3-0.5-0.5-0.9-0.7-1.5l-4.8,17.2H319z"/>
		<path class="st0" d="M361.4,337.4l-5.9,21.3h-4l5.9-21.3h-6.6l0.9-3.4h17.1l-0.9,3.4H361.4z"/>
		<path class="st0" d="M365.8,353.8l3.6-1.5c0,1.1,0.3,1.9,1,2.5c0.7,0.6,1.6,0.9,2.9,0.9c1.2,0,2.2-0.3,3.1-1
			c0.9-0.7,1.5-1.6,1.8-2.7c0.4-1.5-0.4-2.8-2.5-3.9c-0.3-0.2-0.5-0.3-0.7-0.4c-2.4-1.3-3.8-2.5-4.5-3.6c-0.6-1.1-0.7-2.4-0.3-3.9
			c0.6-2,1.7-3.7,3.4-4.9c1.7-1.3,3.7-1.9,5.9-1.9c1.8,0,3.3,0.4,4.3,1.1c1,0.7,1.6,1.7,1.7,3l-3.6,1.6c-0.3-0.8-0.7-1.3-1.2-1.7
			c-0.5-0.4-1.1-0.5-1.9-0.5c-1.1,0-2,0.3-2.8,0.8c-0.8,0.6-1.3,1.3-1.6,2.3c-0.4,1.5,0.6,2.9,3,4.2c0.2,0.1,0.3,0.2,0.4,0.2
			c2.1,1.1,3.5,2.2,4.1,3.3c0.6,1.1,0.7,2.4,0.3,4c-0.7,2.3-1.9,4.2-3.8,5.6c-1.9,1.4-4,2.1-6.6,2.1c-2.1,0-3.7-0.5-4.8-1.5
			C366.2,357,365.7,355.6,365.8,353.8z"/>
		<path class="st0" d="M419.7,340c-0.9-1-1.9-1.7-3-2.2c-1.1-0.5-2.4-0.7-3.8-0.7c-2.7,0-5.1,0.9-7.3,2.6c-2.2,1.7-3.7,4-4.4,6.7
			c-0.7,2.7-0.5,4.9,0.6,6.6c1.2,1.7,3,2.6,5.5,2.6c1.5,0,2.9-0.3,4.4-0.8c1.5-0.5,3-1.3,4.5-2.4l-1.3,4.5c-1.3,0.8-2.6,1.4-4,1.7
			c-1.4,0.4-2.8,0.6-4.3,0.6c-1.9,0-3.6-0.3-5-0.9c-1.4-0.6-2.6-1.5-3.5-2.7c-0.9-1.2-1.4-2.6-1.6-4.2c-0.2-1.6-0.1-3.3,0.5-5.1
			c0.5-1.8,1.3-3.5,2.4-5.1c1.1-1.6,2.4-3,4-4.2c1.6-1.2,3.2-2.1,5-2.8c1.8-0.6,3.6-0.9,5.4-0.9c1.5,0,2.8,0.2,4,0.6
			c1.2,0.4,2.3,1.1,3.3,1.9L419.7,340z"/>
		<path class="st0" d="M448.2,346.4c-0.5,1.8-1.3,3.4-2.4,5c-1.1,1.6-2.4,3-4,4.2c-1.6,1.2-3.3,2.2-5.1,2.8c-1.8,0.7-3.6,1-5.3,1
			c-1.8,0-3.4-0.3-4.8-1c-1.4-0.7-2.6-1.6-3.5-2.8c-0.9-1.2-1.5-2.6-1.7-4.2c-0.2-1.6-0.1-3.2,0.4-5c0.5-1.8,1.3-3.4,2.4-5
			c1.1-1.6,2.4-3,4-4.2c1.6-1.2,3.3-2.2,5.1-2.8c1.8-0.6,3.6-1,5.4-1c1.8,0,3.4,0.3,4.8,1c1.4,0.6,2.6,1.6,3.5,2.8
			c0.9,1.3,1.5,2.7,1.7,4.2C448.9,343,448.7,344.7,448.2,346.4z M444.1,346.4c0.3-1.3,0.5-2.4,0.3-3.6c-0.1-1.1-0.5-2.1-1.1-3
			c-0.6-0.9-1.4-1.5-2.3-2c-1-0.5-2.1-0.7-3.3-0.7c-1.2,0-2.4,0.2-3.7,0.7c-1.2,0.5-2.4,1.1-3.5,2c-1.1,0.9-2,1.9-2.8,3
			c-0.8,1.1-1.3,2.3-1.7,3.6c-0.3,1.3-0.5,2.4-0.3,3.6c0.1,1.1,0.5,2.1,1.1,3c0.6,0.9,1.4,1.5,2.4,2c1,0.5,2.1,0.7,3.3,0.7
			c1.2,0,2.4-0.2,3.6-0.7c1.2-0.5,2.4-1.1,3.5-2c1.1-0.9,2-1.9,2.8-3C443.1,348.8,443.7,347.7,444.1,346.4z"/>
		<path class="st0" d="M456.3,347.7l-3.1,11.1h-3.8l6.9-24.8h5.6c1.6,0,2.9,0.1,3.7,0.3c0.8,0.2,1.5,0.6,2,1.1
			c0.6,0.6,1,1.4,1.1,2.3c0.2,0.9,0.1,2-0.2,3.1c-0.6,2-1.5,3.5-2.7,4.7c-1.3,1.1-2.9,1.8-4.8,2l5.4,11.3h-4.5l-5.2-11.1H456.3z
			 M457.4,344.5h0.7c2.1,0,3.6-0.2,4.5-0.7c0.8-0.5,1.4-1.4,1.8-2.6c0.4-1.4,0.3-2.3-0.3-2.9c-0.6-0.6-1.9-0.8-3.9-0.8h-0.7
			L457.4,344.5z"/>
		<path class="st0" d="M476.4,347.6l-3.1,11.1h-3.8l6.9-24.8h6.1c1.8,0,3.1,0.1,3.9,0.3c0.8,0.2,1.4,0.5,2,1c0.6,0.6,1,1.3,1.2,2.3
			c0.2,1,0.1,2-0.2,3.2c-0.3,1.2-0.8,2.3-1.6,3.2c-0.7,1-1.5,1.8-2.5,2.3c-0.8,0.5-1.6,0.8-2.5,1c-0.9,0.2-2.3,0.3-4.1,0.3h-0.8
			H476.4z M477.6,344.3h1c2.2,0,3.8-0.2,4.7-0.7c0.9-0.5,1.5-1.3,1.8-2.6c0.4-1.3,0.2-2.2-0.4-2.8c-0.6-0.5-2-0.8-4.2-0.8h-1
			L477.6,344.3z"/>
		<path class="st0" d="M516.8,346.4c-0.5,1.8-1.3,3.4-2.4,5c-1.1,1.6-2.4,3-4,4.2c-1.6,1.2-3.3,2.2-5.1,2.8c-1.8,0.7-3.6,1-5.3,1
			c-1.8,0-3.4-0.3-4.8-1c-1.4-0.7-2.6-1.6-3.5-2.8c-0.9-1.2-1.5-2.6-1.7-4.2c-0.2-1.6-0.1-3.2,0.4-5c0.5-1.8,1.3-3.4,2.4-5
			c1.1-1.6,2.4-3,4-4.2c1.6-1.2,3.3-2.2,5.1-2.8c1.8-0.6,3.6-1,5.4-1c1.8,0,3.4,0.3,4.8,1c1.4,0.6,2.6,1.6,3.5,2.8
			c0.9,1.3,1.5,2.7,1.7,4.2C517.4,343,517.3,344.7,516.8,346.4z M512.6,346.4c0.3-1.3,0.5-2.4,0.3-3.6c-0.1-1.1-0.5-2.1-1.1-3
			c-0.6-0.9-1.4-1.5-2.3-2c-1-0.5-2.1-0.7-3.3-0.7c-1.2,0-2.4,0.2-3.7,0.7c-1.2,0.5-2.4,1.1-3.5,2c-1.1,0.9-2,1.9-2.8,3
			c-0.8,1.1-1.3,2.3-1.7,3.6c-0.3,1.3-0.5,2.4-0.3,3.6c0.1,1.1,0.5,2.1,1.1,3c0.6,0.9,1.4,1.5,2.4,2c1,0.5,2.1,0.7,3.3,0.7
			c1.2,0,2.4-0.2,3.6-0.7c1.2-0.5,2.4-1.1,3.5-2c1.1-0.9,2-1.9,2.8-3C511.7,348.8,512.2,347.7,512.6,346.4z"/>
		<path class="st0" d="M523.4,347.7l-3.1,11.1h-3.8l6.9-24.8h5.6c1.6,0,2.9,0.1,3.7,0.3c0.8,0.2,1.5,0.6,2,1.1
			c0.6,0.6,1,1.4,1.1,2.3c0.2,0.9,0.1,2-0.2,3.1c-0.6,2-1.5,3.5-2.7,4.7c-1.3,1.1-2.9,1.8-4.8,2l5.4,11.3H529l-5.2-11.1H523.4z
			 M524.6,344.5h0.7c2.1,0,3.6-0.2,4.5-0.7c0.8-0.5,1.4-1.4,1.8-2.6c0.4-1.4,0.3-2.3-0.3-2.9c-0.6-0.6-1.9-0.8-3.9-0.8h-0.7
			L524.6,344.5z"/>
		<path class="st0" d="M553.7,358.7l-1-6.4h-9.8l-4.6,6.4H534l19.1-25.7l4.8,25.7H553.7z M545.3,349h6.9l-1-5.6
			c0-0.4-0.1-0.8-0.1-1.2c0-0.5,0-1,0-1.6c-0.3,0.5-0.6,1-0.9,1.5c-0.3,0.5-0.6,0.9-0.8,1.3L545.3,349z"/>
		<path class="st0" d="M570.3,337.4l-5.9,21.3h-4l5.9-21.3h-6.6l0.9-3.4h17.1l-0.9,3.4H570.3z"/>
		<path class="st0" d="M574.7,358.7l6.9-24.8h4l-6.9,24.8H574.7z"/>
		<path class="st0" d="M611.9,346.4c-0.5,1.8-1.3,3.4-2.4,5c-1.1,1.6-2.4,3-4,4.2c-1.6,1.2-3.3,2.2-5.1,2.8c-1.8,0.7-3.6,1-5.3,1
			c-1.8,0-3.4-0.3-4.8-1c-1.4-0.7-2.6-1.6-3.5-2.8c-0.9-1.2-1.5-2.6-1.7-4.2c-0.2-1.6-0.1-3.2,0.4-5c0.5-1.8,1.3-3.4,2.4-5
			c1.1-1.6,2.4-3,4-4.2c1.6-1.2,3.3-2.2,5.1-2.8c1.8-0.6,3.6-1,5.4-1c1.8,0,3.4,0.3,4.8,1c1.4,0.6,2.6,1.6,3.5,2.8
			c0.9,1.3,1.5,2.7,1.7,4.2C612.6,343,612.4,344.7,611.9,346.4z M607.7,346.4c0.3-1.3,0.5-2.4,0.3-3.6c-0.1-1.1-0.5-2.1-1.1-3
			c-0.6-0.9-1.4-1.5-2.3-2c-1-0.5-2.1-0.7-3.3-0.7c-1.2,0-2.4,0.2-3.7,0.7c-1.2,0.5-2.4,1.1-3.5,2c-1.1,0.9-2,1.9-2.8,3
			c-0.8,1.1-1.3,2.3-1.7,3.6c-0.3,1.3-0.5,2.4-0.3,3.6c0.1,1.1,0.5,2.1,1.1,3c0.6,0.9,1.4,1.5,2.4,2c1,0.5,2.1,0.7,3.3,0.7
			c1.2,0,2.4-0.2,3.6-0.7c1.2-0.5,2.4-1.1,3.5-2c1.1-0.9,2-1.9,2.8-3C606.8,348.8,607.4,347.7,607.7,346.4z"/>
		<path class="st0" d="M611.8,358.7l7.2-25.7l11.5,15.1c0.3,0.4,0.6,0.9,0.9,1.4c0.3,0.5,0.6,1,0.9,1.6L637,334h3.7l-7.1,25.7
			l-11.8-15.4c-0.3-0.4-0.6-0.9-0.9-1.3c-0.3-0.5-0.5-0.9-0.7-1.5l-4.8,17.2H611.8z"/>
		<path class="st0" d="M676.1,346.4c-0.5,1.8-1.3,3.4-2.4,5c-1.1,1.6-2.4,3-4,4.2c-1.6,1.2-3.3,2.2-5.1,2.8c-1.8,0.7-3.6,1-5.3,1
			c-1.8,0-3.4-0.3-4.8-1c-1.4-0.7-2.6-1.6-3.5-2.8c-0.9-1.2-1.5-2.6-1.7-4.2c-0.2-1.6-0.1-3.2,0.4-5c0.5-1.8,1.3-3.4,2.4-5
			c1.1-1.6,2.4-3,4-4.2c1.6-1.2,3.3-2.2,5.1-2.8c1.8-0.6,3.6-1,5.4-1c1.8,0,3.4,0.3,4.8,1c1.4,0.6,2.6,1.6,3.5,2.8
			c0.9,1.3,1.5,2.7,1.7,4.2C676.7,343,676.5,344.7,676.1,346.4z M671.9,346.4c0.3-1.3,0.5-2.4,0.3-3.6c-0.1-1.1-0.5-2.1-1.1-3
			c-0.6-0.9-1.4-1.5-2.3-2c-1-0.5-2.1-0.7-3.3-0.7c-1.2,0-2.4,0.2-3.7,0.7c-1.2,0.5-2.4,1.1-3.5,2c-1.1,0.9-2,1.9-2.8,3
			c-0.8,1.1-1.3,2.3-1.7,3.6c-0.3,1.3-0.5,2.4-0.3,3.6c0.1,1.1,0.5,2.1,1.1,3c0.6,0.9,1.4,1.5,2.4,2c1,0.5,2.1,0.7,3.3,0.7
			c1.2,0,2.4-0.2,3.6-0.7c1.2-0.5,2.4-1.1,3.5-2c1.1-0.9,2-1.9,2.8-3C671,348.8,671.5,347.7,671.9,346.4z"/>
		<path class="st0" d="M675.9,358.7l6.9-24.8h13.8l-0.9,3.4h-9.8l-1.7,6.2h9.8l-1,3.5h-9.8l-3.2,11.6H675.9z"/>
		<path class="st0" d="M704.6,358.7l6.9-24.8h4l-6.9,24.8H704.6z"/>
		<path class="st0" d="M712.3,358.7l7.2-25.7l11.5,15.1c0.3,0.4,0.6,0.9,0.9,1.4c0.3,0.5,0.6,1,0.9,1.6l4.8-17.2h3.7l-7.1,25.7
			l-11.8-15.4c-0.3-0.4-0.6-0.9-0.9-1.3c-0.3-0.5-0.5-0.9-0.7-1.5l-4.8,17.2H712.3z"/>
		<path class="st0" d="M738.7,358.7l6.9-24.8h5.4c3.5,0,6,0.2,7.3,0.5c1.3,0.4,2.4,0.9,3.3,1.8c1.1,1.1,1.8,2.5,2.1,4.2
			c0.3,1.7,0.1,3.7-0.5,5.9c-0.6,2.2-1.5,4.1-2.7,5.8c-1.2,1.7-2.7,3.1-4.4,4.2c-1.3,0.8-2.7,1.4-4.2,1.8c-1.5,0.4-3.7,0.5-6.6,0.5
			h-1.1H738.7z M743.8,355.1h3.4c1.9,0,3.3-0.1,4.3-0.4c1-0.2,1.9-0.7,2.8-1.3c1.2-0.8,2.1-1.8,2.9-3c0.8-1.2,1.4-2.6,1.9-4.2
			c0.4-1.6,0.6-3,0.5-4.2c-0.1-1.2-0.6-2.2-1.3-3c-0.5-0.6-1.3-1-2.2-1.3c-0.9-0.2-2.4-0.4-4.5-0.4h-1.5h-1.5L743.8,355.1z"/>
		<path class="st0" d="M762.4,358.7l6.9-24.8h4l-6.9,24.8H762.4z"/>
		<path class="st0" d="M788.5,358.7l-1-6.4h-9.8l-4.6,6.4h-4.2L788,333l4.8,25.7H788.5z M780.1,349h6.9l-1-5.6
			c0-0.4-0.1-0.8-0.1-1.2c0-0.5,0-1,0-1.6c-0.3,0.5-0.6,1-0.9,1.5c-0.3,0.5-0.6,0.9-0.8,1.3L780.1,349z"/>
	</g>
</g>
</svg>
