<svg xmlns="http://www.w3.org/2000/svg" width="392.382" height="176.664" viewBox="109.065 36.417 98.095 44.166"><g data-name="Group 8"><g data-name="Group 7"><g data-name="Group 6"><g data-name="Group 5"><g data-name="Group 4"><path d="M194.553 71.24c-.832.226-1.405.55-2.031 1.145-2.388 2.257-1.762 6.266 1.21 7.735.972.475 2.16.594 3.273.313 3.447-.886 4.7-5.218 2.27-7.875-1.136-1.243-3.026-1.772-4.722-1.319Zm2.582 1.35c.702.324 1.35.983 1.685 1.707.248.518.292.767.292 1.534 0 .82-.044 1.005-.357 1.642-.453.918-1.026 1.426-1.944 1.707-.843.26-1.102.27-1.859.043-1.62-.475-2.57-1.89-2.462-3.64.107-1.6.928-2.68 2.409-3.177.593-.195 1.62-.108 2.236.184Z" fill="#fff" fill-rule="evenodd" data-name="Path 17"/><path d="M129.365 71.218c-3.23.918-4.332 5.336-1.977 7.95.734.811 1.804 1.319 2.981 1.384 1.47.097 2.572-.281 3.63-1.232l.465-.41-.432-.422-.433-.42-.453.41a3.564 3.564 0 0 1-3.382.767c-.842-.249-1.674-1.048-1.998-1.934-.422-1.145-.746-1.048 3.392-1.048h3.62v-.465c0-.648-.282-1.858-.563-2.442-.367-.766-1.177-1.555-1.944-1.9-.789-.357-2.107-.465-2.906-.238Zm2.366 1.328c.81.4 1.393 1.264 1.577 2.334l.075.41h-5.866l.065-.41c.195-1.037 1.102-2.215 1.923-2.474.692-.227 1.61-.162 2.226.14Z" fill="#fff" fill-rule="evenodd" data-name="Path 16"/><path d="M202.947 69.943v1.35H201.65v1.178l.627.032.616.033.054 3.295c.054 3.079.065 3.316.28 3.673.26.454.778.821 1.384.983.529.14 1.728.076 2.15-.119.259-.13.291-.194.291-.713v-.561l-.508.162c-.594.173-1.339.119-1.739-.14-.508-.336-.562-.681-.562-3.771v-2.863h2.917v-1.189h-2.917v-2.7h-1.296v1.35Z" fill="#fff" fill-rule="evenodd" data-name="Path 15"/><path d="M110.361 69.943v1.35h-1.296v1.178l.626.032.616.033.054 3.295c.054 3.079.065 3.316.281 3.673.26.454.778.821 1.383.983.53.14 1.729.076 2.15-.119.26-.13.291-.194.291-.713v-.561l-.507.162c-.594.173-1.34.119-1.74-.14-.507-.336-.561-.681-.561-3.771v-2.863h2.917v-1.189h-2.917v-2.7H110.36v1.35Z" fill="#fff" fill-rule="evenodd" data-name="Path 14"/><path d="M163.838 74.21v6.159H165.243v-4.862h3.457l1.804 2.43 1.804 2.432h.854c.67 0 .831-.033.756-.141-.659-.832-3.597-4.862-3.576-4.884.022-.01.303-.107.627-.205 1.674-.529 2.593-1.74 2.593-3.403 0-1.274-.53-2.28-1.535-2.938-1.026-.66-1.642-.746-5.153-.746h-3.036v6.158Zm6.493-4.688c1.145.324 1.826 1.166 1.826 2.258 0 .994-.54 1.76-1.567 2.236-.507.227-.702.248-2.938.28l-2.41.044v-4.991h2.237c1.718 0 2.377.043 2.852.173Z" fill="#fff" fill-rule="evenodd" data-name="Path 13"/><path d="M153.575 74.21v6.159H161.894V79.072h-6.914v-11.02H153.575v6.158Z" fill="#fff" fill-rule="evenodd" data-name="Path 12"/><path d="M141.367 74.21v6.17l3.49-.033c3.252-.033 3.521-.054 4.105-.27 1.426-.53 2.215-1.48 2.323-2.788.032-.41 0-.896-.087-1.188-.194-.702-.918-1.458-1.728-1.826l-.66-.302.487-.303a2.906 2.906 0 0 0 1.264-1.804c.324-1.599-.39-2.895-1.945-3.511-.572-.227-.8-.249-3.921-.28l-3.328-.044v6.18Zm6.493-4.7c1.188.422 1.696 1.589 1.188 2.702-.237.529-.464.734-1.145 1.048-.497.227-.734.248-2.83.28l-2.301.044V69.349h2.311c1.805 0 2.41.032 2.777.162Zm.432 5.435c1.2.4 1.783 1.296 1.567 2.452-.109.562-.724 1.189-1.426 1.459-.53.194-.843.216-3.123.216h-2.538v-4.343l2.571.054c1.534.022 2.711.086 2.949.162Z" fill="#fff" fill-rule="evenodd" data-name="Path 11"/><path d="M180.476 73.94v6.428h1.296V78.705l.627.605c.357.356.886.745 1.264.918.572.27.777.302 1.674.302.93 0 1.092-.032 1.75-.345 1.61-.757 2.572-2.377 2.572-4.354 0-1.977-.962-3.598-2.572-4.354-.658-.313-.82-.346-1.75-.346-.95 0-1.09.033-1.75.357a4.098 4.098 0 0 0-1.275.961l-.54.616v-5.553h-1.296v6.428Zm5.931-1.329c1.08.52 1.75 1.62 1.826 3.014.108 1.913-.864 3.317-2.56 3.674-1.578.335-3.242-.746-3.739-2.431-.842-2.83 1.934-5.477 4.473-4.257Z" fill="#fff" fill-rule="evenodd" data-name="Path 10"/><path d="M116.411 73.94v6.428h1.275l.043-2.949c.033-2.81.054-2.96.292-3.511.778-1.74 3.198-2.172 4.364-.778.54.637.616 1.178.616 4.343v2.895h1.307l-.032-3.49c-.032-3.359-.043-3.5-.28-3.975a3.459 3.459 0 0 0-1.524-1.523c-.41-.205-.67-.238-1.577-.238-1.308 0-1.826.205-2.647 1.048l-.54.551v-5.229H116.41v6.428Z" fill="#fff" fill-rule="evenodd" data-name="Path 9"/></g></g></g></g><g data-name="Group 2"><path d="M131.208 48.386v11.58H136.287V56.45l.02-3.494 1.32-1.402c.752-.812 1.382-1.32 1.463-1.219.081.122 1.686 2.337 3.575 4.917l3.454 4.713h6.196l-4.916-6.643c-2.702-3.657-4.896-6.684-4.876-6.724.02-.041 1.89-2.012 4.165-4.389 2.255-2.356 4.347-4.55 4.611-4.855l.488-.548h-6.135l-4.632 4.977-4.632 4.977-.06-4.977-.041-4.977h-5.08v11.58Z" fill="#fff" fill-rule="evenodd" data-name="Path 8"/><path d="M109.065 48.386v11.58h17.674v-4.47h-12.596v-4.875h10.767V46.152h-10.767v-4.876h12.393V36.807h-17.471v11.58Z" fill="#fff" fill-rule="evenodd" data-name="Path 7"/><path d="M161.883 36.726c-4.307.914-7.943 4.428-9.04 8.715-.386 1.523-.386 4.286 0 5.952 1.26 5.322 6.094 8.979 11.884 8.979 4.876 0 9.06-2.499 11.112-6.643 2.946-5.87.61-13.083-5.119-15.927a13.532 13.532 0 0 0-8.837-1.076Zm4.57 4.631c2.053.529 3.536 1.707 4.43 3.515 1.95 3.86.507 8.43-3.21 10.157-1.016.468-1.504.549-2.865.57-1.483 0-1.787-.062-3.026-.712-4.246-2.174-5.262-7.963-2.032-11.539.955-1.076 1.788-1.584 3.17-1.95 1.4-.386 2.254-.386 3.534-.04Z" fill="#fff" fill-rule="evenodd" data-name="Path 6"/></g></g></svg>