<svg xmlns="http://www.w3.org/2000/svg" height="800" width="1200" viewBox="-43.8111 -62.997 379.6962 377.982"><path fill="#2e3192" d="M216.82 170.755c.24-1.933.417-3.549.525-4.852.109-1.299.22-3.03.33-5.196.111-2.157.165-3.591.165-4.291l-.015-.99c2.262.016 5.003.023 8.211.023 2.962 0 5.571-.008 7.837-.023l-.031.371c-.012.09-.035.414-.07.978l-.089 1.226c-.02.259-.027.522-.027.796a143.423 143.423 0 00-4.658-.092c-1.38 0-2.312.004-2.8.008-.479.004-1.236.019-2.261.05l-.178 2.57c1.133.024 2.451.036 3.959.036.534 0 1.96-.027 4.284-.082-.1.96-.186 2.1-.275 3.422-1.654-.016-2.93-.02-3.823-.02-1.323 0-2.803.024-4.442.078l-.174 2.73h1.654c.491 0 1.504-.013 3.035-.036l2.973-.054c.44-.008 1.18-.034 2.215-.089a96.257 96.257 0 00-.29 3.437c-2.335-.015-4.898-.023-7.685-.023l-6.329.012zm-26.604-.238c-.127-1.593-.27-2.872-.433-3.827 1.075.375 2.034.634 2.873.78.835.144 1.57.217 2.204.217.835 0 1.503-.092 1.99-.286.5-.19.743-.471.743-.846a.885.885 0 00-.074-.364 1.286 1.286 0 00-.27-.394 3.568 3.568 0 00-.572-.476l-2.707-1.84a40.35 40.35 0 01-1.326-.912c-.502-.38-.9-.739-1.179-1.067a3.193 3.193 0 01-.618-1.005 3.08 3.08 0 01.112-2.424 4 4 0 01.928-1.23c.41-.383.954-.711 1.639-.99a8.63 8.63 0 012.184-.564 17.92 17.92 0 012.397-.155c1.624 0 3.383.147 5.293.437.03.518.065.99.096 1.423.043.429.136 1.187.279 2.261a16.863 16.863 0 00-2.417-.58 13.572 13.572 0 00-1.879-.158c-.746 0-1.372.108-1.86.325-.498.216-.741.487-.741.808 0 .15.038.297.112.437.077.143.22.309.433.498.208.194.49.402.835.63.344.229.885.565 1.623 1.017l1.037.638c.301.197.634.433.99.708.355.278.656.549.92.823.258.267.456.518.595.739.139.228.243.452.309.676.066.232.1.476.1.739 0 .672-.204 1.314-.618 1.929-.414.607-.997 1.11-1.751 1.5a8.496 8.496 0 01-2.502.823c-.9.159-1.86.24-2.864.24-1.55 0-3.514-.178-5.88-.53m-30.662.238a96.76 96.76 0 00.433-3.56c.108-1.056.2-2.278.274-3.673a157.452 157.452 0 00.232-8.096c1.195.023 2.169.035 2.903.035.766 0 1.705-.02 2.803-.05 1.106-.035 2.173-.055 3.22-.055 1.226 0 2.32.04 3.28.116.722.05 1.372.163 1.963.325a6.543 6.543 0 011.485.6c.406.235.742.502 1.009.792.266.294.475.634.626 1.028.147.39.22.812.22 1.26 0 .503-.08.975-.243 1.412a3.75 3.75 0 01-.77 1.233 4.765 4.765 0 01-1.322 1.001c-.53.279-1.276.569-2.238.859l.75 1.426c.212.398.437.8.68 1.214l1.922 3.29c.089.143.243.425.464.843a402.84 402.84 0 00-3.194-.023c-.692 0-1.82.008-3.39.023-.155-.39-.433-1.113-.84-2.165a10.879 10.879 0 00-.417-1.025 82.899 82.899 0 00-1.02-2.234l-1.481-3.178c.518.073 1.024.112 1.523.112.7 0 1.338-.081 1.906-.247.568-.163 1.001-.422 1.295-.766.29-.344.437-.703.437-1.086 0-.325-.108-.607-.329-.847-.22-.247-.568-.429-1.044-.545-.471-.12-1.202-.182-2.188-.182-.34 0-.684.004-1.047.016-.36.012-.774.023-1.257.03a148.479 148.479 0 00-.329 5.614 210.64 210.64 0 00-.189 6.503c-1.6-.016-2.644-.023-3.12-.023-.56 0-1.558.008-3.008.023m-21.571-8.939a382.137 382.137 0 008.528 0c-.127 1.029-.255 2.474-.382 4.357a121.237 121.237 0 00-.24 4.257c-1.098.154-2.01.27-2.737.34a61.3 61.3 0 01-5.328.274c-1.302 0-2.586-.077-3.842-.243-1.257-.167-2.382-.433-3.372-.797-.993-.367-1.817-.866-2.478-1.496a6.403 6.403 0 01-1.53-2.234 6.874 6.874 0 01-.542-2.672c0-1.523.487-2.93 1.454-4.237.966-1.3 2.362-2.327 4.175-3.093 1.817-.758 4.168-1.137 7.044-1.137 2.103 0 4.423.201 6.975.596 0 1.09.065 2.304.189 3.645a62.88 62.88 0 00-1.678-.41 21.541 21.541 0 00-1.496-.254 22.23 22.23 0 00-1.624-.174 18.49 18.49 0 00-1.372-.058c-1.056 0-2.053.12-2.996.355-.936.236-1.748.6-2.42 1.087-.677.49-1.184 1.078-1.516 1.759-.34.684-.506 1.4-.506 2.157 0 .773.193 1.457.576 2.06.382.604.99 1.064 1.824 1.377.835.313 1.767.472 2.792.472.854 0 1.786-.097 2.802-.294l.163-2.436c-.623-.023-.99-.035-1.11-.035l-1.527.012.105-1.38c.004-.15.019-.367.038-.65.02-.278.031-.66.031-1.148m112.735-31.336a1.561 1.561 0 00-.538-1.121c-.336-.302-.753-.46-1.248-.48-.414 0-.762.14-1.04.422a1.406 1.406 0 00-.426 1.032c-.019.526.124 1.082.441 1.674.313.591.762 1.198 1.35 1.82h-1.303c-.735-.815-1.3-1.615-1.69-2.4-.39-.789-.584-1.539-.584-2.258 0-.676.256-1.26.762-1.743a2.57 2.57 0 011.836-.731c.48 0 .924.1 1.334.294.414.193.77.456 1.075.785.302.328.545.711.73 1.148.186.437.275.908.275 1.411zm-.326 5.675v3.491h-5.362c-.456 0-.847.155-1.171.468-.325.31-.476.688-.456 1.133 0 .212.05.39.146.525.097.136.213.202.345.202.649 0 1.29-.097 1.933-.29a6.748 6.748 0 011.964-.29c.328 0 .688.12 1.09.363.402.244.77.537 1.105.89.337.347.623.726.863 1.132.235.41.355.777.355 1.106 0 .487-.12.947-.355 1.384-.24.436-.576.839-1.01 1.206-.432.371-.947.68-1.542.932a8.584 8.584 0 01-1.968.552l2.115 3.201-1.465.727-1.624-3.638a5.702 5.702 0 01-1.512-.189 5.296 5.296 0 01-1.237-.491 2.663 2.663 0 01-.843-.73 1.522 1.522 0 01-.309-.917c0-.367.124-.68.375-.932.247-.25.557-.379.924-.379.781 0 1.43.34 1.952 1.021a6.7 6.7 0 001.64-.19c.51-.127.958-.3 1.349-.521.39-.224.696-.487.912-.789.217-.301.325-.626.325-.974a.383.383 0 00-.066-.306.304.304 0 00-.259-.131c-.499 0-.966.097-1.4.29a3.256 3.256 0 01-1.364.294c-.499 0-1.017-.143-1.562-.422a5.926 5.926 0 01-1.477-1.094 6.273 6.273 0 01-1.09-1.453c-.282-.526-.421-1.04-.421-1.543 0-.603.255-1.117.761-1.542.51-.43 1.125-.642 1.84-.642h3.573v-1.454h-7.93l-1.465-2.327h14.761l1.461 2.327zm-21.909 0v12.22l-2.926-1.453v-10.767h-2.73l-1.46-2.327h9.88l1.462 2.327zm-9.88 0v4.512c.239.096.513.178.827.247.317.066.634.124.958.174.329.047.634.085.928.116.294.031.526.043.7.043.302 0 .626-.02.974-.058a7.64 7.64 0 00.99-.174 6.29 6.29 0 00.862-.275c.26-.108.456-.228.588-.367v2.474a2.206 2.206 0 01-.588.248 6.6 6.6 0 01-.78.174c-.28.05-.558.089-.828.12a7.46 7.46 0 01-.73.042c-.198 0-.469-.043-.813-.131a9.182 9.182 0 01-1.105-.364 6.976 6.976 0 01-1.156-.595 5.59 5.59 0 01-.99-.8 3.362 3.362 0 01-.812 1.6 2.88 2.88 0 01-1.465.87l4.554 4.075-1.303.726-4.713-4.801c-.63-.657-1.105-1.26-1.43-1.802-.325-.545-.499-1.009-.518-1.4 0-.25.089-.46.274-.622.186-.166.418-.247.7-.247.518 0 1.06.143 1.624.433.108.02.19-.058.243-.232a2.17 2.17 0 00.082-.638v-3.348h-3.932l-1.461-2.327h14.006l1.465 2.327zm-8.322 0v5.819c0 .293-.108.576-.324.846-.217.27-.51.503-.878.696a5.313 5.313 0 01-1.283.468 6.799 6.799 0 01-1.578.174l-.974-1.748c.518.178 1.001.159 1.446-.058.444-.212.665-.533.665-.958v-5.239h-3.901v6.692c0 .507.17 1.005.506 1.5.333.495.816.916 1.446 1.264l4.875 2.622c.716.463 1.272.9 1.674 1.31.402.406.6.746.6 1.017-.043.603-.584 1.233-1.624 1.89l-2.602-1.743c.654-.333.978-.72.978-1.164-.023-.236-.228-.526-.618-.874-.39-.351-.944-.688-1.659-1.02l-4.225-1.89c-.716-.33-1.272-.74-1.674-1.222-.399-.488-.6-.951-.6-1.396v-6.986h-2.211l-1.461-2.327h15.371l1.466 2.327zm-23.078 0v4.512c0 .618-.216 1.206-.65 1.759-.432.553-1.028.986-1.79 1.295l4.555 4.365-1.628.873-4.875-5.528c-.583-.68-1.036-1.268-1.349-1.763-.313-.495-.46-.877-.44-1.148 0-.251.115-.46.343-.626.229-.163.491-.248.797-.248.758 0 1.353.193 1.786.584.216-.41.325-.796.325-1.164v-2.91h-4.226l-1.461-2.328h11.768l1.461 2.327zm-9.427 0v12.22l-2.927-1.453v-10.767h-2.729l-1.461-2.327h9.881l1.462 2.327zm-7.931 0v12.22l-2.927-1.453v-10.767h-2.73l-1.46-2.327h9.881l1.461 2.327zm-7.931 0v12.22l-2.927-1.453v-4.075c-.282.197-.715.294-1.299.294-.997 0-2.08-.437-3.251-1.31.456.599.703 1.229.75 1.89a3.502 3.502 0 01-.36 1.832c-.282.565-.707 1.029-1.283 1.4-.576.367-1.253.553-2.03.553a5.965 5.965 0 01-2.1-.395 7.808 7.808 0 01-2.029-1.136 10.433 10.433 0 01-1.82-1.786 13.974 13.974 0 01-1.528-2.359l.974-.583c.63 1.183 1.42 2.118 2.374 2.81.951.688 1.949 1.032 2.988 1.032.414 0 .797-.07 1.156-.204.356-.136.665-.325.924-.569.263-.24.468-.526.619-.858a2.48 2.48 0 00.228-1.048 1.87 1.87 0 00-.65-1.453c-1.128.583-2.21.92-3.25 1.016l-1.137-2.18a7.18 7.18 0 011.72-.495c.541-.077.997-.058 1.365.058.498-.039.924-.282 1.268-.727.348-.448.522-.982.522-1.6 0-.41-.19-.754-.569-1.036-.378-.279-.839-.422-1.384-.422-.626-.019-1.287.112-1.98.395a9.34 9.34 0 00-2.083 1.206l-1.461-1.89a8.041 8.041 0 011.952-1.075 5.458 5.458 0 011.949-.38c.65 0 1.299.124 1.952.38.65.25 1.237.572 1.77.958.53.387.963.824 1.3 1.311.336.483.502.959.502 1.427 0 .483-.127.943-.39 1.38a3.24 3.24 0 01-1.071 1.09c.301.197.723.348 1.252.452.53.109 1.14.151 1.837.132.39 0 .78-.1 1.167-.306.39-.204.762-.49 1.106-.858v-3.638h-1.949l-1.302-2.327h8.942l1.461 2.327zm-29.774 0v12.22l-2.927-1.453v-10.767h-2.795l-1.461-2.327h4.906c-.824-1.284-1.98-2.281-3.476-3-1.496-.715-3.154-1.075-4.975-1.075a4.61 4.61 0 00-1.346.19 3.705 3.705 0 00-1.105.521 2.784 2.784 0 00-.75.774 1.72 1.72 0 00-.275.931c0 .522.128 1.029.39 1.512H116.7c-.626-1.01-.943-1.93-.943-2.764 0-.468.115-.909.344-1.326.228-.414.54-.79.94-1.118a4.778 4.778 0 011.43-.8 6.962 6.962 0 011.805-.394c1.063 0 2.11.15 3.155.452a12.58 12.58 0 012.988 1.307 14.936 14.936 0 012.683 2.068 15.132 15.132 0 012.227 2.722h3.576l1.461 2.327zm-7.997 0v12.22l-2.926-1.453v-10.767h-2.73l-1.461-2.327h9.882l1.46 2.327zm-18.106 0l-1.461-2.327H120.6l1.461 2.327zm9.85 4.655c1.083 1.144 1.624 2.211 1.624 3.201 0 .352-.085.68-.259.99a2.704 2.704 0 01-.7.815 3.472 3.472 0 01-1.024.553c-.39.136-.812.205-1.268.205-.56 0-1.218-.228-1.964-.684a12.285 12.285 0 01-2.196-1.732 14.64 14.64 0 01-1.933-2.327c-.576-.855-.982-1.678-1.218-2.475l1.137-.437c.564 1.357 1.314 2.451 2.258 3.275.943.823 1.925 1.237 2.942 1.237.367 0 .688-.127.959-.379.27-.251.406-.564.406-.931.023-.662-.178-1.284-.6-1.875-.425-.596-1.005-1.083-1.74-1.473l.325-.58h9.101v2.617zM72.894 0H218.37l36.371 62.997 37.334 61.327-37.334 64.667-36.37 62.997H72.892l-36.371-62.997L0 123.845l36.522-60.848zM18.537 114.195l43.473-.05 52.254-87.937h28.631l-26.177 45.808h40.083l35.36-62.17H78.58L45.05 67.92zm198.222-97.313l-55.656 97.162 29.656.1V87.557l4.906-6.541 6.955 3.68V72.835l8.18 6.135V47.883l6.341 6.34V70.38l5.52 2.865V37.248l7.772 7.77v32.317l4.5-1.64 11.45 11.456v26.892l26.595.205-26.753-46.33zm62.974 106.9l-195.782.054 30.727 50.436h137.197zm-35.742 64.153h-40.96l-20.478 35.467h-69.508l-57.53-99.569-43.989.012 33.53 60.221 33.53 58.072h134.117z"/></svg>