<svg id="Layer_1" data-name="Layer 1" xmlns="http://www.w3.org/2000/svg" xmlns:xlink="http://www.w3.org/1999/xlink" viewBox="0 0 521.61 690.74"><defs><style>.cls-1{fill:#333;}.cls-2{fill:#d4eeff;}.cls-3{fill:gray;}.cls-4{fill:url(#linear-gradient);}.cls-5{fill:#f2f2f2;}.cls-6{fill:#a3d8e7;}.cls-46,.cls-6{opacity:0.4;}.cls-23,.cls-24,.cls-39,.cls-45,.cls-46,.cls-49,.cls-6{isolation:isolate;}.cls-7{fill:#22272e;}.cls-8{fill:#ff931e;}.cls-9{fill:#999;}.cls-10{fill:#754c24;}.cls-11{fill:#fff;}.cls-12{fill:none;}.cls-13{fill:url(#linear-gradient-2);}.cls-14{fill:#d24c27;}.cls-15{fill:#b63f21;}.cls-16{fill:#a12918;}.cls-17{fill:#882216;}.cls-18{fill:#e7904d;}.cls-19{fill:#ea8744;}.cls-20{fill:url(#linear-gradient-3);}.cls-21{fill:#f9d38c;}.cls-22{fill:#f8c05f;}.cls-23{fill:#f6ab58;}.cls-23,.cls-49{opacity:0.2;}.cls-24{fill:#f4ae69;opacity:0.8;}.cls-25{fill:#fab951;}.cls-26{fill:#faba50;}.cls-27{fill:#fdf489;}.cls-28{fill:#fef5be;}.cls-29{fill:url(#linear-gradient-4);}.cls-30{fill:#fdbb53;}.cls-31{fill:url(#linear-gradient-5);}.cls-32{fill:#f08d38;}.cls-33{fill:url(#linear-gradient-6);}.cls-34{fill:#f69e3a;}.cls-35{fill:#e15625;}.cls-36{fill:url(#linear-gradient-7);}.cls-37{fill:#611f12;}.cls-38{fill:#b14626;}.cls-39{opacity:0.5;fill:url(#linear-gradient-8);}.cls-40{fill:#9f522d;}.cls-41{fill:#e0a144;}.cls-42{fill:#c36f31;}.cls-43{fill:url(#linear-gradient-9);}.cls-44{fill:#8d3f1c;}.cls-45,.cls-47{fill:#6e1a0f;}.cls-45{opacity:0.9;}.cls-46{fill:url(#linear-gradient-10);}.cls-48{fill:#ca7a49;}.cls-49{fill:url(#linear-gradient-11);}.cls-50,.cls-52,.cls-53{fill-rule:evenodd;}.cls-50{fill:url(#linear-gradient-12);}.cls-51{fill:url(#linear-gradient-13);}.cls-52,.cls-54{fill:#e87a2f;}.cls-53{fill:#92b9d1;}.cls-55{fill:red;}.cls-56{fill:#333131;stroke:#fff;stroke-miterlimit:10;}</style><linearGradient id="linear-gradient" x1="252.85" y1="634.8" x2="252.85" y2="596.34" gradientTransform="translate(-21.56 -448)" gradientUnits="userSpaceOnUse"><stop offset="0" stop-color="#f2f2f2"/><stop offset="1" stop-color="#666"/></linearGradient><linearGradient id="linear-gradient-2" x1="299.95" y1="409.24" x2="295.52" y2="408.6" gradientTransform="matrix(1, 0, 0, -1, 0, 634)" gradientUnits="userSpaceOnUse"><stop offset="0.01" stop-color="#f69453"/><stop offset="1" stop-color="#ffffae"/></linearGradient><linearGradient id="linear-gradient-3" x1="305.37" y1="399.9" x2="304.28" y2="404.84" gradientTransform="matrix(1, 0, 0, -1, -21.56, 634)" gradientUnits="userSpaceOnUse"><stop offset="0.01" stop-color="#f69453"/><stop offset="1" stop-color="#fff"/></linearGradient><linearGradient id="linear-gradient-4" x1="304.52" y1="415.12" x2="305.77" y2="413.62" gradientTransform="matrix(1, 0, 0, -1, 0, 634)" gradientUnits="userSpaceOnUse"><stop offset="0.01" stop-color="#fff"/><stop offset="1" stop-color="#ffff4f"/></linearGradient><linearGradient id="linear-gradient-5" x1="302.12" y1="419.72" x2="303.02" y2="419.31" gradientTransform="matrix(1, 0, 0, -1, 0, 634)" gradientUnits="userSpaceOnUse"><stop offset="0.01" stop-color="#fff"/><stop offset="1" stop-color="#f09015"/></linearGradient><linearGradient id="linear-gradient-6" x1="301.43" y1="417.74" x2="302.17" y2="417.41" gradientTransform="matrix(1, 0, 0, -1, 0, 634)" gradientUnits="userSpaceOnUse"><stop offset="0.01" stop-color="#fff"/><stop offset="1" stop-color="#ff9b2a"/></linearGradient><linearGradient id="linear-gradient-7" x1="298.14" y1="422.01" x2="302.45" y2="419.37" gradientTransform="matrix(1, 0, 0, -1, 0, 634)" gradientUnits="userSpaceOnUse"><stop offset="0.01" stop-color="#fff"/><stop offset="0.05" stop-color="#feeee8"/><stop offset="0.14" stop-color="#fbccba"/><stop offset="0.23" stop-color="#f8ad91"/><stop offset="0.32" stop-color="#f6936f"/><stop offset="0.43" stop-color="#f47e53"/><stop offset="0.54" stop-color="#f36e3d"/><stop offset="0.66" stop-color="#f2632e"/><stop offset="0.8" stop-color="#f15c25"/><stop offset="1" stop-color="#f15a22"/></linearGradient><linearGradient id="linear-gradient-8" x1="282.7" y1="417.4" x2="287.01" y2="417.4" gradientTransform="matrix(1, 0, 0, -1, 0, 634)" gradientUnits="userSpaceOnUse"><stop offset="0.01" stop-color="#e96800"/><stop offset="0.21" stop-color="#de6300"/><stop offset="0.51" stop-color="#d65f00"/><stop offset="1" stop-color="#d35e00"/></linearGradient><linearGradient id="linear-gradient-9" x1="280.39" y1="409.09" x2="280.24" y2="412.44" gradientTransform="matrix(1, 0, 0, -1, 0, 634)" gradientUnits="userSpaceOnUse"><stop offset="0.01" stop-color="#8b3e00"/><stop offset="0.18" stop-color="#9e4c00"/><stop offset="0.38" stop-color="#ad5600"/><stop offset="0.62" stop-color="#b55c00"/><stop offset="1" stop-color="#b85e00"/></linearGradient><linearGradient id="linear-gradient-10" x1="279.13" y1="403.8" x2="285.76" y2="403.8" gradientTransform="matrix(1, 0, 0, -1, 0, 634)" gradientUnits="userSpaceOnUse"><stop offset="0.01" stop-color="#944a00"/><stop offset="0.02" stop-color="#934900"/><stop offset="0.15" stop-color="#7c2e01" stop-opacity="0.94"/><stop offset="0.3" stop-color="#6a1a01" stop-opacity="0.88"/><stop offset="0.47" stop-color="#5e0b02" stop-opacity="0.81"/><stop offset="0.68" stop-color="#560302" stop-opacity="0.73"/><stop offset="1" stop-color="#540002" stop-opacity="0.6"/></linearGradient><linearGradient id="linear-gradient-11" x1="288.36" y1="397.55" x2="296.1" y2="397.55" gradientTransform="matrix(1, 0, 0, -1, 0, 634)" gradientUnits="userSpaceOnUse"><stop offset="0.01" stop-color="#944a00"/><stop offset="0.11" stop-color="#a54f00"/><stop offset="0.27" stop-color="#b95600"/><stop offset="0.44" stop-color="#c85a00"/><stop offset="0.66" stop-color="#d05d00"/><stop offset="1" stop-color="#d35e00"/></linearGradient><linearGradient id="linear-gradient-12" x1="297.82" y1="399.67" x2="292.79" y2="394.31" gradientTransform="matrix(1, 0, 0, -1, 0, 634)" gradientUnits="userSpaceOnUse"><stop offset="0" stop-color="#f69453"/><stop offset="0.5" stop-color="#c76039"/></linearGradient><linearGradient id="linear-gradient-13" x1="301.54" y1="398.34" x2="297.11" y2="397.7" xlink:href="#linear-gradient-2"/></defs><title>ASKISHA</title><g id="Layer_1-2" data-name="Layer 1"><path class="cls-1" d="M410.5,558.8c-6.8-1.5-12.3-2.6-15.3-3.2-13.9-3-27.7-6.3-41.4-9.8a1154.59,1154.59,0,0,1-120.3-37.5c-29.2-10.9-58.1-22.9-85.2-38.5C81.1,431.1,32.7,368.1,23.2,289.9A232.3,232.3,0,0,1,42.1,166.8c1-2.1,2-4.3,3-6.4,2-4.1,4.1-8,6.3-11.9C111.2,41.9,244.6-.7,355.8,53.6c105.4,51.5,154.3,172.1,119,280.5a238.93,238.93,0,0,1-12.3,30.2c-.7,1.4-1.4,2.8-2.1,4.3A233.35,233.35,0,0,1,413,430.7C376,465.1,374.7,523.2,410.5,558.8Z" transform="translate(-21.56)"/><path class="cls-2" d="M469.2,259.8A214.71,214.71,0,0,1,311.4,466.6c.4-4.3.7-9.6,1-13.6h0c.8,0-.1-15-.1-16.8a45.14,45.14,0,0,0-4.2-18.7c-3.6-7.4-9.9-13.6-17.6-16.3-7.3-2.6-15.3-2.1-23-1.3-12.7,1.2-25.6,2.9-37.3,8.2-15.8,7.2-36.9,27.3-35.9,46.4v.2c.1,3.5.3,7.1.5,10.8-1.6-.5-3.7-1-5.3-1.5a16.51,16.51,0,0,0-3.6-1.1v.1s.3-.1.1-.1A214.1,214.1,0,0,1,40.3,259.8c0-118.3,96.1-214.3,214.4-214.3s214.4,95.8,214.5,214.3Z" transform="translate(-21.56)"/><path class="cls-3" d="M183.1,469.2c.2,4.2.5,8.5.8,12.8l-.2-.1C183.5,477.6,183.3,473.4,183.1,469.2Z" transform="translate(-21.56)"/><path class="cls-3" d="M183.1,468.9a12.1,12.1,0,0,0-.1-1.9h0A11.48,11.48,0,0,1,183.1,468.9Z" transform="translate(-21.56)"/><path class="cls-3" d="M290.9,177.4c1.1.1,2.3.3,3.4.4C293.2,177.7,292.1,177.6,290.9,177.4Z" transform="translate(-21.56)"/><path class="cls-3" d="M295.3,178l-1-.1,1,.1h0Z" transform="translate(-21.56)"/><path class="cls-3" d="M307.8,180.2c-4-.9-8.2-1.6-12.4-2.2C299.6,178.6,303.7,179.3,307.8,180.2Z" transform="translate(-21.56)"/><path class="cls-3" d="M308.1,180.3l-.3-.1Z" transform="translate(-21.56)"/><polygon class="cls-3" points="290.74 344.5 269.34 296.1 269.34 296.1 290.54 344.5 290.74 344.5"/><path class="cls-3" d="M323.8,417.9c.1,3.3.3,6.6.3,9.9-.1-3.2-.2-6.4-.3-9.7-.4-9.6-1.3-19.4-2.6-29-.1-1-.3-2-.4-3.1-.1-.9-.3-1.8-.4-2.7v-.2a244.92,244.92,0,0,0-8.7-37.9V345h0c1.6,5,3.1,10.7,4.5,16.4A317.13,317.13,0,0,1,323.8,417.9Z" transform="translate(-21.56)"/><path class="cls-3" d="M311.8,181.2c-1.2-.3-2.4-.6-3.7-.9l2.1.5a12.09,12.09,0,0,1,1.8.5l.3.1,2.4.6h.1c3.2.9,6.4,1.9,9.4,3h0c-2.2-.8-4.5-1.6-6.9-2.3-1.7-.5-3.4-1-5-1.4Z" transform="translate(-21.56)"/><path class="cls-3" d="M323.9,185.8l.5-.5-.5.5Z" transform="translate(-21.56)"/><path class="cls-3" d="M384.8,218.9l.8.4-.1.1a4.23,4.23,0,0,1-.7-.5Z" transform="translate(-21.56)"/><path class="cls-3" d="M406.1,229.2a1.7,1.7,0,0,1-.7-.1l-.1-.1.1-.2Z" transform="translate(-21.56)"/><g id="_Group_" data-name=" Group "><path class="cls-1" d="M319.3,157l-10-106.7C308.5,22.5,283.8,0,253.4,0c-14.7,0-35.1,2.2-37.6,20a10.86,10.86,0,0,1-2.5.4c-7.9,1.6-11.4,10-13.5,16.9C197.2,46,187.5,157,187.4,157h0v.1c0,3.8,29.5,6.9,65.9,6.9s65.9-3.1,65.9-6.9a.1.1,0,0,0,.1-.1ZM204,83.9c5.5-4.3,9.5-9.9,13-15.4,5-7.9,10.6-15.7,18.1-21.8a3.84,3.84,0,0,1,4.9-.6c17.5,7.7,27.2,24.2,40.8,36.1a71.15,71.15,0,0,0,13.3,9.1,64.13,64.13,0,0,0,7.5,3.5c-2.5,11.8-4.3,24.2-10.6,34.9a77.84,77.84,0,0,1-11.4,14.8c-.1.1-.2.3-.4.4a61.94,61.94,0,0,1-6.7,5.8q-9.15-.3-19.2-.3c-6.7,0-13.2.1-19.2.3a58.64,58.64,0,0,1-7.1-6.1,68.87,68.87,0,0,1-11.4-14.4c-7-11.7-8.4-25.4-11.4-38.4v-.3" transform="translate(-21.56)"/><path id="_Compound_Path_" data-name=" Compound Path " class="cls-1" d="M255.1,157h2.2a10.27,10.27,0,0,0,2.4-.5A23.15,23.15,0,0,1,255.1,157Zm-5.9,0h2.2a24,24,0,0,1-4.6-.5A10.27,10.27,0,0,0,249.2,157Zm-45-65.7h0v.2c3,13,4.4,26.6,11.4,38.4A72.92,72.92,0,0,0,227,144.4a77.84,77.84,0,0,1-11.4-14.8c-7-11.6-8.5-25.3-11.4-38.3Z" transform="translate(-21.56)"/><path id="_Path_" data-name=" Path " class="cls-1" d="M220.4,9.8Z" transform="translate(-21.56)"/></g><rect class="cls-4" x="214.54" y="148.3" width="33.5" height="38.5"/><path class="cls-5" d="M301.6,94.8c-2.5,11.8-4.3,24.2-10.6,34.9a77.84,77.84,0,0,1-11.4,14.8l-.4.4c-5.6,5.4-12.4,9.9-19.5,11.7a20.48,20.48,0,0,1-2.4.5l-2.2.3a11.48,11.48,0,0,1-1.8.1,10.87,10.87,0,0,1-1.8-.1,19.19,19.19,0,0,1-2.2-.3,20.48,20.48,0,0,1-2.4-.5c-7.3-1.8-14.2-6.5-19.9-12a72.92,72.92,0,0,1-11.4-14.5c-7-11.7-8.4-25.4-11.4-38.4v-.6a11.3,11.3,0,0,1,0-2.6V84c5.5-4.3,9.5-9.9,13-15.4,5-7.9,10.6-15.7,18.1-21.8a3.94,3.94,0,0,1,4.9-.6c17.5,7.7,27.2,24.2,40.8,36.1a71.15,71.15,0,0,0,13.3,9.1C296.6,92.6,299.1,93.8,301.6,94.8Z" transform="translate(-21.56)"/><path class="cls-6" d="M299.8,92.7c0,11-9.3,19.9-20.7,19.9-11,0-20-8.3-20.6-18.8a4.53,4.53,0,0,0-1.9-1.1,8.33,8.33,0,0,0-1.5-.4,9.15,9.15,0,0,0-1.7-.1,9.7,9.7,0,0,0-1.7.1,8.33,8.33,0,0,0-1.5.4,4.33,4.33,0,0,0-1.2.5,1.79,1.79,0,0,0-.7.5c-.6,10.5-9.6,18.8-20.6,18.8-11.4,0-20.7-8.9-20.7-19.9s9.3-19.9,20.7-19.9c10.8,0,19.7,8,20.6,18.2l1.2-.3,2-.3a20.05,20.05,0,0,1,4,0,13.8,13.8,0,0,1,2,.3l1.2.3c.9-10.2,9.8-18.2,20.6-18.2C290.5,72.9,299.8,81.8,299.8,92.7Z" transform="translate(-21.56)"/><path class="cls-1" d="M279.1,72.9c-10.8,0-19.7,8-20.6,18.2l-1.2-.3-2-.3a20.05,20.05,0,0,0-4,0l-2,.3-1.2.3c-.9-10.2-9.8-18.2-20.6-18.2-11.4,0-20.7,8.9-20.7,19.9s9.3,19.9,20.7,19.9c11,0,20-8.3,20.6-18.8a1.79,1.79,0,0,1,.7-.5,6.12,6.12,0,0,1,1.2-.5,8.33,8.33,0,0,1,1.5-.4,9.15,9.15,0,0,1,1.7-.1,9.7,9.7,0,0,1,1.7.1,8.33,8.33,0,0,1,1.5.4,4.53,4.53,0,0,1,1.9,1.1c.6,10.5,9.6,18.8,20.6,18.8,11.4,0,20.7-8.9,20.7-19.9A20.23,20.23,0,0,0,279.1,72.9ZM245.9,95.3a18.41,18.41,0,0,1-18.4,15.4c-10.3,0-18.6-8-18.6-17.9s8.3-17.9,18.6-17.9c10,0,18.1,7.5,18.6,17v.9A11,11,0,0,1,245.9,95.3Zm33.2,15.3a18.41,18.41,0,0,1-18.4-15.4,21.05,21.05,0,0,1-.2-2.5v-.9c.5-9.5,8.6-17,18.6-17,10.3,0,18.6,8,18.6,17.9s-8.3,17.9-18.6,17.9Z" transform="translate(-21.56)"/><path class="cls-1" d="M324.2,438.8v5.9c0,1.9-.1,3.8-.1,5.7l-.1,2.1c-.1,4.8-.4,9.4-.6,13.9v.5q-.45,8.55-1.2,16.2c-2.4.7-4.8,1.3-7.3,1.9a256,256,0,0,1-126.6-1.8c-1.5-.4-3-.8-4.4-1.3-.2-4.4-.6-8.6-.8-12.8v-2.7c-.7-24.6,0-47.1,1.9-64.7,2.6-23.8,7-41.1,10.8-52.7l8,.6,53.5,14.3,3.5-11.7a4.15,4.15,0,0,0,1.6-.3,3.55,3.55,0,0,0,.9-.4h0l.8,1.8s35.4.1,47-7.9a112.26,112.26,0,0,1,4.6,16c.5,2.2,1.1,4.3,1.5,6.6.3,1.1.5,2.3.7,3.5l.6,3a22.11,22.11,0,0,0,.5,2.5,310.45,310.45,0,0,1,4.5,40.8c.2,3.3.3,6.6.4,9.9C324.2,431.5,324.2,435.2,324.2,438.8Z" transform="translate(-21.56)"/><path class="cls-3" d="M183.1,468.9a12.1,12.1,0,0,0-.1-1.9h0A11.48,11.48,0,0,1,183.1,468.9Z" transform="translate(-21.56)"/><path class="cls-7" d="M183.9,482l-.2-.1c-.2-4.3-.4-8.6-.5-12.8C183.3,473.4,183.7,477.6,183.9,482Z" transform="translate(-21.56)"/><path class="cls-7" d="M310.9,345.3h0l.3.1.1.2c-11.6,8-47,7.9-47,7.9l-.8-1.8h0a3.55,3.55,0,0,1-.9.4,4.53,4.53,0,0,1-1.6.3l-3.5,11.7-53.4-14.3-8-.6a7.84,7.84,0,0,1,.5-1.4,123.24,123.24,0,0,1,6.4-15.5c.7-1.4,1.1-2.1,1.1-2.1l20.3-2.8,1.7-.3h0l7.4-.9,2.5-.1h1l12-1.9V324h0l10.6-1h0l8.1-1h2.4l.3-.3.1-.1v-.4l.6-.3h0l26.7-3.5c5.2,5.6,9.9,15.4,13.9,27.7a.1.1,0,0,0-.1.1h-.4Z" transform="translate(-21.56)"/><path class="cls-1" d="M324.1,185l-.3.9-12,39L299.1,266l-11.9.1H268.6l-11.9-.4-7.1-.2-14.2-.2-26-.4c-2-7.3-4.3-15-6.5-22.7-1.6-5.5-3.3-10.9-4.9-16.1-6.3-20.5-11.9-37.8-12.8-40.6v-.1l-.2-.4h.1c1-.2,10-2.3,23.4-4.4l.4-.1,3.1-.5c3.5-.5,7.1-1,10.6-1.4a36.78,36.78,0,0,1,5.8-.7c1.7.1,3.2,1.1,4.6,1.9a88.22,88.22,0,0,0,8.8,4.1,25.26,25.26,0,0,0,14,2.8,8.42,8.42,0,0,0,2.7-.4c.7-.3,1.3-.8,2-1.1a15.72,15.72,0,0,1,2.3-.4c5.9-.4,11.5-3,16.7-5.9,1.6-.9,3.6-2.3,5.6-2.3a38.05,38.05,0,0,1,5.9.7c1.1.1,2.3.3,3.4.4l1,.1h.1c4.2.6,8.3,1.3,12.4,2.2l.3.1,2.1.5a12.09,12.09,0,0,1,1.8.5l.3.1,2.4.6h.1C317.9,182.8,321.1,183.8,324.1,185Z" transform="translate(-21.56)"/><path class="cls-8" d="M324.2,185l-.3.8h0v.1l-.2.8-10,34.3c4.2,6.3,5.2,11.7,4.2,16.1h0c0,4.5-3,8.1-5.8,10.7a30.59,30.59,0,0,1-5.3,4.2c-.5.3-.9.6-1.3.8l-.8.4a4.56,4.56,0,0,1-.8.4h0L291.6,296l21.3,48.5h0a1.55,1.55,0,0,0-1.1.8h-.1a2.19,2.19,0,0,1-.5.3c-11.6,8-47,7.9-47,7.9l-.8-1.8h0l-1.4-3h0l-7.2-15.8-8.3,16.5-1.9,3.8-40.7-3.3-8-.6-1.1-.1.6-1.5,6.3-15.5,9.6-23.5,5-12.2-12.5-42.1a46.38,46.38,0,0,1-7-4.5,27.49,27.49,0,0,1-6.6-7c-7.7-12.4,5.2-22.7,5.2-22.7l-10.3-34.6v-.1l-.1-.3h.1l23.4-4.4.4-.1h0l36.9,69.5,3.1,5.9,1.2,2.3.8,1.5,1.1-2.1,1-1.8,2.2-4.1.1-.2,39.8-73.6h.1c.8.1,1.6.2,2.5.4l1.3.2.6.1,1.8.3c1.8.3,3.5.7,5.3,1a126.54,126.54,0,0,1,15.7,4.4l.2.1,1.6.4Z" transform="translate(-21.56)"/><path class="cls-9" d="M251.8,186.6l-20.5,20.9A331.7,331.7,0,0,1,211.9,180c-2.3-3.6,23.6-17.7,23.6-17.7a50.87,50.87,0,0,0,5.9,14.5C243.9,180.8,247.3,184.6,251.8,186.6Z" transform="translate(-21.56)"/><path class="cls-9" d="M291.9,180a308,308,0,0,1-19.4,27.4L252,186.5c4.8-2.2,8.6-6.3,11.3-10.6a56.87,56.87,0,0,0,6.2-13.5s17,9.7,21.4,15C291.9,178.5,292.2,179.4,291.9,180Z" transform="translate(-21.56)"/><path class="cls-7" d="M258.6,262c0,2.4-2.5,4.4-5.5,4.4s-5.5-2-5.5-4.4,2.5-4.4,5.5-4.4S258.6,259.5,258.6,262Z" transform="translate(-21.56)"/><path class="cls-7" d="M259.4,292.4c0,2.4-2.5,4.4-5.5,4.4s-5.5-2-5.5-4.4,2.5-4.4,5.5-4.4S259.4,289.9,259.4,292.4Z" transform="translate(-21.56)"/><path class="cls-7" d="M259.4,322.7c0,2.4-2.5,4.4-5.5,4.4s-5.5-2-5.5-4.4,2.5-4.4,5.5-4.4S259.4,320.3,259.4,322.7Z" transform="translate(-21.56)"/><polygon class="cls-10" points="267.94 258.4 265.54 266.2 265.54 266.4 248.44 322.7 248.44 322.7 248.44 322.8 248.34 323 248.34 323 247.34 328.6 247.34 328.6 246.14 331.9 240.34 350.4 240.34 350.4 239.04 354.1 235.34 366 180.94 351.5 173.24 349.4 172.24 349.2 150.54 343.4 154.74 326.2 162.24 295.9 173.74 249.8 175.84 241.4 179.84 242.1 223.64 250.2 233.34 251.8 233.44 251.7 247.74 254 247.74 254 265.54 258 265.54 258 267.94 258.4"/><path class="cls-8" d="M237.2,322.1l-1.5,3.9-3.7,9.5h0l-.7,1.9-.3.7-2-.4h-.2l-.6-.1c-2.2-.4-4.3-.8-6.4-1.2l-1.8-.3c-6.1-1.2-11.9-2.5-17.3-3.9l-.9-.2a242,242,0,0,1-23.6-7.1c-38.8-13.6-50.2-28.8-50.2-28.8,8.3-57.5,57-111.1,57-111.1,9.8,5,15.3,33,15.3,33a56.54,56.54,0,0,1-2.4,8,133.11,133.11,0,0,1-7.8,16.7c-11.4,20.7-27.5,40.4-27.5,40.4L185.3,295l25.8,13.5,17.4,9.1,1,.5,7.2,3.8Z" transform="translate(-21.56)"/><path class="cls-8" d="M237.2,322.1l-6.3,16c-3.8-.7-7.5-1.3-11-2l8.8-18.4Z" transform="translate(-21.56)"/><path class="cls-1" d="M431.1,213.7c-5.9,5.1-15,5.9-22.1,9.5l-1.2.6a2.19,2.19,0,0,1-.5.3,39.12,39.12,0,0,0-4.9,3.4h0l-.3.3c-4.9,3.9-8.9,8.5-13.3,13a.6.6,0,0,1-.1.4c-.5.5-1.1,1-1.7,1.5l-.3.3a.37.37,0,0,1-.3.1c-3.7,2.4-8.6,3.1-10.9-1.4-2.1-4,1.3-9.3,4.8-13.6a6.67,6.67,0,0,0,2.5-1.9c1.4-1.6,3.2-3.5,5.2-5.5l.2-.2c1.7-1.7,3.6-3.5,5.5-5.4l.8-.8h0l1-.9a14,14,0,0,1,4.4-13.5c4.7-4,3.5-12.4,4.8-14.1,6.5.8,5.2,6.3,3.3,11.8-.6,1.8-1.1,4.5,2,3.1a17.2,17.2,0,0,0,6.5-5.1,33.32,33.32,0,0,0,4.6-8,7.36,7.36,0,0,1,2.8-3.7,8.42,8.42,0,0,1,3.5-.7,30.43,30.43,0,0,1,9,1.1,8.1,8.1,0,0,1,3.9,2,5.34,5.34,0,0,1,1,2.9C442.4,198.3,438.5,207.3,431.1,213.7Z" transform="translate(-21.56)"/><path class="cls-11" d="M249.4,207.8a3.15,3.15,0,1,0,3.2-3.1h0a3,3,0,0,0-3.2,3.1Z" transform="translate(-21.56)"/><path class="cls-11" d="M249.4,232.5a3.15,3.15,0,1,0,3.2-3.1h0a3.14,3.14,0,0,0-3.2,3.1Z" transform="translate(-21.56)"/><path class="cls-8" d="M371.5,269.9c-.9.9-1.8,1.7-2.7,2.5C369.7,271.6,370.6,270.8,371.5,269.9Z" transform="translate(-21.56)"/><path class="cls-1" d="M272.6,334.9a14.74,14.74,0,0,1-1.8,8.2,28.26,28.26,0,0,1-5.1,6.7,13.65,13.65,0,0,1-2.3,1.9,3.55,3.55,0,0,1-.9.4,4.53,4.53,0,0,1-1.6.3,21.12,21.12,0,0,1-2.6-.2,42.7,42.7,0,0,1-11.7-2.9,6.11,6.11,0,0,1-1.4-.7c-3.5-1.8-6.5-4.5-9.5-7.2l-4.5-4.1-.1-.1h0a3.25,3.25,0,0,1-1-1.3,2.85,2.85,0,0,1,0-1.3,31.2,31.2,0,0,1,3-8.4c.1-.1.1-.3.2-.4a10.62,10.62,0,0,1,2.1-3.1,10.93,10.93,0,0,1,1.5-.8h0a10.55,10.55,0,0,1,1.9-.5c.7-.2,1.3-.3,1.9-.5a28.94,28.94,0,0,1,6.6-1.6,8.63,8.63,0,0,1,2.8.2c1,.2,1.9.5,3,.8,2,.4,3.9.7,5.9.9a70.81,70.81,0,0,0,11.3.3h.7a2.77,2.77,0,0,1,.9.1c1,.4,1,1.8.5,2.8a6.38,6.38,0,0,1-4,3l-.7.2c-1.9.5-3.9.5-5.8.9,1.8.7,3.6,1.4,5.5,2.1a24.43,24.43,0,0,1,2.4,1,6,6,0,0,1,2.1,1.4A4,4,0,0,1,272.6,334.9Z" transform="translate(-21.56)"/><path class="cls-9" d="M221.5,336.8l9.1,1.2,8.4-17.3c-3.1-1-6.2-2-9.2-3C227.4,323.3,223.8,331.5,221.5,336.8Z" transform="translate(-21.56)"/><path class="cls-8" d="M408.2,224.7s-1,1.6-2.8,4.2l-.1.2-.6.9a258,258,0,0,1-19.9,25.6l-.2.3q-5,5.7-10.2,11.1a37,37,0,0,1-2.8,2.8l-.1.1c-.9.8-1.8,1.7-2.7,2.5A150.93,150.93,0,0,1,351.4,286a135,135,0,0,1-14-14.3l-.3-.4-1.8-2.4a90.84,90.84,0,0,1-6.7-11.3c-.6-1.1-1.2-2.3-1.8-3.4-2.9-5.7-5.7-11.5-8.5-17.2-1-2.1-2.1-4.2-3.2-6.2s-2.1-4-3.3-6h0c-.7-1.2-3.5-4.3-3.3-5.6,1.6-12.5,5.3-23.2,15.3-33.4h0l.5-.5c1.1,1.6,2.3,3.2,3.4,4.8s2.1,3.2,3.2,4.8l1.5,2.4c1,1.6,2,3.2,2.9,4.7a304.81,304.81,0,0,1,22.3,45.1l-.3.9,27.2-27.7.9-.9.1-.1,5.7-5.6,2.3,1.5,13.8,8.9Z" transform="translate(-21.56)"/><path class="cls-8" d="M328.6,257.7a98.77,98.77,0,0,0,6.7,11.3,67,67,0,0,1-8.5-14.7C327.4,255.4,328,256.6,328.6,257.7Z" transform="translate(-21.56)"/><path class="cls-8" d="M384.5,255.9a172.31,172.31,0,0,1-13,14c.9-.9,1.8-1.9,2.8-2.8C377.8,263.4,381.2,259.7,384.5,255.9Z" transform="translate(-21.56)"/><path class="cls-9" d="M409.5,222.1s-.2.5-.5,1.1c-.5,1.1-1.5,3.2-2.8,6.1h-.1a1.7,1.7,0,0,1-.7-.1h-.1a6.86,6.86,0,0,0-2.8-1.1h0l-.3-.2c-4.4-2.9-9.6-4.8-14-7l-.2-.1c-.8-.4-1.7-.9-2.4-1.3h-.1a4.35,4.35,0,0,1-.7-.4h0c1.8-2.2,3.6-4.7,5.4-6.9l4.3,2h0Z" transform="translate(-21.56)"/><path class="cls-11" d="M295.4,206.7h0a19,19,0,0,1,19,18.9h0a18.91,18.91,0,0,1-19,18.9h0a18.88,18.88,0,0,1-18.9-18.9h0A19,19,0,0,1,295.4,206.7Z" transform="translate(-21.56)"/><path class="cls-12" d="M303.2,230.3" transform="translate(-21.56)"/><path class="cls-12" d="M299.7,233.8" transform="translate(-21.56)"/><path class="cls-13" d="M307.9,236.7h0l-.5-1.8v-.1l-.9-3.6v-.1l-.1-.3a5.94,5.94,0,0,0,.4-.8c0-.1.1-.1.1-.2l.6-1.5c0-.1.1-.2.1-.3a15,15,0,0,0,.5-3.7v-.9h0v-.5h0c0-.3-.1-.6-.1-.9h0a15.54,15.54,0,0,0-.5-2.3v-.1c-.1-.2-.1-.4-.2-.6h0a12.44,12.44,0,0,0-1-2h0a16.38,16.38,0,0,0-2.9-3.6h0a14.61,14.61,0,0,0-3.3-2.2h0a13.72,13.72,0,0,0-6.4-1.5,15,15,0,0,0-2.2.2h-.3a13.32,13.32,0,0,0-1.9.5c-.3.1-.5.2-.8.3a13.94,13.94,0,0,0-4.8,3h0l-.5.5-.1.1h0a14.33,14.33,0,0,0-3.3,5.4h0a.9.9,0,0,0-.1.5h0a12.86,12.86,0,0,0-.4,1.9h0c0,.2-.1.4-.1.6h0a8.08,8.08,0,0,0-.1,1.6v1.1a6.93,6.93,0,0,0,.3,2v.1a14.36,14.36,0,0,0,3.1,6.3.1.1,0,0,0,.1.1,12.76,12.76,0,0,0,4.5,3.5h0a18.61,18.61,0,0,0,2.5,1h.2a.37.37,0,0,1,.3.1,14.87,14.87,0,0,0,3.6.5,14.68,14.68,0,0,0,6.9-1.7h0l2.2.6.2.1,2.8.8h0l3,.8Zm-3-12.4a12.61,12.61,0,0,1-.4,2.8,5.78,5.78,0,0,1-.5,1.4.1.1,0,0,1-.1.1,10.93,10.93,0,0,1-.8,1.5l.2.9h0l.3,1h0l.5,1.8.3,1.2-.7-.2h0l-.4-.1-3.6-1a2.09,2.09,0,0,0-.6.4h0a13.43,13.43,0,0,1-3,1.2H296c-.3.1-.5.1-.8.2a10.87,10.87,0,0,1-1.8.1,14.92,14.92,0,0,1-2.1-.2h-.1a14,14,0,0,1-2.9-.9,14.52,14.52,0,0,1-2.6-1.7l-.2-.2a12.29,12.29,0,0,1-3.4-5.7v-.1c-.1-.6-.2-1.1-.3-1.7v-1a7.57,7.57,0,0,1,.1-1.5h0a.75.75,0,0,1,.1-.5h0a13.32,13.32,0,0,1,.5-1.9h0c.1-.2.1-.3.2-.5v-.1h0a12.19,12.19,0,0,1,3.6-4.8h.1c.2-.1.4-.3.6-.4h0a.1.1,0,0,0,.1-.1,5.58,5.58,0,0,0,.8-.5c.1,0,.1-.1.2-.1a11.86,11.86,0,0,1,5.3-1.3h.4a11.07,11.07,0,0,1,4.8,1.3h0a13.73,13.73,0,0,1,2,1.3c.4.4.8.7,1.2,1.1h0a13.3,13.3,0,0,1,1.4,1.9c0,.1.1.1.1.2s.1.2.2.3a.1.1,0,0,0,.1.1,7.74,7.74,0,0,1,.7,1.6.9.9,0,0,1,.1.5c.1.3.1.5.2.8h0c.1.4.1.7.2,1.1h0v.5h0v.8A1.58,1.58,0,0,1,304.9,224.3Z" transform="translate(-21.56)"/><path class="cls-12" d="M306.3,230.9" transform="translate(-21.56)"/><path class="cls-12" d="M300.3,237" transform="translate(-21.56)"/><path class="cls-14" d="M299.8,211.1,299,213s-6.5-1.8-8.2-3.2h.3a16.35,16.35,0,0,1,2.2-.2A13.84,13.84,0,0,1,299.8,211.1Z" transform="translate(-21.56)"/><path class="cls-15" d="M299.1,213l-.4.9a11.51,11.51,0,0,0-4.9-1.3h-.4l-5.2-2.1c.3-.1.5-.2.8-.3a16,16,0,0,1,2.1-.5Z" transform="translate(-21.56)"/><path class="cls-16" d="M293.9,212.6h-.5a11.86,11.86,0,0,0-5.3,1.3c-.1,0-.1.1-.2.1l-.3-.5,1.2-2.7Z" transform="translate(-21.56)"/><path class="cls-17" d="M288.1,213.9l.9-3.6a14.35,14.35,0,0,0-5.6,3.3l3.6,1Z" transform="translate(-21.56)"/><polygon class="cls-18" points="286.94 239.3 283.84 238.4 286.24 236.7 286.94 239.3"/><polygon class="cls-19" points="286.34 236.7 283.94 238.4 283.84 238.4 280.84 237.6 285.74 234.8 286.24 236.7 286.34 236.7"/><polygon class="cls-20" points="285.84 234.9 282.94 236.6 282.14 234.9 282.94 235.1 282.54 234 282.14 232.2 284.84 231.2 285.74 234.8 285.84 234.9"/><path class="cls-21" d="M306.4,231.2h0c-.6.3-2.1.8-2.7,1l-.3-1,3.4-1.2a9.25,9.25,0,0,1-.5,1Z" transform="translate(-21.56)"/><path class="cls-22" d="M307.9,224.3a15,15,0,0,1-.5,3.7c0,.1-.1.2-.1.3-.9.2-2.5.2-3.3.3a7.84,7.84,0,0,0,.5-1.4,13.51,13.51,0,0,0,.4-2.8h3Z" transform="translate(-21.56)"/><path class="cls-23" d="M307.4,228.1l-.6,1.8c0,.1-.1.1-.1.2l-3.3,1h0l-.2-.9a10.93,10.93,0,0,0,.8-1.5Z" transform="translate(-21.56)"/><path class="cls-24" d="M305.1,230.5l-1.7.6-.2-.9a10.7,10.7,0,0,0,1.3-3.1Z" transform="translate(-21.56)"/><path class="cls-25" d="M307.9,224h-3v-.7h3Z" transform="translate(-21.56)"/><path class="cls-26" d="M307.9,224.1v.2h-3V224h3Z" transform="translate(-21.56)"/><path class="cls-27" d="M307.9,223.4l-3-.1h0v-.5l3,.1v.5Z" transform="translate(-21.56)"/><path class="cls-28" d="M307.9,222.9l-3-.1h0a3.59,3.59,0,0,0-.2-1.1l3.1.3c0,.3.1.6.1.9Z" transform="translate(-21.56)"/><path class="cls-29" d="M307.8,222l-3.1-.3a6.47,6.47,0,0,0-.4-1.3l.4-1.5,2.6.7a20.48,20.48,0,0,1,.5,2.4Z" transform="translate(-21.56)"/><path class="cls-30" d="M304.9,218.7l-.4,2.1c0-.2-.1-.3-.1-.5a12.2,12.2,0,0,0-.7-1.7h1.2Z" transform="translate(-21.56)"/><path class="cls-31" d="M306,216.9h-1.2l-2.7-1.2s.5-1.4,1-2.4a14.79,14.79,0,0,1,2.9,3.6Z" transform="translate(-21.56)"/><path class="cls-32" d="M307,219l-2.5-.3.5-2,.9.2A7,7,0,0,1,307,219Z" transform="translate(-21.56)"/><path class="cls-33" d="M305.1,216.7l-.5,1.9-1.1-.2c0-.1-.1-.1-.1-.2a9.51,9.51,0,0,0-1.5-2l.3-.7Z" transform="translate(-21.56)"/><path class="cls-34" d="M307.2,219.7l-3.6-.8a.1.1,0,0,0-.1-.1c-.1-.2-.2-.3-.3-.5l3.7.7a.91.91,0,0,1,.3.7Z" transform="translate(-21.56)"/><path class="cls-35" d="M302.1,215.6l-.3.7a12,12,0,0,0-1.2-1.1Z" transform="translate(-21.56)"/><path class="cls-36" d="M303.1,213.3l-1.2,3h0a12,12,0,0,0-1.2-1.1,13.73,13.73,0,0,0-2-1.3h0l1.2-2.8a16.59,16.59,0,0,1,3.2,2.2Z" transform="translate(-21.56)"/><path class="cls-37" d="M287,214.5a4.23,4.23,0,0,1-.7.5l-3.5-.9.6-.6Z" transform="translate(-21.56)"/><path class="cls-38" d="M286.4,214.9h0a11.05,11.05,0,0,0-3.7,4.9l-3.1-.2a14.72,14.72,0,0,1,3.3-5.5l.1-.1.6.2Z" transform="translate(-21.56)"/><path class="cls-39" d="M287,214.5c-.2.1-.4.3-.6.4h-.1a10.74,10.74,0,0,0-3.6,4.8c0-.9.1-4.5.1-5.6h0l.6-.6h0Z" transform="translate(-21.56)"/><path class="cls-40" d="M282.7,219.8h0c-.1.2-.1.4-.2.5l-3.1-.2c0-.2.1-.3.2-.5h0Z" transform="translate(-21.56)"/><path class="cls-41" d="M282.5,220.3a10.55,10.55,0,0,0-.5,1.9l-3-.2a10.62,10.62,0,0,1,.4-1.9h0Z" transform="translate(-21.56)"/><path class="cls-42" d="M282,222.2l-3-.1c0,.2-.1.4-.1.6l3,.1Z" transform="translate(-21.56)"/><path class="cls-43" d="M281.9,222.7a7.57,7.57,0,0,0-.1,1.5v1l-3,.1v-1.1a9.15,9.15,0,0,1,.1-1.6l3,.1Z" transform="translate(-21.56)"/><path class="cls-44" d="M282.2,226.9l-3,.3c-.1-.7-.2-1.4-.3-2v-.1l3-.1v.1A5.66,5.66,0,0,0,282.2,226.9Z" transform="translate(-21.56)"/><path class="cls-45" d="M285.8,232.8l-3.4.8a16.1,16.1,0,0,1-3.2-6.4v-.1l3-.3v.1A10.72,10.72,0,0,0,285.8,232.8Z" transform="translate(-21.56)"/><path class="cls-46" d="M285.8,232.8l-3.4.8a16.1,16.1,0,0,1-3.2-6.4v-.1l3-.3v.1A10.72,10.72,0,0,0,285.8,232.8Z" transform="translate(-21.56)"/><path class="cls-47" d="M291.3,235.5l-4.5,1.6a15.57,15.57,0,0,1-4.5-3.5.1.1,0,0,0-.1-.1l3.3-.9.2.2A11.73,11.73,0,0,0,291.3,235.5Z" transform="translate(-21.56)"/><path class="cls-48" d="M296,235.4l-6.5,2.8c-.9-.3-1.8-.6-2.7-1l4.5-1.7a14.92,14.92,0,0,0,2.1.2A11.53,11.53,0,0,0,296,235.4Z" transform="translate(-21.56)"/><path class="cls-49" d="M289.8,238.3l6.3-2.9H296a10.9,10.9,0,0,1-2.6.3,14.92,14.92,0,0,1-2.1-.2h-.1a14,14,0,0,1-2.9-.9l1.1,3.6Z" transform="translate(-21.56)"/><path class="cls-50" d="M300.3,237h0a14.68,14.68,0,0,1-6.9,1.7,13.61,13.61,0,0,1-3.6-.5.37.37,0,0,1-.3-.1h-.2l5.8-2.6a1.88,1.88,0,0,0,.8-.2h.1a13.43,13.43,0,0,0,3-1.2A11.86,11.86,0,0,0,300.3,237Z" transform="translate(-21.56)"/><path class="cls-51" d="M302.7,237.6l1.9-1-.8-1.7h0l-.4-.1-3.6-1a2.09,2.09,0,0,0-.6.4,6.79,6.79,0,0,0,1.2,2.8" transform="translate(-21.56)"/><path class="cls-52" d="M290.3,218.8Zm9.6,3.1a.22.22,0,0,0-.2-.2.35.35,0,0,1-.4-.4c-.2.1-.1.3-.3.4-.1-.1-.2-.2-.2-.3s-.1-.3-.3-.4a.37.37,0,0,0-.3-.1c0,.2.1.3.2.3s.3.1.2.3a.22.22,0,0,1-.2.2c-.1,0-.2,0-.3-.2h.2a2.18,2.18,0,0,1-.5-.4.76.76,0,0,0-.4.1h-.1l-.3.3c-.1.2-.2.2-.4.2h-.2a1,1,0,0,1-.3-.1.45.45,0,0,1,0-.5h.8c0-.1,0-.1-.1-.2s0-.2,0-.3l.1-.1c.2,0,.3-.1.3-.2s.3-.2.5-.2h.2v-.3c-.1,0-.1.1-.2.1h-.1a.22.22,0,0,0-.2-.2v-.1c0-.1,0-.2.2-.3s.1-.1.2-.1.1-.1,0-.2c-.3-.2-.7-.5-1-.7a7.32,7.32,0,0,0-2.5-.8,6,6,0,0,0-2.3.1,4.92,4.92,0,0,0-1.7.6c-.3.1-.5.3-.8.4.2.1.4.1.6.2a.35.35,0,0,0,.1-.2h-.4c.1-.1.3-.2.4-.3a.44.44,0,0,1,.5.1.35.35,0,0,0,.2.1c.1,0,.2-.1.3-.1h.2a.1.1,0,0,1-.1.1.52.52,0,0,1-.4.2.1.1,0,0,0-.1.1v.1h.3a.37.37,0,0,1,.3-.1h.1a.1.1,0,0,0-.1-.1c-.1-.1-.1-.2,0-.2s.4,0,.6,0l-.2.2v.1h.2v-.1c0-.1,0-.1.1-.2a.62.62,0,0,1,.7-.1.76.76,0,0,1,.5.2l.1.1c0,.1.1.2.2.3s-.1.2-.3.2l-.1.1-.1.1c-.2,0-.4-.1-.6-.1h0c.2-.1.3-.2.5-.3a.63.63,0,0,0-.6,0,.37.37,0,0,1-.3.1h0a.1.1,0,0,0,.1.1c-.1.1-.2.1-.2.2s-.1-.1-.2-.2c-.2.1-.5.3-.7.4a.19.19,0,0,0,0,.3.31.31,0,0,0,.2.1c.2,0,.2,0,.2.2v.1l.1-.1c.1-.1.1-.2.3-.2s.2-.1.2-.3v-.1a.27.27,0,0,1,.3-.3.37.37,0,0,1,.3.1c.1,0,.1.1.1.2s0,.2.2.1.2-.1.3-.1v.1c0,.2,0,.4.2.5s.1.3-.1.3a.1.1,0,0,0-.1.1.31.31,0,0,0,.2.1.35.35,0,0,1,.1.2l-.1.1a.37.37,0,0,1-.3-.1c-.1,0-.1-.1-.1-.2v-.1a.45.45,0,0,1-.5,0h-.1a.1.1,0,0,0-.1.1l.1.1a.1.1,0,0,1,.1.1l-.1.1c-.2-.1-.2-.1-.3.1s-.4.3-.5.4-.3.3-.5.5-.1.2-.2.2-.2.1-.3.2-.3.2-.2.5v.1c-.3,0-.3-.1-.3-.3a.1.1,0,0,0-.1-.1h-.7a.88.88,0,0,0-.6.7c0,.2.1.3.2.3a.37.37,0,0,0,.3-.1c.1-.1.2-.1.3-.2.2.2,0,.3,0,.5h0c.3,0,.3,0,.3.4s0,.3.3.4.3,0,.4-.1v-.1a.48.48,0,0,1,.7,0,.6.6,0,0,0,.4.1c.1-.1.2-.1.2,0l.2.2c.1.2.2.2.4.2s.2,0,.2.1.1.2.1.3.1.2.2.3a1.7,1.7,0,0,0,.7.1c.1,0,.2,0,.2.1a.22.22,0,0,0,.2.2c.1,0,.1.1.1.2s-.1.2-.2.4-.1.1-.1.2a.9.9,0,0,1-.1.5c0,.3-.2.5-.5.4-.1,0-.3.1-.2.2v.1c.1.2,0,.3-.1.5s-.2.3-.3.4-.1.2-.3.2-.3.1-.5.2c.2.1.2.2.1.3l-.1.1.1.1c.1,0,.2.1.1.2s0,.3.2.5a.1.1,0,0,1,.1.1c0,.1,0,.2-.1.2a1.27,1.27,0,0,1-.6-.1,2.09,2.09,0,0,1-.4-.6.75.75,0,0,1-.1-.5c0-.1,0-.3-.1-.3a.66.66,0,0,1-.1-.6v-.2a.37.37,0,0,1-.1-.3v-.6a.6.6,0,0,0-.3-.6c-.1,0-.1,0-.2-.1l-.1-.1c0-.3-.2-.4-.4-.6a.44.44,0,0,1-.1-.5v-.2c0-.2,0-.3.2-.3s.1-.1.2-.1c.1-.2-.1-.4-.3-.4a.52.52,0,0,1-.4-.2.55.55,0,0,0-.5-.3h-.2c-.1-.2-.2-.1-.4-.1s-.2-.1-.3-.1c-.3,0-.3-.2-.4-.4v-.1c.1-.1,0-.2,0-.3a.91.91,0,0,1-.3-.7.1.1,0,0,0-.1-.1h0v.1a.76.76,0,0,0,.2.5.19.19,0,0,1,0,.3c-.1.1-.2,0-.3-.1a.78.78,0,0,1-.2-.8c0-.1,0-.2-.1-.2s-.2-.1-.2-.3a6.78,6.78,0,0,0,.3,5.7,6.58,6.58,0,0,0,6.8,3.5,6.5,6.5,0,0,0,4.4-2.4c-.2,0-.2-.1-.2-.2a.6.6,0,0,0-.1-.4.84.84,0,0,1-.2-.7.37.37,0,0,0-.1-.3c-.1-.1-.2-.3-.1-.4a.6.6,0,0,0,0-.8.1.1,0,0,0-.1-.1.66.66,0,0,1-.1-.6c0-.2,0-.2-.2-.2a.37.37,0,0,1-.3-.1c-.1-.1-.2-.1-.4,0s-.2.1-.3.1h-.3c-.2,0-.4,0-.5-.2s-.1-.1-.2-.2a.83.83,0,0,1-.3-.8c0-.1,0-.1.1-.2s.1-.1,0-.2a.19.19,0,0,1,0-.3c.2-.1.3-.2.5-.3a.52.52,0,0,0,.2-.4v-.2a.76.76,0,0,1,.5-.2h.4c.1,0,.3-.1.4-.1h.3c.2,0,.2,0,.2.2s0,.1.1.1h.9a.37.37,0,0,1,.3.1.88.88,0,0,0,.7.1C300,222.1,300,222,299.9,221.9Zm-3.6-1.8c.1-.1.2-.2.3-.2,0-.2,0-.3.2-.3a.1.1,0,0,1,.1.1.55.55,0,0,0,.3.5v.1l-.2.2h-.4a.37.37,0,0,1,.1-.3c.1,0,.1-.1,0-.1l-.3.3h-.2C296.3,220.2,296.3,220.2,296.3,220.1Zm-3.7.9-.1.1-.1-.1.1-.1c.1-.1.1,0,.1.1C292.7,220.9,292.6,220.9,292.6,221Zm.5-.1-.1.1h-.2l-.1-.1h.1c.1,0,.1-.1.2-.1h.2C293.1,220.8,293.1,220.8,293.1,220.9Z" transform="translate(-21.56)"/><path class="cls-53" d="M300.5,227.2a7.7,7.7,0,1,1-.8-7.6.88.88,0,0,1-.5.9,6.78,6.78,0,1,0,.5,6.3A.91.91,0,0,1,300.5,227.2Z" transform="translate(-21.56)"/><path class="cls-54" d="M288.9,220v.8a.36.36,0,0,0,.2.3l-.4.3v.1h1.7l-.4-.3a.37.37,0,0,0,.2-.3v-.8s0-.2-.4-.3h-.6C289.3,219.7,288.9,219.8,288.9,220Z" transform="translate(-21.56)"/><circle class="cls-11" cx="267.64" cy="220.8" r="0.1"/><circle class="cls-11" cx="268.34" cy="220.8" r="0.1"/><path class="cls-11" d="M289.8,219.9Z" transform="translate(-21.56)"/><path class="cls-11" d="M289.1,220.2v.2a.2.2,0,0,0,.2.2h.6a.2.2,0,0,0,.2-.2v-.2a.2.2,0,0,0-.2-.2h-.6a.2.2,0,0,0-.2.2Z" transform="translate(-21.56)"/><polygon class="cls-11" points="267.64 221.2 267.74 221.2 268.34 221.2 268.44 221.2 267.64 221.2"/><polygon class="cls-11" points="267.54 221.3 268.54 221.3 268.64 221.4 267.44 221.4 267.54 221.3"/><path class="cls-54" d="M296.5,223.6l.6.4,2.6-.1s.7-.2,0-.4h-1.2l-1-.9s-.1-.1-.1,0l.2.9Z" transform="translate(-21.56)"/><path class="cls-54" d="M296.6,223.6h.4l-.3-.4s-.1-.2-.1,0Z" transform="translate(-21.56)"/><circle id="leftEye" class="cls-1" cx="208.34" cy="91.9" r="6.5"/><circle id="leftEyeShine" class="cls-11" cx="206.44" cy="90.7" r="2"/><circle id="rightEye" class="cls-1" cx="255.24" cy="91.9" r="6.5"/><circle id="rightEyeShine" class="cls-11" cx="253.14" cy="90.7" r="2"/><path id="mouth" class="cls-55" d="M265,130a11.6,11.6,0,1,1-23.2,0Z" transform="translate(-21.56)"/></g><path class="cls-56" d="M142.25,690.22q-11.3,0-16-2.66-7-3.93-10.41-16.89l-3.3-12.31H74.72L61.14,682.61q-4.32,7.62-9.15,7.61-4.18,0-4.19-5.2a14.47,14.47,0,0,1,2.28-7.11l45-78.58a24.39,24.39,0,0,1,6.09-7.12c2.88-2.36,5.67-3.55,8.38-3.55q8.5,0,9.78,5.08ZM109.55,646l-8-33.75L81.91,646Z" transform="translate(-21.56)"/><path class="cls-56" d="M208.78,635.63q-1,6.74-10.41,7.62a18.55,18.55,0,0,1-3.56.38,13.06,13.06,0,0,1-6.34-1.52q-3.56-1.9-3.56-5.21a5.54,5.54,0,0,1,1.65-3.81c-1.69-1.6-4.49-2.41-8.38-2.41q-6.47,0-7.62,7.11-.88,5.34,5.59,9.14,4.18,2.16,12.57,6.6,6.85,3.94,6.86,9.78a20.79,20.79,0,0,1-.13,2.16,28.78,28.78,0,0,1-11.68,18.41q-8.76,6.35-21.08,6.34a54.9,54.9,0,0,1-7.87-.63q-6.34-1-6.35-2.92c0-1.78,2.63-2.41,7.88-1.91a14.42,14.42,0,0,0,10.85-2.85q4.38-3.49,4.38-10,0-4.56-6.47-7.62-4.06-1.91-12.19-5.58-6.48-4.07-6.48-10.54a16.27,16.27,0,0,1,.26-2.92q4.19-23.49,38.59-23.1Q209,622.44,209,633.6A8.24,8.24,0,0,1,208.78,635.63Z" transform="translate(-21.56)"/><path class="cls-56" d="M282.54,690.22q-13.2,0-19-1.14-10.54-2-14.1-8.63l-7.23-13.59-7.75,6.35-2.92,17q-8.62,0-14.09-8.38a28.67,28.67,0,0,1-4.95-16.37,24.44,24.44,0,0,1,.38-4.19L223,603.51a60.3,60.3,0,0,0,1.15-9.26,11.94,11.94,0,0,0-1.14-5.59q23.22,0,23.23,14.36a28.61,28.61,0,0,1-.18,3.55l-8.44,47.29,32.11-26.1q6.86-5.58,12.18-5.58c2.8,0,4.19,1.1,4.19,3.3q0,4.07-6.6,9.52l-19.93,16.5Z" transform="translate(-21.56)"/><path class="cls-56" d="M350,626.58l-11.39,63.65q-10.72,0-17.71-10.88a37.63,37.63,0,0,1-6.18-20.79,31.33,31.33,0,0,1,.49-5.36l5.36-30.85A82.19,82.19,0,0,0,322,610.66a13.91,13.91,0,0,0-1.46-6.82q29.72,0,29.71,18.52A27.24,27.24,0,0,1,350,626.58Zm-8.72-36.05a12.56,12.56,0,0,1-9-3.39,11.73,11.73,0,0,1-3.55-8.89,17.07,17.07,0,0,1,5.41-12.59,17.49,17.49,0,0,1,12.68-5.33,11.63,11.63,0,0,1,8.8,3.47,12.47,12.47,0,0,1,3.31,9,17.16,17.16,0,0,1-5.33,12.36A16.74,16.74,0,0,1,341.23,590.53Z" transform="translate(-21.56)"/><path class="cls-56" d="M439.71,686.29c2.28.08,3.43.46,3.43,1.14q0,2.79-10.8,2.79-14.08,0-26.91-10.66-9-7.48-19.17-22.46v-.51a8.89,8.89,0,0,1-3.76-.76l-6.31,34.41q-8.29,0-13.9-8.51a29.26,29.26,0,0,1-4.85-16.25,24.53,24.53,0,0,1,.38-4.19L368,603.51a61.33,61.33,0,0,0,1.14-9.14,13.25,13.25,0,0,0-1.14-5.71q14.59,0,20.44,6.35a4.62,4.62,0,0,0,1.65-.91,47.76,47.76,0,0,1,21.71-5.44,33.79,33.79,0,0,1,16,3.68A24,24,0,0,1,439,604.29a25.33,25.33,0,0,1,1.9,10.05q0,11.43-8,22.12a51.43,51.43,0,0,1-18.15,15.38q-1.65.63-4.7,2.16l4.32,9.41q4.81,10.43,8.5,14.74A21.76,21.76,0,0,0,439.71,686.29Zm-31.49-82.4q-5-4.44-10.15-4.44-6.1,0-9.53,6.09a23.09,23.09,0,0,0-2.91,11.68,34.25,34.25,0,0,0,3,13.65,31.48,31.48,0,0,0,8,11.36q5,4.46,10.09,4.45a9.64,9.64,0,0,0,4.57-1.14Q419,641.48,419,628.9a34.83,34.83,0,0,0-2.92-13.64A31.34,31.34,0,0,0,408.22,603.89Z" transform="translate(-21.56)"/><path class="cls-56" d="M542.54,690.22q-11.29,0-16-2.66-7-3.93-10.42-16.89l-3.3-12.31H475l-13.58,24.25q-4.32,7.62-9.15,7.61-4.2,0-4.2-5.2a14.5,14.5,0,0,1,2.29-7.11l44.95-78.58a24.39,24.39,0,0,1,6.09-7.12c2.87-2.36,5.67-3.55,8.38-3.55q8.51,0,9.77,5.08ZM509.83,646l-8-33.75L482.19,646Z" transform="translate(-21.56)"/></svg>