<svg id="Layer_1" data-name="Layer 1" xmlns="http://www.w3.org/2000/svg" viewBox="0 0 2431.53 2431.53"><defs><style>.cls-1{fill:#ffd553;}.cls-2{fill:#5ed1ff;}.cls-3{opacity:0.2;}.cls-4{fill:#102770;}.cls-5{opacity:0.6;}.cls-6{fill:#fff;}.cls-7{fill:#5b2a6b;}.cls-8{fill:#eb8e54;}.cls-9{fill:#4a83ff;}.cls-10{fill:#ff579a;}</style></defs><path class="cls-1" d="M2369.72,1278.31c0,391.14-245.85,730.21-605.1,897.17-151.86,70.58-324,110.44-506.34,110.44-309.15,0-594.9-83.57-796.32-268.29v-.06c-198.52-181.94-315-463.13-315-739.26,0-556.47,497.6-1007.54,1111.37-1007.54S2369.72,721.84,2369.72,1278.31Z"/><path class="cls-2" d="M796.81,1446.46,594.11,1844S358.52,1677.32,223,1477.58a930.52,930.52,0,0,1-63.81-109.35c-92.56-186.8-107.18-379,15.41-423,106.74-38.35,171.64,171.09,355.23,341.1C599,1350.45,685.19,1408.94,796.81,1446.46Z"/><g class="cls-3"><path class="cls-4" d="M796.81,1446.46,594.11,1844S358.52,1677.32,223,1477.58a930.52,930.52,0,0,1-63.81-109.35c149.23,163.4,343.91,269.46,404.32,182.46,75.77-109.2-33.68-261.44-33.68-264.39C599,1350.45,685.19,1408.94,796.81,1446.46Z"/></g><g class="cls-5"><path class="cls-6" d="M159.17,1029.15c147-70,233.41,348.65,624,446.48l12.49-24.48c-407.63-137-475.3-554.09-622.23-501.24C95.35,978,72.93,1066.14,90.85,1174.7,101.92,1124.19,112.57,1051.34,159.17,1029.15Z"/></g><path class="cls-4" d="M594.1,1868.6a24.59,24.59,0,0,1-14.21-4.53c-9.77-6.91-240.82-171.52-377.27-372.7-114.08-168.18-166-357.09-129.23-470.06,15.89-48.8,48-83.13,92.88-99.27,81.59-29.35,138.52,48.18,210.62,146.3,86.89,118.26,205.88,280.22,427.77,354.77a24.62,24.62,0,0,1,14.09,34.52L616,1855.16a24.65,24.65,0,0,1-21.94,13.44ZM199.64,965.35a49,49,0,0,0-16.71,3c-30.88,11.11-51.4,33.41-62.72,68.18-31.82,97.71,18.83,273.37,123.16,427.19,107,157.78,280.07,296.22,342,343.16l176.79-346.68c-219.37-82.9-337.67-243.92-425-362.73C275.57,1013.59,238.1,965.35,199.64,965.35Z"/><path class="cls-4" d="M277.87,1568.2a17.5,17.5,0,0,1-17.48-16.92c-7.3-220.4,162.81-349.47,170.05-354.85a17.5,17.5,0,1,1,20.89,28.08c-2.42,1.82-162.63,124.43-156,325.61a17.5,17.5,0,0,1-16.91,18.07Z"/><path class="cls-2" d="M1753.14,2132.64c-.54,8.62-1.18,17.08-2,25.31-133.42,66.81-284.72,104.52-445,104.52-271.68,0-474.57-26.63-742.65-202.55,0,0,4.48-112.4,40.62-249,28.9-109,77.93-233.47,160.94-328.34,41-46.78,90.2-86.41,149.38-113.39,73.16-33.48,161.49-47.61,268.18-32.3C1424.35,1371.62,1798.24,1371.82,1753.14,2132.64Z"/><g class="cls-5"><path class="cls-6" d="M1031.07,1542s-151.4,13.2-234.26-14.22c0,0-193.94,241.44-233.32,532.17,0,0,4.48-112.4,40.62-249,28.9-109,77.93-233.47,160.94-328.34,41-46.78,90.2-86.41,149.38-113.39,18,9.55,31.36,17.92,35.84,23.09C967.16,1411.65,1031.07,1542,1031.07,1542Z"/></g><g class="cls-3"><path class="cls-4" d="M1753.14,2132.64c-.54,8.62-1.18,17.08-2,25.31-133.42,66.81-284.72,104.52-445,104.52-271.68,0-474.57-26.63-742.65-202.55,0,0,4.48-112.4,40.62-249C657.62,1939,767.47,2055.29,987.2,2075.28c522.28,47.46,496.92-386.14,496.92-386.14-386.93,22.5-601.2-88.13-719.07-206.54,91.63-104.68,224.61-173.41,417.56-145.69C1424.35,1371.62,1798.24,1371.82,1753.14,2132.64Z"/></g><path class="cls-4" d="M1249.73,2288c-71.94,0-165-4.56-268.28-24.69C820,2231.81,674.51,2170.11,549.1,2079.9a24.6,24.6,0,0,1-10.23-20.81c.61-18,17.67-443.37,261.26-647.65,104.07-87.26,233.92-120.54,385.94-98.89,14.17,2,28.8,3.91,43.78,5.85,120.53,15.66,270.53,35.15,383.28,144.92,130,126.57,183.83,346,164.59,670.75a.07.07,0,0,0,0,0c-.61,10-1.29,18.58-2.09,26.34a24.62,24.62,0,0,1-13.47,19.47c-132,66.13-285.22,102.18-455.27,107.17C1289.79,2287.6,1270.65,2288,1249.73,2288ZM588.82,2047.71c290.07,202.7,610.45,193.28,716.61,190.18,157.57-4.63,299.6-36.9,422.4-96q.39-5.07.74-10.77h0c18.35-309.65-30.65-516.56-149.79-632.56-101-98.34-236.09-115.89-355.27-131.37-15.18-2-30-3.9-44.38-5.94-137.54-19.58-254.37,10-347.25,87.78C627.83,1620.07,593.71,1975.26,588.82,2047.71Zm1164.32,84.9h0Z"/><path class="cls-2" d="M1968,2020.88c-76.22,150.26-556.2,229.18-556.2,229.18-55.39,78.14-120.48,96.55-172.62,75.78-43.23-17.19-77.54-61.3-90-120.58-10.19-48.05-6-106.1,19.5-167.84,75-181.77,486.34-181.77,486.34-181.77l-4.39-34.42-28.26-222.44c21.22-17.48,41.56-30.48,61-39.44C1917.83,1450.45,2020.43,1917.53,1968,2020.88Z"/><g class="cls-3"><path class="cls-7" d="M1968,2020.88c-76.22,150.26-556.2,229.18-556.2,229.18-55.39,78.14-120.48,96.55-172.62,75.78-43.23-17.19-77.54-61.3-90-120.58C1306.89,2391.79,1460.64,2069,1460.64,2069c24.55,43.26-5,105.5-5,105.5,450.05-86.84,492.7-243.72,425.15-408.31s-193.49-189.9-193.49-189.9l-4-16.89C1917.83,1450.45,2020.43,1917.53,1968,2020.88Z"/><path class="cls-4" d="M1280,2336.26a111.94,111.94,0,0,1-41.7-8.1c-44.94-17.87-79.18-63.61-91.58-122.38l-2-9.7,6.4,7.56c36,42.58,74.71,61.48,115,56.29,106.23-13.75,191.47-190.27,192.32-192l2.06-4.33,2.37,4.17c21.38,37.65,3.36,88.16-3,103.37,234.27-45.74,372.52-113,422.58-205.68,29.61-54.82,28.32-119.69-4-198.32-66.16-161.29-190.43-188.14-191.67-188.4l-1.57-.31-4.83-20.44,1.85-.85c66-30.67,128.66-18.16,181.14,36.17,103.34,107,143.83,355.81,106.82,428.75h0c-74.9,147.66-526,225.19-557,230.35C1374.3,2306.9,1326.68,2336.26,1280,2336.26Zm-126.11-121.84c13.6,52.44,45.35,92.84,86.26,109.09,56.9,22.69,120.33-5.32,169.65-74.89l.6-.85,1-.17c4.79-.79,479.61-80.44,554.38-227.86h0c36.44-71.82-3.82-317.25-106-423-51.09-52.89-109.48-65-173.58-36l3.16,13.39c14.9,3.71,130.59,37.12,193.73,191,32.87,80.1,34.09,146.37,3.72,202.59-51.15,94.66-192,163.07-430.71,209.13l-4.85.93,2.11-4.45c.28-.6,26.79-57.51,7.31-98.89-14.3,28.54-93.41,177.36-194,190.39C1227.09,2270,1189.16,2253.05,1153.85,2214.42Z"/></g><g class="cls-5"><path class="cls-6" d="M1246,2021.47c-56.59,68.27-69,223.72-6.84,304.37-78.23-31.12-129.08-151.25-70.55-288.42,75-175.69,486.34-181.77,486.34-181.77s120.71-21.53,135.8,10.12C1790.77,1865.77,1340.23,1907.83,1246,2021.47Z"/></g><path class="cls-4" d="M1653.41,1863.62a20,20,0,0,1-19.82-17.48l-30.43-239.41a20,20,0,1,1,39.68-5l30.43,239.41a20,20,0,0,1-17.32,22.36A18.14,18.14,0,0,1,1653.41,1863.62Z"/><path class="cls-4" d="M1269.85,2365.31a140.13,140.13,0,0,1-62.75-14.71c-72.72-36.38-128.77-144.62-80-296.29,69-214.56,508.8-223,527.48-223.29a24.62,24.62,0,0,1,.68,49.23c-1.08,0-109.46,1.83-223.71,27.6-101.14,22.82-227.92,69.36-257.58,161.54-38.14,118.53-1.14,209,55.12,237.17,52,26,112.77-.44,162.57-70.74a24.61,24.61,0,0,1,16.41-10.12c4.16-.63,417-64.58,540.61-220.14,30.16-38-1.8-287.1-110.32-393.77-59.23-58.22-124.79-56.26-200.45,6a24.62,24.62,0,0,1-31.28-38c94.56-77.81,189.11-78.91,266.24-3.08,113.57,111.64,170.42,388.94,114.36,459.5-125.59,158.09-493.75,225.37-561.59,236.58C1374.67,2340.62,1318.46,2365.31,1269.85,2365.31Z"/><path class="cls-4" d="M1653.93,1835.67a110.15,110.15,0,0,1,17.7-2.52,168.11,168.11,0,0,1,17.67-.5,295.71,295.71,0,0,1,35.41,3.09c11.79,1.69,23.58,3.8,35.29,6.45a251.15,251.15,0,0,1,34.83,10.6,3,3,0,0,1-.36,5.69h0c-11.82,3-23.41,5.28-35,7.51s-23.07,4.1-34.56,5.88-23,3.46-34.45,4.22c-5.75.4-11.49.67-17.25.58a120.29,120.29,0,0,1-17.2-1.07l-.4-.06a20.31,20.31,0,0,1-1.66-39.88Z"/><path class="cls-4" d="M1586.8,2227.51a15,15,0,0,1-8-27.72c1-.63,102-65.53,92.85-177.7-9.65-118.22-110.43-145.57-111.45-145.84a15,15,0,0,1,7.5-29c1.23.31,122.49,33.19,133.85,172.44,10.66,130.66-102.07,202.59-106.87,205.59A15,15,0,0,1,1586.8,2227.51Z"/><path class="cls-8" d="M2214.81,1029.15,391.46,789.57c61.59-177.44,166.07-358.82,274.88-487.12C722,236.72,778.89,184.92,831.72,154.69c111.56-63.85,333.36-79.07,560.63-49.23,35.4,4.68,71,10.39,106.25,17.23,17.08,3.3,34.12,6.85,51,10.69,25.85,5.81,51.45,12.21,76.61,19.2,16,4.43,32,9.11,47.61,14.08,15.27,4.72,30.33,9.75,45.1,15,144.31,51,266.26,122.84,330.61,214.36,25.8,36.68,49,80.4,69.37,129.14C2178.18,666.93,2213,851.36,2214.81,1029.15Z"/><g class="cls-5"><path class="cls-6" d="M1481.79,118.94l-47.22,161.35-103.28-30.22L1377.9,90.78C1412.62,99.1,1447.39,108.47,1481.79,118.94Z"/></g><g class="cls-5"><path class="cls-6" d="M1616.17,147.29l-45.39,155.16-75.66-22.15,46.84-160C1567.07,128.7,1591.87,137.73,1616.17,147.29Z"/></g><g class="cls-5"><path class="cls-6" d="M1767.78,210.6l-46.48,159-45.2-13.23L1724.47,191Q1746.51,200.46,1767.78,210.6Z"/></g><g class="cls-3"><path class="cls-4" d="M2214.81,1029.15,391.46,789.57c61.59-177.44,166.07-358.82,274.88-487.12,60.7,93.64,219.34,298.36,608.54,364.38,338.68,57.41,659.89-55.29,844-141.7C2178.18,666.93,2213,851.36,2214.81,1029.15Z"/></g><path class="cls-4" d="M2214.82,1053.79a26.61,26.61,0,0,1-3.21-.21L388.27,814a24.62,24.62,0,0,1-20-32.48c96.27-277.34,290.29-556,451.29-648.14C942.81,62.75,1194.39,46,1460.43,90.77c291.7,49.05,513.76,155.14,609.26,291.06,100.59,143.1,167.21,397.1,169.74,647.09a24.63,24.63,0,0,1-24.61,24.87ZM425,769.14,2189.63,1001c-6.88-231.25-68.72-460.72-160.22-590.89C1942.72,286.75,1727,185.52,1452.27,139.32,1200.7,97,956.24,111.79,844,176.08,700,258.51,519.59,515.16,425,769.14Z"/><path class="cls-9" d="M635.74,605.44c2.31,78.41-8,248.32-128.92,343.18a64.32,64.32,0,0,1-64.1,9C381.22,932.31,264,858.78,324.9,678.79c53.18-157.28,195.48-145.15,266.47-128A58,58,0,0,1,635.74,605.44Z"/><g class="cls-5"><path class="cls-6" d="M365.7,710.44c53.19-157.28,195.48-145.15,266.47-128,.35.09.67.2,1,.29a58.1,58.1,0,0,0-39-31.94c-71-17.19-213.29-29.32-266.47,128C280.36,818.87,340.83,894.45,399,933,357.23,889.17,328.9,819.3,365.7,710.44Z"/></g><g class="cls-3"><path class="cls-4" d="M530,953.45A64.59,64.59,0,0,1,495.47,967h-.05c-60.95-36.28-132.19-112.3-81.93-261,44.86-132.59,153-144.8,228.35-135a57.42,57.42,0,0,1,17.09,39.29C661.24,688.72,651,858.63,530,953.45Z"/></g><path class="cls-4" d="M466.92,987a88.14,88.14,0,0,1-33.58-6.62C371,954.7,233.21,873.12,301.58,670.91c60.81-179.84,227-160.62,295.58-144a82.79,82.79,0,0,1,63.18,77.81h0C663.09,697.7,648.77,868.55,522,968A89.29,89.29,0,0,1,466.92,987Zm46-421.64c-66.31,0-132.88,27.19-164.7,121.3-53.05,156.89,42.31,222.84,103.87,248.19a39.69,39.69,0,0,0,39.54-5.62C605.46,840,613.12,673.56,611.13,606.17h0a33.44,33.44,0,0,0-25.55-31.4C562.63,569.2,537.8,565.38,512.92,565.38Z"/><path class="cls-2" d="M2037.81,1391.07c-26.29,51.65-60.26,93.74-102.65,122C1686.57,1678.8,678.3,1607.7,471.32,1206.39c-20.14-39-29.79-85.72-31-137.26-6.5-285.56,247.6-721.54,441-832.26,171.83-98.37,638-66.72,913.3,77.93,72,37.82,130.92,83.36,168.14,136.33,23.34,33.24,44.36,72.92,62.68,117.28C2124.12,807,2145.59,1179.36,2037.81,1391.07Z"/><g class="cls-3"><path class="cls-4" d="M2038.45,1389.75q4.62-9.15,8.94-18.68c.17-.37.33-.76.5-1.14q4.2-9.36,8.09-19.09c.26-.65.53-1.3.8-2q3.93-9.95,7.56-20.22l1-2.76q7.29-20.94,13.32-43.15l.78-2.87q3-11.12,5.65-22.49c.1-.45.2-.91.31-1.36q2.64-11.37,5-23l.27-1.3q2.35-11.77,4.4-23.81l.45-2.67q4.07-24.26,6.94-49.35c.09-.82.19-1.63.28-2.44q1.41-12.57,2.53-25.3c0-.42.07-.85.11-1.27q1.13-13,1.95-26.18v-.1q.82-13,1.33-26.22l.09-2.48q1-26.28.83-52.93c0-.67,0-1.35,0-2q-.09-13.28-.46-26.58c0-.53,0-1.06,0-1.59q-.78-26.85-2.66-53.78c-.07-.88-.13-1.77-.19-2.65q-1.92-26.7-4.88-53.26l-.24-2.2q-1.47-13.06-3.2-26l-.33-2.47q-3.51-26.07-8-51.71l-.6-3.42q-2.24-12.63-4.7-25.13c-.07-.37-.15-.74-.22-1.11q-2.41-12.12-5-24.08c-.2-.94-.4-1.88-.61-2.81q-2.66-12-5.53-23.86l-.9-3.63q-5.85-23.8-12.54-46.78c-.41-1.4-.81-2.79-1.23-4.18q-3.29-11.13-6.76-22c-.3-.94-.61-1.87-.92-2.81q-3.25-10.07-6.67-19.93l-1.14-3.32q-3.66-10.43-7.5-20.57c-.54-1.41-1.08-2.8-1.61-4.2-2.64-6.89-5.33-13.72-8.09-20.41-18.32-44.36-39.34-84-62.68-117.28-37.22-53-96.15-98.51-168.14-136.33,0,0,303.54,358.33,189.56,849-4.85,20.87-8.38,40-10.8,57.6-59.42,144.16-166.86,259.93-356.33,277.89C1119,1546.5,626.8,1386,440.35,1069.13c1.18,51.54,10.83,98.27,31,137.26,207,401.31,1215.25,472.41,1463.84,306.68,42.4-28.26,76.33-70.39,102.62-122h0C2038,1390.64,2038.23,1390.18,2038.45,1389.75Z"/></g><g class="cls-5"><path class="cls-6" d="M909.83,297.82c216.73-124.1,901.91-41.23,1081.46,214.27a525.73,525.73,0,0,1,34.16,56.34c-18.34-44.33-39.31-84.09-62.65-117.3-179.54-255.5-864.73-338.37-1081.45-214.27C653,367.62,340,951.79,471.32,1206.38c3.95,7.67,8.23,15.2,12.76,22.63C398,958.4,692.28,422.38,909.83,297.82Z"/></g><path class="cls-4" d="M1499.08,1620.77c-163.08,0-343.79-20.84-508.18-63.39C798.08,1507.46,547.62,1408,449.44,1217.67c-62.67-121.51-37.27-323,69.69-552.87,95.92-206.13,233.3-382.49,350-449.31,110-63,334.14-78,571-38.12C1563,198,1861.89,264.71,1982.94,437c124.7,177.45,183.49,524.05,133.86,789.08-27.37,146.14-85.45,252.47-168,307.48C1862.32,1591.21,1693.2,1620.77,1499.08,1620.77ZM1185.41,205.1c-123,0-229.66,17.52-291.83,53.12C673.84,384,369.28,954.86,493.19,1195.1c70.09,135.88,251.23,247.62,510.05,314.61,342.5,88.66,771.6,80.64,918.29-17.14,71.22-47.48,122-142.77,146.88-275.58,46.7-249.36-9.71-586.57-125.75-751.7C1822.29,294,1462.46,205.1,1185.41,205.1ZM881.35,236.86h0Z"/><path class="cls-6" d="M929.16,414.07c157.79-92.58,670.53-30.76,811.73,159.85s190.8,668.54,10.49,792.17S818.05,1436.7,652.14,1137.32C546.88,947.39,762.9,511.62,929.16,414.07Z"/><g class="cls-3"><path class="cls-4" d="M1744.9,581.75c-26.33-35.54-65.58-66.59-113-93,133.12,199.45,175.9,656.76.1,777.31-146.9,100.72-673.92,84.17-953.9-87.31,201.47,269.59,904,314,1077.34,195.19C1935.7,1250.3,1886.1,772.36,1744.9,581.75Z"/></g><g class="cls-5"><path class="cls-6" d="M957.21,474.31c153.85-90.26,645.13-33.72,800.43,145.87a415.14,415.14,0,0,0-28.31-44.2c-141.2-190.61-653.95-252.43-811.73-159.85-166.27,97.55-382.28,533.32-277,723.25a306.72,306.72,0,0,0,36,51.2C580.15,997.19,792.94,570.69,957.21,474.31Z"/></g><path class="cls-4" d="M1428.23,1452.7c-113.12,0-238.08-13.46-355.16-41.1-220.41-52-377.55-145.21-442.46-262.35-51.12-92.24-38.15-244.53,35.57-417.83,66-155.1,164.31-288,250.52-338.58h0c81.4-47.77,249.64-59.27,428.6-29.32,92.79,15.53,319,65.69,415.36,195.74,100.41,135.55,155.07,407,121.86,605.19-17.54,104.64-58.08,181.39-117.22,221.94C1701.6,1430.07,1574.87,1452.7,1428.23,1452.7ZM941.62,435.3c-76.5,44.88-169,171.63-230.14,315.39-66.74,156.9-80.88,297-37.81,374.69,58.11,104.86,204,189.49,410.71,238.3,252.81,59.7,551.89,51.5,653.08-17.89,47.86-32.82,81.23-98.34,96.51-189.48,31.31-186.78-19.32-441.47-112.86-567.74-59.43-80.22-202.95-146.2-383.93-176.49-165.66-27.73-324.63-18.4-395.56,23.22Z"/><ellipse class="cls-4" cx="1463.88" cy="941.43" rx="107.04" ry="63.88" transform="translate(274.58 2212.18) rotate(-79.64)"/><ellipse class="cls-6" cx="1478.12" cy="911.25" rx="34.8" ry="20.77" transform="translate(315.94 2201.43) rotate(-79.64)"/><path class="cls-4" d="M886.86,899.1c7.63-9.46,17.06-17.2,27.25-23.89a140.12,140.12,0,0,1,33.65-15.94,120.91,120.91,0,0,1,39-5.21c3.42.3,6.88.54,10.31,1s6.84,1.43,10.28,2.17c7,1.26,13.4,4.58,20,7.27l-30.67,27.77-4.65-8.41q-2.57-4.56-5.49-9c-1.86-3-3.92-5.9-5.84-8.88s-4.21-5.7-6.24-8.62a250.45,250.45,0,0,0-28.13-31.78c-2.68-2.28-5-5.18-7.86-7.25s-5.51-4.55-8.27-6.94c-5.9-4-11.54-9-18-12.52-12.49-8.52-26.62-14.28-42-21.66,16.1-4,33.7-5.12,50.66-1.48l6.46,1.17c2.12.51,4.16,1.23,6.25,1.85,4.17,1.29,8.41,2.57,12.5,4.18A156.86,156.86,0,0,1,969.64,795a172.19,172.19,0,0,1,39.61,34.65A204,204,0,0,1,1024.64,851q3.46,5.6,6.59,11.49a124.61,124.61,0,0,1,6,12.85l0,.06a22,22,0,0,1-30.69,27.72,97.41,97.41,0,0,0-24.39-9.67,147.16,147.16,0,0,0-29.09-2.95A266.55,266.55,0,0,0,921,893.05C910,894.63,898.66,896.62,886.86,899.1Z"/><path class="cls-9" d="M2059.86,830.4c-35.37,76.38-96.91,248.36-17.66,393a69,69,0,0,0,59.44,35.95c71.35,1,218-22.11,233.92-225.36,13.93-177.62-131.58-225.71-208.87-238.72A62.27,62.27,0,0,0,2059.86,830.4Z"/><g class="cls-5"><path class="cls-6" d="M2091.52,868.6a62.25,62.25,0,0,1,66.82-35.15c39.77,6.7,97.57,22.74,142.45,60.88-45.45-63.49-124.05-86.67-174.1-95.1a62.27,62.27,0,0,0-66.83,35.15c-35.37,76.38-96.91,248.36-17.66,393a69.42,69.42,0,0,0,28.46,28C1996.45,1112.07,2056.64,943.89,2091.52,868.6Z"/></g><path class="cls-4" d="M2105.66,1284c-1.49,0-2.94,0-4.36,0a93.72,93.72,0,0,1-80.69-48.73c-85.78-156.55-16.75-342.48,16.92-415.15A87,87,0,0,1,2130.77,771c74.22,12.49,245.14,63.31,229.34,264.91C2342.68,1258.25,2179.8,1284,2105.66,1284Zm10.69-465a37.68,37.68,0,0,0-34.15,21.74h0c-30.52,65.89-93.41,233.93-18.41,370.79a44.4,44.4,0,0,0,38.19,23.17c1.3,0,2.63,0,4,0,72.52,0,191.33-27.3,205.07-202.69,11.56-147.49-96.08-197-188.42-212.52A37.83,37.83,0,0,0,2116.35,819Zm-56.48,11.39h0Z"/><ellipse class="cls-6" cx="2259.6" cy="1048.49" rx="148.31" ry="63.57" transform="translate(939.41 3160.89) rotate(-82.89)"/><path class="cls-4" d="M2244.77,1198.38a30.93,30.93,0,0,1-3.84-.24c-36.76-4.59-57.36-73.91-46.89-157.83s47.51-146,84.24-141.47c17.9,2.24,32.58,20.16,41.32,50.46,8.54,29.6,10.51,67.73,5.57,107.37C2315.06,1137.67,2280.24,1198.38,2244.77,1198.38Zm29.66-294.78c-32.43,0-65.79,60.11-75.43,137.33-9.95,79.78,9.13,148.08,42.55,152.25s68.7-57.34,78.66-137.12c4.86-39,2.94-76.41-5.42-105.37-8.15-28.27-21.34-44.91-37.13-46.88A24.91,24.91,0,0,0,2274.43,903.6Z"/><g class="cls-3"><path class="cls-4" d="M2284.77,876.82c0,7.38-.2,14.93-.82,22.82C2268,1102.9,2121.38,1126,2050,1125a68.65,68.65,0,0,1-45.49-18.16c4.11,40.84,15.18,82.11,36.7,121.37a69,69,0,0,0,59.43,36c71.36,1,218-22.11,233.93-225.36C2340.43,964.34,2318.2,912.71,2284.77,876.82Z"/></g><path class="cls-4" d="M2245.15,1218.4a54.22,54.22,0,0,1-6.69-.41c-56.08-7-74.78-95.93-64.27-180.16S2224.76,872.14,2280.75,879c15.26,1.9,43.09,12.84,58.06,64.76,9.28,32.14,11.48,73.12,6.2,115.39C2334.93,1140,2297.7,1218.4,2245.15,1218.4Zm29.32-294.79c-12.74,0-45.54,39-55.62,119.8-10.28,82.36,13,128.4,25.18,129.93,12.22,1.29,46.06-37.4,56.33-119.76,4.47-35.83,2.73-71.31-4.78-97.35-6.18-21.4-14.9-31.89-20.4-32.58A5.53,5.53,0,0,0,2274.47,923.61Z"/><path class="cls-4" d="M1040.63,1009.17,1293,1061.12s-15.18,165.19-168,128.91C989.16,1157.8,1040.63,1009.17,1040.63,1009.17Z"/><ellipse class="cls-10" cx="1144" cy="1149.45" rx="41.73" ry="73.8" transform="translate(-192.42 2068.13) rotate(-79.64)"/><path class="cls-4" d="M1166.59,1219.89a205.37,205.37,0,0,1-47.35-5.91c-44.32-10.52-76.26-33.09-94.93-67.09-34.82-63.39-8.09-142.44-6.94-145.77a24.66,24.66,0,0,1,28.23-16.06l252.33,52a24.62,24.62,0,0,1,19.55,26.37c-.33,3.56-8.72,87.76-69.41,131.37C1224.77,1211.49,1197.49,1219.89,1166.59,1219.89Zm-107.78-181.84c-4.06,22-6.78,57.21,8.75,85.33,11.87,21.48,32.5,35.44,63.06,42.7,36.39,8.64,66.25,4.83,88.72-11.31,26.71-19.2,39.29-52.55,44.93-74.42Z"/><path class="cls-4" d="M1741.4,1306.23a233.77,233.77,0,0,1-39.81-3.27c-158.21-27.31-373.09-65.86-375.24-66.24a20,20,0,0,1,7.07-39.38c2.15.39,216.9,38.91,375,66.21,149.45,25.79,367.82-139.53,370-141.2a20,20,0,0,1,24.31,31.77C2094,1160.82,1901.94,1306.23,1741.4,1306.23Z"/><path class="cls-4" d="M1461.12,1289.91l-131.84-24.1a32.44,32.44,0,0,1-26.08-37.74l6.15-33.65a32.43,32.43,0,0,1,37.75-26.08l131.83,24.09a32.44,32.44,0,0,1,26.08,37.75l-6.15,33.65A32.44,32.44,0,0,1,1461.12,1289.91Z"/><path class="cls-4" d="M1205,1947.13a266.14,266.14,0,0,1-30.74-1.87c-.56-.07-1.11-.17-1.66-.28L938.8,1894.42l-.61-.15C830.12,1866.88,814.9,1819,802.66,1780.53c-3.65-11.47-6.8-21.38-12.15-29.69-13.9-21.6-44.24-35.46-82.65-53-17.54-8-37.42-17.1-58-28a17.5,17.5,0,0,1,16.42-30.91c19.68,10.46,38.22,18.93,56.15,27.12,41.9,19.15,78.09,35.68,97.54,65.91,7.86,12.22,12,25.34,16.07,38,11.07,34.83,21.54,67.74,110.48,90.35l232.67,50.32c81.71,9.33,112.73-24.2,142.73-56.63,13.52-14.61,26.29-28.42,43-37.68,52.75-29.32,124.55-32.6,194-35.77,30.47-1.39,59.26-2.71,85.75-6.12a17.5,17.5,0,0,1,4.47,34.71c-27.92,3.6-58.78,5-88.63,6.38-65.39,3-133,6.07-178.58,31.39-11.78,6.54-22.2,17.81-34.27,30.86C1320,1907.52,1283.4,1947.13,1205,1947.13Z"/></svg>