<svg xmlns="http://www.w3.org/2000/svg" width="38.817" height="39.326" viewBox="0 0 38.817 39.326">
  <g id="advertising" transform="translate(-6.384 13.576) rotate(-30)">
    <path id="Path_1335" data-name="Path 1335" d="M16.936,17h-5.1A2.834,2.834,0,0,0,9,19.834v6.8a2.834,2.834,0,0,0,2.834,2.834h5.1A.567.567,0,0,0,17.5,28.9V17.567A.567.567,0,0,0,16.936,17Zm-5.1,11.337a1.7,1.7,0,0,1-1.7-1.7v-6.8a1.7,1.7,0,0,1,1.7-1.7h4.535v10.2Z" transform="translate(-2.166 -6.065)"/>
    <path id="Path_1336" data-name="Path 1336" d="M12.7,19A1.7,1.7,0,0,0,11,20.7v6.8a1.7,1.7,0,0,0,1.7,1.7h4.535V19Zm2.834,5.669H13.267a.567.567,0,0,1,0-1.134h2.267a.567.567,0,0,1,0,1.134Zm0-2.834H13.267a.567.567,0,0,1,0-1.134h2.267a.567.567,0,0,1,0,1.134Z" transform="translate(-3.032 -6.932)" fill="#d75858" opacity="0.977"/>
    <path id="Path_1337" data-name="Path 1337" d="M15.337,24.444Zm0,0Zm0,0ZM28.608,8.062A.567.567,0,0,0,28,8.152l-.193.159a19.727,19.727,0,0,1-4.954,3.1,19.92,19.92,0,0,1-8.083,1.7.567.567,0,0,0-.567.567V25.011a.771.771,0,0,0,0,.113v.028a.567.567,0,0,0,.567.425h.686a4.562,4.562,0,0,1,.788.045l.714.068h.079l.488.062q.323.04.646.1a20.044,20.044,0,0,1,9.637,4.5l.193.164a.567.567,0,0,0,.941-.408V8.572a.567.567,0,0,0-.334-.51Zm-.8,20.849a21.138,21.138,0,0,0-10.124-4.263c-.2,0-.408-.057-.612-.074l-.408-.04-.476-.04h-.85V14.241a21.11,21.11,0,0,0,7.97-1.78,21.445,21.445,0,0,0,4.5-2.681ZM15.337,24.444Zm0,0Zm0,0Zm19.3-8.18L32.372,15.4,32,15.267a.567.567,0,0,0-.765.533v7.086a.571.571,0,0,0,.765.533l.34-.108,2.3-.867a1.7,1.7,0,0,0,1.1-1.621V17.863A1.7,1.7,0,0,0,34.639,16.264Zm0,4.535a.567.567,0,0,1-.368.533l-1.927.737V16.616l1.893.709a.567.567,0,0,1,.374.539ZM7.4,15.941H5.7a1.7,1.7,0,0,0-1.7,1.7v3.4a1.7,1.7,0,0,0,1.7,1.7H7.4a.567.567,0,0,0,.567-.567V16.508A.567.567,0,0,0,7.4,15.941ZM6.834,21.61H5.7a.567.567,0,0,1-.567-.567v-3.4a.567.567,0,0,1,.567-.567H6.834Z" transform="translate(0 -2.172)"/>
    <path id="Path_1338" data-name="Path 1338" d="M21.271,46.109,20.4,41.45l-.618-3.316-.119-.612v-.062A.567.567,0,0,0,19.094,37H14.559a.567.567,0,0,0-.567.675l.085.459L16.26,49.579a.567.567,0,0,0,.567.459h6.235a.567.567,0,0,0,.567-.567V48.9a2.834,2.834,0,0,0-2.359-2.795ZM17.3,48.9l-2.058-10.77h3.4l.567,2.942,1.06,5.669a.567.567,0,0,0,.522.459,1.7,1.7,0,0,1,1.7,1.7Z" transform="translate(-4.323 -14.728)"/>
    <path id="Path_1339" data-name="Path 1339" d="M23.46,49.77h-5.2L16.21,39h3.4l.567,2.942,1.06,5.669a.567.567,0,0,0,.522.459A1.7,1.7,0,0,1,23.46,49.77Z" transform="translate(-5.289 -15.594)" fill="#d75858" opacity="0.5"/>
    <path id="Path_1340" data-name="Path 1340" d="M25.479,37.243c-.2,0-.408-.057-.612-.074l-.408-.04-.476-.04H22.565a.57.57,0,0,0-.567.516.771.771,0,0,0,0,.113v.028l.079.431.567,2.942a.567.567,0,0,0,.567.459,2.534,2.534,0,0,0,.663-.085,2.749,2.749,0,0,0,2.092-2.681V37.8a.567.567,0,0,0-.487-.561Zm-.646,1.57a1.627,1.627,0,0,1-1.168,1.559l-.414-2.2a4.562,4.562,0,0,1,.788.045c.261.045.482.04.714.068h.079Z" transform="translate(-7.795 -14.767)"/>
    <path id="Path_1341" data-name="Path 1341" d="M25.792,39.13v.51A1.627,1.627,0,0,1,24.624,41.2L24.21,39a4.562,4.562,0,0,1,.788.045l.714.068Z" transform="translate(-8.754 -15.594)" opacity="0.5"/>
    <path id="Path_1342" data-name="Path 1342" d="M49.872,3.662A2.267,2.267,0,0,0,46,5.266V29.074a2.267,2.267,0,1,0,4.535,0V5.266a2.267,2.267,0,0,0-.663-1.6ZM49.4,29.074a1.134,1.134,0,1,1-2.267,0V5.266a1.134,1.134,0,0,1,2.267,0Z" transform="translate(-18.192 0)"/>
    <path id="Path_1343" data-name="Path 1343" d="M50.267,6.134V29.942a1.134,1.134,0,1,1-2.267,0V6.134a1.134,1.134,0,0,1,2.267,0Z" transform="translate(-19.058 -0.868)" fill="#d75858" opacity="0.908"/>
  </g>
</svg>
