<svg id="day-sunny" xmlns="http://www.w3.org/2000/svg" width="51.743" height="51.743" viewBox="0 0 51.743 51.743">
  <path id="Path_913" data-name="Path 913" d="M12.627,5.565A1.658,1.658,0,0,1,15.5,3.9l2.13,3.687a1.658,1.658,0,0,1-2.87,1.662l-2.13-3.687Zm13.244,5.468a14.84,14.84,0,1,1-10.493,4.346,14.79,14.79,0,0,1,10.493-4.346Zm8.251,6.589a11.67,11.67,0,1,0,3.417,8.251,11.632,11.632,0,0,0-3.417-8.251ZM24.552,1.662a1.662,1.662,0,0,1,3.324,0V5.92a1.662,1.662,0,1,1-3.324,0V1.662ZM36.839,4.252A1.655,1.655,0,0,1,39.709,5.9l-2.13,3.687a1.655,1.655,0,1,1-2.87-1.649l2.13-3.687Zm9.34,8.376a1.658,1.658,0,0,1,1.662,2.87l-3.687,2.13a1.658,1.658,0,0,1-1.662-2.87l3.687-2.13Zm3.9,11.925a1.662,1.662,0,1,1,0,3.324H45.823a1.662,1.662,0,1,1,0-3.324h4.258ZM47.492,36.839a1.655,1.655,0,0,1-1.649,2.87l-3.687-2.13a1.655,1.655,0,1,1,1.649-2.87l3.687,2.13Zm-8.376,9.34a1.658,1.658,0,0,1-2.87,1.662l-2.13-3.687a1.658,1.658,0,0,1,2.87-1.662l2.13,3.687Zm-11.925,3.9a1.662,1.662,0,1,1-3.324,0V45.823a1.662,1.662,0,1,1,3.324,0v4.258ZM14.9,47.492a1.655,1.655,0,0,1-2.87-1.649l2.13-3.687a1.655,1.655,0,0,1,2.87,1.649L14.9,47.492Zm-9.34-8.376A1.658,1.658,0,0,1,3.9,36.246l3.687-2.13a1.658,1.658,0,0,1,1.662,2.87l-3.687,2.13Zm-3.9-11.925a1.662,1.662,0,1,1,0-3.324H5.92a1.662,1.662,0,1,1,0,3.324ZM4.252,14.9A1.655,1.655,0,1,1,5.9,12.035l3.687,2.13a1.655,1.655,0,1,1-1.649,2.87L4.252,14.9Z" fill="#ff7657"/>
</svg>
