<svg width="32" height="32" viewBox="0 0 32 32" fill="none" xmlns="http://www.w3.org/2000/svg">
<rect width="32" height="32" rx="16" fill="#F7F8FF"/>
<g clip-path="url(#clip0_2997_2249)">
<path fill-rule="evenodd" clip-rule="evenodd" d="M22.3084 15.8613C22.3 15.7391 22.4098 14.7511 22.441 14.5379C22.4462 14.5087 22.4631 14.4677 22.4326 14.4495C22.4046 14.4333 22.3747 14.4658 22.3481 14.4801C22.2844 14.5132 22.2506 14.5698 22.2278 14.6361C22.1622 14.8363 21.7709 15.9413 21.7442 15.9556C21.741 16.0349 21.6662 16.0277 21.6162 16.0518C21.4745 16.0524 21.4264 16.1298 21.3984 16.265C21.2197 17.1379 21.0305 18.0096 20.844 18.8812C20.8375 18.9118 20.8271 18.941 20.8167 18.9787C20.725 18.9053 20.6334 18.8435 20.5196 18.8286C20.2785 18.7961 20.0614 18.9144 19.9717 19.1406C19.9444 19.2101 19.9164 19.2205 19.8501 19.2069C19.5641 19.1445 19.4166 18.9196 19.479 18.6284C19.5992 18.0642 19.7195 17.5006 19.8417 16.9358C19.9041 16.6498 20.1231 16.5107 20.4098 16.5711C20.5963 16.6114 20.7829 16.6556 20.9701 16.6907C21.1079 16.7167 21.0851 16.7401 21.117 16.5893C21.1508 16.4301 21.182 16.2695 21.2236 16.1116C21.2418 16.0368 21.2255 15.99 21.1586 15.9569C21.0715 15.9114 21.0481 15.8308 21.0377 15.7417C21.0377 15.7274 21.0396 15.7157 21.0429 15.7047C21.0396 15.6774 21.3835 14.5321 21.4478 14.3078C21.5193 14.0634 21.661 13.8879 21.8885 13.7729C22.194 13.6195 22.495 13.455 22.7966 13.2958C22.9162 13.2321 23.0397 13.1749 23.1755 13.158C23.5811 13.1086 23.9243 13.4375 23.8918 13.8548C23.8756 14.0725 23.8379 14.289 23.8073 14.5061L23.6071 15.912C23.5883 16.0472 23.637 16.1525 23.7384 16.2396C23.9315 16.406 24.1206 16.5776 24.3182 16.7388C24.523 16.9065 24.6185 17.1171 24.6341 17.3804C24.6686 17.9524 24.7167 18.5244 24.7589 19.0964C24.7752 19.3258 24.6556 19.5169 24.4482 19.5956C24.2532 19.6716 24.0322 19.6118 23.899 19.448C23.8366 19.372 23.8002 19.2855 23.7924 19.1867C23.7605 18.7818 23.73 18.3762 23.7001 17.9719C23.689 17.8367 23.6767 17.7015 23.6734 17.5656C23.6715 17.4909 23.6435 17.4415 23.5876 17.394C23.2925 17.1451 23.0026 16.889 22.7062 16.6413C22.521 16.4873 22.3747 16.3111 22.3104 16.0745C22.3104 16.0745 22.3117 15.914 22.3084 15.86M23.5922 12.9285C24.0212 12.9285 24.367 12.584 24.3676 12.1557C24.3689 11.7208 24.0231 11.3731 23.5902 11.375C23.1599 11.3757 22.8141 11.7195 22.8135 12.1466C22.8115 12.5808 23.1573 12.9285 23.5922 12.9285Z" fill="#2639AB"/>
<path fill-rule="evenodd" clip-rule="evenodd" d="M20.4344 19.0347C20.2726 19.0373 20.1387 19.1719 20.1387 19.3318C20.138 19.4969 20.2778 19.6327 20.4461 19.6308C20.6093 19.6295 20.7373 19.4988 20.7373 19.3331C20.7373 19.1621 20.6041 19.0315 20.4344 19.0347ZM23.934 15.0437C23.9808 14.7603 24.0055 14.5491 24.0523 14.2891L24.1063 14.3203L25.1463 14.9995C25.2672 15.0795 25.3933 15.1542 25.5064 15.242C25.6533 15.3564 25.6299 15.5904 25.4674 15.7327C25.327 15.8562 25.1489 15.8796 25.0091 15.7886C24.6367 15.5481 24.3448 15.4162 23.973 15.1744C23.9061 15.1308 23.9197 15.1347 23.934 15.0437ZM23.011 17.1783C22.7816 16.9755 22.5359 16.7896 22.3149 16.5563L22.283 16.6434L21.7097 18.4263C21.6428 18.6356 21.568 18.8423 21.516 19.0529C21.4491 19.3272 21.6519 19.597 21.932 19.6269C22.1725 19.6529 22.3766 19.5229 22.454 19.283C22.6613 18.648 22.8654 18.0116 23.0708 17.3759C23.1079 17.2622 23.1059 17.2628 23.011 17.1783Z" fill="#2639AB"/>
<path fill-rule="evenodd" clip-rule="evenodd" d="M16.0531 20.4255H8.9811C7.85205 20.4255 6.9375 19.5109 6.9375 18.3812V10.0911C6.9375 9.63613 7.308 9.26562 7.763 9.26562H17.2725C17.7275 9.26562 18.098 9.63613 18.098 10.0911V18.3812C18.098 19.5109 17.1815 20.4255 16.0531 20.4255Z" stroke="#2639AB" stroke-width="1.2" stroke-linecap="round"/>
<path d="M14.2634 7.75H10.572" stroke="#2639AB" stroke-width="1.2" stroke-linecap="round"/>
<path d="M8.12109 20.4219V22.5021M16.7206 20.4219V22.5021M9.57969 22.0904H15.2607" stroke="#2639AB" stroke-width="1.2" stroke-linecap="round"/>
<path d="M12.2148 7.75L12.9532 8.55535V9.2645" stroke="#2639AB" stroke-width="1.2" stroke-linecap="round" stroke-linejoin="round"/>
<path fill-rule="evenodd" clip-rule="evenodd" d="M15.9641 15.0977H9.06041C8.78741 15.0977 8.56641 14.876 8.56641 14.6024V11.55C8.56641 11.277 8.78741 11.0547 9.06041 11.0547H15.9634C16.2377 11.0547 16.4594 11.277 16.4594 11.55V14.6024C16.4594 14.8754 16.2384 15.0977 15.9641 15.0977Z" stroke="#2639AB" stroke-width="1.2" stroke-linecap="round"/>
</g>
<defs>
<clipPath id="clip0_2997_2249">
<rect width="20.8" height="20.8" fill="white" transform="translate(5.59961 5.60156)"/>
</clipPath>
</defs>
</svg>
