<svg width="71" height="42" viewBox="0 0 71 42" fill="none" xmlns="http://www.w3.org/2000/svg">
<rect y="3" width="36" height="36" rx="18" fill="white"/>
<g clip-path="url(#clip0_2871_2119)">
<path fill-rule="evenodd" clip-rule="evenodd" d="M14.6241 26.8665C10.551 25.7885 9.93462 23.3319 12.2284 20.7329L10.9399 18.7999C7.04358 22.8112 9.39897 26.7045 14.6087 26.8665H14.6241ZM25.9975 19.3286C27.0981 23.3949 25.2637 25.1542 21.8803 24.4619L20.853 26.5417C26.258 27.9093 28.46 23.9347 25.9894 19.3264L25.9975 19.3286ZM13.7473 13.2632C16.719 10.2785 19.1595 10.9752 20.2646 14.2532L22.5906 14.1065C21.0607 8.73119 16.507 8.82652 13.7583 13.2632H13.7473Z" fill="#08087C"/>
<path d="M14.6241 26.8665C10.551 25.7885 9.93462 23.3319 12.2284 20.7329L10.9399 18.7999C7.04358 22.8112 9.39897 26.7045 14.6087 26.8665H14.6241ZM25.9975 19.3286C27.0981 23.3949 25.2637 25.1542 21.8803 24.4619L20.853 26.5417C26.258 27.9093 28.46 23.9347 25.9894 19.3264L25.9975 19.3286ZM13.7473 13.2632C16.719 10.2785 19.1595 10.9752 20.2646 14.2532L22.5906 14.1065C21.0607 8.73119 16.507 8.82652 13.7583 13.2632H13.7473Z" fill="#08087C"/>
<path fill-rule="evenodd" clip-rule="evenodd" d="M19.6144 28.2648L19.3136 28.0668C17.3417 26.785 15.5644 25.2267 14.0363 23.4395C12.3827 21.5284 11.0574 19.3567 10.1143 17.0125L10.0703 16.9069L10.2684 16.8079C12.3412 15.7409 14.5551 14.9732 16.8437 14.528C19.4268 14.0122 22.0796 13.9452 24.6855 14.33L24.6634 14.6967C24.5408 16.9857 24.0987 19.2465 23.35 21.4133C22.5051 23.897 21.2393 26.2171 19.6078 28.2721L19.6144 28.2648ZM20.8325 26.5422L20.5463 26.4285C18.6881 25.7146 16.9421 24.7378 15.3615 23.5282C13.6589 22.2317 12.182 20.6633 10.9905 18.8862L10.9362 18.807L11.0829 18.6889C12.6131 17.4404 14.3131 16.4157 16.1319 15.6456C18.1801 14.7673 20.3645 14.2488 22.5891 14.1129C22.6074 14.2156 22.6228 14.3146 22.6375 14.4173C22.9363 16.3331 22.9669 18.2812 22.7285 20.2055C22.4626 22.4099 21.8211 24.5526 20.8317 26.5407L20.8325 26.5422Z" fill="#D0C8D5"/>
<path fill-rule="evenodd" clip-rule="evenodd" d="M15.6186 16.7742H17.9299C18.182 16.8171 18.4205 16.9183 18.6264 17.0699C18.8323 17.2214 18.9999 17.419 19.1157 17.6468C19.2029 17.8526 19.2368 18.0771 19.214 18.2995C19.1884 18.5307 19.1096 18.7529 18.9836 18.9485C18.8211 19.1872 18.6021 19.3821 18.3461 19.5158C18.0901 19.6494 17.8049 19.7178 17.5161 19.7148C17.1088 19.6415 16.9034 20.0815 17.2483 20.4078L19.5662 22.5558H15.6186C15.5902 22.5564 15.5619 22.5513 15.5355 22.541C15.5091 22.5306 15.4849 22.5152 15.4645 22.4955C15.444 22.4758 15.4277 22.4523 15.4163 22.4262C15.405 22.4002 15.3989 22.3722 15.3984 22.3438V16.9905C15.3994 16.9328 15.423 16.8778 15.4642 16.8373C15.5054 16.7968 15.5608 16.7742 15.6186 16.7742ZM19.4928 16.7742H21.1027C21.1591 16.7751 21.213 16.7976 21.2533 16.837C21.2935 16.8764 21.3171 16.9298 21.3192 16.9861V22.3438C21.3171 22.4001 21.2935 22.4535 21.2533 22.493C21.213 22.5324 21.1591 22.5549 21.1027 22.5558H20.7358L18.3768 20.3558C18.9001 20.1864 19.3503 19.8443 19.6535 19.3856C19.8531 19.0841 19.9788 18.7399 20.0204 18.3809C20.059 18.0217 20.0036 17.6586 19.8597 17.3271C19.7671 17.1245 19.6433 16.9377 19.4928 16.7734V16.7742Z" fill="#08087C"/>
<path d="M15.6186 16.7742H17.9299C18.182 16.8171 18.4205 16.9183 18.6264 17.0699C18.8323 17.2214 18.9999 17.419 19.1157 17.6468C19.2029 17.8526 19.2368 18.0771 19.214 18.2995C19.1884 18.5307 19.1096 18.7529 18.9836 18.9485C18.8211 19.1872 18.6021 19.3821 18.3461 19.5158C18.0901 19.6494 17.8049 19.7178 17.5161 19.7148C17.1088 19.6415 16.9034 20.0815 17.2483 20.4078L19.5662 22.5558H15.6186C15.5902 22.5564 15.5619 22.5513 15.5355 22.541C15.5091 22.5306 15.4849 22.5152 15.4645 22.4955C15.444 22.4758 15.4277 22.4523 15.4163 22.4262C15.405 22.4002 15.3989 22.3722 15.3984 22.3438V16.9905C15.3994 16.9328 15.423 16.8778 15.4642 16.8373C15.5054 16.7968 15.5608 16.7742 15.6186 16.7742ZM19.4928 16.7742H21.1027C21.1591 16.7751 21.213 16.7976 21.2533 16.837C21.2935 16.8764 21.3171 16.9298 21.3192 16.9861V22.3438C21.3171 22.4001 21.2935 22.4535 21.2533 22.493C21.213 22.5324 21.1591 22.5549 21.1027 22.5558H20.7358L18.3768 20.3558C18.9001 20.1864 19.3503 19.8443 19.6535 19.3856C19.8531 19.0841 19.9788 18.7399 20.0204 18.3809C20.059 18.0217 20.0036 17.6586 19.8597 17.3271C19.7671 17.1245 19.6433 16.9377 19.4928 16.7734V16.7742Z" fill="#08087C"/>
<path fill-rule="evenodd" clip-rule="evenodd" d="M10.8281 31.9105V28.6875H11.8855V31.9105H10.8281Z" fill="#08087C"/>
<path fill-rule="evenodd" clip-rule="evenodd" d="M13.5409 30.0695H14.0142C14.1319 30.0798 14.2501 30.0569 14.3554 30.0035C14.3883 29.9754 14.4139 29.9396 14.4299 29.8994C14.4459 29.8591 14.4518 29.8156 14.4471 29.7725C14.4525 29.7286 14.4472 29.684 14.4318 29.6425C14.4163 29.6011 14.3912 29.5639 14.3583 29.5342C14.2443 29.4792 14.1175 29.4564 13.9915 29.4682H13.5439L13.5409 30.0695ZM12.5195 31.9028V28.6996H14.0604C14.4194 28.6699 14.7793 28.7464 15.095 28.9196C15.2033 29.0019 15.2888 29.1103 15.3434 29.2348C15.398 29.3593 15.4198 29.4957 15.4069 29.631C15.413 29.8026 15.3684 29.9723 15.2785 30.1186C15.1827 30.2595 15.0455 30.3671 14.8859 30.4266C15.0408 30.4503 15.181 30.5315 15.2785 30.654C15.3716 30.7991 15.418 30.9693 15.4113 31.1416V31.5919C15.4113 31.7202 15.448 31.7862 15.503 31.7943V31.9146H14.4611C14.4538 31.8448 14.439 31.7759 14.417 31.7092C14.4126 31.6651 14.4126 31.6206 14.417 31.5765V31.2663C14.4331 31.1359 14.3975 31.0043 14.318 30.8996C14.2221 30.822 14.0996 30.7852 13.9768 30.797H13.5365V31.897L12.5195 31.9028Z" fill="#08087C"/>
<path fill-rule="evenodd" clip-rule="evenodd" d="M18.0304 30.659H19.0136C19.0071 30.8438 18.9631 31.0255 18.8842 31.1929C18.8054 31.3603 18.6934 31.51 18.555 31.6328C18.2467 31.8879 17.8542 32.0187 17.4544 31.9995C17.2303 32.0117 17.0061 31.9777 16.7957 31.8995C16.5854 31.8212 16.3935 31.7005 16.2319 31.5448C16.0784 31.3779 15.96 31.1819 15.8837 30.9683C15.8075 30.7548 15.7749 30.5282 15.788 30.3018C15.7789 30.0761 15.8144 29.8508 15.8924 29.6387C15.9705 29.4267 16.0896 29.2322 16.2429 29.0662C16.4011 28.9084 16.5907 28.7858 16.7994 28.7062C17.0081 28.6266 17.2313 28.5918 17.4544 28.6042C17.8497 28.5821 18.24 28.7017 18.555 28.9415C18.6912 29.0634 18.8011 29.2118 18.8781 29.3776C18.955 29.5434 18.9974 29.7231 19.0026 29.9058H18.012C18.0124 29.8403 17.9999 29.7754 17.9752 29.7148C17.9504 29.6541 17.914 29.5989 17.868 29.5523C17.8219 29.5058 17.7671 29.4687 17.7067 29.4433C17.6463 29.4179 17.5815 29.4046 17.516 29.4042C17.4955 29.4028 17.4749 29.4028 17.4544 29.4042C17.365 29.3983 17.2757 29.4159 17.1953 29.4551C17.1149 29.4943 17.0461 29.5539 16.9958 29.6279C16.8816 29.8322 16.8306 30.0656 16.849 30.2989C16.8318 30.5304 16.8883 30.7614 17.0104 30.9589C17.0637 31.0336 17.1351 31.0936 17.2178 31.1333C17.3006 31.1731 17.392 31.1913 17.4837 31.1862C17.6195 31.1894 17.7512 31.1394 17.8506 31.0469C17.9519 30.9408 18.0104 30.8011 18.015 30.6546L18.0304 30.659Z" fill="#08087C"/>
<path fill-rule="evenodd" clip-rule="evenodd" d="M20.1238 31.91V29.534H19.1992V28.6855H22.0763V29.534H21.1664V31.91H20.1238Z" fill="#08087C"/>
<path fill-rule="evenodd" clip-rule="evenodd" d="M24.5187 30.6605H25.4983C25.4937 30.8443 25.4516 31.0251 25.3746 31.1921C25.2976 31.359 25.1874 31.5085 25.0507 31.6315C24.7093 31.8768 24.2952 32.0002 23.8752 31.9817C23.4551 31.9632 23.0535 31.8039 22.735 31.5295C22.4491 31.1783 22.293 30.7393 22.293 30.2865C22.293 29.8338 22.4491 29.3948 22.735 29.0435C22.8925 28.8887 23.0807 28.7683 23.2873 28.69C23.494 28.6117 23.7147 28.5773 23.9354 28.5889C24.3309 28.5652 24.7218 28.685 25.036 28.9262C25.1734 29.0475 25.2843 29.1956 25.3619 29.3615C25.4396 29.5274 25.4822 29.7075 25.4873 29.8905H24.4931C24.4888 29.7526 24.4321 29.6215 24.3346 29.5239C24.2263 29.4327 24.087 29.3867 23.9457 29.3955C23.8573 29.3899 23.769 29.4072 23.6893 29.4458C23.6095 29.4843 23.5412 29.5428 23.4907 29.6155C23.3741 29.819 23.3204 30.0526 23.3366 30.2865C23.3226 30.5178 23.3789 30.7478 23.4981 30.9465C23.5525 31.0211 23.6247 31.0809 23.7081 31.1206C23.7915 31.1603 23.8835 31.1786 23.9758 31.1739C24.1114 31.1761 24.2427 31.1262 24.3426 31.0345C24.4439 30.9284 24.5026 30.7888 24.5077 30.6422L24.5187 30.6605Z" fill="#08087C"/>
</g>
<path d="M70 21C70 32.0457 61.0457 41 50 41C38.9543 41 30 32.0457 30 21C30 9.95431 38.9543 1 50 1C61.0457 1 70 9.95431 70 21ZM37.3541 21C37.3541 27.9841 43.0159 33.6459 50 33.6459C56.9841 33.6459 62.6459 27.9841 62.6459 21C62.6459 14.0159 56.9841 8.35414 50 8.35414C43.0159 8.35414 37.3541 14.0159 37.3541 21Z" fill="#273AAB" stroke="#273AAB"/>
<path d="M32 21C32 11.0589 40.0589 3 50 3V3C59.9411 3 68 11.0589 68 21V21C68 30.9411 59.9411 39 50 39V39C40.0589 39 32 30.9411 32 21V21Z" fill="white"/>
<mask id="mask0_2871_2119" style="mask-type:luminance" maskUnits="userSpaceOnUse" x="35" y="6" width="30" height="30">
<path d="M65 6H35V36.0004H65V6Z" fill="white"/>
</mask>
<g mask="url(#mask0_2871_2119)">
<path d="M55.306 21.1377C55.291 21.1683 55.0013 21.8594 54.4943 23.3394L53.5781 26.0279L54.6072 28.8961C54.7705 29.351 54.6972 30.102 54.8589 30.79C55.2387 32.4031 55.7936 34.1394 55.7936 34.1802C55.7936 34.1879 56.8174 33.9693 56.8053 33.5517C56.7336 31.0924 55.4232 21.6188 55.3062 21.0326C55.2951 20.9715 55.3251 21.0918 55.306 21.1377Z" fill="#275AA6"/>
<path d="M44.179 25.8702C44.179 25.8702 42.4843 23.527 44.179 22.0743C44.7933 21.5478 45.2015 21.3529 46.5508 20.9881C47.9001 20.6233 48.9422 20.2285 50.1946 20.2285C51.4469 20.2285 55.5653 20.9881 55.5653 20.9881C55.5653 20.9881 55.9708 22.1221 56.312 23.4872C55.8066 23.9454 55.7829 23.4884 55.5653 24.1342C55.0601 25.6314 51.5812 31.9903 51.5388 32.1116C51.2422 32.9567 46.5333 32.1369 46.5508 32.1116C46.7184 30.548 45.7172 28.7171 45.3671 26.5827C45.5943 26.2415 44.9794 27.3897 45.3671 26.5827" fill="#3D86CF"/>
<path d="M49.6632 22.5188C47.9296 23.6052 45.4922 26.7909 45.469 26.8095C45.4457 26.8238 45.7207 28.953 45.7207 28.9749C45.7207 28.9932 44.8945 34.8845 44.8945 34.8845C44.8945 34.8845 47.5217 36.0014 49.9673 36.0014C52.4128 36.0014 55.5945 34.4474 55.5945 34.4474L54.3745 30.3321C53.8944 29.3117 53.4797 28.4738 53.4561 28.4738C53.4325 28.4738 53.0879 28.5909 52.6918 28.7299C52.4491 28.824 52.2017 28.9058 51.9508 28.9748C51.9415 28.9676 52.7337 27.1934 53.7127 25.0316C54.3058 23.7186 54.7678 22.3503 55.0921 20.9465C55.259 20.8869 55.1064 20.9104 55.0921 20.9465C55.0628 20.9578 55.0362 20.747 54.9619 20.7348C54.7475 20.7019 54.4067 20.6365 53.8708 20.5485L52.7366 20.3359L49.6632 22.5188Z" fill="#275AA6"/>
<path d="M47.9648 18.7285H50.3734V20.8159C50.3734 20.8159 49.7408 21.04 49.1387 21.04C48.7378 21.0301 48.3412 20.9544 47.9648 20.8159V18.7285Z" fill="#F6BC91"/>
<path d="M53.4808 16.6527C53.22 16.6527 53.085 16.6244 53.0292 16.558C52.9693 16.4867 52.9923 16.3555 53.0271 16.157C53.071 15.9341 53.0943 15.7075 53.0965 15.4803C53.0961 15.2648 53.1358 15.051 53.2137 14.85C53.2867 14.6603 53.3946 14.4859 53.5319 14.3359C53.6643 14.1905 53.8244 14.073 54.0028 13.9902C54.1833 13.9067 54.3797 13.8635 54.5786 13.8636C54.6185 13.8614 54.6582 13.8704 54.6933 13.8895C54.7284 13.9086 54.7576 13.9371 54.7774 13.9718C54.8265 14.0681 54.8491 14.1756 54.8428 14.2835C54.8343 14.5237 54.7909 14.7615 54.7141 14.9892C54.629 15.26 54.5182 15.522 54.3831 15.7716C54.2642 16.0007 54.1144 16.2125 53.938 16.401C53.7731 16.5682 53.6193 16.6527 53.4808 16.6527Z" fill="#302E2E"/>
<path d="M54.5752 13.8978C54.3815 13.8977 54.1902 13.9397 54.0144 14.0211C53.8403 14.102 53.684 14.2167 53.5548 14.3587C53.4206 14.5054 53.315 14.6759 53.2436 14.8615C53.1674 15.0583 53.1286 15.2677 53.1292 15.4788C53.1269 15.7081 53.1034 15.9368 53.0589 16.1617C53.027 16.3436 53.0039 16.4747 53.0531 16.5335C53.1 16.5894 53.2348 16.6152 53.4773 16.6152C53.604 16.6152 53.7532 16.5318 53.909 16.3742C54.083 16.1881 54.2307 15.9791 54.3481 15.7529C54.482 15.5053 54.592 15.2454 54.6763 14.9768C54.7521 14.7526 54.7949 14.5185 54.8036 14.282C54.8094 14.1807 54.7886 14.0797 54.7434 13.9889C54.7268 13.9594 54.7022 13.9353 54.6724 13.9192C54.6427 13.903 54.609 13.8956 54.5752 13.8978ZM54.5752 13.8262C55.4134 13.8262 54.3157 16.6871 53.4775 16.6871C52.6392 16.6871 53.0575 16.3915 53.0575 15.4788C53.0575 14.5661 53.737 13.8262 54.5752 13.8262Z" fill="#707070"/>
<path d="M44.8552 16.5746C44.7167 16.5746 44.5626 16.49 44.398 16.3229C44.2216 16.1345 44.0718 15.9228 43.9527 15.6937C43.8177 15.4441 43.7069 15.1821 43.6218 14.9114C43.545 14.6836 43.5017 14.4457 43.4932 14.2054C43.487 14.0976 43.5095 13.99 43.5586 13.8938C43.5784 13.8591 43.6075 13.8306 43.6426 13.8115C43.6777 13.7923 43.7175 13.7833 43.7574 13.7855C43.9563 13.7853 44.1528 13.8285 44.3332 13.9121C44.5117 13.9949 44.6718 14.1124 44.8042 14.2579C44.9416 14.4079 45.0497 14.5821 45.1228 14.7719C45.2006 14.9729 45.2403 15.1867 45.2397 15.4022C45.2419 15.6295 45.2652 15.856 45.3091 16.0789C45.3439 16.2774 45.3669 16.4086 45.307 16.48C45.251 16.5464 45.116 16.5746 44.8552 16.5746Z" fill="#302E2E"/>
<path d="M43.7609 13.8197C43.7272 13.8175 43.6935 13.8249 43.6637 13.841C43.634 13.8571 43.6094 13.8812 43.5927 13.9107C43.5475 14.0015 43.5269 14.1026 43.5326 14.2038C43.5412 14.4405 43.584 14.6746 43.6597 14.899C43.7441 15.1676 43.854 15.4275 43.988 15.6751C44.1053 15.9013 44.2531 16.1104 44.4271 16.2964C44.5826 16.454 44.732 16.5372 44.8586 16.5372C45.1011 16.5372 45.2358 16.5111 45.2828 16.4555C45.332 16.397 45.3089 16.2656 45.277 16.0838C45.2326 15.8588 45.2092 15.6302 45.207 15.4008C45.2075 15.1897 45.1688 14.9804 45.0926 14.7835C45.0212 14.5979 44.9156 14.4274 44.7814 14.2807C44.6522 14.1387 44.4959 14.0238 44.3218 13.943C44.146 13.8616 43.9546 13.8195 43.7609 13.8197ZM43.7609 13.748C44.5992 13.748 45.2787 14.488 45.2787 15.4007C45.2787 16.3134 45.6969 16.609 44.8587 16.609C44.0205 16.609 42.9227 13.748 43.7609 13.748Z" fill="#707070"/>
<path d="M49.2061 20.3129H49.2059C48.6284 20.3153 48.0633 20.1457 47.5824 19.8259L47.5823 19.8259C47.335 19.6632 47.1041 19.4768 46.893 19.2693L46.8929 19.2692C46.661 19.0421 46.4419 18.8023 46.2367 18.5508L46.2365 18.5506C45.7685 17.9932 45.3659 17.384 45.0367 16.735C44.6854 16.0225 44.5078 15.3623 44.5078 14.7726C44.5069 14.1679 44.6325 13.5697 44.8765 13.0164C44.9952 12.7472 45.1401 12.4904 45.3092 12.2497C45.4785 12.0091 45.6705 11.7853 45.8826 11.5814C46.0965 11.376 46.3293 11.1913 46.578 11.0297C46.8303 10.8659 47.0975 10.7264 47.3761 10.6131C48.5501 10.1394 49.8619 10.1394 51.0358 10.613C51.3145 10.7264 51.5818 10.8659 51.8341 11.0297C52.0827 11.1913 52.3156 11.376 52.5294 11.5814C52.7415 11.7853 52.9335 12.0091 53.1029 12.2497C53.272 12.4904 53.4169 12.7472 53.5354 13.0164C53.7794 13.5696 53.9051 14.1678 53.9041 14.7725C53.9004 15.1319 53.8451 15.4889 53.7399 15.8326C53.6279 16.2011 53.4792 16.5575 53.2962 16.8964C52.9118 17.5995 52.437 18.2492 51.8838 18.8289L51.8837 18.8289C51.5373 19.1969 51.1218 19.6102 50.6599 19.8942L50.6599 19.8942C50.4488 20.0261 50.2214 20.1295 49.9833 20.2019C49.7311 20.277 49.4692 20.3144 49.2061 20.3129Z" fill="#F6BC91"/>
<path d="M53.5354 13.0164C53.4169 12.7472 53.272 12.4904 53.1029 12.2497C52.9335 12.0091 52.7415 11.7853 52.5294 11.5814C52.3156 11.376 52.0827 11.1913 51.8341 11.0297C51.5818 10.8659 51.3145 10.7264 51.0358 10.613C49.8619 10.1394 48.5501 10.1394 47.3761 10.6131C47.0975 10.7264 46.8303 10.8659 46.578 11.0297C46.3293 11.1913 46.0965 11.376 45.8826 11.5814C45.6705 11.7853 45.4785 12.0091 45.3092 12.2497C45.1401 12.4904 44.9952 12.7472 44.8765 13.0164C44.6325 13.5697 44.5069 14.1679 44.5078 14.7726C44.5078 15.3623 44.6854 16.0225 45.0367 16.735C45.3659 17.384 45.7685 17.9932 46.2365 18.5506L46.2367 18.5508C46.4419 18.8023 46.661 19.0421 46.8929 19.2692L46.893 19.2693C47.1041 19.4768 47.335 19.6632 47.5823 19.8259L47.5824 19.8259C48.0633 20.1457 48.6284 20.3153 49.2059 20.3129H49.2061C49.4692 20.3144 49.7311 20.277 49.9833 20.2019C50.2214 20.1295 50.4488 20.0261 50.6599 19.8942L50.6599 19.8942C51.1218 19.6102 51.5373 19.1969 51.8837 18.8289L51.8838 18.8289C52.437 18.2492 52.9118 17.5995 53.2962 16.8964C53.4792 16.5575 53.6279 16.2011 53.7399 15.8326C53.8451 15.4889 53.9004 15.1319 53.9041 14.7725C53.9051 14.1678 53.7794 13.5696 53.5354 13.0164ZM53.5354 13.0164L53.551 13.0095" stroke="black" stroke-width="0.0340136"/>
<path d="M52.3333 10.8789C53.5465 10.8789 54.5299 9.91833 54.5299 8.7334C54.5299 7.54847 53.5465 6.58789 52.3333 6.58789C51.1202 6.58789 50.1367 7.54847 50.1367 8.7334C50.1367 9.91833 51.1202 10.8789 52.3333 10.8789Z" fill="#302E2E"/>
<path d="M47.0747 16.0532C46.8748 16.0537 46.6768 16.0151 46.4917 15.9395C46.3148 15.8675 46.1533 15.7622 46.016 15.6294C45.8801 15.4988 45.7713 15.3426 45.6955 15.17C45.6181 14.9926 45.5781 14.8012 45.5781 14.6077C45.5781 14.4142 45.6181 14.2228 45.6955 14.0454C45.7712 13.8728 45.8801 13.7166 46.016 13.5859C46.1534 13.4531 46.3149 13.3479 46.4918 13.2758C46.8656 13.1242 47.2838 13.1242 47.6577 13.2758C47.8347 13.3479 47.9962 13.4531 48.1335 13.5859C48.2693 13.7166 48.3783 13.8727 48.454 14.0454C48.5314 14.2227 48.5714 14.4141 48.5714 14.6077C48.5714 14.8011 48.5314 14.9926 48.454 15.1699C48.3783 15.3426 48.2693 15.4987 48.1335 15.6294C47.9962 15.7622 47.8347 15.8674 47.6577 15.9394C47.4726 16.015 47.2746 16.0537 47.0747 16.0532Z" fill="white"/>
<path d="M47.0716 13.1986C46.8764 13.1982 46.6829 13.2359 46.5022 13.3097C46.3295 13.38 46.1718 13.4827 46.0377 13.6124C45.9052 13.7399 45.799 13.8921 45.7251 14.0605C45.6497 14.2333 45.6107 14.4199 45.6107 14.6084C45.6107 14.797 45.6497 14.9836 45.7251 15.1563C45.799 15.3247 45.9052 15.477 46.0377 15.6044C46.1718 15.734 46.3294 15.8367 46.5021 15.907C46.8673 16.0551 47.2758 16.0551 47.6409 15.907C47.8136 15.8367 47.9713 15.734 48.1053 15.6044C48.2379 15.477 48.3441 15.3247 48.4179 15.1563C48.4934 14.9835 48.5323 14.797 48.5323 14.6084C48.5323 14.4198 48.4934 14.2332 48.4179 14.0604C48.3441 13.8921 48.2379 13.7398 48.1053 13.6123C47.9714 13.4827 47.8138 13.38 47.6411 13.3097C47.4604 13.2359 47.267 13.1982 47.0717 13.1986M47.0717 13.127C47.9179 13.127 48.604 13.7902 48.604 14.6084C48.604 15.4265 47.9179 16.0898 47.0716 16.0898C46.2253 16.0898 45.5391 15.4263 45.5391 14.6084C45.5391 13.7905 46.2252 13.127 47.0716 13.127H47.0717Z" fill="#707070"/>
<path d="M51.2622 16.0532C51.0623 16.0537 50.8643 16.0151 50.6792 15.9395C50.5023 15.8675 50.3409 15.7622 50.2035 15.6294C50.0676 15.4988 49.9588 15.3426 49.883 15.17C49.8056 14.9926 49.7656 14.8012 49.7656 14.6077C49.7656 14.4142 49.8056 14.2228 49.883 14.0454C49.9588 13.8728 50.0676 13.7166 50.2035 13.5859C50.3409 13.4531 50.5024 13.3479 50.6793 13.2758C51.0532 13.1242 51.4714 13.1242 51.8452 13.2758C52.0222 13.3479 52.1837 13.4531 52.321 13.5859C52.4569 13.7166 52.5658 13.8727 52.6415 14.0454C52.719 14.2227 52.7589 14.4141 52.7589 14.6077C52.7589 14.8011 52.719 14.9926 52.6415 15.1699C52.5658 15.3426 52.4569 15.4987 52.321 15.6294C52.1837 15.7622 52.0222 15.8674 51.8452 15.9394C51.6602 16.015 51.4621 16.0537 51.2622 16.0532Z" fill="white"/>
<path d="M51.263 13.1986C51.0677 13.1982 50.8743 13.2359 50.6936 13.3097C50.5208 13.38 50.3631 13.4827 50.2291 13.6124C50.0965 13.7399 49.9903 13.8921 49.9165 14.0605C49.841 14.2333 49.802 14.4199 49.802 14.6084C49.802 14.797 49.841 14.9836 49.9165 15.1563C49.9903 15.3247 50.0965 15.477 50.2291 15.6044C50.3631 15.734 50.5208 15.8367 50.6935 15.907C51.0586 16.0551 51.4671 16.0551 51.8323 15.907C52.005 15.8367 52.1626 15.734 52.2967 15.6044C52.4292 15.477 52.5354 15.3247 52.6093 15.1563C52.6848 14.9835 52.7237 14.797 52.7237 14.6084C52.7237 14.4198 52.6848 14.2332 52.6093 14.0604C52.5354 13.8921 52.4292 13.7398 52.2967 13.6123C52.1627 13.4827 52.0051 13.38 51.8325 13.3097C51.6518 13.2359 51.4583 13.1982 51.2631 13.1986M51.2631 13.127C52.1093 13.127 52.7954 13.7902 52.7954 14.6084C52.7954 15.4265 52.1093 16.0898 51.263 16.0898C50.4167 16.0898 49.7305 15.4263 49.7305 14.6084C49.7305 13.7905 50.4166 13.127 51.263 13.127H51.2631Z" fill="#707070"/>
<path d="M48.5898 14.7228C48.7695 14.6477 48.9609 14.6048 49.1554 14.5957C49.3596 14.6067 49.5607 14.6496 49.7516 14.7228" stroke="#707070" stroke-width="0.0680272"/>
<path d="M46.9922 13.8945C47.2468 13.8945 47.5536 14.1151 47.5536 14.4192C47.5536 14.7232 47.2469 14.9696 46.9922 14.9696C46.7375 14.9696 46.3867 14.7232 46.3867 14.4192C46.3867 14.1151 46.7375 13.8945 46.9922 13.8945Z" fill="white"/>
<path d="M46.9922 14.043C47.2468 14.043 47.5536 14.2635 47.5536 14.5676C47.5536 14.8717 47.2469 15.0482 46.9922 15.0482C46.7375 15.0482 46.3867 14.8713 46.3867 14.5676C46.3867 14.2639 46.7375 14.043 46.9922 14.043Z" fill="#302E2E"/>
<path d="M46.9264 14.8626C46.9829 14.8626 47.0286 14.8168 47.0286 14.7604C47.0286 14.7039 46.9829 14.6582 46.9264 14.6582C46.87 14.6582 46.8242 14.7039 46.8242 14.7604C46.8242 14.8168 46.87 14.8626 46.9264 14.8626Z" fill="#F7F7F7"/>
<path d="M52.3551 11.1105C52.4448 12.1716 52.7641 13.2006 53.2908 14.1262C52.6062 13.2903 52.3234 12.1286 52.3551 11.1105ZM53.4751 9.34055C53.2162 9.17588 52.9216 9.07586 52.616 9.04892C52.9608 8.96933 53.2554 9.11695 53.4751 9.34055ZM52.154 11.2737C52.0519 11.5584 51.901 11.8231 51.7083 12.0561C51.459 12.369 51.1173 12.5947 50.7577 12.798C51.3389 12.4029 51.8187 11.8761 52.1581 11.2606L52.154 11.2737ZM46.5468 8.39831C47.0958 8.08541 47.7006 7.8828 48.3274 7.80191C48.8715 7.74059 49.4221 7.77363 49.9549 7.8996C48.7945 7.72874 47.6095 7.90218 46.5468 8.39844M44.8937 9.92021C44.5545 10.4349 44.309 11.0055 44.1687 11.6057C44.012 12.2731 43.9908 12.965 44.1063 13.6407C44.116 13.6974 44.1278 13.7533 44.1395 13.8094C43.9449 13.0216 43.9309 12.2001 44.0987 11.4061C44.2531 10.6902 44.6277 10.0406 45.1701 9.54845C45.0697 9.6661 44.9774 9.79035 44.8936 9.92035M53.4379 9.64865C53.6309 9.67661 53.9681 10.0099 54.1268 10.1243C54.0476 9.90706 53.9178 9.71181 53.7481 9.55471L53.744 9.53865C53.5147 9.15552 53.0306 8.85076 52.5452 9.0447C52.5124 9.04348 52.4794 9.04171 52.4462 9.04171C52.2223 8.53831 51.7215 8.1375 51.1315 7.98879L51.3926 8.31769C51.3113 8.2811 51.2283 8.24681 51.1449 8.21389L51.1372 8.20457C49.4266 7.28777 47.3114 7.66001 45.8435 8.73872C45.8379 8.74256 45.8333 8.74774 45.8302 8.7538C45.827 8.75986 45.8255 8.7666 45.8257 8.77341C45.8258 8.78025 45.8277 8.78696 45.8311 8.79291C45.8345 8.79885 45.8393 8.80384 45.8451 8.80742C45.7567 8.8696 45.6704 8.93368 45.5872 9.00089C45.7734 8.92076 45.96 8.8403 46.147 8.75953C46.0083 8.82082 45.8793 8.90192 45.7639 9.00029C44.8623 9.50648 44.3081 10.3653 44.0447 11.2718C43.7208 12.3874 44.4381 14.5107 44.4733 14.5867C44.6668 13.9874 45.4264 12.6257 47.5215 11.6058C49.4867 10.7895 50.7027 11.168 51.1313 10.6614C51.0453 10.8152 51.3315 11.1065 51.1313 11.6058C50.8972 12.1896 50.1696 13.0031 50.0602 13.1986C50.1187 13.1714 50.1762 13.1419 50.2333 13.1126C50.2361 13.1186 50.2401 13.1239 50.245 13.1283C50.25 13.1327 50.2557 13.1361 50.2619 13.1382C50.2681 13.1403 50.2747 13.1412 50.2813 13.1407C50.2879 13.1403 50.2943 13.1386 50.3002 13.1356C50.8123 12.8818 51.3017 12.5994 51.6885 12.2058C52.0508 11.837 52.1865 11.4197 52.3008 10.9661C52.3033 10.9599 52.3058 10.9543 52.3083 10.9487C52.2363 11.6098 52.3722 12.2752 52.5592 12.9159C52.7387 13.5304 53.0536 14.1385 53.5728 14.5864C53.65 14.7032 53.7296 14.8197 53.8136 14.9328C53.8392 14.5578 53.8648 14.1828 53.8903 13.8078C53.9523 14.0192 54.0145 14.231 54.0766 14.4433C54.4837 12.9146 54.4585 10.7416 53.4376 9.64825" fill="#302E2E"/>
<path d="M51.2623 14.9075C51.3187 14.9075 51.3645 14.8618 51.3645 14.8053C51.3645 14.7489 51.3187 14.7031 51.2623 14.7031C51.2059 14.7031 51.1602 14.7489 51.1602 14.8053C51.1602 14.8618 51.2059 14.9075 51.2623 14.9075Z" fill="#F7F7F7"/>
<path d="M51.3867 14.043C51.6413 14.043 51.9481 14.2635 51.9481 14.5676C51.9481 14.8717 51.6414 15.0677 51.3867 15.0677C51.132 15.0677 50.7812 14.8715 50.7812 14.5676C50.7812 14.2636 51.132 14.043 51.3867 14.043Z" fill="#302E2E"/>
<path d="M51.2897 14.8137C51.3461 14.8137 51.3919 14.768 51.3919 14.7116C51.3919 14.6551 51.3461 14.6094 51.2897 14.6094C51.2332 14.6094 51.1875 14.6551 51.1875 14.7116C51.1875 14.768 51.2332 14.8137 51.2897 14.8137Z" fill="#F7F7F7"/>
<path d="M50.4297 7.71289C50.4297 7.71289 51.8154 7.86772 52.691 8.56826C53.5667 9.26881 53.9322 10.5147 53.9322 10.5147" stroke="#707070" stroke-width="0.0680272"/>
<path d="M40.1385 30.041C40.1517 29.8328 43.2095 23.5388 43.7805 22.5042C43.8513 22.3761 44.4536 21.7672 44.5643 21.6659C44.6392 21.5973 45.0522 21.5891 45.1127 21.6659C45.7706 22.5003 45.8943 24.523 45.6756 25.5282C45.4307 26.6543 43.0273 29.9506 42.8718 30.0415C41.8892 30.6152 40.0691 30.8634 40.1387 30.0415" fill="#3D86CF"/>
<path d="M59.8163 30.0413C59.803 29.8324 56.2072 22.6798 55.6362 21.6423C55.5647 21.5056 55.4723 21.3808 55.3622 21.2726C55.2874 21.2039 54.7984 21.0366 54.7379 21.1136C54.08 21.9503 54.5192 24.7513 54.7379 25.7594C54.9828 26.8886 57.6122 29.9498 57.7677 30.0412C58.7503 30.6166 59.886 30.8654 59.8163 30.0413Z" fill="#3D86CF"/>
<path d="M57.8013 28.1919C59.3618 28.7989 59.7895 29.7735 59.626 30.1983C59.414 30.7487 58.1315 31.1633 57.7028 30.9955C56.8457 30.6597 50.9241 28.4589 50.9241 28.4589C50.7464 28.4589 50.6102 27.987 50.6359 27.8489C50.6657 27.6446 50.7485 27.4516 50.8757 27.2891C53.0421 27.5816 56.1189 27.9501 57.8015 28.1919" fill="#F1C1A4"/>
<path d="M42.1502 28.1919C40.5897 28.7989 40.162 29.7735 40.3256 30.1983C40.5375 30.7487 41.82 31.1633 42.2487 30.9955C43.1059 30.6597 48.8961 28.4589 48.8961 28.4589C49.0738 28.4589 49.21 27.987 49.1842 27.8489C49.1142 27.4723 49.076 27.2891 49.076 27.2891C46.9097 27.5816 43.8328 27.9501 42.1502 28.1919Z" fill="#F1C1A4"/>
<path d="M49.8136 27.5141C49.8136 27.5141 49.8873 25.3686 49.88 25.2109C49.8727 25.0532 49.5754 25.1793 49.5484 25.479C49.5214 25.7788 49.5923 27.3409 49.8137 27.5141" fill="#C87652"/>
<path d="M49.6605 27.1013C49.6605 27.1013 49.7903 24.7229 49.8894 24.219C50.0014 23.6492 49.571 23.3598 49.5277 23.8189C49.4843 24.2781 49.1475 26.9117 49.1407 27.0318C49.1339 27.1519 49.5141 27.4854 49.6606 27.1012" fill="#C87652"/>
<path d="M49.4865 27.2279C49.4865 27.2279 49.5172 24.6462 49.6687 24.1341C49.7652 23.8082 49.5327 23.3901 49.3865 23.8626C49.3089 24.1143 48.9814 25.8009 48.7879 26.7043C48.6374 27.4056 49.1004 28.1985 49.096 28.269C49.096 28.269 49.3592 27.6295 49.4865 27.2282" fill="#E29D72"/>
<path d="M49.3963 28.7366C48.95 28.8834 48.7488 28.7118 48.7461 28.16C48.7434 27.6083 49.5057 24.714 49.5094 24.3505C49.5132 23.987 49.7979 24.3434 49.7808 24.6616C49.7637 24.9798 49.644 26.23 49.7264 26.6579C49.8088 27.0857 49.8858 28.5755 49.3962 28.7365" fill="#F1C1A4"/>
<path d="M49.9263 27.5141C49.9263 27.5141 49.8527 25.3686 49.8599 25.2109C49.8671 25.0532 50.1644 25.1793 50.1914 25.479C50.2184 25.7788 50.1476 27.3409 49.9261 27.5141" fill="#C87652"/>
<path d="M50.0756 26.9981C50.0756 26.9981 49.9458 24.4739 49.8467 23.939C49.7346 23.3342 50.165 23.0274 50.2084 23.5144C50.2517 24.0014 50.5885 26.7968 50.5953 26.9244C50.6021 27.052 50.2218 27.4059 50.0754 26.9981" fill="#C87652"/>
<path d="M50.3026 27.1329C50.3026 27.1329 50.2719 24.3928 50.1204 23.8494C50.0239 23.5034 50.2565 23.0597 50.4026 23.5612C50.4803 23.8283 50.8077 25.6184 51.0012 26.5772C51.1517 27.3215 50.6887 28.163 50.6931 28.2375C50.6931 28.2375 50.4299 27.559 50.3026 27.1328" fill="#E29D72"/>
<path d="M50.3636 28.7339C50.8324 28.8896 51.0439 28.7075 51.0467 28.1217C51.0496 27.5358 50.2486 24.4643 50.2447 24.0786C50.2408 23.693 49.9416 24.071 49.9596 24.4088C49.9775 24.7466 50.1033 26.0734 50.0169 26.5277C49.9306 26.9819 49.8494 28.5627 50.3639 28.7338" fill="#F1C1A4"/>
<path d="M52.968 24.9673C53.6861 24.9673 54.2681 24.3853 54.2681 23.6673C54.2681 22.9492 53.6861 22.3672 52.968 22.3672C52.25 22.3672 51.668 22.9492 51.668 23.6673C51.668 24.3853 52.25 24.9673 52.968 24.9673Z" fill="white"/>
<path fill-rule="evenodd" clip-rule="evenodd" d="M53.7918 23.7047C53.9057 24.1255 53.7174 24.3079 53.3657 24.237C53.3396 24.313 53.3039 24.3852 53.2594 24.452C53.8209 24.5934 54.0478 24.1807 53.7918 23.7047ZM52.6837 23.4738H52.9229C52.949 23.4782 52.9736 23.4887 52.9949 23.5043C53.0161 23.52 53.0335 23.5404 53.0454 23.5639C53.0546 23.5852 53.0581 23.6085 53.0557 23.6315C53.0532 23.6555 53.0449 23.6785 53.0318 23.6987C53.0149 23.7236 52.9919 23.7439 52.9651 23.7577C52.9382 23.7715 52.9084 23.7783 52.8782 23.7776C52.8362 23.7704 52.8149 23.8151 52.8505 23.8492L53.0903 24.0713H52.6837C52.6808 24.0713 52.6779 24.0707 52.6752 24.0696C52.6725 24.0685 52.6701 24.0668 52.668 24.0648C52.666 24.0627 52.6643 24.0602 52.6632 24.0576C52.6621 24.0549 52.6615 24.052 52.6615 24.0491V23.4947C52.6618 23.489 52.6643 23.4836 52.6685 23.4797C52.6726 23.4758 52.6781 23.4736 52.6838 23.4736L52.6837 23.4738ZM53.085 23.4738H53.2517C53.2546 23.4738 53.2575 23.4743 53.2602 23.4755C53.2629 23.4766 53.2654 23.4782 53.2674 23.4802C53.2694 23.4824 53.2711 23.4848 53.2722 23.4875C53.2733 23.4902 53.2739 23.493 53.2739 23.496V24.0503C53.2739 24.0532 53.2733 24.0561 53.2722 24.0588C53.2711 24.0615 53.2694 24.064 53.2674 24.066C53.2654 24.0681 53.2629 24.0698 53.2602 24.0709C53.2575 24.0719 53.2546 24.0726 53.2517 24.0726H53.2128L52.9692 23.8465C53.0239 23.8285 53.0709 23.7924 53.1022 23.7441C53.1224 23.7128 53.1349 23.6771 53.1388 23.6401C53.1426 23.603 53.1369 23.5655 53.122 23.5313C53.1127 23.5103 53.1002 23.491 53.0848 23.474L53.085 23.4738ZM52.505 23.1056C52.8125 22.7966 53.0646 22.8685 53.1791 23.2085C53.2579 23.1931 53.3384 23.1879 53.4186 23.193C53.26 22.6362 52.7891 22.6461 52.5049 23.1053L52.505 23.1056ZM52.6207 24.5111C52.1993 24.3994 52.1356 24.145 52.3727 23.8759C52.3199 23.8153 52.2752 23.7482 52.2395 23.6762C51.8366 24.0918 52.0806 24.4947 52.6205 24.5111" fill="#2E3192"/>
<path d="M53.7919 23.7047C53.9058 24.1255 53.7175 24.3079 53.3658 24.237C53.3398 24.313 53.3041 24.3852 53.2596 24.452C53.821 24.5934 54.0479 24.1807 53.7919 23.7047ZM52.6838 23.4738H52.923C52.9491 23.4782 52.9737 23.4887 52.9949 23.5043C53.0162 23.52 53.0335 23.5404 53.0455 23.5639C53.0547 23.5852 53.0583 23.6085 53.0558 23.6315C53.0532 23.6555 53.0451 23.6785 53.0319 23.6987C53.015 23.7236 52.992 23.7439 52.9652 23.7577C52.9383 23.7715 52.9085 23.7783 52.8783 23.7776C52.8363 23.7704 52.815 23.8151 52.8506 23.8492L53.0904 24.0713H52.6838C52.6809 24.0713 52.678 24.0707 52.6753 24.0696C52.6726 24.0685 52.6702 24.0668 52.6681 24.0648C52.6661 24.0627 52.6645 24.0602 52.6634 24.0576C52.6622 24.0549 52.6617 24.052 52.6617 24.0491V23.4947C52.6619 23.489 52.6645 23.4836 52.6685 23.4797C52.6727 23.4758 52.6782 23.4736 52.6839 23.4736L52.6838 23.4738ZM53.0851 23.4738H53.2518C53.2547 23.4738 53.2576 23.4743 53.2603 23.4755C53.263 23.4766 53.2654 23.4782 53.2675 23.4802C53.2696 23.4824 53.2712 23.4848 53.2723 23.4875C53.2734 23.4902 53.274 23.493 53.274 23.496V24.0503C53.274 24.0532 53.2734 24.0561 53.2723 24.0588C53.2712 24.0615 53.2696 24.064 53.2675 24.066C53.2655 24.0681 53.263 24.0698 53.2603 24.0709C53.2577 24.0719 53.2547 24.0726 53.2518 24.0726H53.2129L52.9693 23.8465C53.0241 23.8285 53.071 23.7924 53.1023 23.7441C53.1226 23.7128 53.1351 23.6771 53.1389 23.6401C53.1428 23.603 53.137 23.5655 53.1221 23.5313C53.1128 23.5103 53.1002 23.491 53.0849 23.474L53.0851 23.4738ZM52.5051 23.1056C52.8126 22.7966 53.0647 22.8685 53.1792 23.2085C53.2581 23.1931 53.3385 23.1879 53.4187 23.193C53.2602 22.6362 52.7892 22.6461 52.505 23.1053L52.5051 23.1056ZM52.6208 24.5111C52.1994 24.3994 52.1357 24.145 52.3728 23.8759C52.32 23.8153 52.2753 23.7482 52.2396 23.6762C51.8365 24.0918 52.0806 24.4947 52.6206 24.5111H52.6208Z" stroke="#231F20" stroke-width="0.0195918" stroke-miterlimit="2.613"/>
<path fill-rule="evenodd" clip-rule="evenodd" d="M52.1445 23.5005C52.5983 23.2382 53.1276 23.1375 53.646 23.2148C53.6583 23.7106 53.4827 24.1926 53.1544 24.5643C52.7058 24.336 52.3493 23.9606 52.1445 23.5008V23.5005ZM52.2398 23.6755C52.5839 23.3827 53.0172 23.2152 53.4688 23.2004C53.5561 23.6189 53.4818 24.055 53.261 24.421C52.8453 24.297 52.4848 24.0339 52.2398 23.6758" fill="#D3D2D2"/>
<path d="M49.5562 16.8469C49.5562 16.9805 49.3583 17.0882 49.1139 17.0882C48.8695 17.0882 48.6719 16.9805 48.6719 16.8469C48.6719 16.7139 48.8698 16.7536 49.1139 16.7536C49.358 16.7536 49.5562 16.7139 49.5562 16.8469Z" fill="#C6896C"/>
<path d="M50.5774 17.8589C50.5564 17.9067 50.5296 17.9626 50.5005 18.0265C50.4845 18.0557 50.4658 18.0901 50.4473 18.1245C50.4289 18.159 50.4103 18.1938 50.3889 18.231C50.3277 18.3397 50.2594 18.4444 50.1847 18.5443L50.1793 18.5522L50.1634 18.5735C49.9032 18.9187 49.5337 19.2402 49.0583 19.2402C48.2458 19.2402 47.7147 18.2895 47.5234 17.8961C47.5315 17.8961 47.5606 17.8884 47.6084 17.8778C47.8555 17.83 48.5672 17.6894 48.9975 17.705C49.4782 17.6865 50.2587 17.8086 50.5031 17.8486C50.5429 17.8537 50.5693 17.8589 50.5772 17.8589" fill="#EC6E40"/>
<path d="M49.0551 19.2442C48.7037 19.2442 48.3665 19.0674 48.0526 18.7187C47.8375 18.4711 47.6576 18.1951 47.5177 17.8986L47.5156 17.8943H47.5203C47.5343 17.8922 47.5482 17.8894 47.5619 17.8855C47.5735 17.8829 47.5879 17.8795 47.6046 17.8758L47.622 17.8725C47.8822 17.8219 48.5736 17.6877 48.9945 17.703C49.4547 17.6854 50.201 17.7976 50.5005 17.8467C50.5199 17.8492 50.5358 17.8516 50.5483 17.8536C50.5568 17.8552 50.5655 17.8564 50.5741 17.857V17.8599L50.5768 17.8611C50.5641 17.8901 50.549 17.9226 50.533 17.957C50.5224 17.9798 50.5113 18.0035 50.4999 18.0287L50.4996 18.0292C50.4834 18.0589 50.4649 18.0926 50.4466 18.1269L50.4415 18.1365C50.4249 18.1675 50.4076 18.1996 50.3881 18.2334C50.3268 18.3423 50.2585 18.447 50.1836 18.547L50.1783 18.5548L50.1622 18.5763C50.0316 18.756 49.872 18.9126 49.6898 19.0398C49.5037 19.1703 49.2824 19.2415 49.0551 19.2442ZM47.5247 17.8997C47.6641 18.1945 47.8431 18.4687 48.0569 18.7149C48.3698 19.0624 48.7056 19.2385 49.0551 19.2385C49.2813 19.2358 49.5015 19.1649 49.6867 19.0351C49.8683 18.9082 50.0275 18.752 50.1577 18.5729L50.1737 18.5516L50.1789 18.5438C50.2537 18.4439 50.3219 18.3393 50.3831 18.2306C50.4026 18.1969 50.4198 18.1649 50.4364 18.1338L50.4416 18.1243C50.4599 18.0898 50.4783 18.0562 50.4946 18.0264V18.0262C50.506 18.0012 50.517 17.9775 50.5276 17.9546C50.5428 17.9217 50.5573 17.8907 50.5697 17.8626C50.5647 17.8621 50.5573 17.861 50.5473 17.8594C50.5346 17.8575 50.5188 17.8551 50.4996 17.8526C50.2001 17.8035 49.4542 17.6913 48.9944 17.7092C48.5739 17.6938 47.883 17.8281 47.623 17.8786L47.6058 17.8819C47.5894 17.8856 47.5749 17.889 47.5632 17.8917C47.5446 17.8958 47.5319 17.8987 47.5247 17.8997Z" fill="#050505"/>
<path d="M50.426 17.8848C50.3913 17.9509 50.3518 18.0173 50.3092 18.0838L50.3065 18.089C50.0118 18.5591 49.5738 19.048 49.0132 19.048C48.4953 19.048 48.1186 18.6629 47.8394 18.2433C47.7733 18.1424 47.712 18.0388 47.6562 17.9379C47.6776 17.9777 48.3493 18.0415 49.0132 18.0282C49.7141 18.0125 50.4103 17.9165 50.426 17.8849" fill="#44060F"/>
<path d="M49.3298 18.9962C49.6265 18.9122 49.8434 18.7355 50.0755 18.5578C50.0409 18.512 50.0024 18.4693 49.9604 18.4303C49.7476 18.2572 49.4805 18.165 49.2062 18.1701C48.8054 18.1701 48.4602 18.348 48.2983 18.6108C48.2626 18.6672 48.2358 18.7288 48.2188 18.7933C48.5012 19.0489 48.9863 19.0939 49.3298 18.9962Z" fill="#750414"/>
<path d="M50.426 17.8848C50.3914 17.951 50.1414 18.1652 49.9788 18.2428C49.6538 18.3888 49.3006 18.4616 48.9443 18.4556C48.5115 18.4556 47.8782 18.2558 47.6562 17.9378C47.6823 17.9748 48.3493 18.0414 49.0132 18.0282C49.7141 18.0124 50.4103 17.9165 50.426 17.8848Z" fill="#F4F4F4"/>
<path d="M49.0132 18.0281C48.3492 18.0412 47.6824 17.9747 47.6562 17.9378C47.779 18.1134 48.0277 18.2512 48.298 18.341C48.578 18.1308 49.0312 18.0908 49.3463 18.0994C49.5738 18.1058 49.7811 18.1533 49.9456 18.2563L49.979 18.2427C50.1416 18.1651 50.3918 17.9509 50.4262 17.8848C50.4104 17.9163 49.7143 18.0123 49.0134 18.0282" fill="#EAEDEF"/>
<path d="M50.5774 17.8597C50.5564 17.9076 50.5296 17.9635 50.5005 18.0274C50.4845 18.0565 50.4658 18.091 50.4473 18.1255C50.4289 18.16 50.4103 18.1946 50.3889 18.2319C50.3303 18.3194 50.2669 18.4203 50.1846 18.5452L50.1793 18.5531L50.1634 18.5744C49.9032 18.9196 49.5337 19.2411 49.0583 19.2411C48.2458 19.2411 47.7147 18.2904 47.5234 17.897C47.5315 17.897 47.5606 17.8893 47.6084 17.8787C47.6272 17.8973 47.6441 17.9178 47.6588 17.9398C47.7742 18.1057 47.9069 18.2589 48.0547 18.3967C48.1289 18.4655 48.2112 18.5398 48.2991 18.6115C48.3936 18.685 48.4938 18.7508 48.5989 18.8082C48.6737 18.848 48.7531 18.8782 48.8353 18.8985C49.0558 18.9543 49.2682 18.8956 49.462 18.7923C49.5533 18.7436 49.6411 18.6886 49.7249 18.6278C49.8077 18.5673 49.8866 18.5015 49.9611 18.431C50.1233 18.2847 50.2677 18.1199 50.3913 17.9399C50.4214 17.9019 50.4595 17.871 50.503 17.8496C50.5428 17.8546 50.5692 17.8599 50.5772 17.8599" fill="#EC6E40"/>
<path d="M49.0551 19.2431C48.7038 19.2431 48.3665 19.0663 48.0526 18.7176C47.8375 18.47 47.6575 18.194 47.5177 17.8974L47.5156 17.8931H47.5203C47.5343 17.891 47.5482 17.8882 47.5619 17.8843C47.5735 17.8817 47.5879 17.8783 47.6046 17.8746L47.6062 17.8743L47.6073 17.8754C47.6262 17.8942 47.6433 17.9148 47.6581 17.9371C47.7732 18.1028 47.9058 18.2558 48.0535 18.3933C48.1187 18.4537 48.2056 18.5328 48.2977 18.6079C48.3922 18.6814 48.4923 18.7472 48.5971 18.8048C48.6717 18.8443 48.7509 18.8745 48.8328 18.8947C49.0273 18.9439 49.2316 18.9092 49.4576 18.7888C49.5488 18.7401 49.6364 18.6852 49.72 18.6245C49.8028 18.564 49.8816 18.4984 49.956 18.4279C50.1181 18.2819 50.2624 18.1173 50.3859 17.9374C50.4161 17.8989 50.4546 17.8677 50.4986 17.8461L50.4994 17.8457H50.5003C50.5198 17.8482 50.5356 17.8506 50.5485 17.8526C50.557 17.8542 50.5656 17.8553 50.5742 17.856V17.8589L50.5768 17.8601C50.5642 17.8891 50.549 17.9216 50.5331 17.956C50.5224 17.9788 50.5113 18.0025 50.5 18.0277L50.4996 18.0284C50.4834 18.058 50.4649 18.0916 50.4468 18.126L50.4416 18.1356C50.4249 18.1667 50.4077 18.1987 50.3882 18.2325C50.3575 18.2786 50.3246 18.3294 50.2898 18.3832C50.2585 18.4317 50.223 18.4867 50.1839 18.546L50.1786 18.5539L50.1625 18.5754C50.0318 18.7551 49.8722 18.9118 49.6899 19.039C49.5037 19.1694 49.2824 19.2405 49.0551 19.2431ZM47.5247 17.8987C47.6641 18.1934 47.8431 18.4677 48.0569 18.7138C48.3698 19.0614 48.7056 19.2374 49.0551 19.2374C49.2813 19.2348 49.5015 19.1639 49.6867 19.034C49.8683 18.9072 50.0275 18.751 50.1577 18.5719L50.1737 18.5506L50.1789 18.5428C50.218 18.4835 50.2534 18.4285 50.2848 18.3801C50.3196 18.3263 50.3526 18.2754 50.383 18.2294C50.4023 18.1959 50.4195 18.1639 50.4362 18.1329L50.4413 18.1233C50.4596 18.0888 50.478 18.0553 50.4943 18.0256L50.4945 18.0251C50.5059 18.0001 50.5168 17.9765 50.5275 17.9535C50.5428 17.9207 50.5572 17.8896 50.5696 17.8616C50.5646 17.8611 50.5572 17.8599 50.5473 17.8584C50.5347 17.8565 50.5192 17.8541 50.5003 17.8516C50.4574 17.8727 50.4199 17.9032 50.3904 17.9407C50.2667 18.1209 50.1222 18.2858 49.9598 18.4321C49.8851 18.5027 49.8062 18.5685 49.7232 18.6292C49.6394 18.6901 49.5514 18.7451 49.46 18.7939C49.2327 18.915 49.027 18.9499 48.8313 18.9003C48.7488 18.8801 48.6692 18.8496 48.5943 18.8099C48.4891 18.7523 48.3887 18.6864 48.294 18.6128C48.2017 18.5374 48.1148 18.4583 48.0496 18.3978C47.9016 18.2601 47.7688 18.1068 47.6534 17.9407C47.639 17.9192 47.6226 17.8992 47.6044 17.881C47.5885 17.8845 47.5745 17.8878 47.5632 17.8904C47.5445 17.8947 47.5319 17.8976 47.5247 17.8987Z" fill="#020202"/>
</g>
<defs>
<clipPath id="clip0_2871_2119">
<rect width="18" height="22" fill="white" transform="translate(9 10)"/>
</clipPath>
</defs>
</svg>
