<svg width="73" height="15" viewBox="0 0 73 15" fill="none" xmlns="http://www.w3.org/2000/svg">
<path d="M6.27711 9.3355C6.28951 9.3343 6.30191 9.3321 6.31401 9.3291C7.42861 9.7829 8.09431 10.563 8.09641 11.7985C8.09161 12.4524 7.83061 13.0783 7.36941 13.5419C6.90821 14.0054 6.28371 14.2696 5.62981 14.2777C3.99431 14.2899 2.25191 14.3083 0.591309 14.2777C1.62321 13.3131 2.78201 12.3441 3.84491 11.4159C4.64861 10.7143 5.46591 10.0284 6.27711 9.3355Z" fill="#00BA00"/>
<path d="M6.28923 9.32691C5.51133 10.0295 4.64863 10.7145 3.84463 11.4161C2.78183 12.344 0.57353 14.3015 0.57353 14.3015C0.57353 14.3015 0.57353 14.0428 0.57353 13.9308C0.56973 12.3926 0.575027 10.8123 0.582327 9.23591C2.30353 9.19671 6.09553 9.29121 6.28923 9.32691Z" fill="#F79E00"/>
<path d="M0.585449 9.2391V4.2312C0.664149 4.21369 0.743948 4.20187 0.824348 4.19584C2.40525 4.19383 3.98645 4.1763 5.56705 4.19904C7.38145 4.22589 8.58615 5.97466 7.90485 7.61762C7.73875 8.0184 7.40174 8.359 7.10204 8.6896C6.89304 8.92 6.61365 9.0872 6.33365 9.3077C6.32165 9.3186 6.30695 9.3261 6.29105 9.3293C6.27515 9.3325 6.25865 9.3312 6.24345 9.3257C6.04935 9.2898 2.29985 9.2386 0.585449 9.2391Z" fill="#FF6900"/>
<path d="M41.6111 11.2787C41.2971 10.0588 41.2971 8.8699 41.7881 7.71339C42.2851 6.54341 43.1891 5.84991 44.4171 5.58692C45.5701 5.34016 46.6941 5.44295 47.7561 5.98466C47.9921 6.11983 48.2211 6.26697 48.4421 6.42549L47.9261 7.53376C47.7481 7.41854 47.5831 7.30423 47.4111 7.20073C47.0101 6.95377 46.5631 6.7907 46.0971 6.72136C45.6301 6.65202 45.1551 6.67784 44.6991 6.79728C43.8781 6.99765 43.3651 7.55349 43.1291 8.3517C42.8551 9.2579 42.8571 10.2251 43.1351 11.1301C43.4461 12.1551 44.1801 12.707 45.3101 12.7932C45.9601 12.8378 46.6131 12.767 47.2381 12.5839V10.4828H45.4611V9.4091H48.6071C48.6091 9.4648 48.6141 9.5181 48.6141 9.5713C48.6141 10.7802 48.6151 11.9891 48.6161 13.198C48.6161 13.3162 48.6081 13.4045 48.4741 13.4562C47.0691 13.9966 45.6321 14.1922 44.1611 13.7981C42.8541 13.4475 42.0191 12.5832 41.6111 11.2787Z" fill="#020202"/>
<path d="M13.3978 11.7139C13.3824 10.9884 13.3999 10.2838 13.3413 9.5856C13.2912 8.9945 12.945 8.7164 12.3542 8.6713C11.3905 8.5974 10.6691 9.2193 10.6514 10.1804C10.6298 11.3252 10.6424 12.4707 10.6402 13.6158C10.6402 13.7011 10.6402 13.7861 10.6402 13.8827H9.09961V4.71289H10.6425V8.4705C11.1595 7.76038 11.8204 7.42044 12.6313 7.41493C13.3738 7.40992 14.0629 7.57573 14.5185 8.2421C14.7467 8.585 14.8828 8.9809 14.9136 9.3917C14.945 9.7291 14.9583 10.0693 14.9599 10.4084C14.9654 11.5606 14.962 12.7127 14.962 13.8799H13.3978V11.7139Z" fill="#010101"/>
<path d="M51.8098 13.467V13.8812H50.3218V5.58937C50.3448 5.57965 50.3688 5.57292 50.3938 5.56934C51.7368 5.57825 53.0788 5.56092 54.4198 5.6064C55.5358 5.64428 56.4078 6.32254 56.6658 7.25769C57.1038 8.8444 56.1318 10.2593 54.4848 10.3801C53.6988 10.4377 52.9068 10.4141 52.1178 10.4268C52.0248 10.4283 51.9308 10.4268 51.8088 10.4268L51.8098 13.467ZM53.8968 9.2467C54.3718 9.2159 54.8328 9.1352 55.1258 8.7083C55.2508 8.5366 55.3288 8.3348 55.3508 8.1234C55.3728 7.91193 55.3388 7.69839 55.2518 7.50445C55.1648 7.31051 55.0278 7.14309 54.8548 7.01919C54.6818 6.89529 54.4798 6.81933 54.2678 6.79903C53.5978 6.71968 52.9148 6.75395 52.2378 6.73892C52.0988 6.73581 51.9598 6.73892 51.8258 6.73892V9.2478C52.5118 9.2478 53.1818 9.2478 53.8978 9.2465L53.8968 9.2467Z" fill="#030303"/>
<path d="M35.167 12.045V13.8803H33.631V13.0198C33.344 13.2493 33.077 13.5408 32.748 13.7123C31.486 14.3691 29.882 13.8948 29.244 12.6246C28.526 11.1949 28.568 9.7478 29.519 8.4222C30.426 7.15696 32.46 7.0708 33.414 8.2111C33.479 8.288 33.536 8.3708 33.624 8.4862V7.59668H35.166L35.167 12.045ZM32.806 12.5665C32.964 12.4163 33.167 12.2924 33.271 12.1114C33.511 11.7102 33.645 11.2545 33.66 10.7872C33.675 10.3199 33.57 9.8566 33.356 9.4411C32.844 8.3835 31.302 8.3543 30.697 9.3596C30.296 10.0254 30.293 10.7545 30.449 11.4877C30.683 12.5849 31.764 13.0876 32.807 12.567L32.806 12.5665Z" fill="#010101"/>
<path d="M17.157 13.2167C16.561 12.5904 16.3302 11.8382 16.2883 11.0111C16.2396 10.0538 16.422 9.16399 17.02 8.38519C17.943 7.1812 19.945 7.08413 20.895 8.2033C20.966 8.2861 21.026 8.37759 21.115 8.49829V7.59597H22.634V13.8831H21.134V12.8774C20.657 13.6188 20.011 13.9507 19.212 13.9848C18.429 14.0181 17.733 13.7971 17.158 13.2171M17.949 9.89819C17.821 10.4377 17.819 10.9996 17.944 11.5398C18.11 12.2417 18.627 12.7035 19.307 12.7521C20.132 12.8108 20.672 12.4885 20.945 11.7617C21.172 11.1332 21.192 10.4487 21.002 9.80799C20.649 8.49179 19.258 8.44079 18.586 8.91299C18.253 9.14669 18.08 9.48759 17.949 9.89819Z" fill="#010101"/>
<path d="M59.846 11.524V6.81523H57.144V5.58203H64.069V6.8003H61.3781V13.8795H59.846V11.524Z" fill="#040404"/>
<path d="M38.8581 11.333C38.8581 11.522 38.8691 11.7108 38.8911 11.8985C38.9911 12.4584 39.4171 12.7601 39.9871 12.6869C40.1581 12.6649 40.3281 12.6343 40.5081 12.6061C40.5131 12.6691 40.5191 12.7232 40.5191 12.7772C40.5201 13.1238 40.5191 13.4702 40.5191 13.8339C39.7731 14.0178 39.0441 14.0876 38.3421 13.7304C37.7271 13.4176 37.4401 12.8673 37.3461 12.2117C37.3081 11.8982 37.2921 11.5825 37.2971 11.2668C37.2901 10.4386 37.2941 9.6101 37.2941 8.7567H36.1001V7.58273H37.2901V6.04406L38.8621 5.51758V7.57732H40.5171V8.7409H38.8581V11.333Z" fill="#020202"/>
<path d="M25.7228 7.63085C25.7638 7.96337 25.8008 8.2743 25.8448 8.6509C26.4038 7.56893 27.2788 7.31345 28.3668 7.50601V8.8811C27.9978 8.8568 27.6308 8.7962 27.2688 8.817C26.9508 8.8348 26.6488 8.9609 26.4118 9.1742C26.1748 9.3875 26.0188 9.6753 25.9678 9.9897C25.9308 10.1993 25.9128 10.4119 25.9138 10.6248C25.9088 11.7052 25.9118 12.7857 25.9118 13.8809H24.3218V7.60921C24.7498 7.60931 25.2348 7.60931 25.7228 7.63085Z" fill="#020202"/>
<path d="M63.5469 1.51851V0.81543H67.2429V1.51851H65.8119V5.4508H64.9809V1.51851H63.5469ZM67.7119 0.81543H68.7419L70.1169 4.17219H70.1699L71.5479 0.81543H72.5899V5.4508H71.7659V2.26515H71.7289L70.4409 5.43525H69.8369L68.5649 2.25893H68.5209V5.4508H67.7119V0.81543Z" fill="#F94B1D"/>
</svg>
