<svg width="32" height="32" viewBox="0 0 32 32" fill="none" xmlns="http://www.w3.org/2000/svg">
<rect width="32" height="32" rx="16" fill="#F7F8FF"/>
<path fill-rule="evenodd" clip-rule="evenodd" d="M8.44321 15.8613C8.43476 15.7391 8.54461 14.7511 8.57581 14.5379C8.58101 14.5087 8.59791 14.4677 8.56736 14.4495C8.53941 14.4333 8.50951 14.4658 8.48286 14.4801C8.41916 14.5132 8.38536 14.5698 8.36261 14.6361C8.29696 14.8363 7.90566 15.9413 7.87901 15.9556C7.87576 16.0349 7.80101 16.0277 7.75096 16.0518C7.60926 16.0524 7.56116 16.1298 7.53321 16.265C7.35446 17.1379 7.16531 18.0096 6.97876 18.8812C6.97226 18.9118 6.96186 18.941 6.95146 18.9787C6.85981 18.9053 6.76816 18.8435 6.65441 18.8286C6.41326 18.7961 6.19616 18.9144 6.10646 19.1406C6.07916 19.2101 6.05121 19.2205 5.98491 19.2069C5.69891 19.1445 5.55136 18.9196 5.61376 18.6284C5.73401 18.0642 5.85426 17.5006 5.97646 16.9358C6.03886 16.6498 6.25791 16.5107 6.54456 16.5711C6.73111 16.6114 6.91766 16.6556 7.10486 16.6907C7.24266 16.7167 7.21991 16.7401 7.25176 16.5893C7.28556 16.4301 7.31676 16.2695 7.35836 16.1116C7.37656 16.0368 7.36031 15.99 7.29336 15.9569C7.20626 15.9114 7.18286 15.8308 7.17246 15.7417C7.17246 15.7274 7.17441 15.7157 7.17766 15.7047C7.17441 15.6774 7.51826 14.5321 7.58261 14.3078C7.65411 14.0634 7.79581 13.8879 8.02331 13.7729C8.32881 13.6195 8.62976 13.455 8.93136 13.2958C9.05096 13.2321 9.17446 13.1749 9.31031 13.158C9.71591 13.1086 10.0591 13.4375 10.0266 13.8548C10.0104 14.0725 9.97266 14.289 9.94211 14.5061L9.74191 15.912C9.72306 16.0472 9.77181 16.1525 9.87321 16.2396C10.0663 16.406 10.2554 16.5776 10.453 16.7388C10.6578 16.9065 10.7533 17.1171 10.7689 17.3804C10.8034 17.9524 10.8515 18.5244 10.8937 19.0964C10.91 19.3258 10.7904 19.5169 10.583 19.5956C10.388 19.6716 10.167 19.6118 10.0338 19.448C9.97136 19.372 9.93496 19.2855 9.92716 19.1867C9.89531 18.7818 9.86476 18.3762 9.83486 17.9719C9.82381 17.8367 9.81146 17.7015 9.80821 17.5656C9.80626 17.4909 9.77831 17.4415 9.72241 17.394C9.42731 17.1451 9.13741 16.889 8.84101 16.6413C8.65576 16.4873 8.50951 16.3111 8.44516 16.0745C8.44516 16.0745 8.44646 15.914 8.44321 15.86M9.72696 12.9285C10.156 12.9285 10.5018 12.584 10.5024 12.1557C10.5037 11.7208 10.1579 11.3731 9.72501 11.375C9.29471 11.3757 8.94891 11.7195 8.94826 12.1466C8.94631 12.5808 9.29211 12.9285 9.72696 12.9285Z" fill="#2639AB"/>
<path fill-rule="evenodd" clip-rule="evenodd" d="M6.56919 19.0347C6.40734 19.0373 6.27344 19.1719 6.27344 19.3318C6.27279 19.4969 6.41254 19.6327 6.58089 19.6308C6.74404 19.6295 6.87209 19.4988 6.87209 19.3331C6.87209 19.1621 6.73884 19.0315 6.56919 19.0347ZM10.0688 15.0437C10.1156 14.7603 10.1403 14.5491 10.1871 14.2891L10.241 14.3203L11.281 14.9995C11.4019 15.0795 11.528 15.1542 11.6411 15.242C11.788 15.3564 11.7646 15.5904 11.6021 15.7327C11.4617 15.8562 11.2836 15.8796 11.1439 15.7886C10.7714 15.5481 10.4796 15.4162 10.1078 15.1744C10.0408 15.1308 10.0545 15.1347 10.0688 15.0437ZM9.14579 17.1783C8.91634 16.9755 8.67064 16.7896 8.44964 16.5563L8.41779 16.6434L7.84449 18.4263C7.77754 18.6356 7.70279 18.8423 7.65079 19.0529C7.58384 19.3272 7.78664 19.597 8.06679 19.6269C8.30729 19.6529 8.51139 19.5229 8.58874 19.283C8.79609 18.648 9.00019 18.0116 9.20559 17.3759C9.24264 17.2622 9.24069 17.2628 9.14579 17.1783Z" fill="#2639AB"/>
<path fill-rule="evenodd" clip-rule="evenodd" d="M21.9144 20.4255H14.8424C13.7134 20.4255 12.7988 19.5109 12.7988 18.3812V10.0911C12.7988 9.63613 13.1687 9.26562 13.6243 9.26562H23.1325C23.5882 9.26562 23.958 9.63613 23.958 10.0911V18.3812C23.958 19.5109 23.0428 20.4255 21.9144 20.4255Z" stroke="#2639AB" stroke-width="1.2" stroke-linecap="round"/>
<path d="M20.332 7.75H16.6406" stroke="#2639AB" stroke-width="1.2" stroke-linecap="round"/>
<path d="M14.4004 20.4219V22.5021M22.9999 20.4219V22.5021M15.859 22.0904H21.54" stroke="#2639AB" stroke-width="1.2" stroke-linecap="round"/>
<path d="M18.2812 7.75L19.0197 8.55535V9.2645" stroke="#2639AB" stroke-width="1.2" stroke-linecap="round" stroke-linejoin="round"/>
<path fill-rule="evenodd" clip-rule="evenodd" d="M22.0305 15.0977H15.1275C14.8538 15.0977 14.6328 14.876 14.6328 14.6024V11.55C14.6328 11.277 14.8538 11.0547 15.1268 11.0547H22.0305C22.3048 11.0547 22.5258 11.277 22.5258 11.55V14.6024C22.5258 14.8754 22.3048 15.0977 22.0305 15.0977Z" stroke="#2639AB" stroke-width="1.2" stroke-linecap="round"/>
</svg>
