<svg xmlns="http://www.w3.org/2000/svg" width="50.008" height="56.147" viewBox="0 0 50.008 56.147"><g transform="translate(348.73 -3216.599)"><g transform="translate(-339.665 3240.284)"><g transform="translate(-9.065 -13.429)"><rect width="24.808" height="19.846" rx="7" transform="translate(3.459 7.438)" fill="#ededed"/><path d="M167.581-513.7a4.5,4.5,0,0,0-2.3,1.343,2.02,2.02,0,0,0-.28.444c0,.046.2.081.444.081a.867.867,0,0,0,.666-.233,3.381,3.381,0,0,1,2.091-.584l.712.012,1.215,1.623c1.2,1.623,1.285,1.705,1.845,1.542.245-.082.222-.129-.444-1-.642-.864-.689-.969-.689-1.553v-.619h9.11v.619c0,.584-.047.689-.689,1.553-.666.876-.689.923-.444,1,.561.163.642.082,1.845-1.542l1.215-1.623.7-.012a3.232,3.232,0,0,1,1.974.526c.4.268,1.238.409,1.238.21a2.018,2.018,0,0,0-.28-.444,4.436,4.436,0,0,0-2.348-1.343c-.864-.222-1.285-.234-7.813-.222C168.9-513.923,168.387-513.911,167.581-513.7Z" transform="translate(-159.931 513.926)" fill="#222221"/><path d="M134.494-447.5c-6.564.631-10.406,3.013-12.03,7.451a14.414,14.414,0,0,0-.864,5.921c0,6.377,1.588,13.256,3.726,16.129a12.54,12.54,0,0,0,5.98,3.831,15.694,15.694,0,0,0,5.758.818,15.578,15.578,0,0,0,6.073-.934,12.314,12.314,0,0,0,5.4-3.4c2.2-2.885,3.784-9.016,4.029-15.568.222-6.108-1.647-10.161-5.7-12.31a16.136,16.136,0,0,0-5.769-1.764A40.25,40.25,0,0,0,134.494-447.5Zm7.977,3.551c3.165.607,4.975,1.682,5.863,3.5a7.714,7.714,0,0,1,.6,4.029c-.222,4.076-1.81,7.732-3.877,8.946-1.717,1-4.613,1.577-8.059,1.577-4.088,0-7.463-.888-8.935-2.359-1.448-1.448-2.511-4.322-2.815-7.592-.28-2.943.21-4.753,1.635-6.061a9.587,9.587,0,0,1,5.162-2.079c.549-.07,1.121-.152,1.285-.175s2.056-.035,4.2-.024A32.216,32.216,0,0,1,142.471-443.95ZM129.5-424.727c1.109.315,1.6,1.168,1.612,2.78,0,1.226-.187,1.752-.818,2.278a3,3,0,0,1-2.3.537c-.958-.047-1.121-.082-1.565-.4a2.468,2.468,0,0,1-1.016-2.3,2.661,2.661,0,0,1,.245-1.647,2.09,2.09,0,0,1,1.308-1.226A6.826,6.826,0,0,1,129.5-424.727Zm17.624.023a2.03,2.03,0,0,1,1.355,1.226,2.661,2.661,0,0,1,.245,1.647,2.468,2.468,0,0,1-1.016,2.3c-.444.315-.607.35-1.565.4a3,3,0,0,1-2.3-.537c-.631-.526-.818-1.051-.818-2.278.012-1.577.42-2.347,1.483-2.721A6,6,0,0,1,147.119-424.7Z" transform="translate(-121.6 452.514)" fill="#ff962b"/><path d="M134.51-132.473c-1.25,1.927-2.371,3.667-2.488,3.842l-.222.339h4.543l.572-1.226.561-1.226h17.192l.561,1.226.572,1.226h4.543l-.222-.339c-3.445-5.384-4.788-7.37-4.94-7.323-.093.035-.642.222-1.226.421s-1.11.385-1.191.409-.035.28.2.806a3.187,3.187,0,0,1,.35,1.355v.584H138.831v-.584a3.233,3.233,0,0,1,.35-1.366,5.341,5.341,0,0,0,.327-.794c-.023-.012-.374-.117-.783-.222a12.084,12.084,0,0,1-1.261-.432,6.089,6.089,0,0,0-.6-.222C136.822-136,135.759-134.412,134.51-132.473Z" transform="translate(-130.609 174.182)" fill="#3d2c00"/></g></g><g transform="translate(-403.557 3216.599)"><path d="M269.972,7.042a14.141,14.141,0,1,1,22.2,17.118,32.316,32.316,0,0,0-2.9,3.572A45.884,45.884,0,0,0,282.2,45a45.446,45.446,0,0,0-7.815-18.278,32.245,32.245,0,0,0-2.159-2.562h0a14.144,14.144,0,0,1-2.258-17.118Z" transform="translate(-191.508)" fill="#ffd05b"/><path d="M332.537,56.947a7.524,7.524,0,1,1-7.525,7.525A7.525,7.525,0,0,1,332.537,56.947Z" transform="translate(-241.842 -50.333)" fill="#ff962b"/></g></g></svg>