<svg xmlns="http://www.w3.org/2000/svg" viewBox="0 0 750 500"><g id="freepik--background-complete--inject-9"><rect x="74.39" y="130.67" width="42.87" height="42.87" style="fill:#f5f5f5"></rect><rect x="125.19" y="130.67" width="42.87" height="42.87" style="fill:#f5f5f5"></rect><rect x="176" y="130.67" width="42.87" height="42.87" style="fill:#f5f5f5"></rect><rect x="226.8" y="130.67" width="42.87" height="42.87" style="fill:#f5f5f5"></rect><rect x="74.39" y="81.74" width="42.87" height="42.87" style="fill:#f5f5f5"></rect><rect x="125.19" y="81.74" width="42.87" height="42.87" style="fill:#f5f5f5"></rect><rect x="176" y="81.74" width="42.87" height="42.87" style="fill:#f5f5f5"></rect><rect x="226.8" y="81.74" width="42.87" height="42.87" style="fill:#f5f5f5"></rect><rect x="277.44" y="81.74" width="42.87" height="42.87" style="fill:#f5f5f5"></rect><rect x="328.25" y="81.74" width="42.87" height="42.87" style="fill:#f5f5f5"></rect><rect x="379.05" y="81.74" width="42.87" height="42.87" style="fill:#f5f5f5"></rect><rect x="429.86" y="81.74" width="42.87" height="42.87" style="fill:#f5f5f5"></rect><rect x="480.5" y="81.74" width="42.87" height="42.87" style="fill:#f5f5f5"></rect><rect x="531.3" y="81.74" width="42.87" height="42.87" style="fill:#f5f5f5"></rect><rect x="582.11" y="81.74" width="42.87" height="42.87" style="fill:#f5f5f5"></rect><rect x="632.91" y="81.74" width="42.87" height="42.87" style="fill:#f5f5f5"></rect><rect x="683.43" y="81.74" width="42.87" height="42.87" style="fill:#f5f5f5"></rect><rect x="74.39" y="178.94" width="42.87" height="42.87" style="fill:#f5f5f5"></rect><rect x="125.19" y="178.94" width="42.87" height="42.87" style="fill:#f5f5f5"></rect><rect x="176" y="178.94" width="42.87" height="42.87" style="fill:#f5f5f5"></rect><rect x="226.8" y="178.94" width="42.87" height="42.87" style="fill:#f5f5f5"></rect><rect x="74.39" y="229.55" width="42.87" height="42.87" style="fill:#f5f5f5"></rect><rect x="125.19" y="229.55" width="42.87" height="42.87" style="fill:#f5f5f5"></rect><rect x="176" y="229.55" width="42.87" height="42.87" style="fill:#f5f5f5"></rect><rect x="226.8" y="229.55" width="42.87" height="42.87" style="fill:#f5f5f5"></rect><rect x="74.39" y="277.82" width="42.87" height="42.87" style="fill:#f5f5f5"></rect><rect x="125.19" y="277.82" width="42.87" height="42.87" style="fill:#f5f5f5"></rect><rect x="176" y="277.82" width="42.87" height="42.87" style="fill:#f5f5f5"></rect><rect x="226.8" y="277.82" width="42.87" height="42.87" style="fill:#f5f5f5"></rect><rect x="136.02" y="13.05" width="7.55" height="35.87" style="fill:#f5f5f5"></rect><rect x="268.19" y="13.05" width="7.55" height="35.87" style="fill:#f5f5f5"></rect><rect x="249.73" y="47.15" width="49.24" height="49.24" rx="6.86" transform="translate(-0.28 1.08) rotate(-0.23)" style="fill:#e0e0e0"></rect><rect x="120.18" y="47.51" width="126.01" height="49.24" rx="6.86" transform="matrix(1, 0, 0, 1, -0.28, 0.72)" style="fill:#e0e0e0"></rect><path d="M284.9,72.28a4.17,4.17,0,0,1-.79.06l-2.18,0c-1.85,0-4.42.06-7.33.08h-.14v-.14c0-.47,0-1,0-1.46,0-3.24,0-6.18,0-8.31,0-1,0-1.87,0-2.52a5.7,5.7,0,0,1,.06-.92,5.7,5.7,0,0,1,.06.92c0,.64,0,1.49.05,2.52,0,2.13.07,5.06.08,8.31v1.45l-.14-.14c2.91,0,5.48,0,7.33,0l2.18,0A6.21,6.21,0,0,1,284.9,72.28Z" style="fill:#fff"></path><path d="M274.59,52.91a6.06,6.06,0,0,1,.15,1.88,6.14,6.14,0,0,1-.13,1.88,6.29,6.29,0,0,1-.16-1.88A6.32,6.32,0,0,1,274.59,52.91Z" style="fill:#fff"></path><path d="M284.82,55.89a6.7,6.7,0,0,1-1.21,1.42,5.69,5.69,0,0,1-1.41,1.21,6,6,0,0,1,1.21-1.42A6,6,0,0,1,284.82,55.89Z" style="fill:#fff"></path><path d="M290.81,62.39a7.74,7.74,0,0,1-1.54,1,7.93,7.93,0,0,1-1.62.91,4.81,4.81,0,0,1,1.47-1.15A5,5,0,0,1,290.81,62.39Z" style="fill:#fff"></path><path d="M294.35,72.05a22.09,22.09,0,0,1-5.14,0,23.66,23.66,0,0,1,5.14,0Z" style="fill:#fff"></path><path d="M258.75,71.85a21.07,21.07,0,0,1-4.85,0,19.67,19.67,0,0,1,4.85,0Z" style="fill:#fff"></path><path d="M261.3,79.05a11.35,11.35,0,0,1-1.83,1.67,10.64,10.64,0,0,1-2,1.44,10.85,10.85,0,0,1,1.83-1.67A10,10,0,0,1,261.3,79.05Z" style="fill:#fff"></path><path d="M267.53,84.59a16.1,16.1,0,0,1-1.24,2.17A16.34,16.34,0,0,1,265,88.88,8.09,8.09,0,0,1,266,86.61,8.48,8.48,0,0,1,267.53,84.59Z" style="fill:#fff"></path><path d="M274.74,91.75a11.92,11.92,0,0,1-.15-2.56,11.38,11.38,0,0,1,.13-2.57,11.65,11.65,0,0,1,.16,2.57A11,11,0,0,1,274.74,91.75Z" style="fill:#fff"></path><path d="M285.8,88.29a7.48,7.48,0,0,1-2.13-1.44A7.64,7.64,0,0,1,281.94,85a21.57,21.57,0,0,1,1.92,1.67C284.92,87.55,285.84,88.22,285.8,88.29Z" style="fill:#fff"></path><path d="M289.47,81a9.27,9.27,0,0,1,1.5,1.7,9.2,9.2,0,0,1-1.71-1.49" style="fill:#fff"></path><path d="M261,64.94a6.82,6.82,0,0,1-1.5-1.29,6.48,6.48,0,0,1-1.3-1.5,7.17,7.17,0,0,1,1.5,1.29A6.48,6.48,0,0,1,261,64.94Z" style="fill:#fff"></path><path d="M267.39,58.16a6.18,6.18,0,0,1-1.48-1.26,6.84,6.84,0,0,1-1.28-1.46,6.48,6.48,0,0,1,1.48,1.26A7.12,7.12,0,0,1,267.39,58.16Z" style="fill:#fff"></path><path d="M145.17,64.73a43.26,43.26,0,0,1-6.66.28,42.86,42.86,0,0,1-6.66-.23,44,44,0,0,1,6.66-.29A42.06,42.06,0,0,1,145.17,64.73Z" style="fill:#fff"></path><path d="M234.05,64.38c0,.14-18.09.33-40.4.42s-40.4,0-40.4-.1,18.09-.34,40.4-.42S234.05,64.24,234.05,64.38Z" style="fill:#fff"></path><path d="M145.2,72.64a44,44,0,0,1-6.66.29,42.06,42.06,0,0,1-6.66-.24,44,44,0,0,1,6.66-.29A43.54,43.54,0,0,1,145.2,72.64Z" style="fill:#fff"></path><path d="M234.08,72.29c0,.14-18.08.33-40.39.42s-40.41,0-40.41-.1,18.09-.33,40.4-.42S234.08,72.15,234.08,72.29Z" style="fill:#fff"></path><path d="M145.23,80.55a44,44,0,0,1-6.66.29,42.06,42.06,0,0,1-6.66-.24,43.26,43.26,0,0,1,6.66-.28A42.86,42.86,0,0,1,145.23,80.55Z" style="fill:#fff"></path><path d="M234.12,80.2c0,.14-18.09.33-40.4.42s-40.41,0-40.41-.1,18.09-.33,40.4-.42S234.11,80.06,234.12,80.2Z" style="fill:#fff"></path><rect x="566.7" y="15.62" width="5.6" height="35.71" style="fill:#f5f5f5"></rect><rect x="651.11" y="15.62" width="5.6" height="35.71" style="fill:#f5f5f5"></rect><rect x="548.84" y="47.51" width="125.13" height="46.45" rx="8.23" style="fill:#e0e0e0"></rect><path d="M609.08,69.45c0,.15-11,.26-24.66.26s-24.66-.11-24.66-.26,11-.26,24.66-.26S609.08,69.31,609.08,69.45Z" style="fill:#f5f5f5"></path><path d="M661.36,69.41c0,.15-8.29.26-18.51.26s-18.51-.11-18.51-.26,8.28-.26,18.51-.26S661.36,69.27,661.36,69.41Z" style="fill:#f5f5f5"></path><path d="M649.6,79.78a7.61,7.61,0,0,1,1.06-.89c.8-.59,1.81-1.35,3-2.26,2.56-1.88,6.11-4.46,10.05-7.29l.14-.1,0,.44c-4.15-2.44-7.88-4.66-10.57-6.29l-3.17-2a7,7,0,0,1-1.12-.77,6.74,6.74,0,0,1,1.23.6l3.25,1.81c2.73,1.55,6.5,3.72,10.65,6.15l.34.2-.32.23-.15.11c-3.94,2.82-7.52,5.35-10.13,7.16l-3.11,2.13A7.13,7.13,0,0,1,649.6,79.78Z" style="fill:#f5f5f5"></path></g><g id="freepik--Subway--inject-9"><path d="M105.88,435.88s-31.75-15.87-16.49-67c4-13.51,68.08-130.59,131.44-196.9,18.54-19.39,37-34.45,53.92-41.29H719.21V435.88Z" style="fill:#455a64"></path><path d="M273.25,174.27h-54.6s-57.41,64-96.67,133.78h86a7.32,7.32,0,0,0,6.43-3.81l65.23-119.12A7.33,7.33,0,0,0,273.25,174.27Z" style="fill:#fff"></path><path d="M273.25,174.27a9.78,9.78,0,0,1,1.2.08,7.23,7.23,0,0,1,3.23,1.35,7.53,7.53,0,0,1,2.9,4.83,7.24,7.24,0,0,1-.37,3.64c-.5,1.23-1.25,2.4-1.92,3.7-5.64,10.34-13.79,25.27-23.85,43.73S232.35,272,219,296.41L216.5,301c-.43.77-.85,1.54-1.27,2.32a13.27,13.27,0,0,1-1.44,2.29,7.6,7.6,0,0,1-4.76,2.6,23,23,0,0,1-2.74.07H121.54l.22-.38A742.66,742.66,0,0,1,173,230.43c8.4-11.24,16.52-21.62,24.18-31s14.8-17.88,21.33-25.25l0,0h.08l40.2.07,10.7,0,2.76,0,.94,0-.94,0-2.76,0-10.7,0-40.2.08.12-.05c-6.51,7.37-13.63,15.86-21.26,25.27s-15.75,19.8-24.13,31.05a748.53,748.53,0,0,0-51.17,77.47l-.23-.39h84.31a26,26,0,0,0,2.67-.07,7.12,7.12,0,0,0,4.46-2.43,12,12,0,0,0,1.38-2.21l1.27-2.32q1.27-2.31,2.52-4.6l35.53-64.76c10.12-18.42,18.32-33.33,24-43.64.68-1.3,1.44-2.49,1.93-3.67a6.94,6.94,0,0,0,.38-3.56,7.27,7.27,0,0,0-6-6.15c-.39-.07-.69-.06-.89-.09Z" style="fill:#263238"></path><path d="M703.23,435.88c0-2.12-.1-107.26-.24-261.61l.24.24-181.13,0h0l.26-.26c0,98.27,0,189-.05,261.61l-.21-.21,181.15.21-181.15.21h-.21v-.21c0-72.57,0-163.34,0-261.61V174h.28l181.13,0h.23v.23C703.32,328.62,703.23,433.77,703.23,435.88Z" style="fill:#263238"></path><rect x="536.75" y="185.01" width="55.52" height="173.54" style="fill:#fafafa"></rect><path d="M592.77,359.05H536.25V184.51h56.52Zm-55.52-1h54.52V185.51H537.25Z" style="fill:#263238"></path><rect x="631.14" y="185.01" width="58" height="173.54" style="fill:#fafafa"></rect><path d="M689.63,359.05h-59V184.51h59Zm-58-1h57V185.51h-57Z" style="fill:#263238"></path><path d="M597.49,257.75a3.69,3.69,0,1,1,3.68,3.47A3.48,3.48,0,0,1,597.49,257.75Zm5.78,0a2.1,2.1,0,1,0-2.1,2.15A2,2,0,0,0,603.27,257.75Z" style="fill:#263238"></path><path d="M611.84,256.83c0,1.5-1.12,2.43-2.91,2.43h-1.36v1.85H606v-6.72h2.91C610.72,254.39,611.84,255.32,611.84,256.83Zm-1.57,0c0-.74-.48-1.17-1.43-1.17h-1.27V258h1.27C609.79,258,610.27,257.56,610.27,256.83Z" style="fill:#263238"></path><path d="M618.15,259.86v1.25H613v-6.72H618v1.25h-3.53v1.46h3.12v1.21h-3.12v1.55Z" style="fill:#263238"></path><path d="M625.55,254.39v6.72h-1.28L620.92,257v4.08h-1.53v-6.72h1.28l3.34,4.08v-4.08Z" style="fill:#263238"></path><rect x="314.5" y="174.27" width="171.45" height="133.78" style="fill:#fff"></rect><path d="M486.45,308.55H314V173.77H486.45Zm-171.45-1H485.45V174.77H315Z" style="fill:#263238"></path><path d="M461.68,200.22s-.08.09-.25.24l-.77.66-3,2.51c-2.59,2.17-6.36,5.28-11,9.11-9.35,7.65-22.36,18.12-36.89,29.47s-27.85,21.45-37.54,28.67c-4.84,3.62-8.78,6.52-11.51,8.51l-3.15,2.28-.83.58-.29.19s.08-.09.26-.23l.8-.63,3.09-2.35L372,270.59c9.63-7.3,22.9-17.43,37.43-28.79s27.58-21.77,37-29.35l11.14-9,3-2.43c.33-.26.59-.47.8-.62S461.67,200.21,461.68,200.22Z" style="fill:#263238"></path><path d="M418.18,222.31l-.19.19-.58.52L415.13,225c-2,1.69-4.86,4.11-8.45,7.09-7.16,5.94-17.14,14.06-28.29,22.86S357,271.54,349.57,277.13c-3.72,2.79-6.74,5-8.85,6.57l-2.42,1.76-.64.45-.23.14s.06-.07.19-.19l.61-.48,2.37-1.84,8.75-6.7c7.39-5.67,17.57-13.53,28.72-22.33s21.15-16.87,28.38-22.74l8.55-7,2.34-1.88.62-.48Z" style="fill:#263238"></path><path d="M611.4,435.76c-.14,0-.26-58.71-.26-131.11s.12-131.11.26-131.11.26,58.69.26,131.11S611.54,435.76,611.4,435.76Z" style="fill:#263238"></path><circle cx="621.19" cy="275" r="7.91" style="fill:#5A99F5"></circle><path d="M626.2,275a5,5,0,1,1-5-5A5,5,0,0,1,626.2,275Z" style="fill:#fafafa"></path><circle cx="602.12" cy="275" r="7.91" style="fill:#5A99F5"></circle><circle cx="602.12" cy="275" r="5.01" style="fill:#fafafa"></circle><path d="M522.08,367.14c0,.14-96.75.26-216.07.26s-216.1-.12-216.1-.26,96.73-.26,216.1-.26S522.08,367,522.08,367.14Z" style="fill:#263238"></path><path d="M522.08,378c0,.15-97.32.26-217.36.26S87.35,378.18,87.35,378s97.3-.26,217.37-.26S522.08,377.89,522.08,378Z" style="fill:#fff"></path><polygon points="719.21 155.75 237.5 155.75 263.72 135.8 719.21 135.8 719.21 155.75" style="fill:#5A99F5"></polygon><path d="M711.5,156.3c0,.15-106.12.26-237,.26s-237-.11-237-.26,106.1-.26,237-.26S711.5,156.16,711.5,156.3Z" style="fill:#263238"></path><path d="M238.22,219.38l-.19.17-.61.46-2.35,1.75c-2,1.51-5,3.66-8.76,6.29-7.42,5.27-17.78,12.41-29.4,20s-22.3,14.26-30.09,19c-3.9,2.36-7.06,4.24-9.27,5.52L155,274l-.66.37-.24.11.21-.16.64-.41,2.49-1.55,9.18-5.65c7.74-4.78,18.38-11.48,30-19.08s22-14.7,29.47-19.89c3.71-2.58,6.72-4.68,8.85-6.15l2.41-1.67.64-.42C238.14,219.41,238.22,219.37,238.22,219.38Z" style="fill:#263238"></path><path d="M578.2,249c.11.1-5.61,5.88-12.76,12.91s-13,12.64-13.14,12.54,5.62-5.88,12.77-12.91S578.1,248.93,578.2,249Z" style="fill:#263238"></path><path d="M666.67,202.41a6.88,6.88,0,0,1-.75,1c-.51.59-1.26,1.43-2.21,2.45-1.88,2.05-4.55,4.82-7.59,7.79s-5.87,5.57-8,7.41c-1,.92-1.9,1.65-2.5,2.15a5.22,5.22,0,0,1-1,.72,5.42,5.42,0,0,1,.83-.87l2.39-2.27c2-1.91,4.81-4.55,7.85-7.51s5.73-5.69,7.69-7.67l2.32-2.34A4.54,4.54,0,0,1,666.67,202.41Z" style="fill:#263238"></path><path d="M584.08,252.42c.11.1-8.82,10-19.93,22.13s-20.22,21.87-20.32,21.78,8.81-10,19.93-22.13S584,252.32,584.08,252.42Z" style="fill:#263238"></path><path d="M295.62,365.81c-.14,0-.26-46.54-.26-103.94s.12-104,.26-104,.27,46.53.27,104S295.77,365.81,295.62,365.81Z" style="fill:#263238"></path><path d="M505,365.81c-.14,0-.26-46.54-.26-103.94s.12-104,.26-104,.26,46.53.26,104S505.12,365.81,505,365.81Z" style="fill:#263238"></path><path d="M304.71,130.67l6-3.59a86.71,86.71,0,0,1,44.51-12.3h139.1v-4.66h-53a3.47,3.47,0,0,1-3.48-3.47h0a3.48,3.48,0,0,1,3.48-3.48H685.66a3.47,3.47,0,0,1,3.47,3.48h0a3.47,3.47,0,0,1-3.47,3.47h-30v4.79l63.53.17v15.59Z" style="fill:#263238"></path></g><g id="freepik--Wall--inject-9"><rect x="19.63" y="17.06" width="39.8" height="459.75" style="fill:#e0e0e0"></rect><path d="M59.43,24.5c.15,0,.26,99.88.26,223.06s-.11,223.09-.26,223.09-.26-99.86-.26-223.09S59.29,24.5,59.43,24.5Z" style="fill:#263238"></path></g><g id="freepik--Floor--inject-9"><path d="M733.59,435.88l-1.73,0-5.09,0L707.2,436l-72,.08-237.45.08-237.5-.08-72-.08-19.57-.05-5.09,0-1.73,0,1.73,0,5.09,0,19.57-.05,72-.08,237.5-.08,237.45.08,72,.08,19.57.05,5.09,0Z" style="fill:none;stroke:#263238;stroke-miterlimit:10"></path></g><g id="freepik--character-3--inject-9"><path d="M483.84,270.4H492l12.46,35.74-19,28.14c-5.88,1.24-12.76,2.24-17.26-1.75-3.72-3.29-4.35-8.77-4.54-13.72a198.44,198.44,0,0,1,.51-23.89c.5-6,1.34-12.13,4.52-17.2S478,269,483.84,270.4" style="fill:#263238"></path><path d="M476,334.83s-.24,0-.68-.14a4,4,0,0,1-1.67-1,5.66,5.66,0,0,1-1.43-2.73,26.37,26.37,0,0,1-.48-4.15,233.32,233.32,0,0,1-.49-24.3,119.06,119.06,0,0,1,1-13.33,41.48,41.48,0,0,1,2.85-10.48,28.36,28.36,0,0,1,3.71-6.32c.54-.68,1-1.19,1.29-1.53l.35-.39a.61.61,0,0,0,.11-.14l-.14.11-.38.36c-.33.33-.79.82-1.35,1.49a27.63,27.63,0,0,0-3.85,6.3,40.86,40.86,0,0,0-3,10.54,117.72,117.72,0,0,0-1,13.38,212,212,0,0,0,.61,24.33A25.42,25.42,0,0,0,472,331a5.66,5.66,0,0,0,1.54,2.79,3.82,3.82,0,0,0,1.75,1A2.47,2.47,0,0,0,476,334.83Z" style="fill:#455a64"></path><path d="M463.41,312.54a7.66,7.66,0,0,0,7.32.69,20,20,0,0,1-3.71.19A21.45,21.45,0,0,1,463.41,312.54Z" style="fill:#455a64"></path><path d="M463.94,294.84a8,8,0,0,0,3.61,1.42,8.06,8.06,0,0,0,3.87-.09c0-.13-1.73.07-3.8-.31S464,294.73,463.94,294.84Z" style="fill:#455a64"></path><path d="M483.08,270.24s1-4-.87-4.25-7.35,2.17-6.51,4.31a16.73,16.73,0,0,0,1.87,3.54l.76-1s-1.31-1.61-1.16-2.71,3.78-3,4.34-1.9a5.26,5.26,0,0,1,.55,2.11Z" style="fill:#263238"></path><path d="M550.78,275.3l32.77.64,5.3-.46s12-.34,13.14-.52c1.32-.2,1.74.39,1.79.88.06.77-.79,1.46-1.92,1.67-.4.07-6.62,1-6.62,1a15.32,15.32,0,0,1,1.86.95c1.31.74,2.31,2.79,2.58,5s.15,2.87-.71,3a1.08,1.08,0,0,1-.9-.31,3.2,3.2,0,0,1-.85-1.64c-.72-4.24-2.41-4-2.41-4l-.74,0s1.92,2,1.54,3.82a2.33,2.33,0,0,1-.32.75,2.86,2.86,0,0,1-1,2.56,2.89,2.89,0,0,1-2.8.49c-.45-.17-.89-.54-.87-1a1.49,1.49,0,0,1,.28-.69,2.37,2.37,0,0,0,.19-.35l-2-.1s-4.4-.47-6.34-.46l-30.78,1c-4.39.46-9.13-.46-9.52-4.85h0C542.1,278,546,275,550.78,275.3Z" style="fill:#ffbe9d"></path><path d="M584.14,276.9a1.62,1.62,0,0,0,1.13,1.53c.63.27,1.33.31,2,.52,1.94.65,3.14,2.75,5.11,3.31.27.07.64.08.77-.17s0-.51-.21-.72L588.78,276" style="fill:#ffbe9d"></path><path d="M588.78,276a3.32,3.32,0,0,1,.51.54c.3.35.74.88,1.27,1.54l1.84,2.31.53.67a1.36,1.36,0,0,1,.42.93.57.57,0,0,1-.44.46,1.13,1.13,0,0,1-.55,0,5,5,0,0,1-.93-.38,25.13,25.13,0,0,1-2.88-2.23,5.41,5.41,0,0,0-1.34-.74c-.45-.16-.9-.23-1.32-.34a2.42,2.42,0,0,1-1.67-1.13c-.22-.46-.1-.75-.08-.74a1.76,1.76,0,0,0,.21.67,2.36,2.36,0,0,0,1.61.94,13.77,13.77,0,0,1,1.36.3,4.84,4.84,0,0,1,1.43.76,31,31,0,0,0,2.86,2.17,4,4,0,0,0,.84.34c.27.07.53,0,.53-.13s-.16-.41-.34-.64l-.52-.68-1.78-2.37c-.5-.67-.9-1.23-1.17-1.61A2.76,2.76,0,0,1,588.78,276Z" style="fill:#eb996e"></path><path d="M594.07,281.55a2.76,2.76,0,0,1,1.26.22,2.2,2.2,0,0,1,.95,1,5.51,5.51,0,0,1,.5,1.65,8.94,8.94,0,0,0,.43,1.73,2.82,2.82,0,0,0,.85,1.2,1.11,1.11,0,0,0,1,.21.7.7,0,0,0,.33-.17s-.13,0-.35.07a1,1,0,0,1-.84-.25,2.84,2.84,0,0,1-.75-1.15,9.35,9.35,0,0,1-.39-1.69,5.37,5.37,0,0,0-.55-1.71,2.26,2.26,0,0,0-1.08-1,2,2,0,0,0-1-.15A.73.73,0,0,0,594.07,281.55Z" style="fill:#eb996e"></path><path d="M602.29,277.42a6.21,6.21,0,0,0-1.24.17l-3,.49-3,.45a6.38,6.38,0,0,0-1.24.22,6.41,6.41,0,0,0,1.26,0c.77-.07,1.83-.2,3-.38s2.21-.39,3-.57A5.64,5.64,0,0,0,602.29,277.42Z" style="fill:#eb996e"></path><path d="M592.89,283.17s.06.13.19.34a1.18,1.18,0,0,1,.2.95.63.63,0,0,1-.47.4,3.35,3.35,0,0,1-.81.07,1.39,1.39,0,0,0-1,.29,1.19,1.19,0,0,0-.35,1,1.36,1.36,0,0,0,.57.9,1.75,1.75,0,0,0,.94.33,5.84,5.84,0,0,0,1.59-.27,3,3,0,0,0,1-.48c.2-.16.27-.29.26-.3s-.11.1-.32.22a3.82,3.82,0,0,1-1,.39,5.77,5.77,0,0,1-1.53.21,1.35,1.35,0,0,1-1.27-1,1,1,0,0,1,.26-.81,1.29,1.29,0,0,1,.8-.25,3.11,3.11,0,0,0,.86-.09.81.81,0,0,0,.57-.55,1.16,1.16,0,0,0-.28-1.05C593,283.25,592.9,283.16,592.89,283.17Z" style="fill:#eb996e"></path><path d="M591.45,287a.54.54,0,0,0-.35.09,1.1,1.1,0,0,0-.53.82,1.46,1.46,0,0,0,.64,1.3,2.35,2.35,0,0,0,1.72.35,2.87,2.87,0,0,0,1.58-.79,2.76,2.76,0,0,0,.72-1.24,2.66,2.66,0,0,0,.08-1,.9.9,0,0,0-.09-.35,4.54,4.54,0,0,1-.16,1.26,2.76,2.76,0,0,1-.71,1.13,2.64,2.64,0,0,1-1.45.7,2.18,2.18,0,0,1-1.56-.29,1.3,1.3,0,0,1-.59-1.09,1.07,1.07,0,0,1,.4-.76C591.32,287.07,591.45,287,591.45,287Z" style="fill:#eb996e"></path><path d="M586.63,283.39a1.11,1.11,0,0,0-.1-.6,2.35,2.35,0,0,0-1-1.17l0,.22a8.53,8.53,0,0,0,.81-.27,5.36,5.36,0,0,0,2.39-1.68,13.49,13.49,0,0,1-2.49,1.45,7.13,7.13,0,0,1-.77.27l-.28.08.25.14a2.46,2.46,0,0,1,1,1C586.56,283.17,586.6,283.39,586.63,283.39Z" style="fill:#eb996e"></path><path d="M597.23,281.87c0-.06-.45.25-.6.83s0,1.05.11,1,0-.45.13-1S597.28,281.92,597.23,281.87Z" style="fill:#eb996e"></path><path d="M526,254.61c.51.71,22.91,18.44,25.68,19.19s28.37,1.12,28.37,1.12,2,15.75,1.34,16.81c-2.43,3.94-31.67,14.32-45.62.25L526,256.29" style="fill:#5A99F5"></path><path d="M554.15,283.41a3.61,3.61,0,0,0,.28-1.38,12.55,12.55,0,0,0-.18-3.4,12.24,12.24,0,0,0-1.09-3.23,4.06,4.06,0,0,0-.77-1.18,29.57,29.57,0,0,1,1.47,4.48A26.66,26.66,0,0,1,554.15,283.41Z" style="fill:#263238"></path><path d="M551.72,284a4.79,4.79,0,0,0,.32-1.5,33.23,33.23,0,0,0,.15-7.37,4.72,4.72,0,0,0-.26-1.51c-.11,0,.06,2.33,0,5.19S551.61,284,551.72,284Z" style="fill:#263238"></path><g style="opacity:0.30000000000000004"><path d="M552.51,274.26a12.57,12.57,0,0,1,3.66,13.37c-.25.72-.67,1.5-1.42,1.64a1.63,1.63,0,0,1-1.66-1,4.86,4.86,0,0,1-.39-2l-.57-12.25"></path></g><polygon points="525.88 257.43 525.29 253.66 530.05 257.86 532.42 266.07 525.88 257.43" style="fill:#263238"></polygon><path d="M520.74,249.76l3.35,1.88,10.76,18.06,0,9.46s2.53,6.62,2.68,11.92,0,24.75,0,24.75l13.6,90.09-11.62,3.76-23-104.91V248.34Z" style="fill:#5A99F5"></path><g style="opacity:0.30000000000000004"><path d="M539.47,409.68l9.19-3L535.51,309s2.2-14.33,0-20.6-5.57-15.5-5.57-15.5l3.84,17.5c-.48,13.1.32,28.75,1.73,45.6H532Z"></path></g><path d="M528.58,259.18a2.83,2.83,0,0,0,.27.48c.18.31.49.75.83,1.34a41.1,41.1,0,0,1,2.58,5.18,54.32,54.32,0,0,1,2.6,8.18,89.94,89.94,0,0,1,1.73,10.37c.42,3.72.67,7.27.79,10.51s.1,6.15.08,8.6,0,4.39,0,5.81c0,.65,0,1.18,0,1.58a3.93,3.93,0,0,0,0,.55,2.39,2.39,0,0,0,0-.55c0-.4,0-.92.05-1.58,0-1.41.09-3.39.16-5.8s.09-5.38,0-8.63-.35-6.81-.76-10.53a88.46,88.46,0,0,0-1.77-10.42,52.54,52.54,0,0,0-2.7-8.2,35.92,35.92,0,0,0-2.71-5.15c-.36-.58-.69-1-.89-1.3A2.49,2.49,0,0,0,528.58,259.18Z" style="fill:#263238"></path><g style="opacity:0.30000000000000004"><path d="M542.77,296.62a54.8,54.8,0,0,0-5.83-15.33,81.15,81.15,0,0,0,.63,10.33,4,4,0,0,0,.68,2.08,4.14,4.14,0,0,0,1.24.91l3.52,2"></path></g><path d="M530.63,212.88a5,5,0,0,0-1.15-5.82,8.19,8.19,0,0,0-5.9-2,24.41,24.41,0,0,0-6.24,1.29,6.79,6.79,0,0,0-11.91,2.27,4.32,4.32,0,0,0-5.8,5l9,4.53,8,19.47a8.32,8.32,0,0,0,13.55-9.41,7.14,7.14,0,0,0,1.68-1.61,7.24,7.24,0,0,0,3.91-4A7.68,7.68,0,0,0,530.63,212.88Z" style="fill:#e0e0e0"></path><path d="M519.51,249.9c-.2-3-.35-5.1-.35-5.08s5.85-1.45,6.46-9.28c.31-3.89-.38-10.18-1.11-15.31-.66-4.61-4.19-10.06-8.77-9.21l-14.14,4.79c-1.39.26-1.79,1.49-1.65,2.9l-.06.67,2.42,22.08,1,9.86a8.15,8.15,0,0,0,8.24,7.29h0A8.15,8.15,0,0,0,519.51,249.9Z" style="fill:#ffbe9d"></path><path d="M523,226.32a1,1,0,0,1-.88,1.08,1,1,0,0,1-1.09-.81,1,1,0,0,1,.88-1.08A1,1,0,0,1,523,226.32Z" style="fill:#263238"></path><path d="M523.21,224.4c-.11.14-.91-.36-2-.27s-1.81.68-1.94.56.05-.29.37-.57a2.77,2.77,0,0,1,1.54-.61,2.57,2.57,0,0,1,1.58.38C523.14,224.11,523.27,224.34,523.21,224.4Z" style="fill:#263238"></path><path d="M513.34,227.1a1,1,0,0,1-.87,1.08,1,1,0,0,1-1.09-.82,1,1,0,0,1,.87-1.07A.94.94,0,0,1,513.34,227.1Z" style="fill:#263238"></path><path d="M513,225c-.11.14-.91-.35-2-.27s-1.8.69-1.93.57,0-.3.37-.58a2.72,2.72,0,0,1,3.12-.23C512.93,224.72,513.06,224.94,513,225Z" style="fill:#263238"></path><path d="M517.42,232.25a7.05,7.05,0,0,1,1.71-.45c.27-.05.53-.12.56-.31a1.35,1.35,0,0,0-.25-.79l-1-2a36.78,36.78,0,0,1-2.24-5.29,35.52,35.52,0,0,1,2.66,5.09l.94,2a1.55,1.55,0,0,1,.22,1.06.65.65,0,0,1-.41.43,1.83,1.83,0,0,1-.46.1A7.19,7.19,0,0,1,517.42,232.25Z" style="fill:#263238"></path><path d="M519.16,244.82a19.81,19.81,0,0,1-10.57-1.94s3,5.24,10.72,3.91Z" style="fill:#eb996e"></path><path d="M512.79,222.11c-.11.29-1.18.14-2.43.29s-2.28.48-2.44.21.1-.39.51-.67a4.09,4.09,0,0,1,1.81-.62,4,4,0,0,1,1.9.23C512.6,221.74,512.83,222,512.79,222.11Z" style="fill:#263238"></path><path d="M523,222.31c-.2.26-1.09.08-2.14.15s-1.92.32-2.14.08,0-.37.39-.63a3.54,3.54,0,0,1,3.45-.18C523,222,523.1,222.19,523,222.31Z" style="fill:#263238"></path><path d="M505.52,211.23a5.29,5.29,0,0,0,6.64,4.74c1.16-.3,2.41-1,3.48-.45s1.3,2.2,2.32,2.95c1.45,1.08,3.53-.2,5.3.18,1.37.3,2.3,1.51,3.27,2.52s2.38,1.92,3.69,1.42a15.65,15.65,0,0,0-.81-3.52,5.24,5.24,0,0,0-2.25-2.75c-.58-.32-1.24-.49-1.78-.86-1.18-.81-1.56-2.35-2.34-3.55a5.8,5.8,0,0,0-4.64-2.59c-1.53,0-3.06.54-4.58.28-1.11-.19-2.12-.83-3.25-1-2.19-.24-4.09,1.46-5.53,3.13" style="fill:#e0e0e0"></path><path d="M512.67,213.77c-1-.2-3-.67-3.6-1.47a5.94,5.94,0,0,0-5.38-2.57,4.9,4.9,0,0,0-4.11,4.2,7,7,0,0,0-5.74,4.36,8.13,8.13,0,0,0,.8,7.56,14.25,14.25,0,0,1,.93,1.81,12.29,12.29,0,0,0-1.48,1.72c-2.06,3.33,2.1,5.25,2.1,5.25-.29,2.37,1.9,2.64,3.31,2.82s1.7,4,2.81,4l.38-11.71a1.47,1.47,0,0,0,.5.16c2.64.38,2.59-4.72,1.9-6.12a15.43,15.43,0,0,0,2.4-2.94,11.06,11.06,0,0,0,.79-5.35C509.22,215.49,513.11,213.86,512.67,213.77Z" style="fill:#e0e0e0"></path><path d="M503,230.41a2.26,2.26,0,0,0-3.45-1.66c-.75.51-1.28,1.47-1.07,3.21.55,4.64,5.1,3.13,5.09,3Z" style="fill:#ffbe9d"></path><path d="M502,233.36s-.07.07-.2.15a.83.83,0,0,1-.61.08,2,2,0,0,1-1.13-1.68,2.47,2.47,0,0,1,.09-1.19.94.94,0,0,1,.53-.69.41.41,0,0,1,.5.16c.08.13.06.22.09.23s.09-.09,0-.28a.54.54,0,0,0-.22-.27.59.59,0,0,0-.46-.06,1.13,1.13,0,0,0-.76.82,2.74,2.74,0,0,0-.13,1.32,2.13,2.13,0,0,0,1.42,1.87.89.89,0,0,0,.73-.21C502,233.48,502,233.37,502,233.36Z" style="fill:#eb996e"></path><path d="M527.94,227.23s.45-.26,1.11-.89A6.83,6.83,0,0,0,531,220.4a5.69,5.69,0,0,0-1.28-2.68,6.62,6.62,0,0,0-6.26-2.08c-.22,0-.43.12-.64.18s-.4.16-.59.24l-.3.12,0-.31a2.33,2.33,0,0,0-.38-1.54,3.59,3.59,0,0,0-1.17-1.09,4.77,4.77,0,0,0-3-.6c-2,.19-3.74.86-5.3.84a5,5,0,0,1-3.4-1.15,2.79,2.79,0,0,1-.59-.79,1.27,1.27,0,0,1-.12-.32,4,4,0,0,0,.8,1,5,5,0,0,0,3.31,1,12.78,12.78,0,0,0,2.43-.38,20.19,20.19,0,0,1,2.84-.54,6.16,6.16,0,0,1,1.6,0,5,5,0,0,1,1.58.59,3.85,3.85,0,0,1,1.29,1.19,2.6,2.6,0,0,1,.44,1.79l-.26-.19c.2-.08.41-.18.63-.26s.44-.14.68-.19A6.91,6.91,0,0,1,530,217.5a5.91,5.91,0,0,1,1.33,2.85,6.89,6.89,0,0,1-.13,2.74,6.65,6.65,0,0,1-2,3.35,4.71,4.71,0,0,1-.88.63A2.08,2.08,0,0,1,527.94,227.23Z" style="fill:#fff"></path><path d="M529.05,211.32a5,5,0,0,0-1.38-.69,4,4,0,0,0-1.74-.06,3.46,3.46,0,0,0-1.94,1.06l-.2.22-.07-.29a5.3,5.3,0,0,0-3.85-3.71,6.8,6.8,0,0,0-4.25.66,19.21,19.21,0,0,1-3.46,1.26,5.11,5.11,0,0,1-2.5,0,3.44,3.44,0,0,1-.63-.26c-.13-.08-.2-.13-.19-.14s.3.13.86.26a5.37,5.37,0,0,0,2.4-.08,19.08,19.08,0,0,0,3.39-1.33,11.28,11.28,0,0,1,2.08-.7,5.31,5.31,0,0,1,2.38,0,5.55,5.55,0,0,1,4.08,4l-.27-.07a3.66,3.66,0,0,1,2.13-1.11,3.8,3.8,0,0,1,1.83.15,3.43,3.43,0,0,1,1,.56C529,211.2,529.06,211.31,529.05,211.32Z" style="fill:#fff"></path><path d="M516.76,234.51a1.55,1.55,0,0,0-1.19-.52,1.84,1.84,0,0,0-1.28.71l0,0,0,.06h0a.79.79,0,0,0-.2.51,1.28,1.28,0,0,0,.61,1,1.62,1.62,0,0,0,1.86,0A1.33,1.33,0,0,0,516.76,234.51Z" style="fill:#5A99F5"></path><path d="M514,233.64c.06,0,.15.23.38.55a2.51,2.51,0,0,0,2.66,1c.39-.09.62-.21.66-.15s-.15.26-.57.43a2.42,2.42,0,0,1-1.73,0,2.37,2.37,0,0,1-1.27-1.17C513.94,233.93,514,233.65,514,233.64Z" style="fill:#263238"></path><path d="M502.43,245.43l17.35,2.45.77,5.49s8.62,15.08,9.39,19.5,4.61,15.35,3.84,23.6,1.73,39.5,1.73,39.5h-4.42L514,294.36Z" style="fill:#263238"></path><path d="M490.44,446.28,486.09,462s14.81,8.56,14.29,11.55l-31.11-6.19,5.78-24.83Z" style="fill:#5A99F5"></path><g style="opacity:0.6000000000000001"><path d="M476.87,458.43a1.3,1.3,0,0,0-1.22,1.23,1.24,1.24,0,0,0,1.21,1.21,1.36,1.36,0,0,0,1.28-1.31,1.3,1.3,0,0,0-1.4-1.12" style="fill:#fff"></path></g><g style="opacity:0.6000000000000001"><path d="M469.27,467.4l.58-2.5,29.83,7a2.2,2.2,0,0,1,.81,1.93Z" style="fill:#fff"></path></g><path d="M486.63,462c-.05.15-.81,0-1.67.35s-1.4.84-1.53.75.31-.91,1.35-1.26S486.69,461.87,486.63,462Z" style="fill:#263238"></path><path d="M489.54,464.11c0,.15-.71.26-1.37.77s-1,1.15-1.12,1.11-.05-.91.79-1.54S489.57,464,489.54,464.11Z" style="fill:#263238"></path><path d="M490.46,468.42c-.15,0-.18-.8.41-1.53s1.36-.9,1.4-.76-.51.48-1,1.09S490.61,468.44,490.46,468.42Z" style="fill:#263238"></path><path d="M487.22,458.3c-.1.12-.74-.25-1.6-.4s-1.6,0-1.64-.18.71-.53,1.73-.35S487.32,458.2,487.22,458.3Z" style="fill:#263238"></path><g style="opacity:0.30000000000000004"><polygon points="489.58 449.4 488.81 452.21 473.67 448.46 474.26 445.9 489.58 449.4"></polygon></g><path d="M488,455.1c0,.07-.63,0-1.54-.37a7.09,7.09,0,0,1-1.5-.88,9.47,9.47,0,0,1-.78-.68,2.23,2.23,0,0,1-.38-.48.68.68,0,0,1,.12-.82.85.85,0,0,1,.75-.18,1.93,1.93,0,0,1,.56.21,6.31,6.31,0,0,1,.88.56,5.43,5.43,0,0,1,1.2,1.28c.56.83.67,1.45.61,1.47s-.31-.52-.91-1.24a6.55,6.55,0,0,0-1.2-1.11,5.89,5.89,0,0,0-.82-.48c-.3-.17-.58-.24-.7-.11s-.05.07,0,.18a1.58,1.58,0,0,0,.28.35,8.68,8.68,0,0,0,.71.66,9.15,9.15,0,0,0,1.35.93A10.75,10.75,0,0,1,488,455.1Z" style="fill:#263238"></path><path d="M487.79,455.27a2.51,2.51,0,0,1-.05-1.59,5.28,5.28,0,0,1,.61-1.64,5.84,5.84,0,0,1,.62-.84,1.32,1.32,0,0,1,1.17-.55.75.75,0,0,1,.55.59,2.05,2.05,0,0,1,0,.6,3.38,3.38,0,0,1-.25,1,3.53,3.53,0,0,1-1,1.44c-.79.66-1.46.69-1.46.63s.56-.25,1.2-.91a3.62,3.62,0,0,0,.84-1.33,3.35,3.35,0,0,0,.18-.9c0-.34,0-.64-.16-.63s-.47.14-.66.38a5,5,0,0,0-.58.74,5.69,5.69,0,0,0-.67,1.47C487.85,454.67,487.88,455.27,487.79,455.27Z" style="fill:#263238"></path><path d="M535.9,445.33l1.93,16.23s16.95,2.32,17.6,5.28l-31.14,6.05-4-25.17Z" style="fill:#5A99F5"></path><g style="opacity:0.6000000000000001"><path d="M527.93,461.71a1.31,1.31,0,0,0-.66,1.6,1.25,1.25,0,0,0,1.58.67,1.37,1.37,0,0,0,.69-1.7,1.3,1.3,0,0,0-1.72-.51" style="fill:#fff"></path></g><g style="opacity:0.6000000000000001"><path d="M524.29,472.89l-.41-2.54,30.27-4.79a2.2,2.2,0,0,1,1.48,1.48Z" style="fill:#fff"></path></g><path d="M538.32,461.32c0,.16-.74.35-1.42.95s-1,1.32-1.12,1.28-.06-1,.77-1.68S538.33,461.18,538.32,461.32Z" style="fill:#263238"></path><path d="M541.82,462.17c0,.14-.57.51-1,1.24s-.46,1.43-.61,1.45-.39-.83.15-1.73S541.79,462,541.82,462.17Z" style="fill:#263238"></path><path d="M544.29,465.82c-.13.05-.46-.68-.2-1.58s.93-1.35,1-1.23-.29.64-.49,1.38S544.44,465.78,544.29,465.82Z" style="fill:#263238"></path><path d="M537.47,457.67c-.05.15-.78.05-1.64.24s-1.49.57-1.59.46.47-.77,1.48-1S537.52,457.54,537.47,457.67Z" style="fill:#263238"></path><g style="opacity:0.30000000000000004"><polygon points="536.28 448.54 536.63 451.44 521.2 453.69 520.78 451.1 536.28 448.54"></polygon></g><path d="M537,454.4a2.85,2.85,0,0,1-1.58.24,7.35,7.35,0,0,1-1.72-.25,7,7,0,0,1-1-.34,1.76,1.76,0,0,1-.53-.29.66.66,0,0,1-.2-.8.84.84,0,0,1,.62-.46,2.44,2.44,0,0,1,.6,0,6.71,6.71,0,0,1,1,.18,5.47,5.47,0,0,1,1.59.73c.83.56,1.17,1.09,1.12,1.13s-.49-.36-1.31-.8a6,6,0,0,0-1.53-.57,5.45,5.45,0,0,0-.94-.14c-.35,0-.63,0-.69.16s0,.09.06.18a2,2,0,0,0,.39.21c.31.14.61.25.9.35a8.8,8.8,0,0,0,1.61.34A12,12,0,0,1,537,454.4Z" style="fill:#263238"></path><path d="M536.85,454.66a2.55,2.55,0,0,1-.65-1.46,5.25,5.25,0,0,1-.05-1.75,4.81,4.81,0,0,1,.25-1,1.29,1.29,0,0,1,.88-.95.75.75,0,0,1,.72.33,2,2,0,0,1,.25.55,3.66,3.66,0,0,1,.17,1.06,3.84,3.84,0,0,1-.42,1.73c-.49.9-1.1,1.19-1.12,1.14a11.59,11.59,0,0,0,.77-1.3,3.69,3.69,0,0,0,.27-1.56,3.24,3.24,0,0,0-.17-.9c-.1-.32-.27-.57-.39-.52s-.38.31-.47.6a5.39,5.39,0,0,0-.25.91,5.6,5.6,0,0,0-.06,1.61C536.68,454.07,536.93,454.62,536.85,454.66Z" style="fill:#263238"></path><path d="M512.39,397.27c0,.57,7.13,56.25,7.13,56.25l20.68-3.93-8.33-57.46Z" style="fill:#263238"></path><path d="M487.18,391.31c-.2.55-15.66,63.57-15.66,63.57l19.67,4.54,17.94-67.29Z" style="fill:#263238"></path><path d="M505.72,247.2l-4.05-1.38-7.07,9.66-1.91,31,4.89,16s-13.77,30.43-14,38-6.42,77.88-6.42,77.88l63.72,5.2L529.12,308.52s-1.55-28.21-3.33-32.43S505.72,247.2,505.72,247.2Z" style="fill:#5A99F5"></path><path d="M500.24,347.18s.09.06.25.13a4.17,4.17,0,0,0,.78.21,5.49,5.49,0,0,0,2.91-.43,7.7,7.7,0,0,0,3.29-2.86,20.92,20.92,0,0,0,2.26-4.83,30.49,30.49,0,0,0,1.63-9.5,27.46,27.46,0,0,0-.12-2.93,4.94,4.94,0,0,0-.17-1.06,5.47,5.47,0,0,0,0,1.07c0,.69.05,1.68,0,2.91a33.45,33.45,0,0,1-1.73,9.38,21.49,21.49,0,0,1-2.19,4.75,7.52,7.52,0,0,1-3.09,2.81,5.55,5.55,0,0,1-2.78.53C500.62,347.29,500.26,347.15,500.24,347.18Z" style="fill:#263238"></path><path d="M477.17,418.38l.32.05.93.09,3.6.33L495.4,420l45.48,3.77.23,0,0-.23c-.51-5-1-10.18-1.58-15.49-2.26-21.83-4.3-41.59-5.78-55.92-.76-7.14-1.37-12.92-1.8-16.94-.22-2-.39-3.53-.51-4.6-.06-.51-.11-.91-.14-1.2l-.06-.4s0,.14,0,.41.06.68.1,1.2c.1,1.07.25,2.62.44,4.61.39,4,1,9.81,1.67,16.95l5.66,55.93c.54,5.31,1.08,10.49,1.59,15.48l.21-.21-45.49-3.64-13.39-1-3.61-.26-.93-.06Z" style="fill:#263238"></path><path d="M498,250.78s0,.05.17.12l.5.31,2,1.2c.85.52,1.89,1.15,3.08,1.92.6.39,1.24.8,1.86,1.29a1.92,1.92,0,0,1,.38.36c0,.17,0,.41.07.61.05.42.1.86.17,1.3a51.24,51.24,0,0,0,1.17,5.73,28.3,28.3,0,0,0,2.39,6.3c1.16,2.14,3.22,3.69,5.13,5.36a12.72,12.72,0,0,1,2.58,2.85,5.53,5.53,0,0,1,.84,3.73,19.16,19.16,0,0,1-1.11,3.82,13.92,13.92,0,0,0-.77,3.89,18.72,18.72,0,0,0,1.3,7.32,34.4,34.4,0,0,0,3,6c1.09,1.8,2.18,3.43,3.16,4.92,2,3,3.54,5.4,4.56,7.12.51.85.89,1.53,1.15,2l.29.52.11.17a.7.7,0,0,0-.07-.19l-.26-.54c-.23-.47-.6-1.16-1.09-2-1-1.75-2.51-4.2-4.46-7.19-1-1.5-2-3.14-3.11-4.94a34.92,34.92,0,0,1-2.94-6,18.09,18.09,0,0,1-1.26-7.17,13.16,13.16,0,0,1,.76-3.78,20.23,20.23,0,0,0,1.13-3.9,6,6,0,0,0-.9-4,13.34,13.34,0,0,0-2.66-2.93c-1.93-1.69-4-3.19-5.07-5.25a28.32,28.32,0,0,1-2.39-6.2,51.28,51.28,0,0,1-1.21-5.69c-.07-.44-.13-.87-.19-1.29,0-.22,0-.4-.08-.64a1.52,1.52,0,0,0-.47-.5c-.65-.5-1.3-.9-1.9-1.28-1.2-.75-2.26-1.37-3.12-1.87l-2-1.13-.52-.28Z" style="fill:#263238"></path><path d="M499,301.74a6.3,6.3,0,0,0,1.95-.21,14.67,14.67,0,0,0,8-4.87A5.81,5.81,0,0,0,510,295a17.91,17.91,0,0,1-11,6.72Z" style="fill:#263238"></path><path d="M497.73,303.09a5,5,0,0,0,1.5.38,21.8,21.8,0,0,0,3.7.28,21.17,21.17,0,0,0,3.71-.34,5.19,5.19,0,0,0,1.48-.4c0-.12-2.32.33-5.19.34S497.75,303,497.73,303.09Z" style="fill:#263238"></path><path d="M497,253.1s5.27.08,7.1,3.19,5.49,25.71-5.49,45.28c-.5.9-1,.95-1,.95L496,297.24s3-21.79,3.43-24.19,1.16-16.49-.94-16.76a14.64,14.64,0,0,0-1.57-.1,10.82,10.82,0,0,0-6.95,2.46l-1.5,1.22A11.83,11.83,0,0,1,497,253.1Z" style="fill:#263238"></path><g style="opacity:0.30000000000000004"><path d="M500.54,262.8c5.69,10.5,6.11,23.14,4.1,34.91a8.51,8.51,0,0,1-1.44,4,3.13,3.13,0,0,1-3.8,1.05c-.95-.54-1.75-.3-2.11-1.33-1.16-3.26-2.17-7.47-3.32-10.73C496.09,281.29,498.42,272.21,500.54,262.8Z"></path></g><g style="opacity:0.30000000000000004"><path d="M511.09,329a37.72,37.72,0,0,1-2.87,22.77,13.56,13.56,0,0,1-2.91,4.35,6.06,6.06,0,0,1-4.81,1.72,6.23,6.23,0,0,1-4.64-4.26c-.54-1.5-.6-3.35.48-4.52,1.32-1.43,3.59-1.19,5.5-1.55,3.51-.64,6.24-3.58,7.62-6.87s1.62-6.93,1.86-10.49"></path></g><path d="M473.86,294.42c.18-4.76,9.24-23.55,9.24-23.55s4.21-9.35,5.2-11.24c2.15-4.1,8.16-4.53,10.33-3.29L497,279.53l-5,16.9,9.7,18.29-12.08,11.89C473.5,324.6,473.68,299.17,473.86,294.42Z" style="fill:#5A99F5"></path><path d="M477.8,297a5.83,5.83,0,0,0,2.2-.32c1.34-.33,3.09-1.11,5.09-1.58a8.58,8.58,0,0,1,2.85-.22,5.93,5.93,0,0,1,2.2.72,6,6,0,0,1,1.59,1.46s0-.22-.26-.55a4,4,0,0,0-1.18-1.15,5.63,5.63,0,0,0-2.3-.84,8.3,8.3,0,0,0-3,.19c-2.07.49-3.78,1.31-5.08,1.7S477.79,296.93,477.8,297Z" style="fill:#263238"></path><path d="M483.45,289.8a9.11,9.11,0,0,0,1.77.31,11.84,11.84,0,0,1,4,1.25,5.46,5.46,0,0,1,2.54,3.2,6.31,6.31,0,0,1,.1,1.75s.1-.16.18-.47a3.33,3.33,0,0,0,0-1.34,5.38,5.38,0,0,0-2.61-3.49,10.55,10.55,0,0,0-4.22-1.18A7,7,0,0,0,483.45,289.8Z" style="fill:#263238"></path><path d="M488.08,326.81a4.82,4.82,0,0,0,.88-.35,20,20,0,0,0,2.29-1.19,27.63,27.63,0,0,0,3.16-2.16,33,33,0,0,0,3.44-3.18,33.38,33.38,0,0,0,2.89-3.69,27.29,27.29,0,0,0,1.89-3.33,21.13,21.13,0,0,0,1-2.38,3.83,3.83,0,0,0,.27-.9c-.07,0-.53,1.24-1.52,3.15a31.25,31.25,0,0,1-1.95,3.25,35.09,35.09,0,0,1-2.88,3.63,36.12,36.12,0,0,1-3.37,3.17,33,33,0,0,1-3.08,2.2C489.27,326.18,488.05,326.74,488.08,326.81Z" style="fill:#263238"></path><path d="M492,296.43a17.14,17.14,0,0,0,1-2.46c.53-1.54,1.23-3.67,1.92-6.06s1.25-4.56,1.61-6.15a16.47,16.47,0,0,0,.49-2.59,18.43,18.43,0,0,0-.76,2.52c-.43,1.57-1,3.73-1.72,6.11s-1.32,4.42-1.81,6.08A18.41,18.41,0,0,0,492,296.43Z" style="fill:#263238"></path><path d="M501.67,314.72c.09-.05-2-4.19-4.67-9.24s-4.93-9.1-5-9.05,2,4.19,4.67,9.24S501.57,314.77,501.67,314.72Z" style="fill:#263238"></path><path d="M508.12,409.36c.11,0-.48-7.4-1.31-16.5s-1.6-16.48-1.71-16.47.48,7.4,1.31,16.51S508,409.37,508.12,409.36Z" style="fill:#263238"></path><path d="M501,412.37a67.76,67.76,0,0,0,1.66-7.14,67,67,0,0,0,1.27-7.22A135,135,0,0,0,501,412.37Z" style="fill:#263238"></path></g></svg>