<svg id="Group_704" data-name="Group 704" xmlns="http://www.w3.org/2000/svg" width="26.114" height="25.509" viewBox="0 0 26.114 25.509">
  <g id="Group_103" data-name="Group 103" transform="translate(0)">
    <g id="Group_101" data-name="Group 101">
      <rect id="Rectangle_140" data-name="Rectangle 140" width="13.79" height="11.032" rx="5.516" transform="translate(1.923 4.135)" fill="#ededed"/>
      <g id="Screenshot_2022-01-10_at_4.13.26_PM" data-name="Screenshot 2022-01-10 at 4.13.26 PM">
        <path id="Path_158" data-name="Path 158" d="M166.435-513.8a2.5,2.5,0,0,0-1.279.747,1.125,1.125,0,0,0-.156.247c0,.026.11.045.247.045a.482.482,0,0,0,.37-.13,1.88,1.88,0,0,1,1.162-.325l.4.007.675.9c.669.9.714.948,1.026.857.136-.045.123-.071-.247-.558s-.383-.539-.383-.863v-.344h5.064v.344c0,.325-.026.383-.383.863s-.383.513-.247.558c.312.091.357.045,1.026-.857l.675-.9.39-.007a1.8,1.8,0,0,1,1.1.292c.221.149.688.227.688.117a1.125,1.125,0,0,0-.156-.247,2.466,2.466,0,0,0-1.3-.747c-.48-.123-.714-.13-4.343-.123C167.168-513.924,166.883-513.918,166.435-513.8Z" transform="translate(-162.182 513.926)" fill="#222221"/>
        <path id="Path_159" data-name="Path 159" d="M128.767-447.53c-3.648.351-5.784,1.675-6.687,4.142a8.013,8.013,0,0,0-.48,3.291c0,3.545.883,7.368,2.071,8.965A6.972,6.972,0,0,0,126.995-429a8.723,8.723,0,0,0,3.2.454,8.661,8.661,0,0,0,3.376-.519,6.845,6.845,0,0,0,3-1.889c1.22-1.6,2.1-5.012,2.24-8.654.123-3.4-.915-5.648-3.168-6.843a8.968,8.968,0,0,0-3.207-.98A22.367,22.367,0,0,0,128.767-447.53Zm4.434,1.974c1.759.338,2.766.935,3.259,1.948a4.288,4.288,0,0,1,.331,2.24c-.123,2.266-1.006,4.3-2.155,4.973a9.446,9.446,0,0,1-4.479.876c-2.272,0-4.148-.493-4.966-1.311a7.2,7.2,0,0,1-1.565-4.22c-.156-1.636.117-2.642.909-3.369a5.331,5.331,0,0,1,2.869-1.156c.305-.039.623-.084.714-.1s1.143-.019,2.337-.013A17.916,17.916,0,0,1,133.2-445.557Zm-7.213,10.686c.617.175.889.649.9,1.545,0,.682-.1.974-.454,1.266a1.666,1.666,0,0,1-1.279.3c-.532-.026-.623-.045-.87-.221a1.372,1.372,0,0,1-.565-1.279,1.479,1.479,0,0,1,.136-.915,1.162,1.162,0,0,1,.727-.682A3.794,3.794,0,0,1,125.989-434.871Zm9.8.013a1.129,1.129,0,0,1,.753.682,1.479,1.479,0,0,1,.136.915,1.372,1.372,0,0,1-.565,1.279c-.247.175-.338.195-.87.221a1.666,1.666,0,0,1-1.279-.3c-.351-.292-.454-.584-.454-1.266.007-.876.234-1.3.825-1.513A3.333,3.333,0,0,1,135.785-434.858Z" transform="translate(-121.6 450.317)" fill="#f3b73f"/>
        <path id="Path_160" data-name="Path 160" d="M133.306-134.039c-.695,1.071-1.318,2.038-1.383,2.136l-.123.188h2.525l.318-.682.312-.682h9.556l.312.682.318.682h2.525l-.123-.188a33.494,33.494,0,0,0-2.746-4.07c-.052.019-.357.123-.682.234s-.617.214-.662.227-.019.156.11.448a1.772,1.772,0,0,1,.195.753v.325h-8.05v-.325a1.8,1.8,0,0,1,.195-.76,2.968,2.968,0,0,0,.182-.441c-.013-.006-.208-.065-.435-.123a6.714,6.714,0,0,1-.7-.24,3.379,3.379,0,0,0-.331-.123C134.592-136,134-135.117,133.306-134.039Z" transform="translate(-131.138 157.224)" fill="#3d2c00"/>
      </g>
    </g>
  </g>
  <g id="Group_104" data-name="Group 104" transform="translate(8.963 3.036)">
    <path id="Path_161" data-name="Path 161" d="M7.24,3c4,0,7.24,1.173,7.24,5.171A7.24,7.24,0,0,1,0,8.171C0,4.173,3.241,3,7.24,3Z" transform="translate(0.604 -0.932)" fill="#f7f7f7"/>
    <g id="cancel" transform="translate(0 0)">
      <g id="Group_17" data-name="Group 17" transform="translate(0)">
        <path id="Path_122" data-name="Path 122" d="M14.642,2.514a8.575,8.575,0,1,0,0,12.134A8.589,8.589,0,0,0,14.642,2.514Zm-2.528,8.595A.715.715,0,1,1,11.1,12.119L8.576,9.591,6.049,12.119a.715.715,0,1,1-1.011-1.011L7.565,8.58,5.038,6.053A.715.715,0,0,1,6.048,5.042L8.576,7.569,11.1,5.042a.715.715,0,1,1,1.011,1.011L9.587,8.58Z" transform="translate(0 -0.005)" fill="#d75858"/>
      </g>
    </g>
  </g>
</svg>
