<svg xmlns="http://www.w3.org/2000/svg" width="20.516" height="20.347" viewBox="0 0 20.516 20.347">
  <g id="Group_263" data-name="Group 263" transform="translate(-24588 -5993)">
    <path id="iconmonstr-check-mark-6" d="M19.946,10.238a1.989,1.989,0,0,1-.336-2.331A1.988,1.988,0,0,0,18.3,5.031a1.987,1.987,0,0,1-1.541-1.779,1.988,1.988,0,0,0-2.66-1.709A1.987,1.987,0,0,1,11.836.88a1.989,1.989,0,0,0-3.162,0,1.982,1.982,0,0,1-2.256.664A1.987,1.987,0,0,0,3.759,3.253,1.987,1.987,0,0,1,2.218,5.032,1.987,1.987,0,0,0,.905,7.906,1.99,1.99,0,0,1,.57,10.238a1.986,1.986,0,0,0,.45,3.129A1.987,1.987,0,0,1,2,15.507,1.987,1.987,0,0,0,4.067,17.9a1.988,1.988,0,0,1,1.981,1.273,1.988,1.988,0,0,0,3.033.891,1.985,1.985,0,0,1,2.354,0,1.989,1.989,0,0,0,3.034-.891,1.986,1.986,0,0,1,1.98-1.273,1.987,1.987,0,0,0,2.069-2.388,1.987,1.987,0,0,1,.979-2.141,1.987,1.987,0,0,0,.45-3.129Z" transform="translate(24588 5992.902)" fill="#ea310f"/>
    <path id="_211652_close_icon_1_" data-name="211652_close_icon (1)" d="M73.836,72.608,70.42,69.179l3.424-3.385a.361.361,0,0,0,0-.51L72.87,64.3a.358.358,0,0,0-.255-.1.37.37,0,0,0-.255.1l-3.409,3.375-3.414-3.372a.358.358,0,0,0-.255-.1.37.37,0,0,0-.255.1l-.971.979a.361.361,0,0,0,0,.51l3.424,3.385-3.414,3.427a.361.361,0,0,0-.107.255.35.35,0,0,0,.107.255l.974.979a.359.359,0,0,0,.255.107.353.353,0,0,0,.255-.107l3.4-3.416,3.4,3.414a.359.359,0,0,0,.255.107.353.353,0,0,0,.255-.107l.974-.979a.361.361,0,0,0,.107-.255A.373.373,0,0,0,73.836,72.608Z" transform="translate(24529.051 5933.8)" fill="#fff"/>
  </g>
</svg>
