<svg xmlns="http://www.w3.org/2000/svg" width="14.928" height="14.804" viewBox="0 0 14.928 14.804">
  <path id="iconmonstr-check-mark-6" d="M14.512,7.475a1.447,1.447,0,0,1-.244-1.7,1.447,1.447,0,0,0-.956-2.092A1.445,1.445,0,0,1,12.19,2.393,1.447,1.447,0,0,0,10.255,1.15,1.446,1.446,0,0,1,8.612.667a1.447,1.447,0,0,0-2.3,0A1.442,1.442,0,0,1,4.67,1.15,1.446,1.446,0,0,0,2.735,2.394,1.446,1.446,0,0,1,1.614,3.688,1.446,1.446,0,0,0,.658,5.779a1.448,1.448,0,0,1-.244,1.7A1.445,1.445,0,0,0,.742,9.752a1.446,1.446,0,0,1,.712,1.558,1.446,1.446,0,0,0,1.506,1.738,1.447,1.447,0,0,1,1.441.926,1.447,1.447,0,0,0,2.207.648,1.444,1.444,0,0,1,1.713,0,1.447,1.447,0,0,0,2.207-.648,1.445,1.445,0,0,1,1.44-.926,1.446,1.446,0,0,0,1.506-1.738,1.446,1.446,0,0,1,.712-1.558,1.446,1.446,0,0,0,.327-2.276ZM6.686,10.853l-2.8-2.714L5.042,6.984,6.686,8.542l3.51-3.6L11.35,6.1Z" transform="translate(0 -0.098)" fill="#397ff4"/>
</svg>
