<svg xmlns="http://www.w3.org/2000/svg" width="21.287" height="25.616" viewBox="0 0 21.287 25.616">
  <g id="click-2387" transform="translate(17.656 156.516) rotate(34)">
    <g id="Group_428" data-name="Group 428" transform="translate(-94.776 -126.036)">
      <path id="Path_929" data-name="Path 929" d="M76.147,38.815h-.119a1.686,1.686,0,0,0-.776.188,1.7,1.7,0,0,0-1.674-1.413h-.119a1.689,1.689,0,0,0-.86.234,1.7,1.7,0,0,0-1.591-1.1h-.119a1.689,1.689,0,0,0-.753.176V34.288a1.7,1.7,0,0,0-1.7-1.7H68.32a1.7,1.7,0,0,0-1.7,1.7V40.77l-.823.624a2.869,2.869,0,0,0-.5,4.09l2.507,3.1V49.83A1.289,1.289,0,0,0,69.1,51.117h6.226A1.289,1.289,0,0,0,76.61,49.83V48.646a5.6,5.6,0,0,0,1.234-3.5V40.513A1.7,1.7,0,0,0,76.147,38.815Zm.753,6.33a4.657,4.657,0,0,1-1.12,3.023.471.471,0,0,0-.113.307V49.83a.342.342,0,0,1-.341.341H69.1a.342.342,0,0,1-.341-.341V48.416a.473.473,0,0,0-.105-.3l-2.613-3.229a1.924,1.924,0,0,1,.332-2.742l.251-.19v1.58a.473.473,0,0,0,.946,0V34.288a.753.753,0,0,1,.753-.753h.119a.753.753,0,0,1,.753.753v4.13h0l0,3.436a.473.473,0,0,0,.473.472h0a.473.473,0,0,0,.473-.473l0-3.435a.753.753,0,0,1,.753-.752h.119a.753.753,0,0,1,.753.752v.87h0l0,2.566a.473.473,0,0,0,.473.472h0a.473.473,0,0,0,.472-.473l0-2.565a.753.753,0,0,1,.753-.752h.119a.753.753,0,0,1,.753.752v1.088a.411.411,0,0,0,0,.051l0,1.427a.473.473,0,0,0,.473.472h0a.473.473,0,0,0,.472-.474l0-1.292a.46.46,0,0,0,0-.048.753.753,0,0,1,.752-.753h.119a.753.753,0,0,1,.753.753v4.631Z" transform="translate(-61.844 -29.839)" fill="#397df2"/>
      <path id="Path_930" data-name="Path 930" d="M61.11,6.368a.473.473,0,0,1-.4-.223,4.022,4.022,0,1,1,7.083-.468.473.473,0,1,1-.862-.389,3.076,3.076,0,1,0-5.419.358.473.473,0,0,1-.4.723Z" transform="translate(-57.668)" fill="#397df2"/>
      <path id="Path_931" data-name="Path 931" d="M166.128,19.371a.473.473,0,0,1-.4-.72,4.006,4.006,0,0,0,.006-4.05.473.473,0,1,1,.808-.492,4.95,4.95,0,0,1-.008,5.037A.473.473,0,0,1,166.128,19.371Z" transform="translate(-154.311 -12.71)" fill="#397df2"/>
      <path id="Path_932" data-name="Path 932" d="M32.357,19.368a.472.472,0,0,1-.4-.226,4.947,4.947,0,0,1-.009-5.037.473.473,0,0,1,.808.492,4,4,0,0,0,.007,4.05.472.472,0,0,1-.156.65A.463.463,0,0,1,32.357,19.368Z" transform="translate(-31.26 -12.707)" fill="#397df2"/>
    </g>
  </g>
</svg>
