<svg width="14" height="14" viewBox="0 0 14 14" fill="none" xmlns="http://www.w3.org/2000/svg">
<path fill-rule="evenodd" clip-rule="evenodd" d="M8.75 0.726563H6.38377C5.31173 0.726551 4.46261 0.726545 3.79807 0.815894C3.11416 0.907839 2.56061 1.10158 2.12406 1.53812C1.68751 1.97467 1.49378 2.52822 1.40183 3.21213C1.31248 3.87667 1.31249 4.72579 1.3125 5.79781V9.33073C1.3125 10.4228 2.11286 11.3281 3.15905 11.4918C3.23953 11.9375 3.39356 12.3179 3.7032 12.6276C4.05432 12.9787 4.49641 13.1297 5.02148 13.2003C5.52721 13.2682 6.17021 13.2682 6.96797 13.2682H8.78202C9.57979 13.2682 10.2228 13.2682 10.7285 13.2003C11.2536 13.1297 11.6957 12.9787 12.0468 12.6276C12.3979 12.2764 12.549 11.8343 12.6195 11.3093C12.6875 10.8035 12.6875 10.1605 12.6875 9.36275V6.38204C12.6875 5.58429 12.6875 4.94127 12.6195 4.43554C12.549 3.91048 12.3979 3.46839 12.0468 3.11727C11.7371 2.80762 11.3567 2.65359 10.9111 2.57311C10.7473 1.52693 9.84212 0.726563 8.75 0.726563ZM9.99209 2.48891C9.81546 1.9727 9.3261 1.60156 8.75 1.60156H6.41667C5.30435 1.60156 4.51413 1.60249 3.91466 1.68309C3.32778 1.76199 2.98965 1.90997 2.74278 2.15684C2.4959 2.40371 2.34793 2.74184 2.26903 3.32873C2.18843 3.92819 2.1875 4.71842 2.1875 5.83073V9.33073C2.1875 9.90683 2.55864 10.3962 3.07485 10.5728C3.06249 10.217 3.06249 9.81472 3.0625 9.36275V6.38204C3.06249 5.58429 3.06248 4.94127 3.13047 4.43554C3.20107 3.91048 3.35208 3.46839 3.7032 3.11727C4.05432 2.76615 4.49641 2.61513 5.02148 2.54453C5.52721 2.47654 6.17021 2.47655 6.96797 2.47656H8.78202C9.23399 2.47656 9.63632 2.47655 9.99209 2.48891ZM4.32192 3.73599C4.48337 3.57454 4.71004 3.46928 5.13807 3.41173C5.57869 3.35249 6.16268 3.35156 7 3.35156H8.75C9.58732 3.35156 10.1713 3.35249 10.6119 3.41173C11.04 3.46928 11.2666 3.57454 11.4281 3.73599C11.5895 3.89743 11.6948 4.1241 11.7524 4.55213C11.8116 4.99275 11.8125 5.57673 11.8125 6.41406V9.33073C11.8125 10.168 11.8116 10.752 11.7524 11.1927C11.6948 11.6207 11.5895 11.8473 11.4281 12.0088C11.2666 12.1703 11.04 12.2755 10.6119 12.3331C10.1713 12.3923 9.58732 12.3932 8.75 12.3932H7C6.16268 12.3932 5.57869 12.3923 5.13807 12.3331C4.71004 12.2755 4.48337 12.1703 4.32192 12.0088C4.16048 11.8473 4.05522 11.6207 3.99767 11.1927C3.93843 10.752 3.9375 10.168 3.9375 9.33073V6.41406C3.9375 5.57673 3.93843 4.99275 3.99767 4.55213C4.05522 4.1241 4.16048 3.89743 4.32192 3.73599Z" fill="#2A419D"/>
</svg>
