<svg xmlns="http://www.w3.org/2000/svg" viewBox="0 0 500 500"><g id="freepik--background-complete--inject-15"><rect y="382.4" width="500" height="0.25" style="fill:#ebebeb"></rect><rect x="416.78" y="398.49" width="33.12" height="0.25" style="fill:#ebebeb"></rect><rect x="322.53" y="401.21" width="8.69" height="0.25" style="fill:#ebebeb"></rect><rect x="396.59" y="389.21" width="19.19" height="0.25" style="fill:#ebebeb"></rect><rect x="52.46" y="390.89" width="43.19" height="0.25" style="fill:#ebebeb"></rect><rect x="104.56" y="390.89" width="6.33" height="0.25" style="fill:#ebebeb"></rect><rect x="131.47" y="395.11" width="93.68" height="0.25" style="fill:#ebebeb"></rect><path d="M237,337.8H43.91a5.71,5.71,0,0,1-5.7-5.71V60.66A5.71,5.71,0,0,1,43.91,55H237a5.71,5.71,0,0,1,5.71,5.71V332.09A5.71,5.71,0,0,1,237,337.8ZM43.91,55.2a5.46,5.46,0,0,0-5.45,5.46V332.09a5.46,5.46,0,0,0,5.45,5.46H237a5.47,5.47,0,0,0,5.46-5.46V60.66A5.47,5.47,0,0,0,237,55.2Z" style="fill:#ebebeb"></path><path d="M453.31,337.8H260.21a5.72,5.72,0,0,1-5.71-5.71V60.66A5.72,5.72,0,0,1,260.21,55h193.1A5.71,5.71,0,0,1,459,60.66V332.09A5.71,5.71,0,0,1,453.31,337.8ZM260.21,55.2a5.47,5.47,0,0,0-5.46,5.46V332.09a5.47,5.47,0,0,0,5.46,5.46h193.1a5.47,5.47,0,0,0,5.46-5.46V60.66a5.47,5.47,0,0,0-5.46-5.46Z" style="fill:#ebebeb"></path><polygon points="417 93.2 195.02 93.2 261.58 196.8 400.89 196.8 417 93.2" style="fill:#e0e0e0"></polygon><rect x="386.94" y="97.39" width="17.21" height="286.08" style="fill:#f0f0f0"></rect><rect x="195.02" y="84.01" width="221.98" height="9.19" style="fill:#ebebeb"></rect><rect x="306.1" y="119.3" width="3.41" height="45.14" style="fill:#f0f0f0"></rect><rect x="249.1" y="119.3" width="3.41" height="45.14" style="fill:#f0f0f0"></rect><rect x="245.73" y="157.79" width="67.16" height="24.92" style="fill:#f0f0f0"></rect><path d="M106,163.73q4,4.46,8.13,8.9H100.26C79,151.41,66.68,137.55,66.68,137.55l15.53-.6Q94,150.47,106,163.73Z" style="fill:#f0f0f0"></path><path d="M136.38,172.63H121.81q-5.66-6.44-11.27-12.91-9.9-11.47-19.65-23.1l16.83-.65Q122.72,155.71,136.38,172.63Z" style="fill:#f0f0f0"></path><path d="M155.54,216l2,2h-9.36c-10.28-9.25-19.81-18.12-28.44-26.37h12.15q6.74,7.11,13.57,14.13C148.74,209.22,152.17,212.59,155.54,216Z" style="fill:#f0f0f0"></path><path d="M174.42,218h-11l-4.75-5c-3.27-3.49-6.61-6.92-9.83-10.45q-5.06-5.42-10-10.9h13.12Q163.84,205.95,174.42,218Z" style="fill:#f0f0f0"></path><path d="M186.59,246.07c.53.49,1.06,1,1.6,1.46h-5.95Q172,239,162.44,230.65h7.91c1.91,1.86,3.81,3.71,5.74,5.55Z" style="fill:#f0f0f0"></path><path d="M201.23,247.53H193l-4.08-3.9-10.22-10.06c-1-1-1.93-1.94-2.89-2.92h9.89Q194,239.88,201.23,247.53Z" style="fill:#f0f0f0"></path><path d="M196.35,254.91q7.8,7,15.79,13.72h-3.78q-8.76-6.86-17.17-13.72Z" style="fill:#f0f0f0"></path><path d="M231.07,277.59H220q7.37,5.6,14.94,11.12h8.41S239.07,285.16,231.07,277.59Z" style="fill:#f0f0f0"></path><path d="M221.8,268.63H216q-7.71-6.72-15.2-13.72h7.45Q215.79,262.73,221.8,268.63Z" style="fill:#f0f0f0"></path><path d="M195.26,275.7h39.91a28.11,28.11,0,0,1,28.11,28.11V382.5a0,0,0,0,1,0,0H167.15a0,0,0,0,1,0,0V303.81A28.11,28.11,0,0,1,195.26,275.7Z" style="fill:#e0e0e0"></path><rect x="313.57" y="189.41" width="1.56" height="20.59" style="fill:#e0e0e0"></rect><rect x="287.58" y="189.41" width="1.56" height="20.59" style="fill:#e0e0e0"></rect><rect x="286.04" y="206.96" width="30.63" height="11.37" style="fill:#e0e0e0"></rect></g><g id="freepik--Shadow--inject-15"><ellipse id="freepik--path--inject-15" cx="250" cy="416.24" rx="193.89" ry="11.32" style="fill:#f5f5f5"></ellipse></g><g id="freepik--Train--inject-15"><path d="M234.87,324.09l-2-1.46a35.69,35.69,0,0,0-3.21-2.13c-23.36-18.13-40.94-57.94-45.38-67.52a14.3,14.3,0,0,0-3.43-4.49L178.5,271l-3.09,116.07h11.28l.36,5.06c29.87-3.82,49.83-5.06,49.83-5.06v-59A5,5,0,0,0,234.87,324.09Z" style="fill:#0B74FA"></path><path d="M234.87,324.09l-2-1.46a35.69,35.69,0,0,0-3.21-2.13c-23.36-18.13-40.94-57.94-45.38-67.52a14.3,14.3,0,0,0-3.43-4.49L178.5,271l-3.09,116.07h11.28l.36,5.06c29.87-3.82,49.83-5.06,49.83-5.06v-59A5,5,0,0,0,234.87,324.09Z" style="fill:#fff;opacity:0.6000000000000001;isolation:isolate"></path><path d="M205.49,304.81a212.09,212.09,0,0,1-14.11-22.1.62.62,0,0,0-1.16.31v66.81a.61.61,0,0,0,.76.6l2.5-.6.07,0c4.07-.49,7.91-.92,11.51-1.32a.61.61,0,0,0,.55-.61V305.17A.6.6,0,0,0,205.49,304.81Z" style="opacity:0.05"></path><path d="M219.76,321.16a115,115,0,0,1-11.48-12.7.62.62,0,0,0-1.11.38v38.73a.63.63,0,0,0,.7.62c4.25-.45,8.11-.83,11.53-1.16a.61.61,0,0,0,.56-.61V321.6A.6.6,0,0,0,219.76,321.16Z" style="opacity:0.05"></path><path d="M228.73,328.24a27.3,27.3,0,0,0-2.57-1.71l-.39-.23-.35-.27c-1.24-1-2.45-2-3.65-3a.62.62,0,0,0-1,.46v22.77a.63.63,0,0,0,.68.62c3.06-.28,5.72-.51,7.9-.69a.61.61,0,0,0,.56-.62V329.4a.6.6,0,0,0-.25-.49Z" style="opacity:0.05"></path><path d="M128.37,228.84H102.22A79.11,79.11,0,0,0,54.84,244.6l-4.4,3.28a11.32,11.32,0,0,0-4.53,9.05V390.05H184.69V256.93a11.3,11.3,0,0,0-4.54-9.05l-4.39-3.28A79.14,79.14,0,0,0,128.37,228.84Z" style="fill:#0B74FA"></path><path d="M128.37,228.84H102.22A79.11,79.11,0,0,0,54.84,244.6l-4.4,3.28a11.32,11.32,0,0,0-4.53,9.05V390.05H184.69V256.93a11.3,11.3,0,0,0-4.54-9.05l-4.39-3.28A79.14,79.14,0,0,0,128.37,228.84Z" style="fill:#fff;opacity:0.7000000000000001;isolation:isolate"></path><rect x="41.45" y="381.28" width="147.69" height="10.83" rx="2.09" style="fill:#0B74FA"></rect><rect x="96.84" y="270.98" width="36.92" height="108.77" style="opacity:0.1;isolation:isolate"></rect><g style="opacity:0.1;isolation:isolate"><rect x="143.76" y="270.98" width="30.07" height="39.91" rx="7.21"></rect><rect x="56.76" y="270.98" width="30.07" height="39.91" rx="7.21"></rect></g><rect x="106.49" y="280.79" width="17.61" height="26.29" rx="3.82" style="opacity:0.1;isolation:isolate"></rect><circle cx="171.3" cy="345.07" r="5.48" style="opacity:0.2"></circle><path d="M174,345.07a2.74,2.74,0,1,1-2.74-2.74A2.74,2.74,0,0,1,174,345.07Z" style="fill:#fff;opacity:0.7000000000000001;isolation:isolate"></path><circle cx="171.3" cy="359.07" r="5.48" style="opacity:0.2"></circle><circle cx="59.3" cy="345.07" r="5.48" style="opacity:0.2"></circle><path d="M62,345.07a2.74,2.74,0,1,1-2.74-2.74A2.74,2.74,0,0,1,62,345.07Z" style="fill:#fff;opacity:0.7000000000000001;isolation:isolate"></path><circle cx="59.3" cy="359.07" r="5.48" style="opacity:0.2"></circle><path d="M135.51,342.33H94.2A1.37,1.37,0,0,1,92.83,341h0a1.37,1.37,0,0,1,1.37-1.37h41.31a1.37,1.37,0,0,1,1.37,1.37h0A1.37,1.37,0,0,1,135.51,342.33Z" style="fill:#0B74FA"></path><path d="M135.51,357.33H94.2A1.37,1.37,0,0,1,92.83,356h0a1.37,1.37,0,0,1,1.37-1.37h41.31a1.37,1.37,0,0,1,1.37,1.37h0A1.37,1.37,0,0,1,135.51,357.33Z" style="fill:#0B74FA"></path><path d="M135.51,372.33H94.2A1.37,1.37,0,0,1,92.83,371h0a1.37,1.37,0,0,1,1.37-1.37h41.31a1.37,1.37,0,0,1,1.37,1.37h0A1.37,1.37,0,0,1,135.51,372.33Z" style="fill:#0B74FA"></path><g style="opacity:0.5;isolation:isolate"><path d="M135.51,342.33H94.2A1.37,1.37,0,0,1,92.83,341h0a1.37,1.37,0,0,1,1.37-1.37h41.31a1.37,1.37,0,0,1,1.37,1.37h0A1.37,1.37,0,0,1,135.51,342.33Z" style="fill:#fff"></path><path d="M135.51,357.33H94.2A1.37,1.37,0,0,1,92.83,356h0a1.37,1.37,0,0,1,1.37-1.37h41.31a1.37,1.37,0,0,1,1.37,1.37h0A1.37,1.37,0,0,1,135.51,357.33Z" style="fill:#fff"></path><path d="M135.51,372.33H94.2A1.37,1.37,0,0,1,92.83,371h0a1.37,1.37,0,0,1,1.37-1.37h41.31a1.37,1.37,0,0,1,1.37,1.37h0A1.37,1.37,0,0,1,135.51,372.33Z" style="fill:#fff"></path></g><rect x="41.45" y="381.28" width="147.69" height="10.83" rx="2.09" style="fill:#fff;opacity:0.5;isolation:isolate"></rect></g><g id="freepik--Station--inject-15"><path d="M417.39,326.85v59.06l-28.79-.45-9.15-.14V371.15a7.15,7.15,0,0,1,.87-3.44l5.79-10.62a5.28,5.28,0,0,1,2.49-2.3,5.22,5.22,0,0,1,2.15-.46h19.17V335a5.24,5.24,0,0,1,.76-2.72l3.7-6.13.05-.08a1.57,1.57,0,0,1,1.37-.78A1.59,1.59,0,0,1,417.39,326.85Z" style="fill:#0B74FA"></path><path d="M417.39,326.85v59.06l-28.79-.45-9.15-.14V371.15a7.15,7.15,0,0,1,.87-3.44l5.79-10.62a5.28,5.28,0,0,1,2.49-2.3,5.22,5.22,0,0,1,2.15-.46h19.17V335a5.24,5.24,0,0,1,.76-2.72l3.7-6.13.05-.08a1.57,1.57,0,0,1,1.37-.78A1.59,1.59,0,0,1,417.39,326.85Z" style="fill:#fff;opacity:0.7000000000000001;isolation:isolate"></path><path d="M417.39,326.85v59.06l-28.79-.45V354.79a5.22,5.22,0,0,1,2.15-.46h23.63V326.12l.05-.08a1.57,1.57,0,0,1,1.37-.78A1.59,1.59,0,0,1,417.39,326.85Z" style="fill:#fff;opacity:0.4;isolation:isolate"></path><path d="M238,382.44H443L458.4,392H196.05S222.57,382.44,238,382.44Z" style="fill:#0B74FA"></path><path d="M238,382.44H443L458.4,392H196.05S222.57,382.44,238,382.44Z" style="fill:#fff;opacity:0.8;isolation:isolate"></path><path d="M198.7,392.07a189.59,189.59,0,0,1,41.08-9.61s-20.4-1.08-51.39,9.61Z" style="fill:#0B74FA;isolation:isolate"></path><path d="M198.7,392.07a189.59,189.59,0,0,1,41.08-9.61s-20.4-1.08-51.39,9.61Z" style="fill:#fff;opacity:0.5;isolation:isolate"></path><path d="M420.4,375.11a11.91,11.91,0,0,1,.39-10.79c3.17-5.36,4.09-6.62,2.07-7.72s-2.95,4.29-2.95,4.29a11,11,0,0,1-.3-7.58c1.41-3.88,2.3-10.19.37-10.87s-.36,7.88-2,10.79a23,23,0,0,1-1.63-6.36c-.23-3.11.13-8.08-1.39-9.35s-2.49-.4-1,6.47a64.87,64.87,0,0,1,1.48,12.46s-3.3-9-5.51-9.28-2.21,2.66-.31,5.19,5.54,7.06,6.14,9.4c0,0-3.62-6.78-6.87-4.7s2.83,6.17,5.54,7.65,4.6,10.76,4.6,10.76Z" style="fill:#0B74FA"></path><path d="M420.4,375.11a11.91,11.91,0,0,1,.39-10.79c3.17-5.36,4.09-6.62,2.07-7.72s-2.95,4.29-2.95,4.29a11,11,0,0,1-.3-7.58c1.41-3.88,2.3-10.19.37-10.87s-.36,7.88-2,10.79a23,23,0,0,1-1.63-6.36c-.23-3.11.13-8.08-1.39-9.35s-2.49-.4-1,6.47a64.87,64.87,0,0,1,1.48,12.46s-3.3-9-5.51-9.28-2.21,2.66-.31,5.19,5.54,7.06,6.14,9.4c0,0-3.62-6.78-6.87-4.7s2.83,6.17,5.54,7.65,4.6,10.76,4.6,10.76Z" style="fill:#fff;opacity:0.6000000000000001;isolation:isolate"></path><path d="M418.2,377.34a11.91,11.91,0,0,0-.54-10.79c-3.24-5.31-4.18-6.56-2.17-7.69s3,4.25,3,4.25a11,11,0,0,0,.19-7.58c-1.46-3.86-2.42-10.16-.51-10.86s.47,7.87,2.18,10.76a23,23,0,0,0,1.55-6.38c.19-3.11-.24-8.08,1.26-9.38s2.49-.42,1.09,6.47a65,65,0,0,0-1.32,12.47s3.18-9.05,5.38-9.35,2.25,2.63.39,5.19-5.45,7.13-6,9.48c0,0,3.53-6.83,6.81-4.8s-2.75,6.21-5.44,7.73-4.45,10.82-4.45,10.82Z" style="fill:#0B74FA"></path><path d="M418.2,377.34a11.91,11.91,0,0,0-.54-10.79c-3.24-5.31-4.18-6.56-2.17-7.69s3,4.25,3,4.25a11,11,0,0,0,.19-7.58c-1.46-3.86-2.42-10.16-.51-10.86s.47,7.87,2.18,10.76a23,23,0,0,0,1.55-6.38c.19-3.11-.24-8.08,1.26-9.38s2.49-.42,1.09,6.47a65,65,0,0,0-1.32,12.47s3.18-9.05,5.38-9.35,2.25,2.63.39,5.19-5.45,7.13-6,9.48c0,0,3.53-6.83,6.81-4.8s-2.75,6.21-5.44,7.73-4.45,10.82-4.45,10.82Z" style="fill:#fff;opacity:0.7000000000000001;isolation:isolate"></path><polygon points="430.68 373.44 408.34 373.44 410.15 387.78 428.87 387.78 430.68 373.44" style="fill:#0B74FA"></polygon><g style="opacity:0.6000000000000001;isolation:isolate"><polygon points="430.68 373.44 408.34 373.44 410.15 387.78 428.87 387.78 430.68 373.44" style="fill:#fff"></polygon></g></g><g id="freepik--character-2--inject-15"><g id="freepik--group--inject-15"><path d="M399.57,199.44s5.85,25.33,7.25,30,17.32,34.2,17.32,34.2a11.69,11.69,0,0,1,3.74,2.88c1.4,1.79,5.45,9.45,5.45,10.3s-9.19,3.65-10.36,3.19-4.92-10.11-4.92-10.11l.47-3.38S402.84,243,401.2,239.77,390.67,210,390.67,210Z" style="fill:#eec1bb"></path><path d="M406.82,216.64,399.77,221l-6.64,4.08s-2.72-7.26-4.76-13.48c-1.22-3.72-2.21-7.05-2.21-8.24-.05-3.2,8.84-14,8.84-14C400.5,192.41,406.82,216.64,406.82,216.64Z" style="fill:#0B74FA"></path><path d="M399.77,221l-6.64,4.08s-2.72-7.26-4.76-13.48l5.93-4.89A37.44,37.44,0,0,1,399.77,221Z" style="opacity:0.2;isolation:isolate"></path><path d="M371.85,201.43s-29.45,3-32.89,5.77c-1.84,1.47-3.14,12.86-2.88,20.33,0,0-4.73,6.21-4,22.05s3.62,25.38,6.9,27.28,32.85.58,35.44-1S371.85,201.43,371.85,201.43Z" style="fill:#263238"></path><polygon points="347.68 398.24 352.56 403.89 364.52 393.15 359.64 387.51 347.68 398.24" style="fill:#eec1bb"></polygon><polygon points="359.64 387.51 364.52 393.15 358.35 398.69 353.47 393.04 359.64 387.51" style="opacity:0.2;isolation:isolate"></polygon><path d="M355,388.16s23.15-30,27.55-41.47-20.44-77.45-20.44-77.45l27.85-5.61s20.51,50.54,18,74.17-43.4,59.88-43.4,59.88Z" style="fill:#263238"></path><path d="M354.77,402.68l-6.38-6a.65.65,0,0,0-.79-.06l-5.41,3.71a1.06,1.06,0,0,0-.26,1.48.8.8,0,0,0,.15.17c2.1,1.9,3.72,3.18,6.31,5.61,1.6,1.5,6.26,6.17,8.46,8.24s4.53.15,3.82-.89c-3.22-4.68-5.12-8.75-5.33-11.13A1.79,1.79,0,0,0,354.77,402.68Z" style="fill:#263238"></path><path d="M354.45,403.75a.17.17,0,0,1,0-.19.16.16,0,0,1,.18-.07c.3.06,3,.6,3.27,1.45a.51.51,0,0,1-.11.54,1,1,0,0,1-.89.43,2.21,2.21,0,0,1-1.26-.68A8.49,8.49,0,0,1,354.45,403.75Zm.52.16a3.49,3.49,0,0,0,2,1.66.7.7,0,0,0,.59-.29c.08-.11.09-.19.05-.22a.41.41,0,0,0-.13-.19A7,7,0,0,0,355,403.91Z" style="fill:#0B74FA"></path><path d="M354.39,403.75a.15.15,0,0,1,.05-.17c.07-.07,1.61-1.46,2.68-1.39a.9.9,0,0,1,.68.34.56.56,0,0,1,.09.7c-.41.65-2.54.83-3.36.61l-.06,0Zm2.75-1.26a4,4,0,0,0-2.16,1.06c.93.1,2.41-.15,2.67-.55,0,0,.1-.15-.06-.3l-.06-.06A.61.61,0,0,0,357.14,402.49Z" style="fill:#0B74FA"></path><polygon points="362.56 401.39 352.51 388.71 355.9 385.81 366.55 398.78 362.56 401.39" style="fill:#0B74FA"></polygon><polygon points="362.56 401.39 352.51 388.71 355.9 385.81 366.55 398.78 362.56 401.39" style="fill:#fff;opacity:0.6000000000000001;isolation:isolate"></polygon><polygon points="370.55 417.95 377.75 417.95 378.34 401.29 371.14 401.29 370.55 417.95" style="fill:#eec1bb"></polygon><path d="M378.74,417.12H370a.62.62,0,0,0-.61.49L368,424a1.07,1.07,0,0,0,.82,1.26l.23,0c2.83-.05,4.89-.22,8.44-.22,2.19,0,8.79.23,11.81.23s3.41-3,2.17-3.26c-5.54-1.21-9.71-2.88-11.49-4.47A1.7,1.7,0,0,0,378.74,417.12Z" style="fill:#263238"></path><path d="M379.24,418.12a.18.18,0,0,1-.13-.15.16.16,0,0,1,.08-.17c.26-.16,2.58-1.59,3.38-1.18a.52.52,0,0,1,.29.48,1,1,0,0,1-.36.91,2.11,2.11,0,0,1-1.38.37A9.15,9.15,0,0,1,379.24,418.12Zm.49-.24a3.54,3.54,0,0,0,2.56-.13.68.68,0,0,0,.23-.61c0-.14-.06-.21-.11-.21a.41.41,0,0,0-.22,0A6.92,6.92,0,0,0,379.73,417.88Z" style="fill:#0B74FA"></path><path d="M379.19,418.15a.18.18,0,0,1-.08-.15c0-.1.18-2.17,1-2.85a1,1,0,0,1,.73-.22.57.57,0,0,1,.55.45c.14.76-1.29,2.34-2,2.74h-.08A.14.14,0,0,1,379.19,418.15Zm1.15-2.8a4.1,4.1,0,0,0-.85,2.25c.74-.56,1.66-1.75,1.57-2.22,0-.05,0-.18-.25-.18h-.08A.7.7,0,0,0,380.34,415.35Z" style="fill:#0B74FA"></path><polygon points="371.14 401.3 378.34 401.3 378.03 409.89 370.83 409.89 371.14 401.3" style="opacity:0.2;isolation:isolate"></polygon><path d="M353.47,260.37c0,40.14,16.74,67.84,14.78,146.48h13.16S392.1,352.07,383.82,259Z" style="fill:#263238"></path><path d="M353.47,260.37c0,40.14,16.74,67.84,14.78,146.48h13.16S392.1,352.07,383.82,259Z" style="fill:#fff;opacity:0.1;isolation:isolate"></path><polygon points="382.92 408.51 367.39 408.51 367.39 403.87 383.5 403.56 382.92 408.51" style="fill:#0B74FA"></polygon><polygon points="382.92 408.51 367.39 408.51 367.39 403.87 383.5 403.56 382.92 408.51" style="fill:#fff;opacity:0.6000000000000001;isolation:isolate"></polygon><path d="M395,189.33s-24-3.72-42.5-1.08c0,0,.33,55.64-2.4,78.55l44.5,3.14S398.79,213.48,395,189.33Z" style="fill:#0B74FA"></path><path d="M366.49,187.26c3.15,3.54,11.81,3.27,11.81,3.27s5.49-.9,4.54-2.68c-3.08-.85-4.45-2.48-4.88-4.42a9.23,9.23,0,0,1,.06-3.62,19.49,19.49,0,0,1,.48-2l-9.73-8.93C369.6,174.21,370.3,183.88,366.49,187.26Z" style="fill:#eec1bb"></path><path d="M370.68,174.13c-.25,6.38,4.77,8.68,7.28,9.3a9.23,9.23,0,0,1,.06-3.62Z" style="opacity:0.2;isolation:isolate"></path><path d="M387.87,153.47s2.65,9.68-2.13,14.07-6.93-13.93-6.93-13.93Z" style="fill:#263238"></path><path d="M371.48,177.15a9,9,0,0,0,10.67,2.26,10,10,0,0,0,5.14-5.29,8.49,8.49,0,0,0,.36-1c1.87-6.32,1.46-16.94-5.37-20.14a9.75,9.75,0,0,0-13.94,9C368.38,169.13,368.07,173.33,371.48,177.15Z" style="fill:#eec1bb"></path><path d="M379,164.57c-.07.57.25,1.06.64,1.08s.71-.44.74-1-.26-1.06-.63-1.08S379.07,164,379,164.57Z" style="fill:#263238"></path><path d="M385.58,164.91c-.07.57.26,1.07.64,1.08s.71-.43.74-1-.26-1.07-.63-1.08S385.62,164.36,385.58,164.91Z" style="fill:#263238"></path><path d="M383.49,165.09a20.34,20.34,0,0,0,2.51,5.1,3.38,3.38,0,0,1-2.82.37Z" style="fill:#d4827d"></path><path d="M377.11,162.34a.36.36,0,0,0,.34-.12,2.75,2.75,0,0,1,2.24-1,.35.35,0,0,0,.38-.3.34.34,0,0,0-.3-.37h0a3.39,3.39,0,0,0-2.84,1.25.34.34,0,0,0,0,.48h0A.61.61,0,0,0,377.11,162.34Z" style="fill:#263238"></path><path d="M382.08,173.51h0a5.21,5.21,0,0,1-4.47-1.79.19.19,0,0,1,0-.26.18.18,0,0,1,.25,0h0a5,5,0,0,0,4.16,1.65.16.16,0,0,1,.19.15v0a.16.16,0,0,1-.15.19Z" style="fill:#263238"></path><path d="M388.52,162.8a.29.29,0,0,0,.38-.42h0a3.35,3.35,0,0,0-2.35-2,.33.33,0,0,0-.39.27h0a.34.34,0,0,0,.27.39h0a2.76,2.76,0,0,1,1.84,1.65A.37.37,0,0,0,388.52,162.8Z" style="fill:#263238"></path><path d="M374,153.41l.37,3.14a2.34,2.34,0,0,0-1.2,2.94c1,2.65-.51,6.74-2.55,8.36,0,0-.06-1.14-1-.88s-.73,6.23,1.14,9.08c0,0-2.84-2.58-4.42-8.85-1.46-5.79-1.62-10.61-.42-12.85Z" style="fill:#263238"></path><path d="M364.92,167.68a6.82,6.82,0,0,0,3.7,3.63c2.21.87,3.57-1.05,3.16-3.27-.37-2-2-4.86-4.29-4.76A3,3,0,0,0,364.92,167.68Z" style="fill:#eec1bb"></path><path d="M365.13,158.66s-2-6.84,4.63-8.36h-2.44a19.12,19.12,0,0,1,12.4-3.28c6.86.82,7.82,4,7.82,4a7.39,7.39,0,0,0-.58-2.81s6.35,5.56-.69,8.41C386.27,156.6,370.65,155.59,365.13,158.66Z" style="fill:#263238"></path><path d="M358.15,186.61s5.38,19.36-6.25,50.62v4.51s16.44-22.59,12.74-55.31Z" style="fill:#263238"></path><path d="M352.5,188.25c-4.18.31-13.54,24.43-13.54,24.43l12.94,7.52,5.37-11.35A35.68,35.68,0,0,0,352.5,188.25Z" style="fill:#0B74FA"></path><ellipse cx="378.02" cy="215.99" rx="13.65" ry="16.56" style="fill:#fff;opacity:0.2"></ellipse><ellipse cx="378.24" cy="215.72" rx="11.61" ry="14.08" style="opacity:0.1;isolation:isolate"></ellipse><path d="M362.69,233.36a1.65,1.65,0,0,1,.51-2A22.92,22.92,0,0,1,378,227c7.42.35,11.53,3.54,13.14,5.15a1.66,1.66,0,0,1,.34,1.91l-1.05,2.19a1.65,1.65,0,0,1-2.61.51,14.61,14.61,0,0,0-10.7-3.75,25.24,25.24,0,0,0-11,3.63,1.65,1.65,0,0,1-2.36-.76Z" style="fill:#0B74FA"></path><path d="M362.69,233.36a1.65,1.65,0,0,1,.51-2A22.92,22.92,0,0,1,378,227c7.42.35,11.53,3.54,13.14,5.15a1.66,1.66,0,0,1,.34,1.91l-1.05,2.19a1.65,1.65,0,0,1-2.61.51,14.61,14.61,0,0,0-10.7-3.75,25.24,25.24,0,0,0-11,3.63,1.65,1.65,0,0,1-2.36-.76Z" style="fill:#fff;opacity:0.30000000000000004"></path><path d="M355,207.48l11.51-6.92s3.16,3.64,3.72,10.68l-10,6.37s-13,29.64-20,28-4.07-13.11,1.17-31.53l10.1,3.84,3.5-5.54Z" style="fill:#eec1bb"></path><path d="M351.48,217.92l-8,13.15s-.34-6.54,5.56-14.06Z" style="opacity:0.2;isolation:isolate"></path></g></g></svg>