<svg width="57" height="93" viewBox="0 0 57 93" fill="none" xmlns="http://www.w3.org/2000/svg">
<g clip-path="url(#clip0_1_373)">
<path d="M50.4278 50.3296C50.0015 50.3296 48.7043 50.3296 48.3998 49.9671C48.194 49.7221 48.3111 49.0547 48.4594 48.2097C48.6173 47.3095 48.8138 46.1891 48.8138 44.7485C48.8138 40.4378 52.0163 36.9309 55.9525 36.9309C56.2911 36.9309 56.5155 37.0516 56.6801 37.3222C56.8648 37.626 56.9625 38.111 56.9625 38.7246C56.9625 40.603 56.0484 43.552 54.6878 46.0629C53.2617 48.6947 51.6293 50.3296 50.4278 50.3296Z" fill="#302E2E"/>
<path d="M55.9528 37.4309C52.2922 37.4309 49.3141 40.7135 49.3141 44.7485C49.3141 46.2326 49.1049 47.4253 48.9521 48.2961C48.8675 48.7784 48.7533 49.4294 48.7964 49.6485C48.8956 49.7019 49.2555 49.8296 50.4281 49.8296C51.4151 49.8296 52.9504 48.2201 54.2485 45.8246C55.5729 43.3805 56.4628 40.5272 56.4628 38.7246C56.4628 38.0304 56.3314 37.7107 56.2531 37.582C56.196 37.488 56.1472 37.4309 55.9528 37.4309ZM55.9528 36.4309C60.1716 36.4309 54.6468 50.8296 50.4281 50.8296C46.2093 50.8296 48.3141 49.3421 48.3141 44.7485C48.3141 40.1548 51.7341 36.4309 55.9528 36.4309Z" fill="#707070"/>
<path d="M7.03471 49.9378C5.83317 49.9378 4.20084 48.3029 2.77471 45.671C1.41414 43.1602 0.5 40.2111 0.5 38.3327C0.5 37.7191 0.59766 37.2342 0.782419 36.9303C0.94697 36.6597 1.17135 36.5391 1.50996 36.5391C5.44625 36.5391 8.64866 40.046 8.64866 44.3566C8.64866 45.7972 8.84521 46.9176 9.00314 47.8179C9.15137 48.6629 9.26846 49.3303 9.06274 49.5752C8.75825 49.9378 7.461 49.9378 7.03471 49.9378Z" fill="#302E2E"/>
<path d="M1.50995 37.0391C1.31552 37.0391 1.26679 37.0961 1.20963 37.1901C1.13134 37.3189 1 37.6385 1 38.3327C1 40.1353 1.88986 42.9886 3.21431 45.4328C4.51238 47.8283 6.04767 49.4378 7.0347 49.4378C8.20728 49.4378 8.56722 49.3101 8.66639 49.2567C8.70947 49.0375 8.59526 48.3865 8.51066 47.9043C8.35789 47.0334 8.14866 45.8408 8.14866 44.3566C8.14866 40.3217 5.17055 37.0391 1.50995 37.0391ZM1.50995 36.0391C5.72869 36.0391 9.14866 39.763 9.14866 44.3566C9.14866 48.9503 11.2534 50.4378 7.0347 50.4378C2.81596 50.4378 -2.70879 36.0391 1.50995 36.0391Z" fill="#707070"/>
<path d="M28.9311 68.3679C26.1242 68.3679 23.5774 67.6038 21.1406 66.0288C19.0372 64.6694 16.9987 62.7374 14.5286 59.7539L14.413 59.8496L14.5286 59.7539C12.0797 56.7964 10.0224 53.6838 8.57819 50.7539C6.85719 47.2623 5.98984 44.0447 5.98984 41.1883C5.98984 38.2208 6.59404 35.3427 7.78574 32.6332C8.93825 30.0127 10.5891 27.6582 12.6932 25.6348C14.7999 23.6087 17.2538 22.0177 19.987 20.9059C22.8187 19.7541 25.8277 19.17 28.9311 19.17C32.0346 19.17 35.0436 19.7541 37.8753 20.9059C40.6085 22.0177 43.0623 23.6087 45.1691 25.6348C47.2732 27.6582 48.924 30.0127 50.0765 32.6332C51.2682 35.3427 51.8724 38.2208 51.8724 41.1883C51.8724 44.3412 50.8741 47.8259 48.894 51.5476C47.1818 54.7658 44.7618 58.0767 41.895 61.1212C40.1804 62.9422 38.1324 64.9797 35.8796 66.3646C33.6543 67.7325 31.4485 68.3679 28.9311 68.3679Z" fill="#F6BC91" stroke="black" stroke-width="0.3"/>
<path d="M44.6702 21.596C50.7757 21.596 55.7252 16.7616 55.7252 10.798C55.7252 4.83443 50.7757 0 44.6702 0C38.5647 0 33.6152 4.83443 33.6152 10.798C33.6152 16.7616 38.5647 21.596 44.6702 21.596Z" fill="#302E2E"/>
<path d="M18.1894 47.3194C14.2122 47.3194 10.9766 44.1991 10.9766 40.3637C10.9766 36.5283 14.2122 33.408 18.1894 33.408C22.1666 33.408 25.4022 36.5283 25.4022 40.3637C25.4022 44.1991 22.1666 47.3194 18.1894 47.3194Z" fill="white"/>
<path d="M18.1894 33.908C14.4879 33.908 11.4766 36.804 11.4766 40.3637C11.4766 43.9234 14.4879 46.8194 18.1894 46.8194C21.8909 46.8194 24.9022 43.9234 24.9022 40.3637C24.9022 36.804 21.8909 33.908 18.1894 33.908ZM18.1894 32.908C22.4491 32.908 25.9022 36.246 25.9022 40.3637C25.9022 44.4814 22.4491 47.8194 18.1894 47.8194C13.9297 47.8194 10.4766 44.4814 10.4766 40.3637C10.4766 36.246 13.9297 32.908 18.1894 32.908Z" fill="#707070"/>
<path d="M39.2695 47.3194C35.2923 47.3194 32.0566 44.1991 32.0566 40.3637C32.0566 36.5283 35.2923 33.408 39.2695 33.408C43.2466 33.408 46.4823 36.5283 46.4823 40.3637C46.4823 44.1991 43.2466 47.3194 39.2695 47.3194Z" fill="white"/>
<path d="M39.2695 33.908C35.568 33.908 32.5566 36.804 32.5566 40.3637C32.5566 43.9234 35.568 46.8194 39.2695 46.8194C42.9709 46.8194 45.9823 43.9234 45.9823 40.3637C45.9823 36.804 42.9709 33.908 39.2695 33.908ZM39.2695 32.908C43.5292 32.908 46.9823 36.246 46.9823 40.3637C46.9823 44.4814 43.5292 47.8194 39.2695 47.8194C35.0098 47.8194 31.5566 44.4814 31.5566 40.3637C31.5566 36.246 35.0098 32.908 39.2695 32.908Z" fill="#707070"/>
<path d="M25.8262 40.9349C26.7303 40.5576 27.6935 40.3413 28.6722 40.2959C29.6994 40.3513 30.7116 40.5669 31.6722 40.9349" stroke="#707070"/>
<path d="M17.7863 36.7729C18.5013 36.7828 19.187 37.0589 19.7094 37.5472C20.2318 38.0356 20.5534 38.7012 20.6113 39.4139C20.5566 40.1398 20.2399 40.821 19.7201 41.3306C19.2004 41.8403 18.5131 42.1435 17.7863 42.1839C16.5053 42.1839 14.7383 40.9439 14.7383 39.4139C14.7383 37.8839 16.5043 36.7729 17.7863 36.7729Z" fill="white"/>
<path d="M17.7843 35.6399C18.4994 35.6497 19.1851 35.9258 19.7075 36.4142C20.2299 36.9025 20.5514 37.5681 20.6093 38.2809C20.5546 39.0067 20.2379 39.688 19.7182 40.1976C19.1984 40.7072 18.5111 41.0105 17.7843 41.0509C16.5033 41.0509 14.7363 39.8109 14.7363 38.2809C14.7363 36.7509 16.5023 35.6399 17.7843 35.6399Z" fill="#302E2E"/>
<path d="M17.1605 40.621C17.4444 40.621 17.6745 40.3909 17.6745 40.107C17.6745 39.8231 17.4444 39.593 17.1605 39.593C16.8766 39.593 16.6465 39.8231 16.6465 40.107C16.6465 40.3909 16.8766 40.621 17.1605 40.621Z" fill="#F7F7F7"/>
<path d="M44.7685 22.765C45.2201 28.1057 46.8268 33.2845 49.4775 37.943C46.0315 33.736 44.6095 27.889 44.7685 22.765ZM50.4055 13.857C49.1026 13.0282 47.6197 12.5247 46.0815 12.389C46.8677 12.2283 47.6824 12.2796 48.4423 12.5376C49.2021 12.7955 49.8796 13.2509 50.4055 13.857ZM43.7565 23.586C43.2422 25.0184 42.4829 26.3506 41.5125 27.523C40.1715 29.0624 38.5474 30.33 36.7285 31.257C39.654 29.2682 42.0688 26.617 43.7765 23.519L43.7565 23.586ZM15.5365 9.11495C18.2999 7.54065 21.3442 6.52155 24.4985 6.11495C27.2371 5.80605 30.0084 5.97224 32.6905 6.60604C26.8504 5.74574 20.8862 6.61837 15.5375 9.11593M7.2165 16.775C5.50946 19.3652 4.2744 22.2372 3.56849 25.258C2.77991 28.6167 2.67317 32.0993 3.25452 35.5C3.30352 35.785 3.36351 36.066 3.42151 36.349C2.44146 32.3827 2.37136 28.2462 3.2165 24.249C3.9934 20.6457 5.87889 17.3762 8.60846 14.899C8.1034 15.4912 7.6387 16.1165 7.21747 16.771M50.2175 15.404C51.1885 15.545 52.8875 17.2219 53.6845 17.7979C53.2862 16.7045 52.6331 15.7218 51.7795 14.931L51.7585 14.8499C50.6055 12.9219 48.1685 11.388 45.7255 12.364C45.5595 12.358 45.3935 12.349 45.2255 12.349C44.5846 11.0301 43.6584 9.87037 42.514 8.95369C41.3695 8.03702 40.0354 7.38644 38.6085 7.04903L39.9225 8.70504C39.5135 8.52104 39.0965 8.34794 38.6755 8.18294L38.6365 8.13595C30.0275 3.52195 19.3815 5.39393 11.9945 10.8239C11.9651 10.8423 11.9409 10.8681 11.9244 10.8986C11.908 10.9292 11.8997 10.9635 11.9005 10.9983C11.9013 11.033 11.9111 11.0669 11.929 11.0966C11.9469 11.1264 11.9722 11.1509 12.0025 11.1679C11.5575 11.4809 11.1225 11.803 10.7025 12.141C11.6419 11.741 12.5808 11.3363 13.5195 10.927C12.8215 11.2354 12.172 11.6437 11.5915 12.139C7.31326 14.6611 4.20386 18.7703 2.93952 23.573C1.30852 29.189 4.91948 39.873 5.09748 40.257C6.06948 37.241 9.89748 30.387 20.4385 25.257C30.3285 21.148 36.4485 23.057 38.6055 20.504C38.1735 21.278 39.6135 22.744 38.6055 25.257C37.4265 28.195 33.7655 32.288 33.2155 33.273C33.5095 33.136 33.7995 32.988 34.0865 32.841C34.1007 32.871 34.1208 32.8978 34.1455 32.92C34.1703 32.9422 34.1991 32.9591 34.2305 32.9699C34.2619 32.9807 34.2952 32.9852 34.3283 32.983C34.3614 32.9808 34.3938 32.9719 34.4235 32.957C36.9968 31.7968 39.3582 30.215 41.4105 28.2769C43.0035 26.5286 44.0714 24.3666 44.4915 22.039C44.5045 22.008 44.5165 21.98 44.5295 21.951C44.2984 25.3019 44.7275 28.6655 45.7925 31.851C46.647 35.0862 48.4181 38.0055 50.8925 40.258C51.2815 40.846 51.6815 41.4319 52.1045 42.0009C52.2332 40.1136 52.3618 38.2263 52.4905 36.3389C52.8038 37.4056 53.1168 38.4724 53.4295 39.539C55.4785 31.845 55.3515 20.909 50.2135 15.406" fill="#302E2E"/>
<path d="M39.3839 36.592C40.099 36.6019 40.7847 36.878 41.3071 37.3663C41.8295 37.8547 42.151 38.5203 42.2089 39.233C42.1543 39.9589 41.8375 40.6401 41.3178 41.1497C40.798 41.6594 40.1107 41.9626 39.3839 42.003C38.1029 42.003 36.3359 40.763 36.3359 39.233C36.3359 37.703 38.1019 36.592 39.3839 36.592Z" fill="white"/>
<path d="M39.38 35.459C40.0951 35.4688 40.7808 35.7449 41.3032 36.2333C41.8256 36.7216 42.1471 37.3872 42.205 38.1C42.1503 38.8258 41.8336 39.5071 41.3139 40.0167C40.7941 40.5263 40.1068 40.8296 39.38 40.87C38.099 40.87 36.332 39.63 36.332 38.1C36.332 36.57 38.098 35.459 39.38 35.459Z" fill="#302E2E"/>
<path d="M39.2699 39.9921C39.5537 39.9921 39.7839 39.762 39.7839 39.4781C39.7839 39.1942 39.5537 38.9641 39.2699 38.9641C38.986 38.9641 38.7559 39.1942 38.7559 39.4781C38.7559 39.762 38.986 39.9921 39.2699 39.9921Z" fill="#F7F7F7"/>
<path d="M35.0762 5.65601C35.0762 5.65601 42.0502 6.43501 46.4572 9.95601C50.8642 13.477 52.7042 19.756 52.7042 19.756" stroke="#707070"/>
<path d="M35.1621 30.4451L42.6451 32.0041" stroke="#302E2E"/>
<path d="M11.4648 33.5631L18.9478 30.4451" stroke="#302E2E"/>
<path d="M31.9993 49.4843C31.9993 50.1392 31.0297 50.6667 29.8319 50.6667C28.6342 50.6667 27.666 50.1392 27.666 49.4843C27.666 48.8331 28.6359 49.0272 29.8319 49.0272C31.028 49.0272 31.9993 48.8327 31.9993 49.4843Z" fill="#C6896C"/>
<path d="M36.9876 54.4445C36.885 54.6787 36.7535 54.953 36.611 55.2657C36.5327 55.4088 36.4407 55.5772 36.3504 55.7463C36.2601 55.9153 36.169 56.0854 36.0638 56.2677C35.764 56.8007 35.4297 57.3135 35.0632 57.803L35.037 57.8418L34.9589 57.9463C33.6839 59.6374 31.8735 61.2128 29.5441 61.2128C25.5626 61.2128 22.9604 56.5545 22.0234 54.6268C22.063 54.6268 22.2057 54.5889 22.4397 54.5372C23.6503 54.3029 27.138 53.6138 29.2459 53.6904C31.6016 53.5999 35.4261 54.1978 36.6235 54.394C36.8187 54.4187 36.948 54.4444 36.9871 54.4444" fill="#EC6E40"/>
<path d="M29.5432 61.2272C27.8218 61.2272 26.1692 60.3609 24.6309 58.6522C23.5774 57.4391 22.6955 56.087 22.01 54.6339L22 54.6126H22.0229C22.0916 54.6026 22.1596 54.5884 22.2265 54.57C22.2838 54.5568 22.3543 54.5402 22.436 54.5223L22.5212 54.5059C23.7963 54.2583 27.1839 53.6002 29.2468 53.6757C31.5013 53.589 35.1585 54.1389 36.6261 54.3796C36.7209 54.3915 36.7986 54.4036 36.8603 54.4134C36.9021 54.4212 36.9442 54.4267 36.9866 54.43V54.4441L36.9996 54.4499C36.9374 54.5923 36.8633 54.7514 36.7852 54.9198C36.733 55.032 36.6787 55.148 36.6229 55.2713L36.6217 55.2736C36.5419 55.419 36.4514 55.584 36.3619 55.7526L36.3368 55.7995C36.2552 55.9516 36.1707 56.1087 36.0751 56.2743C35.7746 56.8077 35.4399 57.321 35.0731 57.8111L35.0474 57.8492L34.9685 57.9545C34.3284 58.8349 33.5462 59.6025 32.6538 60.2258C31.7414 60.8651 30.6572 61.2142 29.5432 61.2272ZM22.0445 54.6391C22.7273 56.0834 23.6048 57.4273 24.6523 58.6333C26.1853 60.3366 27.8307 61.199 29.5435 61.199C30.6519 61.1859 31.7305 60.8385 32.6382 60.2023C33.528 59.5809 34.308 58.8156 34.9462 57.9378L35.0243 57.8335L35.0501 57.7952C35.4164 57.3058 35.7507 56.7932 36.0508 56.2607C36.1462 56.0955 36.2305 55.9385 36.3121 55.7865L36.3372 55.7396C36.4271 55.5707 36.5173 55.4057 36.597 55.2601V55.2589C36.6527 55.1365 36.7066 55.0204 36.7588 54.9082C36.8335 54.7472 36.9042 54.5948 36.9649 54.4575C36.9406 54.4551 36.9042 54.4494 36.8554 54.4419C36.7931 54.4326 36.7153 54.4206 36.6212 54.4083C35.1539 54.1679 31.499 53.6182 29.246 53.7057C27.1855 53.6306 23.8002 54.2884 22.5259 54.5359L22.4418 54.5523C22.3613 54.5702 22.2902 54.5866 22.233 54.5998C22.142 54.6198 22.0798 54.634 22.0445 54.6391Z" fill="#050505"/>
<path d="M36.2634 54.573C36.093 54.8971 35.8993 55.2224 35.6911 55.5481L35.6777 55.5737C34.2333 57.8773 32.0874 60.273 29.3403 60.273C26.8028 60.273 24.9569 58.3856 23.5892 56.3299C23.265 55.8353 22.9648 55.3278 22.6914 54.8334C22.7961 55.0282 26.0873 55.341 29.3404 55.276C32.7751 55.1987 36.1859 54.7284 36.2635 54.5734" fill="#44060F"/>
<path d="M30.8834 60.0129C32.3374 59.6014 33.4002 58.7354 34.5372 57.8647C34.3679 57.6402 34.1792 57.431 33.9732 57.2396C32.9306 56.3916 31.6215 55.94 30.2779 55.9648C28.3142 55.9648 26.6222 56.8365 25.8293 58.1244C25.6543 58.4007 25.5228 58.7023 25.4395 59.0186C26.8234 60.271 29.2003 60.4917 30.8834 60.013" fill="#750414"/>
<path d="M36.2635 54.5733C36.0932 54.8973 34.8687 55.947 34.072 56.327C32.4794 57.0429 30.7486 57.3991 29.0027 57.3703C26.8819 57.3703 23.7786 56.3909 22.6914 54.8327C22.8192 55.0137 26.0873 55.3403 29.3404 55.2754C32.775 55.1981 36.1859 54.7278 36.2635 54.5728" fill="#F4F4F4"/>
<path d="M29.3404 55.2754C26.0871 55.3393 22.8192 55.0137 22.6914 54.8328C23.2929 55.6934 24.5113 56.3689 25.8357 56.8088C27.2081 55.7785 29.4285 55.5824 30.9723 55.6246C32.0873 55.6561 33.1034 55.8888 33.9092 56.3938L34.0727 56.3267C34.8695 55.9468 36.0954 54.8971 36.2643 54.573C36.1868 54.7278 32.7761 55.1981 29.3412 55.2756" fill="#EAEDEF"/>
<path d="M36.9876 54.4448C36.885 54.679 36.7535 54.953 36.611 55.266C36.5327 55.4091 36.4407 55.5775 36.3504 55.7466C36.2601 55.9156 36.169 56.0857 36.0638 56.268C35.7771 56.697 35.4662 57.1914 35.0631 57.8033L35.037 57.8421L34.9589 57.9464C33.6839 59.638 31.8735 61.2133 29.5441 61.2133C25.5627 61.2133 22.9605 56.5548 22.0234 54.6271C22.063 54.6271 22.2057 54.5892 22.4397 54.5375C22.5319 54.6287 22.6147 54.7291 22.6867 54.837C23.2519 55.6501 23.9023 56.4005 24.6267 57.0755C24.9904 57.4126 25.3932 57.7771 25.8241 58.1282C26.2872 58.4885 26.7784 58.8109 27.2932 59.0925C27.6596 59.287 28.0486 59.4354 28.4514 59.5345C29.5321 59.8081 30.5727 59.5204 31.5224 59.0144C31.9697 58.7755 32.4 58.5061 32.8103 58.2083C33.2164 57.9117 33.6031 57.5894 33.9681 57.2436C34.7625 56.5269 35.47 55.7194 36.076 54.8377C36.2232 54.6513 36.4101 54.5001 36.6232 54.395C36.8184 54.4197 36.9476 54.4455 36.9868 54.4455" fill="#EC6E40"/>
<path d="M29.5432 61.2272C27.8218 61.2272 26.1692 60.3609 24.6309 58.6522C23.5774 57.4389 22.6955 56.0866 22.01 54.6332L22 54.6119H22.023C22.0917 54.602 22.1596 54.5877 22.2265 54.5693C22.2838 54.5561 22.3543 54.5395 22.4361 54.5216L22.4437 54.5199L22.4492 54.5255C22.5421 54.6175 22.6255 54.7187 22.6981 54.8274C23.2621 55.6398 23.9116 56.3892 24.6355 57.0629C24.9549 57.3591 25.3807 57.7464 25.8323 58.115C26.295 58.4747 26.7856 58.7971 27.2995 59.079C27.6648 59.2729 28.0527 59.421 28.4543 59.5199C29.4069 59.7609 30.4082 59.5913 31.5155 59.0011C31.9622 58.7624 32.3919 58.4934 32.8018 58.196C33.2071 57.8995 33.5932 57.5778 33.9579 57.2326C34.7523 56.5172 35.4593 55.7104 36.0643 54.8291C36.2124 54.6405 36.4011 54.4877 36.6163 54.382L36.6204 54.3799H36.625C36.7202 54.392 36.7981 54.4039 36.861 54.4137C36.9027 54.4214 36.9447 54.427 36.987 54.4304V54.4444L37 54.4502C36.9379 54.5926 36.8637 54.7517 36.7856 54.9201C36.7334 55.0323 36.6791 55.1483 36.6234 55.2716L36.6217 55.2748C36.5423 55.4202 36.4514 55.5848 36.3626 55.7532L36.3372 55.8005C36.2557 55.9525 36.1714 56.1096 36.0758 56.275C35.9249 56.5009 35.7639 56.7499 35.5938 57.0134C35.4401 57.2512 35.2661 57.5206 35.0745 57.8112L35.0483 57.8502L34.9698 57.9552C34.3294 58.8357 33.5469 59.6034 32.6541 60.2267C31.7415 60.8658 30.6573 61.2145 29.5432 61.2272ZM22.0445 54.6394C22.7274 56.0836 23.6048 57.4275 24.6524 58.6336C26.1854 60.3369 27.8307 61.1992 29.5436 61.1992C30.652 61.1862 31.7307 60.8388 32.6385 60.2026C33.5282 59.5812 34.3081 58.8158 34.9463 57.938L35.0244 57.8337L35.0501 57.7954C35.2417 57.5052 35.4155 57.2356 35.569 56.998C35.7393 56.7348 35.9009 56.4856 36.05 56.2601C36.1447 56.0959 36.229 55.9388 36.3106 55.787L36.3359 55.7397C36.4255 55.5713 36.5156 55.4067 36.5952 55.2613L36.5965 55.259C36.6523 55.1365 36.7061 55.0205 36.7583 54.9083C36.833 54.7473 36.9037 54.5949 36.9644 54.4576C36.9401 54.4552 36.9037 54.4495 36.8552 54.442C36.7936 54.4327 36.7174 54.4207 36.6246 54.4088C36.4148 54.5123 36.2309 54.6615 36.0864 54.8453C35.4803 55.7283 34.772 56.5365 33.9762 57.2532C33.6106 57.5991 33.2236 57.9216 32.8174 58.2188C32.4064 58.5171 31.9754 58.7868 31.5275 59.0262C30.4138 59.6195 29.4057 59.7901 28.4465 59.5474C28.0427 59.4481 27.6527 59.2992 27.2853 59.1044C26.7701 58.822 26.2781 58.4991 25.8141 58.1388C25.3619 57.7692 24.9361 57.3817 24.6168 57.0853C23.8912 56.4102 23.2402 55.6593 22.675 54.8453C22.6048 54.7402 22.5244 54.6422 22.435 54.553C22.3573 54.5702 22.2887 54.5862 22.2333 54.5989C22.1418 54.62 22.0798 54.6342 22.0445 54.6394Z" fill="#020202"/>
<path d="M13.2913 63.4754C13.7243 65.7284 14.0713 67.9814 14.4183 70.3214C14.5913 71.4484 14.7653 72.6614 14.8513 73.7874C14.9383 75.0004 15.1113 76.1274 15.1113 77.4274V77.5144C15.1231 78.4453 14.7646 79.3428 14.1147 80.0094C13.4648 80.676 12.5767 81.0571 11.6458 81.0689C10.7149 81.0807 9.81745 80.7222 9.15085 80.0723C8.48425 79.4224 8.10313 78.5343 8.09133 77.6034C8.07724 77.2833 8.10651 76.9627 8.17833 76.6504C8.43858 75.6225 8.64123 74.5809 8.78533 73.5304C8.95833 72.4904 9.13233 71.3644 9.21833 70.2374C9.47833 67.9844 9.73833 65.7314 9.91133 63.5654C9.95136 63.1192 10.164 62.7063 10.5039 62.4145C10.8438 62.1228 11.2842 61.9753 11.7313 62.0034C12.1228 62.0265 12.4936 62.1867 12.7789 62.4558C13.0641 62.725 13.2455 63.0859 13.2913 63.4754Z" fill="#F6BC91"/>
<path d="M24.2966 87.2193H17.7106C17.2279 87.2193 16.765 87.0276 16.4237 86.6863C16.0824 86.345 15.8906 85.882 15.8906 85.3993C15.8906 84.9167 16.0824 84.4537 16.4237 84.1124C16.765 83.7711 17.2279 83.5793 17.7106 83.5793H24.2966C24.7793 83.5793 25.2422 83.7711 25.5836 84.1124C25.9249 84.4537 26.1166 84.9167 26.1166 85.3993C26.1166 85.882 25.9249 86.345 25.5836 86.6863C25.2422 87.0276 24.7793 87.2193 24.2966 87.2193Z" fill="#F6BC91"/>
<path d="M25.5955 78.3804C25.5955 73.5274 21.6095 72.1414 16.7565 72.1414C11.9035 72.1414 8.0045 73.5274 8.0045 78.3804C7.96679 79.5591 8.16639 80.7333 8.59143 81.8334C9.01647 82.9335 9.65829 83.9369 10.4788 84.784C11.2992 85.6311 12.2816 86.3047 13.3675 86.7647C14.4534 87.2247 15.6207 87.4617 16.8 87.4617C17.9793 87.4617 19.1466 87.2247 20.2325 86.7647C21.3184 86.3047 22.3008 85.6311 23.1212 84.784C23.9417 83.9369 24.5835 82.9335 25.0086 81.8334C25.4336 80.7333 25.6332 79.5591 25.5955 78.3804Z" fill="#F6BC91"/>
<path d="M23.9492 83.5793H20.6562" stroke="#C3A289" stroke-width="1.817" stroke-miterlimit="10" stroke-linecap="round"/>
<path d="M18.8362 83.8395C17.8832 83.8395 18.8362 83.2325 18.4892 82.2795C18.4076 82.0064 18.3811 81.7199 18.4111 81.4365C18.4412 81.1531 18.5272 80.8784 18.6642 80.6286C18.8013 80.3787 18.9866 80.1585 19.2094 79.9808C19.4322 79.8031 19.6881 79.6715 19.9622 79.5935C22.0407 79.1574 24.1697 79.0116 26.2882 79.1605C26.5784 79.1889 26.8601 79.2742 27.1173 79.4115C27.3745 79.5488 27.6021 79.7354 27.7872 79.9607C27.9722 80.186 28.1111 80.4455 28.1959 80.7245C28.2807 81.0034 28.3096 81.2963 28.2812 81.5865C28.2528 81.8766 28.1675 82.1583 28.0302 82.4155C27.8929 82.6727 27.7063 82.9003 27.481 83.0854C27.2557 83.2705 26.9962 83.4094 26.7172 83.4941C26.4383 83.5789 26.1454 83.6079 25.8552 83.5795C23.7116 83.4526 21.5606 83.569 19.4432 83.9265C19.2692 83.9265 19.0092 83.8395 18.8362 83.8395Z" fill="#F6BC91"/>
<path d="M25.7689 79.6805C24.9547 79.7536 24.1449 79.8694 23.3429 80.0275C22.579 80.1783 21.8262 80.3811 21.0899 80.6345C20.8993 80.6931 20.6937 80.6784 20.5134 80.5934C20.3331 80.5083 20.191 80.359 20.115 80.1746C20.0391 79.9903 20.0347 79.7842 20.1027 79.5968C20.1708 79.4094 20.3064 79.2541 20.4829 79.1615H20.5699C21.4179 78.9052 22.2886 78.731 23.1699 78.6415C24.0369 78.5545 24.9029 78.4685 25.7699 78.4685C25.8502 78.4664 25.93 78.4807 26.0046 78.5105C26.0792 78.5402 26.1469 78.5849 26.2037 78.6417C26.2605 78.6984 26.3051 78.7662 26.3349 78.8408C26.3647 78.9153 26.379 78.9952 26.3769 79.0755C26.3666 79.233 26.2993 79.3815 26.1876 79.4932C26.0759 79.6049 25.9275 79.6721 25.7699 79.6825L25.7689 79.6805Z" fill="#C3A289"/>
<path d="M19.7899 80.1133C18.9229 80.1133 19.3569 79.4203 19.0099 78.5533C18.773 77.9898 18.7674 77.3556 18.9944 76.788C19.2214 76.2204 19.6628 75.765 20.2229 75.5203C22.2259 74.8019 24.3343 74.4214 26.4619 74.3943H26.5489C27.1479 74.416 27.7178 74.6579 28.1495 75.0736C28.5813 75.4893 28.8445 76.0496 28.8889 76.6473C28.8995 77.2639 28.6713 77.8607 28.2519 78.3129C27.8326 78.765 27.2546 79.0375 26.6389 79.0733C24.494 79.2044 22.3713 79.5826 20.3129 80.2003C20.0499 80.2003 20.1389 80.1133 19.7899 80.1133Z" fill="#F6BC91"/>
<path d="M26.2027 74.1343C24.0764 74.4242 22.0207 75.0996 20.1367 76.1273C20.2547 76.0653 20.3717 76.0053 20.1367 76.1273" fill="#C3A289"/>
<path d="M26.2027 74.1343C24.0764 74.4242 22.0207 75.0996 20.1367 76.1273M20.1367 76.1273C20.3717 76.0053 20.2547 76.0653 20.1367 76.1273Z" stroke="#C3A289" stroke-width="1.817" stroke-miterlimit="10" stroke-linecap="round"/>
<path d="M14.4159 71.9673C15.8059 71.4551 17.2234 71.0211 18.6619 70.6673C19.3549 70.4943 20.0479 70.2343 20.8279 70.0603C21.6785 69.832 22.5492 69.6869 23.4279 69.6273C24.2949 69.5403 25.1609 69.5403 26.0279 69.5403C26.4609 69.5403 26.8949 69.6273 27.3279 69.6273L28.4549 69.8003C29.9279 69.9733 31.4009 70.2333 32.8739 70.4933C33.0909 70.5255 33.2994 70.6006 33.487 70.7143C33.6747 70.828 33.8378 70.978 33.9669 71.1554C34.0959 71.3329 34.1883 71.5343 34.2386 71.7479C34.2889 71.9614 34.2961 72.1829 34.2599 72.3993C34.2004 72.7832 34.0148 73.1364 33.7323 73.4031C33.4498 73.6698 33.0866 73.8349 32.6999 73.8723C31.2269 73.9593 29.6669 74.0453 28.1939 74.0453H27.0679C26.7477 74.0312 26.4272 74.0605 26.1149 74.1323C25.501 74.206 24.8929 74.3219 24.2949 74.4793C23.7001 74.6291 23.1201 74.8322 22.5619 75.0863C21.9549 75.3463 21.1759 75.6063 20.4819 75.8663C19.0959 76.3863 17.7089 76.9063 16.2359 77.4263C15.5001 77.6682 14.699 77.6134 14.003 77.2735C13.3071 76.9335 12.7713 76.3353 12.5099 75.6063C12.3149 74.8712 12.4024 74.0898 12.7552 73.4161C13.1081 72.7425 13.7006 72.2255 14.4159 71.9673Z" fill="#F6BC91"/>
</g>
<defs>
<clipPath id="clip0_1_373">
<rect width="57" height="93" fill="white"/>
</clipPath>
</defs>
</svg>
