<svg id="Group_281" data-name="Group 281" xmlns="http://www.w3.org/2000/svg" width="57.463" height="78.094" viewBox="0 0 57.463 78.094">
  <g id="Group_278" data-name="Group 278" transform="translate(0 0)">
    <g id="Group_266" data-name="Group 266" transform="translate(0)">
      <g id="Group_263" data-name="Group 263" transform="translate(0 0)">
        <g id="Group_11" data-name="Group 11" transform="translate(0 0)">
          <g id="Group_6" data-name="Group 6" transform="translate(0 0)">
            <g id="Group_5" data-name="Group 5" transform="translate(0)">
              <g id="Group_3" data-name="Group 3" transform="translate(0)">
                <g id="Group_2" data-name="Group 2" transform="translate(0)">
                  <g id="Path_9" data-name="Path 9" transform="matrix(0.995, -0.105, 0.105, 0.995, 22.405, 77.187)">
                    <path d="M16.985,0,0,.912Z" stroke="none"/>
                    <path d="M 16.98506355285645 4.351139068603516e-06 L 1.9073486328125e-06 0.912204384803772 L 16.98506355285645 4.351139068603516e-06 Z" stroke="none" fill="#000"/>
                  </g>
                  <g id="Path_4" data-name="Path 4" transform="translate(32.145 36.431)" fill="#302e2e">
                    <path d="M 18.28442573547363 13.89872264862061 C 17.85813522338867 13.89872264862061 16.56087493896484 13.89872264862061 16.25638580322266 13.53616237640381 C 16.0506649017334 13.29122257232666 16.16775512695312 12.62380313873291 16.31598472595215 11.77881240844727 C 16.47391510009766 10.87856292724609 16.67046546936035 9.758172988891602 16.67046546936035 8.317563056945801 C 16.67046546936035 4.006942749023438 19.87287521362305 0.5000027418136597 23.80916404724121 0.5000027418136597 C 24.14776420593262 0.5000027418136597 24.37214469909668 0.6206827759742737 24.53670501708984 0.8912827372550964 C 24.72145462036133 1.195122718811035 24.81911468505859 1.680052757263184 24.81911468505859 2.293662786483765 C 24.81911468505859 4.172072887420654 23.90498542785645 7.121102809906006 22.54441452026367 9.631962776184082 C 21.11828422546387 12.26379299163818 19.48595428466797 13.89872264862061 18.28442573547363 13.89872264862061 Z" stroke="none"/>
                    <path d="M 23.80916404724121 1.000002861022949 C 20.14857482910156 1.000002861022949 17.17046546936035 4.282642364501953 17.17046546936035 8.317562103271484 C 17.17046546936035 9.801702499389648 16.96123504638672 10.99436283111572 16.80846405029297 11.86521244049072 C 16.7238655090332 12.34744644165039 16.60965156555176 12.9984884262085 16.65273475646973 13.21759510040283 C 16.75190544128418 13.27102184295654 17.11184120178223 13.39872264862061 18.28442573547363 13.39872264862061 C 19.27144432067871 13.39872264862061 20.8067455291748 11.7892427444458 22.10480499267578 9.393742561340332 C 23.42925453186035 6.949552536010742 24.31911468505859 4.09625244140625 24.31911468505859 2.293663024902344 C 24.31911468505859 1.599462509155273 24.18777465820312 1.27982234954834 24.1094856262207 1.15107250213623 C 24.05232429504395 1.057072639465332 24.00359535217285 1.000002861022949 23.80916404724121 1.000002861022949 M 23.80916404724121 2.86102294921875e-06 C 28.02790451049805 2.86102294921875e-06 22.50315475463867 14.39872264862061 18.28442573547363 14.39872264862061 C 14.0656852722168 14.39872264862061 16.17046546936035 12.91122245788574 16.17046546936035 8.317562103271484 C 16.17046546936035 3.723902702331543 19.59043502807617 2.86102294921875e-06 23.80916404724121 2.86102294921875e-06 Z" stroke="none" fill="#707070"/>
                  </g>
                  <g id="Path_3" data-name="Path 3" transform="translate(-15.645 36.039)" fill="#302e2e">
                    <path d="M 22.68012046813965 13.89872264862061 C 21.47858047485352 13.89872264862061 19.84625053405762 12.26379299163818 18.42012023925781 9.631962776184082 C 17.05954933166504 7.121112823486328 16.14541053771973 4.172072887420654 16.14541053771973 2.293672800064087 C 16.14541053771973 1.680062770843506 16.24307060241699 1.195122718811035 16.42782974243164 0.8912827372550964 C 16.59238052368164 0.6206827759742737 16.81675910949707 0.5000027418136597 17.15537071228027 0.5000027418136597 C 21.09165954589844 0.5000027418136597 24.29406929016113 4.006942749023438 24.29406929016113 8.317563056945801 C 24.29406929016113 9.758172988891602 24.49061965942383 10.87857246398926 24.64855003356934 11.77882289886475 C 24.79677963256836 12.62380313873291 24.91386985778809 13.29122257232666 24.70814895629883 13.53617286682129 C 24.40365982055664 13.89872264862061 23.10640907287598 13.89872264862061 22.68012046813965 13.89872264862061 Z" stroke="none"/>
                    <path d="M 17.15535926818848 1.000002861022949 C 16.96092987060547 1.000002861022949 16.91219902038574 1.057072639465332 16.85503959655762 1.15107250213623 C 16.7767505645752 1.27982234954834 16.64541053771973 1.599462509155273 16.64541053771973 2.293663024902344 C 16.64541053771973 4.09625244140625 17.53527069091797 6.949552536010742 18.85972023010254 9.393742561340332 C 20.15778923034668 11.7892427444458 21.69307899475098 13.39872264862061 22.68010902404785 13.39872264862061 C 23.85269355773926 13.39872264862061 24.2126293182373 13.27102184295654 24.31180000305176 13.21759510040283 C 24.35488128662109 12.9984884262085 24.24066925048828 12.34744644165039 24.15607070922852 11.86521244049072 C 24.00329971313477 10.99436283111572 23.79406929016113 9.801702499389648 23.79406929016113 8.317562103271484 C 23.79406929016113 4.282642364501953 20.81595993041992 1.000002861022949 17.15535926818848 1.000002861022949 M 17.15535926818848 2.86102294921875e-06 C 21.37409973144531 2.86102294921875e-06 24.79407119750977 3.723902702331543 24.79407119750977 8.317562103271484 C 24.79407119750977 12.91122245788574 26.89884948730469 14.39872264862061 22.68010902404785 14.39872264862061 C 18.46137046813965 14.39872264862061 12.93662071228027 2.86102294921875e-06 17.15535926818848 2.86102294921875e-06 Z" stroke="none" fill="#707070"/>
                  </g>
                  <g id="Path_1" data-name="Path 1" transform="translate(4.84 18.02)" fill="#f6bc91">
                    <path d="M 24.0913028717041 50.49783706665039 C 21.25451278686523 50.49783706665039 18.67956352233887 49.72488021850586 16.21931266784668 48.13478851318359 C 14.09814262390137 46.76385879516602 12.04841327667236 44.81925964355469 9.573203086853027 41.82956695556641 C 7.118123054504395 38.86454772949219 5.053952693939209 35.74225997924805 3.603802919387817 32.80020904541016 C 1.876052856445312 29.2949275970459 1.000002861022949 26.05428886413574 1.000002861022949 23.16830825805664 C 1.000002861022949 20.18007850646973 1.608502864837646 17.2813892364502 2.808592796325684 14.55274868011475 C 3.969142913818359 11.91402816772461 5.631453037261963 9.543368339538574 7.749342918395996 7.506618499755859 C 9.869973182678223 5.467228412628174 12.33995246887207 3.865858554840088 15.09066295623779 2.746978521347046 C 17.94053268432617 1.5877685546875 20.96878242492676 0.9999985098838806 24.0913028717041 0.9999985098838806 C 27.21382331848145 0.9999985098838806 30.24207305908203 1.5877685546875 33.09194183349609 2.746978521347046 C 35.8426513671875 3.865858554840088 38.3126335144043 5.467228412628174 40.43326187133789 7.506618499755859 C 42.55115127563477 9.543368339538574 44.21346282958984 11.91402816772461 45.3740119934082 14.55274868011475 C 46.57410430908203 17.2813892364502 47.18260192871094 20.18007850646973 47.18260192871094 23.16830825805664 C 47.18260192871094 26.35248947143555 46.17460250854492 29.86155891418457 44.18660354614258 33.59804916381836 C 42.46730422973633 36.82952880859375 40.0390510559082 40.15120697021484 37.16438293457031 43.2039794921875 C 35.44913101196289 45.02568817138672 33.38950347900391 47.07617950439453 31.1183032989502 48.47232818603516 C 28.87028312683105 49.85421752929688 26.63740348815918 50.49783706665039 24.0913028717041 50.49783706665039 Z" stroke="none"/>
                    <path d="M 24.0913028717041 2 C 21.09857368469238 2 18.19709205627441 2.562969207763672 15.46744155883789 3.67327880859375 C 12.83480453491211 4.744136810302734 10.47127151489258 6.276359558105469 8.442512512207031 8.227397918701172 C 6.419223785400391 10.17316818237305 4.831672668457031 12.4367790222168 3.723972320556641 14.95534896850586 C 2.580032348632812 17.55630874633789 2.000003814697266 20.31954765319824 2.000003814697266 23.16830825805664 C 2.000003814697266 25.89963912963867 2.841381072998047 28.99153900146484 4.500762939453125 32.35810089111328 C 5.916961669921875 35.23128890991211 7.937313079833984 38.28591918945312 10.34347152709961 41.19184875488281 C 12.71825408935547 44.06023788452148 14.7578239440918 45.99953842163086 16.76211357116699 47.29492950439453 C 19.05564308166504 48.77725982666016 21.45304298400879 49.49783706665039 24.0913028717041 49.49783706665039 C 28.92012214660645 49.49783706665039 32.27434158325195 46.93876647949219 36.43635177612305 42.51842880249023 C 39.25093078613281 39.52945709228516 41.62565231323242 36.28241729736328 43.30378341674805 33.12833786010742 C 45.21402359008789 29.53798866271973 46.18260192871094 26.18694877624512 46.18260192871094 23.16830825805664 C 46.18260192871094 20.31954765319824 45.60257339477539 17.55630874633789 44.45863342285156 14.95534896850586 C 43.35093307495117 12.4367790222168 41.76338195800781 10.17316818237305 39.74009323120117 8.227397918701172 C 37.71133422851562 6.276359558105469 35.34780120849609 4.744136810302734 32.71516418457031 3.67327880859375 C 29.98551368713379 2.562969207763672 27.08403205871582 2 24.0913028717041 2 M 24.0913028717041 0 C 37.39656066894531 0 48.18260192871094 10.37279891967773 48.18260192871094 23.16830825805664 C 48.18260192871094 30.35937881469727 43.31086349487305 38.13534927368164 37.89240264892578 43.88953018188477 C 33.79838180541992 48.23766708374023 29.91900253295898 51.49783706665039 24.0913028717041 51.49783706665039 C 17.63825225830078 51.49783706665039 13.20100402832031 47.77951049804688 8.802932739257812 42.46728897094727 C 4.283943176269531 37.00966644287109 3.814697265625e-06 29.75798797607422 3.814697265625e-06 23.16830825805664 C 3.814697265625e-06 10.37279891967773 10.78604125976562 0 24.0913028717041 0 Z" stroke="none" fill="#000"/>
                  </g>
                  <ellipse id="Ellipse_3" data-name="Ellipse 3" cx="11.055" cy="10.798" rx="11.055" ry="10.798" transform="translate(33.615)" fill="#302e2e"/>
                  <g id="Path_225" data-name="Path 225" transform="translate(10.476 32.908)" fill="#fff">
                    <path d="M 7.712826251983643 14.41146183013916 C 3.735656261444092 14.41146183013916 0.4999962449073792 11.29113101959229 0.4999962449073792 7.455731391906738 C 0.4999962449073792 3.620331287384033 3.735656261444092 0.5000013709068298 7.712826251983643 0.5000013709068298 C 11.68999671936035 0.5000013709068298 14.92565631866455 3.620331287384033 14.92565631866455 7.455731391906738 C 14.92565631866455 11.29113101959229 11.68999671936035 14.41146183013916 7.712826251983643 14.41146183013916 Z" stroke="none"/>
                    <path d="M 7.712826251983643 1.000000953674316 C 4.011356353759766 1.000000953674316 0.9999961853027344 3.896031379699707 0.9999961853027344 7.455731391906738 C 0.9999961853027344 11.01543140411377 4.011356353759766 13.91146087646484 7.712826251983643 13.91146087646484 C 11.41429615020752 13.91146087646484 14.42565631866455 11.01543140411377 14.42565631866455 7.455731391906738 C 14.42565631866455 3.896031379699707 11.41429615020752 1.000000953674316 7.712826251983643 1.000000953674316 M 7.712826251983643 9.5367431640625e-07 C 11.97250652313232 9.5367431640625e-07 15.42565631866455 3.338041305541992 15.42565631866455 7.455731391906738 C 15.42565631866455 11.57342147827148 11.97250652313232 14.91146183013916 7.712826251983643 14.91146183013916 C 3.453145980834961 14.91146183013916 -3.814697265625e-06 11.57342147827148 -3.814697265625e-06 7.455731391906738 C -3.814697265625e-06 3.338041305541992 3.453145980834961 9.5367431640625e-07 7.712826251983643 9.5367431640625e-07 Z" stroke="none" fill="#707070"/>
                  </g>
                  <g id="Path_226" data-name="Path 226" transform="translate(31.558 32.908)" fill="#fff">
                    <path d="M 7.712826251983643 14.41146183013916 C 3.735656261444092 14.41146183013916 0.4999962449073792 11.29113101959229 0.4999962449073792 7.455731391906738 C 0.4999962449073792 3.620331287384033 3.735656261444092 0.5000013709068298 7.712826251983643 0.5000013709068298 C 11.68999671936035 0.5000013709068298 14.92565631866455 3.620331287384033 14.92565631866455 7.455731391906738 C 14.92565631866455 11.29113101959229 11.68999671936035 14.41146183013916 7.712826251983643 14.41146183013916 Z" stroke="none"/>
                    <path d="M 7.712826251983643 1.000000953674316 C 4.011356353759766 1.000000953674316 0.9999961853027344 3.896031379699707 0.9999961853027344 7.455731391906738 C 0.9999961853027344 11.01543140411377 4.011356353759766 13.91146087646484 7.712826251983643 13.91146087646484 C 11.41429615020752 13.91146087646484 14.42565631866455 11.01543140411377 14.42565631866455 7.455731391906738 C 14.42565631866455 3.896031379699707 11.41429615020752 1.000000953674316 7.712826251983643 1.000000953674316 M 7.712826251983643 9.5367431640625e-07 C 11.97250652313232 9.5367431640625e-07 15.42565631866455 3.338041305541992 15.42565631866455 7.455731391906738 C 15.42565631866455 11.57342147827148 11.97250652313232 14.91146183013916 7.712826251983643 14.91146183013916 C 3.453145980834961 14.91146183013916 -3.814697265625e-06 11.57342147827148 -3.814697265625e-06 7.455731391906738 C -3.814697265625e-06 3.338041305541992 3.453145980834961 9.5367431640625e-07 7.712826251983643 9.5367431640625e-07 Z" stroke="none" fill="#707070"/>
                  </g>
                  <path id="Path_2" data-name="Path 2" d="M-.926-.993A8.4,8.4,0,0,1,1.92-1.632a9.87,9.87,0,0,1,3,.639" transform="translate(26.752 41.928)" fill="none" stroke="#707070" stroke-width="1"/>
                  <g id="Group_1" data-name="Group 1" transform="translate(7.416 47.683)">
                    <path id="path74" d="M196.395-459.342l-9.309,9a21.222,21.222,0,0,1-8.593,1.854h-.062q-.226,0-.453,0a21.123,21.123,0,0,1-8.116-1.812l-9.506-9.039-3.3-9.04,12.805-.906a21.12,21.12,0,0,1,8.116-1.812q.227,0,.453,0h.062a21.222,21.222,0,0,1,8.593,1.854h14.069l-4.76,9.908" transform="translate(-157.056 471.104)" fill="#5181ca"/>
                    <path id="path98" d="M237.076-342.745H236.9a13.115,13.115,0,0,1-2.694-.334c-.221-.052-.44-.11-.657-.174l-.325-.1-.316-.1q-.632-.2-1.261-.41-1.261-.411-2.517-.839c-.835-.293-1.674-.573-2.5-.877l.08-.26c.858.218,1.708.461,2.563.69s1.7.48,2.551.728q.637.183,1.273.374l.318.094.311.087c.208.056.418.107.628.152a12.83,12.83,0,0,0,2.563.3l.267,0a13,13,0,0,0,2.3-.21c.425-.073.841-.179,1.274-.284l1.29-.309q2.579-.618,5.177-1.163l.068.265q-2.541.767-5.1,1.461l-1.28.347c-.423.112-.862.234-1.307.32a13.089,13.089,0,0,1-2.525.242" transform="translate(-216.54 360.434)" fill="#508bd0"/>
                    <path id="path98-2" data-name="path98" d="M240.5-342.745h-.238a22.872,22.872,0,0,1-3.577-.334q-.439-.079-.872-.174l-.432-.1-.419-.1q-.839-.2-1.675-.41-1.674-.411-3.342-.839c-1.109-.293-2.222-.573-3.326-.877l.107-.26c1.139.218,2.268.461,3.4.69s2.26.48,3.387.728q.846.183,1.69.374l.422.094.414.087q.414.085.834.152a22.4,22.4,0,0,0,3.4.3l.354,0a22.785,22.785,0,0,0,3.061-.21c.564-.073,1.116-.179,1.692-.284l1.712-.309q3.425-.618,6.875-1.163l.09.265q-3.374.767-6.774,1.461l-1.7.347c-.562.112-1.144.234-1.736.32a22.919,22.919,0,0,1-3.352.242" transform="translate(-219.85 355.734)" fill="#508bd0"/>
                    <path id="path98-3" data-name="path98" d="M242.853-342.745h-.278a31.147,31.147,0,0,1-4.183-.334q-.514-.079-1.02-.174l-.505-.1-.49-.1q-.981-.2-1.958-.41-1.958-.411-3.907-.839c-1.3-.293-2.6-.573-3.889-.877l.125-.26c1.332.218,2.652.461,3.979.69s2.643.48,3.96.728q.989.183,1.976.374l.493.094.484.087q.484.085.975.152a30.523,30.523,0,0,0,3.979.3l.414,0a31.083,31.083,0,0,0,3.579-.21c.659-.073,1.305-.179,1.979-.284l2-.309q4-.618,8.039-1.163l.1.265q-3.946.767-7.92,1.461l-1.988.347c-.657.112-1.338.234-2.03.32a31.259,31.259,0,0,1-3.92.242" transform="translate(-220.949 351.033)" fill="#508bd0"/>
                  </g>
                  <path id="Path_5" data-name="Path 5" d="M1.323.259A2.874,2.874,0,0,1,4.148,2.9a3,3,0,0,1-2.825,2.77c-1.281,0-3.048-1.24-3.048-2.77S.041.259,1.323.259Z" transform="translate(16.464 36.514)" fill="#fff"/>
                  <path id="Path_227" data-name="Path 227" d="M1.323.259A2.874,2.874,0,0,1,4.148,2.9a3,3,0,0,1-2.825,2.77c-1.281,0-3.048-1.24-3.048-2.77S.041.259,1.323.259Z" transform="translate(16.462 35.381)" fill="#302e2e"/>
                  <circle id="Ellipse_6" data-name="Ellipse 6" cx="0.514" cy="0.514" r="0.514" transform="translate(16.647 39.593)" fill="#f7f7f7"/>
                  <path id="path4102" d="M568.432-1504.312a36.992,36.992,0,0,0,4.709,15.178c-3.446-4.207-4.868-10.054-4.709-15.178m5.637-8.908a9.632,9.632,0,0,0-4.324-1.468,4.525,4.525,0,0,1,4.324,1.468m-6.649,9.729a13.137,13.137,0,0,1-2.244,3.937,15.952,15.952,0,0,1-4.784,3.734,22.478,22.478,0,0,0,7.048-7.738l-.02.066M539.2-1517.962a24.409,24.409,0,0,1,8.962-3,23.949,23.949,0,0,1,8.192.491,30.155,30.155,0,0,0-17.153,2.51m-8.321,7.659a26.286,26.286,0,0,0-3.648,8.483,25.793,25.793,0,0,0-.314,10.242c.049.285.109.566.167.849a27.085,27.085,0,0,1-.205-12.1,17.65,17.65,0,0,1,5.392-9.35,17.378,17.378,0,0,0-1.391,1.872m43-1.367c.971.141,2.67,1.818,3.467,2.394a7.327,7.327,0,0,0-1.905-2.867l-.021-.081c-1.153-1.928-3.59-3.462-6.033-2.486-.166-.006-.332-.015-.5-.015a9.886,9.886,0,0,0-6.617-5.3l1.314,1.656c-.409-.184-.826-.357-1.247-.522l-.039-.047c-8.609-4.614-19.255-2.742-26.642,2.688a.2.2,0,0,0,.008.344c-.445.313-.88.635-1.3.973q1.409-.6,2.817-1.214a7.874,7.874,0,0,0-1.928,1.212,18.841,18.841,0,0,0-8.652,11.434c-1.631,5.616,1.98,16.3,2.158,16.684.972-3.016,4.8-9.87,15.341-15,9.89-4.109,16.01-2.2,18.167-4.753-.432.774,1.008,2.24,0,4.753-1.179,2.938-4.84,7.031-5.39,8.016.294-.137.584-.285.871-.432a.249.249,0,0,0,.337.116,25.353,25.353,0,0,0,6.987-4.68,12.58,12.58,0,0,0,3.081-6.238c.013-.031.025-.059.038-.088a25.657,25.657,0,0,0,1.263,9.9,17.366,17.366,0,0,0,5.1,8.407c.389.588.789,1.174,1.212,1.743q.193-2.831.386-5.662.47,1.6.939,3.2c2.049-7.694,1.922-18.63-3.216-24.133" transform="translate(-523.664 1527.077)" fill="#302e2e"/>
                  <g id="Group_276" data-name="Group 276" transform="translate(36.332 35.459)">
                    <path id="Path_228" data-name="Path 228" d="M1.323.259A2.874,2.874,0,0,1,4.148,2.9a3,3,0,0,1-2.825,2.77c-1.281,0-3.048-1.24-3.048-2.77S.041.259,1.323.259Z" transform="translate(1.728 0.874)" fill="#fff"/>
                    <path id="Path_229" data-name="Path 229" d="M1.323.259A2.874,2.874,0,0,1,4.148,2.9a3,3,0,0,1-2.825,2.77c-1.281,0-3.048-1.24-3.048-2.77S.041.259,1.323.259Z" transform="translate(1.725 -0.259)" fill="#302e2e"/>
                  </g>
                  <circle id="Ellipse_94" data-name="Ellipse 94" cx="0.514" cy="0.514" r="0.514" transform="translate(38.756 38.964)" fill="#f7f7f7"/>
                </g>
              </g>
              <path id="Path_41" data-name="Path 41" d="M0,0S6.974.779,11.381,4.3s6.247,9.8,6.247,9.8" transform="translate(35.076 5.656)" fill="none" stroke="#707070" stroke-width="1"/>
            </g>
          </g>
        </g>
      </g>
      <line id="Line_59" data-name="Line 59" x2="7.483" y2="1.559" transform="translate(35.163 30.445)" fill="none" stroke="#302e2e" stroke-width="1"/>
      <line id="Line_58" data-name="Line 58" y1="3.118" x2="7.483" transform="translate(11.466 30.445)" fill="none" stroke="#302e2e" stroke-width="1"/>
    </g>
  </g>
  <g id="Group_279" data-name="Group 279" transform="translate(7.422 51.624)">
    <g id="Group_269" data-name="Group 269" transform="translate(0.087 0)">
      <path id="Path_213" data-name="Path 213" d="M5.3,36.372c.433,2.253.78,4.506,1.127,6.846.173,1.127.347,2.34.433,3.466.087,1.213.26,2.34.26,3.64v.087A3.51,3.51,0,0,1,.1,50.5a3.555,3.555,0,0,1,.087-.953,28.481,28.481,0,0,0,.607-3.12c.173-1.04.347-2.166.433-3.293.26-2.253.52-4.506.693-6.672h0A1.719,1.719,0,0,1,3.74,34.9,1.67,1.67,0,0,1,5.3,36.372Z" transform="translate(-0.1 -34.892)" fill="#f6bc91"/>
    </g>
    <g id="Group_270" data-name="Group 270" transform="translate(7.886 21.584)">
      <path id="Path_214" data-name="Path 214" d="M17.506,63.44H10.92a1.82,1.82,0,1,1,0-3.64h6.586a1.82,1.82,0,1,1,0,3.64Z" transform="translate(-9.1 -59.8)" fill="#f6bc91"/>
    </g>
    <path id="Path_215" data-name="Path 215" d="M17.591,52.839c0-4.853-3.986-6.239-8.839-6.239S0,47.986,0,52.839a8.8,8.8,0,1,0,17.591,0Z" transform="translate(0 -36.454)" fill="#f6bc91"/>
    <line id="Line_60" data-name="Line 60" x1="3.293" transform="translate(12.652 21.584)" fill="none" stroke="#c3a289" stroke-linecap="round" stroke-miterlimit="10" stroke-width="1.817"/>
    <g id="Group_271" data-name="Group 271" transform="translate(10.394 17.117)">
      <path id="Path_216" data-name="Path 216" d="M12.433,59.372c-.953,0,0-.607-.347-1.56a2.152,2.152,0,0,1,1.473-2.686,22.968,22.968,0,0,1,6.326-.433,2.22,2.22,0,0,1-.433,4.419,28.425,28.425,0,0,0-6.412.347C12.866,59.459,12.606,59.372,12.433,59.372Z" transform="translate(-11.995 -54.645)" fill="#f6bc91"/>
    </g>
    <g id="Group_272" data-name="Group 272" transform="translate(11.979 16.472)">
      <path id="Path_217" data-name="Path 217" d="M19.609,55.113a23.361,23.361,0,0,0-2.426.347,17.1,17.1,0,0,0-2.253.607h0a.8.8,0,0,1-.607-1.473h.087a13.817,13.817,0,0,1,2.6-.52c.867-.087,1.733-.173,2.6-.173a.592.592,0,0,1,.607.607.651.651,0,0,1-.607.607Z" transform="translate(-13.823 -53.9)" fill="#c3a289"/>
    </g>
    <g id="Group_273" data-name="Group 273" transform="translate(10.817 12.399)">
      <path id="Path_218" data-name="Path 218" d="M13.451,54.919c-.867,0-.433-.693-.78-1.56a2.326,2.326,0,0,1,1.213-3.033A19.207,19.207,0,0,1,20.123,49.2h.087a2.435,2.435,0,0,1,2.34,2.253A2.389,2.389,0,0,1,20.3,53.879a27.941,27.941,0,0,0-6.326,1.127C13.711,55.006,13.8,54.919,13.451,54.919Z" transform="translate(-12.483 -49.2)" fill="#f6bc91"/>
    </g>
    <path id="Path_219" data-name="Path 219" d="M20.066,48.9A17.647,17.647,0,0,0,14,50.893c.235-.122.118-.062,0,0" transform="translate(-1.868 -36.761)" fill="#c3a289" stroke="#c3a289" stroke-linecap="round" stroke-miterlimit="10" stroke-width="1.817"/>
    <path id="Path_220" data-name="Path 220" d="M7.089,46.026a39.694,39.694,0,0,1,4.246-1.3c.693-.173,1.386-.433,2.166-.607a13.575,13.575,0,0,1,2.6-.433c.867-.087,1.733-.087,2.6-.087.433,0,.867.087,1.3.087l1.127.173c1.473.173,2.946.433,4.419.693a1.651,1.651,0,0,1,1.386,1.906,1.749,1.749,0,0,1-1.56,1.473c-1.473.087-3.033.173-4.506.173H19.741a3.555,3.555,0,0,0-.953.087,13.453,13.453,0,0,0-1.82.347,10.194,10.194,0,0,0-1.733.607c-.607.26-1.386.52-2.08.78-1.386.52-2.773,1.04-4.246,1.56a2.972,2.972,0,0,1-3.726-1.82A3.04,3.04,0,0,1,7.089,46.026Z" transform="translate(-0.677 -36.054)" fill="#f6bc91"/>
  </g>
</svg>
