<svg width="16" height="16" viewBox="0 0 16 16" fill="none" xmlns="http://www.w3.org/2000/svg">
<path fill-rule="evenodd" clip-rule="evenodd" d="M10.9807 11.8575C11.3575 12.9115 10.516 14 9.32428 14C8.76047 14 8.23126 13.7461 7.90356 13.3184L5.03859 9.57895H2.67744L2 8.94737V2.63158L2.67744 2H12.5803L14.661 5.87975C15.2789 7.03183 15.0367 8.42324 14.0598 9.33406C13.4578 9.89525 12.6415 10.2105 11.7901 10.2105H10.3917L10.9807 11.8575ZM6.06464 8.74493L9.00606 12.5842C9.07949 12.68 9.198 12.7368 9.32428 12.7368C9.59118 12.7368 9.77969 12.493 9.69524 12.257L8.51198 8.94737H11.7901C12.2821 8.94737 12.7539 8.76514 13.1017 8.44084C13.6664 7.91453 13.8063 7.1104 13.4492 6.44463L11.743 3.26316H6.06464V8.74493ZM4.70977 3.26316H3.35487V8.31579H4.70977V3.26316Z" fill="#999999"/>
</svg>
