<svg xmlns="http://www.w3.org/2000/svg" width="58.293" height="68.682" viewBox="0 0 58.293 68.682">
  <path id="like-16-filled-svgrepo-com" d="M36.611.22C32.925-.8,30.048,1.943,29.021,4.5c-1.183,2.945-2.222,5.012-3.465,7.482-.769,1.528-1.615,3.211-2.621,5.352A41.92,41.92,0,0,1,16.59,27.375,19.956,19.956,0,0,1,14.6,29.353c-.227.193-.4.323-.5.4l-.079.057L4.832,35.23a9.821,9.821,0,0,0-4.2,11.913l2.553,6.8a9.822,9.822,0,0,0,6.25,5.915l26.3,8.261A12.276,12.276,0,0,0,51.19,59.862l6.7-22.815a9.821,9.821,0,0,0-9.423-12.588h-6.8c.324-1.113.655-2.351.956-3.635a36.841,36.841,0,0,0,1.143-8.532,18.14,18.14,0,0,0-1.3-7.179A8.719,8.719,0,0,0,36.611.22Z" transform="translate(58.293 68.682) rotate(180)" fill="#d5d6d6"/>
</svg>
