<svg xmlns="http://www.w3.org/2000/svg" width="14" height="16" viewBox="0 0 14 16">
  <g id="_5402372_save_arrow_navigation_download_import_icon" data-name="5402372_save_arrow_navigation_download_import_icon" transform="translate(-5 -4)">
    <path id="Path_180" data-name="Path 180" d="M18,20H6a1,1,0,0,1,0-2H18a1,1,0,0,1,0,2Z" transform="translate(0 0)" fill="#069d06"/>
    <path id="Path_181" data-name="Path 181" d="M15.92,11.62A1,1,0,0,0,15,11H13V5a1,1,0,0,0-2,0v6H9a1.006,1.006,0,0,0-.71,1.71l3,3a1,1,0,0,0,.33.21.94.94,0,0,0,.76,0,1,1,0,0,0,.33-.21l3-3A1,1,0,0,0,15.92,11.62Z" fill="#069d06"/>
  </g>
</svg>
