<svg xmlns="http://www.w3.org/2000/svg" xmlns:xlink="http://www.w3.org/1999/xlink" width="19.212" height="19.212" viewBox="0 0 19.212 19.212">
  <defs>
    <clipPath id="clip-path">
      <rect id="Rectangle_186" data-name="Rectangle 186" width="18" height="18" transform="translate(0 -0.461)" fill="#0b74fa"/>
    </clipPath>
  </defs>
  <g id="reshot-icon-edit-RSQZDV5MK6" transform="matrix(0.998, -0.07, 0.07, 0.998, 0.032, 1.715)" clip-path="url(#clip-path)">
    <path id="Path_185" data-name="Path 185" d="M16.671,6.137a.731.731,0,0,1,0,1.034l-9.5,9.5a.731.731,0,0,1-.517.214H3.731A.731.731,0,0,1,3,16.154V13.231a.731.731,0,0,1,.214-.517l9.5-9.5a.731.731,0,0,1,1.033,1.034L4.462,13.534v1.89h1.89l9.286-9.286A.731.731,0,0,1,16.671,6.137Z" transform="translate(-0.808 -0.808)" fill="#0b74fa" fill-rule="evenodd"/>
    <path id="Path_186" data-name="Path 186" d="M16.214,3.214a.731.731,0,0,1,1.033,0l2.923,2.923a.731.731,0,0,1-1.033,1.034L16.214,4.248A.731.731,0,0,1,16.214,3.214Z" transform="translate(-4.307 -0.808)" fill="#0b74fa" fill-rule="evenodd"/>
    <path id="Path_187" data-name="Path 187" d="M16.216,10.25,13.293,7.326l1.033-1.033,2.923,2.923Z" transform="translate(-3.578 -1.694)" fill="#0b74fa" fill-rule="evenodd"/>
  </g>
</svg>
