<svg id="fast" xmlns="http://www.w3.org/2000/svg" width="61.198" height="48.235" viewBox="0 0 61.198 48.235">
  <path id="Path_909" data-name="Path 909" d="M64.216,7.864a20.237,20.237,0,1,1-3.825-.1V5.18c0-.05,0-.1,0-.154H56.6A1.133,1.133,0,0,1,55.47,3.895V1.131A1.133,1.133,0,0,1,56.6,0H68.006a1.133,1.133,0,0,1,1.131,1.131V3.9A1.133,1.133,0,0,1,68.006,5.03h-3.8c0,.05,0,.1,0,.154V7.864Zm-.8,17.088a3.436,3.436,0,1,1-3.257,0V17.078a1.626,1.626,0,1,1,3.252,0v7.874Zm16.57-10.967a4.93,4.93,0,0,0-.433-5.16c-1.35-1.579-3.79-1.763-6.056-.647a32.781,32.781,0,0,1,6.489,5.807Zm-36.391,0a4.93,4.93,0,0,1,.433-5.16c1.35-1.579,3.79-1.763,6.056-.647a32.643,32.643,0,0,0-6.489,5.807Zm30.221,1.972A17,17,0,1,0,78.8,27.98a16.945,16.945,0,0,0-4.985-12.023Z" transform="translate(-20.847)" fill="#ff7657"/>
  <path id="Path_910" data-name="Path 910" d="M1.624,37.707a1.629,1.629,0,0,1,0-3.257H17.67L16.859,37.7H1.624v0Z" transform="translate(0 -17.293)" fill="#ffba5a"/>
  <path id="Path_911" data-name="Path 911" d="M8.4,56.422a1.626,1.626,0,1,1,0-3.252H18.768l.269,3.252Z" transform="translate(-3.398 -26.689)" fill="#ffba5a"/>
  <path id="Path_912" data-name="Path 912" d="M15.7,75.617a1.629,1.629,0,1,1,0-3.257h8.1l1.086,3.252H15.7v0Z" transform="translate(-7.063 -36.322)" fill="#ffba5a"/>
</svg>
