<svg xmlns="http://www.w3.org/2000/svg" width="91.839" height="124.809" viewBox="0 0 91.839 124.809"><g transform="translate(0 0)"><g transform="translate(0 0)"><g transform="translate(0 0)"><g transform="translate(0 0)"><g transform="translate(0 0)"><g transform="translate(0 0)"><g transform="translate(0)"><g transform="matrix(0.995, -0.105, 0.105, 0.995, 35.807, 123.359)"><path d="M27.145,0,0,1.458Z" stroke="none"/><path d="M 27.14525604248047 -1.549720764160156e-06 L -3.814697265625e-06 1.457878470420837 L 27.14525604248047 -1.549720764160156e-06 Z" stroke="none" fill="#000"/></g><g transform="translate(60.733 58.223)" fill="#302e2e"><path d="M 19.86302947998047 22.51180267333984 C 17.86161994934082 22.51180267333984 16.79136848449707 22.3001823425293 16.39281845092773 21.82563400268555 C 15.97440910339355 21.32742309570312 16.16236877441406 20.25597381591797 16.42251968383789 18.77303314208984 C 16.67290878295898 17.34569358825684 16.98453903198242 15.56932353973389 16.98453903198242 13.29299354553223 C 16.98453903198242 9.867903709411621 18.20760917663574 6.649843215942383 20.42845916748047 4.231633186340332 C 22.6384391784668 1.825253248214722 25.5733585357666 0.5000032186508179 28.69258880615234 0.5000032186508179 C 29.33227920532227 0.5000032186508179 29.79619979858398 0.7515532374382019 30.11086845397949 1.269043207168579 C 30.43925857543945 1.809073209762573 30.60575866699219 2.615423202514648 30.60575866699219 3.665693283081055 C 30.60575866699219 6.713083267211914 29.13028907775879 11.48345279693604 26.93424987792969 15.5361328125 C 24.56736946105957 19.90407371520996 21.92391967773438 22.51180267333984 19.86302947998047 22.51180267333984 Z" stroke="none"/><path d="M 28.69258880615234 1.000003814697266 C 22.51244926452637 1.000003814697266 17.48453903198242 6.514614105224609 17.48453903198242 13.29299354553223 C 17.48453903198242 15.61284255981445 17.15535926818848 17.48929214477539 16.91499900817871 18.85942268371582 C 16.70525932312012 20.05501365661621 16.50714874267578 21.18430328369141 16.77570915222168 21.50407409667969 C 16.97022819519043 21.73569297790527 17.66375923156738 22.01180267333984 19.86302947998047 22.01180267333984 C 21.70949935913086 22.01180267333984 24.25057983398438 19.43919372558594 26.49463844299316 15.29792308807373 C 28.65456008911133 11.31190299987793 30.10575866699219 6.637262344360352 30.10575866699219 3.665693283081055 C 30.10575866699219 2.473272323608398 29.87621879577637 1.845493316650391 29.68365859985352 1.528823852539062 C 29.45825958251953 1.158153533935547 29.16186904907227 1.000003814697266 28.69258880615234 1.000003814697266 M 28.69258880615234 3.814697265625e-06 C 35.43489837646484 3.814697265625e-06 26.60534858703613 23.01180267333984 19.86302947998047 23.01180267333984 C 13.12071990966797 23.01180267333984 16.48453903198242 20.63450241088867 16.48453903198242 13.29299354553223 C 16.48453903198242 5.951473236083984 21.95027923583984 3.814697265625e-06 28.69258880615234 3.814697265625e-06 Z" stroke="none" fill="#707070"/></g><g transform="translate(-15.645 57.597)" fill="#302e2e"><path d="M 26.88815307617188 22.51180267333984 C 24.82726287841797 22.51180267333984 22.18381309509277 19.90407371520996 19.81693267822266 15.5361328125 C 17.62088394165039 11.48345279693604 16.14541435241699 6.713093280792236 16.14541435241699 3.665693283081055 C 16.14541435241699 2.615423202514648 16.31192398071289 1.809073209762573 16.64030265808105 1.269043207168579 C 16.9549732208252 0.7515532374382019 17.41890335083008 0.5000032186508179 18.05859375 0.5000032186508179 C 21.17782402038574 0.5000032186508179 24.11275291442871 1.825253248214722 26.32272338867188 4.231633186340332 C 28.5435733795166 6.649843215942383 29.76664352416992 9.867893218994141 29.76664352416992 13.29299354553223 C 29.76664352416992 15.56932353973389 30.07827377319336 17.345703125 30.32867431640625 18.77304267883301 C 30.58882331848145 20.25598335266113 30.77678298950195 21.32742309570312 30.35836410522461 21.82563400268555 C 29.95982360839844 22.3001823425293 28.88956260681152 22.51180267333984 26.88815307617188 22.51180267333984 Z" stroke="none"/><path d="M 18.05859184265137 1.000003814697266 C 17.58931159973145 1.000003814697266 17.29291152954102 1.158153533935547 17.0675220489502 1.528823852539062 C 16.87495231628418 1.845493316650391 16.64541244506836 2.473283767700195 16.64541244506836 3.665693283081055 C 16.64541244506836 6.637273788452148 18.09661102294922 11.31190299987793 20.25654220581055 15.29792308807373 C 22.50060081481934 19.43919372558594 25.04169082641602 22.01180267333984 26.88816070556641 22.01180267333984 C 29.08743286132812 22.01180267333984 29.78095245361328 21.73570251464844 29.9754810333252 21.50407409667969 C 30.24404144287109 21.18430328369141 30.04593276977539 20.05502319335938 29.83619117736816 18.85943222045898 C 29.59583282470703 17.48930358886719 29.26664161682129 15.61284255981445 29.26664161682129 13.29299354553223 C 29.26664161682129 6.514614105224609 24.23873138427734 1.000003814697266 18.05859184265137 1.000003814697266 M 18.05859184265137 3.814697265625e-06 C 24.80091094970703 3.814697265625e-06 30.26664161682129 5.951473236083984 30.26664161682129 13.29299354553223 C 30.26664161682129 20.63450241088867 33.63047027587891 23.01180267333984 26.88816070556641 23.01180267333984 C 20.14583206176758 23.01180267333984 11.3162727355957 3.814697265625e-06 18.05859184265137 3.814697265625e-06 Z" stroke="none" fill="#707070"/></g><g transform="translate(7.735 28.798)" fill="#f6bc91"><path d="M 38.50232315063477 81.30299377441406 C 33.84985733032227 81.30299377441406 29.6284122467041 80.03633117675781 25.59673500061035 77.43061828613281 C 22.15323448181152 75.20505523681641 18.83542251586914 72.05992889404297 14.83897876739502 67.23279571533203 C 10.88604545593262 62.45882034301758 7.560901165008545 57.42836380004883 5.222990036010742 52.68521881103516 C 2.420823097229004 47.00016403198242 1.000000953674316 41.73205184936523 1.000000953674316 37.02720642089844 C 1.000000953674316 32.16804122924805 1.98952317237854 27.45437431335449 3.941078662872314 23.01714134216309 C 5.827456474304199 18.72811889648438 8.52885627746582 14.87532997131348 11.97023391723633 11.56579685211182 C 15.41435623168945 8.253630638122559 19.42550086975098 5.652974605560303 23.89226722717285 3.836074590682983 C 28.51880073547363 1.954196929931641 33.43433380126953 0.9999969005584717 38.50232315063477 0.9999969005584717 C 43.5703125 0.9999969005584717 48.48584365844727 1.954196929931641 53.11237716674805 3.836074590682983 C 57.57914352416992 5.652974605560303 61.59029006958008 8.253630638122559 65.03440856933594 11.56579685211182 C 68.47579193115234 14.87532997131348 71.17719268798828 18.72811889648438 73.06356811523438 23.01714134216309 C 75.01512145996094 27.45437431335449 76.00464630126953 32.16804122924805 76.00464630126953 37.02720642089844 C 76.00464630126953 42.21512985229492 74.37008666992188 47.91780853271484 71.14639282226562 53.9768180847168 C 68.37399291992188 59.18759536743164 64.46118927001953 64.5408935546875 59.83097839355469 69.45797729492188 C 57.06277847290039 72.39801025390625 53.73551177978516 75.70927429199219 50.04601287841797 77.97727203369141 C 48.26327896118164 79.07315063476562 46.50504684448242 79.87294006347656 44.67085647583008 80.42235565185547 C 42.69254684448242 81.01493835449219 40.67480087280273 81.30299377441406 38.50232315063477 81.30299377441406 Z" stroke="none"/><path d="M 38.50232315063477 2 C 33.56412124633789 2 28.77534866333008 2.929397583007812 24.26904678344727 4.762382507324219 C 19.92034912109375 6.531257629394531 16.01564788818359 9.062759399414062 12.66339874267578 12.28657531738281 C 9.316619873046875 15.50511932373047 6.689987182617188 19.25085830688477 4.856460571289062 23.41973495483398 C 2.961051940917969 27.72929763793945 2 32.30751037597656 2 37.02719879150391 C 2 41.57739639282227 3.386146545410156 46.69675827026367 6.119949340820312 52.24309539794922 C 8.423912048339844 56.91738510131836 11.70523834228516 61.88017272949219 15.60924911499023 66.59506988525391 C 19.53779983520508 71.34019470214844 22.78546142578125 74.42298126220703 26.13953399658203 76.59075927734375 C 30.00448608398438 79.08870697021484 34.04838562011719 80.30299377441406 38.50232315063477 80.30299377441406 C 42.49393463134766 80.30299377441406 45.99562072753906 79.29328155517578 49.52232360839844 77.12535858154297 C 53.11202239990234 74.91870880126953 56.37978363037109 71.66463470458984 59.10295867919922 68.77242279052734 C 63.67307281494141 63.91915893554688 67.5323486328125 58.64049530029297 70.26357269287109 53.50711059570312 C 73.40952301025391 47.59423446655273 75.00464630126953 42.04958343505859 75.00464630126953 37.02719879150391 C 75.00464630126953 32.30751037597656 74.04359436035156 27.72929763793945 72.14818572998047 23.41973495483398 C 70.31465911865234 19.25085830688477 67.68802642822266 15.50511932373047 64.34124755859375 12.28657531738281 C 60.98899841308594 9.062759399414062 57.08429718017578 6.531257629394531 52.735595703125 4.762382507324219 C 48.22928619384766 2.929397583007812 43.44052505493164 2 38.50232315063477 2 M 38.50232315063477 0 C 59.76656341552734 0 77.00464630126953 16.57764434814453 77.00464630126953 37.02719879150391 C 77.00464630126953 48.51985931396484 69.21871185302734 60.94729614257812 60.55901336669922 70.14352416992188 C 54.01602172851562 77.09264373779297 47.81606292724609 82.30299377441406 38.50232315063477 82.30299377441406 C 28.18915939331055 82.30299377441406 21.09762191772461 76.36042022705078 14.06871032714844 67.87050628662109 C 6.846519470214844 59.14824676513672 0 47.55872344970703 0 37.02719879150391 C 0 16.57764434814453 17.23807144165039 0 38.50232315063477 0 Z" stroke="none" fill="#000"/></g><ellipse cx="17.668" cy="17.257" rx="17.668" ry="17.257" transform="translate(53.723)" fill="#302e2e"/><g transform="translate(16.743 52.593)" fill="#fff"><path d="M 12.32651233673096 23.33125686645508 C 9.164352416992188 23.33125686645508 6.192302227020264 22.1417179107666 3.957862377166748 19.98175811767578 C 1.728032350540161 17.82624816894531 0.5000023245811462 14.96163749694824 0.5000023245811462 11.91562747955322 C 0.5000023245811462 8.869617462158203 1.728032350540161 6.005007266998291 3.957862377166748 3.849497556686401 C 6.192302227020264 1.689537525177002 9.164352416992188 0.499997466802597 12.32651233673096 0.499997466802597 C 15.48867225646973 0.499997466802597 18.46072196960449 1.689537525177002 20.69516181945801 3.849497556686401 C 22.92499160766602 6.005007266998291 24.15302276611328 8.869617462158203 24.15302276611328 11.91562747955322 C 24.15302276611328 14.96163749694824 22.92499160766602 17.82624816894531 20.69516181945801 19.98175811767578 C 18.46072196960449 22.1417179107666 15.48867225646973 23.33125686645508 12.32651233673096 23.33125686645508 Z" stroke="none"/><path d="M 12.32651233673096 0.9999980926513672 C 9.294712066650391 0.9999980926513672 6.446083068847656 2.139636993408203 4.30537223815918 4.20899772644043 C 2.173871994018555 6.269447326660156 1.000001907348633 9.006377220153809 1.000001907348633 11.91562747955322 C 1.000001907348633 14.82487773895264 2.173871994018555 17.56180763244629 4.30537223815918 19.62225723266602 C 6.446083068847656 21.69161796569824 9.294712066650391 22.83125686645508 12.32651233673096 22.83125686645508 C 15.35831260681152 22.83125686645508 18.20694351196289 21.69161796569824 20.34765243530273 19.62225723266602 C 22.47915267944336 17.56180763244629 23.65302276611328 14.82487773895264 23.65302276611328 11.91562747955322 C 23.65302276611328 9.006377220153809 22.47915267944336 6.269447326660156 20.34765243530273 4.20899772644043 C 18.20694351196289 2.139636993408203 15.35831260681152 0.9999980926513672 12.32651233673096 0.9999980926513672 M 12.32651233673096 -1.9073486328125e-06 C 19.13425254821777 -1.9073486328125e-06 24.65302276611328 5.334808349609375 24.65302276611328 11.91562747955322 C 24.65302276611328 18.4964485168457 19.13425254821777 23.83125686645508 12.32651233673096 23.83125686645508 C 5.518772125244141 23.83125686645508 1.9073486328125e-06 18.4964485168457 1.9073486328125e-06 11.91562747955322 C 1.9073486328125e-06 5.334808349609375 5.518772125244141 -1.9073486328125e-06 12.32651233673096 -1.9073486328125e-06 Z" stroke="none" fill="#707070"/></g><g transform="translate(50.436 52.593)" fill="#fff"><path d="M 12.32651233673096 23.33125686645508 C 9.164352416992188 23.33125686645508 6.192302227020264 22.1417179107666 3.957862377166748 19.98175811767578 C 1.728032350540161 17.82624816894531 0.5000023245811462 14.96163749694824 0.5000023245811462 11.91562747955322 C 0.5000023245811462 8.869617462158203 1.728032350540161 6.005007266998291 3.957862377166748 3.849497556686401 C 6.192302227020264 1.689537525177002 9.164352416992188 0.499997466802597 12.32651233673096 0.499997466802597 C 15.48867225646973 0.499997466802597 18.46072196960449 1.689537525177002 20.69516181945801 3.849497556686401 C 22.92499160766602 6.005007266998291 24.15302276611328 8.869617462158203 24.15302276611328 11.91562747955322 C 24.15302276611328 14.96163749694824 22.92499160766602 17.82624816894531 20.69516181945801 19.98175811767578 C 18.46072196960449 22.1417179107666 15.48867225646973 23.33125686645508 12.32651233673096 23.33125686645508 Z" stroke="none"/><path d="M 12.32651233673096 0.9999980926513672 C 9.294712066650391 0.9999980926513672 6.446083068847656 2.139636993408203 4.30537223815918 4.20899772644043 C 2.173871994018555 6.269447326660156 1.000001907348633 9.006377220153809 1.000001907348633 11.91562747955322 C 1.000001907348633 14.82487773895264 2.173871994018555 17.56180763244629 4.30537223815918 19.62225723266602 C 6.446083068847656 21.69161796569824 9.294712066650391 22.83125686645508 12.32651233673096 22.83125686645508 C 15.35831260681152 22.83125686645508 18.20694351196289 21.69161796569824 20.34765243530273 19.62225723266602 C 22.47915267944336 17.56180763244629 23.65302276611328 14.82487773895264 23.65302276611328 11.91562747955322 C 23.65302276611328 9.006377220153809 22.47915267944336 6.269447326660156 20.34765243530273 4.20899772644043 C 18.20694351196289 2.139636993408203 15.35831260681152 0.9999980926513672 12.32651233673096 0.9999980926513672 M 12.32651233673096 -1.9073486328125e-06 C 19.13425254821777 -1.9073486328125e-06 24.65302276611328 5.334808349609375 24.65302276611328 11.91562747955322 C 24.65302276611328 18.4964485168457 19.13425254821777 23.83125686645508 12.32651233673096 23.83125686645508 C 5.518772125244141 23.83125686645508 1.9073486328125e-06 18.4964485168457 1.9073486328125e-06 11.91562747955322 C 1.9073486328125e-06 5.334808349609375 5.518772125244141 -1.9073486328125e-06 12.32651233673096 -1.9073486328125e-06 Z" stroke="none" fill="#707070"/></g><path d="M-.926-.61A13.418,13.418,0,0,1,3.623-1.632,15.775,15.775,0,0,1,8.418-.61" transform="translate(42.201 66.033)" fill="none" stroke="#707070" stroke-width="1"/><g transform="translate(11.853 76.207)"><path d="M219.926-452.306,205.049-437.92a33.916,33.916,0,0,1-13.734,2.963h-.1q-.361,0-.724-.007a33.759,33.759,0,0,1-12.97-2.9l-15.193-14.446-5.273-14.447,20.465-1.448a33.756,33.756,0,0,1,12.97-2.9q.362-.007.724-.007h.1a33.916,33.916,0,0,1,13.734,2.963h22.484l-7.607,15.835" transform="translate(-157.056 471.104)" fill="#5181ca"/><path d="M243.329-340.894l-.286,0a20.961,20.961,0,0,1-4.306-.534c-.352-.084-.7-.175-1.05-.278l-.52-.157-.5-.162q-1.01-.321-2.016-.655-2.015-.657-4.022-1.341c-1.334-.468-2.675-.915-4-1.4l.128-.415c1.371.348,2.73.736,4.1,1.1q2.041.573,4.076,1.164,1.018.293,2.034.6l.508.151.5.138c.332.09.667.17,1,.243a20.505,20.505,0,0,0,4.1.476q.213,0,.426,0a20.781,20.781,0,0,0,3.684-.336c.678-.116,1.343-.287,2.037-.454l2.061-.495q4.122-.987,8.274-1.858l.108.423q-4.061,1.226-8.153,2.335l-2.046.554c-.676.178-1.377.374-2.089.511a20.918,20.918,0,0,1-4.035.386" transform="translate(-210.509 369.165)" fill="#508bd0"/><path d="M248.806-340.894l-.38,0a36.555,36.555,0,0,1-5.717-.534q-.7-.126-1.394-.278l-.69-.157-.67-.162q-1.341-.321-2.676-.655-2.676-.657-5.34-1.341c-1.772-.468-3.551-.915-5.315-1.4l.171-.415c1.821.348,3.625.736,5.438,1.1q2.71.573,5.413,1.164,1.352.293,2.7.6l.674.151.661.138c.441.09.886.17,1.333.243a35.8,35.8,0,0,0,5.438.476q.283,0,.566,0a36.414,36.414,0,0,0,4.892-.336c.9-.116,1.784-.287,2.7-.454l2.737-.495q5.474-.987,10.987-1.858l.144.423q-5.393,1.226-10.825,2.335l-2.717.554c-.9.178-1.828.374-2.774.511a36.627,36.627,0,0,1-5.358.386" transform="translate(-215.8 361.652)" fill="#508bd0"/><path d="M252.562-340.894l-.445,0a49.781,49.781,0,0,1-6.685-.534q-.821-.126-1.63-.278l-.807-.157-.783-.162q-1.568-.321-3.13-.655-3.129-.657-6.245-1.341c-2.071-.468-4.153-.915-6.215-1.4l.2-.415c2.129.348,4.239.736,6.359,1.1q3.169.573,6.329,1.164,1.581.293,3.158.6l.788.151.773.138q.774.135,1.559.243a48.783,48.783,0,0,0,6.359.476q.331,0,.662,0a49.678,49.678,0,0,0,5.72-.336c1.053-.116,2.086-.287,3.162-.454l3.2-.495q6.4-.987,12.847-1.858l.168.423q-6.306,1.226-12.658,2.335l-3.177.554c-1.05.178-2.138.374-3.244.511a49.956,49.956,0,0,1-6.265.386" transform="translate(-217.556 354.14)" fill="#508bd0"/></g><path d="M3.146.259c2.048,0,4.516,1.774,4.516,4.219A4.786,4.786,0,0,1,3.146,8.906c-2.048,0-4.871-1.982-4.871-4.428S1.1.259,3.146.259Z" transform="translate(25.28 58.511)" fill="#fff"/><path d="M3.146.259c2.048,0,4.516,1.774,4.516,4.219A4.786,4.786,0,0,1,3.146,8.906c-2.048,0-4.871-1.982-4.871-4.428S1.1.259,3.146.259Z" transform="translate(25.278 59.701)" fill="#302e2e"/><circle cx="0.822" cy="0.822" r="0.822" transform="translate(26.604 66.276)" fill="#f7f7f7"/><path d="M593.7-1494a59.12,59.12,0,0,0,7.526,24.257c-5.507-6.724-7.779-16.068-7.526-24.257m9.009-14.237a15.392,15.392,0,0,0-6.911-2.346,7.232,7.232,0,0,1,6.911,2.346m-10.627,15.548a21,21,0,0,1-3.586,6.292,25.5,25.5,0,0,1-7.645,5.968,35.926,35.926,0,0,0,11.264-12.366l-.032.105m-45.1-23.127a39.008,39.008,0,0,1,14.322-4.8,38.279,38.279,0,0,1,13.092.785,48.2,48.2,0,0,0-27.414,4.012m-13.3,12.241a42.015,42.015,0,0,0-5.831,13.557,41.222,41.222,0,0,0-.5,16.368c.078.456.174.905.267,1.356a43.286,43.286,0,0,1-.328-19.33,28.209,28.209,0,0,1,8.618-14.943,27.8,27.8,0,0,0-2.224,2.991m68.726-2.185c1.552.225,4.267,2.906,5.541,3.826a11.71,11.71,0,0,0-3.045-4.582l-.034-.129c-1.842-3.082-5.738-5.534-9.642-3.973-.265-.01-.53-.024-.8-.024a15.8,15.8,0,0,0-10.575-8.469l2.1,2.646c-.654-.295-1.321-.57-1.992-.835l-.062-.075c-13.759-7.374-30.773-4.383-42.579,4.3a.328.328,0,0,0,.013.551c-.711.5-1.406,1.016-2.076,1.556q2.251-.967,4.5-1.941a12.589,12.589,0,0,0-3.081,1.937c-7.252,4.072-11.711,10.979-13.828,18.273-2.606,8.975,3.164,26.05,3.45,26.664,1.554-4.821,7.666-15.774,24.518-23.977,15.807-6.566,25.587-3.521,29.035-7.6-.691,1.237,1.611,3.58,0,7.6-1.884,4.7-7.735,11.237-8.615,12.811.47-.22.933-.456,1.392-.69a.4.4,0,0,0,.538.185,40.525,40.525,0,0,0,11.166-7.479c2.913-2.966,4.005-6.323,4.924-9.97.02-.05.04-.095.061-.14-.579,5.317.513,10.67,2.018,15.823a27.755,27.755,0,0,0,8.151,13.437c.621.94,1.262,1.876,1.937,2.786q.309-4.524.617-9.049.751,2.551,1.5,5.112c3.274-12.3,3.072-29.775-5.14-38.569" transform="translate(-522.157 1530.382)" fill="#302e2e"/><g transform="translate(58.065 59.67)"><path d="M3.146.259c2.048,0,4.516,1.774,4.516,4.219A4.786,4.786,0,0,1,3.146,8.906c-2.048,0-4.871-1.982-4.871-4.428S1.1.259,3.146.259Z" transform="translate(1.729 1.552)" fill="#fff"/><path d="M3.146.259c2.048,0,4.516,1.774,4.516,4.219A4.786,4.786,0,0,1,3.146,8.906c-2.048,0-4.871-1.982-4.871-4.428S1.1.259,3.146.259Z" transform="translate(1.725 -0.259)" fill="#302e2e"/></g><circle cx="0.822" cy="0.822" r="0.822" transform="translate(61.94 65.271)" fill="#f7f7f7"/><path d="M0,0S11.146,1.245,18.189,6.88s9.984,15.658,9.984,15.658" transform="translate(56.058 9.039)" fill="none" stroke="#707070" stroke-width="1"/></g></g></g></g></g></g></g></svg>