<svg width="92" height="125" viewBox="0 0 92 125" fill="none" xmlns="http://www.w3.org/2000/svg">
<path d="M75.585 78.8905C73.7736 78.8905 72.8358 78.694 72.4484 78.2329C72.0322 77.7373 72.1919 76.8264 72.4338 75.4479C72.7391 73.8995 72.9006 72.3262 72.9162 70.748C72.9128 69.2511 73.1887 67.7667 73.7297 66.3709C74.2368 65.0532 74.9864 63.8422 75.9398 62.8007C76.8591 61.7906 77.9709 60.9743 79.21 60.3997C80.4631 59.8194 81.8277 59.5193 83.2087 59.5205C83.4859 59.5054 83.7619 59.5677 84.0058 59.7005C84.2497 59.8332 84.4518 60.0312 84.5896 60.2722C84.9303 60.9405 85.087 61.6875 85.0437 62.4364C84.9844 64.1049 84.6833 65.756 84.1498 67.338C83.5586 69.2181 82.789 71.0374 81.8514 72.771C81.0252 74.3625 79.985 75.8333 78.7598 77.1425C77.6146 78.3038 76.5464 78.8905 75.585 78.8905Z" fill="#302E2E"/>
<path d="M83.2086 59.769C81.8634 59.7678 80.5343 60.0601 79.3138 60.6255C78.1043 61.1865 77.0192 61.9836 76.122 62.9697C75.1896 63.9884 74.4565 65.1728 73.9606 66.4615C73.4314 67.8288 73.1619 69.2828 73.1659 70.7489C73.1499 72.3415 72.9866 73.9292 72.6779 75.4917C72.4563 76.7546 72.2962 77.665 72.6377 78.0736C72.9637 78.462 73.8996 78.6405 75.5834 78.6405C76.4635 78.6405 77.5001 78.0618 78.5815 76.9672C79.7901 75.6747 80.8161 74.223 81.6311 72.6524C82.5611 70.9325 83.3244 69.1276 83.9106 67.2623C84.4368 65.705 84.7346 64.0796 84.7945 62.4368C84.8345 61.7336 84.6906 61.0322 84.3769 60.4016C84.2613 60.197 84.0903 60.0292 83.8837 59.9173C83.677 59.8054 83.4431 59.754 83.2086 59.769ZM83.2086 59.2715C89.0299 59.2715 81.4062 79.1404 75.5848 79.1404C69.7634 79.1404 72.668 77.0876 72.668 70.7489C72.668 64.4102 77.3872 59.2715 83.2086 59.2715Z" fill="#707070"/>
<path d="M15.706 78.3495C14.7446 78.3495 13.6745 77.7618 12.5307 76.6015C11.3055 75.2929 10.2651 73.8227 9.43863 72.2319C8.50104 70.4983 7.73139 68.679 7.14022 66.7988C6.60691 65.2163 6.30614 63.5648 6.24731 61.8959C6.20394 61.1469 6.36063 60.4 6.70132 59.7316C6.8391 59.4905 7.04123 59.2925 7.2851 59.1597C7.52897 59.0268 7.80497 58.9645 8.08226 58.9795C9.46324 58.9783 10.8279 59.2784 12.081 59.8587C13.3205 60.4335 14.4326 61.2501 15.3521 62.2606C16.3062 63.3016 17.0567 64.5123 17.5646 65.8299C18.105 67.2259 18.3802 68.7105 18.3762 70.2075C18.3918 71.7856 18.5532 73.3589 18.8586 74.9073C19.1005 76.2859 19.2602 77.1967 18.8439 77.6923C18.4551 78.1539 17.5173 78.3495 15.706 78.3495Z" fill="#302E2E"/>
<path d="M8.08353 59.2279C7.84907 59.2129 7.61512 59.2643 7.40849 59.3761C7.20185 59.4879 7.03089 59.6556 6.91519 59.8601C6.60161 60.4909 6.45783 61.1925 6.49803 61.8958C6.55731 63.5393 6.85457 65.1655 7.38054 66.7237C7.96677 68.5889 8.73008 70.3938 9.66006 72.1137C10.475 73.6844 11.5011 75.1361 12.7097 76.4285C13.7901 77.5231 14.8271 78.1005 15.7068 78.1005C17.3906 78.1005 18.3265 77.9195 18.6525 77.5335C18.994 77.1268 18.8339 76.2145 18.6123 74.9517C18.3043 73.3891 18.1415 71.8014 18.1262 70.2088C18.1301 68.7427 17.8606 67.2888 17.3315 65.9215C16.8356 64.6327 16.1024 63.4483 15.1701 62.4297C14.273 61.4431 13.1878 60.6458 11.9783 60.0845C10.7578 59.5191 9.42864 59.2268 8.08353 59.2279ZM8.08353 58.7305C13.9049 58.7305 18.6241 63.8692 18.6241 70.2079C18.6241 76.5466 21.5287 78.5994 15.7073 78.5994C9.88589 78.5994 2.26214 58.7305 8.08353 58.7305Z" fill="#707070"/>
<path d="M45.9215 104.18L45.919 104.18C41.9344 104.196 38.0349 103.027 34.7171 100.82L34.716 100.819C33.0055 99.6944 31.4089 98.4051 29.9487 96.9699L29.9484 96.9696C28.3412 95.3959 26.8229 93.7339 25.4006 91.9912L25.3983 91.9886C22.1548 88.1255 19.3647 83.9034 17.0825 79.405C14.649 74.4689 13.4239 69.9046 13.4239 65.8354L13.4239 65.835C13.4175 61.6539 14.2858 57.5177 15.9731 53.6921L15.9732 53.692C16.7934 51.8305 17.7957 50.0546 18.9654 48.3904C20.1363 46.7261 21.4644 45.1782 22.9314 43.7681C24.4105 42.3472 26.0208 41.0695 27.7407 39.9523C29.4857 38.8194 31.3342 37.8544 33.2613 37.0703C41.3823 33.7937 50.4575 33.7936 58.5786 37.0702C60.5059 37.8543 62.3546 38.8193 64.0999 39.9523C65.8198 41.0696 67.4301 42.3472 68.9091 43.7681C70.3761 45.1782 71.7043 46.7261 72.8751 48.3904C74.0447 50.0546 75.0468 51.8305 75.8669 53.692L75.8669 53.6921C77.5539 57.517 78.4223 61.6524 78.4162 65.8328C78.3904 68.3164 78.0081 70.7834 77.281 73.1583L77.2809 73.1587C76.5056 75.7095 75.4768 78.1762 74.2099 80.5219C71.5461 85.3945 68.2554 89.8971 64.4218 93.9147L64.4206 93.9159C62.0153 96.4704 59.14 99.3289 55.9484 101.292L55.9469 101.293C54.4912 102.202 52.9221 102.916 51.2799 103.415C49.5412 103.933 47.7356 104.19 45.9215 104.18Z" fill="#F6BC91" stroke="black" stroke-width="0.5"/>
<path d="M67.6398 38.8005C76.065 38.8005 82.8949 32.1294 82.8949 23.9003C82.8949 15.6711 76.065 9 67.6398 9C59.2147 9 52.3848 15.6711 52.3848 23.9003C52.3848 32.1294 59.2147 38.8005 67.6398 38.8005Z" fill="#302E2E"/>
<path d="M31.0964 74.7379C29.7084 74.7411 28.3331 74.4727 27.0481 73.948C25.8194 73.4477 24.6979 72.7168 23.7443 71.7946C22.8006 70.887 22.0444 69.8029 21.5186 68.6037C20.9808 67.3722 20.7031 66.0427 20.7031 64.6988C20.7031 63.3549 20.9808 62.0255 21.5186 60.7939C22.0443 59.5946 22.8005 58.5102 23.7443 57.6025C24.6981 56.6803 25.8197 55.9494 27.0485 55.4492C29.6448 54.3959 32.5494 54.3959 35.1457 55.4492C36.3745 55.9494 37.4961 56.6803 38.4499 57.6025C39.3936 58.5101 40.1499 59.5943 40.6756 60.7934C41.2134 62.025 41.4911 63.3544 41.4911 64.6983C41.4911 66.0423 41.2134 67.3717 40.6756 68.6033C40.1499 69.8024 39.3936 70.8866 38.4499 71.7941C37.4961 72.7163 36.3745 73.4473 35.1457 73.9475C33.8604 74.4725 32.4848 74.741 31.0964 74.7379Z" fill="white"/>
<path d="M31.0982 54.9079C29.7424 54.9048 28.3991 55.1668 27.1439 55.6794C25.9442 56.1677 24.8492 56.8813 23.9181 57.7817C22.9976 58.6668 22.26 59.7242 21.7472 60.8937C21.2231 62.0938 20.9525 63.3893 20.9525 64.6989C20.9525 66.0086 21.2231 67.304 21.7472 68.5042C22.26 69.6735 22.9976 70.7307 23.9181 71.6157C24.8491 72.5159 25.9439 73.2293 27.1434 73.7176C29.6793 74.7462 32.5162 74.7462 35.052 73.7176C36.2515 73.2293 37.3463 72.5159 38.2774 71.6157C39.1979 70.7306 39.9354 69.6732 40.4482 68.5037C40.9724 67.3036 41.2429 66.0081 41.2429 64.6985C41.2429 63.3889 40.9724 62.0934 40.4482 60.8932C39.9354 59.7237 39.1979 58.6663 38.2774 57.7813C37.3468 56.8812 36.2524 56.1678 35.0534 55.6794C33.7982 55.1668 32.4549 54.9048 31.0991 54.9079M31.0991 54.4104C36.9758 54.4104 41.7408 59.0167 41.7408 64.6987C41.7408 70.3807 36.9758 74.987 31.0982 74.987C25.2206 74.987 20.4551 70.3788 20.4551 64.6987C20.4551 59.0186 25.2201 54.4104 31.0982 54.4104H31.0991Z" fill="#707070"/>
<path d="M60.1901 74.7379C58.8021 74.7411 57.4268 74.4727 56.1418 73.948C54.9132 73.4477 53.7917 72.7168 52.8381 71.7946C51.8943 70.887 51.1381 69.8029 50.6124 68.6037C50.0745 67.3722 49.7969 66.0427 49.7969 64.6988C49.7969 63.3549 50.0745 62.0255 50.6124 60.7939C51.1381 59.5946 51.8943 58.5102 52.8381 57.6025C53.7918 56.6803 54.9135 55.9494 56.1423 55.4492C58.7386 54.3959 61.6431 54.3959 64.2394 55.4492C65.4682 55.9494 66.5899 56.6803 67.5437 57.6025C68.4874 58.5101 69.2436 59.5943 69.7693 60.7934C70.3072 62.025 70.5848 63.3544 70.5848 64.6983C70.5848 66.0423 70.3072 67.3717 69.7693 68.6033C69.2436 69.8024 68.4874 70.8866 67.5437 71.7941C66.5899 72.7163 65.4682 73.4473 64.2394 73.9475C62.9541 74.4725 61.5785 74.741 60.1901 74.7379Z" fill="white"/>
<path d="M60.1919 54.9079C58.8361 54.9048 57.4928 55.1668 56.2376 55.6794C55.0379 56.1677 53.9429 56.8813 53.0118 57.7817C52.0913 58.6668 51.3537 59.7242 50.8409 60.8937C50.3168 62.0938 50.0463 63.3893 50.0463 64.6989C50.0463 66.0086 50.3168 67.304 50.8409 68.5042C51.3538 69.6735 52.0914 70.7307 53.0118 71.6157C53.9428 72.5159 55.0377 73.2293 56.2371 73.7176C58.773 74.7462 61.6099 74.7462 64.1458 73.7176C65.3453 73.2293 66.4401 72.5159 67.3711 71.6157C68.2916 70.7306 69.0292 69.6732 69.542 68.5037C70.0661 67.3036 70.3367 66.0081 70.3367 64.6985C70.3367 63.3889 70.0661 62.0934 69.542 60.8932C69.0292 59.7237 68.2916 58.6663 67.3711 57.7813C66.4405 56.8812 65.3462 56.1678 64.1472 55.6794C62.892 55.1668 61.5487 54.9048 60.1929 54.9079M60.1929 54.4104C66.0695 54.4104 70.8346 59.0167 70.8346 64.6987C70.8346 70.3807 66.0695 74.987 60.1919 74.987C54.3143 74.987 49.5488 70.3788 49.5488 64.6987C49.5488 59.0186 54.3138 54.4104 60.1919 54.4104H60.1929Z" fill="#707070"/>
<path d="M41.6348 65.4875C42.8824 64.9664 44.2116 64.6677 45.5622 64.605C46.98 64.6815 48.3772 64.9793 49.7031 65.4875" stroke="#707070"/>
<path d="M30.5446 59.7427C32.3129 59.7427 34.4436 61.2743 34.4436 63.3861C34.4436 65.4979 32.3134 67.2091 30.5446 67.2091C28.7757 67.2091 26.3398 65.4979 26.3398 63.3861C26.3398 61.2743 28.7757 59.7427 30.5446 59.7427Z" fill="white"/>
<path d="M30.5406 60.7705C32.309 60.7705 34.4397 62.3022 34.4397 64.414C34.4397 66.5258 32.3095 67.7517 30.5406 67.7517C28.7718 67.7517 26.3359 66.5234 26.3359 64.414C26.3359 62.3045 28.7718 60.7705 30.5406 60.7705Z" fill="#302E2E"/>
<path d="M30.0846 66.4658C30.4765 66.4658 30.7942 66.1481 30.7942 65.7562C30.7942 65.3643 30.4765 65.0466 30.0846 65.0466C29.6927 65.0466 29.375 65.3643 29.375 65.7562C29.375 66.1481 29.6927 66.4658 30.0846 66.4658Z" fill="#F7F7F7"/>
<path d="M67.7745 40.4134C68.3979 47.783 70.6152 54.929 74.2729 61.3571C69.5183 55.5518 67.5548 47.4839 67.7745 40.4134ZM75.5533 28.1215C73.7554 26.9778 71.7089 26.2832 69.5863 26.0961C71.9811 25.5434 74.0273 26.5686 75.5533 28.1215ZM66.3785 41.5472C65.6689 43.5238 64.6213 45.3622 63.2826 46.9803C61.5516 49.1535 59.1785 50.7211 56.6812 52.1332C60.7179 49.3889 64.0499 45.7307 66.4063 41.4561L66.3785 41.5472ZM27.4368 21.5777C31.2496 19.4047 35.4503 17.9976 39.8028 17.4358C43.5815 17.0099 47.4053 17.2395 51.1059 18.1143C43.0472 16.9276 34.8174 18.1322 27.4368 21.5787M15.9565 32.1471C13.6008 35.7214 11.8962 39.6844 10.9217 43.8527C9.83341 48.4873 9.68594 53.2932 10.488 57.9858C10.5556 58.3793 10.6373 58.7677 10.7186 59.1569C9.367 53.686 9.27011 47.9803 10.4351 42.4666C11.5075 37.4947 14.1095 32.9833 17.876 29.5653C17.179 30.3823 16.5376 31.2452 15.956 32.1481M75.2944 30.2612C76.6352 30.4554 78.977 32.7703 80.0787 33.5644C79.5288 32.0557 78.6274 30.6998 77.4492 29.6087L77.4203 29.4972C75.8278 26.8364 72.4663 24.7199 69.095 26.0668C68.8668 26.0583 68.6377 26.0461 68.4076 26.0461C66.8523 22.55 63.3743 19.7664 59.2773 18.7337L61.09 21.0179C60.5259 20.7637 59.9495 20.5256 59.3698 20.2969L59.3165 20.2322C47.4365 13.8652 32.747 16.4504 22.5527 23.9418C22.5136 23.9685 22.4818 24.0045 22.4602 24.0466C22.4385 24.0887 22.4278 24.1354 22.4289 24.1827C22.4298 24.2303 22.4427 24.2769 22.4663 24.3181C22.4899 24.3594 22.5235 24.3941 22.564 24.419C21.9498 24.8508 21.3503 25.2958 20.7725 25.7626C22.0664 25.206 23.3623 24.6473 24.6602 24.0864C23.6972 24.512 22.8011 25.0752 21.9999 25.7584C15.7387 29.2738 11.8897 35.2383 10.0604 41.5336C7.81069 49.2816 12.7926 64.0273 13.0368 64.5555C14.3804 60.3933 19.6557 50.9361 34.2063 43.8533C47.8542 38.184 56.299 40.8131 59.2758 37.2948C58.6787 38.3625 60.6662 40.3856 59.2758 43.8533C57.6497 47.9077 52.597 53.5571 51.8373 54.9149C52.2431 54.7259 52.6428 54.5214 53.0392 54.3177C53.0588 54.3591 53.0865 54.3961 53.1207 54.4266C53.1549 54.4571 53.1948 54.4805 53.2381 54.4954C53.2814 54.5103 53.3272 54.5163 53.3729 54.5132C53.4185 54.5102 53.4631 54.498 53.504 54.4774C57.0606 52.7152 60.4593 50.7537 63.1456 48.0201C65.6613 45.4591 66.6038 42.5606 67.3975 39.4109C67.415 39.3674 67.4325 39.3287 67.45 39.2899C66.9497 43.8811 67.8936 48.5025 69.1918 52.9515C70.4391 57.2195 72.6255 61.4426 76.2312 64.5531C76.7674 65.3643 77.3207 66.1732 77.9041 66.9588C78.0821 64.3544 78.2596 61.75 78.4366 59.1456C78.8677 60.6139 79.2991 62.0851 79.7305 63.5591C82.5576 52.9425 82.3828 37.8514 75.2925 30.2584" fill="#302E2E"/>
<path d="M60.1901 66.7761C60.582 66.7761 60.8997 66.4584 60.8997 66.0665C60.8997 65.6746 60.582 65.3569 60.1901 65.3569C59.7982 65.3569 59.4805 65.6746 59.4805 66.0665C59.4805 66.4584 59.7982 66.7761 60.1901 66.7761Z" fill="#F7F7F7"/>
<path d="M61.0524 60.7705C62.8207 60.7705 64.9514 62.3022 64.9514 64.414C64.9514 66.5258 62.8212 67.8873 61.0524 67.8873C59.2836 67.8873 56.8477 66.5248 56.8477 64.414C56.8477 62.3031 59.2836 60.7705 61.0524 60.7705Z" fill="#302E2E"/>
<path d="M60.3912 66.1275C60.7831 66.1275 61.1008 65.8098 61.1008 65.4179C61.1008 65.026 60.7831 64.7083 60.3912 64.7083C59.9993 64.7083 59.6816 65.026 59.6816 65.4179C59.6816 65.8098 59.9993 66.1275 60.3912 66.1275Z" fill="#F7F7F7"/>
<path d="M54.4023 16.8052C54.4023 16.8052 64.0259 17.8804 70.1072 22.7456C76.1884 27.6108 78.7268 36.263 78.7268 36.263" stroke="#707070"/>
<path d="M48.3546 80.2473C48.3546 81.1754 46.9802 81.923 45.2827 81.923C43.5851 81.923 42.2129 81.1755 42.2129 80.2473C42.2129 79.3242 43.5875 79.5993 45.2827 79.5993C46.9779 79.5993 48.3546 79.3237 48.3546 80.2473Z" fill="#C6896C"/>
<path d="M55.4219 87.2775C55.2765 87.6094 55.09 87.9981 54.8881 88.4414C54.7771 88.6442 54.6467 88.8829 54.5187 89.1225C54.3908 89.3621 54.2617 89.6032 54.1126 89.8615C53.6876 90.6169 53.2138 91.3438 52.6943 92.0375L52.6572 92.0924L52.5465 92.2406C50.7395 94.6375 48.1736 96.8703 44.8721 96.8703C39.2291 96.8703 35.5409 90.268 34.2129 87.5358C34.269 87.5358 34.4712 87.4821 34.8028 87.4088C36.5186 87.0768 41.4618 86.1001 44.4494 86.2087C47.7882 86.0804 53.2087 86.9278 54.9058 87.2058C55.1825 87.2409 55.3657 87.2774 55.4212 87.2774" fill="#EC6E40"/>
<path d="M44.8727 96.8909C42.433 96.8909 40.0907 95.6631 37.9105 93.2413C36.4173 91.522 35.1674 89.6057 34.1958 87.5461L34.1816 87.5159H34.2141C34.3115 87.5018 34.4078 87.4817 34.5027 87.4556C34.5838 87.4369 34.6837 87.4134 34.7996 87.388L34.9203 87.3647C36.7276 87.0138 41.5289 86.081 44.4527 86.188C47.648 86.0653 52.8314 86.8446 54.9115 87.1857C55.0458 87.2026 55.1559 87.2198 55.2434 87.2337C55.3026 87.2447 55.3623 87.2526 55.4224 87.2572V87.2772L55.4408 87.2853C55.3527 87.4872 55.2477 87.7126 55.1369 87.9513C55.063 88.1103 54.986 88.2748 54.907 88.4495L54.9052 88.4528C54.7922 88.6589 54.6638 88.8928 54.537 89.1318L54.5014 89.1982C54.3858 89.4137 54.266 89.6364 54.1305 89.8712C53.7046 90.6271 53.2302 91.3546 52.7104 92.0493L52.6739 92.1033L52.5621 92.2526C51.6549 93.5004 50.5462 94.5883 49.2815 95.4716C47.9883 96.3778 46.4517 96.8725 44.8727 96.8909ZM34.2447 87.5536C35.2125 89.6005 36.4561 91.5052 37.9408 93.2146C40.1135 95.6287 42.4455 96.851 44.8732 96.851C46.4442 96.8324 47.9729 96.3401 49.2594 95.4384C50.5205 94.5576 51.626 93.4729 52.5305 92.2288L52.6413 92.081L52.6778 92.0267C53.1969 91.3331 53.6707 90.6066 54.0961 89.8518C54.2313 89.6176 54.3508 89.3952 54.4664 89.1798L54.502 89.1133C54.6294 88.874 54.7573 88.6401 54.8701 88.4337V88.4319C54.9492 88.2584 55.0256 88.094 55.0995 87.935C55.2054 87.7068 55.3056 87.4907 55.3916 87.2961C55.3572 87.2928 55.3056 87.2846 55.2365 87.2741C55.1481 87.2608 55.0379 87.2439 54.9046 87.2264C52.8248 86.8857 47.6448 86.1066 44.4516 86.2306C41.5311 86.1242 36.7331 87.0565 34.9271 87.4072L34.8079 87.4305C34.6938 87.4558 34.593 87.4791 34.5118 87.4978C34.3829 87.5261 34.2947 87.5463 34.2447 87.5536Z" fill="#050505"/>
<path d="M54.3979 87.46C54.1565 87.9193 53.8819 88.3803 53.5868 88.842L53.5678 88.8783C51.5206 92.1433 48.4792 95.5387 44.5857 95.5387C40.9892 95.5387 38.3731 92.8636 36.4345 89.9501C35.9751 89.2491 35.5495 88.5297 35.1621 87.829C35.3106 88.1051 39.9751 88.5485 44.5858 88.4564C49.4539 88.3468 54.2881 87.6803 54.398 87.4606" fill="#44060F"/>
<path d="M46.7724 95.1694C48.8332 94.5862 50.3396 93.3588 51.9511 92.1247C51.7111 91.8065 51.4436 91.5101 51.1517 91.2388C49.674 90.0369 47.8186 89.3969 45.9142 89.432C43.131 89.432 40.733 90.6675 39.6091 92.4928C39.3611 92.8845 39.1747 93.3119 39.0566 93.7602C41.0181 95.5352 44.387 95.8481 46.7724 95.1696" fill="#750414"/>
<path d="M54.3981 87.4597C54.1567 87.919 52.4212 89.4067 51.292 89.9453C49.0348 90.96 46.5817 91.4648 44.1073 91.4239C41.1014 91.4239 36.7029 90.0358 35.1621 87.8275C35.3432 88.0839 39.9751 88.5469 44.5858 88.4548C49.4538 88.3453 54.2881 87.6787 54.398 87.459" fill="#F4F4F4"/>
<path d="M44.5858 88.455C39.9749 88.5455 35.3432 88.0841 35.1621 87.8276C36.0146 89.0474 37.7415 90.0049 39.6185 90.6283C41.5637 89.168 44.7108 88.8901 46.8988 88.9499C48.4791 88.9946 49.9192 89.3244 51.0613 90.0402L51.2931 89.9451C52.4223 89.4066 54.1598 87.9188 54.3991 87.4595C54.2893 87.6789 49.4554 88.3454 44.587 88.4553" fill="#EAEDEF"/>
<path d="M55.4219 87.2779C55.2765 87.6098 55.09 87.9982 54.8881 88.4418C54.7771 88.6445 54.6467 88.8833 54.5187 89.1228C54.3908 89.3624 54.2617 89.6035 54.1126 89.8619C53.7061 90.47 53.2655 91.1706 52.6943 92.0379L52.6572 92.0928L52.5465 92.2407C50.7395 94.6382 48.1736 96.8709 44.8721 96.8709C39.2291 96.8709 35.541 90.2684 34.2129 87.5362C34.269 87.5362 34.4712 87.4825 34.8028 87.4092C34.9336 87.5385 35.0509 87.6808 35.1529 87.8338C35.954 88.9861 36.8758 90.0497 37.9026 91.0064C38.418 91.4841 38.9889 92.0007 39.5997 92.4983C40.256 93.009 40.9522 93.466 41.6818 93.8651C42.2011 94.1407 42.7525 94.3511 43.3234 94.4915C44.8551 94.8793 46.3298 94.4716 47.676 93.7544C48.3098 93.4158 48.9197 93.034 49.5013 92.6119C50.0769 92.1915 50.625 91.7348 51.1423 91.2446C52.2682 90.2288 53.2709 89.0843 54.1298 87.8346C54.3385 87.5705 54.6034 87.3562 54.9053 87.2073C55.1821 87.2423 55.3652 87.2788 55.4207 87.2788" fill="#EC6E40"/>
<path d="M44.8728 96.8911C42.433 96.8911 40.0907 95.6633 37.9105 93.2415C36.4173 91.5219 35.1673 89.6052 34.1958 87.5453L34.1816 87.5151H34.2142C34.3115 87.501 34.4079 87.4809 34.5027 87.4548C34.5839 87.4361 34.6838 87.4126 34.7997 87.3872L34.8105 87.3848L34.8184 87.3926C34.95 87.5231 35.0682 87.6664 35.1711 87.8205C35.9704 88.9719 36.891 90.0342 37.917 90.989C38.3697 91.4088 38.9732 91.9577 39.6132 92.4801C40.269 92.99 40.9644 93.4469 41.6927 93.8465C42.2105 94.1213 42.7602 94.3312 43.3294 94.4713C44.6795 94.8129 46.0987 94.5725 47.6682 93.736C48.3012 93.3977 48.9103 93.0164 49.4912 92.5949C50.0656 92.1747 50.6129 91.7187 51.1298 91.2295C52.2557 90.2156 53.2577 89.0721 54.1152 87.8229C54.3251 87.5557 54.5925 87.3391 54.8976 87.1893L54.9033 87.1863H54.91C55.0449 87.2035 55.1553 87.2204 55.2444 87.2343C55.3034 87.2452 55.3631 87.253 55.423 87.2578V87.2778L55.4414 87.2859C55.3533 87.4878 55.2483 87.7133 55.1375 87.9519C55.0636 88.1109 54.9866 88.2754 54.9076 88.4501L54.9052 88.4546C54.7926 88.6607 54.6638 88.894 54.538 89.1327L54.5021 89.1997C54.3865 89.4152 54.267 89.6379 54.1315 89.8723C53.9176 90.1925 53.6894 90.5453 53.4483 90.9188C53.2305 91.2559 52.9839 91.6376 52.7123 92.0495L52.6752 92.1048L52.5639 92.2536C51.6564 93.5016 50.5472 94.5897 49.2819 95.473C47.9885 96.3788 46.4517 96.8731 44.8728 96.8911ZM34.2447 87.554C35.2125 89.601 36.4562 91.5057 37.9409 93.2151C40.1136 95.6292 42.4456 96.8515 44.8733 96.8515C46.4443 96.8329 47.9731 96.3406 49.2597 95.4389C50.5207 94.5581 51.6261 93.4734 52.5306 92.2293L52.6413 92.0815L52.6778 92.0271C52.9494 91.6158 53.1956 91.2338 53.4132 90.897C53.6546 90.524 53.8837 90.1707 54.0949 89.8511C54.2292 89.6184 54.3487 89.3957 54.4642 89.1806L54.5001 89.1136C54.6272 88.8749 54.7548 88.6416 54.8677 88.4355L54.8695 88.4322C54.9485 88.2587 55.0249 88.0942 55.0988 87.9352C55.2047 87.7071 55.3049 87.491 55.3909 87.2964C55.3566 87.293 55.3049 87.2849 55.2361 87.2744C55.1489 87.2611 55.0409 87.2442 54.9093 87.2273C54.612 87.374 54.3514 87.5854 54.1465 87.8459C53.2875 89.0974 52.2836 90.2429 51.1558 91.2587C50.6376 91.749 50.089 92.2061 49.5133 92.6272C48.9307 93.05 48.3199 93.4323 47.6851 93.7715C46.1067 94.6125 44.6779 94.8543 43.3184 94.5103C42.746 94.3695 42.1933 94.1586 41.6726 93.8823C40.9423 93.4822 40.2451 93.0246 39.5874 92.5138C38.9465 91.99 38.343 91.4407 37.8905 91.0207C36.8621 90.0639 35.9394 88.9996 35.1383 87.8459C35.0388 87.6969 34.9249 87.5581 34.7982 87.4316C34.688 87.456 34.5909 87.4786 34.5123 87.4967C34.3826 87.5266 34.2948 87.5468 34.2447 87.554Z" fill="#020202"/>
</svg>
