<svg xmlns="http://www.w3.org/2000/svg" width="19.821" height="16.124" viewBox="0 0 19.821 16.124">
  <g id="group" transform="translate(-0.009 -0.235)">
    <path id="Path_1236" data-name="Path 1236" d="M14.223,31.066a1.1,1.1,0,0,0-.381-.419,3.586,3.586,0,0,0-1.143,0,3.586,3.586,0,0,0-1.143,0,1.1,1.1,0,0,0-.381.419,1.878,1.878,0,0,0-.1.744,1.262,1.262,0,0,0,.1.515.526.526,0,0,0,.055.084.654.654,0,0,0,.061.07.183.183,0,0,0,.032.035l.038.038.055.047.047.041.038.026.07.052a2.994,2.994,0,0,0,.669.349l.1.035a1.294,1.294,0,0,0,.358.064,2.457,2.457,0,0,0,1.454-.747.581.581,0,0,0,.061-.093,1.215,1.215,0,0,0,.1-.515A1.878,1.878,0,0,0,14.223,31.066Zm-.939.2a.7.7,0,0,1-.224.163.648.648,0,0,1-.265.058h-.2a.651.651,0,0,1-.485-.221.119.119,0,0,1,.073-.2H13.2a.119.119,0,0,1,.087.2Z" transform="translate(-7.844 -21.533)" fill="#2b2d42"/>
    <path id="Path_1237" data-name="Path 1237" d="M15.74,32.418a.712.712,0,0,1-.221.166.645.645,0,0,1-.265.055h-.2a.651.651,0,0,1-.485-.221.119.119,0,0,1,.073-.2h1.018a.116.116,0,0,1,.084.2Z" transform="translate(-10.303 -22.687)" fill="#fff"/>
    <path id="Path_1238" data-name="Path 1238" d="M11.241,13.461c0,.363-.695.93-.779.968v-.041a.814.814,0,0,0-.747-.849,2.724,2.724,0,0,0-.776.052c-.407.14-1.1.84-1.523.84s-1.116-.7-1.523-.84a2.852,2.852,0,0,0-.811-.052.782.782,0,0,0-.712.814v.07c-.11-.081-.695-.349-.753-.872a1.235,1.235,0,0,1,.221-.93,1.233,1.233,0,0,1,1.18-.206c.581.224.6-1.084,1.294-1.128.581-.038,1.34.741,1.613,1.055s.4.82.767,1.038c-.291-.291-.651-1.643.712-1.471C10.022,11.976,11.252,12.546,11.241,13.461Z" transform="translate(-2.553 -7.838)" fill="#2b2d42"/>
    <path id="Path_1239" data-name="Path 1239" d="M19.727,22.469a3.592,3.592,0,0,1-1.419,1.163,1.878,1.878,0,0,0-.1-.744,1.1,1.1,0,0,0-.381-.419,3.586,3.586,0,0,0-1.143,0V19.963c.427,0,1.116-.7,1.523-.84a2.724,2.724,0,0,1,.776-.052.814.814,0,0,1,.747.849v.041a.334.334,0,0,0,.02.131c.017.148.047.381.07.648a3.938,3.938,0,0,1-.09,1.73Z" transform="translate(-11.824 -13.354)" fill="#e5989b"/>
    <path id="Path_1240" data-name="Path 1240" d="M8.907,19.954v2.521a3.586,3.586,0,0,0-1.143,0,1.1,1.1,0,0,0-.381.419,1.878,1.878,0,0,0-.1.744,3.613,3.613,0,0,1-1.419-1.163,4.051,4.051,0,0,1-.1-1.744c.023-.265.049-.5.07-.657a.419.419,0,0,1,.017-.131v-.07a.782.782,0,0,1,.712-.814,2.852,2.852,0,0,1,.811.052C7.791,19.239,8.483,19.954,8.907,19.954Z" transform="translate(-4.052 -13.345)" fill="#ffcdb2"/>
    <path id="Path_1241" data-name="Path 1241" d="M4.5,22.232c-.02.157-.047.392-.07.657a.36.36,0,0,1-.2.061.422.422,0,0,1,0-.84A.358.358,0,0,1,4.5,22.232Zm6.8.3a.4.4,0,0,1-.381.422.349.349,0,0,1-.2-.064c-.023-.267-.052-.5-.07-.648a.358.358,0,0,1,.27-.128A.4.4,0,0,1,11.3,22.529ZM9.121,27.148C8.973,27.6,8.01,28,7.58,28v-.849A2.457,2.457,0,0,0,9.034,26.4a2.8,2.8,0,0,1,.1.5.643.643,0,0,1-.012.247Z" transform="translate(-2.725 -15.516)" fill="#e5989b"/>
    <path id="Path_1242" data-name="Path 1242" d="M12.838,37.6v.849c-.433,0-1.4-.4-1.552-.849a.619.619,0,0,1-.017-.241,2.718,2.718,0,0,1,.1-.515.654.654,0,0,0,.061.07l.07.07a.448.448,0,0,0,.055.049l.047.041.038.026.07.055a3.064,3.064,0,0,0,.672.346l.1.035A1.294,1.294,0,0,0,12.838,37.6Z" transform="translate(-7.983 -25.963)" fill="#ffcdb2"/>
    <path id="Path_1243" data-name="Path 1243" d="M11.557,38.944a.872.872,0,0,0-.137.291l-.308,1.073a3.988,3.988,0,0,1-1.9,1.09c-.782,0-2.346-1.454-3.061-2.148l1.491-.613a.619.619,0,0,0,.017.241c.148.451,1.119.852,1.552.849s1.393-.4,1.541-.849a.642.642,0,0,0,.02-.247Z" transform="translate(-4.356 -27.233)" fill="#03045e"/>
    <path id="Path_1244" data-name="Path 1244" d="M6.306,44.462a.707.707,0,0,0,.058.073H.387a.4.4,0,0,1-.363-.512l.6-2.64a.4.4,0,0,1,.233-.291L1.8,40.7c.715.7,2.279,2.148,3.061,2.148a4.09,4.09,0,0,0,1.9-1.09L6.2,43.741a.84.84,0,0,0,.1.721Z" transform="translate(0 -28.701)" fill="#0096c7"/>
    <path id="Path_1245" data-name="Path 1245" d="M32.558,11.645v.044a.84.84,0,0,0,0,.084v.015a.026.026,0,0,1,0,.015.538.538,0,0,1-.02.177,3.789,3.789,0,0,1-.047.392v.11a.466.466,0,0,1-.015.142.581.581,0,0,1-.233.049h-.052a.581.581,0,0,1,.052-1.143.358.358,0,0,1,.078,0,.491.491,0,0,1,.169.049.7.7,0,0,1,.067.064Zm6.3,1.029h-.346l-.581,2.291-2.012-.5-.183-.047a.541.541,0,0,0-.1,0V10.38l.061.015h1.968a.788.788,0,0,1,.247.029.093.093,0,0,1,.026,0,.756.756,0,0,1,.241.122l.047.038a.8.8,0,0,1,.291.608v.291l.1-.137.081-.11v.058a2.273,2.273,0,0,0,.035.291v.038c.026.23.052.471.081.715,0,.076.017.154.023.23Z" transform="translate(-22.507 -7.196)" fill="#e5989b"/>
    <path id="Path_1246" data-name="Path 1246" d="M37.335,9.139v4.024a.541.541,0,0,0-.1,0l-.18.047-2.012.517-.581-2.291H34.12v-.049a.606.606,0,0,1,.015-.142v-.11c.015-.134.032-.265.047-.392a1.739,1.739,0,0,1,.02-.177.026.026,0,0,0,0-.015v-.02a.84.84,0,0,1,0-.084V10.4a2.044,2.044,0,0,1,.035-.291v-.023a.319.319,0,0,0,0-.052A1.648,1.648,0,0,1,35.3,8.688h.047l.137-.041h.073l.1-.017h.491l.233.137c.137.076.305.169.468.247l.064.032L37,9.081a1.494,1.494,0,0,0,.34.058Z" transform="translate(-24.194 -5.955)" fill="#ffcdb2"/>
    <path id="Path_1247" data-name="Path 1247" d="M56.75,14.932a.581.581,0,0,1-.517.581H56.18a.581.581,0,0,1-.235-.049,2.048,2.048,0,0,0-.023-.23c-.029-.244-.055-.485-.081-.715v-.038a.477.477,0,0,1,.064-.041.541.541,0,0,1,.2-.067.331.331,0,0,1,.078,0A.581.581,0,0,1,56.75,14.932Z" transform="translate(-39.6 -10.027)" fill="#e5989b"/>
    <path id="Path_1248" data-name="Path 1248" d="M38.715,3.745c-.087.128-.169.244-.238.34L38.4,4.2l-.1.137V4.042A.8.8,0,0,0,38,3.434L37.954,3.4a.756.756,0,0,0-.241-.122.093.093,0,0,0-.026,0,.788.788,0,0,0-.247-.029H35.5l-.061-.015a1.494,1.494,0,0,1-.276-.1l-.078-.035-.067-.035L34.907,3l-.291-.154-.038-.023a.09.09,0,0,0-.029,0l-.233-.137h-.023s0-.1.015-.267v-.1c.041-.581.172-1.724.552-1.925,1.084-.581,4.265.538,4.582,1.718C39.535,2.42,39.082,3.2,38.715,3.745ZM34.282,2.614h-.471l-.1.017h-.073l-.137.041H33.45a1.648,1.648,0,0,0-1.064,1.346.32.32,0,0,1,0,.052c-.07-.076-.151-.172-.235-.276a2.825,2.825,0,0,1-.721-1.233c0-.407.741-1.108,1.145-1.145.358-.038,1.047.529,1.436.872h.015a2.783,2.783,0,0,0,.256.326Z" transform="translate(-22.286 0)" fill="#2b2d42"/>
    <path id="Path_1249" data-name="Path 1249" d="M43.809,26.875h-1.68a.07.07,0,0,1-.032-.134l.7-.352a.4.4,0,0,1,.355,0l.7.352a.07.07,0,0,1-.044.134Z" transform="translate(-29.822 -18.522)" fill="#fff"/>
    <path id="Path_1250" data-name="Path 1250" d="M46.575,32.5l-1.116.375-.172.055a.334.334,0,0,1-.108.017V30.959h.291c.323,0,.642-.023.948-.049l.192.581.055.172.035.1.07.215.032.1A.343.343,0,0,1,46.575,32.5Z" transform="translate(-32.039 -21.757)" fill="#e5989b"/>
    <path id="Path_1251" data-name="Path 1251" d="M41.21,30.952v1.986a.346.346,0,0,1-.108-.017l-.169-.055-1.119-.375a.343.343,0,0,1-.215-.43l.047-.134.058-.177.049-.148.038-.119.195-.581c.291.026.625.044.948.049Z" transform="translate(-28.069 -21.75)" fill="#ffcdb2"/>
    <path id="Path_1252" data-name="Path 1252" d="M41.857,35.292a.825.825,0,0,1-.073.067l-.044.035-.052.038-.064.041c-.061.038-.128.076-.2.11l-.041.02q-.1.052-.218.1l-.07.029h-.023l-.1.038H40.95l-.163.058-.241.078-.142.044-.137.038-.151.041-.061.017-.07.017h-.041l-.163.038a.262.262,0,0,1-.134,0h-.186l-.084-.023-.195-.052L39.122,36l-.148-.044-.233-.076-.1-.032-.049-.017-.334-.128-.076-.035-.055-.023-.067-.032-.044-.023-.052-.026a1.455,1.455,0,0,1-.134-.076l-.038-.023h-.035l-.035-.023a.549.549,0,0,1-.078-.058h-.015l-.044-.041a.416.416,0,0,1-.14-.291.183.183,0,0,1,.041-.108.974.974,0,0,1,.358-.23,2.982,2.982,0,0,1,.329-.119l-.047.134a.343.343,0,0,0,.215.43l1.119.375.169.055a.346.346,0,0,0,.108.017.334.334,0,0,0,.108-.017l.172-.055,1.116-.375a.343.343,0,0,0,.215-.43l-.032-.1a2.907,2.907,0,0,1,.317.093.736.736,0,0,1,.358.224.2.2,0,0,1,.038.1A.369.369,0,0,1,41.857,35.292Z" transform="translate(-26.556 -24.375)" fill="#dc2f02"/>
    <path id="Path_1253" data-name="Path 1253" d="M34.985,41.454l-6.149.512a.5.5,0,0,1-.093,0l-6.14-.512a.366.366,0,0,1-.081,0,.564.564,0,0,1-.416-.706l.683-2.4.192-.666a.561.561,0,0,1,.142-.244.581.581,0,0,1,.221-.137l2.712-.9a.634.634,0,0,1,.177-.032.561.561,0,0,1,.4.163l.052.049H26.7a.55.55,0,0,0,.078.058l.044.032h.015a.4.4,0,0,0,.058.038,1.454,1.454,0,0,0,.134.076l.052.026.044.023.067.032.055.023.076.035.334.128.049.017.1.032.233.076.148.044.07.02.195.052.084.023h.186a.346.346,0,0,0,.134,0l.163-.038h.041l.07-.017.061-.017.151-.041.137-.038.142-.044.241-.078.163-.058h.029l.1-.038h.023l.078-.035q.113-.044.218-.1l.041-.02c.07-.035.137-.073.2-.11l.064-.041.052-.038.044-.035a.827.827,0,0,0,.073-.067.555.555,0,0,1,.4-.166.631.631,0,0,1,.18.029l2.707.9a.564.564,0,0,1,.366.381l.872,3.061a.581.581,0,0,1-.48.738Z" transform="translate(-15.657 -25.609)" fill="#ffba08"/>
    <path id="Path_1254" data-name="Path 1254" d="M40.025,18.546a.055.055,0,0,1,0-.023A1.873,1.873,0,0,0,40,18.27H39.65l-.581,2.291-2.012-.5-.183-.047a.4.4,0,0,0-.192,0l-.18.047-2,.506-.581-2.291h-.346l-.026.253a.073.073,0,0,0,0,.023c-.108,1.015-.2,2.035-.2,2.587,0,.378.744,1.087,1.744,1.334.09.023.18.041.273.055a1.427,1.427,0,0,0,.195.023h.1a4.9,4.9,0,0,0,.858-.209A1.128,1.128,0,0,1,36.8,22.3a1.163,1.163,0,0,1,.291.038,3.393,3.393,0,0,0,.948.206,1.454,1.454,0,0,0,.192-.023,2.671,2.671,0,0,0,.273-.055c1-.247,1.744-.956,1.744-1.334C40.228,20.564,40.138,19.561,40.025,18.546ZM37.7,21.07H35.926a.081.081,0,0,1,0-.026.049.049,0,0,1,.017-.032h.017l.7-.349a.384.384,0,0,1,.355,0l.7.349h.017a.055.055,0,0,1,.02.032v.017Z" transform="translate(-23.648 -12.792)" fill="#2b2d42"/>
  </g>
</svg>
