<svg xmlns="http://www.w3.org/2000/svg" id="_352407_fixed_gps_not_icon" data-name="352407_fixed_gps_not_icon" width="10.551" height="10.551" viewBox="0 0 10.551 10.551">
  <path id="Path_1143" data-name="Path 1143" d="M0,0H10.551V10.551H0Z" fill="none"/>
  <path id="Path_1144" data-name="Path 1144" d="M10.766,6.4a3.954,3.954,0,0,0-3.49-3.49V2H6.4v.906A3.954,3.954,0,0,0,2.906,6.4H2v.879h.906a3.954,3.954,0,0,0,3.49,3.49v.906h.879v-.906a3.954,3.954,0,0,0,3.49-3.49h.906V6.4ZM6.836,9.913A3.077,3.077,0,1,1,9.913,6.836,3.078,3.078,0,0,1,6.836,9.913Z" transform="translate(-1.56 -1.56)" fill="#EFB10C"/>
</svg>