<svg width="16" height="16" viewBox="0 0 16 16" fill="none" xmlns="http://www.w3.org/2000/svg">
<g clip-path="url(#clip0_3355_1152)">
<path d="M13.2891 7.57288C13.1376 7.57288 12.9922 7.51267 12.8851 7.40551C12.7779 7.29835 12.7177 7.153 12.7177 7.00145V5.38773C12.7177 3.10202 10.6057 1.27345 8.00914 1.27345C5.41257 1.27345 3.30057 3.12488 3.30057 5.38773V7.00145C3.30057 7.153 3.24037 7.29835 3.1332 7.40551C3.02604 7.51267 2.8807 7.57288 2.72914 7.57288C2.57759 7.57288 2.43225 7.51267 2.32508 7.40551C2.21792 7.29835 2.15771 7.153 2.15771 7.00145V5.38773C2.15771 2.4803 4.78629 0.112305 8.00914 0.112305C11.232 0.112305 13.8606 2.4803 13.8606 5.38773V7.00145C13.8612 7.07666 13.8468 7.15124 13.8183 7.22084C13.7898 7.29045 13.7477 7.35368 13.6946 7.40687C13.6414 7.46005 13.5781 7.50212 13.5085 7.53062C13.4389 7.55912 13.3644 7.57348 13.2891 7.57288Z" fill="#2639AB"/>
<path d="M11.7435 12.9512C11.592 12.9512 11.4466 12.891 11.3395 12.7839C11.2323 12.6767 11.1721 12.5314 11.1721 12.3798V6.95353C11.1768 6.80517 11.2391 6.66448 11.3458 6.56124C11.4524 6.458 11.5951 6.40031 11.7435 6.40039C13.7138 6.40039 15.3184 7.87696 15.3184 9.68725C15.3184 11.4975 13.7138 12.9512 11.7435 12.9512ZM12.3149 7.58439V11.749C12.8152 11.6661 13.2721 11.4146 13.6098 11.0363C13.9474 10.6579 14.1454 10.1754 14.1709 9.66896C14.1464 9.1617 13.9489 8.67815 13.6112 8.29885C13.2734 7.91955 12.816 7.6674 12.3149 7.58439ZM4.25552 12.9512C2.28524 12.9512 0.680664 11.4792 0.680664 9.66896C0.680664 7.85868 2.28524 6.40039 4.25552 6.40039C4.40707 6.40039 4.55242 6.46059 4.65958 6.56776C4.76675 6.67492 4.82695 6.82027 4.82695 6.97182V12.3798C4.82695 12.5314 4.76675 12.6767 4.65958 12.7839C4.55242 12.891 4.40707 12.9512 4.25552 12.9512ZM3.68409 7.58439C3.18307 7.6674 2.7256 7.91955 2.38789 8.29885C2.05018 8.67815 1.85261 9.1617 1.82809 9.66896C1.85363 10.1754 2.05165 10.6579 2.38928 11.0363C2.7269 11.4146 3.1838 11.6661 3.68409 11.749V7.58439Z" fill="#2639AB"/>
<path d="M11.5563 14.8126H9.66371C9.51216 14.8126 9.36682 14.7524 9.25965 14.6452C9.15249 14.5381 9.09229 14.3927 9.09229 14.2412C9.09229 14.0896 9.15249 13.9443 9.25965 13.8371C9.36682 13.7299 9.51216 13.6697 9.66371 13.6697H11.5563C11.8521 13.6697 12.1358 13.5522 12.345 13.343C12.5542 13.1338 12.6717 12.8501 12.6717 12.5543V12.3029C12.6717 12.1513 12.7319 12.006 12.8391 11.8988C12.9462 11.7916 13.0916 11.7314 13.2431 11.7314C13.3947 11.7314 13.54 11.7916 13.6472 11.8988C13.7544 12.006 13.8146 12.1513 13.8146 12.3029V12.5543C13.8146 13.1532 13.5766 13.7276 13.1531 14.1512C12.7296 14.5747 12.1552 14.8126 11.5563 14.8126Z" fill="#2639AB"/>
<path d="M8.68622 15.8865H7.55708C7.14243 15.8865 6.74477 15.7218 6.45157 15.4286C6.15837 15.1354 5.99365 14.7377 5.99365 14.3231V14.2591C5.99486 13.8452 6.16011 13.4487 6.45318 13.1565C6.74625 12.8643 7.14323 12.7002 7.55708 12.7002H8.68622C9.09966 12.7002 9.49616 12.8644 9.7885 13.1568C10.0808 13.4491 10.2451 13.8456 10.2451 14.2591V14.3231C10.2451 14.7369 10.081 15.1339 9.78878 15.427C9.49657 15.72 9.10008 15.8853 8.68622 15.8865ZM7.56622 13.8431C7.45547 13.843 7.34918 13.8867 7.27044 13.9646C7.1917 14.0425 7.14686 14.1483 7.14565 14.2591V14.3231C7.14565 14.4346 7.18996 14.5416 7.26884 14.6204C7.34771 14.6993 7.45468 14.7436 7.56622 14.7436H8.68622C8.79697 14.7424 8.90278 14.6976 8.98066 14.6188C9.05855 14.5401 9.10223 14.4338 9.10222 14.3231V14.2591C9.10222 14.1487 9.0584 14.0429 8.98038 13.9649C8.90237 13.8869 8.79655 13.8431 8.68622 13.8431H7.56622Z" fill="#2639AB"/>
</g>
<defs>
<clipPath id="clip0_3355_1152">
<rect width="16" height="16" fill="white"/>
</clipPath>
</defs>
</svg>
