<svg xmlns="http://www.w3.org/2000/svg" width="8.721" height="9.238" viewBox="0 0 8.721 9.238">
  <path id="_8726047_history_alt_icon" data-name="8726047_history_alt_icon" d="M6.662,2A4.619,4.619,0,0,0,3.484,3.28V2.462a.462.462,0,0,0-.924,0V4.541A.462.462,0,0,0,3.022,5H5.1a.462.462,0,0,0,0-.924H3.992a3.7,3.7,0,1,1,2.67,6.236.462.462,0,1,0,0,.924A4.619,4.619,0,1,0,6.662,2Zm0,2.771a.462.462,0,0,0-.462.462V6.619a.462.462,0,0,0,.462.462h.924a.462.462,0,0,0,0-.924H7.124V5.233A.462.462,0,0,0,6.662,4.771Z" transform="translate(-2.56 -2)" fill="#efb10c"/>
</svg>
