<svg xmlns="http://www.w3.org/2000/svg" width="26.164" height="24.822" viewBox="0 0 26.164 24.822">
  <g id="Icon" transform="translate(-2.25 -2.75)">
    <path id="Path_191" data-name="Path 191" d="M28.414,9.123A6.372,6.372,0,0,0,22.04,2.75H8.623A6.372,6.372,0,0,0,2.25,9.123V26.566a1.006,1.006,0,0,0,1.564.837L7.5,24.945a.339.339,0,0,1,.186-.056H22.04a6.372,6.372,0,0,0,6.373-6.373V9.123ZM4.263,24.686,6.385,23.27a2.346,2.346,0,0,1,1.3-.394H22.04A4.361,4.361,0,0,0,26.4,18.515V9.123A4.361,4.361,0,0,0,22.04,4.763H8.623A4.361,4.361,0,0,0,4.263,9.123V24.686Z" transform="translate(0 0)" fill="#0275fb" fill-rule="evenodd"/>
    <path id="Path_192" data-name="Path 192" d="M13.4,12.671a1.976,1.976,0,1,0-2.221-2.722,1.006,1.006,0,0,1-1.844-.806A3.988,3.988,0,1,1,14.005,14.6c-.007.126-.009.237-.009.3v.011a.2.2,0,0,1,0,.028v.02h0a1.006,1.006,0,0,1-2.011-.048v-.042c0-.1.007-.342.027-.6A1.678,1.678,0,0,1,13.4,12.671Zm0,0-.015,0,.044-.008Z" transform="translate(2.392 1.367)" fill="#0275fb" fill-rule="evenodd"/>
    <circle id="Ellipse_31" data-name="Ellipse 31" cx="0.895" cy="0.895" r="0.895" transform="translate(14.487 18.067)" fill="#0275fb"/>
  </g>
</svg>
