<svg width="32" height="32" viewBox="0 0 32 32" fill="none" xmlns="http://www.w3.org/2000/svg">
<rect x="6.10352e-05" y="0.00012207" width="32" height="32" rx="16" fill="#F7F8FF"/>
<g clip-path="url(#clip0_2970_316)">
<path fill-rule="evenodd" clip-rule="evenodd" d="M22.3095 15.8595C22.301 15.7373 22.4109 14.7493 22.4421 14.5361C22.4473 14.5068 22.4642 14.4659 22.4336 14.4477C22.4057 14.4314 22.3758 14.4639 22.3491 14.4782C22.2854 14.5114 22.2516 14.5679 22.2289 14.6342C22.1632 14.8344 21.7719 15.9394 21.7453 15.9537C21.742 16.033 21.6673 16.0259 21.6172 16.0499C21.4755 16.0506 21.4274 16.1279 21.3995 16.2631C21.2207 17.1361 21.0316 18.0077 20.845 18.8794C20.8385 18.9099 20.8281 18.9392 20.8177 18.9769C20.7261 18.9034 20.6344 18.8417 20.5207 18.8267C20.2795 18.7942 20.0624 18.9125 19.9727 19.1387C19.9454 19.2083 19.9175 19.2187 19.8512 19.205C19.5652 19.1426 19.4176 18.9177 19.48 18.6265C19.6003 18.0623 19.7205 17.4988 19.8427 16.9339C19.9051 16.6479 20.1242 16.5088 20.4108 16.5693C20.5974 16.6096 20.7839 16.6538 20.9711 16.6889C21.1089 16.7149 21.0862 16.7383 21.118 16.5875C21.1518 16.4282 21.183 16.2677 21.2246 16.1097C21.2428 16.035 21.2266 15.9882 21.1596 15.955C21.0725 15.9095 21.0491 15.8289 21.0387 15.7399C21.0387 15.7256 21.0407 15.7139 21.0439 15.7028C21.0407 15.6755 21.3845 14.5302 21.4489 14.306C21.5204 14.0616 21.6621 13.8861 21.8896 13.771C22.1951 13.6176 22.496 13.4532 22.7976 13.2939C22.9172 13.2302 23.0407 13.173 23.1766 13.1561C23.5822 13.1067 23.9254 13.4356 23.8929 13.8529C23.8766 14.0707 23.8389 14.2871 23.8084 14.5042L23.6082 15.9102C23.5893 16.0454 23.6381 16.1507 23.7395 16.2378C23.9325 16.4042 24.1217 16.5758 24.3193 16.737C24.524 16.9047 24.6196 17.1153 24.6352 17.3785C24.6696 17.9505 24.7177 18.5225 24.76 19.0945C24.7762 19.324 24.6566 19.5151 24.4493 19.5937C24.2543 19.6698 24.0333 19.61 23.9 19.4462C23.8376 19.3701 23.8012 19.2837 23.7934 19.1849C23.7616 18.7799 23.731 18.3743 23.7011 17.97C23.6901 17.8348 23.6777 17.6996 23.6745 17.5638C23.6725 17.489 23.6446 17.4396 23.5887 17.3922C23.2936 17.1432 23.0037 16.8871 22.7073 16.6395C22.522 16.4854 22.3758 16.3093 22.3114 16.0727C22.3114 16.0727 22.3127 15.9121 22.3095 15.8582M23.5932 12.9267C24.0222 12.9267 24.368 12.5822 24.3687 12.1538C24.37 11.719 24.0242 11.3712 23.5913 11.3732C23.161 11.3738 22.8152 11.7177 22.8145 12.1447C22.8126 12.5789 23.1584 12.9267 23.5932 12.9267Z" fill="#2639AB"/>
<path fill-rule="evenodd" clip-rule="evenodd" d="M20.4355 19.0309C20.2736 19.0335 20.1397 19.1681 20.1397 19.328C20.1391 19.4931 20.2788 19.6289 20.4472 19.627C20.6103 19.6257 20.7384 19.495 20.7384 19.3293C20.7384 19.1583 20.6051 19.0277 20.4355 19.0309ZM23.9351 15.0399C23.9819 14.7565 24.0066 14.5453 24.0534 14.2853L24.1073 14.3165L25.1473 14.9957C25.2682 15.0757 25.3943 15.1504 25.5074 15.2382C25.6543 15.3526 25.6309 15.5866 25.4684 15.7289C25.328 15.8524 25.1499 15.8758 25.0102 15.7848C24.6377 15.5443 24.3459 15.4124 23.9741 15.1706C23.9071 15.127 23.9208 15.1309 23.9351 15.0399ZM23.0121 17.1745C22.7826 16.9717 22.5369 16.7858 22.3159 16.5525L22.2841 16.6396L21.7108 18.4225C21.6438 18.6318 21.5691 18.8385 21.5171 19.0491C21.4501 19.3234 21.6529 19.5932 21.9331 19.6231C22.1736 19.6491 22.3777 19.5191 22.455 19.2792C22.6624 18.6442 22.8665 18.0078 23.0719 17.3721C23.1089 17.2584 23.107 17.259 23.0121 17.1745Z" fill="#2639AB"/>
<path fill-rule="evenodd" clip-rule="evenodd" d="M16.0541 20.4199H8.98214C7.85309 20.4199 6.93854 19.5054 6.93854 18.3757V10.0856C6.93854 9.63057 7.30904 9.26007 7.76404 9.26007H17.2735C17.7285 9.26007 18.099 9.63057 18.099 10.0856V18.3757C18.099 19.5054 17.1825 20.4199 16.0541 20.4199Z" stroke="#2639AB" stroke-width="1.2" stroke-linecap="round"/>
<path d="M14.2644 7.74622H10.5731" stroke="#2639AB" stroke-width="1.2" stroke-linecap="round"/>
<path d="M8.12115 20.42V22.5003M16.7207 20.42V22.5003M9.57975 22.0886H15.2608" stroke="#2639AB" stroke-width="1.2" stroke-linecap="round"/>
<path d="M12.2159 7.74622L12.9543 8.55157V9.26072" stroke="#2639AB" stroke-width="1.2" stroke-linecap="round" stroke-linejoin="round"/>
<path fill-rule="evenodd" clip-rule="evenodd" d="M15.9641 15.0939H9.06047C8.78747 15.0939 8.56647 14.8723 8.56647 14.5986V11.5462C8.56647 11.2732 8.78747 11.0509 9.06047 11.0509H15.9635C16.2378 11.0509 16.4594 11.2732 16.4594 11.5462V14.5986C16.4594 14.8716 16.2384 15.0939 15.9641 15.0939Z" stroke="#2639AB" stroke-width="1.2" stroke-linecap="round"/>
</g>
<defs>
<clipPath id="clip0_2970_316">
<rect width="20.8" height="20.8" fill="white" transform="translate(5.59967 5.59973)"/>
</clipPath>
</defs>
</svg>
