<svg xmlns="http://www.w3.org/2000/svg" width="345.719" height="59" viewBox="0 0 345.719 59">
  <g id="Group_2" data-name="Group 2" transform="translate(-821 335)">
    <g id="Group_1" data-name="Group 1" transform="translate(820.527 -335)">
      <path id="Path_1" data-name="Path 1" d="M222.231,52.353h2.552V51.295h-2.552Zm0,2.807h2.552V53.184h-2.552Zm22.96-37.787h7.749V6.9h-9.416Zm6.637,12.743h8.162V27.621h-8.166Zm9.453-12.909V6.894h-6.974V17.207Zm5.562-.054,1.949-10.211-5.926-.051-.026,10.262Zm67.1,21.562h.847V23.566h-.847Zm1.983,13.639h2.555V50.534h-2.552Zm0,2.807h2.555V53.184h-2.552ZM215.358,42.528v1.335h4.166l.91-1.335V38.7h.376V22.83h.563V38.7h4.786V22.887h.781V18.108h.651v-3.24h16.147l-1.3-8.385h-1.431V5.339L241.917,4h5.728L246.083.573,246.6,0l1.821,3.718h2.148l.716-1.048h10.544v.857h8.261l.715,1.048V6.1h-1.3l-1.3,8.767h6.115V11.905h-.71V10.762h.71V4.527h-.71V3.383h.71V.787H276.1v2.6h.71V4.527H276.1v6.235h.71v1.144h-.71v2.963H280V13.463h5.394v1.405h5.394V13.463h5.4v1.405h12.491V13.463h5.394v1.405h5.324V13.463h5.394v1.405h8.121v3.24h1.036v4.6h1.414v15.98h4.472V22.61h.563V38.717h-.065v4.932s.52-.761.52-.57h4.173v-.956h1.172V46.9H345.15v-.956h-4.564v1.717h-.259v4.989h2.412v.832l-2.412.739v1.542h-.564V47.657h-.608v2.867h-.1v5.457h-3.693V50.524h-1.775v.567a2.125,2.125,0,0,1,.755.978,4.2,4.2,0,0,1,.31,1.523,4.081,4.081,0,0,1-.618,2.073,1.516,1.516,0,0,1-2.6,0,4.082,4.082,0,0,1-.618-2.073,4.2,4.2,0,0,1,.31-1.523,2.119,2.119,0,0,1,.755-.978v-.567h-2.82a9.416,9.416,0,0,1,.187,1.911,9.519,9.519,0,0,1-1.443,4.834,3.3,3.3,0,0,1-3.029,1.713,3.177,3.177,0,0,1-2.278-.912,6.849,6.849,0,0,1-1.715-2.7,2.394,2.394,0,0,1-1.544.6,2.309,2.309,0,0,1-2.114-1.2,6.229,6.229,0,0,1-.948-4.26h-7.51a6.5,6.5,0,0,1,.06.886,6.651,6.651,0,0,1-1.016,3.38,2.31,2.31,0,0,1-2.123,1.192,2.413,2.413,0,0,1-1.551-.6,6.86,6.86,0,0,1-1.727,2.7,3.19,3.19,0,0,1-2.287.91,3.308,3.308,0,0,1-3.04-1.707,9.542,9.542,0,0,1-1.455-4.84,9.4,9.4,0,0,1,.2-1.911h-1.239l-1.69,4.384H267.817l-1.3-3.622h-1.709a8.783,8.783,0,0,1-1.374,5.987,3.3,3.3,0,0,1-3.03,1.7,4.043,4.043,0,0,1-3.365-2.23,2.708,2.708,0,0,1-2.181,1.293,2.3,2.3,0,0,1-2.116-1.188,6.638,6.638,0,0,1-1.012-3.368,6.213,6.213,0,0,1,.388-2.2h-8.129a6.262,6.262,0,0,1,.387,2.2,6.637,6.637,0,0,1-1,3.363,2.3,2.3,0,0,1-2.108,1.193,2.7,2.7,0,0,1-2.17-1.293,4.021,4.021,0,0,1-3.346,2.23,3.294,3.294,0,0,1-3.018-1.708,9.489,9.489,0,0,1-1.437-4.817,9.342,9.342,0,0,1,.075-1.163h-2.61V52a2.219,2.219,0,0,1,.7.973,4.18,4.18,0,0,1,.282,1.455,4.074,4.074,0,0,1-.615,2.065,1.509,1.509,0,0,1-2.588,0,4.074,4.074,0,0,1-.615-2.065,4.156,4.156,0,0,1,.287-1.464,2.2,2.2,0,0,1,.706-.973v-.7H225.35v4.7h-3.682v-4.7h-.86v4.486h-.541V54.232l-2.3-.745v-.832h2.3V47.239h.015l-.89-1.3h-4.034v1.911h-.781V42.512h.781" fill="#4b4b4b"/>
      <path id="Path_2" data-name="Path 2" d="M39.4,34.67A19.464,19.464,0,1,1,19.937,15.206,19.464,19.464,0,0,1,39.4,34.67Z" transform="translate(0 -0.206)" fill="#4b4b4b"/>
      <path id="Path_3" data-name="Path 3" d="M35.752,29.8h191.6V34.67H35.752Z" transform="translate(0 2.196)" fill="#4b4b4b"/>
    </g>
  </g>
</svg>
