<svg xmlns="http://www.w3.org/2000/svg" width="14" height="18.335" viewBox="0 0 14 18.335">
  <g id="woman" transform="translate(-10.231 -3.16)">
    <path id="Path_1231" data-name="Path 1231" d="M24.006,11.317a10.044,10.044,0,0,0,.151-1.265c-.061-.4-.406-.754-.516-1.165s.013-.888-.135-1.268c-.156-.4-.571-.666-.763-1.019-.2-.378-.2-.873-.436-1.2-.256-.351-.729-.492-1.013-.769-.314-.306-.481-.773-.818-.976a3.658,3.658,0,0,0-1.245-.22c-.416-.086-.838-.34-1.241-.232a1.342,1.342,0,0,0-.615.458,8.8,8.8,0,0,0-.929-.2c-.4-.108-.811-.372-1.226-.287-.386.08-.676.483-1.053.71-.336.2-.827.25-1.141.556-.285.276-.355.767-.611,1.117-.236.324-.683.535-.888.914-.19.355-.124.845-.28,1.243-.148.378-.531.69-.641,1.1a11.084,11.084,0,0,0,0,1.274c-.063.422-.367.813-.38,1.217-.013.43.268.836.311,1.234.046.431-.137.892-.029,1.273.119.422.52.708.709,1.051.213.385.263.88.557,1.141.317.282.8.257,1.2.365s.811.373,1.226.285c.386-.08.676-.482,1.053-.71.336-.2.827-.25,1.141-.556.285-.276.355-.767.611-1.117a1.271,1.271,0,0,1,.108-.127,1.12,1.12,0,0,0,.144.285c.256.351.729.492,1.014.769.314.306.481.773.817.976a3.651,3.651,0,0,0,1.245.22c.416.086.838.34,1.241.232s.642-.539.959-.822c.294-.262.755-.428.968-.813.19-.343.1-.831.22-1.253.108-.38.447-.741.493-1.173C24.27,12.173,24.019,11.747,24.006,11.317Z" transform="translate(0 0)" fill="#3e3d42"/>
    <path id="Path_1232" data-name="Path 1232" d="M14.536,45h7.608a2.536,2.536,0,0,1,2.536,2.536v2.536H12V47.536A2.536,2.536,0,0,1,14.536,45Z" transform="translate(-1.209 -28.577)" fill="#ce57b5"/>
    <path id="Path_1233" data-name="Path 1233" d="M29.8,36.8l-1.9,3.487L26,36.8l.317-3.8h3.17Z" transform="translate(-10.771 -20.381)" fill="#ffcbbe"/>
    <path id="Path_1234" data-name="Path 1234" d="M20.505,19.642a3.462,3.462,0,0,0,.044-.723c-.041-.4-.323-.805-.311-1.233.013-.406.314-.8.38-1.217a10.675,10.675,0,0,1-.006-1.274c.111-.409.495-.723.64-1.1.155-.4.089-.888.282-1.243a.066.066,0,0,1,.013-.019l.063-.029a3.787,3.787,0,0,1,2.244-.235l3.6.72a.636.636,0,0,1,.634.634v3.487a4.119,4.119,0,0,1-7.583,2.232,3.462,3.462,0,0,0,.044-.723c-.041-.4-.323-.805-.311-1.233.013-.406.314-.8.38-1.217a10.675,10.675,0,0,1-.006-1.274c.111-.409.495-.723.64-1.1.155-.4.089-.888.282-1.243a.066.066,0,0,1,.013-.019Z" transform="translate(-6.836 -6.376)" fill="#ffddce"/>
    <path id="Path_1235" data-name="Path 1235" d="M26.317,22.268a.317.317,0,0,0,.317-.317v-.634a.317.317,0,0,0-.634,0v.634A.317.317,0,0,0,26.317,22.268Zm3.17,0a.317.317,0,0,0,.317-.317v-.634a.317.317,0,0,0-.634,0v.634A.317.317,0,0,0,29.487,22.268Z" transform="translate(-10.771 -12.185)" fill="#3e3d42"/>
  </g>
</svg>
