<svg width="16" height="16" viewBox="0 0 16 16" fill="none" xmlns="http://www.w3.org/2000/svg">
<path fill-rule="evenodd" clip-rule="evenodd" d="M10.9807 4.14248C11.3575 3.08845 10.516 2 9.32428 2C8.76047 2 8.23126 2.25387 7.90356 2.68163L5.03859 6.42105H2.67744L2 7.05263V13.3684L2.67744 14H12.5803L14.661 10.1203C15.2789 8.96817 15.0367 7.57676 14.0598 6.66594C13.4578 6.10475 12.6415 5.78947 11.7901 5.78947H10.3917L10.9807 4.14248ZM6.06464 7.25507L9.00606 3.41583C9.07949 3.32003 9.198 3.26316 9.32428 3.26316C9.59118 3.26316 9.77969 3.50696 9.69524 3.74302L8.51198 7.05263H11.7901C12.2821 7.05263 12.7539 7.23486 13.1017 7.55916C13.6664 8.08547 13.8063 8.8896 13.4492 9.55537L11.743 12.7368H6.06464V7.25507ZM4.70977 12.7368H3.35487V7.68421H4.70977V12.7368Z" fill="#999999"/>
</svg>
