<svg xmlns="http://www.w3.org/2000/svg" width="53.5" height="43.26" viewBox="0 0 53.5 43.26">
  <g id="cloud" transform="translate(-2.998 -4.723)">
    <path id="Path_897" data-name="Path 897" d="M15.234,31.428a1.024,1.024,0,0,1-.7-.273A10.834,10.834,0,0,1,29.069,15.087a1.933,1.933,0,0,1,.327.276,1.014,1.014,0,0,1,.434,1.379,1.066,1.066,0,0,1-1.427.449,1.751,1.751,0,0,1-.484-.369,8.828,8.828,0,0,0-12.506.392,8.7,8.7,0,0,0,.529,12.4,1.049,1.049,0,0,1-.707,1.816Zm.841-21.013a1.041,1.041,0,0,1-.96-.639L13.6,6.162a1.041,1.041,0,0,1,1.923-.8l1.516,3.614a1.044,1.044,0,0,1-.559,1.361A1.146,1.146,0,0,1,16.075,10.415ZM4.038,31.844a1.04,1.04,0,0,1-.4-2L7.26,28.331a1.04,1.04,0,1,1,.8,1.92L4.439,31.764A1.073,1.073,0,0,1,4.038,31.844Zm3.7-13.193a1.062,1.062,0,0,1-.4-.08L3.723,17.058a1.04,1.04,0,1,1,.8-1.92l3.617,1.513a1.04,1.04,0,0,1-.4,2ZM27.773,10.5a1.088,1.088,0,0,1-.4-.08A1.044,1.044,0,0,1,26.81,9.06l1.516-3.614a1.042,1.042,0,0,1,1.923.8L28.733,9.863A1.041,1.041,0,0,1,27.773,10.5Z" transform="translate(0 0)" fill="#ff7657"/>
    <path id="Path_898" data-name="Path 898" d="M43.471,41.069H14.354a1.238,1.238,0,0,1-.44-.1,9.75,9.75,0,0,1,1.025-19.458c.205,0,.425,0,.648.009a13.536,13.536,0,0,1,27.07.273c0,.14-.006.27-.018.4.11-.006.217-.009.324-.009a9.459,9.459,0,0,1,9.457,9.442,9.336,9.336,0,0,1-8.91,9.445Zm-28.877-2.08H43.45a7.265,7.265,0,0,0,6.892-7.365,7.378,7.378,0,0,0-7.377-7.362,8.941,8.941,0,0,0-1.233.125,1.242,1.242,0,0,1-1-.282,1.11,1.11,0,0,1-.392-.88c.03-.178.065-.357.107-.538a4.426,4.426,0,0,0,.131-.895,11.459,11.459,0,1,0-22.918,0,1.961,1.961,0,0,0,.036.309,3.984,3.984,0,0,1,.053.615,1.039,1.039,0,0,1-1.326,1,5.457,5.457,0,0,0-1.486-.128,7.669,7.669,0,0,0-.675,15.318A1.036,1.036,0,0,1,14.594,38.989Z" transform="translate(4.078 6.913)" fill="#ffba5a"/>
    <path id="Path_899" data-name="Path 899" d="M18.321,20.957a9.051,9.051,0,0,1-4.393-1.132,9.744,9.744,0,0,1-3.317-3.2,1.039,1.039,0,1,1,1.745-1.129,7.67,7.67,0,0,0,2.592,2.52,7,7,0,0,0,9.362-2.485A1.038,1.038,0,1,1,26.1,16.585,9.016,9.016,0,0,1,18.321,20.957Z" transform="translate(14.686 20.297)" fill="#ff7657"/>
  </g>
</svg>
