<svg xmlns="http://www.w3.org/2000/svg" width="94.939" height="94.938" viewBox="0 0 94.939 94.938">
  <g id="Group_18" data-name="Group 18" transform="translate(-936 -322.062)">
    <g id="speaker-svgrepo-com" transform="translate(935.53 322.059)">
      <path id="Path_43" data-name="Path 43" d="M94.939,47.473A47.47,47.47,0,1,0,47.47,94.941,47.468,47.468,0,0,0,94.939,47.473Z" transform="translate(0.47)" fill="#b37929"/>
      <g id="Group_17" data-name="Group 17" transform="translate(25.474 24.425)">
        <path id="Path_44" data-name="Path 44" d="M162.158,127.88a2.025,2.025,0,0,0-2.069.081l-18.2,11.824h-6.729a2.025,2.025,0,0,0-2.025,2.025v17.743a2.025,2.025,0,0,0,2.025,2.025h6.729l18.2,11.823a2.025,2.025,0,0,0,3.128-1.7V129.66A2.025,2.025,0,0,0,162.158,127.88Z" transform="translate(-126.136 -127.635)" fill="#fff"/>
      </g>
    </g>
    <path id="Path_46" data-name="Path 46" d="M0,0H5V63H0Z" transform="translate(1000.921 336.965) rotate(31)" fill="#b37929"/>
  </g>
</svg>
