<svg xmlns="http://www.w3.org/2000/svg" width="34.397" height="47.512" viewBox="0 0 34.397 47.512">
  <g id="LINE_EXPAND" data-name="LINE EXPAND" transform="translate(-5.998 -2.004)">
    <path id="Path_902" data-name="Path 902" d="M24.025,23.3a1.639,1.639,0,0,1-1.491-.967L15.832,7.6,9.13,22.348a1.639,1.639,0,0,1-2.982-1.36L14.341,2.964a1.639,1.639,0,0,1,2.982,0l8.193,18.024a1.615,1.615,0,0,1-1.491,2.31Z" transform="translate(0.001)" fill="#ff7657"/>
    <path id="Path_903" data-name="Path 903" d="M30.629,31.871a1.639,1.639,0,0,0-1.442-.885H27.548V14.879a1.639,1.639,0,1,0-3.277,0V30.986H22.632a1.634,1.634,0,0,0-1.36,2.523l3.277,4.916a1.639,1.639,0,0,0,2.72,0l3.277-4.916A1.639,1.639,0,0,0,30.629,31.871Z" transform="translate(9.586 7.175)" fill="#ffba5a"/>
    <path id="Path_904" data-name="Path 904" d="M24.025,39.825H7.64a1.636,1.636,0,0,1-1.245-2.7L20.486,20.457H7.64a1.639,1.639,0,0,1,0-3.277H24.025a1.627,1.627,0,0,1,1.245,2.687L11.179,36.548H24.025a1.639,1.639,0,1,1,0,3.277Z" transform="translate(0 9.691)" fill="#ff7657"/>
  </g>
</svg>
