<svg width="20" height="20" viewBox="0 0 20 20" fill="none" xmlns="http://www.w3.org/2000/svg">
<rect width="20" height="20" fill="white"/>
<path d="M12.5504 14.3594H16.1704M14.3604 12.5494V16.1694" stroke="#2B40B7" stroke-width="0.905" stroke-linecap="round" stroke-linejoin="round"/>
<path d="M8.98627 5.79373C9.27783 5.00582 10.3922 5.00582 10.6838 5.79373L11.4016 7.7337C11.4933 7.98142 11.6886 8.17673 11.9363 8.26839L13.8763 8.98624C14.6642 9.2778 14.6642 10.3922 13.8763 10.6838L11.9363 11.4016C11.6886 11.4933 11.4933 11.6886 11.4016 11.9363L10.6838 13.8763C10.3922 14.6642 9.27783 14.6642 8.98627 13.8763L8.26842 11.9363C8.17676 11.6886 7.98145 11.4933 7.73373 11.4016L5.79376 10.6838C5.00585 10.3922 5.00585 9.2778 5.79376 8.98624L7.73373 8.26839C7.98145 8.17673 8.17676 7.98142 8.26842 7.7337L8.98627 5.79373Z" stroke="#2B40B7" stroke-width="0.905"/>
<circle cx="14.3604" cy="5.31" r="1.81" stroke="#2B40B7" stroke-width="0.905"/>
</svg>
