<svg xmlns="http://www.w3.org/2000/svg" width="72.736" height="50.916" viewBox="0 0 72.736 50.916">
  <g id="_8675147_ic_fluent_password_regular_icon" data-name="8675147_ic_fluent_password_regular_icon" transform="translate(-2 -5)">
    <path id="Path_1134" data-name="Path 1134" d="M15.156,10.8A2.728,2.728,0,0,0,11.3,14.657l2.617,2.616L11.3,19.891a2.727,2.727,0,0,0,3.857,3.857l2.619-2.619,2.616,2.615a2.728,2.728,0,1,0,3.856-3.858l-2.615-2.614,2.616-2.616A2.727,2.727,0,1,0,20.391,10.8l-2.617,2.617Z" transform="translate(22.413 13.184)" fill="#838383"/>
    <path id="Path_1135" data-name="Path 1135" d="M5.8,10.8a2.728,2.728,0,0,1,3.857,0l2.618,2.617L14.891,10.8a2.728,2.728,0,0,1,3.857,3.857l-2.616,2.616,2.615,2.614a2.728,2.728,0,0,1-3.856,3.858l-2.616-2.615L9.656,23.748A2.728,2.728,0,0,1,5.8,19.891l2.618-2.618L5.8,14.657A2.728,2.728,0,0,1,5.8,10.8Z" transform="translate(7.91 13.184)" fill="#838383"/>
    <path id="Path_1136" data-name="Path 1136" d="M18.478,13.5a2.728,2.728,0,1,0,0,5.455h6.364a2.728,2.728,0,0,0,0-5.455Z" transform="translate(36.256 22.413)" fill="#838383"/>
    <path id="Path_1137" data-name="Path 1137" d="M13.817,5A11.817,11.817,0,0,0,2,16.82V44.1a11.82,11.82,0,0,0,11.82,11.82h49.1A11.82,11.82,0,0,0,74.736,44.1V16.82A11.817,11.817,0,0,0,62.92,5ZM7.455,16.82a6.362,6.362,0,0,1,6.362-6.364h49.1a6.362,6.362,0,0,1,6.362,6.364V44.1a6.364,6.364,0,0,1-6.364,6.364H13.82A6.364,6.364,0,0,1,7.455,44.1Z" fill="#838383"/>
  </g>
</svg>
