<svg xmlns="http://www.w3.org/2000/svg" width="18.813" height="6.908" viewBox="0 0 18.813 6.908">
  <g id="password" transform="translate(-20.25 -169.737)">
    <path id="Path_1267" data-name="Path 1267" d="M36.793,176.645H22.52a2.273,2.273,0,0,1-2.27-2.269v-2.369a2.273,2.273,0,0,1,2.27-2.27H36.793a2.273,2.273,0,0,1,2.27,2.27v2.369A2.273,2.273,0,0,1,36.793,176.645ZM22.52,170.234a1.775,1.775,0,0,0-1.774,1.773v2.369a1.775,1.775,0,0,0,1.774,1.773H36.793a1.775,1.775,0,0,0,1.774-1.773v-2.369a1.775,1.775,0,0,0-1.774-1.773Z" fill="#326abb"/>
    <path id="Path_1268" data-name="Path 1268" d="M71.416,221.931a.248.248,0,0,1-.2-.1l-.608-.836-.611.837a.248.248,0,0,1-.4-.293l.61-.836-.987-.322a.248.248,0,1,1,.154-.472l.986.322v-1.038a.248.248,0,0,1,.248-.249h0a.248.248,0,0,1,.248.248v1.039l.985-.322a.248.248,0,0,1,.154.472l-.986.322.607.836a.248.248,0,0,1-.2.394Zm3.7,0a.248.248,0,0,1-.2-.1l-.61-.837-.611.837a.248.248,0,0,1-.4-.293l.61-.836-.986-.322a.248.248,0,1,1,.154-.472l.986.322v-1.038a.248.248,0,0,1,.248-.249h0a.248.248,0,0,1,.248.248v1.039l.985-.322a.248.248,0,0,1,.154.472l-.985.322.609.836a.248.248,0,0,1-.2.394Zm2.08,0a.248.248,0,0,1-.2-.394l.609-.836-.987-.322a.248.248,0,1,1,.154-.472l.986.322V219.19a.248.248,0,1,1,.5,0v1.038l.985-.322a.248.248,0,0,1,.154.472l-.986.322.609.836a.248.248,0,0,1-.4.292l-.61-.837-.609.837A.248.248,0,0,1,77.2,221.931Zm6.969.588H81.7a.518.518,0,0,1-.517-.517v-1.785a.518.518,0,0,1,.517-.517h2.464a.518.518,0,0,1,.517.517V222A.518.518,0,0,1,84.168,222.519ZM81.7,220.2a.022.022,0,0,0-.021.02V222a.02.02,0,0,0,.021.02h2.464a.021.021,0,0,0,.021-.02v-1.785a.022.022,0,0,0-.021-.02Z" transform="translate(-46.854 -47.246)" fill="#326abb"/>
    <path id="Path_1269" data-name="Path 1269" d="M390.33,193.562h-1.862a.248.248,0,0,1-.248-.248v-.932a1.179,1.179,0,1,1,2.359,0v.932A.248.248,0,0,1,390.33,193.562Zm-1.614-.5h1.366v-.684a.683.683,0,1,0-1.366,0Zm.684,1.614a.433.433,0,1,1,.432-.434A.435.435,0,0,1,389.4,194.68Zm0-.5a.063.063,0,0,0-.064.062.064.064,0,0,0,.064.064.063.063,0,0,0,0-.127Z" transform="translate(-353.317 -20.61)" fill="#326abb"/>
    <path id="Path_1270" data-name="Path 1270" d="M411.881,268.095a.248.248,0,0,1-.248-.248V267.4a.248.248,0,1,1,.5,0v.443A.248.248,0,0,1,411.881,268.095Z" transform="translate(-375.799 -93.539)" fill="#326abb"/>
  </g>
</svg>
