<svg xmlns="http://www.w3.org/2000/svg" width="23.985" height="41.473" viewBox="0 0 23.985 41.473"><g transform="translate(-207.008 -477.11)"><g transform="translate(178.072 427.97)"><g transform="translate(28.686 49.64)"><path d="M25.475,10.687h-.48a.5.5,0,0,1,0-1h.48a.5.5,0,1,1,0,1Z" transform="translate(-9.873 -6.112)" fill="#080808"/><path d="M5.275-.5H17.71a5.782,5.782,0,0,1,5.775,5.775V35.2a5.782,5.782,0,0,1-5.775,5.775H5.275A5.782,5.782,0,0,1-.5,35.2V5.275A5.782,5.782,0,0,1,5.275-.5ZM17.71,39.973A4.78,4.78,0,0,0,22.485,35.2V5.275A4.78,4.78,0,0,0,17.71.5H5.275A4.78,4.78,0,0,0,.5,5.275V35.2a4.78,4.78,0,0,0,4.775,4.775Z" transform="translate(0.75 0)" fill="#080808"/></g></g><g transform="translate(207.5 491.5)"><circle cx="1.5" cy="1.5" r="1.5" transform="translate(4.5 3.5)" fill="#326abb"/><circle cx="1.5" cy="1.5" r="1.5" transform="translate(10.5 3.5)" fill="#326abb"/><circle cx="1.5" cy="1.5" r="1.5" transform="translate(16.5 3.5)" fill="#326abb"/><circle cx="1.5" cy="1.5" r="1.5" transform="translate(4.5 8.5)" fill="#326abb"/><circle cx="1.5" cy="1.5" r="1.5" transform="translate(10.5 8.5)" fill="#326abb"/><circle cx="1.5" cy="1.5" r="1.5" transform="translate(16.5 8.5)" fill="#326abb"/><circle cx="1.5" cy="1.5" r="1.5" transform="translate(4.5 13.5)" fill="#326abb"/><circle cx="1.5" cy="1.5" r="1.5" transform="translate(10.5 13.5)" fill="#326abb"/><circle cx="1.5" cy="1.5" r="1.5" transform="translate(10.5 18.5)" fill="#326abb"/><circle cx="1.5" cy="1.5" r="1.5" transform="translate(16.5 13.5)" fill="#326abb"/></g></g></svg>