<svg xmlns="http://www.w3.org/2000/svg" width="94.939" height="94.938" viewBox="0 0 94.939 94.938">
  <g id="speaker-svgrepo-com" transform="translate(0 -0.003)">
    <path id="Path_43" data-name="Path 43" d="M94.939,47.473A47.47,47.47,0,1,0,47.47,94.941,47.468,47.468,0,0,0,94.939,47.473Z" fill="#295db3"/>
    <g id="Group_17" data-name="Group 17" transform="translate(25.474 24.425)">
      <path id="Path_44" data-name="Path 44" d="M162.158,127.88a2.025,2.025,0,0,0-2.069.081l-18.2,11.824h-6.729a2.025,2.025,0,0,0-2.025,2.025v17.743a2.025,2.025,0,0,0,2.025,2.025h6.729l18.2,11.823a2.025,2.025,0,0,0,3.128-1.7V129.66A2.025,2.025,0,0,0,162.158,127.88Z" transform="translate(-133.131 -127.635)" fill="#fff"/>
      <path id="Path_45" data-name="Path 45" d="M313.817,207.379a1.42,1.42,0,0,0,.514-.1c4.638-1.8,7.754-7.365,7.754-13.846,0-5.732-2.526-10.916-6.435-13.206a1.42,1.42,0,0,0-1.435,2.45c3.056,1.791,5.031,6.013,5.031,10.756,0,5.235-2.444,9.84-5.942,11.2a1.42,1.42,0,0,0,.514,2.744Z" transform="translate(-278.094 -170.008)" fill="#fff"/>
    </g>
  </g>
</svg>
