<svg xmlns="http://www.w3.org/2000/svg" width="27.382" height="33.836" viewBox="0 0 27.382 33.836"><g transform="translate(9864.664 -1975.745)"><circle cx="13.691" cy="13.691" r="13.691" transform="translate(-9864.664 1975.745)" fill="#d6e5f5"/><g transform="translate(-9860.309 1980.736)"><path d="M68.269,8.2V8.126C68.269,3.1,64.283,0,58.6,0a13.747,13.747,0,0,0-7.978,2.357,2.726,2.726,0,0,0-.434,3.832l.649.856a2.882,2.882,0,0,0,3.773.573,7.305,7.305,0,0,1,3.487-1c1.857,0,2.9.812,2.9,2.128v.038c0,1.664-1.587,4.042-6.075,4.429l-.155.174A12.386,12.386,0,0,0,55,16.2l.179,1.188a3.013,3.013,0,0,0,2.735,2.637c1.293,0,2.445-.554,2.572-1.238s.233-1.239.233-1.239A9.441,9.441,0,0,0,68.269,8.2Z" transform="translate(-49.598)" fill="#397ff4"/><path d="M95.093,217.1a2.666,2.666,0,0,0-2.666,2.667v1.245a2.667,2.667,0,0,0,2.666,2.667h2.29a2.667,2.667,0,0,0,2.667-2.667v-1.245a2.667,2.667,0,0,0-2.667-2.667Z" transform="translate(-88.034 -194.828)" fill="#397ff4"/></g></g></svg>