<svg xmlns="http://www.w3.org/2000/svg" width="15.77" height="15.803" viewBox="0 0 15.77 15.803">
  <g id="_1814075_find_magnifier_magnifying_glass_search_icon" data-name="1814075_find_magnifier_magnifying glass_search_icon" transform="translate(-8.2 -8.1)">
    <g id="Icon-Search" transform="translate(8.2 8.1)">
      <path id="Fill-1" d="M-15.34-208.979a6.469,6.469,0,0,1-6.46-6.46,6.469,6.469,0,0,1,6.46-6.46,6.447,6.447,0,0,1,6.46,6.46,6.49,6.49,0,0,1-6.46,6.46Zm0-11.96a5.543,5.543,0,0,0-5.533,5.533,5.543,5.543,0,0,0,5.533,5.533,5.543,5.543,0,0,0,5.533-5.533,5.586,5.586,0,0,0-5.533-5.533Z" transform="translate(21.8 221.9)" fill="#00c861"/>
      <path id="Fill-2" d="M14.606-184.7,10.1-189.171l.729-.729,4.473,4.506-.7.7" transform="translate(0.468 200.501)" fill="#00c861"/>
    </g>
  </g>
</svg>
