<svg width="34" height="4" viewBox="0 0 34 4" fill="none" xmlns="http://www.w3.org/2000/svg">
<path d="M0.666667 2C0.666667 2.73638 1.26362 3.33333 2 3.33333C2.73638 3.33333 3.33333 2.73638 3.33333 2C3.33333 1.26362 2.73638 0.666667 2 0.666667C1.26362 0.666667 0.666667 1.26362 0.666667 2ZM30.6667 2C30.6667 2.73638 31.2636 3.33334 32 3.33334C32.7364 3.33334 33.3333 2.73638 33.3333 2C33.3333 1.26362 32.7364 0.666669 32 0.666669C31.2636 0.666669 30.6667 1.26362 30.6667 2ZM2 2L2 2.25L32 2.25L32 2L32 1.75L2 1.75L2 2Z" fill="#CCCCCC"/>
</svg>
