<svg xmlns="http://www.w3.org/2000/svg" width="16.583" height="20.807" viewBox="0 0 16.583 20.807">
  <g id="old-man" transform="translate(0)">
    <path id="Path_1216" data-name="Path 1216" d="M49.719,66.743H42.46V63.7l.743-.423.621-.361.163-1.078,4.661.514-.039.676,1.11.548Z" transform="translate(-37.763 -51.954)" fill="#fcbd88"/>
    <path id="Path_1217" data-name="Path 1217" d="M49.06,63.693v2.169l1.1.827,5.057-3.936.023-.379v-.029l-.112-.011-4.541-.5-.172,1.078-.618.361Z" transform="translate(-44.361 -51.945)" fill="#e6a372"/>
    <path id="Path_1218" data-name="Path 1218" d="M14,78.034a1.463,1.463,0,0,0,.86,1.318,16.08,16.08,0,0,0,7.571,1.44,16.77,16.77,0,0,0,2.588-.325c.063-.016.127-.024.19-.037l.5-.1a19.274,19.274,0,0,0,4.064-1.447,1.463,1.463,0,0,0,.813-1.353c-.008-.275-.024-.606-.057-.99-.106-1.206.057-2.175-1.356-3.131-.429-.291-.985-.611-1.551-.917s-1.138-.595-1.611-.826h-.01l-.415-.2a3.108,3.108,0,0,1-1.829,2.068,3.981,3.981,0,0,1-4.714-1.962l-.65.376h-.015c-.813.478-1.827,1.1-2.764,1.757C14.182,74.7,13.987,76.724,14,78.034Z" transform="translate(-13.996 -60.01)" fill="#596a86"/>
    <path id="Path_1219" data-name="Path 1219" d="M17.53,75.45h0A16.042,16.042,0,0,0,25.1,76.894a16.753,16.753,0,0,0,2.586-.325c.063-.016.127-.023.19-.036l.5-.112a19.289,19.289,0,0,0,4.064-1.445,1.453,1.453,0,0,0,.7-.754,2.809,2.809,0,0,0-.842-.855c-.429-.291-.985-.611-1.551-.917s-1.138-.595-1.611-.826h-.01l-.415-.2a3.108,3.108,0,0,1-1.826,2.074,3.981,3.981,0,0,1-4.714-1.962l-.65.376H21.51c-.813.478-1.827,1.1-2.764,1.757A3.435,3.435,0,0,0,17.53,75.45Z" transform="translate(-17.135 -59.976)" fill="#5f728e"/>
    <path id="Path_1220" data-name="Path 1220" d="M85.836,37.242l.145-.08a.65.65,0,0,1-.034-.543.2.2,0,0,1,.163-.119c.223-.026.431.387.488.535l.163-.059c-.026-.07-.265-.688-.66-.641a.367.367,0,0,0-.3.208A.813.813,0,0,0,85.836,37.242Z" transform="translate(-81.84 -30.594)" fill="#99726b"/>
    <path id="Path_1221" data-name="Path 1221" d="M46.6,2.953c-.68-1.824-3.186-1.917-3.186-1.917a3.812,3.812,0,0,0-1.473.18A3.859,3.859,0,0,0,39.612,2.86c-.278.813.28,1.083.311,2.351a.868.868,0,0,1-1.175.928h0a1,1,0,0,0-.673.948A2.361,2.361,0,0,0,38.4,8.459a1.146,1.146,0,0,0,1.206.618s.722.151,1.049,1.253a3.223,3.223,0,0,0,4.215,1.909C48.68,11.062,46.952,3.893,46.6,2.953Z" transform="translate(-34.627 -1.026)" fill="#fcbd88"/>
    <path id="Path_1222" data-name="Path 1222" d="M35.58,17.324l-.137-2.034a3.923,3.923,0,0,1,.925,1.325A2.787,2.787,0,0,1,36,18.792Z" transform="translate(-23.347 -12.971)" fill="#d8d8d8"/>
    <path id="Path_1223" data-name="Path 1223" d="M38.818,27.5l.79-.02V27.29a.722.722,0,0,1,.72-.72h1.18a.719.719,0,0,1,.7.558h1.1a.678.678,0,0,1,.616-.4H45a.676.676,0,0,1,.676.676v.741a.676.676,0,0,1-.676.676H43.921a.678.678,0,0,1-.676-.676v-.684H42.228v.65a.72.72,0,0,1-.72.72H40.331a.722.722,0,0,1-.723-.728v-.289l-.785.02h0a.163.163,0,1,1,0-.325Zm4.757.65a.348.348,0,0,0,.346.346H45a.346.346,0,0,0,.346-.346v-.748A.346.346,0,0,0,45,27.059H43.921a.348.348,0,0,0-.346.346Zm-3.642-.05a.392.392,0,0,0,.39.39h1.185a.39.39,0,0,0,.39-.39V27.29a.39.39,0,0,0-.39-.39H40.331a.392.392,0,0,0-.4.39Z" transform="translate(-33.105 -22.417)" fill="#424c54"/>
    <ellipse id="Ellipse_159" data-name="Ellipse 159" cx="0.366" cy="0.52" rx="0.366" ry="0.52" transform="translate(7.461 4.748)" fill="#424c54"/>
    <path id="Path_1224" data-name="Path 1224" d="M65.7,31.075a.925.925,0,0,0-.889.145" transform="translate(-57.377 -26.144)" fill="#26385f"/>
    <path id="Path_1225" data-name="Path 1225" d="M63.966,30.528a.163.163,0,0,0,.1-.033.753.753,0,0,1,.723-.125.165.165,0,0,0,.133-.3,1.084,1.084,0,0,0-1.055.163.166.166,0,0,0,.1.3Z" transform="translate(-56.533 -25.288)" fill="#424c54"/>
    <ellipse id="Ellipse_160" data-name="Ellipse 160" cx="0.366" cy="0.52" rx="0.366" ry="0.52" transform="translate(11.031 4.826)" fill="#424c54"/>
    <path id="Path_1226" data-name="Path 1226" d="M42.85,31.555a.922.922,0,0,1,.888.145" transform="translate(-31.845 -26.546)" fill="#26385f"/>
    <path id="Path_1227" data-name="Path 1227" d="M45.538,23.324a.165.165,0,0,0,.1-.3,1.089,1.089,0,0,0-1.055-.163.165.165,0,1,0,.133.3.759.759,0,0,1,.723.125A.163.163,0,0,0,45.538,23.324Zm.265-1.218a.163.163,0,0,0,.1-.3,1.873,1.873,0,0,0-1.626-.314.165.165,0,1,0,.1.314,1.535,1.535,0,0,1,1.33.263A.163.163,0,0,0,45.8,22.106Zm-5.466-.054a.163.163,0,0,0,.1-.033,1.9,1.9,0,0,1,1.644-.325.165.165,0,0,0,.1-.314,2.234,2.234,0,0,0-1.951.376.164.164,0,0,0,.1.3Z" transform="translate(-33.646 -18.004)" fill="#424c54"/>
    <path id="Path_1228" data-name="Path 1228" d="M53.849,43.324a.371.371,0,0,0,.211-.062.465.465,0,0,0,.171-.442.168.168,0,1,0-.337.011c0,.1-.016.146-.026.153s-.072.015-.2-.047a.165.165,0,1,0-.138.3A.774.774,0,0,0,53.849,43.324Z" transform="translate(-44.065 -35.89)" fill="#e6a372"/>
    <path id="Path_1229" data-name="Path 1229" d="M38.155,4.216C38.433,2.483,41.707,2.2,41.707,2.2s-1.743.813-2.021,1.463.65,1.052.68,1.639a10.93,10.93,0,0,1-.293,1.951,3.565,3.565,0,0,0,.057,1.788c.141.488.289.935.45,1.346a6.1,6.1,0,0,0,.66.9.675.675,0,0,0,1.138-.2l.177-.45a1.076,1.076,0,0,1,.9-.673l1.5-.145a1.075,1.075,0,0,1,.894.35l.132.146a.475.475,0,0,0,.8-.163,5.091,5.091,0,0,0,.286-1.322,10.575,10.575,0,0,1-.507,3.837,3.061,3.061,0,0,1-3.433,1.582,3.758,3.758,0,0,1-2.263-1.764,13.046,13.046,0,0,1-1.218-2.43,14.368,14.368,0,0,1-.281-2.24,1.549,1.549,0,0,0-.751-.61.689.689,0,0,1-.371-.506C37.734,4.7,38.155,4.216,38.155,4.216ZM42.606,12.2c1.767.306,1.54-.756,1.54-.756l.688-.089s.049,1.026.8.61a2.024,2.024,0,0,0,.611-.621l-.616-.515a.958.958,0,0,0-.7-.219l-1.081.1a.962.962,0,0,0-.751.5A5.045,5.045,0,0,0,42.606,12.2Z" transform="translate(-34.391 -2.009)" fill="#d8d8d8"/>
    <path id="Path_1230" data-name="Path 1230" d="M43.686,53.912a4.4,4.4,0,0,0,1.676,1.3,2.848,2.848,0,0,0,2.089.073,2.113,2.113,0,0,0,1.335-1.553,2.1,2.1,0,0,1-.779.6.692.692,0,0,1-.858-.289,1.031,1.031,0,0,1-.606.541,2.375,2.375,0,0,1-.823.12,1.675,1.675,0,0,1-.78-.13.678.678,0,0,1-.4-.637A5.218,5.218,0,0,1,42.48,52.08c.128.034.187.254.244.358.094.174.19.348.293.517A7.866,7.866,0,0,0,43.686,53.912Z" transform="translate(-36.834 -43.78)" fill="#fff" opacity="0.37"/>
  </g>
</svg>
