<svg xmlns="http://www.w3.org/2000/svg" width="14.345" height="13.61" viewBox="0 0 14.345 13.61"><path d="M16.6,6.244A3.494,3.494,0,0,0,13.1,2.75H5.744A3.494,3.494,0,0,0,2.25,6.244v9.564a.552.552,0,0,0,.858.459l2.022-1.348a.186.186,0,0,1,.1-.031H13.1A3.494,3.494,0,0,0,16.6,11.394V6.244ZM3.353,14.777,4.517,14a1.286,1.286,0,0,1,.714-.216H13.1a2.391,2.391,0,0,0,2.391-2.391V6.244A2.391,2.391,0,0,0,13.1,3.853H5.744A2.391,2.391,0,0,0,3.353,6.244v8.533Z" transform="translate(-2.25 -2.75)" fill="#e59840" fill-rule="evenodd"/><path d="M11.525,10A1.083,1.083,0,1,0,10.307,8.5.552.552,0,0,1,9.3,8.062a2.187,2.187,0,1,1,2.561,2.99c0,.069-.005.13-.005.166v.006a.108.108,0,0,1,0,.015v.011h0a.552.552,0,0,1-1.1-.026V11.2c0-.052,0-.188.015-.327A.92.92,0,0,1,11.525,10Zm0,0h-.008l.024,0Z" transform="translate(-4.1 -3.807)" fill="#e59840" fill-rule="evenodd"/><circle cx="0.491" cy="0.491" r="0.491" transform="translate(6.709 8.398)" fill="#e59840"/></svg>