<svg xmlns="http://www.w3.org/2000/svg" xmlns:xlink="http://www.w3.org/1999/xlink" viewBox="0 0 80 80" width="80" height="80" preserveAspectRatio="xMidYMid meet" style="width: 100%; height: 100%; transform: translate3d(0px, 0px, 0px); content-visibility: visible;"><defs><clipPath id="__lottie_element_6279"><rect width="80" height="80" x="0" y="0"></rect></clipPath><linearGradient id="__lottie_element_6283" spreadMethod="pad" gradientUnits="userSpaceOnUse" x1="459" y1="-32" x2="459" y2="32"><stop offset="0%" stop-color="rgb(255,97,229)"></stop><stop offset="50%" stop-color="rgb(255,74,235)"></stop><stop offset="100%" stop-color="rgb(255,52,241)"></stop></linearGradient></defs><g clip-path="url(#__lottie_element_6279)"><g transform="matrix(1,0,0,1,-419.7980041503906,40)" opacity="1" style="display: block;"><g opacity="1" transform="matrix(1,0,0,1,0,0)"><path fill="url(#__lottie_element_6283)" fill-opacity="1" d=" M491.7980041503906,0 C491.7980041503906,-17.67300033569336 477.47100830078125,-32 459.7980041503906,-32 C442.125,-32 427.7980041503906,-17.67300033569336 427.7980041503906,0 C427.7980041503906,17.67300033569336 442.125,32 459.7980041503906,32 C477.47100830078125,32 491.7980041503906,17.67300033569336 491.7980041503906,0z"></path></g></g><g transform="matrix(1,0,0,1,40,55.3809700012207)" opacity="1" style="display: block;"><g opacity="1" transform="matrix(1,0,0,1,0,0)"><path fill="rgb(255,255,255)" fill-opacity="1" d="M0 0"></path><path stroke-linecap="round" stroke-linejoin="round" fill-opacity="0" stroke="rgb(255,255,255)" stroke-opacity="1" stroke-width="4" d="M0 0"></path></g></g><g transform="matrix(1,0,0,1,40,41)" opacity="1" style="display: block;"><g opacity="1" transform="matrix(1,0,0,1,0,0)"><path stroke-linecap="butt" stroke-linejoin="round" fill-opacity="0" stroke="rgb(255,255,255)" stroke-opacity="1" stroke-width="4" d="M0 0"></path></g></g><g transform="matrix(1,0,0,1,40,41)" opacity="1" style="display: block;"><g opacity="1" transform="matrix(1,0,0,1,0,0)"><path stroke-linecap="butt" stroke-linejoin="round" fill-opacity="0" stroke="rgb(255,255,255)" stroke-opacity="1" stroke-width="4" d="M0 0"></path></g></g><g transform="matrix(1,0,0,1,40,40)" opacity="1" style="display: block;"><g opacity="1" transform="matrix(1,0,0,1,0,0)"><path stroke-linecap="round" stroke-linejoin="round" fill-opacity="0" stroke="rgb(255,255,255)" stroke-opacity="1" stroke-width="4" d=" M16,-1.5180000066757202 C16,-0.5699999928474426 16,1.4850000143051147 16,1.9190000295639038"></path></g></g><g transform="matrix(1,0,0,1,40,40)" opacity="1" style="display: block;"><g opacity="1" transform="matrix(1,0,0,1,0,0)"><path stroke-linecap="round" stroke-linejoin="round" fill-opacity="0" stroke="rgb(255,255,255)" stroke-opacity="1" stroke-width="4" d=" M8,-4.039000034332275 C8,-1.9700000286102295 8,2.8519999980926514 8,4.464000225067139"></path></g></g><g transform="matrix(1,0,0,1,40,39)" opacity="1" style="display: block;"><g opacity="1" transform="matrix(1,0,0,1,0,0)"><path stroke-linecap="round" stroke-linejoin="round" fill-opacity="0" stroke="rgb(255,255,255)" stroke-opacity="1" stroke-width="4" d=" M0,-3.496999979019165 C0,-0.1850000023841858 0,4.533999919891357 0,6.298999786376953"></path></g></g><g transform="matrix(1,0,0,1,40,40)" opacity="1" style="display: block;"><g opacity="1" transform="matrix(1,0,0,1,0,0)"><path stroke-linecap="round" stroke-linejoin="round" fill-opacity="0" stroke="rgb(255,255,255)" stroke-opacity="1" stroke-width="4" d=" M-8,-3.7009999752044678 C-8,-1.6260000467300415 -8,2.381999969482422 -8,4.138999938964844"></path></g></g><g transform="matrix(1,0,0,1,40,40)" opacity="1" style="display: block;"><g opacity="1" transform="matrix(1,0,0,1,0,0)"><path stroke-linecap="round" stroke-linejoin="round" fill-opacity="0" stroke="rgb(255,255,255)" stroke-opacity="1" stroke-width="4" d=" M-16,-1.2699999809265137 C-16,-0.515999972820282 -16,0.6460000276565552 -16,1.3630000352859497"></path></g></g></g></svg>