<svg xmlns="http://www.w3.org/2000/svg" width="16.805" height="16.804" viewBox="0 0 16.805 16.804">
  <path id="up-down-arrow" d="M3.335.405a1.047,1.047,0,0,1,.58-.368,1.121,1.121,0,0,1,.572,0,1.047,1.047,0,0,1,.582.369l3.02,2.9a1,1,0,0,1,0,1.451l-.034.033a1.1,1.1,0,0,1-1.514,0L5.3,3.593v7.96A1.049,1.049,0,0,1,4.248,12.6H4.154a1.049,1.049,0,0,1-1.047-1.05V3.592L1.862,4.786a1.1,1.1,0,0,1-1.514,0L.314,4.753a1,1,0,0,1,0-1.451ZM13.469,16.4a1.047,1.047,0,0,1-.58.368,1.12,1.12,0,0,1-.572,0,1.046,1.046,0,0,1-.582-.369l-3.02-2.9a1,1,0,0,1,0-1.451l.034-.033a1.1,1.1,0,0,1,1.514,0l1.244,1.193V5.251A1.049,1.049,0,0,1,12.555,4.2h.095A1.049,1.049,0,0,1,13.7,5.251v7.96l1.245-1.193a1.1,1.1,0,0,1,1.514,0l.034.033a1,1,0,0,1,0,1.451Z" transform="translate(16.805 16.804) rotate(180)" fill="#3f63f5"/>
</svg>
