<svg id="Group_746" data-name="Group 746" xmlns="http://www.w3.org/2000/svg" width="18.786" height="16.384" viewBox="0 0 18.786 16.384">
  <g id="Group_742" data-name="Group 742" transform="translate(1.165 6.526)">
    <path id="Path_1154" data-name="Path 1154" d="M58.793,53.688a1.731,1.731,0,0,0,1.739,1.739v1.4a1.423,1.423,0,0,1-1.449,1.449H44.449A1.423,1.423,0,0,1,43,56.827v-1.4a1.739,1.739,0,1,0,0-3.477v-1.4A1.423,1.423,0,0,1,44.449,49.1H59.131a1.423,1.423,0,0,1,1.449,1.449v1.4A1.773,1.773,0,0,0,58.793,53.688Z" transform="translate(-43 -49.1)" fill="#4b92ff"/>
    <path id="Path_1155" data-name="Path 1155" d="M72.408,65.407H70.041a.228.228,0,0,1-.241-.241v-.724a.228.228,0,0,1,.241-.241h2.367a.228.228,0,0,1,.241.241v.724A.259.259,0,0,1,72.408,65.407Z" transform="translate(-56.857 -56.907)" fill="#ffcd57"/>
    <path id="Path_1156" data-name="Path 1156" d="M64.925,65H62.993a.208.208,0,0,0-.193.193h0a.208.208,0,0,0,.193.193h1.932a.208.208,0,0,0,.193-.193h0A.177.177,0,0,0,64.925,65Z" transform="translate(-53.237 -57.321)" fill="#c7e9ff"/>
  </g>
  <g id="Group_744" data-name="Group 744" transform="translate(0 0)">
    <path id="Path_1157" data-name="Path 1157" d="M55.662,39.844a1.727,1.727,0,0,0,2.463.435l.773,1.159a1.48,1.48,0,0,1-.386,2.028L46.438,51.725a1.48,1.48,0,0,1-2.028-.386l-.773-1.159a1.786,1.786,0,0,0,.483-2.463,1.726,1.726,0,0,0-2.463-.435l-.821-1.159a1.48,1.48,0,0,1,.386-2.028l12.122-8.259a1.48,1.48,0,0,1,2.028.386l.773,1.159A1.832,1.832,0,0,0,55.662,39.844Z" transform="translate(-40.588 -35.588)" fill="#9fcdff"/>
    <path id="Path_1158" data-name="Path 1158" d="M65.251,37.495l-.773-1.159a1.509,1.509,0,0,0-2.028-.386l-3.864,2.608-.193.145-.193.145.193.241a.225.225,0,0,0,.338.048h.048l.435.628h-.048a.225.225,0,0,0-.048.338l.338.483a.225.225,0,0,0,.338.048h.048l.435.628h-.048a.225.225,0,0,0-.048.338l.338.483a.225.225,0,0,0,.338.048H60.9l.435.628h-.048a.225.225,0,0,0-.048.338l.338.483a.225.225,0,0,0,.338.048h.048l.435.628h-.048a.225.225,0,0,0-.048.338l.338.483a.225.225,0,0,0,.338.048h.048l.435.628h-.048a.225.225,0,0,0-.048.338l.193.241.241-.145L64,46.043l3.864-2.608a1.509,1.509,0,0,0,.386-2.028l-.966-1.014a1.812,1.812,0,0,1-2.463-.435A1.768,1.768,0,0,1,65.251,37.495Z" transform="translate(-49.694 -35.654)" fill="#c7e9ff"/>
    <path id="Path_1159" data-name="Path 1159" d="M72.248,50.01l-1.98,1.352a.233.233,0,0,1-.338-.048l-.386-.58a.233.233,0,0,1,.048-.338l1.98-1.352a.233.233,0,0,1,.338.048l.386.58A.233.233,0,0,1,72.248,50.01Z" transform="translate(-55.532 -42.518)" fill="#4b92ff"/>
    <g id="Group_743" data-name="Group 743" transform="translate(10.655 2.015)">
      <path id="Path_1160" data-name="Path 1160" d="M64.268,39.78l-1.545,1.063c-.1.048-.1.193,0,.29h0a.232.232,0,0,0,.29.1l1.545-1.063c.1-.048.1-.193,0-.29h0C64.461,39.78,64.365,39.731,64.268,39.78Z" transform="translate(-62.65 -39.761)" fill="#9fcdff"/>
      <path id="Path_1161" data-name="Path 1161" d="M65.268,41.28l-1.545,1.063c-.1.048-.1.193,0,.29a.232.232,0,0,0,.29.1l1.545-1.063c.1-.048.1-.193,0-.29S65.365,41.231,65.268,41.28Z" transform="translate(-63.167 -40.536)" fill="#9fcdff"/>
    </g>
    <rect id="Rectangle_444" data-name="Rectangle 444" width="1.256" height="2.56" transform="translate(6.596 4.534) rotate(-34.311)" fill="#ffcd57"/>
    <path id="Path_1162" data-name="Path 1162" d="M53.208,63.866l-1.594,1.111c-.1.048-.1.193-.048.29h0c.048.1.193.1.29.048L53.45,64.2c.1-.048.1-.193.048-.29h0C53.45,63.818,53.3,63.818,53.208,63.866Z" transform="translate(-46.248 -50.193)" fill="#c7e9ff"/>
  </g>
</svg>
