<svg xmlns="http://www.w3.org/2000/svg" width="53.975" height="40.175" viewBox="0 0 53.975 40.175">
  <g id="Group_407" data-name="Group 407" transform="translate(-15784.423 -6952.381)">
    <path id="Path_907" data-name="Path 907" d="M30.629,31.871a1.639,1.639,0,0,0-1.442-.885H27.548V14.879a1.639,1.639,0,1,0-3.277,0V30.986H22.632a1.634,1.634,0,0,0-1.36,2.523l3.277,4.916a1.639,1.639,0,0,0,2.72,0l3.277-4.916A1.639,1.639,0,0,0,30.629,31.871Z" transform="translate(15807.588 6946.273)" fill="#ffba5a"/>
    <path id="time_1_" data-name="time (1)" d="M22.225,42.175A20.087,20.087,0,1,1,42.313,22.087,20.109,20.109,0,0,1,22.225,42.175Zm0-36.961A16.873,16.873,0,1,0,39.1,22.087,16.892,16.892,0,0,0,22.225,5.214ZM22.1,23.566H11.78a1.607,1.607,0,1,1,0-3.214h8.71V8.428a1.607,1.607,0,1,1,3.214,0V21.959A1.607,1.607,0,0,1,22.1,23.566Z" transform="translate(15782.285 6950.381)" fill="#ff7657"/>
  </g>
</svg>
