<svg width="56" height="56" viewBox="0 0 56 56" fill="none" xmlns="http://www.w3.org/2000/svg">
<path d="M37.3334 39.6667C37.9523 39.6667 38.5458 39.4208 38.9834 38.9833C39.4209 38.5457 39.6668 37.9522 39.6668 37.3333C39.6782 37.178 39.6782 37.022 39.6668 36.8667C39.6412 36.7205 39.594 36.5789 39.5268 36.4467C39.4757 36.298 39.4051 36.1567 39.3168 36.0267L39.0368 35.6767C38.81 35.4706 38.5495 35.3048 38.2668 35.1867C37.6987 34.9533 37.0615 34.9533 36.4934 35.1867C36.2107 35.3048 35.9502 35.4706 35.7234 35.6767L35.4434 36.0267C35.3551 36.1567 35.2845 36.298 35.2334 36.4467C35.1662 36.5789 35.119 36.7205 35.0934 36.8667C35.082 37.022 35.082 37.178 35.0934 37.3333C35.0934 37.9522 35.3393 38.5457 35.7769 38.9833C36.2144 39.4208 36.8079 39.6667 37.4268 39.6667H37.3334ZM42.0001 4.66667H14.0001C12.1436 4.66667 10.3631 5.40417 9.05035 6.71692C7.7376 8.02968 7.0001 9.81016 7.0001 11.6667V39.6667C7.00372 40.7494 7.25846 41.8166 7.74432 42.7843C8.23017 43.7519 8.93387 44.5937 9.8001 45.2433L7.67677 47.3433C7.45807 47.5603 7.28448 47.8183 7.16602 48.1027C7.04756 48.387 6.98657 48.692 6.98657 49C6.98657 49.308 7.04756 49.613 7.16602 49.8974C7.28448 50.1817 7.45807 50.4398 7.67677 50.6567C7.89368 50.8754 8.15175 51.049 8.43609 51.1674C8.72043 51.2859 9.02541 51.3469 9.33344 51.3469C9.64146 51.3469 9.94644 51.2859 10.2308 51.1674C10.5151 51.049 10.7732 50.8754 10.9901 50.6567L14.9568 46.6667H41.0434L45.0101 50.6567C45.227 50.8754 45.4851 51.049 45.7694 51.1674C46.0538 51.2859 46.3587 51.3469 46.6668 51.3469C46.9748 51.3469 47.2798 51.2859 47.5641 51.1674C47.8485 51.049 48.1065 50.8754 48.3234 50.6567C48.5421 50.4398 48.7157 50.1817 48.8342 49.8974C48.9526 49.613 49.0136 49.308 49.0136 49C49.0136 48.692 48.9526 48.387 48.8342 48.1027C48.7157 47.8183 48.5421 47.5603 48.3234 47.3433L46.2001 45.2433C47.0663 44.5937 47.77 43.7519 48.2559 42.7843C48.7417 41.8166 48.9965 40.7494 49.0001 39.6667V11.6667C49.0001 9.81016 48.2626 8.02968 46.9499 6.71692C45.6371 5.40417 43.8566 4.66667 42.0001 4.66667ZM11.6668 18.6667H25.6668V28H11.6668V18.6667ZM44.3334 39.6667C44.3334 40.2855 44.0876 40.879 43.65 41.3166C43.2124 41.7542 42.6189 42 42.0001 42H14.0001C13.3813 42 12.7878 41.7542 12.3502 41.3166C11.9126 40.879 11.6668 40.2855 11.6668 39.6667V32.6667H44.3334V39.6667ZM44.3334 28H30.3334V18.6667H44.3334V28ZM44.3334 14H11.6668V11.6667C11.6668 11.0478 11.9126 10.4543 12.3502 10.0168C12.7878 9.57917 13.3813 9.33334 14.0001 9.33334H42.0001C42.6189 9.33334 43.2124 9.57917 43.65 10.0168C44.0876 10.4543 44.3334 11.0478 44.3334 11.6667V14ZM18.6668 39.6667C19.2856 39.6667 19.8791 39.4208 20.3167 38.9833C20.7543 38.5457 21.0001 37.9522 21.0001 37.3333C21.0116 37.178 21.0116 37.022 21.0001 36.8667C20.9746 36.7205 20.9274 36.5789 20.8601 36.4467C20.809 36.298 20.7384 36.1567 20.6501 36.0267L20.3701 35.6767C20.1433 35.4706 19.8829 35.3048 19.6001 35.1867C19.032 34.9533 18.3948 34.9533 17.8268 35.1867C17.544 35.3048 17.2836 35.4706 17.0568 35.6767L16.7768 36.0267C16.6885 36.1567 16.6178 36.298 16.5668 36.4467C16.4668 36.5732 16.388 36.715 16.3334 36.8667C16.322 37.022 16.322 37.178 16.3334 37.3333C16.336 37.9455 16.579 38.5321 17.0101 38.9667C17.2262 39.1871 17.4839 39.3625 17.7683 39.4827C18.0527 39.6029 18.3581 39.6654 18.6668 39.6667Z" fill="#DDDDDD" stroke="white" stroke-width="0.8"/>
</svg>
