<svg xmlns="http://www.w3.org/2000/svg" width="27.609" height="26.969" viewBox="0 0 27.609 26.969">
  <g id="Group_114" data-name="Group 114" transform="translate(-140.434 -10.205)">
    <g id="Group_103" data-name="Group 103" transform="translate(140.434 10.205)">
      <g id="Group_101" data-name="Group 101" transform="translate(0)">
        <rect id="Rectangle_140" data-name="Rectangle 140" width="14.579" height="11.663" rx="5.832" transform="translate(2.033 4.371)" fill="#ededed"/>
        <g id="Screenshot_2022-01-10_at_4.13.26_PM" data-name="Screenshot 2022-01-10 at 4.13.26 PM">
          <path id="Path_158" data-name="Path 158" d="M166.517-513.794a2.647,2.647,0,0,0-1.352.789,1.189,1.189,0,0,0-.165.261c0,.027.117.048.261.048a.51.51,0,0,0,.391-.137,1.987,1.987,0,0,1,1.229-.343l.419.007.714.954c.707.954.755,1,1.084.906.144-.048.13-.076-.261-.59s-.4-.57-.4-.913v-.364h5.354v.364c0,.343-.027.4-.4.913s-.4.542-.261.59c.329.1.378.048,1.084-.906l.714-.954.412-.007a1.9,1.9,0,0,1,1.16.309c.233.158.728.24.728.124a1.189,1.189,0,0,0-.165-.261,2.608,2.608,0,0,0-1.38-.789c-.508-.13-.755-.137-4.592-.13C167.292-513.924,166.99-513.918,166.517-513.794Z" transform="translate(-162.021 513.926)" fill="#222221"/>
          <path id="Path_159" data-name="Path 159" d="M129.177-447.528c-3.857.371-6.116,1.771-7.07,4.379a8.472,8.472,0,0,0-.508,3.48c0,3.748.933,7.79,2.19,9.479a7.371,7.371,0,0,0,3.514,2.251,9.222,9.222,0,0,0,3.384.48,9.157,9.157,0,0,0,3.569-.549,7.237,7.237,0,0,0,3.171-2c1.29-1.7,2.224-5.3,2.368-9.149.13-3.59-.968-5.971-3.349-7.234a9.482,9.482,0,0,0-3.391-1.036A23.649,23.649,0,0,0,129.177-447.528Zm4.688,2.087c1.86.357,2.924.988,3.446,2.059a4.534,4.534,0,0,1,.35,2.368c-.13,2.4-1.064,4.544-2.279,5.258a9.987,9.987,0,0,1-4.736.927c-2.4,0-4.386-.522-5.251-1.386a7.608,7.608,0,0,1-1.654-4.461c-.165-1.73.124-2.794.961-3.562a5.636,5.636,0,0,1,3.034-1.222c.323-.041.659-.089.755-.1s1.208-.021,2.471-.014A18.94,18.94,0,0,1,133.865-445.442Zm-7.626,11.3c.652.185.94.686.947,1.634,0,.721-.11,1.03-.48,1.338a1.761,1.761,0,0,1-1.352.316c-.563-.027-.659-.048-.92-.233a1.451,1.451,0,0,1-.6-1.352,1.564,1.564,0,0,1,.144-.968,1.229,1.229,0,0,1,.769-.721A4.012,4.012,0,0,1,126.24-434.144Zm10.357.014a1.194,1.194,0,0,1,.8.721,1.564,1.564,0,0,1,.144.968,1.451,1.451,0,0,1-.6,1.352c-.261.185-.357.206-.92.233a1.761,1.761,0,0,1-1.352-.316c-.371-.309-.48-.618-.48-1.338.007-.927.247-1.38.872-1.6A3.524,3.524,0,0,1,136.6-434.13Z" transform="translate(-121.6 450.475)" fill="#d75858"/>
          <path id="Path_160" data-name="Path 160" d="M133.392-133.927c-.734,1.133-1.393,2.155-1.462,2.258l-.13.2h2.67l.336-.721.329-.721h10.1l.329.721.336.721h2.67l-.13-.2a35.41,35.41,0,0,0-2.9-4.3c-.055.021-.378.13-.721.247s-.652.226-.7.24-.021.165.117.474a1.873,1.873,0,0,1,.206.8v.343h-8.511v-.343a1.9,1.9,0,0,1,.206-.8,3.14,3.14,0,0,0,.192-.467c-.014-.007-.22-.069-.46-.13a7.1,7.1,0,0,1-.741-.254,3.571,3.571,0,0,0-.35-.13C134.751-136,134.127-135.067,133.392-133.927Z" transform="translate(-131.1 158.439)" fill="#3d2c00"/>
        </g>
      </g>
    </g>
    <g id="Group_104" data-name="Group 104" transform="translate(149.911 13.415)">
      <path id="Path_161" data-name="Path 161" d="M7.654,3c4.227,0,7.654,1.24,7.654,5.467A7.654,7.654,0,0,1,0,8.467C0,4.24,3.427,3,7.654,3Z" transform="translate(0.638 -0.813)" fill="#f7f7f7"/>
      <g id="cancel" transform="translate(0 0)">
        <g id="Group_17" data-name="Group 17" transform="translate(0 0)">
          <path id="Path_122" data-name="Path 122" d="M15.481,2.657a9.066,9.066,0,1,0,0,12.828A9.081,9.081,0,0,0,15.481,2.657Zm-2.673,9.087a.756.756,0,1,1-1.069,1.069L9.067,10.14,6.4,12.812a.756.756,0,1,1-1.069-1.069L8,9.071,5.326,6.4A.756.756,0,0,1,6.395,5.33L9.067,8,11.739,5.33A.756.756,0,1,1,12.808,6.4L10.136,9.071Z" transform="translate(0 -0.005)" fill="#d75858"/>
        </g>
      </g>
    </g>
  </g>
</svg>
