<svg xmlns="http://www.w3.org/2000/svg" width="15.867" height="23.504" viewBox="0 0 15.867 23.504"><rect width="12.706" height="10.165" rx="5.082" transform="translate(1.772 3.81)" fill="#ededed"/><path d="M166.322-513.811a2.306,2.306,0,0,0-1.178.688,1.035,1.035,0,0,0-.144.227c0,.024.1.042.227.042a.445.445,0,0,0,.341-.12,1.731,1.731,0,0,1,1.071-.3l.365.006.622.831c.616.832.658.873.945.79.126-.042.114-.066-.227-.514s-.353-.5-.353-.8v-.317h4.666v.317c0,.3-.024.353-.353.8s-.353.473-.227.514c.287.084.329.042.945-.79l.622-.831.359-.006a1.655,1.655,0,0,1,1.011.269c.2.137.634.209.634.108a1.035,1.035,0,0,0-.144-.227,2.272,2.272,0,0,0-1.2-.688c-.443-.114-.658-.12-4-.114C167-513.925,166.735-513.919,166.322-513.811Z" transform="translate(-162.404 513.926)" fill="#222221"/><path d="M128.2-447.533c-3.362.323-5.33,1.543-6.161,3.816a7.383,7.383,0,0,0-.443,3.033c0,3.266.814,6.789,1.908,8.261a6.424,6.424,0,0,0,3.063,1.962,8.039,8.039,0,0,0,2.949.419,7.979,7.979,0,0,0,3.111-.479,6.306,6.306,0,0,0,2.764-1.741c1.125-1.478,1.938-4.618,2.064-7.974.114-3.128-.843-5.2-2.919-6.3a8.263,8.263,0,0,0-2.955-.9A20.611,20.611,0,0,0,128.2-447.533Zm4.086,1.818c1.621.311,2.548.861,3,1.795a3.951,3.951,0,0,1,.305,2.064c-.114,2.088-.927,3.96-1.986,4.582a8.7,8.7,0,0,1-4.127.807c-2.094,0-3.822-.455-4.576-1.208a6.63,6.63,0,0,1-1.442-3.888c-.144-1.507.108-2.435.837-3.1a4.911,4.911,0,0,1,2.644-1.065c.281-.036.574-.078.658-.09s1.053-.018,2.153-.012A16.515,16.515,0,0,1,132.289-445.715Zm-6.646,9.846c.568.161.819.6.825,1.424,0,.628-.1.9-.419,1.166a1.535,1.535,0,0,1-1.178.275c-.491-.024-.574-.042-.8-.2a1.264,1.264,0,0,1-.52-1.178,1.363,1.363,0,0,1,.126-.843,1.071,1.071,0,0,1,.67-.628A3.5,3.5,0,0,1,125.644-435.869Zm9.026.012a1.04,1.04,0,0,1,.694.628,1.363,1.363,0,0,1,.126.843,1.264,1.264,0,0,1-.52,1.178c-.227.162-.311.179-.8.2a1.535,1.535,0,0,1-1.178-.275c-.323-.269-.419-.538-.419-1.166.006-.808.215-1.2.76-1.394A3.072,3.072,0,0,1,134.67-435.857Z" transform="translate(-121.6 450.101)" fill="#7ac6ff"/><path d="M133.188-134.194c-.64.987-1.214,1.878-1.274,1.968l-.114.173h2.327l.293-.628.287-.628h8.805l.287.628.293.628h2.327l-.114-.173a30.859,30.859,0,0,0-2.53-3.751c-.048.018-.329.114-.628.215s-.568.2-.61.209-.018.144.1.413a1.633,1.633,0,0,1,.179.694v.3H135.4v-.3a1.656,1.656,0,0,1,.179-.7,2.735,2.735,0,0,0,.167-.407c-.012-.006-.191-.06-.4-.114a6.184,6.184,0,0,1-.646-.221A3.119,3.119,0,0,0,134.4-136C134.372-136,133.828-135.187,133.188-134.194Z" transform="translate(-131.19 155.556)" fill="#3d2c00"/></svg>