<svg xmlns="http://www.w3.org/2000/svg" width="15.5" height="13.115" viewBox="0 0 15.5 13.115">
  <g id="Group_209" data-name="Group 209" transform="translate(1266.921 -2671.498) rotate(90)">
    <g id="Group_49" data-name="Group 49" transform="translate(2671.498 1251.421)">
      <path id="Path_134" data-name="Path 134" d="M19.233-86.4a1.508,1.508,0,0,1-1.232.6,3.321,3.321,0,0,0-2.623,1.629c-.338.656-.378,1.192-.378,4.67,0,4.392.179,5.167,1.371,6.041l.616.457-.735.755-.735.755h.795a1.56,1.56,0,0,0,1.371-.6l.576-.6h6.6l.576.6a1.56,1.56,0,0,0,1.371.6H27.6l-.735-.755-.735-.755.616-.457c1.192-.874,1.371-1.629,1.371-6.061,0-3.716-.02-3.994-.437-4.729a3.178,3.178,0,0,0-2.583-1.55,1.5,1.5,0,0,1-1.212-.6c-.556-.576-.636-.6-2.325-.6S19.789-86.98,19.233-86.4Zm4.074,1.232c.06.537.1.556,1.212.556a2.4,2.4,0,0,1,1.689.417c.278.219.517.5.517.6a35.18,35.18,0,0,1-5.167.179,35.18,35.18,0,0,1-5.167-.179c0-.1.238-.378.517-.6a2.4,2.4,0,0,1,1.689-.417c1.093,0,1.172-.04,1.172-.457a1.121,1.121,0,0,1,.139-.616,6.628,6.628,0,0,1,1.749-.079C23.227-85.708,23.247-85.708,23.306-85.172Zm3.617,4.431v1.49H16.192v-2.981H26.923Zm-.04,4.074c-.06,1.252-.139,1.451-.715,2.047l-.636.636H17.583l-.636-.636c-.576-.6-.656-.795-.715-2.047l-.079-1.391h10.81Z" transform="translate(-15 87)" fill="#7dc40b"/>
      <path id="Path_135" data-name="Path 135" d="M42.4-38.6a1.374,1.374,0,0,0-.4.795,1.374,1.374,0,0,0,.4.795,1.375,1.375,0,0,0,.795.4,1.434,1.434,0,0,0,1.192-1.192,1.374,1.374,0,0,0-.4-.795,1.374,1.374,0,0,0-.795-.4A1.374,1.374,0,0,0,42.4-38.6Z" transform="translate(-36.635 48.538)" fill="#ec605d"/>
    </g>
  </g>
</svg>
