<svg xmlns="http://www.w3.org/2000/svg" width="89.647" height="105.946" viewBox="0 0 89.647 105.946">
  <g id="icons8-train-96" transform="translate(-15 87)">
    <path id="Path_134" data-name="Path 134" d="M43.932-82.925c-2.717,2.988-5.026,4.075-8.421,4.075-6.52,0-14.941,5.161-17.929,11.138C15.272-63.23,15-59.563,15-35.793,15-5.774,16.222-.477,24.372,5.5l4.211,3.124-5.026,5.161-5.026,5.161h5.433c4.347,0,6.248-.815,9.372-4.075L37.276,10.8h45.1l3.939,4.075c3.124,3.26,5.026,4.075,9.372,4.075h5.433L96.09,13.785,91.064,8.623,95.275,5.5c8.15-5.976,9.372-11.138,9.372-41.428,0-25.4-.136-27.3-2.988-32.327C98.127-74.368,90.792-78.85,84-78.85c-3.26,0-5.569-1.087-8.286-4.075C71.912-86.864,71.369-87,59.823-87S47.735-86.864,43.932-82.925ZM71.776-74.5c.407,3.667.679,3.8,8.286,3.8,5.976,0,8.829.679,11.545,2.852,1.9,1.494,3.532,3.4,3.532,4.075s-14.534,1.222-35.315,1.222-35.315-.543-35.315-1.222,1.63-2.581,3.532-4.075c2.717-2.173,5.569-2.852,11.545-2.852,7.471,0,8.014-.272,8.014-3.124,0-1.766.407-3.667.951-4.211s5.841-.679,11.953-.543C71.233-78.171,71.369-78.171,71.776-74.5ZM96.5-44.214v10.187H23.15V-54.4H96.5Zm-.272,27.845c-.407,8.557-.951,9.916-4.89,13.99L86.989,1.968H32.658L28.311-2.379c-3.939-4.075-4.482-5.433-4.89-13.99l-.543-9.508H96.769Z" fill="#4390df"/>
    <path id="Path_135" data-name="Path 135" d="M44.717-36.283A9.4,9.4,0,0,0,42-30.85a9.4,9.4,0,0,0,2.717,5.433A9.4,9.4,0,0,0,50.15-22.7c3.532,0,8.15-4.618,8.15-8.15a9.4,9.4,0,0,0-2.717-5.433A9.4,9.4,0,0,0,50.15-39,9.4,9.4,0,0,0,44.717-36.283Z" transform="translate(9.674 17.198)" fill="#4390df"/>
  </g>
</svg>
