<svg id="Group_749" data-name="Group 749" xmlns="http://www.w3.org/2000/svg" width="12.383" height="18.344" viewBox="0 0 12.383 18.344">
  <g id="Group_101" data-name="Group 101">
    <g id="Screenshot_2022-01-10_at_4.13.26_PM" data-name="Screenshot 2022-01-10 at 4.13.26 PM">
      <path id="Path_158" data-name="Path 158" d="M166.032-513.836a1.8,1.8,0,0,0-.92.537.809.809,0,0,0-.112.177c0,.019.079.033.177.033a.347.347,0,0,0,.266-.093,1.351,1.351,0,0,1,.836-.233l.285,0,.486.649c.481.649.514.682.738.616.1-.033.089-.051-.177-.4s-.275-.388-.275-.621v-.247h3.641v.247c0,.233-.019.275-.275.621s-.275.369-.177.4c.224.065.257.033.738-.616l.486-.649.28,0a1.292,1.292,0,0,1,.789.21c.159.107.495.163.495.084a.809.809,0,0,0-.112-.177,1.774,1.774,0,0,0-.938-.537,14.623,14.623,0,0,0-3.123-.089A15.308,15.308,0,0,0,166.032-513.836Z" transform="translate(-162.974 513.926)" fill="#3f63f5"/>
      <path id="Path_159" data-name="Path 159" d="M126.754-447.541c-2.624.252-4.16,1.2-4.809,2.979a5.762,5.762,0,0,0-.345,2.367c0,2.549.635,5.3,1.489,6.447a5.014,5.014,0,0,0,2.39,1.531,6.273,6.273,0,0,0,2.3.327,6.228,6.228,0,0,0,2.428-.373,4.923,4.923,0,0,0,2.157-1.359c.878-1.153,1.513-3.6,1.611-6.223.089-2.442-.658-4.062-2.278-4.921a6.45,6.45,0,0,0-2.306-.7A16.084,16.084,0,0,0,126.754-447.541Zm3.189,1.419a2.924,2.924,0,0,1,2.344,1.4,3.084,3.084,0,0,1,.238,1.611c-.089,1.629-.724,3.091-1.55,3.576a6.792,6.792,0,0,1-3.221.63,5.442,5.442,0,0,1-3.571-.943,5.175,5.175,0,0,1-1.125-3.035,2.649,2.649,0,0,1,.654-2.423,3.833,3.833,0,0,1,2.063-.831c.219-.028.448-.061.514-.07s.822-.014,1.681-.009A12.887,12.887,0,0,1,129.943-446.122Zm-5.187,7.684c.443.126.64.467.644,1.111,0,.49-.075.7-.327.91a1.2,1.2,0,0,1-.92.215c-.383-.019-.448-.033-.626-.159a.987.987,0,0,1-.406-.92,1.064,1.064,0,0,1,.1-.658.836.836,0,0,1,.523-.49A2.728,2.728,0,0,1,124.756-438.437Zm7.045.009a.812.812,0,0,1,.542.49,1.064,1.064,0,0,1,.1.658.987.987,0,0,1-.406.92c-.177.126-.243.14-.626.159a1.2,1.2,0,0,1-.92-.215c-.252-.21-.327-.42-.327-.91,0-.63.168-.938.593-1.088A2.4,2.4,0,0,1,131.8-438.428Z" transform="translate(-121.6 449.545)" fill="#3f63f5"/>
      <path id="Path_160" data-name="Path 160" d="M132.883-134.59c-.5.77-.948,1.466-.994,1.536l-.089.135h1.816l.229-.49.224-.49h6.872l.224.49.229.49h1.816l-.089-.135a24.084,24.084,0,0,0-1.975-2.927c-.037.014-.257.089-.49.168s-.443.154-.476.163-.014.112.079.322a1.274,1.274,0,0,1,.14.542v.233H134.61v-.233a1.292,1.292,0,0,1,.14-.546,2.137,2.137,0,0,0,.131-.317c-.009,0-.149-.047-.313-.089a4.826,4.826,0,0,1-.5-.173,2.434,2.434,0,0,0-.238-.089C133.807-136,133.383-135.365,132.883-134.59Z" transform="translate(-131.324 151.263)" fill="#3f63f5"/>
    </g>
  </g>
</svg>
