<svg width="44" height="48" viewBox="0 0 44 48" fill="none" xmlns="http://www.w3.org/2000/svg">
<path d="M31.3334 35.6667C31.9523 35.6667 32.5458 35.4208 32.9834 34.9833C33.4209 34.5457 33.6668 33.9522 33.6668 33.3333C33.6782 33.178 33.6782 33.022 33.6668 32.8667C33.6412 32.7205 33.594 32.5789 33.5268 32.4467C33.4757 32.298 33.4051 32.1567 33.3168 32.0267L33.0368 31.6767C32.81 31.4706 32.5495 31.3048 32.2668 31.1867C31.6987 30.9533 31.0615 30.9533 30.4934 31.1867C30.2107 31.3048 29.9502 31.4706 29.7234 31.6767L29.4434 32.0267C29.3551 32.1567 29.2845 32.298 29.2334 32.4467C29.1662 32.5789 29.119 32.7205 29.0934 32.8667C29.082 33.022 29.082 33.178 29.0934 33.3333C29.0934 33.9522 29.3393 34.5457 29.7769 34.9833C30.2144 35.4208 30.8079 35.6667 31.4268 35.6667H31.3334ZM36.0001 0.666672H8.0001C6.14359 0.666672 4.36311 1.40417 3.05035 2.71692C1.7376 4.02968 1.0001 5.81016 1.0001 7.66667V35.6667C1.00372 36.7494 1.25846 37.8166 1.74432 38.7843C2.23017 39.7519 2.93387 40.5937 3.8001 41.2433L1.67677 43.3433C1.45807 43.5603 1.28448 43.8183 1.16602 44.1027C1.04756 44.387 0.986572 44.692 0.986572 45C0.986572 45.308 1.04756 45.613 1.16602 45.8974C1.28448 46.1817 1.45807 46.4398 1.67677 46.6567C1.89368 46.8754 2.15175 47.049 2.43609 47.1674C2.72043 47.2859 3.02541 47.3469 3.33344 47.3469C3.64146 47.3469 3.94644 47.2859 4.23078 47.1674C4.51512 47.049 4.77319 46.8754 4.9901 46.6567L8.95677 42.6667H35.0434L39.0101 46.6567C39.227 46.8754 39.4851 47.049 39.7694 47.1674C40.0538 47.2859 40.3587 47.3469 40.6668 47.3469C40.9748 47.3469 41.2798 47.2859 41.5641 47.1674C41.8485 47.049 42.1065 46.8754 42.3234 46.6567C42.5421 46.4398 42.7157 46.1817 42.8342 45.8974C42.9526 45.613 43.0136 45.308 43.0136 45C43.0136 44.692 42.9526 44.387 42.8342 44.1027C42.7157 43.8183 42.5421 43.5603 42.3234 43.3433L40.2001 41.2433C41.0663 40.5937 41.77 39.7519 42.2559 38.7843C42.7417 37.8166 42.9965 36.7494 43.0001 35.6667V7.66667C43.0001 5.81016 42.2626 4.02968 40.9499 2.71692C39.6371 1.40417 37.8566 0.666672 36.0001 0.666672ZM5.66677 14.6667H19.6668V24H5.66677V14.6667ZM38.3334 35.6667C38.3334 36.2855 38.0876 36.879 37.65 37.3166C37.2124 37.7542 36.6189 38 36.0001 38H8.0001C7.38126 38 6.78777 37.7542 6.35019 37.3166C5.9126 36.879 5.66677 36.2855 5.66677 35.6667V28.6667H38.3334V35.6667ZM38.3334 24H24.3334V14.6667H38.3334V24ZM38.3334 10H5.66677V7.66667C5.66677 7.04783 5.9126 6.45434 6.35019 6.01676C6.78777 5.57917 7.38126 5.33334 8.0001 5.33334H36.0001C36.6189 5.33334 37.2124 5.57917 37.65 6.01676C38.0876 6.45434 38.3334 7.04783 38.3334 7.66667V10ZM12.6668 35.6667C13.2856 35.6667 13.8791 35.4208 14.3167 34.9833C14.7543 34.5457 15.0001 33.9522 15.0001 33.3333C15.0116 33.178 15.0116 33.022 15.0001 32.8667C14.9746 32.7205 14.9274 32.5789 14.8601 32.4467C14.809 32.298 14.7384 32.1567 14.6501 32.0267L14.3701 31.6767C14.1433 31.4706 13.8829 31.3048 13.6001 31.1867C13.032 30.9533 12.3948 30.9533 11.8268 31.1867C11.544 31.3048 11.2836 31.4706 11.0568 31.6767L10.7768 32.0267C10.6885 32.1567 10.6178 32.298 10.5668 32.4467C10.4668 32.5732 10.388 32.715 10.3334 32.8667C10.322 33.022 10.322 33.178 10.3334 33.3333C10.336 33.9455 10.579 34.5321 11.0101 34.9667C11.2262 35.1871 11.4839 35.3625 11.7683 35.4827C12.0527 35.6029 12.3581 35.6654 12.6668 35.6667Z" fill="#DDDDDD" stroke="white" stroke-width="0.8"/>
</svg>
