<svg id="Layer_1" data-name="Layer 1" xmlns="http://www.w3.org/2000/svg" viewBox="0 0 448 512"><defs><style>.cls-1{fill:#e2e5e7;}.cls-2{fill:#b0b7bd;}.cls-3{fill:#cad1d8;}.cls-4{fill:#f15642;}.cls-5{fill:#f7f2f2;}</style></defs><title>doc</title><path class="cls-1" d="M128,0A32.09,32.09,0,0,0,96,32V480a32.09,32.09,0,0,0,32,32H448a32.09,32.09,0,0,0,32-32V128L352,0Z" transform="translate(-32)"/><path class="cls-2" d="M384,128h96L352,0V96A32.09,32.09,0,0,0,384,128Z" transform="translate(-32)"/><polygon class="cls-3" points="448 224 352 128 448 128 448 224"/><path class="cls-4" d="M416,416a16,16,0,0,1-16,16H48a16,16,0,0,1-16-16V256a16,16,0,0,1,16-16H400a16,16,0,0,1,16,16Z" transform="translate(-32)"/><path class="cls-3" d="M400,432H96v16H400a16,16,0,0,0,16-16V416A16,16,0,0,1,400,432Z" transform="translate(-32)"/><path class="cls-5" d="M127.19,290q16.6,0,27.35,10.6t10.75,27.19v15q0,16.67-10.75,27.19T127.19,380.5H86.48V369.62l9.63-1.86v-65l-9.63-1.86V290h40.71Zm-12.93,14v62.59h12q9.77,0,15.29-6.59t5.53-17.22v-15.1q0-10.5-5.53-17.1T126.26,304Z" transform="translate(-32)"/><path class="cls-5" d="M256.91,335.93q0,19.89-11.37,32.88t-29.78,13q-18.33,0-29.61-13t-11.28-32.88v-1.36q0-19.77,11.25-32.82T215.7,288.7q18.41,0,29.81,13.05t11.4,32.82Zm-18.09-1.49q0-14-5.84-22.81t-17.28-8.76q-11.43,0-17.06,8.7T193,334.44v1.49q0,14.31,5.68,23t17.06,8.74q11.51,0,17.28-8.74t5.78-23Z" transform="translate(-32)"/><path class="cls-5" d="M338.34,320.52H324.85L323,308.46a19,19,0,0,0-6.74-4.23,27,27,0,0,0-9.6-1.55q-11.82,0-18.18,8.58t-6.37,22.37v3.17q0,13.8,6.34,22.44t17.9,8.64a29.69,29.69,0,0,0,9.79-1.55A16.35,16.35,0,0,0,323,362.1L324.85,350h13.49v17.9a38.82,38.82,0,0,1-14,10.1,46.28,46.28,0,0,1-19,3.77q-18.21,0-29.83-12.62T263.94,336.8v-3q0-19.71,11.56-32.38t29.89-12.68a45.45,45.45,0,0,1,19,3.82,40.6,40.6,0,0,1,14,10.1Z" transform="translate(-32)"/></svg>