<svg id="Layer_1" data-name="Layer 1" xmlns="http://www.w3.org/2000/svg" viewBox="0 0 448 512"><defs><style>.cls-1{fill:#e2e5e7;}.cls-2{fill:#b0b7bd;}.cls-3{fill:#cad1d8;}.cls-4{fill:#f15642;}.cls-5{fill:#f7f2f2;}</style></defs><title>exl</title><path class="cls-1" d="M128,0A32.09,32.09,0,0,0,96,32V480a32.09,32.09,0,0,0,32,32H448a32.09,32.09,0,0,0,32-32V128L352,0Z" transform="translate(-32)"/><path class="cls-2" d="M384,128h96L352,0V96A32.09,32.09,0,0,0,384,128Z" transform="translate(-32)"/><polygon class="cls-3" points="448 224 352 128 448 128 448 224"/><path class="cls-4" d="M416,416a16,16,0,0,1-16,16H48a16,16,0,0,1-16-16V256a16,16,0,0,1,16-16H400a16,16,0,0,1,16,16Z" transform="translate(-32)"/><path class="cls-3" d="M400,432H96v16H400a16,16,0,0,0,16-16V416A16,16,0,0,1,400,432Z" transform="translate(-32)"/><path class="cls-5" d="M85.05,369.62l7.65-1.49,23.93-33.25L93.32,302.49l-7.59-1.55V290h34.75v10.94l-7.4.81,14,22.19,14.05-22.19-7.28-.81V290h34.87v10.94l-7.58,1.55-23.31,32.39,24.43,33.19,8,1.55V380.5H134.65V369.62l7.21-.74L127.32,346l-14.61,22.88,7.27.74V380.5H85.05Z" transform="translate(-32)"/><path class="cls-5" d="M175.86,380.5V369.62l9.63-1.86v-65l-9.63-1.86V290h37.48v10.94l-9.7,1.86v63.78h25.55l.87-11.38h13.86v25.3Z" transform="translate(-32)"/><path class="cls-5" d="M319.19,318.9H305.58l-2.36-12.43a24.45,24.45,0,0,0-6.9-2.61,40.49,40.49,0,0,0-9.64-1.12q-7.46,0-11.53,3.14a9.8,9.8,0,0,0-4.07,8.11,8.85,8.85,0,0,0,4.26,7.55q4.26,3,14.7,6.25,15,4.17,22.72,11t7.74,18a21.48,21.48,0,0,1-9.2,18.33q-9.19,6.72-24.24,6.72a52.58,52.58,0,0,1-19.43-3.42,40.07,40.07,0,0,1-14.45-9.45V350h14.05l1.93,12.87a22.15,22.15,0,0,0,7.42,3.7,35.3,35.3,0,0,0,10.48,1.46q7.45,0,11.34-3.05a9.82,9.82,0,0,0,3.89-8.14,10.52,10.52,0,0,0-3.7-8.39q-3.7-3.17-13-6-16.1-4.65-24.37-11.06T253,313.93q0-11,9.32-18t23.43-7.18a54.37,54.37,0,0,1,19,3.17,43.81,43.81,0,0,1,14.42,8.45Z" transform="translate(-32)"/></svg>