<svg id="Layer_1" data-name="Layer 1" xmlns="http://www.w3.org/2000/svg" viewBox="0 0 448 512"><defs><style>.cls-1{fill:#e2e5e7;}.cls-2{fill:#b0b7bd;}.cls-3{fill:#cad1d8;}.cls-4{fill:#f15642;}.cls-5{fill:#f7f2f2;}</style></defs><title>img</title><path class="cls-1" d="M128,0A32.09,32.09,0,0,0,96,32V480a32.09,32.09,0,0,0,32,32H448a32.09,32.09,0,0,0,32-32V128L352,0Z" transform="translate(-32)"/><path class="cls-2" d="M384,128h96L352,0V96A32.09,32.09,0,0,0,384,128Z" transform="translate(-32)"/><polygon class="cls-3" points="448 224 352 128 448 128 448 224"/><path class="cls-4" d="M416,416a16,16,0,0,1-16,16H48a16,16,0,0,1-16-16V256a16,16,0,0,1,16-16H400a16,16,0,0,1,16,16Z" transform="translate(-32)"/><path class="cls-3" d="M400,432H96v16H400a16,16,0,0,0,16-16V416A16,16,0,0,1,400,432Z" transform="translate(-32)"/><path class="cls-5" d="M86.42,300.94V290H123.9v10.94l-9.7,1.86v65l9.7,1.86V380.5H86.42V369.62l9.69-1.86v-65Z" transform="translate(-32)"/><path class="cls-5" d="M218.13,313.56l-.38-.06-24.24,67H181.33l-24.12-66.76-.37.07,1.74,39.71v14.24l9.7,1.86V380.5H130.8V369.62l9.63-1.86v-65l-9.63-1.86V290h33.31l23.06,66.69h.38L210.79,290h33.44v10.94l-9.69,1.86v65l9.69,1.86V380.5H206.75V369.62l9.64-1.86V353.52Z" transform="translate(-32)"/><path class="cls-5" d="M325.72,370.43q-4.41,4.35-12.87,7.86t-21.38,3.52q-18.33,0-29.83-12.28t-11.5-31.92V334.5q0-20.33,11.34-33.06T291.1,288.7a53.8,53.8,0,0,1,19.42,3.38,42.05,42.05,0,0,1,14.64,9.17v18.21H311.73l-2.54-12.12a18.48,18.48,0,0,0-6.56-3.38,31.39,31.39,0,0,0-9.36-1.28q-11.86,0-18.46,8.76t-6.59,22.94v3.23q0,13.8,6.47,22t18.65,8.23a34.42,34.42,0,0,0,8.85-.93,19.49,19.49,0,0,0,5.32-2.18V349.42l-12.93-1V335.69h31.14Z" transform="translate(-32)"/></svg>