<svg id="Layer_1" data-name="Layer 1" xmlns="http://www.w3.org/2000/svg" viewBox="0 0 448 512"><defs><style>.cls-1{fill:#e2e5e7;}.cls-2{fill:#b0b7bd;}.cls-3{fill:#cad1d8;}.cls-4{fill:#f15642;}.cls-5{fill:#f7f2f2;}</style></defs><title>txt</title><path class="cls-1" d="M128,0A32.09,32.09,0,0,0,96,32V480a32.09,32.09,0,0,0,32,32H448a32.09,32.09,0,0,0,32-32V128L352,0Z" transform="translate(-32)"/><path class="cls-2" d="M384,128h96L352,0V96A32.09,32.09,0,0,0,384,128Z" transform="translate(-32)"/><polygon class="cls-3" points="448 224 352 128 448 128 448 224"/><path class="cls-4" d="M416,416a16,16,0,0,1-16,16H48a16,16,0,0,1-16-16V256a16,16,0,0,1,16-16H400a16,16,0,0,1,16,16Z" transform="translate(-32)"/><path class="cls-3" d="M400,432H96v16H400a16,16,0,0,0,16-16V416A16,16,0,0,1,400,432Z" transform="translate(-32)"/><path class="cls-5" d="M166.16,290v24.12H152.24L151.5,304H134.84v63.77l9.69,1.86V380.5H107V369.62l9.7-1.86V304h-16.6l-.74,10.13H85.49V290Z" transform="translate(-32)"/><path class="cls-5" d="M170.64,369.62l7.64-1.49,23.93-33.25-23.3-32.39-7.59-1.55V290h34.75v10.94l-7.4.81,14,22.19,14-22.19-7.27-.81V290H254.3v10.94l-7.58,1.55-23.31,32.39,24.43,33.19,8,1.55V380.5H220.24V369.62l7.21-.74L212.91,346,198.3,368.88l7.27.74V380.5H170.64Z" transform="translate(-32)"/><path class="cls-5" d="M341.13,290v24.12H327.21L326.46,304H309.81v63.77l9.69,1.86V380.5H282V369.62l9.7-1.86V304h-16.6l-.74,10.13H260.46V290Z" transform="translate(-32)"/></svg>