<svg xmlns="http://www.w3.org/2000/svg" width="36" height="36" viewBox="0 0 36 36">
    <defs>
        <filter id="1usx5mxtpa" width="166.7%" height="166.7%" x="-33.3%" y="-33.3%" filterUnits="objectBoundingBox">
            <feOffset dy="2" in="SourceAlpha" result="shadowOffsetOuter1"/>
            <feGaussianBlur in="shadowOffsetOuter1" result="shadowBlurOuter1" stdDeviation="2"/>
            <feColorMatrix in="shadowBlurOuter1" result="shadowMatrixOuter1" values="0 0 0 0 0.7127774 0 0 0 0 0.7127774 0 0 0 0 0.7127774 0 0 0 0.5 0"/>
            <feMerge>
                <feMergeNode in="shadowMatrixOuter1"/>
                <feMergeNode in="SourceGraphic"/>
            </feMerge>
        </filter>
    </defs>
    <g fill="none" fill-rule="evenodd">
        <g>
            <g filter="url(#1usx5mxtpa)" transform="translate(-594 -739) translate(594 739)">
                <path fill="#4E6FA9" d="M18 0C8.06 0 0 8.058 0 18c0 9.94 8.06 18 18 18 9.942 0 18-8.06 18-18 0-9.942-8.058-18-18-18z"/>
                <path fill="#FFF" d="M22.674 11.988l-1.694.001c-1.329 0-1.586.631-1.586 1.557v2.043h3.169l-.413 3.2h-2.756V27H16.09v-8.21h-2.763v-3.2h2.763v-2.36c0-2.74 1.673-4.23 4.115-4.23 1.17 0 2.176.087 2.47.126v2.862z"/>
            </g>
        </g>
    </g>
</svg>
