<svg xmlns="http://www.w3.org/2000/svg" xmlns:xlink="http://www.w3.org/1999/xlink" width="82" height="49" viewBox="0 0 82 49">
    <defs>
        <rect id="1krw8yanra" width="81.65" height="48.3" x="0" y=".001" rx="13.8"/>
    </defs>
    <g fill="none" fill-rule="evenodd">
        <mask id="8feb8h39sb" fill="#fff">
            <use xlink:href="#1krw8yanra"/>
        </mask>
        <use fill="#FFF" xlink:href="#1krw8yanra"/>
        <g stroke-width=".736" mask="url(#8feb8h39sb)">
            <g>
                <path fill="#F0ECE3" stroke="#CCC4B8" d="M45.116 25.433H68.557V48.873999999999995H45.116z" transform="translate(-33.35 -52.9) rotate(45 56.837 37.154)"/>
                <path fill="#F0ECE3" stroke="#CCC4B8" d="M84.483 25.433H107.924V48.873999999999995H84.483z" transform="translate(-33.35 -52.9) rotate(45 96.203 37.154)"/>
                <path fill="#CBBA92" stroke="#988B6C" d="M64.8 45.116H88.241V68.557H64.8z" transform="translate(-33.35 -52.9) rotate(45 76.52 56.837)"/>
                <path fill="#F0ECE3" stroke="#CCC4B8" d="M104.166 45.116H127.607V68.557H104.166z" transform="translate(-33.35 -52.9) rotate(45 115.887 56.837)"/>
                <path fill="#AECFB3" stroke="#81A987" d="M84.483 64.8H107.924V88.241H84.483z" transform="translate(-33.35 -52.9) rotate(45 96.203 76.52)"/>
                <path fill="#F0ECE3" stroke="#CCC4B8" d="M104.166 84.483H127.607V107.924H104.166z" transform="translate(-33.35 -52.9) rotate(45 115.887 96.203)"/>
                <path fill="#F0ECE3" stroke="#CCC4B8" d="M25.433 45.116H48.873999999999995V68.557H25.433z" transform="translate(-33.35 -52.9) rotate(45 37.154 56.837)"/>
                <path fill="#F0ECE3" stroke="#CCC4B8" d="M45.116 64.8H68.557V88.241H45.116z" transform="translate(-33.35 -52.9) rotate(45 56.837 76.52)"/>
                <path fill="#F0ECE3" stroke="#CCC4B8" d="M64.8 84.483H88.241V107.924H64.8z" transform="translate(-33.35 -52.9) rotate(45 76.52 96.203)"/>
                <path fill="#F0ECE3" stroke="#CCC4B8" d="M84.483 104.166H107.924V127.607H84.483z" transform="translate(-33.35 -52.9) rotate(45 96.203 115.887)"/>
                <path fill="#F0ECE3" stroke="#CCC4B8" d="M5.75 64.8H29.191V88.241H5.75z" transform="translate(-33.35 -52.9) rotate(45 17.47 76.52)"/>
                <path fill="#88DBF1" stroke="#72B8CB" d="M25.433 84.483H48.873999999999995V107.924H25.433z" transform="translate(-33.35 -52.9) rotate(45 37.154 96.203)"/>
                <path fill="#F0ECE3" stroke="#CCC4B8" d="M45.116 104.166H68.557V127.607H45.116z" transform="translate(-33.35 -52.9) rotate(45 56.837 115.887)"/>
            </g>
        </g>
        <circle cx="43.125" cy="24.725" r="5.175" fill="#FFF" mask="url(#8feb8h39sb)"/>
        <g mask="url(#8feb8h39sb)">
            <g>
                <path fill="#2B2B2B" d="M28.267 14.03c4.852 0 5.678 1.697 1.843 3.79-4.405 2.404-20.806 6.56-20.806 6.56l-.048-.361c-.103-1.085-.104-4.352 3.28-6.2 3.835-2.092 10.878-3.789 15.73-3.789zm-4.397 2.3c-2.269 0-5.548.772-7.323 1.725-1.776.953-1.377 1.725.893 1.725 2.269 0 5.548-.772 7.323-1.725 1.776-.953 1.376-1.725-.893-1.725z" opacity=".2" transform="translate(33.005 15.87)"/>
                <path fill="#FA3456" d="M8.97 0c4.954 0 8.97 4.035 8.97 9.011 0 5.717-8.97 15.599-8.97 15.599S0 14.333 0 9.011C0 4.035 4.016 0 8.97 0zm0 4.743c-2.144 0-3.882 1.746-3.882 3.9 0 2.153 1.738 3.9 3.882 3.9s3.882-1.747 3.882-3.9c0-2.154-1.738-3.9-3.882-3.9z" transform="translate(33.005 15.87)"/>
            </g>
        </g>
    </g>
</svg>
