<svg xmlns="http://www.w3.org/2000/svg" width="36" height="36" viewBox="0 0 36 36">
    <defs>
        <filter id="3ai3k5aeoa" width="166.7%" height="166.7%" x="-33.3%" y="-33.3%" filterUnits="objectBoundingBox">
            <feOffset dy="2" in="SourceAlpha" result="shadowOffsetOuter1"/>
            <feGaussianBlur in="shadowOffsetOuter1" result="shadowBlurOuter1" stdDeviation="2"/>
            <feColorMatrix in="shadowBlurOuter1" result="shadowMatrixOuter1" values="0 0 0 0 0.7127774 0 0 0 0 0.7127774 0 0 0 0 0.7127774 0 0 0 0.5 0"/>
            <feMerge>
                <feMergeNode in="shadowMatrixOuter1"/>
                <feMergeNode in="SourceGraphic"/>
            </feMerge>
        </filter>
    </defs>
    <g fill="none" fill-rule="evenodd">
        <g>
            <g filter="url(#3ai3k5aeoa)" transform="translate(-646 -739) translate(646 739)">
                <path fill="#4FAAEF" d="M18 0C8.058 0 0 8.058 0 18c0 9.94 8.058 18 18 18s18-8.06 18-18c0-9.942-8.058-18-18-18"/>
                <path fill="#FFF" d="M25.157 14.33c.007.158.012.316.012.477 0 4.88-3.715 10.507-10.508 10.507-2.086 0-4.026-.611-5.661-1.659.29.034.583.051.88.051 1.731 0 3.323-.59 4.587-1.58-1.616-.03-2.98-1.098-3.45-2.565.226.043.457.066.695.066.337 0 .663-.045.973-.13-1.69-.338-2.962-1.831-2.962-3.62v-.047c.498.277 1.068.443 1.673.462-.99-.662-1.643-1.793-1.643-3.073 0-.678.182-1.312.5-1.858 1.822 2.235 4.543 3.705 7.612 3.86-.063-.27-.096-.553-.096-.842 0-2.04 1.654-3.694 3.693-3.694 1.063 0 2.022.45 2.695 1.167.842-.165 1.633-.473 2.346-.896-.276.862-.862 1.585-1.624 2.043.747-.09 1.458-.288 2.121-.581-.495.74-1.122 1.39-1.843 1.911"/>
            </g>
        </g>
    </g>
</svg>
