<svg xmlns="http://www.w3.org/2000/svg" width="84.387" height="77.354" viewBox="0 0 84.387 77.354">
  <path id="iconmonstr-speech-bubble-10" d="M42.194,8.032c19.388,0,35.161,12.222,35.161,27.239S61.6,62.515,42.243,62.515c-2.18,0-3.84-.162-6.185-.341-3.516,2.729-6.238,4.933-12.254,6.9.914-4.863-.4-7.943-1.807-11.459C13.618,52.321,7.032,45.62,7.032,35.272c0-15.017,15.773-27.239,35.161-27.239Zm0-7.032C18.892,1,0,16.341,0,35.272c0,11.005,6.385,20.8,16.318,27.071,3.048,7.619-3.811,14.093-11.051,15.83,10.847.935,23.825-1.691,32.96-8.78,24.894,1.9,46.16-14.022,46.16-34.121C84.387,16.341,65.495,1,42.194,1Z" transform="translate(0 -1)" fill="#fff"/>
</svg>
