<svg xmlns="http://www.w3.org/2000/svg" width="29.205" height="30.676" viewBox="0 0 29.205 30.676">
  <g id="close_1_" data-name="close (1)" transform="translate(0 -0.001)">
    <path id="Path_1" data-name="Path 1" d="M17.186,15.339,28.67,3.276a1.986,1.986,0,0,0,0-2.713,1.764,1.764,0,0,0-2.583,0L14.6,12.627,3.118.563a1.764,1.764,0,0,0-2.583,0,1.986,1.986,0,0,0,0,2.713L12.02,15.339.535,27.4a1.986,1.986,0,0,0,0,2.713,1.765,1.765,0,0,0,2.583,0L14.6,18.051,26.088,30.115a1.764,1.764,0,0,0,2.583,0,1.986,1.986,0,0,0,0-2.713Z" transform="translate(0 0)" fill="#f2f0f0"/>
  </g>
</svg>
