<?xml version="1.0" encoding="utf-8"?>
<!-- Generator: Adobe Illustrator 26.0.3, SVG Export Plug-In . SVG Version: 6.00 Build 0)  -->
<svg version="1.1" id="Layer_1" xmlns="http://www.w3.org/2000/svg" xmlns:xlink="http://www.w3.org/1999/xlink" x="0px" y="0px"
	 viewBox="0 0 43.55 43.55" style="enable-background:new 0 0 43.55 43.55;" xml:space="preserve">
<style type="text/css">
	.st0{fill:#46443F;}
	.st1{fill:#FFFFFF;}
	.st2{fill:#FFF200;}
</style>
<g>
	<path class="st0" d="M21.85,43.55c12.67,0,21.7-9.03,21.7-21.7C43.55,9.03,34.52,0,21.85,0C9.03,0,0,9.03,0,21.85
		C0,34.52,9.03,43.55,21.85,43.55z"/>
	<path class="st1" d="M13.21,21.88c0-2.78-1.74-4.71-4.77-4.71c-3,0-4.96,1.61-4.99,4.87l-0.03,3c-0.03,3.04,1.9,4.9,5.02,4.9
		c2.62,0,4.96-1.39,4.83-4.9h-3.16c0,1.45-0.66,2.05-1.68,2.05c-1.01,0-1.71-0.66-1.71-1.74v-3.64c0-0.95,0.51-1.71,1.71-1.71
		c1.14,0,1.68,0.73,1.68,1.86H13.21z"/>
	<path class="st2" d="M28.04,18.02c-0.79,0-1.27,0.28-1.64,0.95l-2.43,4.21l-3.45-4.05c-0.54-0.63-1.04-1.3-1.04-2.15
		c0-0.79,0.44-1.36,1.39-1.36c0.92,0,1.52,0.57,1.52,1.55h3.1c0.06-1.64-1.01-4.33-4.58-4.33c-2.94,0-4.74,1.68-4.74,4.11
		c0,1.17,0.38,2.15,1.17,3.07l5,5.91c-0.54,0.7-1.21,1.17-2.35,1.17c-1.52,0-2.4-0.98-2.4-2.37c0-0.73,0.32-1.39,0.89-1.83
		l-2.15-2.53c-1.33,1.01-2.15,2.34-2.15,4.23c0,3.06,2.21,5.34,5.78,5.34c1.95,0,3.25-0.64,4.31-1.73l1.26,1.48h3.98l-3.44-4.04
		l2.49-4.3c0.25-0.44,0.41-0.57,1.01-0.57h2.4c0.76,0,1.11-0.22,1.26-0.92l0.38-1.83H28.04z"/>
	<path class="st1" d="M40.04,21.09c-0.06-1.96-1.55-3.92-4.17-3.92c-0.35,0-0.73,0.03-1.07,0.16l-0.79,3.07
		c0.35-0.19,0.73-0.32,1.23-0.32c0.88,0,1.55,0.66,1.55,1.58l-0.03,3.51c0,0.98-0.51,1.87-1.64,1.87c-1.36,0-1.77-0.95-1.77-1.99
		v-3.03c0-0.16,0.03-0.25,0.03-0.47c-0.28,0.16-0.63,0.19-0.98,0.19h-2.4v7.96h3.03l0.16-0.82c0.6,0.63,1.71,1.07,2.81,1.07
		c2.18,0,3.82-1.36,3.98-3.63C40.1,24.53,40.08,22.76,40.04,21.09z"/>
	<rect x="29.99" y="12.87" class="st1" width="3.35" height="4.2"/>
</g>
</svg>
