<svg id="Component_2_1" data-name="Component 2 – 1" xmlns="http://www.w3.org/2000/svg" width="69" height="69" viewBox="0 0 69 69">
  <circle id="Ellipse_1" data-name="Ellipse 1" cx="34.5" cy="34.5" r="34.5"/>
  <path id="iconmonstr-microphone-thin" d="M23.474,40.306H10.038V38.626h5.878V33.558A11.762,11.762,0,0,1,5,21.832V18.474H6.679v3.376a10.076,10.076,0,0,0,20.153-.017V18.474h1.679v3.359A11.762,11.762,0,0,1,17.6,33.558v5.068h5.878ZM8.359,8.4a8.4,8.4,0,0,1,16.794,0V21.832a8.4,8.4,0,0,1-16.794,0Zm15.115,0a6.718,6.718,0,1,0-13.435,0V21.832a6.718,6.718,0,0,0,13.435,0Z" transform="translate(18 14)" fill="#fff" fill-rule="evenodd"/>
</svg>
