<svg xmlns="http://www.w3.org/2000/svg" width="24" height="24" viewBox="0 0 24 24"><g transform="translate(-642 -1675)"><g transform="translate(642 1675)"><path d="M0,0H24V24H0Z" fill="none"/><path d="M20,2H4A2,2,0,0,0,2.01,4L2,22l4-4H20a2.006,2.006,0,0,0,2-2V4A2.006,2.006,0,0,0,20,2ZM14,14H11a1,1,0,0,1,0-2h3a1,1,0,0,1,0,2Zm3-3H11a1,1,0,0,1,0-2h6a1,1,0,0,1,0,2Zm0-3H11a1,1,0,0,1,0-2h6a1,1,0,0,1,0,2Z" fill="#f7c02c"/></g><path d="M24.985,9.209a6.447,6.447,0,0,1-1.914,4.584l-.807-.856a5.239,5.239,0,0,0,1.511-3.728,5.239,5.239,0,0,0-1.511-3.728l.806-.856a6.448,6.448,0,0,1,1.914,4.584m-2.821,0a3.627,3.627,0,0,1-1.058,2.569l-.856-.856a2.432,2.432,0,0,0,0-3.425l.856-.856a3.627,3.627,0,0,1,1.058,2.569" transform="translate(625.75 1675.276)" fill="#12485e"/></g></svg>