<?xml version="1.0" encoding="utf-8"?>
<!-- Generator: Adobe Illustrator 19.2.1, SVG Export Plug-In . SVG Version: 6.00 Build 0)  -->
<svg version="1.1" id="Layer_1" xmlns="http://www.w3.org/2000/svg" xmlns:xlink="http://www.w3.org/1999/xlink" x="0px" y="0px"
	 viewBox="0 0 960 560" style="enable-background:new 0 0 960 560;" xml:space="preserve">
<style type="text/css">
	#big_circle{opacity:0.5;fill:#66AAD7;}
	#mid_circle{opacity:0.5;fill:#C2DDEF;}
	#small_circle{opacity:0.5;fill:#58d7f6;}
	.st3{fill:#10b4dd;}
	.st5{fill:#e1edf9;}
	.st6{fill:#66AAD7;}
	#microphone {
		transform: scale(0.7);
	}
	#big_circle{animation: big_expanding 3s ease-in-out infinite;}
	#mid_circle{animation: mid_expanding 3s ease-in-out infinite;}
	#small_circle{animation: small_expanding 3s ease-in-out infinite;}
	#base {animation: base_contract 3s ease-in-out infinite;}
	#small_circle, #mid_circle, #big_circle, #head, #stand, #connector, #base, #microphone{transform-origin: 50% 50%;}

	#button {
		cursor: pointer;
	}

	#button:hover #big_circle, #button:hover #small_circle, #button:hover #mid_circle, #button:hover #base {
		fill: red;
	}

	#button:hover #base {
		fill: #ee0000;
	}
	
	@keyframes big_expanding {
		25% {
			transform: scale(1.3)
		}
		50% {
			transform: scale(1.2)
		}
		75% {
			transform: scale(1.3)
		}
		100% {
			transform: scale(1)
		}
	}

	@keyframes mid_expanding {
		25% {
			transform: scale(2)
		}
		50% {
			transform: scale(1.8)
		}
		75% {
			transform: scale(2)
		}
		100% {
			transform: scale(1)
		}
	}

	@keyframes small_expanding {
		25% {
			transform: scale(2.8)
		}
		50% {
			transform: scale(2.5)
		}
		75% {
			transform: scale(2.8)
		}
		100% {
			transform: scale(1)
		}
	}

	@keyframes base_contract {
		50% {
			transform: scale(0.9)
		}
	}
</style>
<g id="button">
	<g id="Circles">
		<path id="big_circle" class="st0" d="M600,280c0,52.9-34.2,97.8-81.8,113.8c-12,4-24.9,6.2-38.2,6.2c-66.3,0-120-53.7-120-120
			s53.7-120,120-120c44.4,0,83.1,24.1,103.9,59.9C594.1,237.6,600,258.1,600,280z"/>
		<path id="mid_circle" class="st1" d="M576,280.2c0,42.3-27.4,78.3-65.4,91c-9.6,3.2-19.9,5-30.6,5c-53,0-96-43-96-96s43-96,96-96
			c35.5,0,66.5,19.3,83.1,47.9C571.3,246.3,576,262.7,576,280.2z"/>
		<path id="small_circle" class="st2" d="M556.8,280.3c0,33.9-21.9,62.6-52.3,72.8c-7.7,2.6-15.9,4-24.5,4
			c-42.4,0-76.8-34.4-76.8-76.8c0-42.4,34.4-76.8,76.8-76.8c28.4,0,53.2,15.4,66.5,38.4C553,253.2,556.8,266.3,556.8,280.3z"/>
	</g>
	<g id="Mic">
		<path id="base" class="st3" d="M608.9,280c0,56.8-36.8,105.1-87.9,122.3c-12.9,4.3-26.7,6.7-41.1,6.7
			c-71.2,0-128.9-57.7-128.9-128.9S408.8,151.1,480,151.1c47.7,0,89.3,25.9,111.6,64.4C602.6,234.4,608.9,256.5,608.9,280z"/>
		<g id="microphone">
			<path id="stand" class="st5" d="M480,387.3c-40.3,0-73-32.8-73-73c0-1.9,1.6-3.5,3.5-3.5s3.5,1.6,3.5,3.5c0,36.4,29.6,66,66,66
			s66-29.6,66-66c0-1.9,1.6-3.5,3.5-3.5s3.5,1.6,3.5,3.5C553,354.5,520.3,387.3,480,387.3z"/>
		<g id="head">
			<path class="st5" d="M522.7,214.2c-1.2-9.8-5.4-18.5-12-25.2c-3.4-3.4-7.3-6.3-11.7-8.4c-2.4-1.2-4.9-2.1-7.6-2.8
				c-3.3-0.9-6.7-1.5-10.2-1.6c-0.3,0-0.6-0.1-0.9-0.1H480c-23.9,0-43,19.8-43,43.7v90.8c0,24,19,43.5,43,43.5s43-19.5,43-43.5v-90.8
				C523,217.8,522.9,216,522.7,214.2z M516,310.5c0,20.1-15.9,36.5-36,36.5s-36-16.4-36-36.5v-90.8c0-20,16-36.7,36-36.7h0.2
				c9.7,0,18.6,3.9,25.4,10.8c6.9,6.9,10.3,16.2,10.3,25.9V310.5z"/>
		</g>
		</g>
	</g>
</g>
</svg>
