<svg xmlns="http://www.w3.org/2000/svg" width="170.506" height="159.39" viewBox="0 0 170.506 159.39"><g transform="translate(-20281.408 -15391.554)"><path d="M243.864,373.021a12.274,12.274,0,0,0,11.036,6.823h0a12.275,12.275,0,0,0,11.039-6.822l9.873-19.745h35.621a28.753,28.753,0,0,0,28.721-28.721V249.175a28.753,28.753,0,0,0-28.721-28.721H198.371a28.753,28.753,0,0,0-28.721,28.721v75.381a28.753,28.753,0,0,0,28.721,28.721h35.622Zm-11.651-86.155a9.875,9.875,0,1,1-9.883-9.873h.01A9.873,9.873,0,0,1,232.213,286.866Zm55.292,9.873a9.873,9.873,0,0,1-.01-19.746h.01a9.873,9.873,0,1,1,0,19.746Zm-32.582,0a9.873,9.873,0,0,1-.01-19.746h.01a9.873,9.873,0,0,1,0,19.746Z" transform="translate(20111.758 15171.1)" fill="#f5f5fc"/></g></svg>