<svg xmlns="http://www.w3.org/2000/svg" width="227.875" height="200.52" viewBox="0 0 227.875 200.52"><g transform="translate(-20232.041 -15366.554)"><path d="M212.243,308.015a7.044,7.044,0,0,0,6.334,3.916h0a7.045,7.045,0,0,0,6.335-3.915l5.666-11.332h20.443A16.5,16.5,0,0,0,267.507,280.2V236.937a16.5,16.5,0,0,0-16.483-16.483H186.133a16.5,16.5,0,0,0-16.483,16.483V280.2a16.5,16.5,0,0,0,16.483,16.483h20.444Zm-6.687-49.446a5.668,5.668,0,1,1-5.672-5.666h.006A5.666,5.666,0,0,1,205.556,258.569Zm31.733,5.666a5.666,5.666,0,0,1-.006-11.333h.006a5.666,5.666,0,1,1,0,11.333Zm-18.7,0a5.666,5.666,0,0,1-.006-11.333h.006a5.666,5.666,0,0,1,0,11.333Z" transform="translate(20192.408 15146.1)" fill="#f5f5fc"/><path d="M131.129,94.268c12.488,0,22.611,9.585,22.611,21.408v7.136c0,28.137-28.03,57.088-75.37,57.088S3,150.949,3,122.812v-7.136c0-11.823,10.123-21.408,22.611-21.408ZM78.37,1.5c22.894,0,41.454,17.572,41.454,39.248S101.264,80,78.37,80,36.917,62.424,36.917,40.748,55.476,1.5,78.37,1.5Z" transform="translate(20229.041 15387.173)" fill="#f5f5fc"/></g></svg>