<?xml version="1.0" encoding="utf-8"?>
<!-- Generator: Adobe Illustrator 19.2.1, SVG Export Plug-In . SVG Version: 6.00 Build 0)  -->
<svg version="1.1" id="Layer_1" xmlns="http://www.w3.org/2000/svg" xmlns:xlink="http://www.w3.org/1999/xlink" x="0px" y="0px"
	 viewBox="0 0 513.7 61.6" style="enable-background:new 0 0 513.7 61.6;" xml:space="preserve">
<style type="text/css">
	.st0{fill:#FFFFFF;}
  #first {
		animation: growjump 2s infinite;
		transform-origin: 85% 75%;
		}
		
		#second {
			animation: growjump 2s 0.5s infinite;
			transform-origin: 90% 75%;
		}

		#third {
			animation: growjump 2s 1s infinite;
			transform-origin: 95% 75%;
		}

		@keyframes growjump {
			0%,
			70%,
			100% {
				transform: scale(1) translateY(0px);
				opacity: 1;
			}
			35% {
				transform: scale(1.5) translateY(0px);
				opacity: 0.8;
			}
			85% {
				transform: scale(1) translateY(-30px);
				opacity: 1;
			}
		}
</style>
<title>thinking</title>
<g>
	<!-- <path class="st0" d="M0,3c4.1-0.6,8.3-0.9,12.4-0.9c8.4,0,14.4,1.9,18.3,5.6s6.4,8.9,6.4,16.2s-2.3,13.4-6.5,17.6S19.4,48,10.6,48
		C7,48,3.5,47.8,0,47.5V3L0,3z M5.8,43c2,0.3,3.9,0.4,5.9,0.3c12.5,0,19.3-7,19.3-19.2c0-10.6-6-17.4-18.3-17.4
		c-2.3,0-4.6,0.2-6.8,0.6L5.8,43L5.8,43z"/>
	<path class="st0" d="M51,6c0,2-1.6,3.6-3.7,3.6c-2,0-3.6-1.6-3.6-3.6c-0.1-2,1.5-3.6,3.5-3.7c0,0,0,0,0,0h0.2
		c1.9,0,3.5,1.5,3.6,3.4V6z M44.5,47.6V15.1h5.9v32.5H44.5z"/>
	<path class="st0" d="M60.1,0H66v47.6h-5.9V0z"/>
	<path class="st0" d="M82.6,6c0,2-1.6,3.7-3.7,3.7S75.3,8,75.3,6c-0.1-2,1.5-3.6,3.5-3.7c0,0,0,0,0,0H79c1.9-0.1,3.5,1.3,3.6,3.2
		c0,0.1,0,0.1,0,0.2V6z M76,47.6V15.1h5.9v32.5H76z"/>
	<path class="st0" d="M91.7,25.8c0-4.2-0.1-7.5-0.3-10.6h5.3l0.3,5.6h0.1c2.4-4.1,6.8-6.5,11.5-6.3c7.9,0,13.8,6.6,13.8,16.5
		c0,11.7-7.1,17.4-14.8,17.4c-4,0.2-7.8-1.8-10-5.1h-0.1v17.6h-5.8V25.8z M97.5,34.4c0,0.8,0.1,1.6,0.3,2.4c1,4.1,4.7,6.9,8.9,6.9
		c6.2,0,9.9-5.1,9.9-12.5c0-6.5-3.4-12.1-9.7-12.1c-4.3,0.1-8,3.1-8.9,7.3c-0.2,0.8-0.4,1.6-0.4,2.4L97.5,34.4
		C97.5,34.4,97.5,34.4,97.5,34.4z"/>
	<path class="st0" d="M150.6,6c0,2-1.6,3.7-3.6,3.7c-2,0-3.7-1.6-3.7-3.7c-0.1-2,1.5-3.6,3.5-3.7c0,0,0,0,0,0h0.2
		c1.9-0.1,3.5,1.3,3.6,3.2c0,0.1,0,0.1,0,0.2V6z M144,47.6V15.1h5.9v32.5H144z"/>
	<path class="st0" d="M158.9,41.6c2.3,1.5,5,2.3,7.8,2.4c4.3,0,6.3-2.1,6.3-4.8s-1.7-4.4-6-6c-5.8-2.1-8.6-5.3-8.6-9.2
		c0-5.2,4.2-9.5,11.2-9.5c2.8,0,5.5,0.7,8,2l-1.5,4.3c-2-1.2-4.3-1.9-6.6-1.9c-3.5,0-5.4,2-5.4,4.4c0,2.7,1.9,3.9,6.2,5.5
		c5.6,2.1,8.5,5,8.5,9.8c0,5.7-4.4,9.7-12.1,9.7c-3.2,0.1-6.3-0.7-9.1-2.2L158.9,41.6z"/> -->
	<path class="st0" d="M207.6,5.8v9.3h8.5v4.5h-8.5v17.5c0,4,1.1,6.3,4.4,6.3c1.1,0,2.3-0.1,3.4-0.4l0.3,4.4
		c-1.7,0.6-3.4,0.9-5.2,0.8c-2.4,0.1-4.7-0.8-6.4-2.5c-1.7-1.7-2.3-4.6-2.3-8.4V19.6h-5v-4.5h5V7.4L207.6,5.8z"/>
	<path class="st0" d="M222.7,0h5.9v20.3h0.1c1-1.7,2.5-3.2,4.2-4.2c1.8-1.1,3.9-1.7,6-1.7c4.4,0,11.3,2.7,11.3,13.9v19.3h-5.9V29
		c0-5.2-1.9-9.7-7.5-9.7c-3.6,0.1-6.8,2.4-7.9,5.9c-0.3,0.9-0.5,1.8-0.4,2.8v19.6h-5.9L222.7,0L222.7,0z"/>
	<path class="st0" d="M266.5,6c0,2-1.7,3.7-3.7,3.7c-2,0-3.7-1.7-3.7-3.7l0,0c-0.1-2,1.5-3.6,3.5-3.7c0,0,0,0,0,0h0.2
		c1.9-0.1,3.5,1.3,3.6,3.2c0,0.1,0,0.1,0,0.2C266.5,5.8,266.5,5.9,266.5,6z M259.9,47.6V15.1h5.9v32.5H259.9z"/>
	<path class="st0" d="M275.6,23.9c0-3.4-0.1-6.1-0.3-8.8h5.2l0.3,5.4h0.1c2.2-3.9,6.3-6.2,10.7-6.1c4.5,0,11.5,2.7,11.5,13.8v19.4
		h-5.9V28.9c0-5.2-2-9.6-7.5-9.6c-3.7,0.1-6.9,2.5-7.9,6c-0.3,0.9-0.4,1.9-0.4,2.8v19.5h-5.9L275.6,23.9L275.6,23.9L275.6,23.9z"/>
	<path class="st0" d="M318.7,30h0.2c0.9-1.3,1.9-2.5,2.9-3.7l9.5-11.2h7.1l-12.5,13.4l14.3,19.1H333L321.8,32l-3,3.4v12.2h-5.9V0
		h5.8L318.7,30L318.7,30L318.7,30z"/>
	<path class="st0" d="M352,6c0,2-1.7,3.7-3.7,3.7c-2,0-3.7-1.7-3.7-3.7l0,0c-0.1-2,1.5-3.6,3.5-3.7c0,0,0,0,0,0h0.2
		c1.9-0.1,3.5,1.3,3.6,3.2c0,0.1,0,0.1,0,0.2C352,5.8,352,5.9,352,6z M345.4,47.6V15.1h5.9v32.5H345.4z"/>
	<path class="st0" d="M361.1,23.9c0-3.4-0.1-6.1-0.3-8.8h5.2l0.3,5.4h0.1c2.2-3.9,6.3-6.2,10.7-6.1c4.5,0,11.5,2.7,11.5,13.8v19.4
		h-5.9V28.9c0-5.2-2-9.6-7.5-9.6c-3.7,0.1-6.9,2.5-7.9,6c-0.3,0.9-0.4,1.9-0.4,2.8v19.5H361L361.1,23.9
		C361.1,23.9,361.1,23.9,361.1,23.9z"/>
	<path class="st0" d="M426.3,15.1c-0.1,2.4-0.3,5-0.3,8.9v18.8c0,7.4-1.5,12-4.6,14.8s-7.7,3.9-11.8,3.9c-3.9,0-8.2-0.9-10.8-2.7
		l1.5-4.5c2.9,1.7,6.2,2.6,9.5,2.6c6,0,10.5-3.1,10.5-11.3V42h-0.1c-2.2,3.5-6.1,5.6-10.3,5.4c-8,0-13.8-6.8-13.8-15.8
		c0-11,7.2-17.2,14.6-17.2c5.6,0,8.7,3,10.1,5.6h0.1l0.3-4.9L426.3,15.1L426.3,15.1z M420.2,28c0.2-4.7-3.5-8.7-8.2-8.9
		c0,0-0.1,0-0.1,0h-0.2c-5.6,0-9.7,4.8-9.7,12.3c0,6.4,3.2,11.7,9.6,11.7c3.7,0,7-2.4,8.2-6c0.3-1,0.5-2,0.5-3.1v-6H420.2z"/>
	<path id="first" class="st0" d="M437.2,43c-0.2-2.6,1.7-4.8,4.3-5h0.4c2.6,0,4.7,2,4.7,4.6c0,0.1,0,0.3,0,0.4
		c0.2,2.6-1.7,4.9-4.3,5.1s-4.9-1.7-5.1-4.3c0,0,0-0.1,0-0.1C437.1,43.4,437.1,43.2,437.2,43z"/>
	<path id="second" class="st0" d="M458.2,43c-0.2-2.6,1.7-4.8,4.3-5h0.4c2.6,0,4.7,2,4.7,4.6c0,0.1,0,0.3,0,0.4
		c0.2,2.6-1.7,4.9-4.3,5.1s-4.9-1.7-5.1-4.3c0,0,0-0.1,0-0.1V43z"/>
	<path id="third" class="st0" d="M479.3,43c-0.2-2.6,1.7-4.8,4.3-5h0.4c2.6,0,4.7,2,4.7,4.6c0,0.1,0,0.3,0,0.4
		c0.2,2.6-1.7,4.9-4.3,5.1s-4.9-1.7-5.1-4.3c0,0,0-0.1,0-0.1L479.3,43L479.3,43z"/>
</g>
</svg>
