<?xml version="1.0" encoding="utf-8"?>
<!-- Generator: Adobe Illustrator 19.2.1, SVG Export Plug-In . SVG Version: 6.00 Build 0)  -->
<svg version="1.1" id="Layer_1" xmlns="http://www.w3.org/2000/svg" xmlns:xlink="http://www.w3.org/1999/xlink" x="0px" y="0px"
	 viewBox="0 0 126.7 126.7" style="enable-background:new 0 0 126.7 126.7;" xml:space="preserve">
<style type="text/css">
	.st0{fill:#808285;}
	.st1{fill:url(#SVGID_1_);}
	.st2{fill:url(#SVGID_2_);}
	.st3{fill:#FFFFFF;fill-opacity:0;}
	.st4{opacity:6.000000e-002;fill:#F7F7F7;enable-background:new    ;}
	.st5{opacity:0.13;fill:#EFEFF0;enable-background:new    ;}
	.st6{opacity:0.19;fill:#E7E8E8;enable-background:new    ;}
	.st7{opacity:0.25;fill:#DFE0E1;enable-background:new    ;}
	.st8{opacity:0.31;fill:#D7D8D9;enable-background:new    ;}
	.st9{opacity:0.38;fill:#CFD0D1;enable-background:new    ;}
	.st10{opacity:0.44;fill:#C7C8CA;enable-background:new    ;}
	.st11{opacity:0.5;fill:#C0C1C2;enable-background:new    ;}
	.st12{opacity:0.56;fill:#B8B9BA;enable-background:new    ;}
	.st13{opacity:0.63;fill:#B0B1B3;enable-background:new    ;}
	.st14{opacity:0.69;fill:#A8A9AB;enable-background:new    ;}
	.st15{opacity:0.75;fill:#A0A1A4;enable-background:new    ;}
	.st16{opacity:0.81;fill:#98999C;enable-background:new    ;}
	.st17{opacity:0.88;fill:#909294;enable-background:new    ;}
	.st18{opacity:0.94;fill:#888A8D;enable-background:new    ;}
	.st19{fill:url(#SVGID_3_);}
	.st20{fill:url(#SVGID_4_);}
	.st21{opacity:0.31;}
	.st22{fill:#FFFFFF;}
</style>
<title>cashback</title>
<g>
	<g id="symbol_buttons">
		<g>
			<g>
				<g>
					<path class="st0" d="M63.4,125.9c-34.6,0-62.6-28-62.6-62.6s28-62.6,62.6-62.6s62.6,28,62.6,62.6l0,0
						C125.9,97.9,97.9,125.9,63.4,125.9z"/>
				</g>
				
					<linearGradient id="SVGID_1_" gradientUnits="userSpaceOnUse" x1="804.96" y1="1568.63" x2="931.76" y2="1568.63" gradientTransform="matrix(1 0 0 1 -804.96 -1505.28)">
					<stop  offset="0" style="stop-color:#FFFFFF"/>
					<stop  offset="1" style="stop-color:#D1D3D4"/>
				</linearGradient>
				<path class="st1" d="M63.4,126.7C28.4,126.7,0,98.4,0,63.4S28.4,0,63.4,0s63.4,28.4,63.4,63.4l0,0
					C126.7,98.3,98.3,126.7,63.4,126.7z"/>
				
					<linearGradient id="SVGID_2_" gradientUnits="userSpaceOnUse" x1="808.16" y1="1568.5801" x2="928.5601" y2="1568.5801" gradientTransform="matrix(1 0 0 1 -804.96 -1505.28)">
					<stop  offset="0" style="stop-color:#D1D3D4"/>
					<stop  offset="1" style="stop-color:#FFFFFF"/>
				</linearGradient>
				<path class="st2" d="M63.4,123.5c-33.2,0-60.2-26.9-60.2-60.2c0-33.2,26.9-60.2,60.2-60.2s60.2,26.9,60.2,60.2l0,0
					C123.5,96.6,96.6,123.5,63.4,123.5z"/>
				<g>
					<circle class="st3" cx="76.4" cy="76.4" r="47.5"/>
					<circle class="st4" cx="75.6" cy="75.6" r="47.5"/>
					<circle class="st5" cx="74.7" cy="74.7" r="47.4"/>
					<circle class="st6" cx="73.9" cy="73.9" r="47.4"/>
					<circle class="st7" cx="73.1" cy="73.1" r="47.3"/>
					<circle class="st8" cx="72.3" cy="72.3" r="47.3"/>
					<circle class="st9" cx="71.5" cy="71.5" r="47.2"/>
					<circle class="st10" cx="70.7" cy="70.7" r="47.2"/>
					<circle class="st11" cx="69.9" cy="69.9" r="47.1"/>
					<circle class="st12" cx="69.1" cy="69.1" r="47.1"/>
					<circle class="st13" cx="68.2" cy="68.2" r="47"/>
					<circle class="st14" cx="67.4" cy="67.4" r="47"/>
					<circle class="st15" cx="66.6" cy="66.6" r="46.9"/>
					<circle class="st16" cx="65.8" cy="65.8" r="46.9"/>
					<circle class="st17" cx="65" cy="65" r="46.8"/>
					<circle class="st18" cx="64.2" cy="64.2" r="46.8"/>
					<circle class="st0" cx="63.4" cy="63.4" r="46.7"/>
				</g>
				
					<linearGradient id="SVGID_3_" gradientUnits="userSpaceOnUse" x1="15.9" y1="495.4" x2="110.9" y2="495.4" gradientTransform="matrix(1 0 0 1 0 -432)">
					<stop  offset="0" style="stop-color:#8DC63F"/>
					<stop  offset="1" style="stop-color:#76B83F"/>
				</linearGradient>
				<circle class="st19" cx="63.4" cy="63.4" r="47.5"/>
				
					<linearGradient id="SVGID_4_" gradientUnits="userSpaceOnUse" x1="828.76" y1="1568.6801" x2="907.96" y2="1568.6801" gradientTransform="matrix(1 0 0 1 -804.96 -1505.28)">
					<stop  offset="0" style="stop-color:#76B83F"/>
					<stop  offset="1" style="stop-color:#8DC63F"/>
				</linearGradient>
				<path class="st20" d="M63.4,103c-21.9,0-39.6-17.7-39.6-39.6s17.7-39.6,39.6-39.6S103,41.5,103,63.4l0,0
					C102.9,85.2,85.2,102.9,63.4,103z"/>
			</g>
		</g>
	</g>
	<g>
		<g class="st21">
			<path d="M79.3,45.9H68.7c1.9,1.5,3.2,3.6,3.6,6.6h7v3.2h-7c-0.6,6.6-5.9,10.8-14.1,11c5,5.2,10.5,11.8,16,18.5H68
				c-5-6.1-9.8-11.7-15.8-18.2v-4h3.6c7,0,10.7-2.9,11.2-7.4H52.2v-3.2h14.5c-0.9-3.7-4.3-5.6-9.9-5.6h-4.6v-4.2h27.2V45.9z"/>
		</g>
		<g>
			<path class="st22" d="M74.5,44.6H63.9c1.9,1.5,3.2,3.6,3.6,6.6h7v3.2h-7c-0.6,6.6-5.9,10.8-14.1,11c5,5.2,10.5,11.8,16,18.5h-6.2
				c-5-6.1-9.8-11.7-15.8-18.2v-4h3.6c7,0,10.7-2.9,11.2-7.4H47.4v-3.2h14.5c-0.9-3.7-4.3-5.6-9.9-5.6h-4.6v-4.2h27.2V44.6z"/>
		</g>
	</g>
</g>
</svg>
