<?xml version="1.0" encoding="utf-8"?>
<!-- Generator: Adobe Illustrator 19.2.1, SVG Export Plug-In . SVG Version: 6.00 Build 0)  -->
<svg version="1.1" id="Layer_1" xmlns="http://www.w3.org/2000/svg" xmlns:xlink="http://www.w3.org/1999/xlink" x="0px" y="0px"
	 viewBox="0 0 960 560" style="enable-background:new 0 0 960 560;" xml:space="preserve">
<style type="text/css">
	.st0{fill:none;stroke:#92B9D1;stroke-width:12;stroke-miterlimit:10;}
	.st1{fill:#2B2A29;}
	.st2{fill:#E98238;}
	.st3{fill:#FFFFFF;}
	.st4{fill:#E8792F;}
	.st5{fill:#FF0000;}
	.st6{clip-path:url(#SVGID_2_);}
	.st7{fill:#FEFEFE;}
	.st8{fill:#009846;}
	
	#spinner_1 {
		transform-origin: 50% 50%;
		animation: slowrotate 1.5s ease-in-out infinite;
		z-index: 1;
	}

	#spinner_2 {
		transform-origin: 50% 50%;
		animation: slowrotate 1.5s ease-in-out reverse infinite;
		z-index: 2;
	}

	#CoRover {
		transform-origin: 50% 50%;
		animation: heartbeat 1.5s reverse infinite;
		z-index: 3;
	}

  @keyframes slowrotate {
    0% {
		transform: rotate(0deg);
	}
	100% {
		transform: rotate(360deg);
	}
  }

  @keyframes heartbeat {
     0% {
    transform: scale(1);
	}
	25% {
		transform: scale(1.1);
	}
	40% {
		transform: scale(1);
	}
	60% {
		transform: scale(1.1);
	}
	100% {
		transform: scale(1);
	}
  }
</style>
<path id="spinner_1" class="st0" d="M479.5,78.1c110,0.5,199,89.4,199,199.4"/>
<path id="spinner_2" class="st0" d="M489.4,28.5c132,0.6,238.5,107.1,238.7,239.1"/>
<g id="CoRover">
	<g>
		<path d="M544.2,257.9l-8.8,21.6l-36.4-14.8l8.8-21.6l32-6.6L544.2,257.9z M539.8,236.6l9.3,9.2l-4.9,12.1L539.8,236.6z
			 M520.5,217.5l19.3,19.1l-27.6,27.9l-19.3-19.1L520.5,217.5z"/>
	</g>
	<g>
		<path class="st1" d="M495.4,233.2h-17.7v-1.8h17.7l0.9,0.9L495.4,233.2z M495.4,231.3h0.9v0.9L495.4,231.3z M494.5,251.4v-19.1
			h1.8v19.1l-0.9,0.9L494.5,251.4z M496.3,251.4v0.9h-0.9L496.3,251.4z M477.7,250.4h17.7v1.8h-17.7l-0.9-0.9L477.7,250.4z
			 M477.7,252.3h-0.9v-0.9L477.7,252.3z M478.6,232.2v19.1h-1.8v-19.1l0.9-0.9L478.6,232.2z M476.7,232.2v-0.9h0.9L476.7,232.2z"/>
	</g>
	<g>
		<path class="st1" d="M482.3,242.2h9.3v1.8h-9.3l-0.9-0.9L482.3,242.2z M482.3,244h-0.9v-0.9L482.3,244z M483.2,240.7v2.4h-1.8
			v-2.4l0.9-0.9L483.2,240.7z M481.4,240.7v-0.9h0.9L481.4,240.7z M491.6,241.6h-9.3v-1.8h9.3l0.9,0.9L491.6,241.6z M491.6,239.8
			h0.9v0.9L491.6,239.8z M490.7,243.1v-2.4h1.8v2.4l-0.9,0.9L490.7,243.1z M492.5,243.1v0.9h-0.9L492.5,243.1z"/>
	</g>
	<g>
		<path class="st1" d="M497.6,233.2h-19.5v-1.8h19.5l0.9,0.9L497.6,233.2z M497.6,231.3h0.9v0.9L497.6,231.3z M496.7,252.9v-20.6
			h1.8v20.6l-0.9,0.9L496.7,252.9z M498.5,252.9v0.9h-0.9L498.5,252.9z M478.2,251.9h19.5v1.8h-19.5l-0.9-0.9L478.2,251.9z
			 M478.2,253.8h-0.9v-0.9L478.2,253.8z M479.1,232.2v20.6h-1.8v-20.6l0.9-0.9L479.1,232.2z M477.3,232.2v-0.9h0.9L477.3,232.2z"/>
	</g>
	<path class="st2" d="M567.7,356.1c14-19.2,26.6-43.8,26.6-81.2c0-64.8-50.9-117.3-115.9-117.3s-116.8,52.5-117.7,117.3
		c-0.8,56.2,27.9,85.9,54.9,104.2c48.2,32.8,160.3,16.9,160.3,16.9S545.6,386.6,567.7,356.1z"/>
	<path class="st3" d="M477.3,171.2c56.4,0,102.1,47,102.1,105.1c0,58-45.7,105.1-102.1,105.1c-56.4,0-102.1-47-102.1-105.1
		C375.1,218.2,420.8,171.2,477.3,171.2z"/>
	<path d="M469.9,218.4c0.3,4-0.3,10.1-0.3,10.1h14.5l-0.3-11.6L469.9,218.4z"/>
	<path d="M497.1,144.6c5.7,0,10.2,4.6,10.2,10.2c0,5.7-4.6,10.2-10.2,10.2c-5.7,0-10.2-4.6-10.2-10.2
		C486.9,149.2,491.5,144.6,497.1,144.6z"/>
	<path d="M387.4,224.4c3.4,1.7,10.1,5,10.4,4.7c0.4-0.4-3.3-3.9-3.3-3.9l1.9-3.9l9.3,0.3l8.3,11.2l-1.8,5.2c0,0-16.1,0.7-17.4,0.4
		c-0.9-0.2-6.9-5.5-10.3-8.5C385.5,228,386.4,226.1,387.4,224.4z"/>
	<path d="M509.9,177c1.5,5.6,2,11.5,1.4,17c-1.2,12.5-12.1,26.3-34.5,33c-21.3-5.3-33-31.3-29.2-51.6c9.1-2.7,18.7-4.2,28.7-4.2
		C488,171.2,499.4,173.2,509.9,177z"/>
	<path d="M444.8,187.1c2.7-1,5.9,1.1,7.2,4.8c1.3,3.6,0.2,7.4-2.5,8.4c-2.7,1-5.9-1.1-7.2-4.8C441,191.8,442.1,188.1,444.8,187.1z"
		/>
	<path d="M513.6,187.1c-2.7-1-5.9,1.1-7.2,4.8c-1.3,3.6-0.2,7.4,2.5,8.4c2.7,1,5.9-1.1,7.2-4.8C517.4,191.8,516.3,188.1,513.6,187.1
		z"/>
	<path d="M453.8,253l-5.6-19.9c0,0-1-4.8,4.6-5.5s20.4-1.8,20.4-1.8s18.7-0.5,20.3,0.8C495.1,227.9,453.8,253,453.8,253z"/>
	<path class="st3" d="M483,171.4c-2.6,4.1-7.3,5.2-7.3,5.2s4.2,1,10.5-2.3c1.3-0.7,2.2-1.4,3-2.2c4.6,0.6,9.1,1.5,13.5,2.7
		c8.4,12.2,6.4,25.3-4.5,38.2c-14.7,17.4-30.7,14.3-39.8,0.1c-16.4-25.3-5.1-32.6,6.5-41.2c3.8-0.4,7.6-0.7,11.4-0.7
		C478.5,171.2,480.8,171.3,483,171.4z"/>
	<path d="M493.2,181c6,0,10.8,4.6,10.8,10.4c0,5.7-4.8,10.4-10.8,10.4s-10.8-4.6-10.8-10.4C482.4,185.7,487.3,181,493.2,181z
		 M493.2,181.8L493.2,181.8c-5.5,0-10,4.3-10,9.6c0,5.3,4.5,9.6,10,9.6c5.5,0,10-4.3,10-9.6C503.2,186.1,498.7,181.8,493.2,181.8z"
		/>
	<path d="M464.8,181c6,0,10.8,4.6,10.8,10.4c0,5.7-4.8,10.4-10.8,10.4c-6,0-10.8-4.6-10.8-10.4C454,185.7,458.8,181,464.8,181z
		 M464.8,181.8L464.8,181.8c-5.5,0-10,4.3-10,9.6c0,5.3,4.5,9.6,10,9.6c5.5,0,10-4.3,10-9.6C474.8,186.1,470.3,181.8,464.8,181.8z"
		/>
	<path d="M475.2,190.3c0,0,1.6-1,3.7-1c2.1,0,3.8,0.9,3.8,0.9v1.6c0,0.4-2.1-2-3.8-2c-1.8,0.1-3.6,2-3.6,2L475.2,190.3z"/>
	<path d="M464.8,188c1.9,0,3.5,1.5,3.5,3.4c0,1.9-1.6,3.4-3.5,3.4c-1.9,0-3.5-1.5-3.5-3.4C461.3,189.5,462.8,188,464.8,188z"/>
	<path d="M493.2,188c1.9,0,3.5,1.5,3.5,3.4c0,1.9-1.6,3.4-3.5,3.4c-1.9,0-3.5-1.5-3.5-3.4C489.8,189.5,491.3,188,493.2,188z"/>
	<path class="st3" d="M493.2,187.6c0.6,0,1.1,0.5,1.1,1.1c0,0.6-0.5,1.1-1.1,1.1c-0.6,0-1.1-0.5-1.1-1.1
		C492.1,188.1,492.6,187.6,493.2,187.6z"/>
	<path class="st3" d="M464.8,187.6c0.6,0,1.1,0.5,1.1,1.1c0,0.6-0.5,1.1-1.1,1.1c-0.6,0-1.1-0.5-1.1-1.1
		C463.7,188.1,464.1,187.6,464.8,187.6z"/>
	<path class="st4" d="M456.5,252.6l-5.1-18c0,0-0.9-4.4,4.2-4.9c5.2-0.6,18.6-1.6,18.6-1.6s17.1-0.4,18.6,0.7
		C494.3,229.9,456.5,252.6,456.5,252.6z"/>
	<polygon points="449.4,184.5 454.7,189.3 454.3,190.3 	"/>
	<polygon points="503.4,188.7 510.1,184.1 503.7,190 	"/>
	<path class="st5" d="M472.5,210.8c-0.1,0.4,0.2,1.4,0.4,1.8c0.1,0.4,0.3,0.8,0.5,1.1c0.1,0.1,0.2,0.2,0.2,0.3
		c0.1,0,0.1,0.1,0.1,0.1c0.5,0.7,1.4,1.4,2.2,1.8c1.1,0.5,2,0.6,3.4,0.5l0,0l0.6-0.1c0.2-0.1,0.6-0.2,1.2-0.5c1.1-0.6,2-1.4,2.6-2.7
		c0.2-0.4,0.4-0.8,0.5-1.3c0.1-0.3,0.2-1.4,0.1-1.6c-0.2-0.4-0.5,0.3-1.4,0.1c-0.2,0-0.4-0.2-0.6-0.2c-0.2-0.1-0.5-0.2-0.6-0.2
		l-0.2-0.1c-0.9-0.2-1.6-0.3-2.5,0.1c-0.3,0.1-0.5,0.3-0.6,0.4c-0.1,0-0.2-0.2-0.3-0.2c-0.1-0.1-0.2-0.2-0.3-0.2l-0.3-0.1
		c-0.6-0.1-0.9-0.2-1.5-0.1c-0.9,0.1-1.9,0.9-2.6,0.7c-0.4-0.1-0.4-0.2-0.6-0.2C472.5,210.3,472.5,210.6,472.5,210.8z M483.6,211.7
		L483.6,211.7c-0.1,0.4-0.6,0.8-0.8,1c-1.9,1.5-5.1,1.5-7.3,0.5c-0.7-0.3-1.8-1-2-1.6c0.1,0,0.4,0.2,0.5,0.2
		c0.5,0.2,1.2,0.4,1.8,0.5c2.1,0.4,4.7,0.4,6.8-0.2C483.2,211.9,483.3,211.8,483.6,211.7z"/>
	<path class="st4" d="M494.7,276c2.8,5.2,6.6,12.9,9.2,21.1c4.7,14.8-8.3,29.2-5.6,39.7c1.2,4.4,4.8,21.3,8.6,39.7
		c-0.6,0.2-1.2,0.4-1.8,0.6c-4.2-20.6-8.1-39.8-8.9-42.4c-1.9-5.8,9.3-24.1,6.9-34.2c-1.6-6.4-6.1-17.2-9.1-24.3L494.7,276z"/>
	<path class="st2" d="M514.9,367.8l-0.2-0.5c5.6-3.1,18.1-13.4,23-17.5c-1.8-8.7-3.6-14.5-4.6-19c-2.7-11.4-4.8-22.5-7.5-33.9
		c-2.7-11.3-5.2-22.7-7.6-33.9c-2.4-11.3-6.4-23.1-8.4-34.1c-2.2,1.8-5.9,13.7-7.1,16.1c-1.3,2.8-7.2,14.8-7.3,16.5
		c-0.1,1.9,13,28,15,32.1c2.7,5.5-0.1,12.6-1.2,18.7c-1.1,6.3-2.2,13-3.5,19.3c-1.6,7.5,1.2,11.9,3.5,18.7
		C510.8,355.8,512.7,362.7,514.9,367.8z"/>
	<g>
		<defs>
			<polygon id="SVGID_1_" points="479.3,234.1 494.7,234.3 494.6,249.6 479.2,249.5 			"/>
		</defs>
		<clipPath id="SVGID_2_">
			<use xlink:href="#SVGID_1_"  style="overflow:visible;"/>
		</clipPath>
		<g class="st6">
		</g>
	</g>
	<path d="M506.5,298.7c0,0,5.5-12.5,5.1-12.8c-0.4-0.4-3.7,3.5-3.7,3.5l-3.9-1.8l0-9.5l10.7-8.9l5.2,1.7c0,0,1.3,16.4,1,17.7
		c-0.3,1.3-10,13.3-10,13.3L506.5,298.7z"/>
	<path d="M432.2,239.6c-0.3,0-2.1-0.7-2.5-0.9l-7.5-2.7c-0.5-0.2-9.5-3.6-10.2-3.6c-0.1,0.8-1.9,5-1.9,5.8l8.5,3.1
		c0.9,0.3,1.9,0.7,2.9,1c0.8,0.3,11,4.1,11.4,4.1l10.9-6.3c0.5-0.3,10.5-6.1,10.9-6.2c-1-1.8-2.1-3.5-3-5.4c-0.4,0-0.9,0.4-1.2,0.6
		c-3.5,2.1-7.3,4.2-10.9,6.3l-4.8,2.8c-0.4,0.2-0.8,0.5-1.2,0.7C433.2,239,432.2,239.6,432.2,239.6z"/>
	<path d="M469.5,218.2c0.3,4-0.3,10.1-0.3,10.1H484l-0.3-11.6L469.5,218.2z"/>
	<path d="M385.6,224c0,0,12.2,6,12.6,5.7c0.4-0.4-3.3-3.9-3.3-3.9l2-3.9l9.5,0.3l8.5,11.2l-1.9,5.2c0,0-16.4,0.7-17.8,0.4
		c-1.3-0.3-13-10.7-13-10.7L385.6,224z"/>
	<path d="M478.2,149.7c24.1-0.6,35.5,24.3,33.6,44c-1.2,12.5-12.3,26.3-35.2,33C440.1,217.9,431.2,150.9,478.2,149.7z"/>
	<path d="M443.9,186.9c2.7-1,6.1,1.1,7.4,4.8c1.3,3.6,0.2,7.4-2.5,8.4c-2.7,1-6.1-1.1-7.4-4.8C440,191.7,441.2,187.9,443.9,186.9z"
		/>
	<path d="M514.1,186.9c-2.7-1-6.1,1.1-7.4,4.8c-1.3,3.6-0.2,7.4,2.5,8.4c2.7,1,6.1-1.1,7.4-4.8C518,191.7,516.9,187.9,514.1,186.9z"
		/>
	<path class="st3" d="M477,159.4c0,0,0.1,0,0.1,0c2.7,2.7,7.6,8.3,5.8,11.5c-2.5,4.4-7.3,5.6-7.3,5.6s4.1,1,10.1-2.3
		c6-3.3,5.2-9.2,4.2-11.1c-0.1-0.2-0.3-0.5-0.5-0.9c20.7,15.6,22.1,33.2,7.9,50.7c-14.2,17.4-29.6,14.3-38.5,0.1
		C436.6,177.3,467.1,177.3,477,159.4z"/>
	<path d="M464.3,187.8c2,0,3.5,1.5,3.5,3.4c0,1.9-1.6,3.4-3.5,3.4c-2,0-3.5-1.5-3.5-3.4C460.7,189.4,462.3,187.8,464.3,187.8z"/>
	<path d="M493.3,187.8c2,0,3.5,1.5,3.5,3.4c0,1.9-1.6,3.4-3.5,3.4c-2,0-3.5-1.5-3.5-3.4C489.8,189.4,491.4,187.8,493.3,187.8z"/>
	<path class="st3" d="M493.3,187.4c0.6,0,1.1,0.5,1.1,1.1c0,0.6-0.5,1.1-1.1,1.1c-0.6,0-1.1-0.5-1.1-1.1
		C492.2,187.9,492.7,187.4,493.3,187.4z"/>
	<path class="st3" d="M464.3,187.4c0.6,0,1.1,0.5,1.1,1.1c0,0.6-0.5,1.1-1.1,1.1c-0.6,0-1.1-0.5-1.1-1.1
		C463.1,187.9,463.7,187.4,464.3,187.4z"/>
	<path class="st7" d="M454.6,251.9l-5.3-18c0,0-1-4.4,4.3-4.9c5.3-0.6,19-1.6,19-1.6s17.4-0.4,18.9,0.7
		C493.1,229.1,454.6,251.9,454.6,251.9z"/>
	<path class="st5" d="M472.2,210.7c-0.1,0.4,0.2,1.4,0.4,1.8c0.1,0.4,0.3,0.8,0.5,1.1c0.1,0.1,0.2,0.2,0.2,0.3
		c0.1,0,0.1,0.1,0.1,0.1c0.5,0.7,1.4,1.4,2.2,1.8c1.1,0.5,2.1,0.6,3.4,0.5l0,0l0.6-0.1c0.2-0.1,0.6-0.2,1.2-0.5
		c1.1-0.6,2-1.4,2.6-2.7c0.2-0.4,0.4-0.8,0.5-1.3c0.1-0.3,0.2-1.4,0.1-1.6c-0.2-0.4-0.5,0.3-1.4,0.1c-0.2,0-0.5-0.2-0.6-0.2
		c-0.2-0.1-0.5-0.2-0.6-0.2l-0.2-0.1c-0.9-0.3-1.6-0.3-2.5,0.1c-0.3,0.1-0.5,0.3-0.6,0.4c-0.1,0-0.2-0.2-0.3-0.2
		c-0.1-0.1-0.3-0.2-0.4-0.2l-0.3-0.1c-0.6-0.1-0.9-0.2-1.5-0.1c-0.9,0.1-1.9,0.9-2.7,0.7c-0.4-0.1-0.4-0.2-0.6-0.2
		C472.2,210.1,472.2,210.4,472.2,210.7z M483.5,211.5L483.5,211.5c-0.1,0.4-0.6,0.8-0.8,1c-1.9,1.5-5.2,1.5-7.4,0.5
		c-0.7-0.3-1.8-1-2.1-1.6c0.1,0,0.4,0.2,0.5,0.2c0.5,0.2,1.3,0.4,1.8,0.5c2.2,0.4,4.8,0.4,6.9-0.2
		C483,211.8,483.2,211.6,483.5,211.5z"/>
	<path d="M506.8,298.5c0,0,5.6-12.5,5.2-12.8c-0.4-0.4-3.8,3.5-3.8,3.5l-4-1.8l0-9.5l10.9-8.9l5.3,1.7c0,0,1.3,16.4,1,17.7
		c-0.3,1.3-10.2,13.4-10.2,13.4L506.8,298.5z"/>
	<path d="M492.8,181.3c5.7,0,10.4,4.4,10.4,9.8c0,5.4-4.7,9.8-10.4,9.8c-5.7,0-10.4-4.4-10.4-9.8
		C482.4,185.7,487.1,181.3,492.8,181.3z M492.8,182L492.8,182c-5.3,0-9.6,4.1-9.6,9.1c0,5,4.3,9.1,9.6,9.1c5.3,0,9.6-4.1,9.6-9.1
		C502.4,186.1,498.1,182,492.8,182z"/>
	<path d="M465.4,181.3c5.7,0,10.4,4.4,10.4,9.8c0,5.4-4.7,9.8-10.4,9.8c-5.7,0-10.4-4.4-10.4-9.8C455,185.7,459.6,181.3,465.4,181.3
		z M465.4,182L465.4,182c-5.3,0-9.6,4.1-9.6,9.1c0,5,4.3,9.1,9.6,9.1c5.3,0,9.6-4.1,9.6-9.1C475,186.1,470.7,182,465.4,182z"/>
	<path d="M504.3,233.1c0.2,0.5,1.7,1.9,2.1,2.3l10.9,10.9c0.4,0.4,0.8,0.7,1.1,1.1c0.2,0.3,0.2,0.3,0.5,0.6c0.7,0.7,2.3,2.1,2.8,2.8
		l-6.8,17.1c-0.3,0.7-0.8,1.8-1,2.6c0.4,0.2,0.9,0.4,1.4,0.6l2.9,1.1c0.5,0.2,1,0.4,1.5,0.6l9.4-23.6l-3.9-3.8
		c-1.8-2.2-9-9.1-11.4-11.5c-1.2-1.2-2.1-2-3.1-3.2c-0.4-0.4-1.6-1.7-2-1.9L504.3,233.1z"/>
	<path d="M475.4,190c0,0,1.5-1,3.5-0.9c2,0,3.7,0.9,3.7,0.9v1.5c0,0.4-2-1.9-3.7-1.9c-1.8,0-3.5,1.9-3.5,1.9L475.4,190z"/>
	<polygon points="450.5,184.6 455.7,189.1 455.3,190 	"/>
	<polygon points="502.6,188.5 509.1,184.2 502.9,189.8 	"/>
	<path class="st8" d="M452.8,362.9l-0.5,3.7c-0.5,2-1.2,6.5-1.9,12.2c9,2.1,19,3,30,2.5c12-0.5,22.4-2.2,31.5-5.1
		c-1-3.9-2.1-7.7-3.1-11.5c-9.2-34.4-6.6-23.4-1.2-61.4c0.8-5.4-2.5-9.5-4.7-14c-1.3-2.7-5-11.1-6.6-12.8l-1.6-13.6
		c0-3.7,14.7-29.5,14.9-33.8l-15-2.4c-3.5-0.5-2.1-0.6-4.4,0.7c-4.5,2.4-9.3,5.6-13.7,8.2c-4.3,2.7-25,14.4-26.8,16.4
		c2.5,2.7,5.7,8.4,7.7,11.5c2.1,3.3-0.3,6.2-3.3,12.7c-2.6,5.6-11.5,21.7-10,26.6c3,9.5,5.3,19.3,8.2,28.8
		C457.7,349,453.2,346.9,452.8,362.9z"/>
</g>
</svg>
