<svg id="Layer_1" data-name="Layer 1" xmlns="http://www.w3.org/2000/svg" viewBox="0 0 293.72 90.19">
  <defs>
    <style>
      .cls-1 {
        fill: #ff9800;
      }
    </style>
  </defs>
  <title>AskIshaTitle</title>
  <g>
    <path class="cls-1" d="M3068.07,814.8q0.14-4.21.28-8.41c0-1-.11-1.12-1.11-0.8-5.05,1.61-10.1,3.23-15.16,4.79-1.46.45-3,.76-4.45,1.07a2,2,0,0,0-1.55,1.23,17.15,17.15,0,0,0-1.71,7.57c0,1.58.17,3.16,0.19,4.74a1.63,1.63,0,0,1-.48,1.11,23.19,23.19,0,0,1-2.39,1.8,2.1,2.1,0,0,1-2.21.08,6,6,0,0,1-3.8-5.66,34.38,34.38,0,0,1,1.11-9.56A1.32,1.32,0,0,0,3036,811a18,18,0,0,1-1.92-1.17,1.8,1.8,0,0,1-.91-1.91c0.33-1.57.7-3.13,1.15-4.67a1.32,1.32,0,0,1,1.75-.94,8.11,8.11,0,0,1,1.48.52c0.46,0.2.87,0.49,1.32,0.71,1.2,0.59,1.47.54,2.13-.63,2.84-5,5.61-10.1,8.48-15.11,6.15-10.76,12.82-21.19,19.72-31.48a3.16,3.16,0,0,1,2.35-1.6c1.64-.21,3.25-0.7,4.89-0.92a8,8,0,0,1,2.63.17,2.46,2.46,0,0,1,2.05,3.12c-0.77,5.52-1.63,11-2.21,16.58-0.68,6.46-1.11,12.95-1.64,19.42-0.08.93,0,1,.95,1,2.19-.08,4.39-0.29,6.56-0.16a9,9,0,0,1,3.67,1.16c1.58,0.88,1.65,1.95.58,3.39s-2.88,1.88-4.64,2.06c-1.43.15-2.88,0.19-4.31,0.33a7.37,7.37,0,0,0-1.36.35,2.69,2.69,0,0,0-2.12,2.79c-0.15,5.47-.42,10.94-0.51,16.41a22.45,22.45,0,0,0,1.84,10.08c0.38,0.8-.17,1.35-0.64,1.92-1.46,1.75-3.26,1.44-5.11.89a4.37,4.37,0,0,1-3.28-3.59,53.31,53.31,0,0,1-.92-10.77c0-1.36,0-2.72,0-4.08h0.08Zm2.77-46.38a1.59,1.59,0,0,0-1.29,1.14c-6.12,9.76-12,19.65-17.41,29.83-0.47.88-.95,1.76-1.36,2.67s-0.21,1.07.7,1a9,9,0,0,0,1.63-.29c4.78-1.54,9.54-3.11,14.32-4.64a1.51,1.51,0,0,0,1.17-1.49c0.73-7.4,1.54-14.79,2.22-22.2C3071,772.43,3070.84,770.46,3070.84,768.41Z" transform="translate(-3033.14 -743.48)"/>
    <path class="cls-1" d="M3243.29,808.68c0.32-.4.67-0.79,1-1.21a283.8,283.8,0,0,1,22.18-27.16c1.15-1.24,2.25-2.52,4.07-2.87a8.75,8.75,0,0,1,5,.62,2.28,2.28,0,0,1,1.4,2.5,14.17,14.17,0,0,1-2,5.53,79.24,79.24,0,0,0-8.4,24.11,24.7,24.7,0,0,0-.15,8.71,3.9,3.9,0,0,0,3.22,3.37,3,3,0,0,1,.57.12c0.53,0.24,1.48.5,1.48,0.76a5.31,5.31,0,0,1-.68,2,0.88,0.88,0,0,1-.42.39c-2,.91-3.92,1.76-6.15,1.15-4.4-1.2-6.53-3.95-6.76-8.83a33,33,0,0,1,1.72-11.73c1.22-3.78,2.62-7.49,3.95-11.23,0.11-.32.2-0.65,0.3-1l-0.21-.15a4.91,4.91,0,0,0-.84.68c-2.44,3.09-4.95,6.15-7.28,9.32-3.39,4.61-6.66,9.31-10,14-0.86,1.19-1.79,2.34-2.74,3.46a6.34,6.34,0,0,1-4.75,2.27,5.94,5.94,0,0,1-2.57-.84,16.81,16.81,0,0,1-2.36-1.54,1.78,1.78,0,0,1-.72-2.18c1.17-3.73,2.25-7.49,3.53-11.19a192.43,192.43,0,0,1,8.67-20.38c5.82-12.12,12.14-24,18.66-35.74,1.23-2.21,2.37-4.46,3.53-6.71a2.14,2.14,0,0,1,1.71-1.31,7,7,0,0,1,5.3,1.17,3.52,3.52,0,0,1,1.16,4.18,7.75,7.75,0,0,1-1.37,2.45A91.83,91.83,0,0,0,3260,772c-4.52,9.32-8.76,18.77-13.12,28.16-1.18,2.54-2.33,5.1-3.48,7.66-0.11.24-.19,0.5-0.29,0.75Z" transform="translate(-3033.14 -743.48)"/>
    <path class="cls-1" d="M3151,826.87a10.26,10.26,0,0,1-7.68-3.44,2.2,2.2,0,0,0-.36-0.35c-2.49-1.7-3.63-4.35-4.9-6.9a146.62,146.62,0,0,1-6.48-16,4.72,4.72,0,0,0-.44-1,1,1,0,0,0-.59-0.49,0.93,0.93,0,0,0-.52.56c-0.61,1.46-1.18,2.94-1.77,4.41a93.41,93.41,0,0,0-4.36,15.53,15.2,15.2,0,0,1-1.25,3.16,1.87,1.87,0,0,1-1.65,1.11,19.22,19.22,0,0,1-3.3.14,2.84,2.84,0,0,1-2.51-3.55,40.84,40.84,0,0,1,1.19-4.41c4.09-12.32,9-24.32,14.15-36.22q5.76-13.3,11.47-26.62l0-.08c1-2.39,1.21-2.49,3.75-2.09l1.56,0.25c3.11,0.49,4.08,2,3.13,5a10.46,10.46,0,0,1-1.44,3c-5,6.91-8.49,14.62-11.54,22.55-1,2.51-2,5-3,7.49a3.81,3.81,0,0,0-.11,1,3.58,3.58,0,0,0,1-.25,75.09,75.09,0,0,0,10.36-7.26,36,36,0,0,0,6.64-7.43,8.28,8.28,0,0,1,3-3c2.57-1.33,4.75-.39,6.56,1.53a1.88,1.88,0,0,1,0,1.6,18.54,18.54,0,0,1-3.63,5.14c-5.41,5.95-12.19,10.13-18.75,14.58-1.39.94-1.52,1.29-1.06,2.91a70.39,70.39,0,0,0,7.15,16.73c1.89,3.18,4.31,5.88,8,7.11a6.43,6.43,0,0,0,1.53.37,0.87,0.87,0,0,1,1,1.07,4,4,0,0,1-.78,1.66,16.36,16.36,0,0,1-1.7,1.58A3.4,3.4,0,0,1,3151,826.87Z" transform="translate(-3033.14 -743.48)"/>
    <path class="cls-1" d="M3305.75,813.62c0.08-.87.22-2.31,0.33-3.75a5.71,5.71,0,0,0-.1-1,3.32,3.32,0,0,0-1,.4c-1.57,1.37-3.07,2.81-4.64,4.18-2.42,2.12-4.81,4.29-7.35,6.26a21.52,21.52,0,0,1-7.95,3.69,2.7,2.7,0,0,1-2-.39,53,53,0,0,1-6-4.51c-1.72-1.59-1.9-3.89-1.78-6.13,0.21-3.88,1.85-7.28,3.78-10.55a59,59,0,0,1,10.72-13.74,54.3,54.3,0,0,1,21-12.39c4.59-1.41,8.57.27,10.84,4.56a2.83,2.83,0,0,0,2.4,1.68,4.67,4.67,0,0,1,1.75.45c1.28,0.67,1.42,1.54.58,2.73-1.64,2.34-3.32,4.66-4.89,7a43.61,43.61,0,0,0-6.56,14.11,61.41,61.41,0,0,0-1.35,8.45,12.21,12.21,0,0,0,1.8,7.33,1.43,1.43,0,0,1-1,2.39,7.39,7.39,0,0,1-4.73.06,3.75,3.75,0,0,1-2.37-2.15A24.12,24.12,0,0,1,3305.75,813.62Zm-23.75-.69c-0.09,2.93,1.38,4,3.43,2.95a20.06,20.06,0,0,0,3.76-2.56q6.81-5.75,13.51-11.62a53.52,53.52,0,0,0,9.6-10.35c1.5-2.26,2.7-4.72,4.63-6.69a1.85,1.85,0,0,0,.2-2.27,2,2,0,0,0-2.11-1,9.16,9.16,0,0,0-2.61.77c-8.53,4.35-16.31,9.71-22.52,17.1a42.6,42.6,0,0,0-6.88,10.66A29.7,29.7,0,0,0,3282,812.92Z" transform="translate(-3033.14 -743.48)"/>
    <path class="cls-1" d="M3119.71,783.67a13.69,13.69,0,0,1-2.73,8c-1.05,1.44-1.19,1.5-2.9,1.09a4.31,4.31,0,0,1-3.58-3.58,3.22,3.22,0,0,1,.36-1.72,10.63,10.63,0,0,0,1.5-4.1,4.4,4.4,0,0,0-1.9-4.08,1.16,1.16,0,0,0-1.63.21c-2.93,3.33-5.34,6.92-5.58,11.52a20.93,20.93,0,0,0,.23,4.06c1.1,7.63,2.25,15.26,3.39,22.89a5,5,0,0,1,.07.75c0,1.31.6,2.74-.37,3.87-1.43,1.66-3,3.26-5.25,3.78a6.55,6.55,0,0,1-4.16-.39,29.37,29.37,0,0,1-12.34-10.35c-0.72-1-1.36-2.09-2.06-3.13-1.43-2.11,1-4.87,2.75-5,2.13-.16,3.78.35,4.87,2.37a64.27,64.27,0,0,0,3.64,6.06,24.61,24.61,0,0,0,2.94,3.13,2,2,0,0,0,.8.43c1,0.31,1.5-.07,1.37-1.08-0.2-1.51-.53-3-0.76-4.51-0.65-4.22-1.3-8.45-1.89-12.68q-0.52-3.67-.86-7.36A23.92,23.92,0,0,1,3098,782a17.1,17.1,0,0,1,4.41-5.88,10.11,10.11,0,0,1,9.79-2.19,14.14,14.14,0,0,1,3.31,1.29c2.73,1.49,3.89,4,4.14,7,0,0.28.06,0.55,0.08,0.83S3119.71,783.45,3119.71,783.67Z" transform="translate(-3033.14 -743.48)"/>
    <path class="cls-1" d="M3237,783.09a14.2,14.2,0,0,1-2.71,8.51c-1.09,1.5-1.25,1.57-3,1.11a4.26,4.26,0,0,1-3.49-3.66,2.89,2.89,0,0,1,.34-1.56,10.71,10.71,0,0,0,1.53-4.09,4.36,4.36,0,0,0-2-4.19,1.12,1.12,0,0,0-1.5.22,21.55,21.55,0,0,0-5.41,9.52,16.11,16.11,0,0,0,0,6c0.6,4.4,1.26,8.79,1.9,13.18,0.51,3.51.9,7.05,1.6,10.53,0.62,3-.89,4.83-3.07,6.4a6.8,6.8,0,0,1-7.38.56c-5.66-2.64-9.78-6.91-13.09-12.09-0.13-.21-0.26-0.43-0.4-0.63a2.91,2.91,0,0,1-.32-3.35,3.82,3.82,0,0,1,3.39-2.16,4.15,4.15,0,0,1,4.12,2.22c1.19,2.1,2.38,4.21,3.74,6.19a26.44,26.44,0,0,0,3,3.2,1.71,1.71,0,0,0,.58.32c1.15,0.48,1.77,0,1.57-1.18-0.34-2.11-.79-4.2-1.12-6.31-0.51-3.23-1-6.47-1.44-9.71-0.35-2.59-.73-5.18-0.89-7.78-0.42-7.1,1.46-13.36,6.8-18.37,4.53-4.25,12.26-2.5,15.24,1a7.44,7.44,0,0,1,1.6,3.33C3236.8,781.39,3236.9,782.5,3237,783.09Z" transform="translate(-3033.14 -743.48)"/>
    <path class="cls-1" d="M3210.1,763.34a7.08,7.08,0,0,1-2.38,5.51,7,7,0,0,0-1.76,2.68c-5.65,14.61-10.4,29.53-15.34,44.38a8.86,8.86,0,0,0-.48,3.58c0.18,2.28-.86,4.26-1.83,6.23a1.09,1.09,0,0,1-.83.42,1.88,1.88,0,0,0-1.62,1c-0.71,1.07-.88,1.07-1.86.29a3.13,3.13,0,0,0-.64-0.37c-1.17-.55-2.36-1.06-3.51-1.65a0.88,0.88,0,0,1-.24-0.77c0.42-2,.81-4,1.36-6,0.78-2.77,1.68-5.51,2.55-8.25,2.6-8.2,5.19-16.4,7.84-24.59,1.56-4.83,3.21-9.64,4.85-14.45,0.3-.89.7-1.75,1.06-2.62,1-2.49,2.06-5,3-7.48a1.9,1.9,0,0,1,1.51-1.37,9.84,9.84,0,0,1,7,1.05A2.16,2.16,0,0,1,3210.1,763.34Z" transform="translate(-3033.14 -743.48)"/>
  </g>
</svg>
