<svg id="Layer_1" data-name="Layer 1" xmlns="http://www.w3.org/2000/svg" xmlns:xlink="http://www.w3.org/1999/xlink" viewBox="0 0 126.8 148.36"><defs><style>.cls-1{fill:#8f908d;}.cls-2{fill:url(#linear-gradient);}.cls-3{fill:url(#linear-gradient-2);}.cls-22,.cls-4{fill:#fff;}.cls-4{fill-opacity:0;}.cls-5{fill:#fafafa;opacity:0.06;}.cls-10,.cls-11,.cls-12,.cls-13,.cls-14,.cls-15,.cls-16,.cls-17,.cls-18,.cls-19,.cls-5,.cls-6,.cls-7,.cls-8,.cls-9{isolation:isolate;}.cls-6{fill:#f4f5f4;opacity:0.13;}.cls-7{fill:#efefef;opacity:0.19;}.cls-8{fill:#ebebe9;opacity:0.25;}.cls-9{fill:#e4e4e3;opacity:0.31;}.cls-10{fill:#dcdcdb;opacity:0.38;}.cls-11{fill:#d4d5d3;opacity:0.44;}.cls-12{fill:#cdcdcc;opacity:0.5;}.cls-13{fill:#c5c5c4;opacity:0.56;}.cls-14{fill:#bdbebc;opacity:0.63;}.cls-15{fill:#b5b6b4;opacity:0.69;}.cls-16{fill:#aeafac;opacity:0.75;}.cls-17{fill:#a6a7a4;opacity:0.81;}.cls-18{fill:#9f9f9c;opacity:0.88;}.cls-19{fill:#979895;opacity:0.94;}.cls-20{fill:#f22c2c;}.cls-21{fill:#ea2d2d;}</style><linearGradient id="linear-gradient" x1="536.54" y1="3616.63" x2="663.34" y2="3616.63" gradientTransform="translate(-536.64 -3553.28)" gradientUnits="userSpaceOnUse"><stop offset="0" stop-color="#fff"/><stop offset="1" stop-color="#dfdfdd"/></linearGradient><linearGradient id="linear-gradient-2" x1="539.74" y1="3616.58" x2="660.14" y2="3616.58" gradientTransform="translate(-536.64 -3553.28)" gradientUnits="userSpaceOnUse"><stop offset="0" stop-color="#dfdfdd"/><stop offset="1" stop-color="#fff"/></linearGradient></defs><title>cancel</title><g id="symbol_buttons" data-name="symbol buttons"><path class="cls-1" d="M63.3,125.9a62.6,62.6,0,1,1,62.6-62.6h0A62.69,62.69,0,0,1,63.3,125.9Z" transform="translate(0.1)"/><path class="cls-2" d="M63.3,126.7a63.35,63.35,0,1,1,63.4-63.3h0A63.46,63.46,0,0,1,63.3,126.7Z" transform="translate(0.1)"/><path class="cls-3" d="M63.3,123.5a60.2,60.2,0,1,1,60.2-60.2h0A60.26,60.26,0,0,1,63.3,123.5Z" transform="translate(0.1)"/><circle class="cls-4" cx="76.4" cy="76.4" r="47.5"/><circle class="cls-5" cx="75.6" cy="75.6" r="47.5"/><circle class="cls-6" cx="74.7" cy="74.7" r="47.4"/><circle class="cls-7" cx="73.9" cy="73.9" r="47.4"/><circle class="cls-8" cx="73.1" cy="73.1" r="47.3"/><circle class="cls-9" cx="72.4" cy="72.3" r="47.3"/><circle class="cls-10" cx="71.5" cy="71.5" r="47.2"/><circle class="cls-11" cx="70.7" cy="70.7" r="47.2"/><circle class="cls-12" cx="69.9" cy="69.9" r="47.1"/><circle class="cls-13" cx="69.1" cy="69.1" r="47.1"/><circle class="cls-14" cx="68.2" cy="68.2" r="47"/><circle class="cls-15" cx="67.4" cy="67.4" r="47"/><circle class="cls-16" cx="66.6" cy="66.6" r="46.9"/><circle class="cls-17" cx="65.9" cy="65.8" r="46.9"/><circle class="cls-18" cx="65" cy="65" r="46.8"/><circle class="cls-19" cx="64.2" cy="64.2" r="46.8"/><circle class="cls-1" cx="63.4" cy="63.4" r="46.7"/><circle class="cls-20" cx="63.4" cy="63.4" r="47.5"/><path class="cls-21" d="M63.3,103a39.6,39.6,0,1,1,39.6-39.6h0A39.82,39.82,0,0,1,63.3,103Z" transform="translate(0.1)"/></g><path class="cls-22" d="M89.31,54.32l-4.2-4.17a6.41,6.41,0,0,1-9.06-9.07l-4.17-4.17a4.32,4.32,0,0,0-6,0L35.6,67.12a4.31,4.31,0,0,0,0,6l4.17,4.21a6.41,6.41,0,0,1,9.07,9.06l4.2,4.2a4.29,4.29,0,0,0,6,0L89.31,60.35a4.29,4.29,0,0,0,0-6Zm-9,6.67L59.67,81.59a2,2,0,0,1-1.5.6,2,2,0,0,1-1.5-.6L44.61,69.52a2.08,2.08,0,0,1,0-3l20.6-20.6a2.15,2.15,0,0,1,3,0L80.28,58a2.11,2.11,0,0,1,0,3Z" transform="translate(0.1)"/><path class="cls-22" d="M66.71,49,77.25,59.49,58.18,78.56,47.64,68Z" transform="translate(0.1)"/><path d="M18.54,147.68a4.59,4.59,0,0,1-1.81-1.94,7.22,7.22,0,0,1,0-5.9,4.63,4.63,0,0,1,1.81-1.93,5.44,5.44,0,0,1,2.75-.67,5.65,5.65,0,0,1,1.9.3,5.08,5.08,0,0,1,1.59.86,1.05,1.05,0,0,1,.28.33,1,1,0,0,1,.07.41.88.88,0,0,1-.18.57.55.55,0,0,1-.45.23,1.18,1.18,0,0,1-.63-.21,4.57,4.57,0,0,0-1.23-.69,3.87,3.87,0,0,0-1.26-.19,2.94,2.94,0,0,0-2.42,1,5.64,5.64,0,0,0,0,5.89,2.94,2.94,0,0,0,2.42,1,3.67,3.67,0,0,0,1.22-.2,5.51,5.51,0,0,0,1.27-.68,2.2,2.2,0,0,1,.31-.15.87.87,0,0,1,.32-.06.57.57,0,0,1,.45.23.88.88,0,0,1,.18.57,1.07,1.07,0,0,1-.07.41,1.17,1.17,0,0,1-.28.33,4.91,4.91,0,0,1-1.59.87,6.2,6.2,0,0,1-1.9.3A5.44,5.44,0,0,1,18.54,147.68Z" transform="translate(0.1)"/><path d="M32.14,141.29a3.24,3.24,0,0,1,.76,2.36v3.75a.86.86,0,0,1-.25.66,1,1,0,0,1-.67.23.92.92,0,0,1-.66-.24.87.87,0,0,1-.25-.65v-.34a2,2,0,0,1-.82.94,2.45,2.45,0,0,1-1.3.34,2.94,2.94,0,0,1-1.37-.31,2.42,2.42,0,0,1-1-.84,2.11,2.11,0,0,1-.35-1.2,1.91,1.91,0,0,1,.42-1.31,2.49,2.49,0,0,1,1.37-.69,12.14,12.14,0,0,1,2.63-.22h.39v-.35a1.61,1.61,0,0,0-.32-1.1A1.4,1.4,0,0,0,29.7,142a3.63,3.63,0,0,0-.91.13c-.3.09-.67.22-1.09.38a1.62,1.62,0,0,1-.58.2.6.6,0,0,1-.46-.2.74.74,0,0,1-.17-.52.78.78,0,0,1,.13-.46,1.2,1.2,0,0,1,.44-.36,4.9,4.9,0,0,1,1.28-.46,6.84,6.84,0,0,1,1.47-.17A3.14,3.14,0,0,1,32.14,141.29Zm-1.56,5.15a1.84,1.84,0,0,0,.49-1.33v-.32h-.28a11,11,0,0,0-1.6.09,1.54,1.54,0,0,0-.81.32.82.82,0,0,0-.25.63,1.05,1.05,0,0,0,.35.81,1.21,1.21,0,0,0,.85.32A1.65,1.65,0,0,0,30.58,146.44Z" transform="translate(0.1)"/><path d="M41.24,141.28a3.49,3.49,0,0,1,.66,2.32v3.79a.89.89,0,0,1-.26.67.94.94,0,0,1-.7.25,1,1,0,0,1-.7-.25.86.86,0,0,1-.27-.67v-3.68a2,2,0,0,0-.33-1.28,1.28,1.28,0,0,0-1-.4,1.78,1.78,0,0,0-1.34.53,1.94,1.94,0,0,0-.49,1.4v3.43a.86.86,0,0,1-.27.67,1,1,0,0,1-.7.25.94.94,0,0,1-.7-.25.89.89,0,0,1-.26-.67v-6a.85.85,0,0,1,.26-.64,1,1,0,0,1,.71-.25.92.92,0,0,1,.66.24.85.85,0,0,1,.25.62v.42a2.67,2.67,0,0,1,1-1,3.05,3.05,0,0,1,1.46-.34A2.55,2.55,0,0,1,41.24,141.28Z" transform="translate(0.1)"/><path d="M45.21,147.86a3.22,3.22,0,0,1-1.31-1.35,4.64,4.64,0,0,1,0-4.11,3.46,3.46,0,0,1,1.36-1.4,4.12,4.12,0,0,1,2-.49,4.59,4.59,0,0,1,1.21.17,4,4,0,0,1,1.07.46,1,1,0,0,1,.49.82.85.85,0,0,1-.16.54.51.51,0,0,1-.42.21.77.77,0,0,1-.35-.08,2.53,2.53,0,0,1-.37-.18,5.53,5.53,0,0,0-.65-.32,2.2,2.2,0,0,0-.71-.11,1.83,1.83,0,0,0-1.47.62,3.38,3.38,0,0,0,0,3.57,1.8,1.8,0,0,0,1.47.62,2.08,2.08,0,0,0,.69-.11,5.62,5.62,0,0,0,.67-.32,3.15,3.15,0,0,1,.4-.21,1,1,0,0,1,.33-.06.51.51,0,0,1,.42.21.85.85,0,0,1,.17.54.84.84,0,0,1-.12.45,1,1,0,0,1-.37.35,4.32,4.32,0,0,1-1.11.48,4.67,4.67,0,0,1-1.29.18A4,4,0,0,1,45.21,147.86Z" transform="translate(0.1)"/><path d="M57.73,146.36a.8.8,0,0,1,.16.53.92.92,0,0,1-.57.8,5,5,0,0,1-1.18.47,4.79,4.79,0,0,1-1.26.18A3.92,3.92,0,0,1,52,147.29a3.81,3.81,0,0,1-1.06-2.86,4.32,4.32,0,0,1,.46-2A3.36,3.36,0,0,1,52.7,141a3.76,3.76,0,0,1,1.9-.49,3.38,3.38,0,0,1,1.77.45,3,3,0,0,1,1.17,1.26,4.25,4.25,0,0,1,.41,1.92c0,.44-.19.66-.58.66H52.83a2.39,2.39,0,0,0,.6,1.56,2,2,0,0,0,1.48.5,2.86,2.86,0,0,0,.87-.12,7.13,7.13,0,0,0,.85-.34,1.72,1.72,0,0,1,.68-.24A.5.5,0,0,1,57.73,146.36Zm-4.34-4a2.33,2.33,0,0,0-.56,1.41h3.48a2.23,2.23,0,0,0-.46-1.42,1.54,1.54,0,0,0-1.2-.48A1.66,1.66,0,0,0,53.39,142.36Z" transform="translate(0.1)"/><path d="M59.79,148.07a.87.87,0,0,1-.27-.68V138.2a.83.83,0,0,1,.27-.67,1,1,0,0,1,.69-.23,1,1,0,0,1,.69.23.83.83,0,0,1,.27.67v9.19a.87.87,0,0,1-.27.68,1,1,0,0,1-.69.24A1,1,0,0,1,59.79,148.07Z" transform="translate(0.1)"/><path d="M70.59,148a.93.93,0,0,1-.27-.71V139h-2.8c-.62,0-.92-.27-.92-.81s.3-.82.92-.82H75.1c.62,0,.92.28.92.82s-.3.81-.92.81H72.3v8.31A.93.93,0,0,1,72,148a1,1,0,0,1-.71.27A1,1,0,0,1,70.59,148Z" transform="translate(0.1)"/><path d="M77.15,138.89a1,1,0,0,1-.31-.75.94.94,0,0,1,.31-.74,1.4,1.4,0,0,1,1.65,0,1,1,0,0,1,.32.74,1,1,0,0,1-.31.75,1.18,1.18,0,0,1-.83.28A1.16,1.16,0,0,1,77.15,138.89Zm.14,9.18a.87.87,0,0,1-.27-.68v-5.94a.85.85,0,0,1,.27-.68,1,1,0,0,1,.69-.23,1.06,1.06,0,0,1,.69.23.86.86,0,0,1,.28.68v5.94a.87.87,0,0,1-.28.68,1,1,0,0,1-.69.24A1,1,0,0,1,77.29,148.07Z" transform="translate(0.1)"/><path d="M82.29,147.86A3.22,3.22,0,0,1,81,146.51a4.64,4.64,0,0,1,0-4.11,3.46,3.46,0,0,1,1.36-1.4,4.16,4.16,0,0,1,2-.49,4.52,4.52,0,0,1,1.2.17,4,4,0,0,1,1.07.46,1,1,0,0,1,.49.82.85.85,0,0,1-.16.54.5.5,0,0,1-.42.21.77.77,0,0,1-.35-.08,2.53,2.53,0,0,1-.37-.18,4.86,4.86,0,0,0-.65-.32,2.16,2.16,0,0,0-.71-.11,1.83,1.83,0,0,0-1.47.62,3.38,3.38,0,0,0,0,3.57,1.8,1.8,0,0,0,1.47.62,2.08,2.08,0,0,0,.69-.11,5.62,5.62,0,0,0,.67-.32,3.15,3.15,0,0,1,.4-.21,1,1,0,0,1,.34-.06.51.51,0,0,1,.41.21.85.85,0,0,1,.17.54.84.84,0,0,1-.12.45,1,1,0,0,1-.37.35,4.32,4.32,0,0,1-1.11.48,4.67,4.67,0,0,1-1.29.18A4,4,0,0,1,82.29,147.86Z" transform="translate(0.1)"/><path d="M95.43,147.39a.92.92,0,0,1-.25.63.79.79,0,0,1-.59.27A.9.9,0,0,1,94,148l-3.6-3.26v2.63a.81.81,0,0,1-.28.67,1,1,0,0,1-.69.23,1,1,0,0,1-.68-.23.83.83,0,0,1-.27-.67V138.2a.83.83,0,0,1,.27-.67,1,1,0,0,1,.68-.23,1,1,0,0,1,.69.23.81.81,0,0,1,.28.67V144l3.29-3.16a.86.86,0,0,1,.63-.27.83.83,0,0,1,.62.26.85.85,0,0,1,.26.61.91.91,0,0,1-.29.65l-2.42,2.25,2.68,2.39A.92.92,0,0,1,95.43,147.39Z" transform="translate(0.1)"/><path d="M103,146.36a.86.86,0,0,1,.16.53.92.92,0,0,1-.57.8,5,5,0,0,1-1.18.47,4.92,4.92,0,0,1-1.27.18,3.9,3.9,0,0,1-2.87-1.05,3.81,3.81,0,0,1-1.06-2.86,4.32,4.32,0,0,1,.46-2,3.36,3.36,0,0,1,1.3-1.39,3.76,3.76,0,0,1,1.9-.49,3.43,3.43,0,0,1,1.77.45,2.9,2.9,0,0,1,1.16,1.26,4.12,4.12,0,0,1,.42,1.92c0,.44-.2.66-.58.66H98.05a2.39,2.39,0,0,0,.6,1.56,2,2,0,0,0,1.48.5,2.84,2.84,0,0,0,.86-.12,6.6,6.6,0,0,0,.86-.34,1.74,1.74,0,0,1,.67-.24A.51.51,0,0,1,103,146.36Zm-4.34-4a2.33,2.33,0,0,0-.56,1.41h3.47a2.17,2.17,0,0,0-.46-1.42,1.51,1.51,0,0,0-1.2-.48A1.63,1.63,0,0,0,98.61,142.36Z" transform="translate(0.1)"/><path d="M109.31,147.57a.62.62,0,0,1-.3.56,1.44,1.44,0,0,1-.86.16l-.41,0a2.48,2.48,0,0,1-2.59-2.77v-3.35h-.76a1,1,0,0,1-.64-.18.67.67,0,0,1-.23-.54.65.65,0,0,1,.23-.54,1,1,0,0,1,.64-.18h.76v-1.42a.84.84,0,0,1,.27-.66,1,1,0,0,1,.7-.25,1,1,0,0,1,.7.25.87.87,0,0,1,.26.66v1.42h1.3a1,1,0,0,1,.64.18.65.65,0,0,1,.23.54.67.67,0,0,1-.23.54,1,1,0,0,1-.64.18h-1.3v3.49c0,.76.35,1.17,1,1.22l.42,0C109.05,146.91,109.31,147.14,109.31,147.57Z" transform="translate(0.1)"/></svg>