<?xml version="1.0" encoding="utf-8"?>
<!-- Generator: Adobe Illustrator 19.2.1, SVG Export Plug-In . SVG Version: 6.00 Build 0)  -->
<svg version="1.1" id="Layer_1" xmlns="http://www.w3.org/2000/svg" xmlns:xlink="http://www.w3.org/1999/xlink" x="0px" y="0px"
	 viewBox="0 0 126.7 126.7" style="enable-background:new 0 0 126.7 126.7;" xml:space="preserve">
<style type="text/css">
	.st0{fill:url(#SVGID_1_);}
	.st1{fill:url(#SVGID_2_);}
	.st2{fill:#FFFFFF;fill-opacity:0;}
	.st3{opacity:6.000000e-002;fill:#F7F7F7;enable-background:new    ;}
	.st4{opacity:0.13;fill:#EFEFF0;enable-background:new    ;}
	.st5{opacity:0.19;fill:#E7E8E8;enable-background:new    ;}
	.st6{opacity:0.25;fill:#DFE0E1;enable-background:new    ;}
	.st7{opacity:0.31;fill:#D7D8D9;enable-background:new    ;}
	.st8{opacity:0.38;fill:#CFD0D1;enable-background:new    ;}
	.st9{opacity:0.44;fill:#C7C8CA;enable-background:new    ;}
	.st10{opacity:0.5;fill:#C0C1C2;enable-background:new    ;}
	.st11{opacity:0.56;fill:#B8B9BA;enable-background:new    ;}
	.st12{opacity:0.63;fill:#B0B1B3;enable-background:new    ;}
	.st13{opacity:0.69;fill:#A8A9AB;enable-background:new    ;}
	.st14{opacity:0.75;fill:#A0A1A4;enable-background:new    ;}
	.st15{opacity:0.81;fill:#98999C;enable-background:new    ;}
	.st16{opacity:0.88;fill:#909294;enable-background:new    ;}
	.st17{opacity:0.94;fill:#888A8D;enable-background:new    ;}
	.st18{fill:#808285;}
	.st19{fill:url(#SVGID_3_);}
	.st20{fill:url(#SVGID_4_);}
	.st21{opacity:0.31;}
	.st22{fill:none;stroke:#000000;stroke-width:3.135;stroke-miterlimit:10;}
	.st23{fill:none;stroke:#000000;stroke-width:3.9188;stroke-miterlimit:10;}
	.st24{fill:none;stroke:#000000;stroke-width:2.9956;stroke-miterlimit:10;}
	.st25{fill:none;stroke:#FFFFFF;stroke-width:3.135;stroke-miterlimit:10;}
	.st26{fill:none;stroke:#FFFFFF;stroke-width:3.9188;stroke-miterlimit:10;}
	.st27{fill:none;stroke:#FFFFFF;stroke-width:2.9956;stroke-miterlimit:10;}
</style>
<title>deals</title>
<g>
	<g id="symbol_buttons_1_">
		<g>
			<g>
				
					<linearGradient id="SVGID_1_" gradientUnits="userSpaceOnUse" x1="268.3299" y1="-1440.64" x2="395.0302" y2="-1440.64" gradientTransform="matrix(1 0 0 -1 -268.32 -1377.28)">
					<stop  offset="0" style="stop-color:#FFFFFF"/>
					<stop  offset="1" style="stop-color:#D1D3D4"/>
				</linearGradient>
				<path class="st0" d="M63.4,126.7C28.4,126.7,0,98.4,0,63.4C-0.1,28.4,28.3,0,63.3,0s63.4,28.3,63.4,63.3l0,0
					C126.6,98.3,98.3,126.7,63.4,126.7z"/>
				
					<linearGradient id="SVGID_2_" gradientUnits="userSpaceOnUse" x1="271.5302" y1="-1440.5901" x2="391.9301" y2="-1440.5901" gradientTransform="matrix(1 0 0 -1 -268.32 -1377.28)">
					<stop  offset="0" style="stop-color:#D1D3D4"/>
					<stop  offset="1" style="stop-color:#FFFFFF"/>
				</linearGradient>
				<path class="st1" d="M63.4,123.5c-33.2,0-60.2-26.9-60.2-60.2c0-33.2,26.9-60.2,60.2-60.2s60.2,26.9,60.2,60.2l0,0
					C123.5,96.6,96.6,123.5,63.4,123.5z"/>
				<g>
					<circle class="st2" cx="76.4" cy="76.4" r="47.5"/>
					<circle class="st3" cx="75.6" cy="75.6" r="47.5"/>
					<circle class="st4" cx="74.7" cy="74.7" r="47.4"/>
					<circle class="st5" cx="73.9" cy="73.9" r="47.4"/>
					<circle class="st6" cx="73.1" cy="73.1" r="47.3"/>
					<circle class="st7" cx="72.3" cy="72.3" r="47.3"/>
					<circle class="st8" cx="71.5" cy="71.5" r="47.2"/>
					<circle class="st9" cx="70.7" cy="70.7" r="47.2"/>
					<circle class="st10" cx="69.9" cy="69.9" r="47.1"/>
					<circle class="st11" cx="69.1" cy="69.1" r="47.1"/>
					<circle class="st12" cx="68.2" cy="68.2" r="47"/>
					<circle class="st13" cx="67.4" cy="67.4" r="47"/>
					<circle class="st14" cx="66.6" cy="66.6" r="46.9"/>
					<circle class="st15" cx="65.8" cy="65.8" r="46.9"/>
					<circle class="st16" cx="65" cy="65" r="46.8"/>
					<circle class="st17" cx="64.2" cy="64.2" r="46.8"/>
					<circle class="st18" cx="63.4" cy="63.4" r="46.7"/>
				</g>
				
					<linearGradient id="SVGID_3_" gradientUnits="userSpaceOnUse" x1="15.9101" y1="-367.41" x2="110.9101" y2="-367.41" gradientTransform="matrix(1 0 0 -1 0 -304)">
					<stop  offset="0" style="stop-color:#A364AB"/>
					<stop  offset="1" style="stop-color:#8C3D96"/>
				</linearGradient>
				<circle class="st19" cx="63.4" cy="63.4" r="47.5"/>
				
					<linearGradient id="SVGID_4_" gradientUnits="userSpaceOnUse" x1="292.1302" y1="-1440.6901" x2="371.3301" y2="-1440.6901" gradientTransform="matrix(1 0 0 -1 -268.32 -1377.28)">
					<stop  offset="0" style="stop-color:#8C3D96"/>
					<stop  offset="1" style="stop-color:#A364AB"/>
				</linearGradient>
				<path class="st20" d="M63.4,103c-21.9,0-39.6-17.7-39.6-39.6s17.7-39.6,39.6-39.6S103,41.5,103,63.4l0,0
					C102.9,85.2,85.2,102.9,63.4,103z"/>
			</g>
		</g>
	</g>
	<g>
		<g class="st21">
			<polygon class="st22" points="79.4,90.4 49.3,90.4 46.8,55 82.3,55 			"/>
			<line class="st22" x1="64.5" y1="55" x2="64.5" y2="90.4"/>
			<line class="st22" x1="46.8" y1="72.7" x2="82.3" y2="72.7"/>
			<path class="st23" d="M64.5,53.5c0,0-6.6-0.5-11-4.8s-4.6-7.4-2.9-9.1c1.7-1.7,4.7-1.5,9.1,2.9C64.1,46.9,64.5,53.5,64.5,53.5z"
				/>
			<path class="st24" d="M64,53c0,0,0.4-5.1,3.7-8.4c3.3-3.3,5.6-3.5,6.9-2.2s1.1,3.6-2.2,6.9C69,52.6,64,53,64,53z"/>
		</g>
		<g>
			<polygon class="st25" points="77.4,88.1 47.3,88.1 44.5,52.6 79.9,52.6 			"/>
			<line class="st25" x1="62.2" y1="52.6" x2="62.2" y2="88.1"/>
			<line class="st25" x1="44.5" y1="70.4" x2="79.9" y2="70.4"/>
			<path class="st26" d="M62.2,51.2c0,0-6.6-0.5-11-4.8s-4.6-7.4-2.9-9.1c1.7-1.7,4.7-1.5,9.1,2.9S62.2,51.2,62.2,51.2z"/>
			<path class="st27" d="M62.2,51.2c0,0,0.4-5.1,3.7-8.4c3.3-3.3,5.6-3.5,6.9-2.2s1.1,3.6-2.2,6.9C67.3,50.8,62.2,51.2,62.2,51.2z"
				/>
		</g>
	</g>
</g>
</svg>
