<svg id="Layer_1" data-name="Layer 1" xmlns="http://www.w3.org/2000/svg" xmlns:xlink="http://www.w3.org/1999/xlink" viewBox="0 0 126.8 152.25"><defs><style>.cls-1{fill:#8f908d;}.cls-2{fill:url(#linear-gradient);}.cls-3{fill:url(#linear-gradient-2);}.cls-22,.cls-4{fill:#fff;}.cls-4{fill-opacity:0;}.cls-5{fill:#fafafa;opacity:0.06;}.cls-10,.cls-11,.cls-12,.cls-13,.cls-14,.cls-15,.cls-16,.cls-17,.cls-18,.cls-19,.cls-5,.cls-6,.cls-7,.cls-8,.cls-9{isolation:isolate;}.cls-6{fill:#f4f5f4;opacity:0.13;}.cls-7{fill:#efefef;opacity:0.19;}.cls-8{fill:#ebebe9;opacity:0.25;}.cls-9{fill:#e4e4e3;opacity:0.31;}.cls-10{fill:#dcdcdb;opacity:0.38;}.cls-11{fill:#d4d5d3;opacity:0.44;}.cls-12{fill:#cdcdcc;opacity:0.5;}.cls-13{fill:#c5c5c4;opacity:0.56;}.cls-14{fill:#bdbebc;opacity:0.63;}.cls-15{fill:#b5b6b4;opacity:0.69;}.cls-16{fill:#aeafac;opacity:0.75;}.cls-17{fill:#a6a7a4;opacity:0.81;}.cls-18{fill:#9f9f9c;opacity:0.88;}.cls-19{fill:#979895;opacity:0.94;}.cls-20{fill:url(#linear-gradient-3);}.cls-21{fill:url(#linear-gradient-4);}.cls-23{fill:url(#linear-gradient-5);}</style><linearGradient id="linear-gradient" x1="536.54" y1="3616.63" x2="663.34" y2="3616.63" gradientTransform="translate(-536.64 -3553.28)" gradientUnits="userSpaceOnUse"><stop offset="0" stop-color="#fff"/><stop offset="1" stop-color="#dfdfdd"/></linearGradient><linearGradient id="linear-gradient-2" x1="539.74" y1="3616.58" x2="660.14" y2="3616.58" gradientTransform="translate(-536.64 -3553.28)" gradientUnits="userSpaceOnUse"><stop offset="0" stop-color="#dfdfdd"/><stop offset="1" stop-color="#fff"/></linearGradient><linearGradient id="linear-gradient-3" x1="15.8" y1="2543.4" x2="110.8" y2="2543.4" gradientTransform="translate(0.1 -2480)" gradientUnits="userSpaceOnUse"><stop offset="0" stop-color="#7f8deb"/><stop offset="1" stop-color="#6677e8"/></linearGradient><linearGradient id="linear-gradient-4" x1="560.34" y1="3616.68" x2="639.54" y2="3616.68" gradientTransform="translate(-536.64 -3553.28)" gradientUnits="userSpaceOnUse"><stop offset="0" stop-color="#6677e8"/><stop offset="1" stop-color="#7f8deb"/></linearGradient><linearGradient id="linear-gradient-5" x1="53.89" y1="61.74" x2="72.06" y2="61.74" gradientTransform="matrix(1, 0, 0, 1, 0, 0)" xlink:href="#linear-gradient-4"/></defs><title>live</title><g id="symbol_buttons" data-name="symbol buttons"><path class="cls-1" d="M63.3,125.9a62.6,62.6,0,1,1,62.6-62.6h0A62.69,62.69,0,0,1,63.3,125.9Z" transform="translate(0.1)"/><path class="cls-2" d="M63.3,126.7a63.35,63.35,0,1,1,63.4-63.3h0A63.46,63.46,0,0,1,63.3,126.7Z" transform="translate(0.1)"/><path class="cls-3" d="M63.3,123.5a60.2,60.2,0,1,1,60.2-60.2h0A60.26,60.26,0,0,1,63.3,123.5Z" transform="translate(0.1)"/><circle class="cls-4" cx="76.4" cy="76.4" r="47.5"/><circle class="cls-5" cx="75.6" cy="75.6" r="47.5"/><circle class="cls-6" cx="74.7" cy="74.7" r="47.4"/><circle class="cls-7" cx="73.9" cy="73.9" r="47.4"/><circle class="cls-8" cx="73.1" cy="73.1" r="47.3"/><circle class="cls-9" cx="72.4" cy="72.3" r="47.3"/><circle class="cls-10" cx="71.5" cy="71.5" r="47.2"/><circle class="cls-11" cx="70.7" cy="70.7" r="47.2"/><circle class="cls-12" cx="69.9" cy="69.9" r="47.1"/><circle class="cls-13" cx="69.1" cy="69.1" r="47.1"/><circle class="cls-14" cx="68.2" cy="68.2" r="47"/><circle class="cls-15" cx="67.4" cy="67.4" r="47"/><circle class="cls-16" cx="66.6" cy="66.6" r="46.9"/><circle class="cls-17" cx="65.9" cy="65.8" r="46.9"/><circle class="cls-18" cx="65" cy="65" r="46.8"/><circle class="cls-19" cx="64.2" cy="64.2" r="46.8"/><circle class="cls-1" cx="63.4" cy="63.4" r="46.7"/><circle class="cls-20" cx="63.4" cy="63.4" r="47.5"/><path class="cls-21" d="M63.3,103a39.6,39.6,0,1,1,39.6-39.6h0A39.82,39.82,0,0,1,63.3,103Z" transform="translate(0.1)"/></g><path class="cls-22" d="M81,61.74C81,76.2,64.71,89.6,64.71,89.6a2.87,2.87,0,0,1-3.47,0S44.92,76.2,44.92,61.74a18.06,18.06,0,0,1,36.12,0Z" transform="translate(0.1)"/><path class="cls-23" d="M63,70.83a9.09,9.09,0,1,1,9.08-9.09A9.1,9.1,0,0,1,63,70.83Z" transform="translate(0.1)"/><path d="M13.47,149.22a1,1,0,0,1-.27-.72v-8.3H10.4c-.61,0-.92-.27-.92-.82s.31-.81.92-.81H18q.93,0,.93.81c0,.55-.31.82-.93.82H15.19v8.3a1,1,0,0,1-1.72.72Z" transform="translate(0.1)"/><path d="M23.54,141.91a.75.75,0,0,1,.23.59.85.85,0,0,1-.2.62,1.29,1.29,0,0,1-.73.26l-.46.05a1.86,1.86,0,0,0-1.33.61,2,2,0,0,0-.42,1.31v3.23a.83.83,0,0,1-.28.68,1,1,0,0,1-.69.24,1,1,0,0,1-.68-.24.85.85,0,0,1-.27-.68v-6A.81.81,0,0,1,19,142a.93.93,0,0,1,.66-.23.92.92,0,0,1,.65.22.83.83,0,0,1,.25.64v.61a2.18,2.18,0,0,1,.87-1,2.6,2.6,0,0,1,1.28-.42h.21A.83.83,0,0,1,23.54,141.91Z" transform="translate(0.1)"/><path d="M30.16,142.48a3.3,3.3,0,0,1,.76,2.36v3.75a.9.9,0,0,1-.25.66,1,1,0,0,1-1.33,0,.85.85,0,0,1-.25-.65v-.33a2,2,0,0,1-.83.93,2.4,2.4,0,0,1-1.3.34,2.93,2.93,0,0,1-1.36-.31,2.34,2.34,0,0,1-1-.84,2.12,2.12,0,0,1-.36-1.2,1.88,1.88,0,0,1,.43-1.31,2.49,2.49,0,0,1,1.37-.69A12.74,12.74,0,0,1,28.7,145h.39v-.35a1.56,1.56,0,0,0-.33-1.1,1.36,1.36,0,0,0-1-.34,3.23,3.23,0,0,0-.91.13,10.86,10.86,0,0,0-1.09.37,1.43,1.43,0,0,1-.59.2.56.56,0,0,1-.45-.2.73.73,0,0,1-.18-.52.85.85,0,0,1,.13-.45,1.27,1.27,0,0,1,.44-.36,5.11,5.11,0,0,1,1.29-.47,6.69,6.69,0,0,1,1.47-.16A3.13,3.13,0,0,1,30.16,142.48Zm-1.56,5.15a1.86,1.86,0,0,0,.49-1.33V146h-.28a10.86,10.86,0,0,0-1.6.09,1.46,1.46,0,0,0-.81.33.79.79,0,0,0-.25.63,1,1,0,0,0,.35.8,1.21,1.21,0,0,0,.85.32A1.62,1.62,0,0,0,28.6,147.63Z" transform="translate(0.1)"/><path d="M34.23,149.06a3.18,3.18,0,0,1-1.31-1.36,4.27,4.27,0,0,1-.47-2,4.34,4.34,0,0,1,.49-2.07,3.37,3.37,0,0,1,1.36-1.39,4,4,0,0,1,2-.49,4.57,4.57,0,0,1,1.21.16,4,4,0,0,1,1.07.47.93.93,0,0,1,.49.81.86.86,0,0,1-.16.55.53.53,0,0,1-.42.2,1,1,0,0,1-.36-.07c-.12-.05-.24-.12-.37-.19a3.72,3.72,0,0,0-.64-.31,2,2,0,0,0-.71-.12,1.83,1.83,0,0,0-1.47.62,2.8,2.8,0,0,0-.51,1.8A2.71,2.71,0,0,0,35,147.4a1.81,1.81,0,0,0,1.47.63,1.85,1.85,0,0,0,.69-.12,4.9,4.9,0,0,0,.66-.32,3,3,0,0,1,.4-.2.86.86,0,0,1,.34-.07.53.53,0,0,1,.42.21.89.89,0,0,1,.17.54.85.85,0,0,1-.12.46,1.07,1.07,0,0,1-.38.34,3.82,3.82,0,0,1-1.1.49,5.07,5.07,0,0,1-1.29.17A4.08,4.08,0,0,1,34.23,149.06Z" transform="translate(0.1)"/><path d="M47.37,148.58a.92.92,0,0,1-.25.63.81.81,0,0,1-.6.28,1,1,0,0,1-.63-.28L42.3,146v2.63a.86.86,0,0,1-.28.68,1.08,1.08,0,0,1-.69.23,1,1,0,0,1-.69-.23.85.85,0,0,1-.27-.68V139.4a.85.85,0,0,1,.27-.68,1,1,0,0,1,.69-.23,1.08,1.08,0,0,1,.69.23.86.86,0,0,1,.28.68v5.78L45.59,142a.84.84,0,0,1,.63-.28.85.85,0,0,1,.61.26.83.83,0,0,1,.26.62.86.86,0,0,1-.29.64l-2.41,2.25,2.67,2.4A.86.86,0,0,1,47.37,148.58Z" transform="translate(0.1)"/><path d="M58.36,141.88a.81.81,0,0,1,.45-.13,1,1,0,0,1,.64.24.74.74,0,0,1,.28.59.87.87,0,0,1-.09.36l-4.2,8.79a.84.84,0,0,1-.81.52A.91.91,0,0,1,54,152a.69.69,0,0,1-.27-.56,1.08,1.08,0,0,1,.09-.39l1-2.19L52,142.94a.86.86,0,0,1-.07-.36.77.77,0,0,1,.3-.6,1,1,0,0,1,.68-.24.89.89,0,0,1,.48.13.91.91,0,0,1,.34.4L55.89,147,58,142.29A.86.86,0,0,1,58.36,141.88Z" transform="translate(0.1)"/><path d="M62.16,149.06a3.36,3.36,0,0,1-1.35-1.37,4.34,4.34,0,0,1-.48-2.08,4.28,4.28,0,0,1,.48-2.07,3.34,3.34,0,0,1,1.35-1.36,4.58,4.58,0,0,1,4,0,3.31,3.31,0,0,1,1.34,1.36,4.39,4.39,0,0,1,.47,2.07,4.46,4.46,0,0,1-.47,2.08,3.34,3.34,0,0,1-1.34,1.37,4.58,4.58,0,0,1-4,0Zm3.43-1.63a3.61,3.61,0,0,0,0-3.63,1.71,1.71,0,0,0-1.41-.62,1.75,1.75,0,0,0-1.43.62,3.54,3.54,0,0,0,0,3.63,2,2,0,0,0,2.84,0Z" transform="translate(0.1)"/><path d="M76.23,142a.87.87,0,0,1,.27.66v6a.85.85,0,0,1-.27.65,1,1,0,0,1-.7.24.93.93,0,0,1-.66-.23.79.79,0,0,1-.25-.63v-.38a2.45,2.45,0,0,1-1,.94,2.79,2.79,0,0,1-1.36.33c-1.84,0-2.77-1-2.77-3.1v-3.79a.87.87,0,0,1,.27-.66,1,1,0,0,1,.69-.24,1,1,0,0,1,.71.24.9.9,0,0,1,.26.66v3.8a1.82,1.82,0,0,0,.32,1.19,1.25,1.25,0,0,0,1,.38,1.67,1.67,0,0,0,1.29-.53,2,2,0,0,0,.48-1.41v-3.43a.9.9,0,0,1,.26-.66,1,1,0,0,1,.7-.24A1,1,0,0,1,76.23,142Z" transform="translate(0.1)"/><path d="M83.32,141.91a.71.71,0,0,1,.23.59.81.81,0,0,1-.2.62,1.22,1.22,0,0,1-.72.26l-.46.05a1.84,1.84,0,0,0-1.33.61,2,2,0,0,0-.42,1.31v3.23a.86.86,0,0,1-.28.68,1,1,0,0,1-.69.24,1,1,0,0,1-.69-.24.85.85,0,0,1-.26-.68v-6a.8.8,0,0,1,.26-.66,1,1,0,0,1,.67-.23.93.93,0,0,1,.65.22.83.83,0,0,1,.24.64v.61a2.3,2.3,0,0,1,.87-1,2.67,2.67,0,0,1,1.29-.42h.21A.79.79,0,0,1,83.32,141.91Z" transform="translate(0.1)"/><path d="M96.85,144.77a2.76,2.76,0,0,1,.51,1.69,2.63,2.63,0,0,1-1,2.17,4.3,4.3,0,0,1-2.73.78h-4a1,1,0,0,1-.7-.25.9.9,0,0,1-.25-.69v-9a.94.94,0,0,1,.25-.7,1,1,0,0,1,.7-.24h3.82a4.26,4.26,0,0,1,2.65.74,2.73,2.73,0,0,1,.51,3.58,2.58,2.58,0,0,1-1.26.92A2.64,2.64,0,0,1,96.85,144.77Zm-6.19-1.64h2.51c1.36,0,2-.5,2-1.52a1.32,1.32,0,0,0-.51-1.14,2.66,2.66,0,0,0-1.53-.36H90.66ZM95,147.49a1.44,1.44,0,0,0,.5-1.2,1.48,1.48,0,0,0-.5-1.22,2.56,2.56,0,0,0-1.56-.4H90.66v3.2h2.77A2.57,2.57,0,0,0,95,147.49Z" transform="translate(0.1)"/><path d="M100.32,148.39A4.54,4.54,0,0,1,99.16,145v-5.55a1,1,0,0,1,.26-.72,1.07,1.07,0,0,1,1.42,0,1,1,0,0,1,.26.72v5.65a3,3,0,0,0,.66,2.12,2.5,2.5,0,0,0,1.94.71,2.47,2.47,0,0,0,1.92-.72,3,3,0,0,0,.66-2.11v-5.65a1,1,0,0,1,.26-.72,1.07,1.07,0,0,1,1.42,0,1,1,0,0,1,.26.72V145a4,4,0,0,1-4.52,4.52A4.56,4.56,0,0,1,100.32,148.39Z" transform="translate(0.1)"/><path d="M112,149.23a5,5,0,0,1-1.72-.85.94.94,0,0,1-.16-1.3.57.57,0,0,1,.46-.24,1.22,1.22,0,0,1,.63.22,5,5,0,0,0,1.38.69,5.74,5.74,0,0,0,1.6.21,3.15,3.15,0,0,0,1.72-.39,1.27,1.27,0,0,0,.6-1.14,1,1,0,0,0-.56-.9,7.21,7.21,0,0,0-1.87-.61,11.34,11.34,0,0,1-2.2-.68,3,3,0,0,1-1.27-1,2.53,2.53,0,0,1-.43-1.52,2.85,2.85,0,0,1,.54-1.71,3.48,3.48,0,0,1,1.49-1.18,5.42,5.42,0,0,1,2.17-.42A5.36,5.36,0,0,1,118,139.6a1,1,0,0,1,.28.33.83.83,0,0,1,.09.41.92.92,0,0,1-.19.56.57.57,0,0,1-.46.24.82.82,0,0,1-.28,0,2.15,2.15,0,0,1-.35-.17,4.87,4.87,0,0,0-1.22-.68,4.12,4.12,0,0,0-1.45-.23,2.82,2.82,0,0,0-1.66.43,1.35,1.35,0,0,0-.6,1.17,1.07,1.07,0,0,0,.53,1,6.07,6.07,0,0,0,1.83.63,12.31,12.31,0,0,1,2.22.69,3.27,3.27,0,0,1,1.31,1,2.32,2.32,0,0,1,.46,1.46A2.8,2.8,0,0,1,118,148a3.49,3.49,0,0,1-1.5,1.14,5.6,5.6,0,0,1-2.2.41A7.77,7.77,0,0,1,112,149.23Z" transform="translate(0.1)"/></svg>