<svg id="Layer_1" data-name="Layer 1" xmlns="http://www.w3.org/2000/svg" xmlns:xlink="http://www.w3.org/1999/xlink" viewBox="0 0 126.8 158.3"><defs><style>.cls-1{fill:#79d700;}.cls-2{fill:#808285;}.cls-3{fill:url(#linear-gradient);}.cls-4{fill:url(#linear-gradient-2);}.cls-23,.cls-5{fill:#fff;}.cls-5{fill-opacity:0;}.cls-6{fill:#f7f7f7;opacity:0.06;}.cls-10,.cls-11,.cls-12,.cls-13,.cls-14,.cls-15,.cls-16,.cls-17,.cls-18,.cls-19,.cls-20,.cls-6,.cls-7,.cls-8,.cls-9{isolation:isolate;}.cls-7{fill:#efeff0;opacity:0.13;}.cls-8{fill:#e7e8e8;opacity:0.19;}.cls-9{fill:#dfe0e1;opacity:0.25;}.cls-10{fill:#d7d8d9;opacity:0.31;}.cls-11{fill:#cfd0d1;opacity:0.38;}.cls-12{fill:#c7c8ca;opacity:0.44;}.cls-13{fill:#c0c1c2;opacity:0.5;}.cls-14{fill:#b8b9ba;opacity:0.56;}.cls-15{fill:#b0b1b3;opacity:0.63;}.cls-16{fill:#a8a9ab;opacity:0.69;}.cls-17{fill:#a0a1a4;opacity:0.75;}.cls-18{fill:#98999c;opacity:0.81;}.cls-19{fill:#909294;opacity:0.88;}.cls-20{fill:#888a8d;opacity:0.94;}.cls-21{fill:url(#linear-gradient-3);}.cls-22{fill:url(#linear-gradient-4);}</style><linearGradient id="linear-gradient" x1="804.86" y1="3648.63" x2="931.66" y2="3648.63" gradientTransform="translate(-804.96 -3585.28)" gradientUnits="userSpaceOnUse"><stop offset="0" stop-color="#fff"/><stop offset="1" stop-color="#d1d3d4"/></linearGradient><linearGradient id="linear-gradient-2" x1="808.06" y1="3648.58" x2="928.46" y2="3648.58" gradientTransform="translate(-804.96 -3585.28)" gradientUnits="userSpaceOnUse"><stop offset="0" stop-color="#d1d3d4"/><stop offset="1" stop-color="#fff"/></linearGradient><linearGradient id="linear-gradient-3" x1="15.8" y1="2575.4" x2="110.8" y2="2575.4" gradientTransform="translate(0.1 -2512)" gradientUnits="userSpaceOnUse"><stop offset="0" stop-color="#8dc63f"/><stop offset="1" stop-color="#76b83f"/></linearGradient><linearGradient id="linear-gradient-4" x1="828.66" y1="3648.68" x2="907.86" y2="3648.68" gradientTransform="translate(-804.96 -3585.28)" gradientUnits="userSpaceOnUse"><stop offset="0" stop-color="#76b83f"/><stop offset="1" stop-color="#8dc63f"/></linearGradient></defs><title>packages</title><path class="cls-1" d="M115.9,158.3h-2.8" transform="translate(0.1)"/><path class="cls-1" d="M115.2,145.5" transform="translate(0.1)"/><g id="symbol_buttons" data-name="symbol buttons"><path class="cls-2" d="M63.3,125.9a62.6,62.6,0,1,1,62.6-62.6h0A62.69,62.69,0,0,1,63.3,125.9Z" transform="translate(0.1)"/><path class="cls-3" d="M63.3,126.7a63.35,63.35,0,1,1,63.4-63.3h0A63.46,63.46,0,0,1,63.3,126.7Z" transform="translate(0.1)"/><path class="cls-4" d="M63.3,123.5a60.2,60.2,0,1,1,60.2-60.2h0A60.26,60.26,0,0,1,63.3,123.5Z" transform="translate(0.1)"/><circle class="cls-5" cx="76.4" cy="76.4" r="47.5"/><circle class="cls-6" cx="75.6" cy="75.6" r="47.5"/><circle class="cls-7" cx="74.7" cy="74.7" r="47.4"/><circle class="cls-8" cx="73.9" cy="73.9" r="47.4"/><circle class="cls-9" cx="73.1" cy="73.1" r="47.3"/><circle class="cls-10" cx="72.4" cy="72.3" r="47.3"/><circle class="cls-11" cx="71.5" cy="71.5" r="47.2"/><circle class="cls-12" cx="70.7" cy="70.7" r="47.2"/><circle class="cls-13" cx="69.9" cy="69.9" r="47.1"/><circle class="cls-14" cx="69.1" cy="69.1" r="47.1"/><circle class="cls-15" cx="68.2" cy="68.2" r="47"/><circle class="cls-16" cx="67.4" cy="67.4" r="47"/><circle class="cls-17" cx="66.6" cy="66.6" r="46.9"/><circle class="cls-18" cx="65.9" cy="65.8" r="46.9"/><circle class="cls-19" cx="65" cy="65" r="46.8"/><circle class="cls-20" cx="64.2" cy="64.2" r="46.8"/><circle class="cls-2" cx="63.4" cy="63.4" r="46.7"/><circle class="cls-21" cx="63.4" cy="63.4" r="47.5"/><path class="cls-22" d="M63.3,103a39.6,39.6,0,1,1,39.6-39.6h0A39.82,39.82,0,0,1,63.3,103Z" transform="translate(0.1)"/></g><path class="cls-23" d="M74.38,52.36h-5.1V43H71a.85.85,0,0,0,.85-.85V39.61a.85.85,0,0,0-.85-.85H57.38a.85.85,0,0,0-.85.85v2.55a.85.85,0,0,0,.85.85h1.7v9.35H54a4.27,4.27,0,0,0-4.25,4.25V83A4.26,4.26,0,0,0,54,87.21v1.7a.85.85,0,0,0,.85.85h3.4a.85.85,0,0,0,.85-.85v-1.7h10.2v1.7a.85.85,0,0,0,.85.85h3.4a.85.85,0,0,0,.85-.85v-1.7A4.25,4.25,0,0,0,78.63,83V56.61A4.25,4.25,0,0,0,74.38,52.36ZM58.23,40.46h11.9v.85H58.23ZM60.78,43h6.8v9.35h-6.8Zm-3.4,45.05h-1.7v-.85h1.7Zm15.3,0H71v-.85h1.7ZM76.93,83a2.55,2.55,0,0,1-2.55,2.55H54A2.55,2.55,0,0,1,51.43,83V56.61A2.55,2.55,0,0,1,54,54.06h20.4a2.55,2.55,0,0,1,2.55,2.55Z" transform="translate(0.1)"/><path class="cls-23" d="M64.18,56.73a.85.85,0,0,0-.85.85V83.93a.85.85,0,0,0,1.7,0V57.58A.85.85,0,0,0,64.18,56.73Z" transform="translate(0.1)"/><path class="cls-23" d="M71,58.43a.85.85,0,0,0-.85.85v23a.85.85,0,0,0,1.7,0v-23A.85.85,0,0,0,71,58.43Z" transform="translate(0.1)"/><path class="cls-23" d="M57.38,58.43a.85.85,0,0,0-.85.85v23a.85.85,0,1,0,1.7,0v-23A.85.85,0,0,0,57.38,58.43Z" transform="translate(0.1)"/><path d="M11.57,150.72a1.33,1.33,0,0,1-.3-.91V139.32H8.09a1,1,0,1,1,0-2.06H16.7a1,1,0,1,1,0,2.06H13.52v10.49a1.29,1.29,0,0,1-.31.91,1,1,0,0,1-.81.34A1.08,1.08,0,0,1,11.57,150.72Z" transform="translate(0.1)"/><path d="M19.11,150.51a4,4,0,0,1-1.52-1.73,6.49,6.49,0,0,1,0-5.23,4,4,0,0,1,1.52-1.72,4.71,4.71,0,0,1,4.6,0,4,4,0,0,1,1.52,1.72,6.72,6.72,0,0,1,0,5.23,4,4,0,0,1-1.52,1.73,4.64,4.64,0,0,1-4.6,0ZM23,148.45a4.94,4.94,0,0,0,0-4.57,2,2,0,0,0-3.22,0,4.9,4.9,0,0,0,0,4.57,1.84,1.84,0,0,0,1.6.78A1.89,1.89,0,0,0,23,148.45Z" transform="translate(0.1)"/><path d="M35.1,141.58a1.13,1.13,0,0,1,.3.83V150a1.1,1.1,0,0,1-.31.82,1.09,1.09,0,0,1-.79.31,1,1,0,0,1-.75-.29,1.1,1.1,0,0,1-.28-.8v-.49a3,3,0,0,1-1.09,1.2,2.84,2.84,0,0,1-1.53.42q-3.15,0-3.15-3.93v-4.78a1.13,1.13,0,0,1,.3-.83,1,1,0,0,1,.79-.31,1.05,1.05,0,0,1,.8.31,1.13,1.13,0,0,1,.3.83v4.8a2.55,2.55,0,0,0,.36,1.5,1.37,1.37,0,0,0,1.16.48,1.77,1.77,0,0,0,1.45-.67,2.69,2.69,0,0,0,.55-1.78v-4.33a1.13,1.13,0,0,1,.3-.83,1,1,0,0,1,.79-.31A1.05,1.05,0,0,1,35.1,141.58Z" transform="translate(0.1)"/><path d="M43.15,141.48a1,1,0,0,1,.26.76,1.1,1.1,0,0,1-.23.78,1.4,1.4,0,0,1-.82.33l-.52.05a2,2,0,0,0-1.51.78,2.73,2.73,0,0,0-.48,1.65v4.08a1.2,1.2,0,0,1-.31.87,1.11,1.11,0,0,1-.79.3,1.07,1.07,0,0,1-.78-.3,1.19,1.19,0,0,1-.3-.87v-7.52a1.1,1.1,0,0,1,.3-.83,1,1,0,0,1,.76-.29,1,1,0,0,1,.74.28,1.11,1.11,0,0,1,.27.8v.78a2.86,2.86,0,0,1,1-1.32,2.75,2.75,0,0,1,1.46-.52l.24,0A.85.85,0,0,1,43.15,141.48Z" transform="translate(0.1)"/><path d="M44.28,150.28a1.18,1.18,0,0,1-.55-1.05,1,1,0,0,1,.19-.63.58.58,0,0,1,.47-.24,1.76,1.76,0,0,1,.82.31,8.44,8.44,0,0,0,1,.45,3.89,3.89,0,0,0,1.18.15,2,2,0,0,0,1.14-.27.85.85,0,0,0,.41-.76.77.77,0,0,0-.16-.52,1.47,1.47,0,0,0-.6-.36,10.22,10.22,0,0,0-1.3-.38,4.9,4.9,0,0,1-2.22-1,2.33,2.33,0,0,1-.67-1.77,2.81,2.81,0,0,1,.45-1.55,3,3,0,0,1,1.25-1.06,4,4,0,0,1,1.81-.38,4.76,4.76,0,0,1,1.41.2,4.45,4.45,0,0,1,1.22.59,1.22,1.22,0,0,1,.56,1,1,1,0,0,1-.19.65.57.57,0,0,1-.47.27.85.85,0,0,1-.38-.09l-.46-.26a7.12,7.12,0,0,0-.87-.44,2.44,2.44,0,0,0-.91-.15,1.59,1.59,0,0,0-1,.3,1,1,0,0,0-.38.79.84.84,0,0,0,.38.74,5,5,0,0,0,1.49.5,7.82,7.82,0,0,1,1.83.63,2.19,2.19,0,0,1,1,.87A2.69,2.69,0,0,1,51,148.2a2.61,2.61,0,0,1-1,2.12,4.08,4.08,0,0,1-2.63.8A5.17,5.17,0,0,1,44.28,150.28Z" transform="translate(0.1)"/><path d="M58,150.74a1.32,1.32,0,0,1-.31-.93V138.45a1.22,1.22,0,0,1,.29-.87,1,1,0,0,1,.79-.32H63a3.82,3.82,0,0,1,4.17,4.18,4.21,4.21,0,0,1-1.1,3.09A4.13,4.13,0,0,1,63,145.64H59.91v4.17a1.37,1.37,0,0,1-.3.93,1.09,1.09,0,0,1-.83.34A1,1,0,0,1,58,150.74Zm4.79-7a2.25,2.25,0,1,0,0-4.5H59.91v4.5Z" transform="translate(0.1)"/><path d="M75.11,142.21a4.38,4.38,0,0,1,.87,3v4.74a1.21,1.21,0,0,1-.28.83,1,1,0,0,1-.77.3,1,1,0,0,1-.74-.31,1.13,1.13,0,0,1-.29-.82v-.43a2.48,2.48,0,0,1-.94,1.19,2.59,2.59,0,0,1-1.47.43,3.1,3.1,0,0,1-1.55-.39,2.83,2.83,0,0,1-1.1-1.07,2.91,2.91,0,0,1-.41-1.52,2.57,2.57,0,0,1,.48-1.65,2.79,2.79,0,0,1,1.57-.87,12.85,12.85,0,0,1,3-.27h.44v-.45a2.1,2.1,0,0,0-.37-1.39,1.46,1.46,0,0,0-1.18-.44,3.37,3.37,0,0,0-1,.17c-.35.11-.77.27-1.25.47a1.62,1.62,0,0,1-.66.26.62.62,0,0,1-.51-.26,1,1,0,0,1-.2-.66,1,1,0,0,1,.14-.57,1.62,1.62,0,0,1,.5-.46,5.56,5.56,0,0,1,1.46-.58,6.88,6.88,0,0,1,1.67-.21A3.31,3.31,0,0,1,75.11,142.21Zm-1.76,6.51A2.52,2.52,0,0,0,73.9,147v-.41h-.31a11.86,11.86,0,0,0-1.82.11,1.75,1.75,0,0,0-.93.41,1.14,1.14,0,0,0-.28.8,1.38,1.38,0,0,0,.4,1,1.28,1.28,0,0,0,1,.4A1.79,1.79,0,0,0,73.35,148.72Z" transform="translate(0.1)"/><path d="M79.74,150.51a3.9,3.9,0,0,1-1.49-1.71,6.51,6.51,0,0,1,0-5.19,4.1,4.1,0,0,1,1.55-1.76,4.27,4.27,0,0,1,2.29-.62,4.7,4.7,0,0,1,1.37.21,4.38,4.38,0,0,1,1.21.58,1.25,1.25,0,0,1,.56,1,1.18,1.18,0,0,1-.18.69.58.58,0,0,1-.48.27,1.07,1.07,0,0,1-.41-.1l-.42-.23a3.82,3.82,0,0,0-.73-.4,2,2,0,0,0-.8-.15,2,2,0,0,0-1.67.79,4.67,4.67,0,0,0,0,4.51,2,2,0,0,0,1.67.78,2,2,0,0,0,.77-.14,6.34,6.34,0,0,0,.76-.4,2.54,2.54,0,0,1,.46-.26.92.92,0,0,1,.38-.09.55.55,0,0,1,.47.27,1.14,1.14,0,0,1,.2.68,1.26,1.26,0,0,1-.13.57,1.2,1.2,0,0,1-.43.44,4.34,4.34,0,0,1-1.26.61,4.91,4.91,0,0,1-1.47.23A4.18,4.18,0,0,1,79.74,150.51Z" transform="translate(0.1)"/><path d="M94.66,149.91a1.2,1.2,0,0,1-.29.8.85.85,0,0,1-.67.35,1,1,0,0,1-.72-.35l-4.08-4.12v3.32a1.12,1.12,0,0,1-.32.86,1.11,1.11,0,0,1-.78.29,1.09,1.09,0,0,1-.78-.29,1.15,1.15,0,0,1-.3-.86v-11.6a1.13,1.13,0,0,1,.3-.85,1,1,0,0,1,.78-.29,1.06,1.06,0,0,1,.78.29,1.1,1.1,0,0,1,.32.85v7.31l3.73-4a.94.94,0,0,1,.72-.35.91.91,0,0,1,.7.33,1.11,1.11,0,0,1,.3.77,1.18,1.18,0,0,1-.34.82l-2.74,2.84,3,3A1.18,1.18,0,0,1,94.66,149.91Z" transform="translate(0.1)"/><path d="M102.39,142.21a4.44,4.44,0,0,1,.86,3v4.74a1.16,1.16,0,0,1-.28.83,1.09,1.09,0,0,1-1.51,0,1.17,1.17,0,0,1-.29-.82v-.43a2.46,2.46,0,0,1-.93,1.19,2.65,2.65,0,0,1-1.48.43,3.13,3.13,0,0,1-1.55-.39,2.9,2.9,0,0,1-1.5-2.59,2.57,2.57,0,0,1,.48-1.65,2.79,2.79,0,0,1,1.56-.87,13,13,0,0,1,3-.27h.43v-.45a2.16,2.16,0,0,0-.36-1.39,1.48,1.48,0,0,0-1.19-.44,3.42,3.42,0,0,0-1,.17c-.35.11-.76.27-1.24.47a1.62,1.62,0,0,1-.66.26.64.64,0,0,1-.52-.26,1,1,0,0,1-.2-.66,1.05,1.05,0,0,1,.15-.57,1.51,1.51,0,0,1,.5-.46,5.35,5.35,0,0,1,1.45-.58,7,7,0,0,1,1.67-.21A3.34,3.34,0,0,1,102.39,142.21Zm-1.77,6.51a2.52,2.52,0,0,0,.55-1.68v-.41h-.31a12,12,0,0,0-1.82.11,1.68,1.68,0,0,0-.92.41,1.1,1.1,0,0,0-.28.8,1.41,1.41,0,0,0,.39,1,1.3,1.3,0,0,0,1,.4A1.78,1.78,0,0,0,100.62,148.72Z" transform="translate(0.1)"/><path d="M113.48,141.58a1.13,1.13,0,0,1,.3.83v7.68a4.64,4.64,0,0,1-1.12,3.38,4.41,4.41,0,0,1-3.3,1.14,5.91,5.91,0,0,1-3.18-.79,1.23,1.23,0,0,1-.64-1,1.12,1.12,0,0,1,.18-.68.56.56,0,0,1,.48-.26,1.12,1.12,0,0,1,.39.09l.47.21a9.45,9.45,0,0,0,1.12.44,3.72,3.72,0,0,0,1.15.16q2.28,0,2.28-2.49V149a2.76,2.76,0,0,1-1.11,1.23,3.24,3.24,0,0,1-1.68.44,3.47,3.47,0,0,1-2-.59,3.88,3.88,0,0,1-1.35-1.67A5.78,5.78,0,0,1,105,146a6,6,0,0,1,.48-2.48,3.88,3.88,0,0,1,1.35-1.67,3.5,3.5,0,0,1,2-.59,3.23,3.23,0,0,1,1.68.43,2.84,2.84,0,0,1,1.11,1.24v-.51a1.11,1.11,0,0,1,.3-.81,1.15,1.15,0,0,1,1.57,0ZM111,148.05a4.06,4.06,0,0,0,0-4.18,1.93,1.93,0,0,0-1.63-.76,2,2,0,0,0-1.63.76,4,4,0,0,0,0,4.18,2,2,0,0,0,1.63.75A2,2,0,0,0,111,148.05Z" transform="translate(0.1)"/><path d="M123.27,148.61a1.16,1.16,0,0,1,.18.68,1.18,1.18,0,0,1-.64,1,5.52,5.52,0,0,1-1.35.59,5,5,0,0,1-1.43.23,4.16,4.16,0,0,1-3.26-1.33,5.12,5.12,0,0,1-1.21-3.61,6.19,6.19,0,0,1,.52-2.58,4.12,4.12,0,0,1,1.48-1.75,3.88,3.88,0,0,1,2.16-.62,3.64,3.64,0,0,1,2,.56,3.71,3.71,0,0,1,1.32,1.59,5.73,5.73,0,0,1,.47,2.43q0,.84-.66.84h-5.15a3.28,3.28,0,0,0,.68,2,2.15,2.15,0,0,0,1.68.63,2.69,2.69,0,0,0,1-.16,8.14,8.14,0,0,0,1-.42,1.78,1.78,0,0,1,.77-.31A.56.56,0,0,1,123.27,148.61Zm-4.92-5.05a3.08,3.08,0,0,0-.64,1.79h4a3,3,0,0,0-.53-1.8,1.63,1.63,0,0,0-1.36-.61A1.75,1.75,0,0,0,118.35,143.56Z" transform="translate(0.1)"/></svg>