<?xml version="1.0" encoding="utf-8"?>
<!-- Generator: Adobe Illustrator 19.2.1, SVG Export Plug-In . SVG Version: 6.00 Build 0)  -->
<svg version="1.1" id="Layer_1" xmlns="http://www.w3.org/2000/svg" xmlns:xlink="http://www.w3.org/1999/xlink" x="0px" y="0px"
	 viewBox="0 0 126.7 126.7" style="enable-background:new 0 0 126.7 126.7;" xml:space="preserve">
<style type="text/css">
	.st0{fill:#808285;}
	.st1{fill:url(#SVGID_1_);}
	.st2{fill:url(#SVGID_2_);}
	.st3{fill:#FFFFFF;fill-opacity:0;}
	.st4{opacity:6.000000e-002;fill:#F7F7F7;enable-background:new    ;}
	.st5{opacity:0.13;fill:#EFEFF0;enable-background:new    ;}
	.st6{opacity:0.19;fill:#E7E8E8;enable-background:new    ;}
	.st7{opacity:0.25;fill:#DFE0E1;enable-background:new    ;}
	.st8{opacity:0.31;fill:#D7D8D9;enable-background:new    ;}
	.st9{opacity:0.38;fill:#CFD0D1;enable-background:new    ;}
	.st10{opacity:0.44;fill:#C7C8CA;enable-background:new    ;}
	.st11{opacity:0.5;fill:#C0C1C2;enable-background:new    ;}
	.st12{opacity:0.56;fill:#B8B9BA;enable-background:new    ;}
	.st13{opacity:0.63;fill:#B0B1B3;enable-background:new    ;}
	.st14{opacity:0.69;fill:#A8A9AB;enable-background:new    ;}
	.st15{opacity:0.75;fill:#A0A1A4;enable-background:new    ;}
	.st16{opacity:0.81;fill:#98999C;enable-background:new    ;}
	.st17{opacity:0.88;fill:#909294;enable-background:new    ;}
	.st18{opacity:0.94;fill:#888A8D;enable-background:new    ;}
	.st19{fill:url(#SVGID_3_);}
	.st20{fill:url(#SVGID_4_);}
	.st21{opacity:0.3;}
	.st22{fill:none;stroke:#000000;stroke-width:3.7338;stroke-miterlimit:10;}
	.st23{fill:none;stroke:#000000;stroke-width:1.1478;stroke-miterlimit:10;}
	.st24{fill:none;stroke:#000000;stroke-width:2.4892;stroke-miterlimit:10;}
	.st25{fill:none;stroke:#FFFFFF;stroke-width:3.7338;stroke-miterlimit:10;}
	.st26{fill:none;stroke:#FFFFFF;stroke-width:1.1478;stroke-miterlimit:10;}
	.st27{fill:none;stroke:#FFFFFF;stroke-width:2.4892;stroke-miterlimit:10;}
</style>
<title>ad</title>
<g>
	<g id="symbol_buttons">
		<g>
			<g>
				<g>
					<path class="st0" d="M63.4,125.9c-34.6,0-62.6-28-62.6-62.6s28-62.6,62.6-62.6c34.6,0,62.6,28,62.6,62.6v0
						C125.9,97.9,97.9,125.9,63.4,125.9z"/>
				</g>
				
					<linearGradient id="SVGID_1_" gradientUnits="userSpaceOnUse" x1="1073.28" y1="-1008.64" x2="1200" y2="-1008.64" gradientTransform="matrix(1 0 0 -1 -1073.28 -945.28)">
					<stop  offset="0" style="stop-color:#FFFFFF"/>
					<stop  offset="1" style="stop-color:#D1D3D4"/>
				</linearGradient>
				<path class="st1" d="M63.4,126.7C28.4,126.7,0,98.4,0,63.4S28.4,0,63.4,0c35,0,63.4,28.4,63.4,63.4l0,0
					C126.7,98.3,98.3,126.7,63.4,126.7z"/>
				
					<linearGradient id="SVGID_2_" gradientUnits="userSpaceOnUse" x1="1076.45" y1="-1008.64" x2="1196.83" y2="-1008.64" gradientTransform="matrix(1 0 0 -1 -1073.28 -945.28)">
					<stop  offset="0" style="stop-color:#D1D3D4"/>
					<stop  offset="1" style="stop-color:#FFFFFF"/>
				</linearGradient>
				<path class="st2" d="M63.4,123.5c-33.2,0-60.2-26.9-60.2-60.2S30.1,3.2,63.4,3.2s60.2,26.9,60.2,60.2v0
					C123.5,96.6,96.6,123.5,63.4,123.5z"/>
				<g>
					<circle class="st3" cx="76.4" cy="76.4" r="47.5"/>
					<circle class="st4" cx="75.6" cy="75.6" r="47.5"/>
					<circle class="st5" cx="74.7" cy="74.7" r="47.4"/>
					<circle class="st6" cx="73.9" cy="73.9" r="47.4"/>
					<circle class="st7" cx="73.1" cy="73.1" r="47.3"/>
					<circle class="st8" cx="72.3" cy="72.3" r="47.3"/>
					<circle class="st9" cx="71.5" cy="71.5" r="47.2"/>
					<circle class="st10" cx="70.7" cy="70.7" r="47.2"/>
					<circle class="st11" cx="69.9" cy="69.9" r="47.1"/>
					<circle class="st12" cx="69.1" cy="69.1" r="47.1"/>
					<circle class="st13" cx="68.2" cy="68.2" r="47"/>
					<circle class="st14" cx="67.4" cy="67.4" r="47"/>
					<circle class="st15" cx="66.6" cy="66.6" r="46.9"/>
					<circle class="st16" cx="65.8" cy="65.8" r="46.9"/>
					<circle class="st17" cx="65" cy="65" r="46.8"/>
					<circle class="st18" cx="64.2" cy="64.2" r="46.8"/>
					<circle class="st0" cx="63.4" cy="63.4" r="46.7"/>
				</g>
				
					<linearGradient id="SVGID_3_" gradientUnits="userSpaceOnUse" x1="15.84" y1="64.64" x2="110.88" y2="64.64" gradientTransform="matrix(1 0 0 -1 0 128)">
					<stop  offset="0" style="stop-color:#F35CB5"/>
					<stop  offset="1" style="stop-color:#EC008C"/>
				</linearGradient>
				<circle class="st19" cx="63.4" cy="63.4" r="47.5"/>
				
					<linearGradient id="SVGID_4_" gradientUnits="userSpaceOnUse" x1="1097.04" y1="-1008.64" x2="1176.24" y2="-1008.64" gradientTransform="matrix(1 0 0 -1 -1073.28 -945.28)">
					<stop  offset="0" style="stop-color:#EC008C"/>
					<stop  offset="1" style="stop-color:#F35CB5"/>
				</linearGradient>
				<path class="st20" d="M63.4,103c-21.9,0-39.6-17.7-39.6-39.6s17.7-39.6,39.6-39.6S103,41.5,103,63.4l0,0
					C102.9,85.2,85.2,102.9,63.4,103z"/>
			</g>
		</g>
	</g>
	<g>
		<g class="st21">
			<g>
				<path class="st22" d="M67.9,57.1c-7.2-7.2-15-11.2-17.4-9c0,0,0,0-0.1,0.1c-2.4,2.4,1.6,10.2,8.9,17.5
					c7.3,7.3,15.1,11.3,17.5,8.9c0,0,0.1-0.1,0.1-0.1C79.1,72,75.1,64.3,67.9,57.1z"/>
				<path class="st23" d="M67.3,64.2c0,1-0.3,2-1,2.8c-1.5-0.9-3.2-2.1-4.7-3.7c-1.6-1.6-2.8-3.3-3.7-4.8c0.7-0.6,1.7-0.9,2.7-0.9
					c1.6,0,3.3,0.7,4.6,2.1C66.6,61,67.3,62.7,67.3,64.2z"/>
				<path class="st22" d="M76.9,74.5c-3.2,4-10.2,4.7-17.6,6.8c-4,1.1-8.1,2.7-11.9,5.3c-1.3,0.9-2.5,1.9-3.7,3.1
					c-2.3-0.6-4.1-1.8-5.5-3.3C36.6,85,35.5,83.3,35,81c11.3-11.3,8.7-27.3,15.5-32.9c0,0,0,0-0.1,0.1c-2.4,2.4,1.6,10.2,8.9,17.5
					c7.3,7.3,15.1,11.3,17.5,8.9C76.9,74.5,76.9,74.5,76.9,74.5L76.9,74.5z"/>
				<path class="st22" d="M59.4,96c-3.3-4.2-9.2-7.8-12-9.4c3.8-2.7,8-4.2,11.9-5.3c4.5,1.4,4,5.4,2.8,5.8
					c-1.2,0.3,8.4,3.4,10.4,4.8S63.8,101.5,59.4,96z"/>
				<path class="st24" d="M62.6,44.4c2.8,0,7.2,2.4,11.1,6.3c4,4,6.4,8.4,6.3,11.2"/>
				<path class="st24" d="M63,38.1c3.7-0.2,9.7,3,15.1,8.3c5.3,5.3,8.5,11.2,8.3,14.9"/>
				<path class="st24" d="M64.3,31.1c4.6-0.3,12,3.6,18.6,10.3c6.6,6.6,10.5,13.8,10.3,18.4"/>
			</g>
		</g>
		<g>
			<g>
				<path class="st25" d="M66.5,54.9c-7.2-7.2-15-11.2-17.4-9c0,0,0,0-0.1,0.1c-2.4,2.4,1.6,10.2,8.9,17.5
					c7.3,7.3,15.1,11.3,17.5,8.9c0,0,0.1-0.1,0.1-0.1C77.7,69.8,73.7,62.1,66.5,54.9z"/>
				<path class="st26" d="M65.9,62c0,1-0.3,2-1,2.8c-1.5-0.9-3.2-2.1-4.7-3.7c-1.6-1.6-2.8-3.3-3.7-4.8c0.7-0.6,1.7-0.9,2.7-0.9
					c1.6,0,3.3,0.7,4.6,2.1C65.2,58.8,65.9,60.5,65.9,62z"/>
				<path class="st25" d="M75.5,72.3c-3.2,4-10.1,4.7-17.6,6.8c-4,1.1-8.1,2.7-11.9,5.3c-1.3,0.9-2.5,1.9-3.7,3.1
					c-2.3-0.6-4.1-1.8-5.5-3.3c-1.5-1.4-2.6-3.1-3.2-5.4c11.3-11.3,8.7-27.3,15.5-32.9c0,0,0,0-0.1,0.1c-2.4,2.4,1.6,10.2,8.9,17.5
					C65.2,70.7,73,74.7,75.5,72.3C75.4,72.3,75.5,72.3,75.5,72.3L75.5,72.3z"/>
				<path class="st25" d="M57.9,93.8c-3.3-4.2-9.2-7.8-12-9.4c3.8-2.7,8-4.2,11.9-5.3c4.5,1.4,4,5.4,2.8,5.8
					c-1.2,0.3,8.4,3.4,10.4,4.8C73.1,91.1,62.4,99.3,57.9,93.8z"/>
				<path class="st27" d="M61.2,42.2c2.8,0,7.2,2.4,11.1,6.3c4,4,6.4,8.4,6.3,11.2"/>
				<path class="st27" d="M61.6,35.9c3.7-0.2,9.7,3,15.1,8.3c5.3,5.3,8.5,11.2,8.3,14.9"/>
				<path class="st27" d="M62.8,28.9c4.6-0.3,12,3.6,18.6,10.3C88,45.7,91.9,53,91.7,57.6"/>
			</g>
		</g>
	</g>
</g>
</svg>
